  0
SECTION
  2
HEADER
  9
$ACADVER
  1
AC1009
  9
$EXTMIN
 10
0.0
 20
0.0
 30
0.0
  9
$EXTMAX
 10
1000.0
 20
1000.0
 30
0.0
  9
$FILLMODE
 70
 0
  9
$SPLFRAME
 70
 1
  0
ENDSEC
  0
SECTION
  2
TABLES
  0
TABLE
  2
LAYER
 70
1
  0
LAYER
  2
0
 70
     0
 62
     7
  6
CONTINUOUS
  0
ENDTAB
  0
ENDSEC
  0
SECTION
  2
ENTITIES
  0
LINE
  8
0
 62
     0
 10
0.0937066
 20
168.938
 30
0.0
 11
361.788
 21
168.938
 31
0.0
  0
LINE
  8
0
 62
     0
 10
361.788
 20
168.938
 30
0.0
 11
361.788
 21
0.0744142
 31
0.0
  0
LINE
  8
0
 62
     0
 10
361.788
 20
0.0744142
 30
0.0
 11
0.0937066
 21
0.0744142
 31
0.0
  0
LINE
  8
0
 62
     0
 10
0.0937066
 20
0.0744142
 30
0.0
 11
0.0937066
 21
168.938
 31
0.0
  0
LINE
  8
0
 62
     0
 10
156.81
 20
35.4623
 30
0.0
 11
155.921
 21
35.6993
 31
0.0
  0
LINE
  8
0
 62
     0
 10
155.921
 20
35.6993
 30
0.0
 11
155.067
 21
32.5121
 31
0.0
  0
LINE
  8
0
 62
     0
 10
155.067
 20
32.5121
 30
0.0
 11
155.955
 21
32.2737
 31
0.0
  0
LINE
  8
0
 62
     0
 10
155.955
 20
32.2737
 30
0.0
 11
155.509
 21
30.6076
 31
0.0
  0
LINE
  8
0
 62
     0
 10
155.509
 20
30.6076
 30
0.0
 11
158.629
 21
29.7711
 31
0.0
  0
LINE
  8
0
 62
     0
 10
158.629
 20
29.7711
 30
0.0
 11
158.233
 21
28.2994
 31
0.0
  0
LINE
  8
0
 62
     0
 10
158.233
 20
28.2994
 30
0.0
 11
157.655
 21
28.4538
 31
0.0
  0
LINE
  8
0
 62
     0
 10
157.655
 20
28.4538
 30
0.0
 11
157.861
 21
29.2268
 31
0.0
  0
LINE
  8
0
 62
     0
 10
157.861
 20
29.2268
 30
0.0
 11
154.867
 21
30.0288
 31
0.0
  0
LINE
  8
0
 62
     0
 10
154.867
 20
30.0288
 30
0.0
 11
154.66
 21
29.2571
 31
0.0
  0
LINE
  8
0
 62
     0
 10
154.66
 20
29.2571
 30
0.0
 11
153.694
 21
29.5148
 31
0.0
  0
LINE
  8
0
 62
     0
 10
153.694
 20
29.5148
 30
0.0
 11
150.071
 21
15.9921
 31
0.0
  0
LINE
  8
0
 62
     0
 10
150.071
 20
15.9921
 30
0.0
 11
151.037
 21
15.7345
 31
0.0
  0
LINE
  8
0
 62
     0
 10
151.037
 20
15.7345
 30
0.0
 11
150.83
 21
14.9614
 31
0.0
  0
LINE
  8
0
 62
     0
 10
150.83
 20
14.9614
 30
0.0
 11
153.823
 21
14.1593
 31
0.0
  0
LINE
  8
0
 62
     0
 10
153.823
 20
14.1593
 30
0.0
 11
154.03
 21
14.931
 31
0.0
  0
LINE
  8
0
 62
     0
 10
154.03
 20
14.931
 30
0.0
 11
154.611
 21
14.7753
 31
0.0
  0
LINE
  8
0
 62
     0
 10
154.611
 20
14.7753
 30
0.0
 11
154.216
 21
13.3022
 31
0.0
  0
LINE
  8
0
 62
     0
 10
154.216
 20
13.3022
 30
0.0
 11
151.096
 21
14.1387
 31
0.0
  0
LINE
  8
0
 62
     0
 10
151.096
 20
14.1387
 30
0.0
 11
150.65
 21
12.4726
 31
0.0
  0
LINE
  8
0
 62
     0
 10
150.65
 20
12.4726
 30
0.0
 11
149.761
 21
12.711
 31
0.0
  0
LINE
  8
0
 62
     0
 10
149.761
 20
12.711
 30
0.0
 11
148.907
 21
9.52225
 31
0.0
  0
LINE
  8
0
 62
     0
 10
148.907
 20
9.52225
 30
0.0
 11
149.795
 21
9.28522
 31
0.0
  0
LINE
  8
0
 62
     0
 10
149.795
 20
9.28522
 30
0.0
 11
149.349
 21
7.61919
 31
0.0
  0
LINE
  8
0
 62
     0
 10
149.349
 20
7.61919
 30
0.0
 11
152.469
 21
6.78272
 31
0.0
  0
LINE
  8
0
 62
     0
 10
152.469
 20
6.78272
 30
0.0
 11
152.255
 21
5.98622
 31
0.0
  0
LINE
  8
0
 62
     0
 10
152.255
 20
5.98622
 30
0.0
 11
154.96
 21
5.26136
 31
0.0
  0
LINE
  8
0
 62
     0
 10
154.96
 20
5.26136
 30
0.0
 11
155.174
 21
6.05786
 31
0.0
  0
LINE
  8
0
 62
     0
 10
155.174
 20
6.05786
 30
0.0
 11
161.229
 21
4.43452
 31
0.0
  0
LINE
  8
0
 62
     0
 10
161.229
 20
4.43452
 30
0.0
 11
161.677
 21
6.10196
 31
0.0
  0
LINE
  8
0
 62
     0
 10
161.677
 20
6.10196
 30
0.0
 11
162.622
 21
5.84839
 31
0.0
  0
LINE
  8
0
 62
     0
 10
162.622
 20
5.84839
 30
0.0
 11
163.477
 21
9.0358
 31
0.0
  0
LINE
  8
0
 62
     0
 10
163.477
 20
9.0358
 30
0.0
 11
162.531
 21
9.28934
 31
0.0
  0
LINE
  8
0
 62
     0
 10
162.531
 20
9.28934
 30
0.0
 11
162.976
 21
10.9554
 31
0.0
  0
LINE
  8
0
 62
     0
 10
162.976
 20
10.9554
 30
0.0
 11
158.659
 21
12.1116
 31
0.0
  0
LINE
  8
0
 62
     0
 10
158.659
 20
12.1116
 30
0.0
 11
159.053
 21
13.5847
 31
0.0
  0
LINE
  8
0
 62
     0
 10
159.053
 20
13.5847
 30
0.0
 11
159.633
 21
13.4304
 31
0.0
  0
LINE
  8
0
 62
     0
 10
159.633
 20
13.4304
 30
0.0
 11
159.427
 21
12.6573
 31
0.0
  0
LINE
  8
0
 62
     0
 10
159.427
 20
12.6573
 30
0.0
 11
162.421
 21
11.8553
 31
0.0
  0
LINE
  8
0
 62
     0
 10
162.421
 20
11.8553
 30
0.0
 11
162.628
 21
12.6284
 31
0.0
  0
LINE
  8
0
 62
     0
 10
162.628
 20
12.6284
 30
0.0
 11
163.594
 21
12.3693
 31
0.0
  0
LINE
  8
0
 62
     0
 10
163.594
 20
12.3693
 30
0.0
 11
167.217
 21
25.8919
 31
0.0
  0
LINE
  8
0
 62
     0
 10
167.217
 20
25.8919
 30
0.0
 11
166.252
 21
26.151
 31
0.0
  0
LINE
  8
0
 62
     0
 10
166.252
 20
26.151
 30
0.0
 11
166.459
 21
26.9241
 31
0.0
  0
LINE
  8
0
 62
     0
 10
166.459
 20
26.9241
 30
0.0
 11
163.464
 21
27.7261
 31
0.0
  0
LINE
  8
0
 62
     0
 10
163.464
 20
27.7261
 30
0.0
 11
163.256
 21
26.953
 31
0.0
  0
LINE
  8
0
 62
     0
 10
163.256
 20
26.953
 30
0.0
 11
162.677
 21
27.1074
 31
0.0
  0
LINE
  8
0
 62
     0
 10
162.677
 20
27.1074
 30
0.0
 11
163.072
 21
28.5805
 31
0.0
  0
LINE
  8
0
 62
     0
 10
163.072
 20
28.5805
 30
0.0
 11
167.39
 21
27.4243
 31
0.0
  0
LINE
  8
0
 62
     0
 10
167.39
 20
27.4243
 30
0.0
 11
167.835
 21
29.0904
 31
0.0
  0
LINE
  8
0
 62
     0
 10
167.835
 20
29.0904
 30
0.0
 11
168.782
 21
28.8368
 31
0.0
  0
LINE
  8
0
 62
     0
 10
168.782
 20
28.8368
 30
0.0
 11
169.636
 21
32.0242
 31
0.0
  0
LINE
  8
0
 62
     0
 10
169.636
 20
32.0242
 30
0.0
 11
168.691
 21
32.2778
 31
0.0
  0
LINE
  8
0
 62
     0
 10
168.691
 20
32.2778
 30
0.0
 11
169.136
 21
33.9452
 31
0.0
  0
LINE
  8
0
 62
     0
 10
169.136
 20
33.9452
 30
0.0
 11
163.081
 21
35.5671
 31
0.0
  0
LINE
  8
0
 62
     0
 10
163.081
 20
35.5671
 30
0.0
 11
163.293
 21
36.3636
 31
0.0
  0
LINE
  8
0
 62
     0
 10
163.293
 20
36.3636
 30
0.0
 11
160.59
 21
37.0886
 31
0.0
  0
LINE
  8
0
 62
     0
 10
160.59
 20
37.0886
 30
0.0
 11
160.376
 21
36.292
 31
0.0
  0
LINE
  8
0
 62
     0
 10
160.376
 20
36.292
 30
0.0
 11
157.256
 21
37.127
 31
0.0
  0
LINE
  8
0
 62
     0
 10
157.256
 20
37.127
 30
0.0
 11
156.81
 21
35.4623
 31
0.0
  0
LINE
  8
0
 62
     0
 10
209.48
 20
36.7344
 30
0.0
 11
209.266
 21
37.531
 31
0.0
  0
LINE
  8
0
 62
     0
 10
209.266
 20
37.531
 30
0.0
 11
206.562
 21
36.8074
 31
0.0
  0
LINE
  8
0
 62
     0
 10
206.562
 20
36.8074
 30
0.0
 11
206.775
 21
36.0094
 31
0.0
  0
LINE
  8
0
 62
     0
 10
206.775
 20
36.0094
 30
0.0
 11
200.718
 21
34.3862
 31
0.0
  0
LINE
  8
0
 62
     0
 10
200.718
 20
34.3862
 30
0.0
 11
201.166
 21
32.7201
 31
0.0
  0
LINE
  8
0
 62
     0
 10
201.166
 20
32.7201
 30
0.0
 11
200.219
 21
32.4666
 31
0.0
  0
LINE
  8
0
 62
     0
 10
200.219
 20
32.4666
 30
0.0
 11
201.072
 21
29.2792
 31
0.0
  0
LINE
  8
0
 62
     0
 10
201.072
 20
29.2792
 30
0.0
 11
202.02
 21
29.5327
 31
0.0
  0
LINE
  8
0
 62
     0
 10
202.02
 20
29.5327
 30
0.0
 11
202.466
 21
27.8667
 31
0.0
  0
LINE
  8
0
 62
     0
 10
202.466
 20
27.8667
 30
0.0
 11
206.784
 21
29.0242
 31
0.0
  0
LINE
  8
0
 62
     0
 10
206.784
 20
29.0242
 30
0.0
 11
207.178
 21
27.5511
 31
0.0
  0
LINE
  8
0
 62
     0
 10
207.178
 20
27.5511
 30
0.0
 11
206.598
 21
27.3954
 31
0.0
  0
LINE
  8
0
 62
     0
 10
206.598
 20
27.3954
 30
0.0
 11
206.392
 21
28.1685
 31
0.0
  0
LINE
  8
0
 62
     0
 10
206.392
 20
28.1685
 30
0.0
 11
203.399
 21
27.3665
 31
0.0
  0
LINE
  8
0
 62
     0
 10
203.399
 20
27.3665
 30
0.0
 11
203.605
 21
26.5934
 31
0.0
  0
LINE
  8
0
 62
     0
 10
203.605
 20
26.5934
 30
0.0
 11
202.639
 21
26.3343
 31
0.0
  0
LINE
  8
0
 62
     0
 10
202.639
 20
26.3343
 30
0.0
 11
206.262
 21
12.8102
 31
0.0
  0
LINE
  8
0
 62
     0
 10
206.262
 20
12.8102
 30
0.0
 11
207.228
 21
13.0693
 31
0.0
  0
LINE
  8
0
 62
     0
 10
207.228
 20
13.0693
 30
0.0
 11
207.435
 21
12.2976
 31
0.0
  0
LINE
  8
0
 62
     0
 10
207.435
 20
12.2976
 30
0.0
 11
210.429
 21
13.0996
 31
0.0
  0
LINE
  8
0
 62
     0
 10
210.429
 20
13.0996
 30
0.0
 11
210.221
 21
13.8727
 31
0.0
  0
LINE
  8
0
 62
     0
 10
210.221
 20
13.8727
 30
0.0
 11
210.801
 21
14.0284
 31
0.0
  0
LINE
  8
0
 62
     0
 10
210.801
 20
14.0284
 30
0.0
 11
211.197
 21
12.5553
 31
0.0
  0
LINE
  8
0
 62
     0
 10
211.197
 20
12.5553
 30
0.0
 11
206.879
 21
11.3978
 31
0.0
  0
LINE
  8
0
 62
     0
 10
206.879
 20
11.3978
 30
0.0
 11
207.324
 21
9.73169
 31
0.0
  0
LINE
  8
0
 62
     0
 10
207.324
 20
9.73169
 30
0.0
 11
206.379
 21
9.47815
 31
0.0
  0
LINE
  8
0
 62
     0
 10
206.379
 20
9.47815
 30
0.0
 11
207.232
 21
6.29073
 31
0.0
  0
LINE
  8
0
 62
     0
 10
207.232
 20
6.29073
 30
0.0
 11
208.18
 21
6.54431
 31
0.0
  0
LINE
  8
0
 62
     0
 10
208.18
 20
6.54431
 30
0.0
 11
208.625
 21
4.87825
 31
0.0
  0
LINE
  8
0
 62
     0
 10
208.625
 20
4.87825
 30
0.0
 11
214.682
 21
6.50021
 31
0.0
  0
LINE
  8
0
 62
     0
 10
214.682
 20
6.50021
 30
0.0
 11
214.895
 21
5.70371
 31
0.0
  0
LINE
  8
0
 62
     0
 10
214.895
 20
5.70371
 30
0.0
 11
217.6
 21
6.42856
 31
0.0
  0
LINE
  8
0
 62
     0
 10
217.6
 20
6.42856
 30
0.0
 11
217.387
 21
7.22507
 31
0.0
  0
LINE
  8
0
 62
     0
 10
217.387
 20
7.22507
 30
0.0
 11
220.507
 21
8.06016
 31
0.0
  0
LINE
  8
0
 62
     0
 10
220.507
 20
8.06016
 30
0.0
 11
220.06
 21
9.72756
 31
0.0
  0
LINE
  8
0
 62
     0
 10
220.06
 20
9.72756
 30
0.0
 11
220.949
 21
9.96597
 31
0.0
  0
LINE
  8
0
 62
     0
 10
220.949
 20
9.96597
 30
0.0
 11
220.095
 21
13.1534
 31
0.0
  0
LINE
  8
0
 62
     0
 10
220.095
 20
13.1534
 30
0.0
 11
219.206
 21
12.915
 31
0.0
  0
LINE
  8
0
 62
     0
 10
219.206
 20
12.915
 30
0.0
 11
218.759
 21
14.581
 31
0.0
  0
LINE
  8
0
 62
     0
 10
218.759
 20
14.581
 30
0.0
 11
215.64
 21
13.7445
 31
0.0
  0
LINE
  8
0
 62
     0
 10
215.64
 20
13.7445
 30
0.0
 11
215.246
 21
15.219
 31
0.0
  0
LINE
  8
0
 62
     0
 10
215.246
 20
15.219
 30
0.0
 11
215.824
 21
15.3734
 31
0.0
  0
LINE
  8
0
 62
     0
 10
215.824
 20
15.3734
 30
0.0
 11
216.032
 21
14.6003
 31
0.0
  0
LINE
  8
0
 62
     0
 10
216.032
 20
14.6003
 30
0.0
 11
219.025
 21
15.4023
 31
0.0
  0
LINE
  8
0
 62
     0
 10
219.025
 20
15.4023
 30
0.0
 11
218.819
 21
16.1754
 31
0.0
  0
LINE
  8
0
 62
     0
 10
218.819
 20
16.1754
 30
0.0
 11
219.785
 21
16.4345
 31
0.0
  0
LINE
  8
0
 62
     0
 10
219.785
 20
16.4345
 30
0.0
 11
216.162
 21
29.9572
 31
0.0
  0
LINE
  8
0
 62
     0
 10
216.162
 20
29.9572
 30
0.0
 11
215.196
 21
29.6995
 31
0.0
  0
LINE
  8
0
 62
     0
 10
215.196
 20
29.6995
 30
0.0
 11
214.989
 21
30.4712
 31
0.0
  0
LINE
  8
0
 62
     0
 10
214.989
 20
30.4712
 30
0.0
 11
211.993
 21
29.6692
 31
0.0
  0
LINE
  8
0
 62
     0
 10
211.993
 20
29.6692
 30
0.0
 11
212.201
 21
28.8975
 31
0.0
  0
LINE
  8
0
 62
     0
 10
212.201
 20
28.8975
 30
0.0
 11
211.621
 21
28.7418
 31
0.0
  0
LINE
  8
0
 62
     0
 10
211.621
 20
28.7418
 30
0.0
 11
211.227
 21
30.2135
 31
0.0
  0
LINE
  8
0
 62
     0
 10
211.227
 20
30.2135
 30
0.0
 11
214.347
 21
31.0499
 31
0.0
  0
LINE
  8
0
 62
     0
 10
214.347
 20
31.0499
 30
0.0
 11
213.9
 21
32.7174
 31
0.0
  0
LINE
  8
0
 62
     0
 10
213.9
 20
32.7174
 30
0.0
 11
214.789
 21
32.9544
 31
0.0
  0
LINE
  8
0
 62
     0
 10
214.789
 20
32.9544
 30
0.0
 11
213.935
 21
36.1417
 31
0.0
  0
LINE
  8
0
 62
     0
 10
213.935
 20
36.1417
 30
0.0
 11
213.046
 21
35.9033
 31
0.0
  0
LINE
  8
0
 62
     0
 10
213.046
 20
35.9033
 30
0.0
 11
212.6
 21
37.5694
 31
0.0
  0
LINE
  8
0
 62
     0
 10
212.6
 20
37.5694
 30
0.0
 11
209.48
 21
36.7344
 31
0.0
  0
LINE
  8
0
 62
     0
 10
222.272
 20
26.665
 30
0.0
 11
222.531
 21
25.6991
 31
0.0
  0
LINE
  8
0
 62
     0
 10
222.531
 20
25.6991
 30
0.0
 11
221.758
 21
25.4923
 31
0.0
  0
LINE
  8
0
 62
     0
 10
221.758
 20
25.4923
 30
0.0
 11
222.562
 21
22.4965
 31
0.0
  0
LINE
  8
0
 62
     0
 10
222.562
 20
22.4965
 30
0.0
 11
223.333
 21
22.7032
 31
0.0
  0
LINE
  8
0
 62
     0
 10
223.333
 20
22.7032
 30
0.0
 11
224.835
 21
17.1015
 31
0.0
  0
LINE
  8
0
 62
     0
 10
224.835
 20
17.1015
 30
0.0
 11
224.062
 21
16.8947
 31
0.0
  0
LINE
  8
0
 62
     0
 10
224.062
 20
16.8947
 30
0.0
 11
224.864
 21
13.9003
 31
0.0
  0
LINE
  8
0
 62
     0
 10
224.864
 20
13.9003
 30
0.0
 11
225.637
 21
14.1084
 31
0.0
  0
LINE
  8
0
 62
     0
 10
225.637
 20
14.1084
 30
0.0
 11
225.896
 21
13.1423
 31
0.0
  0
LINE
  8
0
 62
     0
 10
225.896
 20
13.1423
 30
0.0
 11
239.419
 21
16.7652
 31
0.0
  0
LINE
  8
0
 62
     0
 10
239.419
 20
16.7652
 30
0.0
 11
239.16
 21
17.7312
 31
0.0
  0
LINE
  8
0
 62
     0
 10
239.16
 20
17.7312
 30
0.0
 11
239.933
 21
17.9379
 31
0.0
  0
LINE
  8
0
 62
     0
 10
239.933
 20
17.9379
 30
0.0
 11
239.13
 21
20.9324
 31
0.0
  0
LINE
  8
0
 62
     0
 10
239.13
 20
20.9324
 30
0.0
 11
238.356
 21
20.7257
 31
0.0
  0
LINE
  8
0
 62
     0
 10
238.356
 20
20.7257
 30
0.0
 11
236.856
 21
26.3274
 31
0.0
  0
LINE
  8
0
 62
     0
 10
236.856
 20
26.3274
 30
0.0
 11
237.629
 21
26.5341
 31
0.0
  0
LINE
  8
0
 62
     0
 10
237.629
 20
26.5341
 30
0.0
 11
236.827
 21
29.5286
 31
0.0
  0
LINE
  8
0
 62
     0
 10
236.827
 20
29.5286
 30
0.0
 11
236.054
 21
29.3219
 31
0.0
  0
LINE
  8
0
 62
     0
 10
236.054
 20
29.3219
 30
0.0
 11
235.795
 21
30.2879
 31
0.0
  0
LINE
  8
0
 62
     0
 10
235.795
 20
30.2879
 30
0.0
 11
222.272
 21
26.665
 31
0.0
  0
LINE
  8
0
 62
     0
 10
134.969
 20
29.5534
 30
0.0
 11
134.196
 21
29.7601
 31
0.0
  0
LINE
  8
0
 62
     0
 10
134.196
 20
29.7601
 30
0.0
 11
133.394
 21
26.7656
 31
0.0
  0
LINE
  8
0
 62
     0
 10
133.394
 20
26.7656
 30
0.0
 11
134.166
 21
26.5589
 31
0.0
  0
LINE
  8
0
 62
     0
 10
134.166
 20
26.5589
 30
0.0
 11
132.665
 21
20.9572
 31
0.0
  0
LINE
  8
0
 62
     0
 10
132.665
 20
20.9572
 30
0.0
 11
131.892
 21
21.1639
 31
0.0
  0
LINE
  8
0
 62
     0
 10
131.892
 20
21.1639
 30
0.0
 11
131.09
 21
18.1694
 31
0.0
  0
LINE
  8
0
 62
     0
 10
131.09
 20
18.1694
 30
0.0
 11
131.863
 21
17.9614
 31
0.0
  0
LINE
  8
0
 62
     0
 10
131.863
 20
17.9614
 30
0.0
 11
131.604
 21
16.9954
 31
0.0
  0
LINE
  8
0
 62
     0
 10
131.604
 20
16.9954
 30
0.0
 11
145.127
 21
13.3725
 31
0.0
  0
LINE
  8
0
 62
     0
 10
145.127
 20
13.3725
 30
0.0
 11
145.386
 21
14.3385
 31
0.0
  0
LINE
  8
0
 62
     0
 10
145.386
 20
14.3385
 30
0.0
 11
146.159
 21
14.1318
 31
0.0
  0
LINE
  8
0
 62
     0
 10
146.159
 20
14.1318
 30
0.0
 11
146.961
 21
17.1263
 31
0.0
  0
LINE
  8
0
 62
     0
 10
146.961
 20
17.1263
 30
0.0
 11
146.188
 21
17.333
 31
0.0
  0
LINE
  8
0
 62
     0
 10
146.188
 20
17.333
 30
0.0
 11
147.689
 21
22.9347
 31
0.0
  0
LINE
  8
0
 62
     0
 10
147.689
 20
22.9347
 30
0.0
 11
148.462
 21
22.728
 31
0.0
  0
LINE
  8
0
 62
     0
 10
148.462
 20
22.728
 30
0.0
 11
149.263
 21
25.7225
 31
0.0
  0
LINE
  8
0
 62
     0
 10
149.263
 20
25.7225
 30
0.0
 11
148.492
 21
25.9292
 31
0.0
  0
LINE
  8
0
 62
     0
 10
148.492
 20
25.9292
 30
0.0
 11
148.749
 21
26.8952
 31
0.0
  0
LINE
  8
0
 62
     0
 10
148.749
 20
26.8952
 30
0.0
 11
135.228
 21
30.5194
 31
0.0
  0
LINE
  8
0
 62
     0
 10
135.228
 20
30.5194
 30
0.0
 11
134.969
 21
29.5534
 31
0.0
  0
LINE
  8
0
 62
     0
 10
116.634
 20
38.4101
 30
0.0
 11
115.861
 21
38.6182
 31
0.0
  0
LINE
  8
0
 62
     0
 10
115.861
 20
38.6182
 30
0.0
 11
115.059
 21
35.6224
 31
0.0
  0
LINE
  8
0
 62
     0
 10
115.059
 20
35.6224
 30
0.0
 11
115.832
 21
35.4157
 31
0.0
  0
LINE
  8
0
 62
     0
 10
115.832
 20
35.4157
 30
0.0
 11
114.33
 21
29.8139
 31
0.0
  0
LINE
  8
0
 62
     0
 10
114.33
 20
29.8139
 30
0.0
 11
113.557
 21
30.0206
 31
0.0
  0
LINE
  8
0
 62
     0
 10
113.557
 20
30.0206
 30
0.0
 11
112.755
 21
27.0261
 31
0.0
  0
LINE
  8
0
 62
     0
 10
112.755
 20
27.0261
 30
0.0
 11
113.528
 21
26.8194
 31
0.0
  0
LINE
  8
0
 62
     0
 10
113.528
 20
26.8194
 30
0.0
 11
113.269
 21
25.8534
 31
0.0
  0
LINE
  8
0
 62
     0
 10
113.269
 20
25.8534
 30
0.0
 11
126.792
 21
22.2291
 31
0.0
  0
LINE
  8
0
 62
     0
 10
126.792
 20
22.2291
 30
0.0
 11
127.051
 21
23.1951
 31
0.0
  0
LINE
  8
0
 62
     0
 10
127.051
 20
23.1951
 30
0.0
 11
127.824
 21
22.9884
 31
0.0
  0
LINE
  8
0
 62
     0
 10
127.824
 20
22.9884
 30
0.0
 11
128.626
 21
25.9829
 31
0.0
  0
LINE
  8
0
 62
     0
 10
128.626
 20
25.9829
 30
0.0
 11
127.853
 21
26.1896
 31
0.0
  0
LINE
  8
0
 62
     0
 10
127.853
 20
26.1896
 30
0.0
 11
129.355
 21
31.7927
 31
0.0
  0
LINE
  8
0
 62
     0
 10
129.355
 20
31.7927
 30
0.0
 11
130.127
 21
31.586
 31
0.0
  0
LINE
  8
0
 62
     0
 10
130.127
 20
31.586
 30
0.0
 11
130.93
 21
34.5791
 31
0.0
  0
LINE
  8
0
 62
     0
 10
130.93
 20
34.5791
 30
0.0
 11
130.157
 21
34.7872
 31
0.0
  0
LINE
  8
0
 62
     0
 10
130.157
 20
34.7872
 30
0.0
 11
130.416
 21
35.7533
 31
0.0
  0
LINE
  8
0
 62
     0
 10
130.416
 20
35.7533
 30
0.0
 11
116.892
 21
39.376
 31
0.0
  0
LINE
  8
0
 62
     0
 10
116.892
 20
39.376
 30
0.0
 11
116.634
 21
38.4101
 31
0.0
  0
LINE
  8
0
 62
     0
 10
239.44
 20
36.1943
 30
0.0
 11
239.699
 21
35.2296
 31
0.0
  0
LINE
  8
0
 62
     0
 10
239.699
 20
35.2296
 30
0.0
 11
238.927
 21
35.0214
 31
0.0
  0
LINE
  8
0
 62
     0
 10
238.927
 20
35.0214
 30
0.0
 11
239.729
 21
32.0284
 31
0.0
  0
LINE
  8
0
 62
     0
 10
239.729
 20
32.0284
 30
0.0
 11
240.502
 21
32.2351
 31
0.0
  0
LINE
  8
0
 62
     0
 10
240.502
 20
32.2351
 30
0.0
 11
242.003
 21
26.6333
 31
0.0
  0
LINE
  8
0
 62
     0
 10
242.003
 20
26.6333
 30
0.0
 11
241.23
 21
26.4253
 31
0.0
  0
LINE
  8
0
 62
     0
 10
241.23
 20
26.4253
 30
0.0
 11
242.032
 21
23.4308
 31
0.0
  0
LINE
  8
0
 62
     0
 10
242.032
 20
23.4308
 30
0.0
 11
242.805
 21
23.6375
 31
0.0
  0
LINE
  8
0
 62
     0
 10
242.805
 20
23.6375
 30
0.0
 11
243.064
 21
22.6715
 31
0.0
  0
LINE
  8
0
 62
     0
 10
243.064
 20
22.6715
 30
0.0
 11
256.587
 21
26.2957
 31
0.0
  0
LINE
  8
0
 62
     0
 10
256.587
 20
26.2957
 30
0.0
 11
256.326
 21
27.2617
 31
0.0
  0
LINE
  8
0
 62
     0
 10
256.326
 20
27.2617
 30
0.0
 11
257.101
 21
27.4684
 31
0.0
  0
LINE
  8
0
 62
     0
 10
257.101
 20
27.4684
 30
0.0
 11
256.297
 21
30.4629
 31
0.0
  0
LINE
  8
0
 62
     0
 10
256.297
 20
30.4629
 30
0.0
 11
255.525
 21
30.2562
 31
0.0
  0
LINE
  8
0
 62
     0
 10
255.525
 20
30.2562
 30
0.0
 11
254.023
 21
35.8592
 31
0.0
  0
LINE
  8
0
 62
     0
 10
254.023
 20
35.8592
 30
0.0
 11
254.795
 21
36.0659
 31
0.0
  0
LINE
  8
0
 62
     0
 10
254.795
 20
36.0659
 30
0.0
 11
253.994
 21
39.0592
 31
0.0
  0
LINE
  8
0
 62
     0
 10
253.994
 20
39.0592
 30
0.0
 11
253.221
 21
38.8525
 31
0.0
  0
LINE
  8
0
 62
     0
 10
253.221
 20
38.8525
 30
0.0
 11
252.962
 21
39.8184
 31
0.0
  0
LINE
  8
0
 62
     0
 10
252.962
 20
39.8184
 30
0.0
 11
239.44
 21
36.1943
 31
0.0
  0
LINE
  8
0
 62
     0
 10
138.733
 20
47.2803
 30
0.0
 11
137.959
 21
47.4871
 31
0.0
  0
LINE
  8
0
 62
     0
 10
137.959
 20
47.4871
 30
0.0
 11
137.158
 21
44.4927
 31
0.0
  0
LINE
  8
0
 62
     0
 10
137.158
 20
44.4927
 30
0.0
 11
137.929
 21
44.2874
 31
0.0
  0
LINE
  8
0
 62
     0
 10
137.929
 20
44.2874
 30
0.0
 11
136.429
 21
38.6842
 31
0.0
  0
LINE
  8
0
 62
     0
 10
136.429
 20
38.6842
 30
0.0
 11
135.655
 21
38.8909
 31
0.0
  0
LINE
  8
0
 62
     0
 10
135.655
 20
38.8909
 30
0.0
 11
134.854
 21
35.8965
 31
0.0
  0
LINE
  8
0
 62
     0
 10
134.854
 20
35.8965
 30
0.0
 11
135.626
 21
35.6898
 31
0.0
  0
LINE
  8
0
 62
     0
 10
135.626
 20
35.6898
 30
0.0
 11
135.368
 21
34.7238
 31
0.0
  0
LINE
  8
0
 62
     0
 10
135.368
 20
34.7238
 30
0.0
 11
148.89
 21
31.0996
 31
0.0
  0
LINE
  8
0
 62
     0
 10
148.89
 20
31.0996
 30
0.0
 11
149.149
 21
32.0656
 31
0.0
  0
LINE
  8
0
 62
     0
 10
149.149
 20
32.0656
 30
0.0
 11
149.922
 21
31.8589
 31
0.0
  0
LINE
  8
0
 62
     0
 10
149.922
 20
31.8589
 30
0.0
 11
150.724
 21
34.8534
 31
0.0
  0
LINE
  8
0
 62
     0
 10
150.724
 20
34.8534
 30
0.0
 11
149.951
 21
35.06
 31
0.0
  0
LINE
  8
0
 62
     0
 10
149.951
 20
35.06
 30
0.0
 11
151.453
 21
40.6633
 31
0.0
  0
LINE
  8
0
 62
     0
 10
151.453
 20
40.6633
 30
0.0
 11
152.226
 21
40.4566
 31
0.0
  0
LINE
  8
0
 62
     0
 10
152.226
 20
40.4566
 30
0.0
 11
153.028
 21
43.4495
 31
0.0
  0
LINE
  8
0
 62
     0
 10
153.028
 20
43.4495
 30
0.0
 11
152.255
 21
43.6563
 31
0.0
  0
LINE
  8
0
 62
     0
 10
152.255
 20
43.6563
 30
0.0
 11
152.514
 21
44.6222
 31
0.0
  0
LINE
  8
0
 62
     0
 10
152.514
 20
44.6222
 30
0.0
 11
138.99
 21
48.2466
 31
0.0
  0
LINE
  8
0
 62
     0
 10
138.99
 20
48.2466
 30
0.0
 11
138.733
 21
47.2803
 31
0.0
  0
LINE
  8
0
 62
     0
 10
217.341
 20
45.066
 30
0.0
 11
217.6
 21
44.1
 31
0.0
  0
LINE
  8
0
 62
     0
 10
217.6
 20
44.1
 30
0.0
 11
216.827
 21
43.8933
 31
0.0
  0
LINE
  8
0
 62
     0
 10
216.827
 20
43.8933
 30
0.0
 11
217.629
 21
40.8975
 31
0.0
  0
LINE
  8
0
 62
     0
 10
217.629
 20
40.8975
 30
0.0
 11
218.403
 21
41.1043
 31
0.0
  0
LINE
  8
0
 62
     0
 10
218.403
 20
41.1043
 30
0.0
 11
219.903
 21
35.5025
 31
0.0
  0
LINE
  8
0
 62
     0
 10
219.903
 20
35.5025
 30
0.0
 11
219.13
 21
35.2958
 31
0.0
  0
LINE
  8
0
 62
     0
 10
219.13
 20
35.2958
 30
0.0
 11
219.934
 21
32.3012
 31
0.0
  0
LINE
  8
0
 62
     0
 10
219.934
 20
32.3012
 30
0.0
 11
220.705
 21
32.5093
 31
0.0
  0
LINE
  8
0
 62
     0
 10
220.705
 20
32.5093
 30
0.0
 11
220.964
 21
31.5433
 31
0.0
  0
LINE
  8
0
 62
     0
 10
220.964
 20
31.5433
 30
0.0
 11
234.488
 21
35.1662
 31
0.0
  0
LINE
  8
0
 62
     0
 10
234.488
 20
35.1662
 30
0.0
 11
234.229
 21
36.1322
 31
0.0
  0
LINE
  8
0
 62
     0
 10
234.229
 20
36.1322
 30
0.0
 11
235.002
 21
36.3389
 31
0.0
  0
LINE
  8
0
 62
     0
 10
235.002
 20
36.3389
 30
0.0
 11
234.2
 21
39.3333
 31
0.0
  0
LINE
  8
0
 62
     0
 10
234.2
 20
39.3333
 30
0.0
 11
233.427
 21
39.1252
 31
0.0
  0
LINE
  8
0
 62
     0
 10
233.427
 20
39.1252
 30
0.0
 11
231.925
 21
44.7283
 31
0.0
  0
LINE
  8
0
 62
     0
 10
231.925
 20
44.7283
 30
0.0
 11
232.698
 21
44.9365
 31
0.0
  0
LINE
  8
0
 62
     0
 10
232.698
 20
44.9365
 30
0.0
 11
231.896
 21
47.9294
 31
0.0
  0
LINE
  8
0
 62
     0
 10
231.896
 20
47.9294
 30
0.0
 11
231.123
 21
47.7227
 31
0.0
  0
LINE
  8
0
 62
     0
 10
231.123
 20
47.7227
 30
0.0
 11
230.864
 21
48.689
 31
0.0
  0
LINE
  8
0
 62
     0
 10
230.864
 20
48.689
 30
0.0
 11
217.341
 21
45.066
 31
0.0
  0
LINE
  8
0
 62
     0
 10
99.4653
 20
47.9407
 30
0.0
 11
98.6924
 21
48.1471
 31
0.0
  0
LINE
  8
0
 62
     0
 10
98.6924
 20
48.1471
 30
0.0
 11
97.8902
 21
45.1541
 31
0.0
  0
LINE
  8
0
 62
     0
 10
97.8902
 20
45.1541
 30
0.0
 11
98.6635
 21
44.9474
 31
0.0
  0
LINE
  8
0
 62
     0
 10
98.6635
 20
44.9474
 30
0.0
 11
97.1614
 21
39.3442
 31
0.0
  0
LINE
  8
0
 62
     0
 10
97.1614
 20
39.3442
 30
0.0
 11
96.3884
 21
39.5524
 31
0.0
  0
LINE
  8
0
 62
     0
 10
96.3884
 20
39.5524
 30
0.0
 11
95.5862
 21
36.5566
 31
0.0
  0
LINE
  8
0
 62
     0
 10
95.5862
 20
36.5566
 30
0.0
 11
96.3595
 21
36.3499
 31
0.0
  0
LINE
  8
0
 62
     0
 10
96.3595
 20
36.3499
 30
0.0
 11
96.1002
 21
35.384
 31
0.0
  0
LINE
  8
0
 62
     0
 10
96.1002
 20
35.384
 30
0.0
 11
109.624
 21
31.761
 31
0.0
  0
LINE
  8
0
 62
     0
 10
109.624
 20
31.761
 30
0.0
 11
109.883
 21
32.727
 31
0.0
  0
LINE
  8
0
 62
     0
 10
109.883
 20
32.727
 30
0.0
 11
110.655
 21
32.5203
 31
0.0
  0
LINE
  8
0
 62
     0
 10
110.655
 20
32.5203
 30
0.0
 11
111.457
 21
35.5134
 31
0.0
  0
LINE
  8
0
 62
     0
 10
111.457
 20
35.5134
 30
0.0
 11
110.685
 21
35.7202
 31
0.0
  0
LINE
  8
0
 62
     0
 10
110.685
 20
35.7202
 30
0.0
 11
112.186
 21
41.3233
 31
0.0
  0
LINE
  8
0
 62
     0
 10
112.186
 20
41.3233
 30
0.0
 11
112.959
 21
41.1152
 31
0.0
  0
LINE
  8
0
 62
     0
 10
112.959
 20
41.1152
 30
0.0
 11
113.761
 21
44.111
 31
0.0
  0
LINE
  8
0
 62
     0
 10
113.761
 20
44.111
 30
0.0
 11
112.988
 21
44.3177
 31
0.0
  0
LINE
  8
0
 62
     0
 10
112.988
 20
44.3177
 30
0.0
 11
113.247
 21
45.2836
 31
0.0
  0
LINE
  8
0
 62
     0
 10
113.247
 20
45.2836
 30
0.0
 11
99.7232
 21
48.9066
 31
0.0
  0
LINE
  8
0
 62
     0
 10
99.7232
 20
48.9066
 30
0.0
 11
99.4653
 21
47.9407
 31
0.0
  0
LINE
  8
0
 62
     0
 10
79.8311
 20
48.2713
 30
0.0
 11
79.0593
 21
48.4794
 31
0.0
  0
LINE
  8
0
 62
     0
 10
79.0593
 20
48.4794
 30
0.0
 11
78.2574
 21
45.4836
 31
0.0
  0
LINE
  8
0
 62
     0
 10
78.2574
 20
45.4836
 30
0.0
 11
79.0293
 21
45.2769
 31
0.0
  0
LINE
  8
0
 62
     0
 10
79.0293
 20
45.2769
 30
0.0
 11
77.5286
 21
39.6752
 31
0.0
  0
LINE
  8
0
 62
     0
 10
77.5286
 20
39.6752
 30
0.0
 11
76.7553
 21
39.8819
 31
0.0
  0
LINE
  8
0
 62
     0
 10
76.7553
 20
39.8819
 30
0.0
 11
75.9534
 21
36.8875
 31
0.0
  0
LINE
  8
0
 62
     0
 10
75.9534
 20
36.8875
 30
0.0
 11
76.7263
 21
36.6794
 31
0.0
  0
LINE
  8
0
 62
     0
 10
76.7263
 20
36.6794
 30
0.0
 11
76.4674
 21
35.7131
 31
0.0
  0
LINE
  8
0
 62
     0
 10
76.4674
 20
35.7131
 30
0.0
 11
89.9901
 21
32.0904
 31
0.0
  0
LINE
  8
0
 62
     0
 10
89.9901
 20
32.0904
 30
0.0
 11
90.249
 21
33.0564
 31
0.0
  0
LINE
  8
0
 62
     0
 10
90.249
 20
33.0564
 30
0.0
 11
91.0223
 21
32.8497
 31
0.0
  0
LINE
  8
0
 62
     0
 10
91.0223
 20
32.8497
 30
0.0
 11
91.8242
 21
35.844
 31
0.0
  0
LINE
  8
0
 62
     0
 10
91.8242
 20
35.844
 30
0.0
 11
91.0512
 21
36.0507
 31
0.0
  0
LINE
  8
0
 62
     0
 10
91.0512
 20
36.0507
 30
0.0
 11
92.553
 21
41.6539
 31
0.0
  0
LINE
  8
0
 62
     0
 10
92.553
 20
41.6539
 30
0.0
 11
93.3249
 21
41.4472
 31
0.0
  0
LINE
  8
0
 62
     0
 10
93.3249
 20
41.4472
 30
0.0
 11
94.1282
 21
44.4405
 31
0.0
  0
LINE
  8
0
 62
     0
 10
94.1282
 20
44.4405
 30
0.0
 11
93.3552
 21
44.6486
 31
0.0
  0
LINE
  8
0
 62
     0
 10
93.3552
 20
44.6486
 30
0.0
 11
93.6142
 21
45.6145
 31
0.0
  0
LINE
  8
0
 62
     0
 10
93.6142
 20
45.6145
 30
0.0
 11
80.0901
 21
49.2372
 31
0.0
  0
LINE
  8
0
 62
     0
 10
80.0901
 20
49.2372
 30
0.0
 11
79.8311
 21
48.2713
 31
0.0
  0
LINE
  8
0
 62
     0
 10
256.609
 20
45.7274
 30
0.0
 11
256.868
 21
44.7601
 31
0.0
  0
LINE
  8
0
 62
     0
 10
256.868
 20
44.7601
 30
0.0
 11
256.093
 21
44.5534
 31
0.0
  0
LINE
  8
0
 62
     0
 10
256.093
 20
44.5534
 30
0.0
 11
256.897
 21
41.559
 31
0.0
  0
LINE
  8
0
 62
     0
 10
256.897
 20
41.559
 30
0.0
 11
257.67
 21
41.7657
 31
0.0
  0
LINE
  8
0
 62
     0
 10
257.67
 20
41.7657
 30
0.0
 11
259.17
 21
36.164
 31
0.0
  0
LINE
  8
0
 62
     0
 10
259.17
 20
36.164
 30
0.0
 11
258.397
 21
35.9558
 31
0.0
  0
LINE
  8
0
 62
     0
 10
258.397
 20
35.9558
 30
0.0
 11
259.201
 21
32.9613
 31
0.0
  0
LINE
  8
0
 62
     0
 10
259.201
 20
32.9613
 30
0.0
 11
259.973
 21
33.1694
 31
0.0
  0
LINE
  8
0
 62
     0
 10
259.973
 20
33.1694
 30
0.0
 11
260.231
 21
32.2034
 31
0.0
  0
LINE
  8
0
 62
     0
 10
260.231
 20
32.2034
 30
0.0
 11
273.754
 21
35.8263
 31
0.0
  0
LINE
  8
0
 62
     0
 10
273.754
 20
35.8263
 30
0.0
 11
273.495
 21
36.7923
 31
0.0
  0
LINE
  8
0
 62
     0
 10
273.495
 20
36.7923
 30
0.0
 11
274.268
 21
37.0004
 31
0.0
  0
LINE
  8
0
 62
     0
 10
274.268
 20
37.0004
 30
0.0
 11
273.466
 21
39.9934
 31
0.0
  0
LINE
  8
0
 62
     0
 10
273.466
 20
39.9934
 30
0.0
 11
272.693
 21
39.7866
 31
0.0
  0
LINE
  8
0
 62
     0
 10
272.693
 20
39.7866
 30
0.0
 11
271.192
 21
45.3884
 31
0.0
  0
LINE
  8
0
 62
     0
 10
271.192
 20
45.3884
 30
0.0
 11
271.966
 21
45.5951
 31
0.0
  0
LINE
  8
0
 62
     0
 10
271.966
 20
45.5951
 30
0.0
 11
271.162
 21
48.5909
 31
0.0
  0
LINE
  8
0
 62
     0
 10
271.162
 20
48.5909
 30
0.0
 11
270.39
 21
48.3842
 31
0.0
  0
LINE
  8
0
 62
     0
 10
270.39
 20
48.3842
 30
0.0
 11
270.131
 21
49.3504
 31
0.0
  0
LINE
  8
0
 62
     0
 10
270.131
 20
49.3504
 30
0.0
 11
256.609
 21
45.7274
 31
0.0
  0
LINE
  8
0
 62
     0
 10
60.1984
 20
48.6022
 30
0.0
 11
59.4251
 21
48.8086
 31
0.0
  0
LINE
  8
0
 62
     0
 10
59.4251
 20
48.8086
 30
0.0
 11
58.6232
 21
45.8142
 31
0.0
  0
LINE
  8
0
 62
     0
 10
58.6232
 20
45.8142
 30
0.0
 11
59.3961
 21
45.6075
 31
0.0
  0
LINE
  8
0
 62
     0
 10
59.3961
 20
45.6075
 30
0.0
 11
57.894
 21
40.0043
 31
0.0
  0
LINE
  8
0
 62
     0
 10
57.894
 20
40.0043
 30
0.0
 11
57.1211
 21
40.211
 31
0.0
  0
LINE
  8
0
 62
     0
 10
57.1211
 20
40.211
 30
0.0
 11
56.3203
 21
37.2181
 31
0.0
  0
LINE
  8
0
 62
     0
 10
56.3203
 20
37.2181
 30
0.0
 11
57.0921
 21
37.0113
 31
0.0
  0
LINE
  8
0
 62
     0
 10
57.0921
 20
37.0113
 30
0.0
 11
56.8343
 21
36.0454
 31
0.0
  0
LINE
  8
0
 62
     0
 10
56.8343
 20
36.0454
 30
0.0
 11
70.3573
 21
32.4211
 31
0.0
  0
LINE
  8
0
 62
     0
 10
70.3573
 20
32.4211
 30
0.0
 11
70.6162
 21
33.3871
 31
0.0
  0
LINE
  8
0
 62
     0
 10
70.6162
 20
33.3871
 30
0.0
 11
71.3878
 21
33.1804
 31
0.0
  0
LINE
  8
0
 62
     0
 10
71.3878
 20
33.1804
 30
0.0
 11
72.1914
 21
36.1749
 31
0.0
  0
LINE
  8
0
 62
     0
 10
72.1914
 20
36.1749
 30
0.0
 11
71.4181
 21
36.3816
 31
0.0
  0
LINE
  8
0
 62
     0
 10
71.4181
 20
36.3816
 30
0.0
 11
72.9188
 21
41.9834
 31
0.0
  0
LINE
  8
0
 62
     0
 10
72.9188
 20
41.9834
 30
0.0
 11
73.6921
 21
41.7766
 31
0.0
  0
LINE
  8
0
 62
     0
 10
73.6921
 20
41.7766
 30
0.0
 11
74.494
 21
44.771
 31
0.0
  0
LINE
  8
0
 62
     0
 10
74.494
 20
44.771
 30
0.0
 11
73.7224
 21
44.9778
 31
0.0
  0
LINE
  8
0
 62
     0
 10
73.7224
 20
44.9778
 30
0.0
 11
73.98
 21
45.9437
 31
0.0
  0
LINE
  8
0
 62
     0
 10
73.98
 20
45.9437
 30
0.0
 11
60.4573
 21
49.5681
 31
0.0
  0
LINE
  8
0
 62
     0
 10
60.4573
 20
49.5681
 30
0.0
 11
60.1984
 21
48.6022
 31
0.0
  0
LINE
  8
0
 62
     0
 10
276.242
 20
46.0555
 30
0.0
 11
276.501
 21
45.0906
 31
0.0
  0
LINE
  8
0
 62
     0
 10
276.501
 20
45.0906
 30
0.0
 11
275.728
 21
44.8829
 31
0.0
  0
LINE
  8
0
 62
     0
 10
275.728
 20
44.8829
 30
0.0
 11
276.531
 21
41.8881
 31
0.0
  0
LINE
  8
0
 62
     0
 10
276.531
 20
41.8881
 30
0.0
 11
277.303
 21
42.0963
 31
0.0
  0
LINE
  8
0
 62
     0
 10
277.303
 20
42.0963
 30
0.0
 11
278.805
 21
36.4931
 31
0.0
  0
LINE
  8
0
 62
     0
 10
278.805
 20
36.4931
 30
0.0
 11
278.032
 21
36.2864
 31
0.0
  0
LINE
  8
0
 62
     0
 10
278.032
 20
36.2864
 30
0.0
 11
278.834
 21
33.292
 31
0.0
  0
LINE
  8
0
 62
     0
 10
278.834
 20
33.292
 30
0.0
 11
279.607
 21
33.4987
 31
0.0
  0
LINE
  8
0
 62
     0
 10
279.607
 20
33.4987
 30
0.0
 11
279.866
 21
32.5327
 31
0.0
  0
LINE
  8
0
 62
     0
 10
279.866
 20
32.5327
 30
0.0
 11
293.388
 21
36.1569
 31
0.0
  0
LINE
  8
0
 62
     0
 10
293.388
 20
36.1569
 30
0.0
 11
293.129
 21
37.1228
 31
0.0
  0
LINE
  8
0
 62
     0
 10
293.129
 20
37.1228
 30
0.0
 11
293.902
 21
37.3295
 31
0.0
  0
LINE
  8
0
 62
     0
 10
293.902
 20
37.3295
 30
0.0
 11
293.099
 21
40.3243
 31
0.0
  0
LINE
  8
0
 62
     0
 10
293.099
 20
40.3243
 30
0.0
 11
292.328
 21
40.1175
 31
0.0
  0
LINE
  8
0
 62
     0
 10
292.328
 20
40.1175
 30
0.0
 11
290.825
 21
45.7207
 31
0.0
  0
LINE
  8
0
 62
     0
 10
290.825
 20
45.7207
 30
0.0
 11
291.598
 21
45.9274
 31
0.0
  0
LINE
  8
0
 62
     0
 10
291.598
 20
45.9274
 30
0.0
 11
290.796
 21
48.9204
 31
0.0
  0
LINE
  8
0
 62
     0
 10
290.796
 20
48.9204
 30
0.0
 11
290.023
 21
48.7137
 31
0.0
  0
LINE
  8
0
 62
     0
 10
290.023
 20
48.7137
 30
0.0
 11
289.764
 21
49.6796
 31
0.0
  0
LINE
  8
0
 62
     0
 10
289.764
 20
49.6796
 30
0.0
 11
276.242
 21
46.0555
 31
0.0
  0
LINE
  8
0
 62
     0
 10
295.876
 20
46.386
 30
0.0
 11
296.135
 21
45.4201
 31
0.0
  0
LINE
  8
0
 62
     0
 10
296.135
 20
45.4201
 30
0.0
 11
295.362
 21
45.2148
 31
0.0
  0
LINE
  8
0
 62
     0
 10
295.362
 20
45.2148
 30
0.0
 11
296.164
 21
42.219
 31
0.0
  0
LINE
  8
0
 62
     0
 10
296.164
 20
42.219
 30
0.0
 11
296.937
 21
42.4258
 31
0.0
  0
LINE
  8
0
 62
     0
 10
296.937
 20
42.4258
 30
0.0
 11
298.438
 21
36.824
 31
0.0
  0
LINE
  8
0
 62
     0
 10
298.438
 20
36.824
 30
0.0
 11
297.664
 21
36.6173
 31
0.0
  0
LINE
  8
0
 62
     0
 10
297.664
 20
36.6173
 30
0.0
 11
298.468
 21
33.6228
 31
0.0
  0
LINE
  8
0
 62
     0
 10
298.468
 20
33.6228
 30
0.0
 11
299.24
 21
33.8294
 31
0.0
  0
LINE
  8
0
 62
     0
 10
299.24
 20
33.8294
 30
0.0
 11
299.499
 21
32.8635
 31
0.0
  0
LINE
  8
0
 62
     0
 10
299.499
 20
32.8635
 30
0.0
 11
313.021
 21
36.4864
 31
0.0
  0
LINE
  8
0
 62
     0
 10
313.021
 20
36.4864
 30
0.0
 11
312.762
 21
37.4523
 31
0.0
  0
LINE
  8
0
 62
     0
 10
312.762
 20
37.4523
 30
0.0
 11
313.535
 21
37.6604
 31
0.0
  0
LINE
  8
0
 62
     0
 10
313.535
 20
37.6604
 30
0.0
 11
312.733
 21
40.6548
 31
0.0
  0
LINE
  8
0
 62
     0
 10
312.733
 20
40.6548
 30
0.0
 11
311.96
 21
40.4481
 31
0.0
  0
LINE
  8
0
 62
     0
 10
311.96
 20
40.4481
 30
0.0
 11
310.46
 21
46.0498
 31
0.0
  0
LINE
  8
0
 62
     0
 10
310.46
 20
46.0498
 30
0.0
 11
311.233
 21
46.2566
 31
0.0
  0
LINE
  8
0
 62
     0
 10
311.233
 20
46.2566
 30
0.0
 11
310.429
 21
49.251
 31
0.0
  0
LINE
  8
0
 62
     0
 10
310.429
 20
49.251
 30
0.0
 11
309.658
 21
49.0442
 31
0.0
  0
LINE
  8
0
 62
     0
 10
309.658
 20
49.0442
 30
0.0
 11
309.398
 21
50.0105
 31
0.0
  0
LINE
  8
0
 62
     0
 10
309.398
 20
50.0105
 30
0.0
 11
295.876
 21
46.386
 31
0.0
  0
LINE
  8
0
 62
     0
 10
160.831
 20
56.1509
 30
0.0
 11
160.059
 21
56.3577
 31
0.0
  0
LINE
  8
0
 62
     0
 10
160.059
 20
56.3577
 30
0.0
 11
159.256
 21
53.3633
 31
0.0
  0
LINE
  8
0
 62
     0
 10
159.256
 20
53.3633
 30
0.0
 11
160.029
 21
53.1566
 31
0.0
  0
LINE
  8
0
 62
     0
 10
160.029
 20
53.1566
 30
0.0
 11
158.528
 21
47.5534
 31
0.0
  0
LINE
  8
0
 62
     0
 10
158.528
 20
47.5534
 30
0.0
 11
157.755
 21
47.7615
 31
0.0
  0
LINE
  8
0
 62
     0
 10
157.755
 20
47.7615
 30
0.0
 11
156.953
 21
44.7682
 31
0.0
  0
LINE
  8
0
 62
     0
 10
156.953
 20
44.7682
 30
0.0
 11
157.726
 21
44.5604
 31
0.0
  0
LINE
  8
0
 62
     0
 10
157.726
 20
44.5604
 30
0.0
 11
157.467
 21
43.5942
 31
0.0
  0
LINE
  8
0
 62
     0
 10
157.467
 20
43.5942
 30
0.0
 11
170.99
 21
39.9701
 31
0.0
  0
LINE
  8
0
 62
     0
 10
170.99
 20
39.9701
 30
0.0
 11
171.249
 21
40.936
 31
0.0
  0
LINE
  8
0
 62
     0
 10
171.249
 20
40.936
 30
0.0
 11
172.02
 21
40.7293
 31
0.0
  0
LINE
  8
0
 62
     0
 10
172.02
 20
40.7293
 30
0.0
 11
172.824
 21
43.7236
 31
0.0
  0
LINE
  8
0
 62
     0
 10
172.824
 20
43.7236
 30
0.0
 11
172.051
 21
43.9304
 31
0.0
  0
LINE
  8
0
 62
     0
 10
172.051
 20
43.9304
 30
0.0
 11
173.551
 21
49.5321
 31
0.0
  0
LINE
  8
0
 62
     0
 10
173.551
 20
49.5321
 30
0.0
 11
174.324
 21
49.3254
 31
0.0
  0
LINE
  8
0
 62
     0
 10
174.324
 20
49.3254
 30
0.0
 11
175.127
 21
52.3201
 31
0.0
  0
LINE
  8
0
 62
     0
 10
175.127
 20
52.3201
 30
0.0
 11
174.353
 21
52.5268
 31
0.0
  0
LINE
  8
0
 62
     0
 10
174.353
 20
52.5268
 30
0.0
 11
174.613
 21
53.4928
 31
0.0
  0
LINE
  8
0
 62
     0
 10
174.613
 20
53.4928
 30
0.0
 11
161.09
 21
57.1168
 31
0.0
  0
LINE
  8
0
 62
     0
 10
161.09
 20
57.1168
 30
0.0
 11
160.831
 21
56.1509
 31
0.0
  0
LINE
  8
0
 62
     0
 10
195.243
 20
53.9365
 30
0.0
 11
195.502
 21
52.9703
 31
0.0
  0
LINE
  8
0
 62
     0
 10
195.502
 20
52.9703
 30
0.0
 11
194.729
 21
52.7625
 31
0.0
  0
LINE
  8
0
 62
     0
 10
194.729
 20
52.7625
 30
0.0
 11
195.531
 21
49.7678
 31
0.0
  0
LINE
  8
0
 62
     0
 10
195.531
 20
49.7678
 30
0.0
 11
196.304
 21
49.9745
 31
0.0
  0
LINE
  8
0
 62
     0
 10
196.304
 20
49.9745
 30
0.0
 11
197.805
 21
44.3727
 31
0.0
  0
LINE
  8
0
 62
     0
 10
197.805
 20
44.3727
 30
0.0
 11
197.033
 21
44.166
 31
0.0
  0
LINE
  8
0
 62
     0
 10
197.033
 20
44.166
 30
0.0
 11
197.835
 21
41.1716
 31
0.0
  0
LINE
  8
0
 62
     0
 10
197.835
 20
41.1716
 30
0.0
 11
198.608
 21
41.3784
 31
0.0
  0
LINE
  8
0
 62
     0
 10
198.608
 20
41.3784
 30
0.0
 11
198.866
 21
40.4125
 31
0.0
  0
LINE
  8
0
 62
     0
 10
198.866
 20
40.4125
 30
0.0
 11
212.389
 21
44.0365
 31
0.0
  0
LINE
  8
0
 62
     0
 10
212.389
 20
44.0365
 30
0.0
 11
212.131
 21
45.0014
 31
0.0
  0
LINE
  8
0
 62
     0
 10
212.131
 20
45.0014
 30
0.0
 11
212.903
 21
45.2092
 31
0.0
  0
LINE
  8
0
 62
     0
 10
212.903
 20
45.2092
 30
0.0
 11
212.101
 21
48.2039
 31
0.0
  0
LINE
  8
0
 62
     0
 10
212.101
 20
48.2039
 30
0.0
 11
211.328
 21
47.9972
 31
0.0
  0
LINE
  8
0
 62
     0
 10
211.328
 20
47.9972
 30
0.0
 11
209.827
 21
53.5989
 31
0.0
  0
LINE
  8
0
 62
     0
 10
209.827
 20
53.5989
 30
0.0
 11
210.6
 21
53.8057
 31
0.0
  0
LINE
  8
0
 62
     0
 10
210.6
 20
53.8057
 30
0.0
 11
209.797
 21
56.8
 31
0.0
  0
LINE
  8
0
 62
     0
 10
209.797
 20
56.8
 30
0.0
 11
209.025
 21
56.5933
 31
0.0
  0
LINE
  8
0
 62
     0
 10
209.025
 20
56.5933
 30
0.0
 11
208.766
 21
57.5592
 31
0.0
  0
LINE
  8
0
 62
     0
 10
208.766
 20
57.5592
 30
0.0
 11
195.243
 21
53.9365
 31
0.0
  0
LINE
  8
0
 62
     0
 10
121.564
 20
56.811
 30
0.0
 11
120.792
 21
57.0177
 31
0.0
  0
LINE
  8
0
 62
     0
 10
120.792
 20
57.0177
 30
0.0
 11
119.989
 21
54.0233
 31
0.0
  0
LINE
  8
0
 62
     0
 10
119.989
 20
54.0233
 30
0.0
 11
120.761
 21
53.8166
 31
0.0
  0
LINE
  8
0
 62
     0
 10
120.761
 20
53.8166
 30
0.0
 11
119.261
 21
48.2148
 31
0.0
  0
LINE
  8
0
 62
     0
 10
119.261
 20
48.2148
 30
0.0
 11
118.488
 21
48.4216
 31
0.0
  0
LINE
  8
0
 62
     0
 10
118.488
 20
48.4216
 30
0.0
 11
117.686
 21
45.4272
 31
0.0
  0
LINE
  8
0
 62
     0
 10
117.686
 20
45.4272
 30
0.0
 11
118.459
 21
45.2205
 31
0.0
  0
LINE
  8
0
 62
     0
 10
118.459
 20
45.2205
 30
0.0
 11
118.2
 21
44.2542
 31
0.0
  0
LINE
  8
0
 62
     0
 10
118.2
 20
44.2542
 30
0.0
 11
131.723
 21
40.6315
 31
0.0
  0
LINE
  8
0
 62
     0
 10
131.723
 20
40.6315
 30
0.0
 11
131.982
 21
41.5974
 31
0.0
  0
LINE
  8
0
 62
     0
 10
131.982
 20
41.5974
 30
0.0
 11
132.753
 21
41.3893
 31
0.0
  0
LINE
  8
0
 62
     0
 10
132.753
 20
41.3893
 30
0.0
 11
133.557
 21
44.384
 31
0.0
  0
LINE
  8
0
 62
     0
 10
133.557
 20
44.384
 30
0.0
 11
132.784
 21
44.5904
 31
0.0
  0
LINE
  8
0
 62
     0
 10
132.784
 20
44.5904
 30
0.0
 11
134.284
 21
50.1936
 31
0.0
  0
LINE
  8
0
 62
     0
 10
134.284
 20
50.1936
 30
0.0
 11
135.057
 21
49.9854
 31
0.0
  0
LINE
  8
0
 62
     0
 10
135.057
 20
49.9854
 30
0.0
 11
135.859
 21
52.9816
 31
0.0
  0
LINE
  8
0
 62
     0
 10
135.859
 20
52.9816
 30
0.0
 11
135.086
 21
53.1883
 31
0.0
  0
LINE
  8
0
 62
     0
 10
135.086
 20
53.1883
 30
0.0
 11
135.345
 21
54.1542
 31
0.0
  0
LINE
  8
0
 62
     0
 10
135.345
 20
54.1542
 30
0.0
 11
121.823
 21
57.7769
 31
0.0
  0
LINE
  8
0
 62
     0
 10
121.823
 20
57.7769
 30
0.0
 11
121.564
 21
56.811
 31
0.0
  0
LINE
  8
0
 62
     0
 10
234.51
 20
54.5952
 30
0.0
 11
234.768
 21
53.6293
 31
0.0
  0
LINE
  8
0
 62
     0
 10
234.768
 20
53.6293
 30
0.0
 11
233.996
 21
53.4226
 31
0.0
  0
LINE
  8
0
 62
     0
 10
233.996
 20
53.4226
 30
0.0
 11
234.798
 21
50.4292
 31
0.0
  0
LINE
  8
0
 62
     0
 10
234.798
 20
50.4292
 30
0.0
 11
235.57
 21
50.636
 31
0.0
  0
LINE
  8
0
 62
     0
 10
235.57
 20
50.636
 30
0.0
 11
237.072
 21
45.0342
 31
0.0
  0
LINE
  8
0
 62
     0
 10
237.072
 20
45.0342
 30
0.0
 11
236.299
 21
44.8275
 31
0.0
  0
LINE
  8
0
 62
     0
 10
236.299
 20
44.8275
 30
0.0
 11
237.101
 21
41.8317
 31
0.0
  0
LINE
  8
0
 62
     0
 10
237.101
 20
41.8317
 30
0.0
 11
237.874
 21
42.0384
 31
0.0
  0
LINE
  8
0
 62
     0
 10
237.874
 20
42.0384
 30
0.0
 11
238.133
 21
41.0725
 31
0.0
  0
LINE
  8
0
 62
     0
 10
238.133
 20
41.0725
 30
0.0
 11
251.656
 21
44.6966
 31
0.0
  0
LINE
  8
0
 62
     0
 10
251.656
 20
44.6966
 30
0.0
 11
251.397
 21
45.6629
 31
0.0
  0
LINE
  8
0
 62
     0
 10
251.397
 20
45.6629
 30
0.0
 11
252.17
 21
45.8692
 31
0.0
  0
LINE
  8
0
 62
     0
 10
252.17
 20
45.8692
 30
0.0
 11
251.368
 21
48.864
 31
0.0
  0
LINE
  8
0
 62
     0
 10
251.368
 20
48.864
 30
0.0
 11
250.595
 21
48.6572
 31
0.0
  0
LINE
  8
0
 62
     0
 10
250.595
 20
48.6572
 30
0.0
 11
249.094
 21
54.2604
 31
0.0
  0
LINE
  8
0
 62
     0
 10
249.094
 20
54.2604
 30
0.0
 11
249.867
 21
54.4671
 31
0.0
  0
LINE
  8
0
 62
     0
 10
249.867
 20
54.4671
 30
0.0
 11
249.064
 21
57.4615
 31
0.0
  0
LINE
  8
0
 62
     0
 10
249.064
 20
57.4615
 30
0.0
 11
248.292
 21
57.2534
 31
0.0
  0
LINE
  8
0
 62
     0
 10
248.292
 20
57.2534
 30
0.0
 11
248.033
 21
58.2193
 31
0.0
  0
LINE
  8
0
 62
     0
 10
248.033
 20
58.2193
 30
0.0
 11
234.51
 21
54.5952
 31
0.0
  0
LINE
  8
0
 62
     0
 10
143.663
 20
65.6816
 30
0.0
 11
142.89
 21
65.8883
 31
0.0
  0
LINE
  8
0
 62
     0
 10
142.89
 20
65.8883
 30
0.0
 11
142.088
 21
62.8936
 31
0.0
  0
LINE
  8
0
 62
     0
 10
142.088
 20
62.8936
 30
0.0
 11
142.861
 21
62.6869
 31
0.0
  0
LINE
  8
0
 62
     0
 10
142.861
 20
62.6869
 30
0.0
 11
141.359
 21
57.0851
 31
0.0
  0
LINE
  8
0
 62
     0
 10
141.359
 20
57.0851
 30
0.0
 11
140.586
 21
57.2918
 31
0.0
  0
LINE
  8
0
 62
     0
 10
140.586
 20
57.2918
 30
0.0
 11
139.785
 21
54.2974
 31
0.0
  0
LINE
  8
0
 62
     0
 10
139.785
 20
54.2974
 30
0.0
 11
140.557
 21
54.0893
 31
0.0
  0
LINE
  8
0
 62
     0
 10
140.557
 20
54.0893
 30
0.0
 11
140.298
 21
53.1248
 31
0.0
  0
LINE
  8
0
 62
     0
 10
140.298
 20
53.1248
 30
0.0
 11
153.821
 21
49.5004
 31
0.0
  0
LINE
  8
0
 62
     0
 10
153.821
 20
49.5004
 30
0.0
 11
154.08
 21
50.4666
 31
0.0
  0
LINE
  8
0
 62
     0
 10
154.08
 20
50.4666
 30
0.0
 11
154.853
 21
50.2599
 31
0.0
  0
LINE
  8
0
 62
     0
 10
154.853
 20
50.2599
 30
0.0
 11
155.655
 21
53.2543
 31
0.0
  0
LINE
  8
0
 62
     0
 10
155.655
 20
53.2543
 30
0.0
 11
154.883
 21
53.461
 31
0.0
  0
LINE
  8
0
 62
     0
 10
154.883
 20
53.461
 30
0.0
 11
156.384
 21
59.0642
 31
0.0
  0
LINE
  8
0
 62
     0
 10
156.384
 20
59.0642
 30
0.0
 11
157.157
 21
58.8574
 31
0.0
  0
LINE
  8
0
 62
     0
 10
157.157
 20
58.8574
 30
0.0
 11
157.959
 21
61.8504
 31
0.0
  0
LINE
  8
0
 62
     0
 10
157.959
 20
61.8504
 30
0.0
 11
157.186
 21
62.0571
 31
0.0
  0
LINE
  8
0
 62
     0
 10
157.186
 20
62.0571
 30
0.0
 11
157.445
 21
63.023
 31
0.0
  0
LINE
  8
0
 62
     0
 10
157.445
 20
63.023
 30
0.0
 11
143.922
 21
66.6475
 31
0.0
  0
LINE
  8
0
 62
     0
 10
143.922
 20
66.6475
 30
0.0
 11
143.663
 21
65.6816
 31
0.0
  0
LINE
  8
0
 62
     0
 10
212.411
 20
63.4654
 30
0.0
 11
212.67
 21
62.5009
 31
0.0
  0
LINE
  8
0
 62
     0
 10
212.67
 20
62.5009
 30
0.0
 11
211.897
 21
62.2942
 31
0.0
  0
LINE
  8
0
 62
     0
 10
211.897
 20
62.2942
 30
0.0
 11
212.7
 21
59.2984
 31
0.0
  0
LINE
  8
0
 62
     0
 10
212.7
 20
59.2984
 30
0.0
 11
213.472
 21
59.5066
 31
0.0
  0
LINE
  8
0
 62
     0
 10
213.472
 20
59.5066
 30
0.0
 11
214.974
 21
53.9034
 31
0.0
  0
LINE
  8
0
 62
     0
 10
214.974
 20
53.9034
 30
0.0
 11
214.201
 21
53.6967
 31
0.0
  0
LINE
  8
0
 62
     0
 10
214.201
 20
53.6967
 30
0.0
 11
215.003
 21
50.7023
 31
0.0
  0
LINE
  8
0
 62
     0
 10
215.003
 20
50.7023
 30
0.0
 11
215.776
 21
50.909
 31
0.0
  0
LINE
  8
0
 62
     0
 10
215.776
 20
50.909
 30
0.0
 11
216.035
 21
49.9442
 31
0.0
  0
LINE
  8
0
 62
     0
 10
216.035
 20
49.9442
 30
0.0
 11
229.558
 21
53.5672
 31
0.0
  0
LINE
  8
0
 62
     0
 10
229.558
 20
53.5672
 30
0.0
 11
229.298
 21
54.5331
 31
0.0
  0
LINE
  8
0
 62
     0
 10
229.298
 20
54.5331
 30
0.0
 11
230.072
 21
54.7398
 31
0.0
  0
LINE
  8
0
 62
     0
 10
230.072
 20
54.7398
 30
0.0
 11
229.269
 21
57.7342
 31
0.0
  0
LINE
  8
0
 62
     0
 10
229.269
 20
57.7342
 30
0.0
 11
228.495
 21
57.5261
 31
0.0
  0
LINE
  8
0
 62
     0
 10
228.495
 20
57.5261
 30
0.0
 11
226.995
 21
63.1292
 31
0.0
  0
LINE
  8
0
 62
     0
 10
226.995
 20
63.1292
 30
0.0
 11
227.768
 21
63.3374
 31
0.0
  0
LINE
  8
0
 62
     0
 10
227.768
 20
63.3374
 30
0.0
 11
226.966
 21
66.3303
 31
0.0
  0
LINE
  8
0
 62
     0
 10
226.966
 20
66.3303
 30
0.0
 11
226.193
 21
66.124
 31
0.0
  0
LINE
  8
0
 62
     0
 10
226.193
 20
66.124
 30
0.0
 11
225.933
 21
67.0899
 31
0.0
  0
LINE
  8
0
 62
     0
 10
225.933
 20
67.0899
 30
0.0
 11
212.411
 21
63.4654
 31
0.0
  0
LINE
  8
0
 62
     0
 10
104.396
 20
66.3416
 30
0.0
 11
103.623
 21
66.5484
 31
0.0
  0
LINE
  8
0
 62
     0
 10
103.623
 20
66.5484
 30
0.0
 11
102.821
 21
63.555
 31
0.0
  0
LINE
  8
0
 62
     0
 10
102.821
 20
63.555
 30
0.0
 11
103.594
 21
63.3483
 31
0.0
  0
LINE
  8
0
 62
     0
 10
103.594
 20
63.3483
 30
0.0
 11
102.093
 21
57.7455
 31
0.0
  0
LINE
  8
0
 62
     0
 10
102.093
 20
57.7455
 30
0.0
 11
101.32
 21
57.9519
 31
0.0
  0
LINE
  8
0
 62
     0
 10
101.32
 20
57.9519
 30
0.0
 11
100.518
 21
54.9575
 31
0.0
  0
LINE
  8
0
 62
     0
 10
100.518
 20
54.9575
 30
0.0
 11
101.29
 21
54.7508
 31
0.0
  0
LINE
  8
0
 62
     0
 10
101.29
 20
54.7508
 30
0.0
 11
101.031
 21
53.7849
 31
0.0
  0
LINE
  8
0
 62
     0
 10
101.031
 20
53.7849
 30
0.0
 11
114.554
 21
50.1618
 31
0.0
  0
LINE
  8
0
 62
     0
 10
114.554
 20
50.1618
 30
0.0
 11
114.813
 21
51.1281
 31
0.0
  0
LINE
  8
0
 62
     0
 10
114.813
 20
51.1281
 30
0.0
 11
115.586
 21
50.9199
 31
0.0
  0
LINE
  8
0
 62
     0
 10
115.586
 20
50.9199
 30
0.0
 11
116.388
 21
53.9143
 31
0.0
  0
LINE
  8
0
 62
     0
 10
116.388
 20
53.9143
 30
0.0
 11
115.616
 21
54.1225
 31
0.0
  0
LINE
  8
0
 62
     0
 10
115.616
 20
54.1225
 30
0.0
 11
117.117
 21
59.7242
 31
0.0
  0
LINE
  8
0
 62
     0
 10
117.117
 20
59.7242
 30
0.0
 11
117.888
 21
59.5175
 31
0.0
  0
LINE
  8
0
 62
     0
 10
117.888
 20
59.5175
 30
0.0
 11
118.692
 21
62.5119
 31
0.0
  0
LINE
  8
0
 62
     0
 10
118.692
 20
62.5119
 30
0.0
 11
117.919
 21
62.7186
 31
0.0
  0
LINE
  8
0
 62
     0
 10
117.919
 20
62.7186
 30
0.0
 11
118.178
 21
63.6845
 31
0.0
  0
LINE
  8
0
 62
     0
 10
118.178
 20
63.6845
 30
0.0
 11
104.655
 21
67.3075
 31
0.0
  0
LINE
  8
0
 62
     0
 10
104.655
 20
67.3075
 30
0.0
 11
104.396
 21
66.3416
 31
0.0
  0
LINE
  8
0
 62
     0
 10
84.763
 20
66.6722
 30
0.0
 11
83.99
 21
66.8789
 31
0.0
  0
LINE
  8
0
 62
     0
 10
83.99
 20
66.8789
 30
0.0
 11
83.1882
 21
63.8845
 31
0.0
  0
LINE
  8
0
 62
     0
 10
83.1882
 20
63.8845
 30
0.0
 11
83.9597
 21
63.6778
 31
0.0
  0
LINE
  8
0
 62
     0
 10
83.9597
 20
63.6778
 30
0.0
 11
82.459
 21
58.076
 31
0.0
  0
LINE
  8
0
 62
     0
 10
82.459
 20
58.076
 30
0.0
 11
81.686
 21
58.2828
 31
0.0
  0
LINE
  8
0
 62
     0
 10
81.686
 20
58.2828
 30
0.0
 11
80.8838
 21
55.2884
 31
0.0
  0
LINE
  8
0
 62
     0
 10
80.8838
 20
55.2884
 30
0.0
 11
81.6571
 21
55.0803
 31
0.0
  0
LINE
  8
0
 62
     0
 10
81.6571
 20
55.0803
 30
0.0
 11
81.3978
 21
54.1143
 31
0.0
  0
LINE
  8
0
 62
     0
 10
81.3978
 20
54.1143
 30
0.0
 11
94.9205
 21
50.4913
 31
0.0
  0
LINE
  8
0
 62
     0
 10
94.9205
 20
50.4913
 30
0.0
 11
95.1798
 21
51.4572
 31
0.0
  0
LINE
  8
0
 62
     0
 10
95.1798
 20
51.4572
 30
0.0
 11
95.9513
 21
51.2505
 31
0.0
  0
LINE
  8
0
 62
     0
 10
95.9513
 20
51.2505
 30
0.0
 11
96.7549
 21
54.2452
 31
0.0
  0
LINE
  8
0
 62
     0
 10
96.7549
 20
54.2452
 30
0.0
 11
95.9817
 21
54.452
 31
0.0
  0
LINE
  8
0
 62
     0
 10
95.9817
 20
54.452
 30
0.0
 11
97.4824
 21
60.0548
 31
0.0
  0
LINE
  8
0
 62
     0
 10
97.4824
 20
60.0548
 30
0.0
 11
98.2557
 21
59.847
 31
0.0
  0
LINE
  8
0
 62
     0
 10
98.2557
 20
59.847
 30
0.0
 11
99.0575
 21
62.8414
 31
0.0
  0
LINE
  8
0
 62
     0
 10
99.0575
 20
62.8414
 30
0.0
 11
98.2857
 21
63.0495
 31
0.0
  0
LINE
  8
0
 62
     0
 10
98.2857
 20
63.0495
 30
0.0
 11
98.5435
 21
64.0154
 31
0.0
  0
LINE
  8
0
 62
     0
 10
98.5435
 20
64.0154
 30
0.0
 11
85.0209
 21
67.6381
 31
0.0
  0
LINE
  8
0
 62
     0
 10
85.0209
 20
67.6381
 30
0.0
 11
84.763
 21
66.6722
 31
0.0
  0
LINE
  8
0
 62
     0
 10
251.678
 20
64.1269
 30
0.0
 11
251.937
 21
63.161
 31
0.0
  0
LINE
  8
0
 62
     0
 10
251.937
 20
63.161
 30
0.0
 11
251.164
 21
62.9543
 31
0.0
  0
LINE
  8
0
 62
     0
 10
251.164
 20
62.9543
 30
0.0
 11
251.967
 21
59.9599
 31
0.0
  0
LINE
  8
0
 62
     0
 10
251.967
 20
59.9599
 30
0.0
 11
252.738
 21
60.1666
 31
0.0
  0
LINE
  8
0
 62
     0
 10
252.738
 20
60.1666
 30
0.0
 11
254.241
 21
54.5634
 31
0.0
  0
LINE
  8
0
 62
     0
 10
254.241
 20
54.5634
 30
0.0
 11
253.468
 21
54.3567
 31
0.0
  0
LINE
  8
0
 62
     0
 10
253.468
 20
54.3567
 30
0.0
 11
254.27
 21
51.3623
 31
0.0
  0
LINE
  8
0
 62
     0
 10
254.27
 20
51.3623
 30
0.0
 11
255.043
 21
51.5705
 31
0.0
  0
LINE
  8
0
 62
     0
 10
255.043
 20
51.5705
 30
0.0
 11
255.302
 21
50.6042
 31
0.0
  0
LINE
  8
0
 62
     0
 10
255.302
 20
50.6042
 30
0.0
 11
268.825
 21
54.2272
 31
0.0
  0
LINE
  8
0
 62
     0
 10
268.825
 20
54.2272
 30
0.0
 11
268.566
 21
55.1931
 31
0.0
  0
LINE
  8
0
 62
     0
 10
268.566
 20
55.1931
 30
0.0
 11
269.339
 21
55.4013
 31
0.0
  0
LINE
  8
0
 62
     0
 10
269.339
 20
55.4013
 30
0.0
 11
268.536
 21
58.3942
 31
0.0
  0
LINE
  8
0
 62
     0
 10
268.536
 20
58.3942
 30
0.0
 11
267.764
 21
58.1875
 31
0.0
  0
LINE
  8
0
 62
     0
 10
267.764
 20
58.1875
 30
0.0
 11
266.262
 21
63.7893
 31
0.0
  0
LINE
  8
0
 62
     0
 10
266.262
 20
63.7893
 30
0.0
 11
267.035
 21
63.9974
 31
0.0
  0
LINE
  8
0
 62
     0
 10
267.035
 20
63.9974
 30
0.0
 11
266.233
 21
66.9918
 31
0.0
  0
LINE
  8
0
 62
     0
 10
266.233
 20
66.9918
 30
0.0
 11
265.46
 21
66.7854
 31
0.0
  0
LINE
  8
0
 62
     0
 10
265.46
 20
66.7854
 30
0.0
 11
265.201
 21
67.7513
 31
0.0
  0
LINE
  8
0
 62
     0
 10
265.201
 20
67.7513
 30
0.0
 11
251.678
 21
64.1269
 31
0.0
  0
LINE
  8
0
 62
     0
 10
65.1288
 20
67.0031
 30
0.0
 11
64.3558
 21
67.2098
 31
0.0
  0
LINE
  8
0
 62
     0
 10
64.3558
 20
67.2098
 30
0.0
 11
63.5536
 21
64.2151
 31
0.0
  0
LINE
  8
0
 62
     0
 10
63.5536
 20
64.2151
 30
0.0
 11
64.3269
 21
64.0073
 31
0.0
  0
LINE
  8
0
 62
     0
 10
64.3269
 20
64.0073
 30
0.0
 11
62.8262
 21
58.4055
 31
0.0
  0
LINE
  8
0
 62
     0
 10
62.8262
 20
58.4055
 30
0.0
 11
62.0529
 21
58.6133
 31
0.0
  0
LINE
  8
0
 62
     0
 10
62.0529
 20
58.6133
 30
0.0
 11
61.251
 21
55.6189
 31
0.0
  0
LINE
  8
0
 62
     0
 10
61.251
 20
55.6189
 30
0.0
 11
62.0229
 21
55.4122
 31
0.0
  0
LINE
  8
0
 62
     0
 10
62.0229
 20
55.4122
 30
0.0
 11
61.7636
 21
54.4463
 31
0.0
  0
LINE
  8
0
 62
     0
 10
61.7636
 20
54.4463
 30
0.0
 11
75.2863
 21
50.8222
 31
0.0
  0
LINE
  8
0
 62
     0
 10
75.2863
 20
50.8222
 30
0.0
 11
75.5456
 21
51.7881
 31
0.0
  0
LINE
  8
0
 62
     0
 10
75.5456
 20
51.7881
 30
0.0
 11
76.3185
 21
51.5814
 31
0.0
  0
LINE
  8
0
 62
     0
 10
76.3185
 20
51.5814
 30
0.0
 11
77.1204
 21
54.5744
 31
0.0
  0
LINE
  8
0
 62
     0
 10
77.1204
 20
54.5744
 30
0.0
 11
76.3489
 21
54.7811
 31
0.0
  0
LINE
  8
0
 62
     0
 10
76.3489
 20
54.7811
 30
0.0
 11
77.8496
 21
60.3843
 31
0.0
  0
LINE
  8
0
 62
     0
 10
77.8496
 20
60.3843
 30
0.0
 11
78.6211
 21
60.1775
 31
0.0
  0
LINE
  8
0
 62
     0
 10
78.6211
 20
60.1775
 30
0.0
 11
79.4247
 21
63.1719
 31
0.0
  0
LINE
  8
0
 62
     0
 10
79.4247
 20
63.1719
 30
0.0
 11
78.6515
 21
63.3786
 31
0.0
  0
LINE
  8
0
 62
     0
 10
78.6515
 20
63.3786
 30
0.0
 11
78.9107
 21
64.3449
 31
0.0
  0
LINE
  8
0
 62
     0
 10
78.9107
 20
64.3449
 30
0.0
 11
65.3881
 21
67.969
 31
0.0
  0
LINE
  8
0
 62
     0
 10
65.3881
 20
67.969
 30
0.0
 11
65.1288
 21
67.0031
 31
0.0
  0
LINE
  8
0
 62
     0
 10
271.312
 20
64.4564
 30
0.0
 11
271.572
 21
63.4905
 31
0.0
  0
LINE
  8
0
 62
     0
 10
271.572
 20
63.4905
 30
0.0
 11
270.798
 21
63.2837
 31
0.0
  0
LINE
  8
0
 62
     0
 10
270.798
 20
63.2837
 30
0.0
 11
271.6
 21
60.289
 31
0.0
  0
LINE
  8
0
 62
     0
 10
271.6
 20
60.289
 30
0.0
 11
272.373
 21
60.4972
 31
0.0
  0
LINE
  8
0
 62
     0
 10
272.373
 20
60.4972
 30
0.0
 11
273.874
 21
54.894
 31
0.0
  0
LINE
  8
0
 62
     0
 10
273.874
 20
54.894
 30
0.0
 11
273.101
 21
54.6876
 31
0.0
  0
LINE
  8
0
 62
     0
 10
273.101
 20
54.6876
 30
0.0
 11
273.904
 21
51.6929
 31
0.0
  0
LINE
  8
0
 62
     0
 10
273.904
 20
51.6929
 30
0.0
 11
274.676
 21
51.8996
 31
0.0
  0
LINE
  8
0
 62
     0
 10
274.676
 20
51.8996
 30
0.0
 11
274.935
 21
50.9337
 31
0.0
  0
LINE
  8
0
 62
     0
 10
274.935
 20
50.9337
 30
0.0
 11
288.458
 21
54.5578
 31
0.0
  0
LINE
  8
0
 62
     0
 10
288.458
 20
54.5578
 30
0.0
 11
288.199
 21
55.524
 31
0.0
  0
LINE
  8
0
 62
     0
 10
288.199
 20
55.524
 30
0.0
 11
288.972
 21
55.7308
 31
0.0
  0
LINE
  8
0
 62
     0
 10
288.972
 20
55.7308
 30
0.0
 11
288.17
 21
58.7252
 31
0.0
  0
LINE
  8
0
 62
     0
 10
288.17
 20
58.7252
 30
0.0
 11
287.397
 21
58.5184
 31
0.0
  0
LINE
  8
0
 62
     0
 10
287.397
 20
58.5184
 30
0.0
 11
285.896
 21
64.1202
 31
0.0
  0
LINE
  8
0
 62
     0
 10
285.896
 20
64.1202
 30
0.0
 11
286.669
 21
64.3283
 31
0.0
  0
LINE
  8
0
 62
     0
 10
286.669
 20
64.3283
 30
0.0
 11
285.866
 21
67.3213
 31
0.0
  0
LINE
  8
0
 62
     0
 10
285.866
 20
67.3213
 30
0.0
 11
285.094
 21
67.1146
 31
0.0
  0
LINE
  8
0
 62
     0
 10
285.094
 20
67.1146
 30
0.0
 11
284.835
 21
68.0805
 31
0.0
  0
LINE
  8
0
 62
     0
 10
284.835
 20
68.0805
 30
0.0
 11
271.312
 21
64.4564
 31
0.0
  0
LINE
  8
0
 62
     0
 10
290.945
 20
64.7883
 30
0.0
 11
291.204
 21
63.8224
 31
0.0
  0
LINE
  8
0
 62
     0
 10
291.204
 20
63.8224
 30
0.0
 11
290.431
 21
63.6143
 31
0.0
  0
LINE
  8
0
 62
     0
 10
290.431
 20
63.6143
 30
0.0
 11
291.233
 21
60.6199
 31
0.0
  0
LINE
  8
0
 62
     0
 10
291.233
 20
60.6199
 30
0.0
 11
292.006
 21
60.8266
 31
0.0
  0
LINE
  8
0
 62
     0
 10
292.006
 20
60.8266
 30
0.0
 11
293.508
 21
55.2249
 31
0.0
  0
LINE
  8
0
 62
     0
 10
293.508
 20
55.2249
 30
0.0
 11
292.735
 21
55.0182
 31
0.0
  0
LINE
  8
0
 62
     0
 10
292.735
 20
55.0182
 30
0.0
 11
293.537
 21
52.0238
 31
0.0
  0
LINE
  8
0
 62
     0
 10
293.537
 20
52.0238
 30
0.0
 11
294.311
 21
52.2305
 31
0.0
  0
LINE
  8
0
 62
     0
 10
294.311
 20
52.2305
 30
0.0
 11
294.568
 21
51.2643
 31
0.0
  0
LINE
  8
0
 62
     0
 10
294.568
 20
51.2643
 30
0.0
 11
308.092
 21
54.8873
 31
0.0
  0
LINE
  8
0
 62
     0
 10
308.092
 20
54.8873
 30
0.0
 11
307.833
 21
55.8532
 31
0.0
  0
LINE
  8
0
 62
     0
 10
307.833
 20
55.8532
 30
0.0
 11
308.606
 21
56.0613
 31
0.0
  0
LINE
  8
0
 62
     0
 10
308.606
 20
56.0613
 30
0.0
 11
307.803
 21
59.0543
 31
0.0
  0
LINE
  8
0
 62
     0
 10
307.803
 20
59.0543
 30
0.0
 11
307.031
 21
58.8479
 31
0.0
  0
LINE
  8
0
 62
     0
 10
307.031
 20
58.8479
 30
0.0
 11
305.529
 21
64.4507
 31
0.0
  0
LINE
  8
0
 62
     0
 10
305.529
 20
64.4507
 30
0.0
 11
306.302
 21
64.6575
 31
0.0
  0
LINE
  8
0
 62
     0
 10
306.302
 20
64.6575
 30
0.0
 11
305.5
 21
67.6522
 31
0.0
  0
LINE
  8
0
 62
     0
 10
305.5
 20
67.6522
 30
0.0
 11
304.727
 21
67.4455
 31
0.0
  0
LINE
  8
0
 62
     0
 10
304.727
 20
67.4455
 30
0.0
 11
304.468
 21
68.4114
 31
0.0
  0
LINE
  8
0
 62
     0
 10
304.468
 20
68.4114
 30
0.0
 11
290.945
 21
64.7883
 31
0.0
  0
LINE
  8
0
 62
     0
 10
316.246
 20
71.567
 30
0.0
 11
316.505
 21
70.6011
 31
0.0
  0
LINE
  8
0
 62
     0
 10
316.505
 20
70.6011
 30
0.0
 11
315.733
 21
70.3943
 31
0.0
  0
LINE
  8
0
 62
     0
 10
315.733
 20
70.3943
 30
0.0
 11
316.536
 21
67.4
 31
0.0
  0
LINE
  8
0
 62
     0
 10
316.536
 20
67.4
 30
0.0
 11
317.307
 21
67.6067
 31
0.0
  0
LINE
  8
0
 62
     0
 10
317.307
 20
67.6067
 30
0.0
 11
318.809
 21
62.0035
 31
0.0
  0
LINE
  8
0
 62
     0
 10
318.809
 20
62.0035
 30
0.0
 11
318.036
 21
61.7968
 31
0.0
  0
LINE
  8
0
 62
     0
 10
318.036
 20
61.7968
 30
0.0
 11
318.838
 21
58.8024
 31
0.0
  0
LINE
  8
0
 62
     0
 10
318.838
 20
58.8024
 30
0.0
 11
319.611
 21
59.0102
 31
0.0
  0
LINE
  8
0
 62
     0
 10
319.611
 20
59.0102
 30
0.0
 11
319.87
 21
58.0443
 31
0.0
  0
LINE
  8
0
 62
     0
 10
319.87
 20
58.0443
 30
0.0
 11
333.393
 21
61.6673
 31
0.0
  0
LINE
  8
0
 62
     0
 10
333.393
 20
61.6673
 30
0.0
 11
333.134
 21
62.6332
 31
0.0
  0
LINE
  8
0
 62
     0
 10
333.134
 20
62.6332
 30
0.0
 11
333.907
 21
62.8414
 31
0.0
  0
LINE
  8
0
 62
     0
 10
333.907
 20
62.8414
 30
0.0
 11
333.103
 21
65.8343
 31
0.0
  0
LINE
  8
0
 62
     0
 10
333.103
 20
65.8343
 30
0.0
 11
332.332
 21
65.6276
 31
0.0
  0
LINE
  8
0
 62
     0
 10
332.332
 20
65.6276
 30
0.0
 11
330.831
 21
71.2294
 31
0.0
  0
LINE
  8
0
 62
     0
 10
330.831
 20
71.2294
 30
0.0
 11
331.603
 21
71.4361
 31
0.0
  0
LINE
  8
0
 62
     0
 10
331.603
 20
71.4361
 30
0.0
 11
330.801
 21
74.4319
 31
0.0
  0
LINE
  8
0
 62
     0
 10
330.801
 20
74.4319
 30
0.0
 11
330.028
 21
74.2251
 31
0.0
  0
LINE
  8
0
 62
     0
 10
330.028
 20
74.2251
 30
0.0
 11
329.769
 21
75.1914
 31
0.0
  0
LINE
  8
0
 62
     0
 10
329.769
 20
75.1914
 30
0.0
 11
316.246
 21
71.567
 31
0.0
  0
LINE
  8
0
 62
     0
 10
165.761
 20
74.5518
 30
0.0
 11
164.989
 21
74.7586
 31
0.0
  0
LINE
  8
0
 62
     0
 10
164.989
 20
74.7586
 30
0.0
 11
164.186
 21
71.7642
 31
0.0
  0
LINE
  8
0
 62
     0
 10
164.186
 20
71.7642
 30
0.0
 11
164.96
 21
71.5574
 31
0.0
  0
LINE
  8
0
 62
     0
 10
164.96
 20
71.5574
 30
0.0
 11
163.457
 21
65.9543
 31
0.0
  0
LINE
  8
0
 62
     0
 10
163.457
 20
65.9543
 30
0.0
 11
162.686
 21
66.1624
 31
0.0
  0
LINE
  8
0
 62
     0
 10
162.686
 20
66.1624
 30
0.0
 11
161.882
 21
63.168
 31
0.0
  0
LINE
  8
0
 62
     0
 10
161.882
 20
63.168
 30
0.0
 11
162.655
 21
62.9613
 31
0.0
  0
LINE
  8
0
 62
     0
 10
162.655
 20
62.9613
 30
0.0
 11
162.396
 21
61.995
 31
0.0
  0
LINE
  8
0
 62
     0
 10
162.396
 20
61.995
 30
0.0
 11
175.92
 21
58.371
 31
0.0
  0
LINE
  8
0
 62
     0
 10
175.92
 20
58.371
 30
0.0
 11
176.179
 21
59.3369
 31
0.0
  0
LINE
  8
0
 62
     0
 10
176.179
 20
59.3369
 30
0.0
 11
176.951
 21
59.1301
 31
0.0
  0
LINE
  8
0
 62
     0
 10
176.951
 20
59.1301
 30
0.0
 11
177.753
 21
62.1235
 31
0.0
  0
LINE
  8
0
 62
     0
 10
177.753
 20
62.1235
 30
0.0
 11
176.98
 21
62.3316
 31
0.0
  0
LINE
  8
0
 62
     0
 10
176.98
 20
62.3316
 30
0.0
 11
178.482
 21
67.933
 31
0.0
  0
LINE
  8
0
 62
     0
 10
178.482
 20
67.933
 30
0.0
 11
179.255
 21
67.7263
 31
0.0
  0
LINE
  8
0
 62
     0
 10
179.255
 20
67.7263
 30
0.0
 11
180.057
 21
70.721
 31
0.0
  0
LINE
  8
0
 62
     0
 10
180.057
 20
70.721
 30
0.0
 11
179.284
 21
70.9277
 31
0.0
  0
LINE
  8
0
 62
     0
 10
179.284
 20
70.9277
 30
0.0
 11
179.543
 21
71.8936
 31
0.0
  0
LINE
  8
0
 62
     0
 10
179.543
 20
71.8936
 30
0.0
 11
166.02
 21
75.5177
 31
0.0
  0
LINE
  8
0
 62
     0
 10
166.02
 20
75.5177
 30
0.0
 11
165.761
 21
74.5518
 31
0.0
  0
LINE
  8
0
 62
     0
 10
190.311
 20
72.3374
 30
0.0
 11
190.57
 21
71.3715
 31
0.0
  0
LINE
  8
0
 62
     0
 10
190.57
 20
71.3715
 30
0.0
 11
189.799
 21
71.1634
 31
0.0
  0
LINE
  8
0
 62
     0
 10
189.799
 20
71.1634
 30
0.0
 11
190.601
 21
68.1687
 31
0.0
  0
LINE
  8
0
 62
     0
 10
190.601
 20
68.1687
 30
0.0
 11
191.374
 21
68.3754
 31
0.0
  0
LINE
  8
0
 62
     0
 10
191.374
 20
68.3754
 30
0.0
 11
192.874
 21
62.7736
 31
0.0
  0
LINE
  8
0
 62
     0
 10
192.874
 20
62.7736
 30
0.0
 11
192.101
 21
62.5669
 31
0.0
  0
LINE
  8
0
 62
     0
 10
192.101
 20
62.5669
 30
0.0
 11
192.903
 21
59.5725
 31
0.0
  0
LINE
  8
0
 62
     0
 10
192.903
 20
59.5725
 30
0.0
 11
193.676
 21
59.7793
 31
0.0
  0
LINE
  8
0
 62
     0
 10
193.676
 20
59.7793
 30
0.0
 11
193.935
 21
58.8133
 31
0.0
  0
LINE
  8
0
 62
     0
 10
193.935
 20
58.8133
 30
0.0
 11
207.458
 21
62.436
 31
0.0
  0
LINE
  8
0
 62
     0
 10
207.458
 20
62.436
 30
0.0
 11
207.199
 21
63.4023
 31
0.0
  0
LINE
  8
0
 62
     0
 10
207.199
 20
63.4023
 30
0.0
 11
207.972
 21
63.6104
 31
0.0
  0
LINE
  8
0
 62
     0
 10
207.972
 20
63.6104
 30
0.0
 11
207.17
 21
66.6048
 31
0.0
  0
LINE
  8
0
 62
     0
 10
207.17
 20
66.6048
 30
0.0
 11
206.398
 21
66.3967
 31
0.0
  0
LINE
  8
0
 62
     0
 10
206.398
 20
66.3967
 30
0.0
 11
204.897
 21
71.9998
 31
0.0
  0
LINE
  8
0
 62
     0
 10
204.897
 20
71.9998
 30
0.0
 11
205.668
 21
72.2066
 31
0.0
  0
LINE
  8
0
 62
     0
 10
205.668
 20
72.2066
 30
0.0
 11
204.868
 21
75.2009
 31
0.0
  0
LINE
  8
0
 62
     0
 10
204.868
 20
75.2009
 30
0.0
 11
204.094
 21
74.9942
 31
0.0
  0
LINE
  8
0
 62
     0
 10
204.094
 20
74.9942
 30
0.0
 11
203.835
 21
75.9601
 31
0.0
  0
LINE
  8
0
 62
     0
 10
203.835
 20
75.9601
 30
0.0
 11
190.311
 21
72.3374
 31
0.0
  0
LINE
  8
0
 62
     0
 10
24.5001
 20
78.686
 30
0.0
 11
22.8341
 21
79.1326
 31
0.0
  0
LINE
  8
0
 62
     0
 10
22.8341
 20
79.1326
 30
0.0
 11
21.2108
 21
73.0762
 31
0.0
  0
LINE
  8
0
 62
     0
 10
21.2108
 20
73.0762
 30
0.0
 11
20.4143
 21
73.2896
 31
0.0
  0
LINE
  8
0
 62
     0
 10
20.4143
 20
73.2896
 30
0.0
 11
19.6894
 21
70.5845
 31
0.0
  0
LINE
  8
0
 62
     0
 10
19.6894
 20
70.5845
 30
0.0
 11
20.4859
 21
70.3721
 31
0.0
  0
LINE
  8
0
 62
     0
 10
20.4859
 20
70.3721
 30
0.0
 11
19.6494
 21
67.2525
 31
0.0
  0
LINE
  8
0
 62
     0
 10
19.6494
 20
67.2525
 30
0.0
 11
21.3155
 21
66.8059
 31
0.0
  0
LINE
  8
0
 62
     0
 10
21.3155
 20
66.8059
 30
0.0
 11
21.0771
 21
65.9172
 31
0.0
  0
LINE
  8
0
 62
     0
 10
21.0771
 20
65.9172
 30
0.0
 11
24.2659
 21
65.0628
 31
0.0
  0
LINE
  8
0
 62
     0
 10
24.2659
 20
65.0628
 30
0.0
 11
24.5043
 21
65.95
 31
0.0
  0
LINE
  8
0
 62
     0
 10
24.5043
 20
65.95
 30
0.0
 11
26.1703
 21
65.5052
 31
0.0
  0
LINE
  8
0
 62
     0
 10
26.1703
 20
65.5052
 30
0.0
 11
27.0054
 21
68.6248
 31
0.0
  0
LINE
  8
0
 62
     0
 10
27.0054
 20
68.6248
 30
0.0
 11
28.4786
 21
68.2293
 31
0.0
  0
LINE
  8
0
 62
     0
 10
28.4786
 20
68.2293
 30
0.0
 11
28.3242
 21
67.6508
 31
0.0
  0
LINE
  8
0
 62
     0
 10
28.3242
 20
67.6508
 30
0.0
 11
27.5511
 21
67.8575
 31
0.0
  0
LINE
  8
0
 62
     0
 10
27.5511
 20
67.8575
 30
0.0
 11
26.7491
 21
64.8628
 31
0.0
  0
LINE
  8
0
 62
     0
 10
26.7491
 20
64.8628
 30
0.0
 11
27.5208
 21
64.6561
 31
0.0
  0
LINE
  8
0
 62
     0
 10
27.5208
 20
64.6561
 30
0.0
 11
27.2617
 21
63.6901
 31
0.0
  0
LINE
  8
0
 62
     0
 10
27.2617
 20
63.6901
 30
0.0
 11
40.7857
 21
60.0675
 31
0.0
  0
LINE
  8
0
 62
     0
 10
40.7857
 20
60.0675
 30
0.0
 11
41.045
 21
61.0334
 31
0.0
  0
LINE
  8
0
 62
     0
 10
41.045
 20
61.0334
 30
0.0
 11
41.8165
 21
60.8252
 31
0.0
  0
LINE
  8
0
 62
     0
 10
41.8165
 20
60.8252
 30
0.0
 11
42.6201
 21
63.8196
 31
0.0
  0
LINE
  8
0
 62
     0
 10
42.6201
 20
63.8196
 30
0.0
 11
41.8469
 21
64.0263
 31
0.0
  0
LINE
  8
0
 62
     0
 10
41.8469
 20
64.0263
 30
0.0
 11
42.0014
 21
64.6067
 31
0.0
  0
LINE
  8
0
 62
     0
 10
42.0014
 20
64.6067
 30
0.0
 11
43.4742
 21
64.2126
 31
0.0
  0
LINE
  8
0
 62
     0
 10
43.4742
 20
64.2126
 30
0.0
 11
42.6392
 21
61.0912
 31
0.0
  0
LINE
  8
0
 62
     0
 10
42.6392
 20
61.0912
 30
0.0
 11
44.3054
 21
60.646
 31
0.0
  0
LINE
  8
0
 62
     0
 10
44.3054
 20
60.646
 30
0.0
 11
44.0669
 21
59.7574
 31
0.0
  0
LINE
  8
0
 62
     0
 10
44.0669
 20
59.7574
 30
0.0
 11
47.2542
 21
58.903
 31
0.0
  0
LINE
  8
0
 62
     0
 10
47.2542
 20
58.903
 30
0.0
 11
47.4927
 21
59.7916
 31
0.0
  0
LINE
  8
0
 62
     0
 10
47.4927
 20
59.7916
 30
0.0
 11
49.1589
 21
59.3453
 31
0.0
  0
LINE
  8
0
 62
     0
 10
49.1589
 20
59.3453
 30
0.0
 11
49.9953
 21
62.4649
 31
0.0
  0
LINE
  8
0
 62
     0
 10
49.9953
 20
62.4649
 30
0.0
 11
50.7919
 21
62.2501
 31
0.0
  0
LINE
  8
0
 62
     0
 10
50.7919
 20
62.2501
 30
0.0
 11
51.5165
 21
64.9552
 31
0.0
  0
LINE
  8
0
 62
     0
 10
51.5165
 20
64.9552
 30
0.0
 11
50.7199
 21
65.17
 31
0.0
  0
LINE
  8
0
 62
     0
 10
50.7199
 20
65.17
 30
0.0
 11
52.3434
 21
71.2251
 31
0.0
  0
LINE
  8
0
 62
     0
 10
52.3434
 20
71.2251
 30
0.0
 11
50.6772
 21
71.6717
 31
0.0
  0
LINE
  8
0
 62
     0
 10
50.6772
 20
71.6717
 30
0.0
 11
50.9295
 21
72.6186
 31
0.0
  0
LINE
  8
0
 62
     0
 10
50.9295
 20
72.6186
 30
0.0
 11
47.7421
 21
73.473
 31
0.0
  0
LINE
  8
0
 62
     0
 10
47.7421
 20
73.473
 30
0.0
 11
47.4885
 21
72.5262
 31
0.0
  0
LINE
  8
0
 62
     0
 10
47.4885
 20
72.5262
 30
0.0
 11
45.8227
 21
72.9728
 31
0.0
  0
LINE
  8
0
 62
     0
 10
45.8227
 20
72.9728
 30
0.0
 11
44.6663
 21
68.6551
 31
0.0
  0
LINE
  8
0
 62
     0
 10
44.6663
 20
68.6551
 30
0.0
 11
43.1934
 21
69.0492
 31
0.0
  0
LINE
  8
0
 62
     0
 10
43.1934
 20
69.0492
 30
0.0
 11
43.3476
 21
69.6295
 31
0.0
  0
LINE
  8
0
 62
     0
 10
43.3476
 20
69.6295
 30
0.0
 11
44.1205
 21
69.4214
 31
0.0
  0
LINE
  8
0
 62
     0
 10
44.1205
 20
69.4214
 30
0.0
 11
44.9227
 21
72.4172
 31
0.0
  0
LINE
  8
0
 62
     0
 10
44.9227
 20
72.4172
 30
0.0
 11
44.1494
 21
72.6239
 31
0.0
  0
LINE
  8
0
 62
     0
 10
44.1494
 20
72.6239
 30
0.0
 11
44.4087
 21
73.5902
 31
0.0
  0
LINE
  8
0
 62
     0
 10
44.4087
 20
73.5902
 30
0.0
 11
30.886
 21
77.2128
 31
0.0
  0
LINE
  8
0
 62
     0
 10
30.886
 20
77.2128
 30
0.0
 11
30.6269
 21
76.2469
 31
0.0
  0
LINE
  8
0
 62
     0
 10
30.6269
 20
76.2469
 30
0.0
 11
29.8552
 21
76.4536
 31
0.0
  0
LINE
  8
0
 62
     0
 10
29.8552
 20
76.4536
 30
0.0
 11
29.0518
 21
73.4603
 31
0.0
  0
LINE
  8
0
 62
     0
 10
29.0518
 20
73.4603
 30
0.0
 11
29.8249
 21
73.2525
 31
0.0
  0
LINE
  8
0
 62
     0
 10
29.8249
 20
73.2525
 30
0.0
 11
29.6692
 21
72.6722
 31
0.0
  0
LINE
  8
0
 62
     0
 10
29.6692
 20
72.6722
 30
0.0
 11
28.1974
 21
73.0677
 31
0.0
  0
LINE
  8
0
 62
     0
 10
28.1974
 20
73.0677
 30
0.0
 11
29.3536
 21
77.385
 31
0.0
  0
LINE
  8
0
 62
     0
 10
29.3536
 20
77.385
 30
0.0
 11
27.6862
 21
77.8316
 31
0.0
  0
LINE
  8
0
 62
     0
 10
27.6862
 20
77.8316
 30
0.0
 11
27.9411
 21
78.7785
 31
0.0
  0
LINE
  8
0
 62
     0
 10
27.9411
 20
78.7785
 30
0.0
 11
24.7537
 21
79.6325
 31
0.0
  0
LINE
  8
0
 62
     0
 10
24.7537
 20
79.6325
 30
0.0
 11
24.5001
 21
78.686
 31
0.0
  0
LINE
  8
0
 62
     0
 10
126.494
 20
75.2119
 30
0.0
 11
125.721
 21
75.4186
 31
0.0
  0
LINE
  8
0
 62
     0
 10
125.721
 20
75.4186
 30
0.0
 11
124.919
 21
72.4242
 31
0.0
  0
LINE
  8
0
 62
     0
 10
124.919
 20
72.4242
 30
0.0
 11
125.692
 21
72.2175
 31
0.0
  0
LINE
  8
0
 62
     0
 10
125.692
 20
72.2175
 30
0.0
 11
124.19
 21
66.6157
 31
0.0
  0
LINE
  8
0
 62
     0
 10
124.19
 20
66.6157
 30
0.0
 11
123.417
 21
66.8225
 31
0.0
  0
LINE
  8
0
 62
     0
 10
123.417
 20
66.8225
 30
0.0
 11
122.615
 21
63.8281
 31
0.0
  0
LINE
  8
0
 62
     0
 10
122.615
 20
63.8281
 30
0.0
 11
123.388
 21
63.6214
 31
0.0
  0
LINE
  8
0
 62
     0
 10
123.388
 20
63.6214
 30
0.0
 11
123.129
 21
62.6551
 31
0.0
  0
LINE
  8
0
 62
     0
 10
123.129
 20
62.6551
 30
0.0
 11
136.653
 21
59.0324
 31
0.0
  0
LINE
  8
0
 62
     0
 10
136.653
 20
59.0324
 30
0.0
 11
136.912
 21
59.9983
 31
0.0
  0
LINE
  8
0
 62
     0
 10
136.912
 20
59.9983
 30
0.0
 11
137.685
 21
59.7902
 31
0.0
  0
LINE
  8
0
 62
     0
 10
137.685
 20
59.7902
 30
0.0
 11
138.487
 21
62.7849
 31
0.0
  0
LINE
  8
0
 62
     0
 10
138.487
 20
62.7849
 30
0.0
 11
137.714
 21
62.9916
 31
0.0
  0
LINE
  8
0
 62
     0
 10
137.714
 20
62.9916
 30
0.0
 11
139.216
 21
68.5934
 31
0.0
  0
LINE
  8
0
 62
     0
 10
139.216
 20
68.5934
 30
0.0
 11
139.988
 21
68.3867
 31
0.0
  0
LINE
  8
0
 62
     0
 10
139.988
 20
68.3867
 30
0.0
 11
140.791
 21
71.3825
 31
0.0
  0
LINE
  8
0
 62
     0
 10
140.791
 20
71.3825
 30
0.0
 11
140.018
 21
71.5892
 31
0.0
  0
LINE
  8
0
 62
     0
 10
140.018
 20
71.5892
 30
0.0
 11
140.277
 21
72.5551
 31
0.0
  0
LINE
  8
0
 62
     0
 10
140.277
 20
72.5551
 30
0.0
 11
126.753
 21
76.1781
 31
0.0
  0
LINE
  8
0
 62
     0
 10
126.753
 20
76.1781
 30
0.0
 11
126.494
 21
75.2119
 31
0.0
  0
LINE
  8
0
 62
     0
 10
229.578
 20
72.9975
 30
0.0
 11
229.838
 21
72.0316
 31
0.0
  0
LINE
  8
0
 62
     0
 10
229.838
 20
72.0316
 30
0.0
 11
229.066
 21
71.8234
 31
0.0
  0
LINE
  8
0
 62
     0
 10
229.066
 20
71.8234
 30
0.0
 11
229.868
 21
68.8301
 31
0.0
  0
LINE
  8
0
 62
     0
 10
229.868
 20
68.8301
 30
0.0
 11
230.641
 21
69.0369
 31
0.0
  0
LINE
  8
0
 62
     0
 10
230.641
 20
69.0369
 30
0.0
 11
232.142
 21
63.4351
 31
0.0
  0
LINE
  8
0
 62
     0
 10
232.142
 20
63.4351
 30
0.0
 11
231.369
 21
63.2273
 31
0.0
  0
LINE
  8
0
 62
     0
 10
231.369
 20
63.2273
 30
0.0
 11
232.17
 21
60.2326
 31
0.0
  0
LINE
  8
0
 62
     0
 10
232.17
 20
60.2326
 30
0.0
 11
232.944
 21
60.4393
 31
0.0
  0
LINE
  8
0
 62
     0
 10
232.944
 20
60.4393
 30
0.0
 11
233.203
 21
59.4734
 31
0.0
  0
LINE
  8
0
 62
     0
 10
233.203
 20
59.4734
 30
0.0
 11
246.725
 21
63.0975
 31
0.0
  0
LINE
  8
0
 62
     0
 10
246.725
 20
63.0975
 30
0.0
 11
246.466
 21
64.0637
 31
0.0
  0
LINE
  8
0
 62
     0
 10
246.466
 20
64.0637
 30
0.0
 11
247.239
 21
64.2705
 31
0.0
  0
LINE
  8
0
 62
     0
 10
247.239
 20
64.2705
 30
0.0
 11
246.437
 21
67.2648
 31
0.0
  0
LINE
  8
0
 62
     0
 10
246.437
 20
67.2648
 30
0.0
 11
245.664
 21
67.0581
 31
0.0
  0
LINE
  8
0
 62
     0
 10
245.664
 20
67.0581
 30
0.0
 11
244.163
 21
72.6599
 31
0.0
  0
LINE
  8
0
 62
     0
 10
244.163
 20
72.6599
 30
0.0
 11
244.935
 21
72.8666
 31
0.0
  0
LINE
  8
0
 62
     0
 10
244.935
 20
72.8666
 30
0.0
 11
244.133
 21
75.8624
 31
0.0
  0
LINE
  8
0
 62
     0
 10
244.133
 20
75.8624
 30
0.0
 11
243.36
 21
75.6543
 31
0.0
  0
LINE
  8
0
 62
     0
 10
243.36
 20
75.6543
 30
0.0
 11
243.101
 21
76.6202
 31
0.0
  0
LINE
  8
0
 62
     0
 10
243.101
 20
76.6202
 30
0.0
 11
229.578
 21
72.9975
 31
0.0
  0
LINE
  8
0
 62
     0
 10
341.548
 20
78.347
 30
0.0
 11
341.807
 21
77.3811
 31
0.0
  0
LINE
  8
0
 62
     0
 10
341.807
 20
77.3811
 30
0.0
 11
341.034
 21
77.1744
 31
0.0
  0
LINE
  8
0
 62
     0
 10
341.034
 20
77.1744
 30
0.0
 11
341.836
 21
74.1786
 31
0.0
  0
LINE
  8
0
 62
     0
 10
341.836
 20
74.1786
 30
0.0
 11
342.609
 21
74.385
 31
0.0
  0
LINE
  8
0
 62
     0
 10
342.609
 20
74.385
 30
0.0
 11
344.11
 21
68.7836
 31
0.0
  0
LINE
  8
0
 62
     0
 10
344.11
 20
68.7836
 30
0.0
 11
343.337
 21
68.5768
 31
0.0
  0
LINE
  8
0
 62
     0
 10
343.337
 20
68.5768
 30
0.0
 11
344.14
 21
65.5821
 31
0.0
  0
LINE
  8
0
 62
     0
 10
344.14
 20
65.5821
 30
0.0
 11
344.912
 21
65.7888
 31
0.0
  0
LINE
  8
0
 62
     0
 10
344.912
 20
65.7888
 30
0.0
 11
345.171
 21
64.8243
 31
0.0
  0
LINE
  8
0
 62
     0
 10
345.171
 20
64.8243
 30
0.0
 11
358.694
 21
68.447
 31
0.0
  0
LINE
  8
0
 62
     0
 10
358.694
 20
68.447
 30
0.0
 11
358.436
 21
69.4133
 31
0.0
  0
LINE
  8
0
 62
     0
 10
358.436
 20
69.4133
 30
0.0
 11
359.209
 21
69.62
 31
0.0
  0
LINE
  8
0
 62
     0
 10
359.209
 20
69.62
 30
0.0
 11
358.405
 21
72.6144
 31
0.0
  0
LINE
  8
0
 62
     0
 10
358.405
 20
72.6144
 30
0.0
 11
357.632
 21
72.4062
 31
0.0
  0
LINE
  8
0
 62
     0
 10
357.632
 20
72.4062
 30
0.0
 11
356.133
 21
78.0094
 31
0.0
  0
LINE
  8
0
 62
     0
 10
356.133
 20
78.0094
 30
0.0
 11
356.905
 21
78.2175
 31
0.0
  0
LINE
  8
0
 62
     0
 10
356.905
 20
78.2175
 30
0.0
 11
356.101
 21
81.2105
 31
0.0
  0
LINE
  8
0
 62
     0
 10
356.101
 20
81.2105
 30
0.0
 11
355.328
 21
81.0038
 31
0.0
  0
LINE
  8
0
 62
     0
 10
355.328
 20
81.0038
 30
0.0
 11
355.071
 21
81.9697
 31
0.0
  0
LINE
  8
0
 62
     0
 10
355.071
 20
81.9697
 30
0.0
 11
341.548
 21
78.347
 31
0.0
  0
LINE
  8
0
 62
     0
 10
148.594
 20
84.0825
 30
0.0
 11
147.821
 21
84.2892
 31
0.0
  0
LINE
  8
0
 62
     0
 10
147.821
 20
84.2892
 30
0.0
 11
147.019
 21
81.2945
 31
0.0
  0
LINE
  8
0
 62
     0
 10
147.019
 20
81.2945
 30
0.0
 11
147.791
 21
81.0877
 31
0.0
  0
LINE
  8
0
 62
     0
 10
147.791
 20
81.0877
 30
0.0
 11
146.29
 21
75.4863
 31
0.0
  0
LINE
  8
0
 62
     0
 10
146.29
 20
75.4863
 30
0.0
 11
145.517
 21
75.6931
 31
0.0
  0
LINE
  8
0
 62
     0
 10
145.517
 20
75.6931
 30
0.0
 11
144.715
 21
72.6983
 31
0.0
  0
LINE
  8
0
 62
     0
 10
144.715
 20
72.6983
 30
0.0
 11
145.488
 21
72.4902
 31
0.0
  0
LINE
  8
0
 62
     0
 10
145.488
 20
72.4902
 30
0.0
 11
145.229
 21
71.5243
 31
0.0
  0
LINE
  8
0
 62
     0
 10
145.229
 20
71.5243
 30
0.0
 11
158.751
 21
67.9016
 31
0.0
  0
LINE
  8
0
 62
     0
 10
158.751
 20
67.9016
 30
0.0
 11
159.01
 21
68.8675
 31
0.0
  0
LINE
  8
0
 62
     0
 10
159.01
 20
68.8675
 30
0.0
 11
159.784
 21
68.6608
 31
0.0
  0
LINE
  8
0
 62
     0
 10
159.784
 20
68.6608
 30
0.0
 11
160.586
 21
71.6552
 31
0.0
  0
LINE
  8
0
 62
     0
 10
160.586
 20
71.6552
 30
0.0
 11
159.813
 21
71.8619
 31
0.0
  0
LINE
  8
0
 62
     0
 10
159.813
 20
71.8619
 30
0.0
 11
161.313
 21
77.4651
 31
0.0
  0
LINE
  8
0
 62
     0
 10
161.313
 20
77.4651
 30
0.0
 11
162.086
 21
77.2583
 31
0.0
  0
LINE
  8
0
 62
     0
 10
162.086
 20
77.2583
 30
0.0
 11
162.888
 21
80.2513
 31
0.0
  0
LINE
  8
0
 62
     0
 10
162.888
 20
80.2513
 30
0.0
 11
162.117
 21
80.458
 31
0.0
  0
LINE
  8
0
 62
     0
 10
162.117
 20
80.458
 30
0.0
 11
162.374
 21
81.4243
 31
0.0
  0
LINE
  8
0
 62
     0
 10
162.374
 20
81.4243
 30
0.0
 11
148.851
 21
85.0484
 31
0.0
  0
LINE
  8
0
 62
     0
 10
148.851
 20
85.0484
 30
0.0
 11
148.594
 21
84.0825
 31
0.0
  0
LINE
  8
0
 62
     0
 10
207.48
 20
81.8667
 30
0.0
 11
207.739
 21
80.9004
 31
0.0
  0
LINE
  8
0
 62
     0
 10
207.739
 20
80.9004
 30
0.0
 11
206.966
 21
80.6937
 31
0.0
  0
LINE
  8
0
 62
     0
 10
206.966
 20
80.6937
 30
0.0
 11
207.768
 21
77.6993
 31
0.0
  0
LINE
  8
0
 62
     0
 10
207.768
 20
77.6993
 30
0.0
 11
208.541
 21
77.9074
 31
0.0
  0
LINE
  8
0
 62
     0
 10
208.541
 20
77.9074
 30
0.0
 11
210.043
 21
72.3043
 31
0.0
  0
LINE
  8
0
 62
     0
 10
210.043
 20
72.3043
 30
0.0
 11
209.27
 21
72.0975
 31
0.0
  0
LINE
  8
0
 62
     0
 10
209.27
 20
72.0975
 30
0.0
 11
210.072
 21
69.1032
 31
0.0
  0
LINE
  8
0
 62
     0
 10
210.072
 20
69.1032
 30
0.0
 11
210.845
 21
69.3099
 31
0.0
  0
LINE
  8
0
 62
     0
 10
210.845
 20
69.3099
 30
0.0
 11
211.104
 21
68.3436
 31
0.0
  0
LINE
  8
0
 62
     0
 10
211.104
 20
68.3436
 30
0.0
 11
224.627
 21
71.9681
 31
0.0
  0
LINE
  8
0
 62
     0
 10
224.627
 20
71.9681
 30
0.0
 11
224.368
 21
72.934
 31
0.0
  0
LINE
  8
0
 62
     0
 10
224.368
 20
72.934
 30
0.0
 11
225.141
 21
73.1407
 31
0.0
  0
LINE
  8
0
 62
     0
 10
225.141
 20
73.1407
 30
0.0
 11
224.339
 21
76.1351
 31
0.0
  0
LINE
  8
0
 62
     0
 10
224.339
 20
76.1351
 30
0.0
 11
223.566
 21
75.9273
 31
0.0
  0
LINE
  8
0
 62
     0
 10
223.566
 20
75.9273
 30
0.0
 11
222.065
 21
81.5301
 31
0.0
  0
LINE
  8
0
 62
     0
 10
222.065
 20
81.5301
 30
0.0
 11
222.838
 21
81.7383
 31
0.0
  0
LINE
  8
0
 62
     0
 10
222.838
 20
81.7383
 30
0.0
 11
222.035
 21
84.7316
 31
0.0
  0
LINE
  8
0
 62
     0
 10
222.035
 20
84.7316
 30
0.0
 11
221.262
 21
84.5249
 31
0.0
  0
LINE
  8
0
 62
     0
 10
221.262
 20
84.5249
 30
0.0
 11
221.004
 21
85.4908
 31
0.0
  0
LINE
  8
0
 62
     0
 10
221.004
 20
85.4908
 30
0.0
 11
207.48
 21
81.8667
 31
0.0
  0
LINE
  8
0
 62
     0
 10
109.327
 20
84.7425
 30
0.0
 11
108.554
 21
84.9492
 31
0.0
  0
LINE
  8
0
 62
     0
 10
108.554
 20
84.9492
 30
0.0
 11
107.752
 21
81.9559
 31
0.0
  0
LINE
  8
0
 62
     0
 10
107.752
 20
81.9559
 30
0.0
 11
108.523
 21
81.7492
 31
0.0
  0
LINE
  8
0
 62
     0
 10
108.523
 20
81.7492
 30
0.0
 11
107.023
 21
76.1464
 31
0.0
  0
LINE
  8
0
 62
     0
 10
107.023
 20
76.1464
 30
0.0
 11
106.25
 21
76.3531
 31
0.0
  0
LINE
  8
0
 62
     0
 10
106.25
 20
76.3531
 30
0.0
 11
105.447
 21
73.3584
 31
0.0
  0
LINE
  8
0
 62
     0
 10
105.447
 20
73.3584
 30
0.0
 11
106.221
 21
73.1516
 31
0.0
  0
LINE
  8
0
 62
     0
 10
106.221
 20
73.1516
 30
0.0
 11
105.961
 21
72.1857
 31
0.0
  0
LINE
  8
0
 62
     0
 10
105.961
 20
72.1857
 30
0.0
 11
119.484
 21
68.5617
 31
0.0
  0
LINE
  8
0
 62
     0
 10
119.484
 20
68.5617
 30
0.0
 11
119.743
 21
69.5276
 31
0.0
  0
LINE
  8
0
 62
     0
 10
119.743
 20
69.5276
 30
0.0
 11
120.516
 21
69.3208
 31
0.0
  0
LINE
  8
0
 62
     0
 10
120.516
 20
69.3208
 30
0.0
 11
121.319
 21
72.3152
 31
0.0
  0
LINE
  8
0
 62
     0
 10
121.319
 20
72.3152
 30
0.0
 11
120.545
 21
72.5234
 31
0.0
  0
LINE
  8
0
 62
     0
 10
120.545
 20
72.5234
 30
0.0
 11
122.047
 21
78.1251
 31
0.0
  0
LINE
  8
0
 62
     0
 10
122.047
 20
78.1251
 30
0.0
 11
122.82
 21
77.9184
 31
0.0
  0
LINE
  8
0
 62
     0
 10
122.82
 20
77.9184
 30
0.0
 11
123.621
 21
80.9113
 31
0.0
  0
LINE
  8
0
 62
     0
 10
123.621
 20
80.9113
 30
0.0
 11
122.849
 21
81.1195
 31
0.0
  0
LINE
  8
0
 62
     0
 10
122.849
 20
81.1195
 30
0.0
 11
123.109
 21
82.0843
 31
0.0
  0
LINE
  8
0
 62
     0
 10
123.109
 20
82.0843
 30
0.0
 11
109.584
 21
85.7084
 31
0.0
  0
LINE
  8
0
 62
     0
 10
109.584
 20
85.7084
 30
0.0
 11
109.327
 21
84.7425
 31
0.0
  0
LINE
  8
0
 62
     0
 10
89.6923
 20
85.0731
 30
0.0
 11
88.9194
 21
85.2798
 31
0.0
  0
LINE
  8
0
 62
     0
 10
88.9194
 20
85.2798
 30
0.0
 11
88.1172
 21
82.2854
 31
0.0
  0
LINE
  8
0
 62
     0
 10
88.1172
 20
82.2854
 30
0.0
 11
88.8905
 21
82.0787
 31
0.0
  0
LINE
  8
0
 62
     0
 10
88.8905
 20
82.0787
 30
0.0
 11
87.3898
 21
76.4769
 31
0.0
  0
LINE
  8
0
 62
     0
 10
87.3898
 20
76.4769
 30
0.0
 11
86.6165
 21
76.6837
 31
0.0
  0
LINE
  8
0
 62
     0
 10
86.6165
 20
76.6837
 30
0.0
 11
85.8146
 21
73.6893
 31
0.0
  0
LINE
  8
0
 62
     0
 10
85.8146
 20
73.6893
 30
0.0
 11
86.5861
 21
73.4811
 31
0.0
  0
LINE
  8
0
 62
     0
 10
86.5861
 20
73.4811
 30
0.0
 11
86.3272
 21
72.5152
 31
0.0
  0
LINE
  8
0
 62
     0
 10
86.3272
 20
72.5152
 30
0.0
 11
99.8513
 21
68.8922
 31
0.0
  0
LINE
  8
0
 62
     0
 10
99.8513
 20
68.8922
 30
0.0
 11
100.11
 21
69.8581
 31
0.0
  0
LINE
  8
0
 62
     0
 10
100.11
 20
69.8581
 30
0.0
 11
100.884
 21
69.6517
 31
0.0
  0
LINE
  8
0
 62
     0
 10
100.884
 20
69.6517
 30
0.0
 11
101.685
 21
72.6461
 31
0.0
  0
LINE
  8
0
 62
     0
 10
101.685
 20
72.6461
 30
0.0
 11
100.912
 21
72.8528
 31
0.0
  0
LINE
  8
0
 62
     0
 10
100.912
 20
72.8528
 30
0.0
 11
102.415
 21
78.4546
 31
0.0
  0
LINE
  8
0
 62
     0
 10
102.415
 20
78.4546
 30
0.0
 11
103.186
 21
78.2479
 31
0.0
  0
LINE
  8
0
 62
     0
 10
103.186
 20
78.2479
 30
0.0
 11
103.988
 21
81.2423
 31
0.0
  0
LINE
  8
0
 62
     0
 10
103.988
 20
81.2423
 30
0.0
 11
103.216
 21
81.4504
 31
0.0
  0
LINE
  8
0
 62
     0
 10
103.216
 20
81.4504
 30
0.0
 11
103.474
 21
82.4163
 31
0.0
  0
LINE
  8
0
 62
     0
 10
103.474
 20
82.4163
 30
0.0
 11
89.9513
 21
86.0393
 31
0.0
  0
LINE
  8
0
 62
     0
 10
89.9513
 20
86.0393
 30
0.0
 11
89.6923
 21
85.0731
 31
0.0
  0
LINE
  8
0
 62
     0
 10
246.747
 20
82.5281
 30
0.0
 11
247.007
 21
81.5619
 31
0.0
  0
LINE
  8
0
 62
     0
 10
247.007
 20
81.5619
 30
0.0
 11
246.233
 21
81.3551
 31
0.0
  0
LINE
  8
0
 62
     0
 10
246.233
 20
81.3551
 30
0.0
 11
247.035
 21
78.3608
 31
0.0
  0
LINE
  8
0
 62
     0
 10
247.035
 20
78.3608
 30
0.0
 11
247.808
 21
78.5675
 31
0.0
  0
LINE
  8
0
 62
     0
 10
247.808
 20
78.5675
 30
0.0
 11
249.309
 21
72.9643
 31
0.0
  0
LINE
  8
0
 62
     0
 10
249.309
 20
72.9643
 30
0.0
 11
248.536
 21
72.7576
 31
0.0
  0
LINE
  8
0
 62
     0
 10
248.536
 20
72.7576
 30
0.0
 11
249.339
 21
69.7632
 31
0.0
  0
LINE
  8
0
 62
     0
 10
249.339
 20
69.7632
 30
0.0
 11
250.111
 21
69.9714
 31
0.0
  0
LINE
  8
0
 62
     0
 10
250.111
 20
69.9714
 30
0.0
 11
250.37
 21
69.0051
 31
0.0
  0
LINE
  8
0
 62
     0
 10
250.37
 20
69.0051
 30
0.0
 11
263.894
 21
72.6281
 31
0.0
  0
LINE
  8
0
 62
     0
 10
263.894
 20
72.6281
 30
0.0
 11
263.635
 21
73.594
 31
0.0
  0
LINE
  8
0
 62
     0
 10
263.635
 20
73.594
 30
0.0
 11
264.408
 21
73.8008
 31
0.0
  0
LINE
  8
0
 62
     0
 10
264.408
 20
73.8008
 30
0.0
 11
263.606
 21
76.7955
 31
0.0
  0
LINE
  8
0
 62
     0
 10
263.606
 20
76.7955
 30
0.0
 11
262.833
 21
76.5888
 31
0.0
  0
LINE
  8
0
 62
     0
 10
262.833
 20
76.5888
 30
0.0
 11
261.331
 21
82.1902
 31
0.0
  0
LINE
  8
0
 62
     0
 10
261.331
 20
82.1902
 30
0.0
 11
262.104
 21
82.3983
 31
0.0
  0
LINE
  8
0
 62
     0
 10
262.104
 20
82.3983
 30
0.0
 11
261.302
 21
85.393
 31
0.0
  0
LINE
  8
0
 62
     0
 10
261.302
 20
85.393
 30
0.0
 11
260.529
 21
85.1849
 31
0.0
  0
LINE
  8
0
 62
     0
 10
260.529
 20
85.1849
 30
0.0
 11
260.27
 21
86.1508
 31
0.0
  0
LINE
  8
0
 62
     0
 10
260.27
 20
86.1508
 30
0.0
 11
246.747
 21
82.5281
 31
0.0
  0
LINE
  8
0
 62
     0
 10
70.0595
 20
85.404
 30
0.0
 11
69.2863
 21
85.6107
 31
0.0
  0
LINE
  8
0
 62
     0
 10
69.2863
 20
85.6107
 30
0.0
 11
68.4844
 21
82.6163
 31
0.0
  0
LINE
  8
0
 62
     0
 10
68.4844
 20
82.6163
 30
0.0
 11
69.2559
 21
82.4096
 31
0.0
  0
LINE
  8
0
 62
     0
 10
69.2559
 20
82.4096
 30
0.0
 11
67.7556
 21
76.8064
 31
0.0
  0
LINE
  8
0
 62
     0
 10
67.7556
 20
76.8064
 30
0.0
 11
66.9823
 21
77.0146
 31
0.0
  0
LINE
  8
0
 62
     0
 10
66.9823
 20
77.0146
 30
0.0
 11
66.1804
 21
74.0198
 31
0.0
  0
LINE
  8
0
 62
     0
 10
66.1804
 20
74.0198
 30
0.0
 11
66.9533
 21
73.8117
 31
0.0
  0
LINE
  8
0
 62
     0
 10
66.9533
 20
73.8117
 30
0.0
 11
66.6944
 21
72.8472
 31
0.0
  0
LINE
  8
0
 62
     0
 10
66.6944
 20
72.8472
 30
0.0
 11
80.2185
 21
69.2231
 31
0.0
  0
LINE
  8
0
 62
     0
 10
80.2185
 20
69.2231
 30
0.0
 11
80.4774
 21
70.189
 31
0.0
  0
LINE
  8
0
 62
     0
 10
80.4774
 20
70.189
 30
0.0
 11
81.2493
 21
69.9823
 31
0.0
  0
LINE
  8
0
 62
     0
 10
81.2493
 20
69.9823
 30
0.0
 11
82.0512
 21
72.9753
 31
0.0
  0
LINE
  8
0
 62
     0
 10
82.0512
 20
72.9753
 30
0.0
 11
81.2782
 21
73.1834
 31
0.0
  0
LINE
  8
0
 62
     0
 10
81.2782
 20
73.1834
 30
0.0
 11
82.78
 21
78.7852
 31
0.0
  0
LINE
  8
0
 62
     0
 10
82.78
 20
78.7852
 30
0.0
 11
83.5533
 21
78.5784
 31
0.0
  0
LINE
  8
0
 62
     0
 10
83.5533
 20
78.5784
 30
0.0
 11
84.3552
 21
81.5728
 31
0.0
  0
LINE
  8
0
 62
     0
 10
84.3552
 20
81.5728
 30
0.0
 11
83.5822
 21
81.7795
 31
0.0
  0
LINE
  8
0
 62
     0
 10
83.5822
 20
81.7795
 30
0.0
 11
83.8412
 21
82.7458
 31
0.0
  0
LINE
  8
0
 62
     0
 10
83.8412
 20
82.7458
 30
0.0
 11
70.3171
 21
86.3685
 31
0.0
  0
LINE
  8
0
 62
     0
 10
70.3171
 20
86.3685
 30
0.0
 11
70.0595
 21
85.404
 31
0.0
  0
LINE
  8
0
 62
     0
 10
266.38
 20
82.8573
 30
0.0
 11
266.639
 21
81.8914
 31
0.0
  0
LINE
  8
0
 62
     0
 10
266.639
 20
81.8914
 30
0.0
 11
265.866
 21
81.6846
 31
0.0
  0
LINE
  8
0
 62
     0
 10
265.866
 20
81.6846
 30
0.0
 11
266.67
 21
78.6903
 31
0.0
  0
LINE
  8
0
 62
     0
 10
266.67
 20
78.6903
 30
0.0
 11
267.442
 21
78.898
 31
0.0
  0
LINE
  8
0
 62
     0
 10
267.442
 20
78.898
 30
0.0
 11
268.943
 21
73.2966
 31
0.0
  0
LINE
  8
0
 62
     0
 10
268.943
 20
73.2966
 30
0.0
 11
268.17
 21
73.0885
 31
0.0
  0
LINE
  8
0
 62
     0
 10
268.17
 20
73.0885
 30
0.0
 11
268.972
 21
70.0938
 31
0.0
  0
LINE
  8
0
 62
     0
 10
268.972
 20
70.0938
 30
0.0
 11
269.746
 21
70.3005
 31
0.0
  0
LINE
  8
0
 62
     0
 10
269.746
 20
70.3005
 30
0.0
 11
270.004
 21
69.3346
 31
0.0
  0
LINE
  8
0
 62
     0
 10
270.004
 20
69.3346
 30
0.0
 11
283.527
 21
72.959
 31
0.0
  0
LINE
  8
0
 62
     0
 10
283.527
 20
72.959
 30
0.0
 11
283.268
 21
73.9249
 31
0.0
  0
LINE
  8
0
 62
     0
 10
283.268
 20
73.9249
 30
0.0
 11
284.041
 21
74.1317
 31
0.0
  0
LINE
  8
0
 62
     0
 10
284.041
 20
74.1317
 30
0.0
 11
283.239
 21
77.126
 31
0.0
  0
LINE
  8
0
 62
     0
 10
283.239
 20
77.126
 30
0.0
 11
282.466
 21
76.9193
 31
0.0
  0
LINE
  8
0
 62
     0
 10
282.466
 20
76.9193
 30
0.0
 11
280.964
 21
82.5211
 31
0.0
  0
LINE
  8
0
 62
     0
 10
280.964
 20
82.5211
 30
0.0
 11
281.737
 21
82.7278
 31
0.0
  0
LINE
  8
0
 62
     0
 10
281.737
 20
82.7278
 30
0.0
 11
280.935
 21
85.7222
 31
0.0
  0
LINE
  8
0
 62
     0
 10
280.935
 20
85.7222
 30
0.0
 11
280.163
 21
85.5155
 31
0.0
  0
LINE
  8
0
 62
     0
 10
280.163
 20
85.5155
 30
0.0
 11
279.904
 21
86.4817
 31
0.0
  0
LINE
  8
0
 62
     0
 10
279.904
 20
86.4817
 30
0.0
 11
266.38
 21
82.8573
 31
0.0
  0
LINE
  8
0
 62
     0
 10
286.015
 20
83.1896
 30
0.0
 11
286.274
 21
82.2233
 31
0.0
  0
LINE
  8
0
 62
     0
 10
286.274
 20
82.2233
 30
0.0
 11
285.501
 21
82.0152
 31
0.0
  0
LINE
  8
0
 62
     0
 10
285.501
 20
82.0152
 30
0.0
 11
286.302
 21
79.0208
 31
0.0
  0
LINE
  8
0
 62
     0
 10
286.302
 20
79.0208
 30
0.0
 11
287.076
 21
79.2275
 31
0.0
  0
LINE
  8
0
 62
     0
 10
287.076
 20
79.2275
 30
0.0
 11
288.576
 21
73.6258
 31
0.0
  0
LINE
  8
0
 62
     0
 10
288.576
 20
73.6258
 30
0.0
 11
287.803
 21
73.4191
 31
0.0
  0
LINE
  8
0
 62
     0
 10
287.803
 20
73.4191
 30
0.0
 11
288.607
 21
70.4233
 31
0.0
  0
LINE
  8
0
 62
     0
 10
288.607
 20
70.4233
 30
0.0
 11
289.378
 21
70.6314
 31
0.0
  0
LINE
  8
0
 62
     0
 10
289.378
 20
70.6314
 30
0.0
 11
289.638
 21
69.6655
 31
0.0
  0
LINE
  8
0
 62
     0
 10
289.638
 20
69.6655
 30
0.0
 11
303.16
 21
73.2882
 31
0.0
  0
LINE
  8
0
 62
     0
 10
303.16
 20
73.2882
 30
0.0
 11
302.901
 21
74.2541
 31
0.0
  0
LINE
  8
0
 62
     0
 10
302.901
 20
74.2541
 30
0.0
 11
303.674
 21
74.4622
 31
0.0
  0
LINE
  8
0
 62
     0
 10
303.674
 20
74.4622
 30
0.0
 11
302.872
 21
77.4555
 31
0.0
  0
LINE
  8
0
 62
     0
 10
302.872
 20
77.4555
 30
0.0
 11
302.101
 21
77.2488
 31
0.0
  0
LINE
  8
0
 62
     0
 10
302.101
 20
77.2488
 30
0.0
 11
300.598
 21
82.8516
 31
0.0
  0
LINE
  8
0
 62
     0
 10
300.598
 20
82.8516
 30
0.0
 11
301.371
 21
83.0584
 31
0.0
  0
LINE
  8
0
 62
     0
 10
301.371
 20
83.0584
 30
0.0
 11
300.569
 21
86.0531
 31
0.0
  0
LINE
  8
0
 62
     0
 10
300.569
 20
86.0531
 30
0.0
 11
299.796
 21
85.8464
 31
0.0
  0
LINE
  8
0
 62
     0
 10
299.796
 20
85.8464
 30
0.0
 11
299.537
 21
86.8123
 31
0.0
  0
LINE
  8
0
 62
     0
 10
299.537
 20
86.8123
 30
0.0
 11
286.015
 21
83.1896
 31
0.0
  0
LINE
  8
0
 62
     0
 10
332.721
 20
95.1343
 30
0.0
 11
332.959
 21
94.2453
 31
0.0
  0
LINE
  8
0
 62
     0
 10
332.959
 20
94.2453
 30
0.0
 11
331.293
 21
93.799
 31
0.0
  0
LINE
  8
0
 62
     0
 10
331.293
 20
93.799
 30
0.0
 11
332.129
 21
90.6791
 31
0.0
  0
LINE
  8
0
 62
     0
 10
332.129
 20
90.6791
 30
0.0
 11
330.655
 21
90.2836
 31
0.0
  0
LINE
  8
0
 62
     0
 10
330.655
 20
90.2836
 30
0.0
 11
330.501
 21
90.8636
 31
0.0
  0
LINE
  8
0
 62
     0
 10
330.501
 20
90.8636
 30
0.0
 11
331.272
 21
91.0703
 31
0.0
  0
LINE
  8
0
 62
     0
 10
331.272
 20
91.0703
 30
0.0
 11
330.47
 21
94.065
 31
0.0
  0
LINE
  8
0
 62
     0
 10
330.47
 20
94.065
 30
0.0
 11
329.698
 21
93.8583
 31
0.0
  0
LINE
  8
0
 62
     0
 10
329.698
 20
93.8583
 30
0.0
 11
329.439
 21
94.8242
 31
0.0
  0
LINE
  8
0
 62
     0
 10
329.439
 20
94.8242
 30
0.0
 11
315.915
 21
91.2012
 31
0.0
  0
LINE
  8
0
 62
     0
 10
315.915
 20
91.2012
 30
0.0
 11
316.174
 21
90.2353
 31
0.0
  0
LINE
  8
0
 62
     0
 10
316.174
 20
90.2353
 30
0.0
 11
315.401
 21
90.0271
 31
0.0
  0
LINE
  8
0
 62
     0
 10
315.401
 20
90.0271
 30
0.0
 11
316.205
 21
87.0327
 31
0.0
  0
LINE
  8
0
 62
     0
 10
316.205
 20
87.0327
 30
0.0
 11
316.976
 21
87.2395
 31
0.0
  0
LINE
  8
0
 62
     0
 10
316.976
 20
87.2395
 30
0.0
 11
317.132
 21
86.6606
 31
0.0
  0
LINE
  8
0
 62
     0
 10
317.132
 20
86.6606
 30
0.0
 11
315.66
 21
86.2651
 31
0.0
  0
LINE
  8
0
 62
     0
 10
315.66
 20
86.2651
 30
0.0
 11
314.824
 21
89.3865
 31
0.0
  0
LINE
  8
0
 62
     0
 10
314.824
 20
89.3865
 30
0.0
 11
313.157
 21
88.9399
 31
0.0
  0
LINE
  8
0
 62
     0
 10
313.157
 20
88.9399
 30
0.0
 11
312.92
 21
89.8275
 31
0.0
  0
LINE
  8
0
 62
     0
 10
312.92
 20
89.8275
 30
0.0
 11
309.732
 21
88.9744
 31
0.0
  0
LINE
  8
0
 62
     0
 10
309.732
 20
88.9744
 30
0.0
 11
309.97
 21
88.0844
 31
0.0
  0
LINE
  8
0
 62
     0
 10
309.97
 20
88.0844
 30
0.0
 11
308.305
 21
87.6392
 31
0.0
  0
LINE
  8
0
 62
     0
 10
308.305
 20
87.6392
 30
0.0
 11
309.14
 21
84.5192
 31
0.0
  0
LINE
  8
0
 62
     0
 10
309.14
 20
84.5192
 30
0.0
 11
308.343
 21
84.3044
 31
0.0
  0
LINE
  8
0
 62
     0
 10
308.343
 20
84.3044
 30
0.0
 11
309.066
 21
81.6007
 31
0.0
  0
LINE
  8
0
 62
     0
 10
309.066
 20
81.6007
 30
0.0
 11
309.864
 21
81.8141
 31
0.0
  0
LINE
  8
0
 62
     0
 10
309.864
 20
81.8141
 30
0.0
 11
311.486
 21
75.7576
 31
0.0
  0
LINE
  8
0
 62
     0
 10
311.486
 20
75.7576
 30
0.0
 11
313.152
 21
76.2042
 31
0.0
  0
LINE
  8
0
 62
     0
 10
313.152
 20
76.2042
 30
0.0
 11
313.407
 21
75.2574
 31
0.0
  0
LINE
  8
0
 62
     0
 10
313.407
 20
75.2574
 30
0.0
 11
316.595
 21
76.1118
 31
0.0
  0
LINE
  8
0
 62
     0
 10
316.595
 20
76.1118
 30
0.0
 11
316.341
 21
77.0587
 31
0.0
  0
LINE
  8
0
 62
     0
 10
316.341
 20
77.0587
 30
0.0
 11
318.007
 21
77.5049
 31
0.0
  0
LINE
  8
0
 62
     0
 10
318.007
 20
77.5049
 30
0.0
 11
316.849
 21
81.8226
 31
0.0
  0
LINE
  8
0
 62
     0
 10
316.849
 20
81.8226
 30
0.0
 11
318.324
 21
82.218
 31
0.0
  0
LINE
  8
0
 62
     0
 10
318.324
 20
82.218
 30
0.0
 11
318.478
 21
81.6377
 31
0.0
  0
LINE
  8
0
 62
     0
 10
318.478
 20
81.6377
 30
0.0
 11
317.705
 21
81.431
 31
0.0
  0
LINE
  8
0
 62
     0
 10
317.705
 20
81.431
 30
0.0
 11
318.507
 21
78.4352
 31
0.0
  0
LINE
  8
0
 62
     0
 10
318.507
 20
78.4352
 30
0.0
 11
319.28
 21
78.6433
 31
0.0
  0
LINE
  8
0
 62
     0
 10
319.28
 20
78.6433
 30
0.0
 11
319.539
 21
77.6774
 31
0.0
  0
LINE
  8
0
 62
     0
 10
319.539
 20
77.6774
 30
0.0
 11
333.062
 21
81.3001
 31
0.0
  0
LINE
  8
0
 62
     0
 10
333.062
 20
81.3001
 30
0.0
 11
332.803
 21
82.266
 31
0.0
  0
LINE
  8
0
 62
     0
 10
332.803
 20
82.266
 30
0.0
 11
333.576
 21
82.4742
 31
0.0
  0
LINE
  8
0
 62
     0
 10
333.576
 20
82.4742
 30
0.0
 11
332.774
 21
85.4675
 31
0.0
  0
LINE
  8
0
 62
     0
 10
332.774
 20
85.4675
 30
0.0
 11
332.001
 21
85.2607
 31
0.0
  0
LINE
  8
0
 62
     0
 10
332.001
 20
85.2607
 30
0.0
 11
331.845
 21
85.8407
 31
0.0
  0
LINE
  8
0
 62
     0
 10
331.845
 20
85.8407
 30
0.0
 11
333.319
 21
86.2362
 31
0.0
  0
LINE
  8
0
 62
     0
 10
333.319
 20
86.2362
 30
0.0
 11
334.476
 21
81.9175
 31
0.0
  0
LINE
  8
0
 62
     0
 10
334.476
 20
81.9175
 30
0.0
 11
336.142
 21
82.3641
 31
0.0
  0
LINE
  8
0
 62
     0
 10
336.142
 20
82.3641
 30
0.0
 11
336.396
 21
81.4172
 31
0.0
  0
LINE
  8
0
 62
     0
 10
336.396
 20
81.4172
 30
0.0
 11
339.583
 21
82.2717
 31
0.0
  0
LINE
  8
0
 62
     0
 10
339.583
 20
82.2717
 30
0.0
 11
339.33
 21
83.2185
 31
0.0
  0
LINE
  8
0
 62
     0
 10
339.33
 20
83.2185
 30
0.0
 11
340.996
 21
83.6648
 31
0.0
  0
LINE
  8
0
 62
     0
 10
340.996
 20
83.6648
 30
0.0
 11
339.372
 21
89.7213
 31
0.0
  0
LINE
  8
0
 62
     0
 10
339.372
 20
89.7213
 30
0.0
 11
340.17
 21
89.9351
 31
0.0
  0
LINE
  8
0
 62
     0
 10
340.17
 20
89.9351
 30
0.0
 11
339.445
 21
92.6387
 31
0.0
  0
LINE
  8
0
 62
     0
 10
339.445
 20
92.6387
 30
0.0
 11
338.649
 21
92.4264
 31
0.0
  0
LINE
  8
0
 62
     0
 10
338.649
 20
92.4264
 30
0.0
 11
337.812
 21
95.5463
 31
0.0
  0
LINE
  8
0
 62
     0
 10
337.812
 20
95.5463
 30
0.0
 11
336.146
 21
95.0983
 31
0.0
  0
LINE
  8
0
 62
     0
 10
336.146
 20
95.0983
 30
0.0
 11
335.908
 21
95.9873
 31
0.0
  0
LINE
  8
0
 62
     0
 10
335.908
 20
95.9873
 30
0.0
 11
332.721
 21
95.1343
 31
0.0
  0
LINE
  8
0
 62
     0
 10
34.0306
 20
95.855
 30
0.0
 11
32.3632
 21
96.3013
 31
0.0
  0
LINE
  8
0
 62
     0
 10
32.3632
 20
96.3013
 30
0.0
 11
30.7413
 21
90.2451
 31
0.0
  0
LINE
  8
0
 62
     0
 10
30.7413
 20
90.2451
 30
0.0
 11
29.9448
 21
90.4572
 31
0.0
  0
LINE
  8
0
 62
     0
 10
29.9448
 20
90.4572
 30
0.0
 11
29.2199
 21
87.7535
 31
0.0
  0
LINE
  8
0
 62
     0
 10
29.2199
 20
87.7535
 30
0.0
 11
30.0164
 21
87.54
 31
0.0
  0
LINE
  8
0
 62
     0
 10
30.0164
 20
87.54
 30
0.0
 11
29.1814
 21
84.4201
 31
0.0
  0
LINE
  8
0
 62
     0
 10
29.1814
 20
84.4201
 30
0.0
 11
30.8474
 21
83.9735
 31
0.0
  0
LINE
  8
0
 62
     0
 10
30.8474
 20
83.9735
 30
0.0
 11
30.609
 21
83.0848
 31
0.0
  0
LINE
  8
0
 62
     0
 10
30.609
 20
83.0848
 30
0.0
 11
33.7964
 21
82.2304
 31
0.0
  0
LINE
  8
0
 62
     0
 10
33.7964
 20
82.2304
 30
0.0
 11
34.0348
 21
83.119
 31
0.0
  0
LINE
  8
0
 62
     0
 10
34.0348
 20
83.119
 30
0.0
 11
35.7008
 21
82.6728
 31
0.0
  0
LINE
  8
0
 62
     0
 10
35.7008
 20
82.6728
 30
0.0
 11
36.5372
 21
85.7924
 31
0.0
  0
LINE
  8
0
 62
     0
 10
36.5372
 20
85.7924
 30
0.0
 11
38.0104
 21
85.3983
 31
0.0
  0
LINE
  8
0
 62
     0
 10
38.0104
 20
85.3983
 30
0.0
 11
37.8548
 21
84.8184
 31
0.0
  0
LINE
  8
0
 62
     0
 10
37.8548
 20
84.8184
 30
0.0
 11
37.0815
 21
85.0265
 31
0.0
  0
LINE
  8
0
 62
     0
 10
37.0815
 20
85.0265
 30
0.0
 11
36.2797
 21
82.0318
 31
0.0
  0
LINE
  8
0
 62
     0
 10
36.2797
 20
82.0318
 30
0.0
 11
37.0512
 21
81.825
 31
0.0
  0
LINE
  8
0
 62
     0
 10
37.0512
 20
81.825
 30
0.0
 11
36.7937
 21
80.8591
 31
0.0
  0
LINE
  8
0
 62
     0
 10
36.7937
 20
80.8591
 30
0.0
 11
50.3163
 21
77.2351
 31
0.0
  0
LINE
  8
0
 62
     0
 10
50.3163
 20
77.2351
 30
0.0
 11
50.5753
 21
78.201
 31
0.0
  0
LINE
  8
0
 62
     0
 10
50.5753
 20
78.201
 30
0.0
 11
51.3472
 21
77.9942
 31
0.0
  0
LINE
  8
0
 62
     0
 10
51.3472
 20
77.9942
 30
0.0
 11
52.149
 21
80.9872
 31
0.0
  0
LINE
  8
0
 62
     0
 10
52.149
 20
80.9872
 30
0.0
 11
51.3775
 21
81.1953
 31
0.0
  0
LINE
  8
0
 62
     0
 10
51.3775
 20
81.1953
 30
0.0
 11
51.5331
 21
81.7742
 31
0.0
  0
LINE
  8
0
 62
     0
 10
51.5331
 20
81.7742
 30
0.0
 11
53.0063
 21
81.3802
 31
0.0
  0
LINE
  8
0
 62
     0
 10
53.0063
 20
81.3802
 30
0.0
 11
52.1698
 21
78.2602
 31
0.0
  0
LINE
  8
0
 62
     0
 10
52.1698
 20
78.2602
 30
0.0
 11
53.8357
 21
77.8136
 31
0.0
  0
LINE
  8
0
 62
     0
 10
53.8357
 20
77.8136
 30
0.0
 11
53.5975
 21
76.925
 31
0.0
  0
LINE
  8
0
 62
     0
 10
53.5975
 20
76.925
 30
0.0
 11
56.7863
 21
76.0705
 31
0.0
  0
LINE
  8
0
 62
     0
 10
56.7863
 20
76.0705
 30
0.0
 11
57.0234
 21
76.9592
 31
0.0
  0
LINE
  8
0
 62
     0
 10
57.0234
 20
76.9592
 30
0.0
 11
58.6892
 21
76.5129
 31
0.0
  0
LINE
  8
0
 62
     0
 10
58.6892
 20
76.5129
 30
0.0
 11
59.5256
 21
79.6325
 31
0.0
  0
LINE
  8
0
 62
     0
 10
59.5256
 20
79.6325
 30
0.0
 11
60.3222
 21
79.4205
 31
0.0
  0
LINE
  8
0
 62
     0
 10
60.3222
 20
79.4205
 30
0.0
 11
61.0471
 21
82.1242
 31
0.0
  0
LINE
  8
0
 62
     0
 10
61.0471
 20
82.1242
 30
0.0
 11
60.2506
 21
82.3376
 31
0.0
  0
LINE
  8
0
 62
     0
 10
60.2506
 20
82.3376
 30
0.0
 11
61.8726
 21
88.3941
 31
0.0
  0
LINE
  8
0
 62
     0
 10
61.8726
 20
88.3941
 30
0.0
 11
60.2065
 21
88.8407
 31
0.0
  0
LINE
  8
0
 62
     0
 10
60.2065
 20
88.8407
 30
0.0
 11
60.4615
 21
89.7876
 31
0.0
  0
LINE
  8
0
 62
     0
 10
60.4615
 20
89.7876
 30
0.0
 11
57.2728
 21
90.6406
 31
0.0
  0
LINE
  8
0
 62
     0
 10
57.2728
 20
90.6406
 30
0.0
 11
57.0191
 21
89.6952
 31
0.0
  0
LINE
  8
0
 62
     0
 10
57.0191
 20
89.6952
 30
0.0
 11
55.353
 21
90.1404
 31
0.0
  0
LINE
  8
0
 62
     0
 10
55.353
 20
90.1404
 30
0.0
 11
54.1969
 21
85.8241
 31
0.0
  0
LINE
  8
0
 62
     0
 10
54.1969
 20
85.8241
 30
0.0
 11
52.7237
 21
86.2182
 31
0.0
  0
LINE
  8
0
 62
     0
 10
52.7237
 20
86.2182
 30
0.0
 11
52.8782
 21
86.7971
 31
0.0
  0
LINE
  8
0
 62
     0
 10
52.8782
 20
86.7971
 30
0.0
 11
53.6512
 21
86.5904
 31
0.0
  0
LINE
  8
0
 62
     0
 10
53.6512
 20
86.5904
 30
0.0
 11
54.453
 21
89.5847
 31
0.0
  0
LINE
  8
0
 62
     0
 10
54.453
 20
89.5847
 30
0.0
 11
53.6801
 21
89.7915
 31
0.0
  0
LINE
  8
0
 62
     0
 10
53.6801
 20
89.7915
 30
0.0
 11
53.939
 21
90.7577
 31
0.0
  0
LINE
  8
0
 62
     0
 10
53.939
 20
90.7577
 30
0.0
 11
40.4163
 21
94.3818
 31
0.0
  0
LINE
  8
0
 62
     0
 10
40.4163
 20
94.3818
 30
0.0
 11
40.1574
 21
93.4159
 31
0.0
  0
LINE
  8
0
 62
     0
 10
40.1574
 20
93.4159
 30
0.0
 11
39.3845
 21
93.6226
 31
0.0
  0
LINE
  8
0
 62
     0
 10
39.3845
 20
93.6226
 30
0.0
 11
38.5822
 21
90.6279
 31
0.0
  0
LINE
  8
0
 62
     0
 10
38.5822
 20
90.6279
 30
0.0
 11
39.3555
 21
90.4215
 31
0.0
  0
LINE
  8
0
 62
     0
 10
39.3555
 20
90.4215
 30
0.0
 11
39.201
 21
89.8412
 31
0.0
  0
LINE
  8
0
 62
     0
 10
39.201
 20
89.8412
 30
0.0
 11
37.7264
 21
90.2353
 31
0.0
  0
LINE
  8
0
 62
     0
 10
37.7264
 20
90.2353
 30
0.0
 11
38.8842
 21
94.554
 31
0.0
  0
LINE
  8
0
 62
     0
 10
38.8842
 20
94.554
 30
0.0
 11
37.2181
 21
95.0006
 31
0.0
  0
LINE
  8
0
 62
     0
 10
37.2181
 20
95.0006
 30
0.0
 11
37.4717
 21
95.9474
 31
0.0
  0
LINE
  8
0
 62
     0
 10
37.4717
 20
95.9474
 30
0.0
 11
34.2842
 21
96.8005
 31
0.0
  0
LINE
  8
0
 62
     0
 10
34.2842
 20
96.8005
 30
0.0
 11
34.0306
 21
95.855
 31
0.0
  0
LINE
  8
0
 62
     0
 10
131.425
 20
93.6128
 30
0.0
 11
130.653
 21
93.8195
 31
0.0
  0
LINE
  8
0
 62
     0
 10
130.653
 20
93.8195
 30
0.0
 11
129.85
 21
90.8251
 31
0.0
  0
LINE
  8
0
 62
     0
 10
129.85
 20
90.8251
 30
0.0
 11
130.623
 21
90.6184
 31
0.0
  0
LINE
  8
0
 62
     0
 10
130.623
 20
90.6184
 30
0.0
 11
129.122
 21
85.0152
 31
0.0
  0
LINE
  8
0
 62
     0
 10
129.122
 20
85.0152
 30
0.0
 11
128.349
 21
85.2234
 31
0.0
  0
LINE
  8
0
 62
     0
 10
128.349
 20
85.2234
 30
0.0
 11
127.547
 21
82.229
 31
0.0
  0
LINE
  8
0
 62
     0
 10
127.547
 20
82.229
 30
0.0
 11
128.32
 21
82.0222
 31
0.0
  0
LINE
  8
0
 62
     0
 10
128.32
 20
82.0222
 30
0.0
 11
128.061
 21
81.0563
 31
0.0
  0
LINE
  8
0
 62
     0
 10
128.061
 20
81.0563
 30
0.0
 11
141.584
 21
77.4333
 31
0.0
  0
LINE
  8
0
 62
     0
 10
141.584
 20
77.4333
 30
0.0
 11
141.843
 21
78.3992
 31
0.0
  0
LINE
  8
0
 62
     0
 10
141.843
 20
78.3992
 30
0.0
 11
142.615
 21
78.1914
 31
0.0
  0
LINE
  8
0
 62
     0
 10
142.615
 20
78.1914
 30
0.0
 11
143.418
 21
81.1858
 31
0.0
  0
LINE
  8
0
 62
     0
 10
143.418
 20
81.1858
 30
0.0
 11
142.645
 21
81.3925
 31
0.0
  0
LINE
  8
0
 62
     0
 10
142.645
 20
81.3925
 30
0.0
 11
144.146
 21
86.9943
 31
0.0
  0
LINE
  8
0
 62
     0
 10
144.146
 20
86.9943
 30
0.0
 11
144.919
 21
86.7876
 31
0.0
  0
LINE
  8
0
 62
     0
 10
144.919
 20
86.7876
 30
0.0
 11
145.721
 21
89.7834
 31
0.0
  0
LINE
  8
0
 62
     0
 10
145.721
 20
89.7834
 30
0.0
 11
144.948
 21
89.9901
 31
0.0
  0
LINE
  8
0
 62
     0
 10
144.948
 20
89.9901
 30
0.0
 11
145.207
 21
90.956
 31
0.0
  0
LINE
  8
0
 62
     0
 10
145.207
 20
90.956
 30
0.0
 11
131.684
 21
94.579
 31
0.0
  0
LINE
  8
0
 62
     0
 10
131.684
 20
94.579
 30
0.0
 11
131.425
 21
93.6128
 31
0.0
  0
LINE
  8
0
 62
     0
 10
224.649
 20
91.3984
 30
0.0
 11
224.908
 21
90.4325
 31
0.0
  0
LINE
  8
0
 62
     0
 10
224.908
 20
90.4325
 30
0.0
 11
224.135
 21
90.2243
 31
0.0
  0
LINE
  8
0
 62
     0
 10
224.135
 20
90.2243
 30
0.0
 11
224.937
 21
87.2314
 31
0.0
  0
LINE
  8
0
 62
     0
 10
224.937
 20
87.2314
 30
0.0
 11
225.71
 21
87.4377
 31
0.0
  0
LINE
  8
0
 62
     0
 10
225.71
 20
87.4377
 30
0.0
 11
227.211
 21
81.8349
 31
0.0
  0
LINE
  8
0
 62
     0
 10
227.211
 20
81.8349
 30
0.0
 11
226.439
 21
81.6282
 31
0.0
  0
LINE
  8
0
 62
     0
 10
226.439
 20
81.6282
 30
0.0
 11
227.241
 21
78.6335
 31
0.0
  0
LINE
  8
0
 62
     0
 10
227.241
 20
78.6335
 30
0.0
 11
228.014
 21
78.8402
 31
0.0
  0
LINE
  8
0
 62
     0
 10
228.014
 20
78.8402
 30
0.0
 11
228.272
 21
77.8743
 31
0.0
  0
LINE
  8
0
 62
     0
 10
228.272
 20
77.8743
 30
0.0
 11
241.795
 21
81.4987
 31
0.0
  0
LINE
  8
0
 62
     0
 10
241.795
 20
81.4987
 30
0.0
 11
241.537
 21
82.4646
 31
0.0
  0
LINE
  8
0
 62
     0
 10
241.537
 20
82.4646
 30
0.0
 11
242.309
 21
82.6714
 31
0.0
  0
LINE
  8
0
 62
     0
 10
242.309
 20
82.6714
 30
0.0
 11
241.507
 21
85.6657
 31
0.0
  0
LINE
  8
0
 62
     0
 10
241.507
 20
85.6657
 30
0.0
 11
240.734
 21
85.459
 31
0.0
  0
LINE
  8
0
 62
     0
 10
240.734
 20
85.459
 30
0.0
 11
239.233
 21
91.0608
 31
0.0
  0
LINE
  8
0
 62
     0
 10
239.233
 20
91.0608
 30
0.0
 11
240.006
 21
91.2675
 31
0.0
  0
LINE
  8
0
 62
     0
 10
240.006
 20
91.2675
 30
0.0
 11
239.203
 21
94.2633
 31
0.0
  0
LINE
  8
0
 62
     0
 10
239.203
 20
94.2633
 30
0.0
 11
238.431
 21
94.0551
 31
0.0
  0
LINE
  8
0
 62
     0
 10
238.431
 20
94.0551
 30
0.0
 11
238.172
 21
95.0214
 31
0.0
  0
LINE
  8
0
 62
     0
 10
238.172
 20
95.0214
 30
0.0
 11
224.649
 21
91.3984
 31
0.0
  0
LINE
  8
0
 62
     0
 10
153.523
 20
102.483
 30
0.0
 11
152.751
 21
102.69
 31
0.0
  0
LINE
  8
0
 62
     0
 10
152.751
 20
102.69
 30
0.0
 11
151.95
 21
99.6957
 31
0.0
  0
LINE
  8
0
 62
     0
 10
151.95
 20
99.6957
 30
0.0
 11
152.721
 21
99.489
 31
0.0
  0
LINE
  8
0
 62
     0
 10
152.721
 20
99.489
 30
0.0
 11
151.22
 21
93.8872
 31
0.0
  0
LINE
  8
0
 62
     0
 10
151.22
 20
93.8872
 30
0.0
 11
150.447
 21
94.0939
 31
0.0
  0
LINE
  8
0
 62
     0
 10
150.447
 20
94.0939
 30
0.0
 11
149.645
 21
91.0992
 31
0.0
  0
LINE
  8
0
 62
     0
 10
149.645
 20
91.0992
 30
0.0
 11
150.418
 21
90.8914
 31
0.0
  0
LINE
  8
0
 62
     0
 10
150.418
 20
90.8914
 30
0.0
 11
150.159
 21
89.9252
 31
0.0
  0
LINE
  8
0
 62
     0
 10
150.159
 20
89.9252
 30
0.0
 11
163.682
 21
86.3025
 31
0.0
  0
LINE
  8
0
 62
     0
 10
163.682
 20
86.3025
 30
0.0
 11
163.941
 21
87.2684
 31
0.0
  0
LINE
  8
0
 62
     0
 10
163.941
 20
87.2684
 30
0.0
 11
164.714
 21
87.0617
 31
0.0
  0
LINE
  8
0
 62
     0
 10
164.714
 20
87.0617
 30
0.0
 11
165.516
 21
90.0561
 31
0.0
  0
LINE
  8
0
 62
     0
 10
165.516
 20
90.0561
 30
0.0
 11
164.743
 21
90.2628
 31
0.0
  0
LINE
  8
0
 62
     0
 10
164.743
 20
90.2628
 30
0.0
 11
166.245
 21
95.8645
 31
0.0
  0
LINE
  8
0
 62
     0
 10
166.245
 20
95.8645
 30
0.0
 11
167.018
 21
95.6578
 31
0.0
  0
LINE
  8
0
 62
     0
 10
167.018
 20
95.6578
 30
0.0
 11
167.82
 21
98.6525
 31
0.0
  0
LINE
  8
0
 62
     0
 10
167.82
 20
98.6525
 30
0.0
 11
167.047
 21
98.8603
 31
0.0
  0
LINE
  8
0
 62
     0
 10
167.047
 20
98.8603
 30
0.0
 11
167.306
 21
99.8266
 31
0.0
  0
LINE
  8
0
 62
     0
 10
167.306
 20
99.8266
 30
0.0
 11
153.782
 21
103.449
 31
0.0
  0
LINE
  8
0
 62
     0
 10
153.782
 20
103.449
 30
0.0
 11
153.523
 21
102.483
 31
0.0
  0
LINE
  8
0
 62
     0
 10
202.549
 20
100.268
 30
0.0
 11
202.809
 21
99.3013
 31
0.0
  0
LINE
  8
0
 62
     0
 10
202.809
 20
99.3013
 30
0.0
 11
202.035
 21
99.0946
 31
0.0
  0
LINE
  8
0
 62
     0
 10
202.035
 20
99.0946
 30
0.0
 11
202.839
 21
96.1002
 31
0.0
  0
LINE
  8
0
 62
     0
 10
202.839
 20
96.1002
 30
0.0
 11
203.611
 21
96.3083
 31
0.0
  0
LINE
  8
0
 62
     0
 10
203.611
 20
96.3083
 30
0.0
 11
205.113
 21
90.7052
 31
0.0
  0
LINE
  8
0
 62
     0
 10
205.113
 20
90.7052
 30
0.0
 11
204.339
 21
90.4984
 31
0.0
  0
LINE
  8
0
 62
     0
 10
204.339
 20
90.4984
 30
0.0
 11
205.142
 21
87.5041
 31
0.0
  0
LINE
  8
0
 62
     0
 10
205.142
 20
87.5041
 30
0.0
 11
205.915
 21
87.7108
 31
0.0
  0
LINE
  8
0
 62
     0
 10
205.915
 20
87.7108
 30
0.0
 11
206.174
 21
86.7449
 31
0.0
  0
LINE
  8
0
 62
     0
 10
206.174
 20
86.7449
 30
0.0
 11
219.697
 21
90.369
 31
0.0
  0
LINE
  8
0
 62
     0
 10
219.697
 20
90.369
 30
0.0
 11
219.437
 21
91.3349
 31
0.0
  0
LINE
  8
0
 62
     0
 10
219.437
 20
91.3349
 30
0.0
 11
220.211
 21
91.5416
 31
0.0
  0
LINE
  8
0
 62
     0
 10
220.211
 20
91.5416
 30
0.0
 11
219.407
 21
94.5363
 31
0.0
  0
LINE
  8
0
 62
     0
 10
219.407
 20
94.5363
 30
0.0
 11
218.635
 21
94.3296
 31
0.0
  0
LINE
  8
0
 62
     0
 10
218.635
 20
94.3296
 30
0.0
 11
217.133
 21
99.9314
 31
0.0
  0
LINE
  8
0
 62
     0
 10
217.133
 20
99.9314
 30
0.0
 11
217.907
 21
100.138
 31
0.0
  0
LINE
  8
0
 62
     0
 10
217.907
 20
100.138
 30
0.0
 11
217.104
 21
103.132
 31
0.0
  0
LINE
  8
0
 62
     0
 10
217.104
 20
103.132
 30
0.0
 11
216.331
 21
102.926
 31
0.0
  0
LINE
  8
0
 62
     0
 10
216.331
 20
102.926
 30
0.0
 11
216.072
 21
103.892
 31
0.0
  0
LINE
  8
0
 62
     0
 10
216.072
 20
103.892
 30
0.0
 11
202.549
 21
100.268
 31
0.0
  0
LINE
  8
0
 62
     0
 10
114.257
 20
103.143
 30
0.0
 11
113.484
 21
103.35
 31
0.0
  0
LINE
  8
0
 62
     0
 10
113.484
 20
103.35
 30
0.0
 11
112.682
 21
100.357
 31
0.0
  0
LINE
  8
0
 62
     0
 10
112.682
 20
100.357
 30
0.0
 11
113.455
 21
100.15
 31
0.0
  0
LINE
  8
0
 62
     0
 10
113.455
 20
100.15
 30
0.0
 11
111.953
 21
94.5473
 31
0.0
  0
LINE
  8
0
 62
     0
 10
111.953
 20
94.5473
 30
0.0
 11
111.18
 21
94.754
 31
0.0
  0
LINE
  8
0
 62
     0
 10
111.18
 20
94.754
 30
0.0
 11
110.378
 21
91.7593
 31
0.0
  0
LINE
  8
0
 62
     0
 10
110.378
 20
91.7593
 30
0.0
 11
111.151
 21
91.5529
 31
0.0
  0
LINE
  8
0
 62
     0
 10
111.151
 20
91.5529
 30
0.0
 11
110.892
 21
90.5866
 31
0.0
  0
LINE
  8
0
 62
     0
 10
110.892
 20
90.5866
 30
0.0
 11
124.415
 21
86.9625
 31
0.0
  0
LINE
  8
0
 62
     0
 10
124.415
 20
86.9625
 30
0.0
 11
124.674
 21
87.9285
 31
0.0
  0
LINE
  8
0
 62
     0
 10
124.674
 20
87.9285
 30
0.0
 11
125.447
 21
87.7217
 31
0.0
  0
LINE
  8
0
 62
     0
 10
125.447
 20
87.7217
 30
0.0
 11
126.249
 21
90.7161
 31
0.0
  0
LINE
  8
0
 62
     0
 10
126.249
 20
90.7161
 30
0.0
 11
125.477
 21
90.9242
 31
0.0
  0
LINE
  8
0
 62
     0
 10
125.477
 20
90.9242
 30
0.0
 11
126.978
 21
96.526
 31
0.0
  0
LINE
  8
0
 62
     0
 10
126.978
 20
96.526
 30
0.0
 11
127.75
 21
96.3193
 31
0.0
  0
LINE
  8
0
 62
     0
 10
127.75
 20
96.3193
 30
0.0
 11
128.553
 21
99.3126
 31
0.0
  0
LINE
  8
0
 62
     0
 10
128.553
 20
99.3126
 30
0.0
 11
127.78
 21
99.5193
 31
0.0
  0
LINE
  8
0
 62
     0
 10
127.78
 20
99.5193
 30
0.0
 11
128.039
 21
100.485
 31
0.0
  0
LINE
  8
0
 62
     0
 10
128.039
 20
100.485
 30
0.0
 11
114.516
 21
104.109
 31
0.0
  0
LINE
  8
0
 62
     0
 10
114.516
 20
104.109
 30
0.0
 11
114.257
 21
103.143
 31
0.0
  0
LINE
  8
0
 62
     0
 10
94.6245
 20
103.474
 30
0.0
 11
93.8512
 21
103.681
 31
0.0
  0
LINE
  8
0
 62
     0
 10
93.8512
 20
103.681
 30
0.0
 11
93.0494
 21
100.686
 31
0.0
  0
LINE
  8
0
 62
     0
 10
93.0494
 20
100.686
 30
0.0
 11
93.8209
 21
100.48
 31
0.0
  0
LINE
  8
0
 62
     0
 10
93.8209
 20
100.48
 30
0.0
 11
92.3202
 21
94.8764
 31
0.0
  0
LINE
  8
0
 62
     0
 10
92.3202
 20
94.8764
 30
0.0
 11
91.5472
 21
95.0831
 31
0.0
  0
LINE
  8
0
 62
     0
 10
91.5472
 20
95.0831
 30
0.0
 11
90.745
 21
92.0902
 31
0.0
  0
LINE
  8
0
 62
     0
 10
90.745
 20
92.0902
 30
0.0
 11
91.5183
 21
91.8834
 31
0.0
  0
LINE
  8
0
 62
     0
 10
91.5183
 20
91.8834
 30
0.0
 11
91.2594
 21
90.9175
 31
0.0
  0
LINE
  8
0
 62
     0
 10
91.2594
 20
90.9175
 30
0.0
 11
104.782
 21
87.2931
 31
0.0
  0
LINE
  8
0
 62
     0
 10
104.782
 20
87.2931
 30
0.0
 11
105.041
 21
88.2594
 31
0.0
  0
LINE
  8
0
 62
     0
 10
105.041
 20
88.2594
 30
0.0
 11
105.813
 21
88.0526
 31
0.0
  0
LINE
  8
0
 62
     0
 10
105.813
 20
88.0526
 30
0.0
 11
106.616
 21
91.047
 31
0.0
  0
LINE
  8
0
 62
     0
 10
106.616
 20
91.047
 30
0.0
 11
105.843
 21
91.2537
 31
0.0
  0
LINE
  8
0
 62
     0
 10
105.843
 20
91.2537
 30
0.0
 11
107.344
 21
96.8555
 31
0.0
  0
LINE
  8
0
 62
     0
 10
107.344
 20
96.8555
 30
0.0
 11
108.117
 21
96.6488
 31
0.0
  0
LINE
  8
0
 62
     0
 10
108.117
 20
96.6488
 30
0.0
 11
108.919
 21
99.6431
 31
0.0
  0
LINE
  8
0
 62
     0
 10
108.919
 20
99.6431
 30
0.0
 11
108.147
 21
99.8513
 31
0.0
  0
LINE
  8
0
 62
     0
 10
108.147
 20
99.8513
 30
0.0
 11
108.405
 21
100.817
 31
0.0
  0
LINE
  8
0
 62
     0
 10
108.405
 20
100.817
 30
0.0
 11
94.8821
 21
104.44
 31
0.0
  0
LINE
  8
0
 62
     0
 10
94.8821
 20
104.44
 30
0.0
 11
94.6245
 21
103.474
 31
0.0
  0
LINE
  8
0
 62
     0
 10
241.817
 20
100.929
 30
0.0
 11
242.076
 21
99.9628
 31
0.0
  0
LINE
  8
0
 62
     0
 10
242.076
 20
99.9628
 30
0.0
 11
241.303
 21
99.756
 31
0.0
  0
LINE
  8
0
 62
     0
 10
241.303
 20
99.756
 30
0.0
 11
242.106
 21
96.7602
 31
0.0
  0
LINE
  8
0
 62
     0
 10
242.106
 20
96.7602
 30
0.0
 11
242.878
 21
96.9684
 31
0.0
  0
LINE
  8
0
 62
     0
 10
242.878
 20
96.9684
 30
0.0
 11
244.38
 21
91.3652
 31
0.0
  0
LINE
  8
0
 62
     0
 10
244.38
 20
91.3652
 30
0.0
 11
243.607
 21
91.1585
 31
0.0
  0
LINE
  8
0
 62
     0
 10
243.607
 20
91.1585
 30
0.0
 11
244.409
 21
88.1641
 31
0.0
  0
LINE
  8
0
 62
     0
 10
244.409
 20
88.1641
 30
0.0
 11
245.182
 21
88.3722
 31
0.0
  0
LINE
  8
0
 62
     0
 10
245.182
 20
88.3722
 30
0.0
 11
245.441
 21
87.4063
 31
0.0
  0
LINE
  8
0
 62
     0
 10
245.441
 20
87.4063
 30
0.0
 11
258.964
 21
91.029
 31
0.0
  0
LINE
  8
0
 62
     0
 10
258.964
 20
91.029
 30
0.0
 11
258.705
 21
91.9949
 31
0.0
  0
LINE
  8
0
 62
     0
 10
258.705
 20
91.9949
 30
0.0
 11
259.478
 21
92.2017
 31
0.0
  0
LINE
  8
0
 62
     0
 10
259.478
 20
92.2017
 30
0.0
 11
258.674
 21
95.1964
 31
0.0
  0
LINE
  8
0
 62
     0
 10
258.674
 20
95.1964
 30
0.0
 11
257.903
 21
94.9896
 31
0.0
  0
LINE
  8
0
 62
     0
 10
257.903
 20
94.9896
 30
0.0
 11
256.401
 21
100.591
 31
0.0
  0
LINE
  8
0
 62
     0
 10
256.401
 20
100.591
 30
0.0
 11
257.172
 21
100.799
 31
0.0
  0
LINE
  8
0
 62
     0
 10
257.172
 20
100.799
 30
0.0
 11
256.372
 21
103.793
 31
0.0
  0
LINE
  8
0
 62
     0
 10
256.372
 20
103.793
 30
0.0
 11
255.598
 21
103.586
 31
0.0
  0
LINE
  8
0
 62
     0
 10
255.598
 20
103.586
 30
0.0
 11
255.338
 21
104.552
 31
0.0
  0
LINE
  8
0
 62
     0
 10
255.338
 20
104.552
 30
0.0
 11
241.817
 21
100.929
 31
0.0
  0
LINE
  8
0
 62
     0
 10
74.99
 20
103.803
 30
0.0
 11
74.217
 21
104.01
 31
0.0
  0
LINE
  8
0
 62
     0
 10
74.217
 20
104.01
 30
0.0
 11
73.4148
 21
101.017
 31
0.0
  0
LINE
  8
0
 62
     0
 10
73.4148
 20
101.017
 30
0.0
 11
74.1881
 21
100.81
 31
0.0
  0
LINE
  8
0
 62
     0
 10
74.1881
 20
100.81
 30
0.0
 11
72.6874
 21
95.2073
 31
0.0
  0
LINE
  8
0
 62
     0
 10
72.6874
 20
95.2073
 30
0.0
 11
71.9145
 21
95.4155
 31
0.0
  0
LINE
  8
0
 62
     0
 10
71.9145
 20
95.4155
 30
0.0
 11
71.1122
 21
92.4197
 31
0.0
  0
LINE
  8
0
 62
     0
 10
71.1122
 20
92.4197
 30
0.0
 11
71.8841
 21
92.2129
 31
0.0
  0
LINE
  8
0
 62
     0
 10
71.8841
 20
92.2129
 30
0.0
 11
71.6248
 21
91.2467
 31
0.0
  0
LINE
  8
0
 62
     0
 10
71.6248
 20
91.2467
 30
0.0
 11
85.1475
 21
87.624
 31
0.0
  0
LINE
  8
0
 62
     0
 10
85.1475
 20
87.624
 30
0.0
 11
85.4068
 21
88.5899
 31
0.0
  0
LINE
  8
0
 62
     0
 10
85.4068
 20
88.5899
 30
0.0
 11
86.1797
 21
88.3832
 31
0.0
  0
LINE
  8
0
 62
     0
 10
86.1797
 20
88.3832
 30
0.0
 11
86.9819
 21
91.3765
 31
0.0
  0
LINE
  8
0
 62
     0
 10
86.9819
 20
91.3765
 30
0.0
 11
86.2101
 21
91.5843
 31
0.0
  0
LINE
  8
0
 62
     0
 10
86.2101
 20
91.5843
 30
0.0
 11
87.7108
 21
97.186
 31
0.0
  0
LINE
  8
0
 62
     0
 10
87.7108
 20
97.186
 30
0.0
 11
88.4823
 21
96.9793
 31
0.0
  0
LINE
  8
0
 62
     0
 10
88.4823
 20
96.9793
 30
0.0
 11
89.2859
 21
99.974
 31
0.0
  0
LINE
  8
0
 62
     0
 10
89.2859
 20
99.974
 30
0.0
 11
88.5126
 21
100.181
 31
0.0
  0
LINE
  8
0
 62
     0
 10
88.5126
 20
100.181
 30
0.0
 11
88.7719
 21
101.147
 31
0.0
  0
LINE
  8
0
 62
     0
 10
88.7719
 20
101.147
 30
0.0
 11
75.2493
 21
104.769
 31
0.0
  0
LINE
  8
0
 62
     0
 10
75.2493
 20
104.769
 30
0.0
 11
74.99
 21
103.803
 31
0.0
  0
LINE
  8
0
 62
     0
 10
261.451
 20
101.258
 30
0.0
 11
261.71
 21
100.292
 31
0.0
  0
LINE
  8
0
 62
     0
 10
261.71
 20
100.292
 30
0.0
 11
260.937
 21
100.086
 31
0.0
  0
LINE
  8
0
 62
     0
 10
260.937
 20
100.086
 30
0.0
 11
261.739
 21
97.0926
 31
0.0
  0
LINE
  8
0
 62
     0
 10
261.739
 20
97.0926
 30
0.0
 11
262.512
 21
97.2993
 31
0.0
  0
LINE
  8
0
 62
     0
 10
262.512
 20
97.2993
 30
0.0
 11
264.013
 21
91.6961
 31
0.0
  0
LINE
  8
0
 62
     0
 10
264.013
 20
91.6961
 30
0.0
 11
263.24
 21
91.4894
 31
0.0
  0
LINE
  8
0
 62
     0
 10
263.24
 20
91.4894
 30
0.0
 11
264.043
 21
88.495
 31
0.0
  0
LINE
  8
0
 62
     0
 10
264.043
 20
88.495
 30
0.0
 11
264.815
 21
88.7017
 31
0.0
  0
LINE
  8
0
 62
     0
 10
264.815
 20
88.7017
 30
0.0
 11
265.074
 21
87.7355
 31
0.0
  0
LINE
  8
0
 62
     0
 10
265.074
 20
87.7355
 30
0.0
 11
278.597
 21
91.3599
 31
0.0
  0
LINE
  8
0
 62
     0
 10
278.597
 20
91.3599
 30
0.0
 11
278.337
 21
92.3258
 31
0.0
  0
LINE
  8
0
 62
     0
 10
278.337
 20
92.3258
 30
0.0
 11
279.111
 21
92.5326
 31
0.0
  0
LINE
  8
0
 62
     0
 10
279.111
 20
92.5326
 30
0.0
 11
278.309
 21
95.5269
 31
0.0
  0
LINE
  8
0
 62
     0
 10
278.309
 20
95.5269
 30
0.0
 11
277.536
 21
95.3202
 31
0.0
  0
LINE
  8
0
 62
     0
 10
277.536
 20
95.3202
 30
0.0
 11
276.035
 21
100.922
 31
0.0
  0
LINE
  8
0
 62
     0
 10
276.035
 20
100.922
 30
0.0
 11
276.808
 21
101.129
 31
0.0
  0
LINE
  8
0
 62
     0
 10
276.808
 20
101.129
 30
0.0
 11
276.005
 21
104.123
 31
0.0
  0
LINE
  8
0
 62
     0
 10
276.005
 20
104.123
 30
0.0
 11
275.233
 21
103.916
 31
0.0
  0
LINE
  8
0
 62
     0
 10
275.233
 20
103.916
 30
0.0
 11
274.974
 21
104.883
 31
0.0
  0
LINE
  8
0
 62
     0
 10
274.974
 20
104.883
 30
0.0
 11
261.451
 21
101.258
 31
0.0
  0
LINE
  8
0
 62
     0
 10
281.084
 20
101.589
 30
0.0
 11
281.343
 21
100.623
 31
0.0
  0
LINE
  8
0
 62
     0
 10
281.343
 20
100.623
 30
0.0
 11
280.57
 21
100.416
 31
0.0
  0
LINE
  8
0
 62
     0
 10
280.57
 20
100.416
 30
0.0
 11
281.373
 21
97.4217
 31
0.0
  0
LINE
  8
0
 62
     0
 10
281.373
 20
97.4217
 30
0.0
 11
282.145
 21
97.6284
 31
0.0
  0
LINE
  8
0
 62
     0
 10
282.145
 20
97.6284
 30
0.0
 11
283.647
 21
92.0267
 31
0.0
  0
LINE
  8
0
 62
     0
 10
283.647
 20
92.0267
 30
0.0
 11
282.874
 21
91.8199
 31
0.0
  0
LINE
  8
0
 62
     0
 10
282.874
 20
91.8199
 30
0.0
 11
283.676
 21
88.8242
 31
0.0
  0
LINE
  8
0
 62
     0
 10
283.676
 20
88.8242
 30
0.0
 11
284.449
 21
89.0323
 31
0.0
  0
LINE
  8
0
 62
     0
 10
284.449
 20
89.0323
 30
0.0
 11
284.708
 21
88.0664
 31
0.0
  0
LINE
  8
0
 62
     0
 10
284.708
 20
88.0664
 30
0.0
 11
298.231
 21
91.6891
 31
0.0
  0
LINE
  8
0
 62
     0
 10
298.231
 20
91.6891
 30
0.0
 11
297.972
 21
92.6553
 31
0.0
  0
LINE
  8
0
 62
     0
 10
297.972
 20
92.6553
 30
0.0
 11
298.745
 21
92.8631
 31
0.0
  0
LINE
  8
0
 62
     0
 10
298.745
 20
92.8631
 30
0.0
 11
297.942
 21
95.8564
 31
0.0
  0
LINE
  8
0
 62
     0
 10
297.942
 20
95.8564
 30
0.0
 11
297.17
 21
95.6497
 31
0.0
  0
LINE
  8
0
 62
     0
 10
297.17
 20
95.6497
 30
0.0
 11
295.668
 21
101.253
 31
0.0
  0
LINE
  8
0
 62
     0
 10
295.668
 20
101.253
 30
0.0
 11
296.441
 21
101.46
 31
0.0
  0
LINE
  8
0
 62
     0
 10
296.441
 20
101.46
 30
0.0
 11
295.639
 21
104.454
 31
0.0
  0
LINE
  8
0
 62
     0
 10
295.639
 20
104.454
 30
0.0
 11
294.866
 21
104.247
 31
0.0
  0
LINE
  8
0
 62
     0
 10
294.866
 20
104.247
 30
0.0
 11
294.606
 21
105.213
 31
0.0
  0
LINE
  8
0
 62
     0
 10
294.606
 20
105.213
 30
0.0
 11
281.084
 21
101.589
 31
0.0
  0
LINE
  8
0
 62
     0
 10
51.9892
 20
109.968
 30
0.0
 11
51.2163
 21
110.174
 31
0.0
  0
LINE
  8
0
 62
     0
 10
51.2163
 20
110.174
 30
0.0
 11
50.4141
 21
107.18
 31
0.0
  0
LINE
  8
0
 62
     0
 10
50.4141
 20
107.18
 30
0.0
 11
51.1874
 21
106.973
 31
0.0
  0
LINE
  8
0
 62
     0
 10
51.1874
 20
106.973
 30
0.0
 11
49.6852
 21
101.371
 31
0.0
  0
LINE
  8
0
 62
     0
 10
49.6852
 20
101.371
 30
0.0
 11
48.9119
 21
101.578
 31
0.0
  0
LINE
  8
0
 62
     0
 10
48.9119
 20
101.578
 30
0.0
 11
48.1101
 21
98.5834
 31
0.0
  0
LINE
  8
0
 62
     0
 10
48.1101
 20
98.5834
 30
0.0
 11
48.883
 21
98.3753
 31
0.0
  0
LINE
  8
0
 62
     0
 10
48.883
 20
98.3753
 30
0.0
 11
48.6241
 21
97.4108
 31
0.0
  0
LINE
  8
0
 62
     0
 10
48.6241
 20
97.4108
 30
0.0
 11
62.1467
 21
93.7867
 31
0.0
  0
LINE
  8
0
 62
     0
 10
62.1467
 20
93.7867
 30
0.0
 11
62.4057
 21
94.7526
 31
0.0
  0
LINE
  8
0
 62
     0
 10
62.4057
 20
94.7526
 30
0.0
 11
63.179
 21
94.5459
 31
0.0
  0
LINE
  8
0
 62
     0
 10
63.179
 20
94.5459
 30
0.0
 11
63.9808
 21
97.5402
 31
0.0
  0
LINE
  8
0
 62
     0
 10
63.9808
 20
97.5402
 30
0.0
 11
63.2079
 21
97.747
 31
0.0
  0
LINE
  8
0
 62
     0
 10
63.2079
 20
97.747
 30
0.0
 11
64.71
 21
103.35
 31
0.0
  0
LINE
  8
0
 62
     0
 10
64.71
 20
103.35
 30
0.0
 11
65.4816
 21
103.143
 31
0.0
  0
LINE
  8
0
 62
     0
 10
65.4816
 20
103.143
 30
0.0
 11
66.2852
 21
106.136
 31
0.0
  0
LINE
  8
0
 62
     0
 10
66.2852
 20
106.136
 30
0.0
 11
65.5119
 21
106.343
 31
0.0
  0
LINE
  8
0
 62
     0
 10
65.5119
 20
106.343
 30
0.0
 11
65.7712
 21
107.309
 31
0.0
  0
LINE
  8
0
 62
     0
 10
65.7712
 20
107.309
 30
0.0
 11
52.2482
 21
110.933
 31
0.0
  0
LINE
  8
0
 62
     0
 10
52.2482
 20
110.933
 30
0.0
 11
51.9892
 21
109.968
 31
0.0
  0
LINE
  8
0
 62
     0
 10
304.085
 20
107.753
 30
0.0
 11
304.344
 21
106.787
 31
0.0
  0
LINE
  8
0
 62
     0
 10
304.344
 20
106.787
 30
0.0
 11
303.571
 21
106.58
 31
0.0
  0
LINE
  8
0
 62
     0
 10
303.571
 20
106.58
 30
0.0
 11
304.374
 21
103.584
 31
0.0
  0
LINE
  8
0
 62
     0
 10
304.374
 20
103.584
 30
0.0
 11
305.147
 21
103.793
 31
0.0
  0
LINE
  8
0
 62
     0
 10
305.147
 20
103.793
 30
0.0
 11
306.648
 21
98.1893
 31
0.0
  0
LINE
  8
0
 62
     0
 10
306.648
 20
98.1893
 30
0.0
 11
305.875
 21
97.9826
 31
0.0
  0
LINE
  8
0
 62
     0
 10
305.875
 20
97.9826
 30
0.0
 11
306.677
 21
94.9882
 31
0.0
  0
LINE
  8
0
 62
     0
 10
306.677
 20
94.9882
 30
0.0
 11
307.45
 21
95.195
 31
0.0
  0
LINE
  8
0
 62
     0
 10
307.45
 20
95.195
 30
0.0
 11
307.709
 21
94.2301
 31
0.0
  0
LINE
  8
0
 62
     0
 10
307.709
 20
94.2301
 30
0.0
 11
321.232
 21
97.8531
 31
0.0
  0
LINE
  8
0
 62
     0
 10
321.232
 20
97.8531
 30
0.0
 11
320.973
 21
98.8191
 31
0.0
  0
LINE
  8
0
 62
     0
 10
320.973
 20
98.8191
 30
0.0
 11
321.746
 21
99.0258
 31
0.0
  0
LINE
  8
0
 62
     0
 10
321.746
 20
99.0258
 30
0.0
 11
320.942
 21
102.02
 31
0.0
  0
LINE
  8
0
 62
     0
 10
320.942
 20
102.02
 30
0.0
 11
320.171
 21
101.812
 31
0.0
  0
LINE
  8
0
 62
     0
 10
320.171
 20
101.812
 30
0.0
 11
318.669
 21
107.415
 31
0.0
  0
LINE
  8
0
 62
     0
 10
318.669
 20
107.415
 30
0.0
 11
319.442
 21
107.623
 31
0.0
  0
LINE
  8
0
 62
     0
 10
319.442
 20
107.623
 30
0.0
 11
318.639
 21
110.617
 31
0.0
  0
LINE
  8
0
 62
     0
 10
318.639
 20
110.617
 30
0.0
 11
317.867
 21
110.41
 31
0.0
  0
LINE
  8
0
 62
     0
 10
317.867
 20
110.41
 30
0.0
 11
317.608
 21
111.376
 31
0.0
  0
LINE
  8
0
 62
     0
 10
317.608
 20
111.376
 30
0.0
 11
304.085
 21
107.753
 31
0.0
  0
LINE
  8
0
 62
     0
 10
136.356
 20
112.014
 30
0.0
 11
135.582
 21
112.22
 31
0.0
  0
LINE
  8
0
 62
     0
 10
135.582
 20
112.22
 30
0.0
 11
134.781
 21
109.227
 31
0.0
  0
LINE
  8
0
 62
     0
 10
134.781
 20
109.227
 30
0.0
 11
135.553
 21
109.019
 31
0.0
  0
LINE
  8
0
 62
     0
 10
135.553
 20
109.019
 30
0.0
 11
134.051
 21
103.416
 31
0.0
  0
LINE
  8
0
 62
     0
 10
134.051
 20
103.416
 30
0.0
 11
133.28
 21
103.624
 31
0.0
  0
LINE
  8
0
 62
     0
 10
133.28
 20
103.624
 30
0.0
 11
132.476
 21
100.63
 31
0.0
  0
LINE
  8
0
 62
     0
 10
132.476
 20
100.63
 30
0.0
 11
133.249
 21
100.423
 31
0.0
  0
LINE
  8
0
 62
     0
 10
133.249
 20
100.423
 30
0.0
 11
132.99
 21
99.4572
 31
0.0
  0
LINE
  8
0
 62
     0
 10
132.99
 20
99.4572
 30
0.0
 11
146.514
 21
95.8342
 31
0.0
  0
LINE
  8
0
 62
     0
 10
146.514
 20
95.8342
 30
0.0
 11
146.772
 21
96.799
 31
0.0
  0
LINE
  8
0
 62
     0
 10
146.772
 20
96.799
 30
0.0
 11
147.545
 21
96.5923
 31
0.0
  0
LINE
  8
0
 62
     0
 10
147.545
 20
96.5923
 30
0.0
 11
148.347
 21
99.5867
 31
0.0
  0
LINE
  8
0
 62
     0
 10
148.347
 20
99.5867
 30
0.0
 11
147.574
 21
99.7934
 31
0.0
  0
LINE
  8
0
 62
     0
 10
147.574
 20
99.7934
 30
0.0
 11
149.076
 21
105.395
 31
0.0
  0
LINE
  8
0
 62
     0
 10
149.076
 20
105.395
 30
0.0
 11
149.849
 21
105.188
 31
0.0
  0
LINE
  8
0
 62
     0
 10
149.849
 20
105.188
 30
0.0
 11
150.651
 21
108.184
 31
0.0
  0
LINE
  8
0
 62
     0
 10
150.651
 20
108.184
 30
0.0
 11
149.878
 21
108.391
 31
0.0
  0
LINE
  8
0
 62
     0
 10
149.878
 20
108.391
 30
0.0
 11
150.137
 21
109.357
 31
0.0
  0
LINE
  8
0
 62
     0
 10
150.137
 20
109.357
 30
0.0
 11
136.615
 21
112.98
 31
0.0
  0
LINE
  8
0
 62
     0
 10
136.615
 20
112.98
 30
0.0
 11
136.356
 21
112.014
 31
0.0
  0
LINE
  8
0
 62
     0
 10
219.717
 20
109.799
 30
0.0
 11
219.976
 21
108.833
 31
0.0
  0
LINE
  8
0
 62
     0
 10
219.976
 20
108.833
 30
0.0
 11
219.204
 21
108.625
 31
0.0
  0
LINE
  8
0
 62
     0
 10
219.204
 20
108.625
 30
0.0
 11
220.007
 21
105.632
 31
0.0
  0
LINE
  8
0
 62
     0
 10
220.007
 20
105.632
 30
0.0
 11
220.78
 21
105.839
 31
0.0
  0
LINE
  8
0
 62
     0
 10
220.78
 20
105.839
 30
0.0
 11
222.28
 21
100.236
 31
0.0
  0
LINE
  8
0
 62
     0
 10
222.28
 20
100.236
 30
0.0
 11
221.507
 21
100.029
 31
0.0
  0
LINE
  8
0
 62
     0
 10
221.507
 20
100.029
 30
0.0
 11
222.309
 21
97.0347
 31
0.0
  0
LINE
  8
0
 62
     0
 10
222.309
 20
97.0347
 30
0.0
 11
223.082
 21
97.2414
 31
0.0
  0
LINE
  8
0
 62
     0
 10
223.082
 20
97.2414
 30
0.0
 11
223.341
 21
96.2752
 31
0.0
  0
LINE
  8
0
 62
     0
 10
223.341
 20
96.2752
 30
0.0
 11
236.864
 21
99.8996
 31
0.0
  0
LINE
  8
0
 62
     0
 10
236.864
 20
99.8996
 30
0.0
 11
236.606
 21
100.864
 31
0.0
  0
LINE
  8
0
 62
     0
 10
236.606
 20
100.864
 30
0.0
 11
237.378
 21
101.072
 31
0.0
  0
LINE
  8
0
 62
     0
 10
237.378
 20
101.072
 30
0.0
 11
236.576
 21
104.067
 31
0.0
  0
LINE
  8
0
 62
     0
 10
236.576
 20
104.067
 30
0.0
 11
235.804
 21
103.86
 31
0.0
  0
LINE
  8
0
 62
     0
 10
235.804
 20
103.86
 30
0.0
 11
234.302
 21
109.462
 31
0.0
  0
LINE
  8
0
 62
     0
 10
234.302
 20
109.462
 30
0.0
 11
235.075
 21
109.668
 31
0.0
  0
LINE
  8
0
 62
     0
 10
235.075
 20
109.668
 30
0.0
 11
234.273
 21
112.664
 31
0.0
  0
LINE
  8
0
 62
     0
 10
234.273
 20
112.664
 30
0.0
 11
233.5
 21
112.456
 31
0.0
  0
LINE
  8
0
 62
     0
 10
233.5
 20
112.456
 30
0.0
 11
233.241
 21
113.422
 31
0.0
  0
LINE
  8
0
 62
     0
 10
233.241
 20
113.422
 30
0.0
 11
219.717
 21
109.799
 31
0.0
  0
LINE
  8
0
 62
     0
 10
119.188
 20
121.544
 30
0.0
 11
118.415
 21
121.752
 31
0.0
  0
LINE
  8
0
 62
     0
 10
118.415
 20
121.752
 30
0.0
 11
117.613
 21
118.757
 31
0.0
  0
LINE
  8
0
 62
     0
 10
117.613
 20
118.757
 30
0.0
 11
118.384
 21
118.55
 31
0.0
  0
LINE
  8
0
 62
     0
 10
118.384
 20
118.55
 30
0.0
 11
116.884
 21
112.948
 31
0.0
  0
LINE
  8
0
 62
     0
 10
116.884
 20
112.948
 30
0.0
 11
116.111
 21
113.155
 31
0.0
  0
LINE
  8
0
 62
     0
 10
116.111
 20
113.155
 30
0.0
 11
115.309
 21
110.161
 31
0.0
  0
LINE
  8
0
 62
     0
 10
115.309
 20
110.161
 30
0.0
 11
116.082
 21
109.954
 31
0.0
  0
LINE
  8
0
 62
     0
 10
116.082
 20
109.954
 30
0.0
 11
115.823
 21
108.988
 31
0.0
  0
LINE
  8
0
 62
     0
 10
115.823
 20
108.988
 30
0.0
 11
129.345
 21
105.363
 31
0.0
  0
LINE
  8
0
 62
     0
 10
129.345
 20
105.363
 30
0.0
 11
129.605
 21
106.329
 31
0.0
  0
LINE
  8
0
 62
     0
 10
129.605
 20
106.329
 30
0.0
 11
130.377
 21
106.123
 31
0.0
  0
LINE
  8
0
 62
     0
 10
130.377
 20
106.123
 30
0.0
 11
131.18
 21
109.119
 31
0.0
  0
LINE
  8
0
 62
     0
 10
131.18
 20
109.119
 30
0.0
 11
130.406
 21
109.325
 31
0.0
  0
LINE
  8
0
 62
     0
 10
130.406
 20
109.325
 30
0.0
 11
131.907
 21
114.927
 31
0.0
  0
LINE
  8
0
 62
     0
 10
131.907
 20
114.927
 30
0.0
 11
132.68
 21
114.72
 31
0.0
  0
LINE
  8
0
 62
     0
 10
132.68
 20
114.72
 30
0.0
 11
133.482
 21
117.713
 31
0.0
  0
LINE
  8
0
 62
     0
 10
133.482
 20
117.713
 30
0.0
 11
132.711
 21
117.92
 31
0.0
  0
LINE
  8
0
 62
     0
 10
132.711
 20
117.92
 30
0.0
 11
132.968
 21
118.886
 31
0.0
  0
LINE
  8
0
 62
     0
 10
132.968
 20
118.886
 30
0.0
 11
119.446
 21
122.51
 31
0.0
  0
LINE
  8
0
 62
     0
 10
119.446
 20
122.51
 30
0.0
 11
119.188
 21
121.544
 31
0.0
  0
LINE
  8
0
 62
     0
 10
99.5535
 20
121.875
 30
0.0
 11
98.7806
 21
122.082
 31
0.0
  0
LINE
  8
0
 62
     0
 10
98.7806
 20
122.082
 30
0.0
 11
97.9784
 21
119.087
 31
0.0
  0
LINE
  8
0
 62
     0
 10
97.9784
 20
119.087
 30
0.0
 11
98.7517
 21
118.88
 31
0.0
  0
LINE
  8
0
 62
     0
 10
98.7517
 20
118.88
 30
0.0
 11
97.251
 21
113.278
 31
0.0
  0
LINE
  8
0
 62
     0
 10
97.251
 20
113.278
 30
0.0
 11
96.4777
 21
113.484
 31
0.0
  0
LINE
  8
0
 62
     0
 10
96.4777
 20
113.484
 30
0.0
 11
95.6758
 21
110.491
 31
0.0
  0
LINE
  8
0
 62
     0
 10
95.6758
 20
110.491
 30
0.0
 11
96.4477
 21
110.284
 31
0.0
  0
LINE
  8
0
 62
     0
 10
96.4477
 20
110.284
 30
0.0
 11
96.1884
 21
109.318
 31
0.0
  0
LINE
  8
0
 62
     0
 10
96.1884
 20
109.318
 30
0.0
 11
109.711
 21
105.694
 31
0.0
  0
LINE
  8
0
 62
     0
 10
109.711
 20
105.694
 30
0.0
 11
109.97
 21
106.66
 31
0.0
  0
LINE
  8
0
 62
     0
 10
109.97
 20
106.66
 30
0.0
 11
110.743
 21
106.454
 31
0.0
  0
LINE
  8
0
 62
     0
 10
110.743
 20
106.454
 30
0.0
 11
111.545
 21
109.449
 31
0.0
  0
LINE
  8
0
 62
     0
 10
111.545
 20
109.449
 30
0.0
 11
110.774
 21
109.655
 31
0.0
  0
LINE
  8
0
 62
     0
 10
110.774
 20
109.655
 30
0.0
 11
112.274
 21
115.256
 31
0.0
  0
LINE
  8
0
 62
     0
 10
112.274
 20
115.256
 30
0.0
 11
113.047
 21
115.05
 31
0.0
  0
LINE
  8
0
 62
     0
 10
113.047
 20
115.05
 30
0.0
 11
113.85
 21
118.044
 31
0.0
  0
LINE
  8
0
 62
     0
 10
113.85
 20
118.044
 30
0.0
 11
113.076
 21
118.252
 31
0.0
  0
LINE
  8
0
 62
     0
 10
113.076
 20
118.252
 30
0.0
 11
113.336
 21
119.218
 31
0.0
  0
LINE
  8
0
 62
     0
 10
113.336
 20
119.218
 30
0.0
 11
99.8128
 21
122.841
 31
0.0
  0
LINE
  8
0
 62
     0
 10
99.8128
 20
122.841
 30
0.0
 11
99.5535
 21
121.875
 31
0.0
  0
LINE
  8
0
 62
     0
 10
236.886
 20
119.33
 30
0.0
 11
237.145
 21
118.364
 31
0.0
  0
LINE
  8
0
 62
     0
 10
237.145
 20
118.364
 30
0.0
 11
236.372
 21
118.157
 31
0.0
  0
LINE
  8
0
 62
     0
 10
236.372
 20
118.157
 30
0.0
 11
237.174
 21
115.161
 31
0.0
  0
LINE
  8
0
 62
     0
 10
237.174
 20
115.161
 30
0.0
 11
237.947
 21
115.369
 31
0.0
  0
LINE
  8
0
 62
     0
 10
237.947
 20
115.369
 30
0.0
 11
239.449
 21
109.766
 31
0.0
  0
LINE
  8
0
 62
     0
 10
239.449
 20
109.766
 30
0.0
 11
238.676
 21
109.56
 31
0.0
  0
LINE
  8
0
 62
     0
 10
238.676
 20
109.56
 30
0.0
 11
239.478
 21
106.566
 31
0.0
  0
LINE
  8
0
 62
     0
 10
239.478
 20
106.566
 30
0.0
 11
240.251
 21
106.773
 31
0.0
  0
LINE
  8
0
 62
     0
 10
240.251
 20
106.773
 30
0.0
 11
240.51
 21
105.807
 31
0.0
  0
LINE
  8
0
 62
     0
 10
240.51
 20
105.807
 30
0.0
 11
254.033
 21
109.431
 31
0.0
  0
LINE
  8
0
 62
     0
 10
254.033
 20
109.431
 30
0.0
 11
253.774
 21
110.396
 31
0.0
  0
LINE
  8
0
 62
     0
 10
253.774
 20
110.396
 30
0.0
 11
254.546
 21
110.603
 31
0.0
  0
LINE
  8
0
 62
     0
 10
254.546
 20
110.603
 30
0.0
 11
253.745
 21
113.597
 31
0.0
  0
LINE
  8
0
 62
     0
 10
253.745
 20
113.597
 30
0.0
 11
252.972
 21
113.391
 31
0.0
  0
LINE
  8
0
 62
     0
 10
252.972
 20
113.391
 30
0.0
 11
251.471
 21
118.992
 31
0.0
  0
LINE
  8
0
 62
     0
 10
251.471
 20
118.992
 30
0.0
 11
252.243
 21
119.2
 31
0.0
  0
LINE
  8
0
 62
     0
 10
252.243
 20
119.2
 30
0.0
 11
251.44
 21
122.193
 31
0.0
  0
LINE
  8
0
 62
     0
 10
251.44
 20
122.193
 30
0.0
 11
250.669
 21
121.987
 31
0.0
  0
LINE
  8
0
 62
     0
 10
250.669
 20
121.987
 30
0.0
 11
250.41
 21
122.953
 31
0.0
  0
LINE
  8
0
 62
     0
 10
250.41
 20
122.953
 30
0.0
 11
236.886
 21
119.33
 31
0.0
  0
LINE
  8
0
 62
     0
 10
79.9207
 20
122.204
 30
0.0
 11
79.1475
 21
122.411
 31
0.0
  0
LINE
  8
0
 62
     0
 10
79.1475
 20
122.411
 30
0.0
 11
78.3456
 21
119.418
 31
0.0
  0
LINE
  8
0
 62
     0
 10
78.3456
 20
119.418
 30
0.0
 11
79.1175
 21
119.211
 31
0.0
  0
LINE
  8
0
 62
     0
 10
79.1175
 20
119.211
 30
0.0
 11
77.6168
 21
113.608
 31
0.0
  0
LINE
  8
0
 62
     0
 10
77.6168
 20
113.608
 30
0.0
 11
76.8435
 21
113.816
 31
0.0
  0
LINE
  8
0
 62
     0
 10
76.8435
 20
113.816
 30
0.0
 11
76.0416
 21
110.821
 31
0.0
  0
LINE
  8
0
 62
     0
 10
76.0416
 20
110.821
 30
0.0
 11
76.8145
 21
110.614
 31
0.0
  0
LINE
  8
0
 62
     0
 10
76.8145
 20
110.614
 30
0.0
 11
76.5556
 21
109.648
 31
0.0
  0
LINE
  8
0
 62
     0
 10
76.5556
 20
109.648
 30
0.0
 11
90.0783
 21
106.025
 31
0.0
  0
LINE
  8
0
 62
     0
 10
90.0783
 20
106.025
 30
0.0
 11
90.3372
 21
106.991
 31
0.0
  0
LINE
  8
0
 62
     0
 10
90.3372
 20
106.991
 30
0.0
 11
91.1105
 21
106.784
 31
0.0
  0
LINE
  8
0
 62
     0
 10
91.1105
 20
106.784
 30
0.0
 11
91.9124
 21
109.777
 31
0.0
  0
LINE
  8
0
 62
     0
 10
91.9124
 20
109.777
 30
0.0
 11
91.1394
 21
109.986
 31
0.0
  0
LINE
  8
0
 62
     0
 10
91.1394
 20
109.986
 30
0.0
 11
92.6412
 21
115.587
 31
0.0
  0
LINE
  8
0
 62
     0
 10
92.6412
 20
115.587
 30
0.0
 11
93.4131
 21
115.381
 31
0.0
  0
LINE
  8
0
 62
     0
 10
93.4131
 20
115.381
 30
0.0
 11
94.215
 21
118.375
 31
0.0
  0
LINE
  8
0
 62
     0
 10
94.215
 20
118.375
 30
0.0
 11
93.4434
 21
118.582
 31
0.0
  0
LINE
  8
0
 62
     0
 10
93.4434
 20
118.582
 30
0.0
 11
93.701
 21
119.548
 31
0.0
  0
LINE
  8
0
 62
     0
 10
93.701
 20
119.548
 30
0.0
 11
80.1783
 21
123.171
 31
0.0
  0
LINE
  8
0
 62
     0
 10
80.1783
 20
123.171
 30
0.0
 11
79.9207
 21
122.204
 31
0.0
  0
LINE
  8
0
 62
     0
 10
256.521
 20
119.659
 30
0.0
 11
256.778
 21
118.693
 31
0.0
  0
LINE
  8
0
 62
     0
 10
256.778
 20
118.693
 30
0.0
 11
256.005
 21
118.486
 31
0.0
  0
LINE
  8
0
 62
     0
 10
256.005
 20
118.486
 30
0.0
 11
256.807
 21
115.493
 31
0.0
  0
LINE
  8
0
 62
     0
 10
256.807
 20
115.493
 30
0.0
 11
257.58
 21
115.7
 31
0.0
  0
LINE
  8
0
 62
     0
 10
257.58
 20
115.7
 30
0.0
 11
259.082
 21
110.097
 31
0.0
  0
LINE
  8
0
 62
     0
 10
259.082
 20
110.097
 30
0.0
 11
258.309
 21
109.89
 31
0.0
  0
LINE
  8
0
 62
     0
 10
258.309
 20
109.89
 30
0.0
 11
259.111
 21
106.896
 31
0.0
  0
LINE
  8
0
 62
     0
 10
259.111
 20
106.896
 30
0.0
 11
259.884
 21
107.103
 31
0.0
  0
LINE
  8
0
 62
     0
 10
259.884
 20
107.103
 30
0.0
 11
260.143
 21
106.136
 31
0.0
  0
LINE
  8
0
 62
     0
 10
260.143
 20
106.136
 30
0.0
 11
273.667
 21
109.761
 31
0.0
  0
LINE
  8
0
 62
     0
 10
273.667
 20
109.761
 30
0.0
 11
273.408
 21
110.725
 31
0.0
  0
LINE
  8
0
 62
     0
 10
273.408
 20
110.725
 30
0.0
 11
274.181
 21
110.933
 31
0.0
  0
LINE
  8
0
 62
     0
 10
274.181
 20
110.933
 30
0.0
 11
273.378
 21
113.928
 31
0.0
  0
LINE
  8
0
 62
     0
 10
273.378
 20
113.928
 30
0.0
 11
272.606
 21
113.721
 31
0.0
  0
LINE
  8
0
 62
     0
 10
272.606
 20
113.721
 30
0.0
 11
271.104
 21
119.323
 31
0.0
  0
LINE
  8
0
 62
     0
 10
271.104
 20
119.323
 30
0.0
 11
271.877
 21
119.53
 31
0.0
  0
LINE
  8
0
 62
     0
 10
271.877
 20
119.53
 30
0.0
 11
271.075
 21
122.524
 31
0.0
  0
LINE
  8
0
 62
     0
 10
271.075
 20
122.524
 30
0.0
 11
270.302
 21
122.318
 31
0.0
  0
LINE
  8
0
 62
     0
 10
270.302
 20
122.318
 30
0.0
 11
270.043
 21
123.283
 31
0.0
  0
LINE
  8
0
 62
     0
 10
270.043
 20
123.283
 30
0.0
 11
256.521
 21
119.659
 31
0.0
  0
LINE
  8
0
 62
     0
 10
276.153
 20
119.99
 30
0.0
 11
276.412
 21
119.024
 31
0.0
  0
LINE
  8
0
 62
     0
 10
276.412
 20
119.024
 30
0.0
 11
275.639
 21
118.817
 31
0.0
  0
LINE
  8
0
 62
     0
 10
275.639
 20
118.817
 30
0.0
 11
276.441
 21
115.823
 31
0.0
  0
LINE
  8
0
 62
     0
 10
276.441
 20
115.823
 30
0.0
 11
277.215
 21
116.029
 31
0.0
  0
LINE
  8
0
 62
     0
 10
277.215
 20
116.029
 30
0.0
 11
278.715
 21
110.428
 31
0.0
  0
LINE
  8
0
 62
     0
 10
278.715
 20
110.428
 30
0.0
 11
277.943
 21
110.221
 31
0.0
  0
LINE
  8
0
 62
     0
 10
277.943
 20
110.221
 30
0.0
 11
278.746
 21
107.225
 31
0.0
  0
LINE
  8
0
 62
     0
 10
278.746
 20
107.225
 30
0.0
 11
279.517
 21
107.433
 31
0.0
  0
LINE
  8
0
 62
     0
 10
279.517
 20
107.433
 30
0.0
 11
279.776
 21
106.467
 31
0.0
  0
LINE
  8
0
 62
     0
 10
279.776
 20
106.467
 30
0.0
 11
293.3
 21
110.091
 31
0.0
  0
LINE
  8
0
 62
     0
 10
293.3
 20
110.091
 30
0.0
 11
293.041
 21
111.058
 31
0.0
  0
LINE
  8
0
 62
     0
 10
293.041
 20
111.058
 30
0.0
 11
293.814
 21
111.264
 31
0.0
  0
LINE
  8
0
 62
     0
 10
293.814
 20
111.264
 30
0.0
 11
293.012
 21
114.257
 31
0.0
  0
LINE
  8
0
 62
     0
 10
293.012
 20
114.257
 30
0.0
 11
292.239
 21
114.051
 31
0.0
  0
LINE
  8
0
 62
     0
 10
292.239
 20
114.051
 30
0.0
 11
290.737
 21
119.652
 31
0.0
  0
LINE
  8
0
 62
     0
 10
290.737
 20
119.652
 30
0.0
 11
291.51
 21
119.86
 31
0.0
  0
LINE
  8
0
 62
     0
 10
291.51
 20
119.86
 30
0.0
 11
290.708
 21
122.855
 31
0.0
  0
LINE
  8
0
 62
     0
 10
290.708
 20
122.855
 30
0.0
 11
289.935
 21
122.648
 31
0.0
  0
LINE
  8
0
 62
     0
 10
289.935
 20
122.648
 30
0.0
 11
289.677
 21
123.614
 31
0.0
  0
LINE
  8
0
 62
     0
 10
289.677
 20
123.614
 30
0.0
 11
276.153
 21
119.99
 31
0.0
  0
LINE
  8
0
 62
     0
 10
61.5199
 20
127.137
 30
0.0
 11
60.7466
 21
127.343
 31
0.0
  0
LINE
  8
0
 62
     0
 10
60.7466
 20
127.343
 30
0.0
 11
59.9447
 21
124.349
 31
0.0
  0
LINE
  8
0
 62
     0
 10
59.9447
 20
124.349
 30
0.0
 11
60.7162
 21
124.141
 31
0.0
  0
LINE
  8
0
 62
     0
 10
60.7162
 20
124.141
 30
0.0
 11
59.2155
 21
118.539
 31
0.0
  0
LINE
  8
0
 62
     0
 10
59.2155
 20
118.539
 30
0.0
 11
58.4426
 21
118.746
 31
0.0
  0
LINE
  8
0
 62
     0
 10
58.4426
 20
118.746
 30
0.0
 11
57.6407
 21
115.752
 31
0.0
  0
LINE
  8
0
 62
     0
 10
57.6407
 20
115.752
 30
0.0
 11
58.4137
 21
115.544
 31
0.0
  0
LINE
  8
0
 62
     0
 10
58.4137
 20
115.544
 30
0.0
 11
58.1547
 21
114.578
 31
0.0
  0
LINE
  8
0
 62
     0
 10
58.1547
 20
114.578
 30
0.0
 11
71.6774
 21
110.954
 31
0.0
  0
LINE
  8
0
 62
     0
 10
71.6774
 20
110.954
 30
0.0
 11
71.9363
 21
111.92
 31
0.0
  0
LINE
  8
0
 62
     0
 10
71.9363
 20
111.92
 30
0.0
 11
72.7093
 21
111.713
 31
0.0
  0
LINE
  8
0
 62
     0
 10
72.7093
 20
111.713
 30
0.0
 11
73.5115
 21
114.709
 31
0.0
  0
LINE
  8
0
 62
     0
 10
73.5115
 20
114.709
 30
0.0
 11
72.7385
 21
114.916
 31
0.0
  0
LINE
  8
0
 62
     0
 10
72.7385
 20
114.916
 30
0.0
 11
74.2403
 21
120.518
 31
0.0
  0
LINE
  8
0
 62
     0
 10
74.2403
 20
120.518
 30
0.0
 11
75.0122
 21
120.311
 31
0.0
  0
LINE
  8
0
 62
     0
 10
75.0122
 20
120.311
 30
0.0
 11
75.8141
 21
123.305
 31
0.0
  0
LINE
  8
0
 62
     0
 10
75.8141
 20
123.305
 30
0.0
 11
75.0425
 21
123.512
 31
0.0
  0
LINE
  8
0
 62
     0
 10
75.0425
 20
123.512
 30
0.0
 11
75.3015
 21
124.478
 31
0.0
  0
LINE
  8
0
 62
     0
 10
75.3015
 20
124.478
 30
0.0
 11
61.7788
 21
128.102
 31
0.0
  0
LINE
  8
0
 62
     0
 10
61.7788
 20
128.102
 30
0.0
 11
61.5199
 21
127.137
 31
0.0
  0
LINE
  8
0
 62
     0
 10
320.559
 20
131.319
 30
0.0
 11
320.798
 21
130.431
 31
0.0
  0
LINE
  8
0
 62
     0
 10
320.798
 20
130.431
 30
0.0
 11
319.132
 21
129.983
 31
0.0
  0
LINE
  8
0
 62
     0
 10
319.132
 20
129.983
 30
0.0
 11
319.968
 21
126.863
 31
0.0
  0
LINE
  8
0
 62
     0
 10
319.968
 20
126.863
 30
0.0
 11
318.493
 21
126.469
 31
0.0
  0
LINE
  8
0
 62
     0
 10
318.493
 20
126.469
 30
0.0
 11
318.339
 21
127.048
 31
0.0
  0
LINE
  8
0
 62
     0
 10
318.339
 20
127.048
 30
0.0
 11
319.112
 21
127.256
 31
0.0
  0
LINE
  8
0
 62
     0
 10
319.112
 20
127.256
 30
0.0
 11
318.31
 21
130.251
 31
0.0
  0
LINE
  8
0
 62
     0
 10
318.31
 20
130.251
 30
0.0
 11
317.537
 21
130.044
 31
0.0
  0
LINE
  8
0
 62
     0
 10
317.537
 20
130.044
 30
0.0
 11
317.278
 21
131.01
 31
0.0
  0
LINE
  8
0
 62
     0
 10
317.278
 20
131.01
 30
0.0
 11
303.754
 21
127.386
 31
0.0
  0
LINE
  8
0
 62
     0
 10
303.754
 20
127.386
 30
0.0
 11
304.013
 21
126.42
 31
0.0
  0
LINE
  8
0
 62
     0
 10
304.013
 20
126.42
 30
0.0
 11
303.241
 21
126.213
 31
0.0
  0
LINE
  8
0
 62
     0
 10
303.241
 20
126.213
 30
0.0
 11
304.043
 21
123.219
 31
0.0
  0
LINE
  8
0
 62
     0
 10
304.043
 20
123.219
 30
0.0
 11
304.815
 21
123.425
 31
0.0
  0
LINE
  8
0
 62
     0
 10
304.815
 20
123.425
 30
0.0
 11
304.971
 21
122.845
 31
0.0
  0
LINE
  8
0
 62
     0
 10
304.971
 20
122.845
 30
0.0
 11
303.498
 21
122.451
 31
0.0
  0
LINE
  8
0
 62
     0
 10
303.498
 20
122.451
 30
0.0
 11
302.663
 21
125.571
 31
0.0
  0
LINE
  8
0
 62
     0
 10
302.663
 20
125.571
 30
0.0
 11
300.995
 21
125.125
 31
0.0
  0
LINE
  8
0
 62
     0
 10
300.995
 20
125.125
 30
0.0
 11
300.758
 21
126.013
 31
0.0
  0
LINE
  8
0
 62
     0
 10
300.758
 20
126.013
 30
0.0
 11
297.571
 21
125.16
 31
0.0
  0
LINE
  8
0
 62
     0
 10
297.571
 20
125.16
 30
0.0
 11
297.809
 21
124.27
 31
0.0
  0
LINE
  8
0
 62
     0
 10
297.809
 20
124.27
 30
0.0
 11
296.143
 21
123.824
 31
0.0
  0
LINE
  8
0
 62
     0
 10
296.143
 20
123.824
 30
0.0
 11
296.978
 21
120.704
 31
0.0
  0
LINE
  8
0
 62
     0
 10
296.978
 20
120.704
 30
0.0
 11
296.182
 21
120.49
 31
0.0
  0
LINE
  8
0
 62
     0
 10
296.182
 20
120.49
 30
0.0
 11
296.905
 21
117.787
 31
0.0
  0
LINE
  8
0
 62
     0
 10
296.905
 20
117.787
 30
0.0
 11
297.703
 21
118
 31
0.0
  0
LINE
  8
0
 62
     0
 10
297.703
 20
118
 30
0.0
 11
299.326
 21
111.943
 31
0.0
  0
LINE
  8
0
 62
     0
 10
299.326
 20
111.943
 30
0.0
 11
300.991
 21
112.39
 31
0.0
  0
LINE
  8
0
 62
     0
 10
300.991
 20
112.39
 30
0.0
 11
301.246
 21
111.443
 31
0.0
  0
LINE
  8
0
 62
     0
 10
301.246
 20
111.443
 30
0.0
 11
304.432
 21
112.296
 31
0.0
  0
LINE
  8
0
 62
     0
 10
304.432
 20
112.296
 30
0.0
 11
304.18
 21
113.244
 31
0.0
  0
LINE
  8
0
 62
     0
 10
304.18
 20
113.244
 30
0.0
 11
305.846
 21
113.691
 31
0.0
  0
LINE
  8
0
 62
     0
 10
305.846
 20
113.691
 30
0.0
 11
304.689
 21
118.008
 31
0.0
  0
LINE
  8
0
 62
     0
 10
304.689
 20
118.008
 30
0.0
 11
306.161
 21
118.402
 31
0.0
  0
LINE
  8
0
 62
     0
 10
306.161
 20
118.402
 30
0.0
 11
306.317
 21
117.822
 31
0.0
  0
LINE
  8
0
 62
     0
 10
306.317
 20
117.822
 30
0.0
 11
305.544
 21
117.615
 31
0.0
  0
LINE
  8
0
 62
     0
 10
305.544
 20
117.615
 30
0.0
 11
306.346
 21
114.622
 31
0.0
  0
LINE
  8
0
 62
     0
 10
306.346
 20
114.622
 30
0.0
 11
307.119
 21
114.829
 31
0.0
  0
LINE
  8
0
 62
     0
 10
307.119
 20
114.829
 30
0.0
 11
307.378
 21
113.863
 31
0.0
  0
LINE
  8
0
 62
     0
 10
307.378
 20
113.863
 30
0.0
 11
320.903
 21
117.487
 31
0.0
  0
LINE
  8
0
 62
     0
 10
320.903
 20
117.487
 30
0.0
 11
320.643
 21
118.452
 31
0.0
  0
LINE
  8
0
 62
     0
 10
320.643
 20
118.452
 30
0.0
 11
321.415
 21
118.66
 31
0.0
  0
LINE
  8
0
 62
     0
 10
321.415
 20
118.66
 30
0.0
 11
320.613
 21
121.653
 31
0.0
  0
LINE
  8
0
 62
     0
 10
320.613
 20
121.653
 30
0.0
 11
319.84
 21
121.447
 31
0.0
  0
LINE
  8
0
 62
     0
 10
319.84
 20
121.447
 30
0.0
 11
319.684
 21
122.025
 31
0.0
  0
LINE
  8
0
 62
     0
 10
319.684
 20
122.025
 30
0.0
 11
321.157
 21
122.421
 31
0.0
  0
LINE
  8
0
 62
     0
 10
321.157
 20
122.421
 30
0.0
 11
322.315
 21
118.103
 31
0.0
  0
LINE
  8
0
 62
     0
 10
322.315
 20
118.103
 30
0.0
 11
323.981
 21
118.55
 31
0.0
  0
LINE
  8
0
 62
     0
 10
323.981
 20
118.55
 30
0.0
 11
324.235
 21
117.603
 31
0.0
  0
LINE
  8
0
 62
     0
 10
324.235
 20
117.603
 30
0.0
 11
327.422
 21
118.456
 31
0.0
  0
LINE
  8
0
 62
     0
 10
327.422
 20
118.456
 30
0.0
 11
327.168
 21
119.404
 31
0.0
  0
LINE
  8
0
 62
     0
 10
327.168
 20
119.404
 30
0.0
 11
328.834
 21
119.849
 31
0.0
  0
LINE
  8
0
 62
     0
 10
328.834
 20
119.849
 30
0.0
 11
327.212
 21
125.907
 31
0.0
  0
LINE
  8
0
 62
     0
 10
327.212
 20
125.907
 30
0.0
 11
328.009
 21
126.119
 31
0.0
  0
LINE
  8
0
 62
     0
 10
328.009
 20
126.119
 30
0.0
 11
327.284
 21
128.825
 31
0.0
  0
LINE
  8
0
 62
     0
 10
327.284
 20
128.825
 30
0.0
 11
326.488
 21
128.611
 31
0.0
  0
LINE
  8
0
 62
     0
 10
326.488
 20
128.611
 30
0.0
 11
325.651
 21
131.731
 31
0.0
  0
LINE
  8
0
 62
     0
 10
325.651
 20
131.731
 30
0.0
 11
323.985
 21
131.284
 31
0.0
  0
LINE
  8
0
 62
     0
 10
323.985
 20
131.284
 30
0.0
 11
323.747
 21
132.173
 31
0.0
  0
LINE
  8
0
 62
     0
 10
323.747
 20
132.173
 30
0.0
 11
320.559
 21
131.319
 31
0.0
  0
LINE
  8
0
 62
     0
 10
43.119
 20
132.066
 30
0.0
 11
42.3457
 21
132.272
 31
0.0
  0
LINE
  8
0
 62
     0
 10
42.3457
 20
132.272
 30
0.0
 11
41.5438
 21
129.279
 31
0.0
  0
LINE
  8
0
 62
     0
 10
41.5438
 20
129.279
 30
0.0
 11
42.3153
 21
129.071
 31
0.0
  0
LINE
  8
0
 62
     0
 10
42.3153
 20
129.071
 30
0.0
 11
40.8146
 21
123.469
 31
0.0
  0
LINE
  8
0
 62
     0
 10
40.8146
 20
123.469
 30
0.0
 11
40.0431
 21
123.676
 31
0.0
  0
LINE
  8
0
 62
     0
 10
40.0431
 20
123.676
 30
0.0
 11
39.2395
 21
120.682
 31
0.0
  0
LINE
  8
0
 62
     0
 10
39.2395
 20
120.682
 30
0.0
 11
40.0128
 21
120.475
 31
0.0
  0
LINE
  8
0
 62
     0
 10
40.0128
 20
120.475
 30
0.0
 11
39.7538
 21
119.509
 31
0.0
  0
LINE
  8
0
 62
     0
 10
39.7538
 20
119.509
 30
0.0
 11
53.2765
 21
115.886
 31
0.0
  0
LINE
  8
0
 62
     0
 10
53.2765
 20
115.886
 30
0.0
 11
53.5354
 21
116.852
 31
0.0
  0
LINE
  8
0
 62
     0
 10
53.5354
 20
116.852
 30
0.0
 11
54.3084
 21
116.645
 31
0.0
  0
LINE
  8
0
 62
     0
 10
54.3084
 20
116.645
 30
0.0
 11
55.1106
 21
119.639
 31
0.0
  0
LINE
  8
0
 62
     0
 10
55.1106
 20
119.639
 30
0.0
 11
54.3373
 21
119.845
 31
0.0
  0
LINE
  8
0
 62
     0
 10
54.3373
 20
119.845
 30
0.0
 11
55.838
 21
125.448
 31
0.0
  0
LINE
  8
0
 62
     0
 10
55.838
 20
125.448
 30
0.0
 11
56.6113
 21
125.24
 31
0.0
  0
LINE
  8
0
 62
     0
 10
56.6113
 20
125.24
 30
0.0
 11
57.4146
 21
128.236
 31
0.0
  0
LINE
  8
0
 62
     0
 10
57.4146
 20
128.236
 30
0.0
 11
56.6416
 21
128.443
 31
0.0
  0
LINE
  8
0
 62
     0
 10
56.6416
 20
128.443
 30
0.0
 11
56.9006
 21
129.409
 31
0.0
  0
LINE
  8
0
 62
     0
 10
56.9006
 20
129.409
 30
0.0
 11
43.3779
 21
133.032
 31
0.0
  0
LINE
  8
0
 62
     0
 10
43.3779
 20
133.032
 30
0.0
 11
43.119
 21
132.066
 31
0.0
  0
ENDSEC
  0
EOF
