G04 #@! TF.GenerationSoftware,KiCad,Pcbnew,(6.0.0-rc1-dev-557-ge985f797c)*
G04 #@! TF.CreationDate,2018-09-26T16:52:15-05:00*
G04 #@! TF.ProjectId,orgonaut66,6F72676F6E61757436362E6B69636164,2*
G04 #@! TF.SameCoordinates,Original*
G04 #@! TF.FileFunction,Legend,Bot*
G04 #@! TF.FilePolarity,Positive*
%FSLAX46Y46*%
G04 Gerber Fmt 4.6, Leading zero omitted, Abs format (unit mm)*
G04 Created by KiCad (PCBNEW (6.0.0-rc1-dev-557-ge985f797c)) date 09/26/18 16:52:15*
%MOMM*%
%LPD*%
G01*
G04 APERTURE LIST*
%ADD10C,0.200000*%
%ADD11C,0.120000*%
%ADD12C,0.150000*%
G04 APERTURE END LIST*
D10*
G04 #@! TO.C,D1*
X128074654Y-76242950D02*
X127453488Y-78561172D01*
X128243691Y-76288244D02*
X127622525Y-78606466D01*
X128412728Y-76333537D02*
X127791562Y-78651759D01*
X128177933Y-78755287D02*
X128799098Y-76437065D01*
X128581765Y-76378830D02*
X127960599Y-78697052D01*
X128702506Y-76411183D02*
X128081340Y-78729405D01*
X128774950Y-76430594D02*
X123172581Y-74929444D01*
X123172581Y-74929444D02*
X122551415Y-77247666D01*
X122551415Y-77247666D02*
X128153785Y-78748816D01*
G04 #@! TO.C,D2*
X109673767Y-71312447D02*
X109052601Y-73630669D01*
X109842804Y-71357741D02*
X109221638Y-73675963D01*
X110011841Y-71403034D02*
X109390675Y-73721256D01*
X109777046Y-73824784D02*
X110398211Y-71506562D01*
X110180878Y-71448327D02*
X109559712Y-73766549D01*
X110301619Y-71480680D02*
X109680453Y-73798902D01*
X110374063Y-71500091D02*
X104771694Y-69998941D01*
X104771694Y-69998941D02*
X104150528Y-72317163D01*
X104150528Y-72317163D02*
X109752898Y-73818313D01*
G04 #@! TO.C,D3*
X91272880Y-66381945D02*
X90651714Y-68700167D01*
X91441917Y-66427239D02*
X90820751Y-68745461D01*
X91610954Y-66472532D02*
X90989788Y-68790754D01*
X91376159Y-68894282D02*
X91997324Y-66576060D01*
X91779991Y-66517825D02*
X91158825Y-68836047D01*
X91900732Y-66550178D02*
X91279566Y-68868400D01*
X91973176Y-66569589D02*
X86370807Y-65068439D01*
X86370807Y-65068439D02*
X85749641Y-67386661D01*
X85749641Y-67386661D02*
X91352011Y-68887811D01*
G04 #@! TO.C,D4*
X123144151Y-94643837D02*
X122522985Y-96962059D01*
X123313188Y-94689131D02*
X122692022Y-97007353D01*
X123482225Y-94734424D02*
X122861059Y-97052646D01*
X123247430Y-97156174D02*
X123868595Y-94837952D01*
X123651262Y-94779717D02*
X123030096Y-97097939D01*
X123772003Y-94812070D02*
X123150837Y-97130292D01*
X123844447Y-94831481D02*
X118242078Y-93330331D01*
X118242078Y-93330331D02*
X117620912Y-95648553D01*
X117620912Y-95648553D02*
X123223282Y-97149703D01*
G04 #@! TO.C,D5*
X100143043Y-88480709D02*
X99521877Y-90798931D01*
X100312080Y-88526003D02*
X99690914Y-90844225D01*
X100481117Y-88571296D02*
X99859951Y-90889518D01*
X100246322Y-90993046D02*
X100867487Y-88674824D01*
X100650154Y-88616589D02*
X100028988Y-90934811D01*
X100770895Y-88648942D02*
X100149729Y-90967164D01*
X100843339Y-88668353D02*
X95240970Y-87167203D01*
X95240970Y-87167203D02*
X94619804Y-89485425D01*
X94619804Y-89485425D02*
X100222174Y-90986575D01*
G04 #@! TO.C,D6*
X118213649Y-113044724D02*
X117592483Y-115362946D01*
X118382686Y-113090018D02*
X117761520Y-115408240D01*
X118551723Y-113135311D02*
X117930557Y-115453533D01*
X118316928Y-115557061D02*
X118938093Y-113238839D01*
X118720760Y-113180604D02*
X118099594Y-115498826D01*
X118841501Y-113212957D02*
X118220335Y-115531179D01*
X118913945Y-113232368D02*
X113311576Y-111731218D01*
X113311576Y-111731218D02*
X112690410Y-114049440D01*
X112690410Y-114049440D02*
X118292780Y-115550590D01*
G04 #@! TO.C,D7*
X88312207Y-105032657D02*
X87691041Y-107350879D01*
X88481244Y-105077951D02*
X87860078Y-107396173D01*
X88650281Y-105123244D02*
X88029115Y-107441466D01*
X88415486Y-107544994D02*
X89036651Y-105226772D01*
X88819318Y-105168537D02*
X88198152Y-107486759D01*
X88940059Y-105200890D02*
X88318893Y-107519112D01*
X89012503Y-105220301D02*
X83410134Y-103719151D01*
X83410134Y-103719151D02*
X82788968Y-106037373D01*
X82788968Y-106037373D02*
X88391338Y-107538523D01*
G04 #@! TO.C,D8*
X113283146Y-131445611D02*
X112661980Y-133763833D01*
X113452183Y-131490905D02*
X112831017Y-133809127D01*
X113621220Y-131536198D02*
X113000054Y-133854420D01*
X113386425Y-133957948D02*
X114007590Y-131639726D01*
X113790257Y-131581491D02*
X113169091Y-133899713D01*
X113910998Y-131613844D02*
X113289832Y-133932066D01*
X113983442Y-131633255D02*
X108381073Y-130132105D01*
X108381073Y-130132105D02*
X107759907Y-132450327D01*
X107759907Y-132450327D02*
X113362277Y-133951477D01*
G04 #@! TO.C,D9*
X78781483Y-122200918D02*
X78160317Y-124519140D01*
X78950520Y-122246212D02*
X78329354Y-124564434D01*
X79119557Y-122291505D02*
X78498391Y-124609727D01*
X78884762Y-124713255D02*
X79505927Y-122395033D01*
X79288594Y-122336798D02*
X78667428Y-124655020D01*
X79409335Y-122369151D02*
X78788169Y-124687373D01*
X79481779Y-122388562D02*
X73879410Y-120887412D01*
X73879410Y-120887412D02*
X73258244Y-123205634D01*
X73258244Y-123205634D02*
X78860614Y-124706784D01*
G04 #@! TO.C,D10*
X147708167Y-76573231D02*
X147087001Y-78891453D01*
X147877204Y-76618525D02*
X147256038Y-78936747D01*
X148046241Y-76663818D02*
X147425075Y-78982040D01*
X147811446Y-79085568D02*
X148432611Y-76767346D01*
X148215278Y-76709111D02*
X147594112Y-79027333D01*
X148336019Y-76741464D02*
X147714853Y-79059686D01*
X148408463Y-76760875D02*
X142806094Y-75259725D01*
X142806094Y-75259725D02*
X142184928Y-77577947D01*
X142184928Y-77577947D02*
X147787298Y-79079097D01*
G04 #@! TO.C,D11*
X167341680Y-76903512D02*
X166720514Y-79221734D01*
X167510717Y-76948806D02*
X166889551Y-79267028D01*
X167679754Y-76994099D02*
X167058588Y-79312321D01*
X167444959Y-79415849D02*
X168066124Y-77097627D01*
X167848791Y-77039392D02*
X167227625Y-79357614D01*
X167969532Y-77071745D02*
X167348366Y-79389967D01*
X168041976Y-77091156D02*
X162439607Y-75590006D01*
X162439607Y-75590006D02*
X161818441Y-77908228D01*
X161818441Y-77908228D02*
X167420811Y-79409378D01*
G04 #@! TO.C,D12*
X162411177Y-95304399D02*
X161790011Y-97622621D01*
X162580214Y-95349693D02*
X161959048Y-97667915D01*
X162749251Y-95394986D02*
X162128085Y-97713208D01*
X162514456Y-97816736D02*
X163135621Y-95498514D01*
X162918288Y-95440279D02*
X162297122Y-97758501D01*
X163039029Y-95472632D02*
X162417863Y-97790854D01*
X163111473Y-95492043D02*
X157509104Y-93990893D01*
X157509104Y-93990893D02*
X156887938Y-96309115D01*
X156887938Y-96309115D02*
X162490308Y-97810265D01*
G04 #@! TO.C,D13*
X142777664Y-94974118D02*
X142156498Y-97292340D01*
X142946701Y-95019412D02*
X142325535Y-97337634D01*
X143115738Y-95064705D02*
X142494572Y-97382927D01*
X142880943Y-97486455D02*
X143502108Y-95168233D01*
X143284775Y-95109998D02*
X142663609Y-97428220D01*
X143405516Y-95142351D02*
X142784350Y-97460573D01*
X143477960Y-95161762D02*
X137875591Y-93660612D01*
X137875591Y-93660612D02*
X137254425Y-95978834D01*
X137254425Y-95978834D02*
X142856795Y-97479984D01*
G04 #@! TO.C,D14*
X157480674Y-113705286D02*
X156859508Y-116023508D01*
X157649711Y-113750580D02*
X157028545Y-116068802D01*
X157818748Y-113795873D02*
X157197582Y-116114095D01*
X157583953Y-116217623D02*
X158205118Y-113899401D01*
X157987785Y-113841166D02*
X157366619Y-116159388D01*
X158108526Y-113873519D02*
X157487360Y-116191741D01*
X158180970Y-113892930D02*
X152578601Y-112391780D01*
X152578601Y-112391780D02*
X151957435Y-114710002D01*
X151957435Y-114710002D02*
X157559805Y-116211152D01*
G04 #@! TO.C,D15*
X137847161Y-113375005D02*
X137225995Y-115693227D01*
X138016198Y-113420299D02*
X137395032Y-115738521D01*
X138185235Y-113465592D02*
X137564069Y-115783814D01*
X137950440Y-115887342D02*
X138571605Y-113569120D01*
X138354272Y-113510885D02*
X137733106Y-115829107D01*
X138475013Y-113543238D02*
X137853847Y-115861460D01*
X138547457Y-113562649D02*
X132945088Y-112061499D01*
X132945088Y-112061499D02*
X132323922Y-114379721D01*
X132323922Y-114379721D02*
X137926292Y-115880871D01*
G04 #@! TO.C,D16*
X132916658Y-131775892D02*
X132295492Y-134094114D01*
X133085695Y-131821186D02*
X132464529Y-134139408D01*
X133254732Y-131866479D02*
X132633566Y-134184701D01*
X133019937Y-134288229D02*
X133641102Y-131970007D01*
X133423769Y-131911772D02*
X132802603Y-134229994D01*
X133544510Y-131944125D02*
X132923344Y-134262347D01*
X133616954Y-131963536D02*
X128014585Y-130462386D01*
X128014585Y-130462386D02*
X127393419Y-132780608D01*
X127393419Y-132780608D02*
X132995789Y-134281758D01*
G04 #@! TO.C,D17*
X127986156Y-150176779D02*
X127364990Y-152495001D01*
X128155193Y-150222073D02*
X127534027Y-152540295D01*
X128324230Y-150267366D02*
X127703064Y-152585588D01*
X128089435Y-152689116D02*
X128710600Y-150370894D01*
X128493267Y-150312659D02*
X127872101Y-152630881D01*
X128614008Y-150345012D02*
X127992842Y-152663234D01*
X128686452Y-150364423D02*
X123084083Y-148863273D01*
X123084083Y-148863273D02*
X122462917Y-151181495D01*
X122462917Y-151181495D02*
X128065287Y-152682645D01*
G04 #@! TO.C,D18*
X108352643Y-149846498D02*
X107731477Y-152164720D01*
X108521680Y-149891792D02*
X107900514Y-152210014D01*
X108690717Y-149937085D02*
X108069551Y-152255307D01*
X108455922Y-152358835D02*
X109077087Y-150040613D01*
X108859754Y-149982378D02*
X108238588Y-152300600D01*
X108980495Y-150014731D02*
X108359329Y-152332953D01*
X109052939Y-150034142D02*
X103450570Y-148532992D01*
X103450570Y-148532992D02*
X102829404Y-150851214D01*
X102829404Y-150851214D02*
X108431774Y-152352364D01*
G04 #@! TO.C,D19*
X201678202Y-95964961D02*
X201057036Y-98283183D01*
X201847239Y-96010255D02*
X201226073Y-98328477D01*
X202016276Y-96055548D02*
X201395110Y-98373770D01*
X201781481Y-98477298D02*
X202402646Y-96159076D01*
X202185313Y-96100841D02*
X201564147Y-98419063D01*
X202306054Y-96133194D02*
X201684888Y-98451416D01*
X202378498Y-96152605D02*
X196776129Y-94651455D01*
X196776129Y-94651455D02*
X196154963Y-96969677D01*
X196154963Y-96969677D02*
X201757333Y-98470827D01*
G04 #@! TO.C,D20*
X184509941Y-86434237D02*
X183888775Y-88752459D01*
X184678978Y-86479531D02*
X184057812Y-88797753D01*
X184848015Y-86524824D02*
X184226849Y-88843046D01*
X184613220Y-88946574D02*
X185234385Y-86628352D01*
X185017052Y-86570117D02*
X184395886Y-88888339D01*
X185137793Y-86602470D02*
X184516627Y-88920692D01*
X185210237Y-86621881D02*
X179607868Y-85120731D01*
X179607868Y-85120731D02*
X178986702Y-87438953D01*
X178986702Y-87438953D02*
X184589072Y-88940103D01*
G04 #@! TO.C,D21*
X179579438Y-104835124D02*
X178958272Y-107153346D01*
X179748475Y-104880418D02*
X179127309Y-107198640D01*
X179917512Y-104925711D02*
X179296346Y-107243933D01*
X179682717Y-107347461D02*
X180303882Y-105029239D01*
X180086549Y-104971004D02*
X179465383Y-107289226D01*
X180207290Y-105003357D02*
X179586124Y-107321579D01*
X180279734Y-105022768D02*
X174677365Y-103521618D01*
X174677365Y-103521618D02*
X174056199Y-105839840D01*
X174056199Y-105839840D02*
X179658569Y-107340990D01*
G04 #@! TO.C,D22*
X196747699Y-114365848D02*
X196126533Y-116684070D01*
X196916736Y-114411142D02*
X196295570Y-116729364D01*
X197085773Y-114456435D02*
X196464607Y-116774657D01*
X196850978Y-116878185D02*
X197472143Y-114559963D01*
X197254810Y-114501728D02*
X196633644Y-116819950D01*
X197375551Y-114534081D02*
X196754385Y-116852303D01*
X197447995Y-114553492D02*
X191845626Y-113052342D01*
X191845626Y-113052342D02*
X191224460Y-115370564D01*
X191224460Y-115370564D02*
X196826830Y-116871714D01*
G04 #@! TO.C,D23*
X174648935Y-123236011D02*
X174027769Y-125554233D01*
X174817972Y-123281305D02*
X174196806Y-125599527D01*
X174987009Y-123326598D02*
X174365843Y-125644820D01*
X174752214Y-125748348D02*
X175373379Y-123430126D01*
X175156046Y-123371891D02*
X174534880Y-125690113D01*
X175276787Y-123404244D02*
X174655621Y-125722466D01*
X175349231Y-123423655D02*
X169746862Y-121922505D01*
X169746862Y-121922505D02*
X169125696Y-124240727D01*
X169125696Y-124240727D02*
X174728066Y-125741877D01*
G04 #@! TO.C,D24*
X152550171Y-132106173D02*
X151929005Y-134424395D01*
X152719208Y-132151467D02*
X152098042Y-134469689D01*
X152888245Y-132196760D02*
X152267079Y-134514982D01*
X152653450Y-134618510D02*
X153274615Y-132300288D01*
X153057282Y-132242053D02*
X152436116Y-134560275D01*
X153178023Y-132274406D02*
X152556857Y-134592628D01*
X153250467Y-132293817D02*
X147648098Y-130792667D01*
X147648098Y-130792667D02*
X147026932Y-133110889D01*
X147026932Y-133110889D02*
X152629302Y-134612039D01*
G04 #@! TO.C,D25*
X169718432Y-141636898D02*
X169097266Y-143955120D01*
X169887469Y-141682192D02*
X169266303Y-144000414D01*
X170056506Y-141727485D02*
X169435340Y-144045707D01*
X169821711Y-144149235D02*
X170442876Y-141831013D01*
X170225543Y-141772778D02*
X169604377Y-144091000D01*
X170346284Y-141805131D02*
X169725118Y-144123353D01*
X170418728Y-141824542D02*
X164816359Y-140323392D01*
X164816359Y-140323392D02*
X164195193Y-142641614D01*
X164195193Y-142641614D02*
X169797563Y-144142764D01*
G04 #@! TO.C,D26*
X147619668Y-150507060D02*
X146998502Y-152825282D01*
X147788705Y-150552354D02*
X147167539Y-152870576D01*
X147957742Y-150597647D02*
X147336576Y-152915869D01*
X147722947Y-153019397D02*
X148344112Y-150701175D01*
X148126779Y-150642940D02*
X147505613Y-152961162D01*
X148247520Y-150675293D02*
X147626354Y-152993515D01*
X148319964Y-150694704D02*
X142717595Y-149193554D01*
X142717595Y-149193554D02*
X142096429Y-151511776D01*
X142096429Y-151511776D02*
X147698799Y-153012926D01*
G04 #@! TO.C,D27*
X164787930Y-160037785D02*
X164166764Y-162356007D01*
X164956967Y-160083079D02*
X164335801Y-162401301D01*
X165126004Y-160128372D02*
X164504838Y-162446594D01*
X164891209Y-162550122D02*
X165512374Y-160231900D01*
X165295041Y-160173665D02*
X164673875Y-162491887D01*
X165415782Y-160206018D02*
X164794616Y-162524240D01*
X165488226Y-160225429D02*
X159885857Y-158724279D01*
X159885857Y-158724279D02*
X159264691Y-161042501D01*
X159264691Y-161042501D02*
X164867061Y-162543651D01*
G04 #@! TO.C,D28*
X213915961Y-123896573D02*
X213294795Y-126214795D01*
X214084998Y-123941867D02*
X213463832Y-126260089D01*
X214254035Y-123987160D02*
X213632869Y-126305382D01*
X214019240Y-126408910D02*
X214640405Y-124090688D01*
X214423072Y-124032453D02*
X213801906Y-126350675D01*
X214543813Y-124064806D02*
X213922647Y-126383028D01*
X214616257Y-124084217D02*
X209013888Y-122583067D01*
X209013888Y-122583067D02*
X208392722Y-124901289D01*
X208392722Y-124901289D02*
X213995092Y-126402439D01*
G04 #@! TO.C,D29*
X191817197Y-132766735D02*
X191196031Y-135084957D01*
X191986234Y-132812029D02*
X191365068Y-135130251D01*
X192155271Y-132857322D02*
X191534105Y-135175544D01*
X191920476Y-135279072D02*
X192541641Y-132960850D01*
X192324308Y-132902615D02*
X191703142Y-135220837D01*
X192445049Y-132934968D02*
X191823883Y-135253190D01*
X192517493Y-132954379D02*
X186915124Y-131453229D01*
X186915124Y-131453229D02*
X186293958Y-133771451D01*
X186293958Y-133771451D02*
X191896328Y-135272601D01*
G04 #@! TO.C,D30*
X208985458Y-142297460D02*
X208364292Y-144615682D01*
X209154495Y-142342754D02*
X208533329Y-144660976D01*
X209323532Y-142388047D02*
X208702366Y-144706269D01*
X209088737Y-144809797D02*
X209709902Y-142491575D01*
X209492569Y-142433340D02*
X208871403Y-144751562D01*
X209613310Y-142465693D02*
X208992144Y-144783915D01*
X209685754Y-142485104D02*
X204083385Y-140983954D01*
X204083385Y-140983954D02*
X203462219Y-143302176D01*
X203462219Y-143302176D02*
X209064589Y-144803326D01*
G04 #@! TO.C,D31*
X186886694Y-151167622D02*
X186265528Y-153485844D01*
X187055731Y-151212916D02*
X186434565Y-153531138D01*
X187224768Y-151258209D02*
X186603602Y-153576431D01*
X186989973Y-153679959D02*
X187611138Y-151361737D01*
X187393805Y-151303502D02*
X186772639Y-153621724D01*
X187514546Y-151335855D02*
X186893380Y-153654077D01*
X187586990Y-151355266D02*
X181984621Y-149854116D01*
X181984621Y-149854116D02*
X181363455Y-152172338D01*
X181363455Y-152172338D02*
X186965825Y-153673488D01*
G04 #@! TO.C,D32*
X181956191Y-169568509D02*
X181335025Y-171886731D01*
X182125228Y-169613803D02*
X181504062Y-171932025D01*
X182294265Y-169659096D02*
X181673099Y-171977318D01*
X182059470Y-172080846D02*
X182680635Y-169762624D01*
X182463302Y-169704389D02*
X181842136Y-172022611D01*
X182584043Y-169736742D02*
X181962877Y-172054964D01*
X182656487Y-169756153D02*
X177054118Y-168255003D01*
X177054118Y-168255003D02*
X176432952Y-170573225D01*
X176432952Y-170573225D02*
X182035322Y-172074375D01*
G04 #@! TO.C,D33*
X206612843Y-184080265D02*
X204294621Y-183459099D01*
X206567549Y-184249302D02*
X204249327Y-183628136D01*
X206522256Y-184418339D02*
X204204034Y-183797173D01*
X204100506Y-184183544D02*
X206418728Y-184804709D01*
X206476963Y-184587376D02*
X204158741Y-183966210D01*
X206444610Y-184708117D02*
X204126388Y-184086951D01*
X206425199Y-184780561D02*
X207926349Y-179178192D01*
X207926349Y-179178192D02*
X205608127Y-178557026D01*
X205608127Y-178557026D02*
X204106977Y-184159396D01*
G04 #@! TO.C,D34*
X232424518Y-126236376D02*
X231803352Y-123918154D01*
X232255481Y-126281670D02*
X231634315Y-123963448D01*
X232086444Y-126326963D02*
X231465278Y-124008741D01*
X231078908Y-124112269D02*
X231700073Y-126430491D01*
X231917407Y-126372256D02*
X231296241Y-124054034D01*
X231796666Y-126404609D02*
X231175500Y-124086387D01*
X231724221Y-126424020D02*
X237326591Y-124922870D01*
X237326591Y-124922870D02*
X236705425Y-122604648D01*
X236705425Y-122604648D02*
X231103056Y-124105798D01*
G04 #@! TO.C,D35*
X254523283Y-135106539D02*
X253902117Y-132788317D01*
X254354246Y-135151833D02*
X253733080Y-132833611D01*
X254185209Y-135197126D02*
X253564043Y-132878904D01*
X253177673Y-132982432D02*
X253798838Y-135300654D01*
X254016172Y-135242419D02*
X253395006Y-132924197D01*
X253895431Y-135274772D02*
X253274265Y-132956550D01*
X253822986Y-135294183D02*
X259425356Y-133793033D01*
X259425356Y-133793033D02*
X258804190Y-131474811D01*
X258804190Y-131474811D02*
X253201821Y-132975961D01*
G04 #@! TO.C,D36*
X237355021Y-144637263D02*
X236733855Y-142319041D01*
X237185984Y-144682557D02*
X236564818Y-142364335D01*
X237016947Y-144727850D02*
X236395781Y-142409628D01*
X236009411Y-142513156D02*
X236630576Y-144831378D01*
X236847910Y-144773143D02*
X236226744Y-142454921D01*
X236727169Y-144805496D02*
X236106003Y-142487274D01*
X236654724Y-144824907D02*
X242257094Y-143323757D01*
X242257094Y-143323757D02*
X241635928Y-141005535D01*
X241635928Y-141005535D02*
X236033559Y-142506685D01*
G04 #@! TO.C,D37*
X259453785Y-153507426D02*
X258832619Y-151189204D01*
X259284748Y-153552720D02*
X258663582Y-151234498D01*
X259115711Y-153598013D02*
X258494545Y-151279791D01*
X258108175Y-151383319D02*
X258729340Y-153701541D01*
X258946674Y-153643306D02*
X258325508Y-151325084D01*
X258825933Y-153675659D02*
X258204767Y-151357437D01*
X258753488Y-153695070D02*
X264355858Y-152193920D01*
X264355858Y-152193920D02*
X263734692Y-149875698D01*
X263734692Y-149875698D02*
X258132323Y-151376848D01*
G04 #@! TO.C,D38*
X264384288Y-171908313D02*
X263763122Y-169590091D01*
X264215251Y-171953607D02*
X263594085Y-169635385D01*
X264046214Y-171998900D02*
X263425048Y-169680678D01*
X263038678Y-169784206D02*
X263659843Y-172102428D01*
X263877177Y-172044193D02*
X263256011Y-169725971D01*
X263756436Y-172076546D02*
X263135270Y-169758324D01*
X263683991Y-172095957D02*
X269286361Y-170594807D01*
X269286361Y-170594807D02*
X268665195Y-168276585D01*
X268665195Y-168276585D02*
X263062826Y-169777735D01*
G04 #@! TO.C,D39*
X241443610Y-183361942D02*
X239125388Y-183983108D01*
X241488904Y-183530979D02*
X239170682Y-184152145D01*
X241534197Y-183700016D02*
X239215975Y-184321182D01*
X239319503Y-184707552D02*
X241637725Y-184086387D01*
X241579490Y-183869053D02*
X239261268Y-184490219D01*
X241611843Y-183989794D02*
X239293621Y-184610960D01*
X241631254Y-184062239D02*
X240130104Y-178459869D01*
X240130104Y-178459869D02*
X237811882Y-179081035D01*
X237811882Y-179081035D02*
X239313032Y-184683404D01*
G04 #@! TO.C,D40*
X244662277Y-98304765D02*
X244041111Y-95986543D01*
X244493240Y-98350059D02*
X243872074Y-96031837D01*
X244324203Y-98395352D02*
X243703037Y-96077130D01*
X243316667Y-96180658D02*
X243937832Y-98498880D01*
X244155166Y-98440645D02*
X243534000Y-96122423D01*
X244034425Y-98472998D02*
X243413259Y-96154776D01*
X243961980Y-98492409D02*
X249564350Y-96991259D01*
X249564350Y-96991259D02*
X248943184Y-94673037D01*
X248943184Y-94673037D02*
X243340815Y-96174187D01*
G04 #@! TO.C,D41*
X261830538Y-88774040D02*
X261209372Y-86455818D01*
X261661501Y-88819334D02*
X261040335Y-86501112D01*
X261492464Y-88864627D02*
X260871298Y-86546405D01*
X260484928Y-86649933D02*
X261106093Y-88968155D01*
X261323427Y-88909920D02*
X260702261Y-86591698D01*
X261202686Y-88942273D02*
X260581520Y-86624051D01*
X261130241Y-88961684D02*
X266732611Y-87460534D01*
X266732611Y-87460534D02*
X266111445Y-85142312D01*
X266111445Y-85142312D02*
X260509076Y-86643462D01*
G04 #@! TO.C,D42*
X266761041Y-107174927D02*
X266139875Y-104856705D01*
X266592004Y-107220221D02*
X265970838Y-104901999D01*
X266422967Y-107265514D02*
X265801801Y-104947292D01*
X265415431Y-105050820D02*
X266036596Y-107369042D01*
X266253930Y-107310807D02*
X265632764Y-104992585D01*
X266133189Y-107343160D02*
X265512023Y-105024938D01*
X266060744Y-107362571D02*
X271663114Y-105861421D01*
X271663114Y-105861421D02*
X271041948Y-103543199D01*
X271041948Y-103543199D02*
X265439579Y-105044349D01*
G04 #@! TO.C,D43*
X249592780Y-116705652D02*
X248971614Y-114387430D01*
X249423743Y-116750946D02*
X248802577Y-114432724D01*
X249254706Y-116796239D02*
X248633540Y-114478017D01*
X248247170Y-114581545D02*
X248868335Y-116899767D01*
X249085669Y-116841532D02*
X248464503Y-114523310D01*
X248964928Y-116873885D02*
X248343762Y-114555663D01*
X248892483Y-116893296D02*
X254494853Y-115392146D01*
X254494853Y-115392146D02*
X253873687Y-113073924D01*
X253873687Y-113073924D02*
X248271318Y-114575074D01*
G04 #@! TO.C,D44*
X271691544Y-125575814D02*
X271070378Y-123257592D01*
X271522507Y-125621108D02*
X270901341Y-123302886D01*
X271353470Y-125666401D02*
X270732304Y-123348179D01*
X270345934Y-123451707D02*
X270967099Y-125769929D01*
X271184433Y-125711694D02*
X270563267Y-123393472D01*
X271063692Y-125744047D02*
X270442526Y-123425825D01*
X270991247Y-125763458D02*
X276593617Y-124262308D01*
X276593617Y-124262308D02*
X275972451Y-121944086D01*
X275972451Y-121944086D02*
X270370082Y-123445236D01*
G04 #@! TO.C,D45*
X293790308Y-134445977D02*
X293169142Y-132127755D01*
X293621271Y-134491271D02*
X293000105Y-132173049D01*
X293452234Y-134536564D02*
X292831068Y-132218342D01*
X292444698Y-132321870D02*
X293065863Y-134640092D01*
X293283197Y-134581857D02*
X292662031Y-132263635D01*
X293162456Y-134614210D02*
X292541290Y-132295988D01*
X293090011Y-134633621D02*
X298692381Y-133132471D01*
X298692381Y-133132471D02*
X298071215Y-130814249D01*
X298071215Y-130814249D02*
X292468846Y-132315399D01*
G04 #@! TO.C,D46*
X276622047Y-143976701D02*
X276000881Y-141658479D01*
X276453010Y-144021995D02*
X275831844Y-141703773D01*
X276283973Y-144067288D02*
X275662807Y-141749066D01*
X275276437Y-141852594D02*
X275897602Y-144170816D01*
X276114936Y-144112581D02*
X275493770Y-141794359D01*
X275994195Y-144144934D02*
X275373029Y-141826712D01*
X275921750Y-144164345D02*
X281524120Y-142663195D01*
X281524120Y-142663195D02*
X280902954Y-140344973D01*
X280902954Y-140344973D02*
X275300585Y-141846123D01*
G04 #@! TO.C,D47*
X298720811Y-152846864D02*
X298099645Y-150528642D01*
X298551774Y-152892158D02*
X297930608Y-150573936D01*
X298382737Y-152937451D02*
X297761571Y-150619229D01*
X297375201Y-150722757D02*
X297996366Y-153040979D01*
X298213700Y-152982744D02*
X297592534Y-150664522D01*
X298092959Y-153015097D02*
X297471793Y-150696875D01*
X298020514Y-153034508D02*
X303622884Y-151533358D01*
X303622884Y-151533358D02*
X303001718Y-149215136D01*
X303001718Y-149215136D02*
X297399349Y-150716286D01*
G04 #@! TO.C,D48*
X281552549Y-162377588D02*
X280931383Y-160059366D01*
X281383512Y-162422882D02*
X280762346Y-160104660D01*
X281214475Y-162468175D02*
X280593309Y-160149953D01*
X280206939Y-160253481D02*
X280828104Y-162571703D01*
X281045438Y-162513468D02*
X280424272Y-160195246D01*
X280924697Y-162545821D02*
X280303531Y-160227599D01*
X280852252Y-162565232D02*
X286454622Y-161064082D01*
X286454622Y-161064082D02*
X285833456Y-158745860D01*
X285833456Y-158745860D02*
X280231087Y-160247010D01*
G04 #@! TO.C,D49*
X298632312Y-78913035D02*
X298011146Y-76594813D01*
X298463275Y-78958329D02*
X297842109Y-76640107D01*
X298294238Y-79003622D02*
X297673072Y-76685400D01*
X297286702Y-76788928D02*
X297907867Y-79107150D01*
X298125201Y-79048915D02*
X297504035Y-76730693D01*
X298004460Y-79081268D02*
X297383294Y-76763046D01*
X297932015Y-79100679D02*
X303534385Y-77599529D01*
X303534385Y-77599529D02*
X302913219Y-75281307D01*
X302913219Y-75281307D02*
X297310850Y-76782457D01*
G04 #@! TO.C,D50*
X278998800Y-79243316D02*
X278377634Y-76925094D01*
X278829763Y-79288610D02*
X278208597Y-76970388D01*
X278660726Y-79333903D02*
X278039560Y-77015681D01*
X277653190Y-77119209D02*
X278274355Y-79437431D01*
X278491689Y-79379196D02*
X277870523Y-77060974D01*
X278370948Y-79411549D02*
X277749782Y-77093327D01*
X278298503Y-79430960D02*
X283900873Y-77929810D01*
X283900873Y-77929810D02*
X283279707Y-75611588D01*
X283279707Y-75611588D02*
X277677338Y-77112738D01*
G04 #@! TO.C,D51*
X283929302Y-97644203D02*
X283308136Y-95325981D01*
X283760265Y-97689497D02*
X283139099Y-95371275D01*
X283591228Y-97734790D02*
X282970062Y-95416568D01*
X282583692Y-95520096D02*
X283204857Y-97838318D01*
X283422191Y-97780083D02*
X282801025Y-95461861D01*
X283301450Y-97812436D02*
X282680284Y-95494214D01*
X283229005Y-97831847D02*
X288831375Y-96330697D01*
X288831375Y-96330697D02*
X288210209Y-94012475D01*
X288210209Y-94012475D02*
X282607840Y-95513625D01*
G04 #@! TO.C,D52*
X303562815Y-97313922D02*
X302941649Y-94995700D01*
X303393778Y-97359216D02*
X302772612Y-95040994D01*
X303224741Y-97404509D02*
X302603575Y-95086287D01*
X302217205Y-95189815D02*
X302838370Y-97508037D01*
X303055704Y-97449802D02*
X302434538Y-95131580D01*
X302934963Y-97482155D02*
X302313797Y-95163933D01*
X302862518Y-97501566D02*
X308464888Y-96000416D01*
X308464888Y-96000416D02*
X307843722Y-93682194D01*
X307843722Y-93682194D02*
X302241353Y-95183344D01*
G04 #@! TO.C,D53*
X288859805Y-116045090D02*
X288238639Y-113726868D01*
X288690768Y-116090384D02*
X288069602Y-113772162D01*
X288521731Y-116135677D02*
X287900565Y-113817455D01*
X287514195Y-113920983D02*
X288135360Y-116239205D01*
X288352694Y-116180970D02*
X287731528Y-113862748D01*
X288231953Y-116213323D02*
X287610787Y-113895101D01*
X288159508Y-116232734D02*
X293761878Y-114731584D01*
X293761878Y-114731584D02*
X293140712Y-112413362D01*
X293140712Y-112413362D02*
X287538343Y-113914512D01*
G04 #@! TO.C,D54*
X308493318Y-115714809D02*
X307872152Y-113396587D01*
X308324281Y-115760103D02*
X307703115Y-113441881D01*
X308155244Y-115805396D02*
X307534078Y-113487174D01*
X307147708Y-113590702D02*
X307768873Y-115908924D01*
X307986207Y-115850689D02*
X307365041Y-113532467D01*
X307865466Y-115883042D02*
X307244300Y-113564820D01*
X307793021Y-115902453D02*
X313395391Y-114401303D01*
X313395391Y-114401303D02*
X312774225Y-112083081D01*
X312774225Y-112083081D02*
X307171856Y-113584231D01*
G04 #@! TO.C,D55*
X313423821Y-134115696D02*
X312802655Y-131797474D01*
X313254784Y-134160990D02*
X312633618Y-131842768D01*
X313085747Y-134206283D02*
X312464581Y-131888061D01*
X312078211Y-131991589D02*
X312699376Y-134309811D01*
X312916710Y-134251576D02*
X312295544Y-131933354D01*
X312795969Y-134283929D02*
X312174803Y-131965707D01*
X312723524Y-134303340D02*
X318325894Y-132802190D01*
X318325894Y-132802190D02*
X317704728Y-130483968D01*
X317704728Y-130483968D02*
X312102359Y-131985118D01*
G04 #@! TO.C,D56*
X318354323Y-152516583D02*
X317733157Y-150198361D01*
X318185286Y-152561877D02*
X317564120Y-150243655D01*
X318016249Y-152607170D02*
X317395083Y-150288948D01*
X317008713Y-150392476D02*
X317629878Y-152710698D01*
X317847212Y-152652463D02*
X317226046Y-150334241D01*
X317726471Y-152684816D02*
X317105305Y-150366594D01*
X317654026Y-152704227D02*
X323256396Y-151203077D01*
X323256396Y-151203077D02*
X322635230Y-148884855D01*
X322635230Y-148884855D02*
X317032861Y-150386005D01*
G04 #@! TO.C,D57*
X337987836Y-152186302D02*
X337366670Y-149868080D01*
X337818799Y-152231596D02*
X337197633Y-149913374D01*
X337649762Y-152276889D02*
X337028596Y-149958667D01*
X336642226Y-150062195D02*
X337263391Y-152380417D01*
X337480725Y-152322182D02*
X336859559Y-150003960D01*
X337359984Y-152354535D02*
X336738818Y-150036313D01*
X337287539Y-152373946D02*
X342889909Y-150872796D01*
X342889909Y-150872796D02*
X342268743Y-148554574D01*
X342268743Y-148554574D02*
X336666374Y-150055724D01*
G04 #@! TO.C,D58*
X318265825Y-78582754D02*
X317644659Y-76264532D01*
X318096788Y-78628048D02*
X317475622Y-76309826D01*
X317927751Y-78673341D02*
X317306585Y-76355119D01*
X316920215Y-76458647D02*
X317541380Y-78776869D01*
X317758714Y-78718634D02*
X317137548Y-76400412D01*
X317637973Y-78750987D02*
X317016807Y-76432765D01*
X317565528Y-78770398D02*
X323167898Y-77269248D01*
X323167898Y-77269248D02*
X322546732Y-74951026D01*
X322546732Y-74951026D02*
X316944363Y-76452176D01*
G04 #@! TO.C,D59*
X345867155Y-71186999D02*
X345245989Y-68868777D01*
X345698118Y-71232293D02*
X345076952Y-68914071D01*
X345529081Y-71277586D02*
X344907915Y-68959364D01*
X344521545Y-69062892D02*
X345142710Y-71381114D01*
X345360044Y-71322879D02*
X344738878Y-69004657D01*
X345239303Y-71355232D02*
X344618137Y-69037010D01*
X345166858Y-71374643D02*
X350769228Y-69873493D01*
X350769228Y-69873493D02*
X350148062Y-67555271D01*
X350148062Y-67555271D02*
X344545693Y-69056421D01*
G04 #@! TO.C,D60*
X346197436Y-90820512D02*
X345576270Y-88502290D01*
X346028399Y-90865806D02*
X345407233Y-88547584D01*
X345859362Y-90911099D02*
X345238196Y-88592877D01*
X344851826Y-88696405D02*
X345472991Y-91014627D01*
X345690325Y-90956392D02*
X345069159Y-88638170D01*
X345569584Y-90988745D02*
X344948418Y-88670523D01*
X345497139Y-91008156D02*
X351099509Y-89507006D01*
X351099509Y-89507006D02*
X350478343Y-87188784D01*
X350478343Y-87188784D02*
X344875974Y-88689934D01*
G04 #@! TO.C,D61*
X323196328Y-96983641D02*
X322575162Y-94665419D01*
X323027291Y-97028935D02*
X322406125Y-94710713D01*
X322858254Y-97074228D02*
X322237088Y-94756006D01*
X321850718Y-94859534D02*
X322471883Y-97177756D01*
X322689217Y-97119521D02*
X322068051Y-94801299D01*
X322568476Y-97151874D02*
X321947310Y-94833652D01*
X322496031Y-97171285D02*
X328098401Y-95670135D01*
X328098401Y-95670135D02*
X327477235Y-93351913D01*
X327477235Y-93351913D02*
X321874866Y-94853063D01*
G04 #@! TO.C,D62*
X358028272Y-107372461D02*
X357407106Y-105054239D01*
X357859235Y-107417755D02*
X357238069Y-105099533D01*
X357690198Y-107463048D02*
X357069032Y-105144826D01*
X356682662Y-105248354D02*
X357303827Y-107566576D01*
X357521161Y-107508341D02*
X356899995Y-105190119D01*
X357400420Y-107540694D02*
X356779254Y-105222472D01*
X357327975Y-107560105D02*
X362930345Y-106058955D01*
X362930345Y-106058955D02*
X362309179Y-103740733D01*
X362309179Y-103740733D02*
X356706810Y-105241883D01*
G04 #@! TO.C,D63*
X328126831Y-115384528D02*
X327505665Y-113066306D01*
X327957794Y-115429822D02*
X327336628Y-113111600D01*
X327788757Y-115475115D02*
X327167591Y-113156893D01*
X326781221Y-113260421D02*
X327402386Y-115578643D01*
X327619720Y-115520408D02*
X326998554Y-113202186D01*
X327498979Y-115552761D02*
X326877813Y-113234539D01*
X327426534Y-115572172D02*
X333028904Y-114071022D01*
X333028904Y-114071022D02*
X332407738Y-111752800D01*
X332407738Y-111752800D02*
X326805369Y-113253950D01*
G04 #@! TO.C,D64*
X333057333Y-133785415D02*
X332436167Y-131467193D01*
X332888296Y-133830709D02*
X332267130Y-131512487D01*
X332719259Y-133876002D02*
X332098093Y-131557780D01*
X331711723Y-131661308D02*
X332332888Y-133979530D01*
X332550222Y-133921295D02*
X331929056Y-131603073D01*
X332429481Y-133953648D02*
X331808315Y-131635426D01*
X332357036Y-133973059D02*
X337959406Y-132471909D01*
X337959406Y-132471909D02*
X337338240Y-130153687D01*
X337338240Y-130153687D02*
X331735871Y-131654837D01*
G04 #@! TO.C,D65*
X358358553Y-127005973D02*
X357737387Y-124687751D01*
X358189516Y-127051267D02*
X357568350Y-124733045D01*
X358020479Y-127096560D02*
X357399313Y-124778338D01*
X357012943Y-124881866D02*
X357634108Y-127200088D01*
X357851442Y-127141853D02*
X357230276Y-124823631D01*
X357730701Y-127174206D02*
X357109535Y-124855984D01*
X357658256Y-127193617D02*
X363260626Y-125692467D01*
X363260626Y-125692467D02*
X362639460Y-123374245D01*
X362639460Y-123374245D02*
X357037091Y-124875395D01*
G04 #@! TO.C,D66*
X383659773Y-120226532D02*
X383038607Y-117908310D01*
X383490736Y-120271826D02*
X382869570Y-117953604D01*
X383321699Y-120317119D02*
X382700533Y-117998897D01*
X382314163Y-118102425D02*
X382935328Y-120420647D01*
X383152662Y-120362412D02*
X382531496Y-118044190D01*
X383031921Y-120394765D02*
X382410755Y-118076543D01*
X382959476Y-120414176D02*
X388561846Y-118913026D01*
X388561846Y-118913026D02*
X387940680Y-116594804D01*
X387940680Y-116594804D02*
X382338311Y-118095954D01*
D11*
G04 #@! TO.C,J_GND1*
X204884500Y-89460250D02*
X204884500Y-87760250D01*
X204884500Y-87760250D02*
X204884500Y-87260250D01*
X204884500Y-87260250D02*
X207484500Y-87260250D01*
X207484500Y-87260250D02*
X207484500Y-89460250D01*
X207484500Y-89460250D02*
X204884500Y-89460250D01*
G04 #@! TO.C,J_RGB1*
X205043250Y-82951500D02*
X205043250Y-81251500D01*
X205043250Y-81251500D02*
X205043250Y-80751500D01*
X205043250Y-80751500D02*
X207643250Y-80751500D01*
X207643250Y-80751500D02*
X207643250Y-82951500D01*
X207643250Y-82951500D02*
X205043250Y-82951500D01*
G04 #@! TO.C,J_VCC1*
X238063250Y-89936500D02*
X238063250Y-88236500D01*
X238063250Y-88236500D02*
X238063250Y-87736500D01*
X238063250Y-87736500D02*
X240663250Y-87736500D01*
X240663250Y-87736500D02*
X240663250Y-89936500D01*
X240663250Y-89936500D02*
X238063250Y-89936500D01*
G04 #@! TO.C,SW_1*
X240203250Y-81297750D02*
X240653250Y-80847750D01*
X243603250Y-81297750D02*
X243153250Y-80847750D01*
X243603250Y-85897750D02*
X243153250Y-86347750D01*
X240203250Y-85897750D02*
X240653250Y-86347750D01*
X244653250Y-84597750D02*
X244653250Y-82597750D01*
X240653250Y-80847750D02*
X243153250Y-80847750D01*
X239153250Y-84597750D02*
X239153250Y-82597750D01*
X240653250Y-86347750D02*
X243153250Y-86347750D01*
G04 #@! TO.C,K_Comma1*
D10*
X302896041Y-144826707D02*
X302637222Y-143860781D01*
X302344084Y-144974604D02*
X302610155Y-144311723D01*
X302085265Y-144008678D02*
X302785119Y-144412739D01*
X302184747Y-145115895D02*
X301448804Y-145313091D01*
X300617565Y-145338625D02*
X300675886Y-145372297D01*
X300826200Y-145381319D01*
X300918193Y-145356670D01*
X301043858Y-145273699D01*
X301111201Y-145157057D01*
X301132548Y-145052739D01*
X301129246Y-144856428D01*
X301092272Y-144718439D01*
X300996976Y-144546778D01*
X300926331Y-144467110D01*
X300809688Y-144399766D01*
X300659374Y-144390744D01*
X300567381Y-144415393D01*
X300441716Y-144498364D01*
X300408045Y-144556685D01*
X300090257Y-145578515D02*
X300169925Y-145507869D01*
X300203597Y-145449548D01*
X300224944Y-145345230D01*
X300150995Y-145069251D01*
X300080349Y-144989583D01*
X300022028Y-144955911D01*
X299917711Y-144934564D01*
X299779721Y-144971538D01*
X299700053Y-145042184D01*
X299666381Y-145100505D01*
X299645034Y-145204823D01*
X299718983Y-145480802D01*
X299789628Y-145560470D01*
X299847950Y-145594142D01*
X299952267Y-145615489D01*
X300090257Y-145578515D01*
X299354313Y-145775710D02*
X299181767Y-145131760D01*
X299206417Y-145223752D02*
X299148095Y-145190081D01*
X299043778Y-145168734D01*
X298905788Y-145205708D01*
X298826120Y-145276354D01*
X298804773Y-145380671D01*
X298940345Y-145886633D01*
X298804773Y-145380671D02*
X298734127Y-145301003D01*
X298629810Y-145279656D01*
X298491820Y-145316630D01*
X298412152Y-145387276D01*
X298390805Y-145491594D01*
X298526377Y-145997555D01*
X298066412Y-146120802D02*
X297893866Y-145476852D01*
X297918515Y-145568845D02*
X297860194Y-145535173D01*
X297755877Y-145513826D01*
X297617887Y-145550800D01*
X297538219Y-145621446D01*
X297516872Y-145725763D01*
X297652444Y-146231725D01*
X297516872Y-145725763D02*
X297446226Y-145646095D01*
X297341908Y-145624748D01*
X297203919Y-145661722D01*
X297124251Y-145732368D01*
X297102904Y-145836686D01*
X297238476Y-146342647D01*
X296364543Y-146576817D02*
X296228971Y-146070856D01*
X296250318Y-145966538D01*
X296329986Y-145895892D01*
X296513972Y-145846593D01*
X296618290Y-145867940D01*
X296352218Y-146530820D02*
X296456536Y-146552167D01*
X296686518Y-146490544D01*
X296766186Y-146419898D01*
X296787533Y-146315580D01*
X296762884Y-146223587D01*
X296692238Y-146143919D01*
X296587920Y-146122572D01*
X296357938Y-146184195D01*
X296253620Y-146162848D01*
X295398617Y-146835636D02*
X295950575Y-146687739D01*
X295674596Y-146761687D02*
X295415777Y-145795762D01*
X295544744Y-145909102D01*
X295661386Y-145976445D01*
X295765704Y-145997792D01*
G04 #@! TO.C,K_RFn1*
X391454607Y-130958515D02*
X391195788Y-129992590D01*
X390902649Y-131106412D02*
X391168721Y-130443532D01*
X390643830Y-130140486D02*
X391343684Y-130544547D01*
X390743313Y-131247704D02*
X390007369Y-131444899D01*
X389200780Y-131562426D02*
X389399508Y-131016189D01*
X389752738Y-131414530D02*
X389493919Y-130448604D01*
X389125947Y-130547202D01*
X389046279Y-130617848D01*
X389012607Y-130676169D01*
X388991260Y-130780486D01*
X389028234Y-130918476D01*
X389098880Y-130998144D01*
X389157201Y-131031816D01*
X389261519Y-131053163D01*
X389629490Y-130954565D01*
X388329265Y-131253661D02*
X388651240Y-131167388D01*
X388786812Y-131673349D02*
X388527993Y-130707423D01*
X388068028Y-130830670D01*
X387786329Y-131251243D02*
X387958875Y-131895194D01*
X387810979Y-131343236D02*
X387752658Y-131309564D01*
X387648340Y-131288217D01*
X387510350Y-131325192D01*
X387430682Y-131395837D01*
X387409335Y-131500155D01*
X387544907Y-132006116D01*
X386578981Y-132264935D02*
X387130939Y-132117039D01*
X386854960Y-132190987D02*
X386596141Y-131225061D01*
X386725108Y-131338401D01*
X386841750Y-131405745D01*
X386946068Y-131427092D01*
G04 #@! TO.C,K_LShift1*
X75949972Y-136861155D02*
X76208791Y-135895229D01*
X75398014Y-136713258D02*
X75959879Y-136272223D01*
X75656833Y-135747333D02*
X76060894Y-136447187D01*
X75189379Y-136755952D02*
X74453435Y-136558757D01*
X73788138Y-136281893D02*
X74248102Y-136405141D01*
X74506921Y-135439215D01*
X73524484Y-136161949D02*
X73374170Y-136170971D01*
X73144187Y-136109347D01*
X73064519Y-136038701D01*
X73030847Y-135980380D01*
X73009500Y-135876063D01*
X73034150Y-135784070D01*
X73104796Y-135704401D01*
X73163117Y-135670730D01*
X73267434Y-135649383D01*
X73463745Y-135652685D01*
X73568063Y-135631338D01*
X73626384Y-135597666D01*
X73697030Y-135517998D01*
X73721679Y-135426005D01*
X73700332Y-135321687D01*
X73666660Y-135263366D01*
X73586992Y-135192720D01*
X73357010Y-135131097D01*
X73206696Y-135140119D01*
X72546233Y-135949126D02*
X72805052Y-134983200D01*
X72132265Y-135838204D02*
X72267837Y-135332242D01*
X72338483Y-135252574D01*
X72442800Y-135231227D01*
X72580790Y-135268201D01*
X72660458Y-135338847D01*
X72694130Y-135397168D01*
X71672300Y-135714956D02*
X71844846Y-135071006D01*
X71931119Y-134749031D02*
X71964791Y-134807352D01*
X71906470Y-134841024D01*
X71872798Y-134782702D01*
X71931119Y-134749031D01*
X71906470Y-134841024D01*
X71522871Y-134984733D02*
X71154899Y-134886135D01*
X71212336Y-135591709D02*
X71434180Y-134763773D01*
X71412833Y-134659455D01*
X71333165Y-134588809D01*
X71241172Y-134564160D01*
X70970913Y-134836836D02*
X70602942Y-134738238D01*
X70919197Y-134477887D02*
X70697352Y-135305823D01*
X70626706Y-135385491D01*
X70522389Y-135406838D01*
X70430396Y-135382189D01*
X69602459Y-135160344D02*
X70154417Y-135308241D01*
X69878438Y-135234292D02*
X70137257Y-134268367D01*
X70192276Y-134431005D01*
X70259619Y-134547648D01*
X70339288Y-134618294D01*
G04 #@! TO.C,D1*
D12*
X125545051Y-79175054D02*
X125752106Y-78402313D01*
X125568120Y-78353015D01*
X125447869Y-78360232D01*
X125354555Y-78414107D01*
X125298038Y-78477842D01*
X125221802Y-78615171D01*
X125192223Y-78725562D01*
X125189581Y-78882611D01*
X125206658Y-78966065D01*
X125260533Y-79059379D01*
X125361065Y-79125755D01*
X125545051Y-79175054D01*
X124367541Y-78859541D02*
X124809107Y-78977859D01*
X124588324Y-78918700D02*
X124795380Y-78145959D01*
X124839395Y-78276070D01*
X124893269Y-78369384D01*
X124957004Y-78425901D01*
G04 #@! TO.C,D2*
X107144164Y-74244551D02*
X107351219Y-73471810D01*
X107167233Y-73422512D01*
X107046982Y-73429729D01*
X106953668Y-73483604D01*
X106897151Y-73547339D01*
X106820915Y-73684668D01*
X106791336Y-73795059D01*
X106788694Y-73952108D01*
X106805771Y-74035562D01*
X106859646Y-74128876D01*
X106960178Y-74195252D01*
X107144164Y-74244551D01*
X106595556Y-73348209D02*
X106568619Y-73301552D01*
X106504884Y-73245036D01*
X106320898Y-73195737D01*
X106237444Y-73212814D01*
X106190787Y-73239752D01*
X106134270Y-73303486D01*
X106114551Y-73377081D01*
X106121769Y-73497332D01*
X106445018Y-74057215D01*
X105966654Y-73929038D01*
G04 #@! TO.C,D3*
X88743277Y-69314049D02*
X88950332Y-68541308D01*
X88766346Y-68492010D01*
X88646095Y-68499227D01*
X88552781Y-68553102D01*
X88496264Y-68616837D01*
X88420028Y-68754166D01*
X88390449Y-68864557D01*
X88387807Y-69021606D01*
X88404884Y-69105060D01*
X88458759Y-69198374D01*
X88559291Y-69264750D01*
X88743277Y-69314049D01*
X88251186Y-68353973D02*
X87772823Y-68225796D01*
X87951525Y-68589192D01*
X87841133Y-68559612D01*
X87757679Y-68576690D01*
X87711022Y-68603627D01*
X87654505Y-68667362D01*
X87605206Y-68851348D01*
X87622284Y-68934802D01*
X87649221Y-68981459D01*
X87712956Y-69037975D01*
X87933739Y-69097134D01*
X88017193Y-69080057D01*
X88063850Y-69053119D01*
G04 #@! TO.C,D4*
X120614548Y-97575941D02*
X120821603Y-96803200D01*
X120637617Y-96753902D01*
X120517366Y-96761119D01*
X120424052Y-96814994D01*
X120367535Y-96878729D01*
X120291299Y-97016058D01*
X120261720Y-97126449D01*
X120259078Y-97283498D01*
X120276155Y-97366952D01*
X120330030Y-97460266D01*
X120430562Y-97526642D01*
X120614548Y-97575941D01*
X119648669Y-96764988D02*
X119510633Y-97280148D01*
X119911534Y-96519909D02*
X119947623Y-97121165D01*
X119469260Y-96992988D01*
G04 #@! TO.C,D5*
X97613440Y-91412813D02*
X97820495Y-90640072D01*
X97636509Y-90590774D01*
X97516258Y-90597991D01*
X97422944Y-90651866D01*
X97366427Y-90715601D01*
X97290191Y-90852930D01*
X97260612Y-90963321D01*
X97257970Y-91120370D01*
X97275047Y-91203824D01*
X97328922Y-91297138D01*
X97429454Y-91363514D01*
X97613440Y-91412813D01*
X96679783Y-90334420D02*
X97047754Y-90433017D01*
X96985954Y-90810849D01*
X96959016Y-90764192D01*
X96895282Y-90707675D01*
X96711296Y-90658376D01*
X96627842Y-90675454D01*
X96581185Y-90702391D01*
X96524668Y-90766126D01*
X96475369Y-90950112D01*
X96492447Y-91033566D01*
X96519384Y-91080223D01*
X96583119Y-91136739D01*
X96767105Y-91186038D01*
X96850559Y-91168961D01*
X96897216Y-91142023D01*
G04 #@! TO.C,D6*
X115684046Y-115976828D02*
X115891101Y-115204087D01*
X115707115Y-115154789D01*
X115586864Y-115162006D01*
X115493550Y-115215881D01*
X115437033Y-115279616D01*
X115360797Y-115416945D01*
X115331218Y-115527336D01*
X115328576Y-115684385D01*
X115345653Y-115767839D01*
X115399528Y-115861153D01*
X115500060Y-115927529D01*
X115684046Y-115976828D01*
X114787186Y-114908294D02*
X114934375Y-114947733D01*
X114998109Y-115004250D01*
X115025047Y-115050907D01*
X115069062Y-115181018D01*
X115066420Y-115338067D01*
X114987541Y-115632444D01*
X114931025Y-115696179D01*
X114884368Y-115723116D01*
X114800914Y-115740194D01*
X114653725Y-115700754D01*
X114589990Y-115644238D01*
X114563053Y-115597581D01*
X114545975Y-115514127D01*
X114595274Y-115330141D01*
X114651791Y-115266406D01*
X114698448Y-115239469D01*
X114781902Y-115222391D01*
X114929091Y-115261830D01*
X114992825Y-115318347D01*
X115019763Y-115365004D01*
X115036840Y-115448458D01*
G04 #@! TO.C,D7*
X85782604Y-107964761D02*
X85989659Y-107192020D01*
X85805673Y-107142722D01*
X85685422Y-107149939D01*
X85592108Y-107203814D01*
X85535591Y-107267549D01*
X85459355Y-107404878D01*
X85429776Y-107515269D01*
X85427134Y-107672318D01*
X85444211Y-107755772D01*
X85498086Y-107849086D01*
X85598618Y-107915462D01*
X85782604Y-107964761D01*
X85290513Y-107004685D02*
X84775352Y-106866648D01*
X84899472Y-107728127D01*
G04 #@! TO.C,D8*
X110753543Y-134377715D02*
X110960598Y-133604974D01*
X110776612Y-133555676D01*
X110656361Y-133562893D01*
X110563047Y-133616768D01*
X110506530Y-133680503D01*
X110430294Y-133817832D01*
X110400715Y-133928223D01*
X110398073Y-134085272D01*
X110415150Y-134168726D01*
X110469025Y-134262040D01*
X110569557Y-134328416D01*
X110753543Y-134377715D01*
X109988728Y-133699514D02*
X110072182Y-133682437D01*
X110118839Y-133655499D01*
X110175356Y-133591765D01*
X110185216Y-133554968D01*
X110168138Y-133471514D01*
X110141200Y-133424857D01*
X110077466Y-133368340D01*
X109930277Y-133328901D01*
X109846823Y-133345978D01*
X109800166Y-133372916D01*
X109743649Y-133436650D01*
X109733790Y-133473448D01*
X109750867Y-133556902D01*
X109777805Y-133603559D01*
X109841539Y-133660075D01*
X109988728Y-133699514D01*
X110052463Y-133756031D01*
X110079400Y-133802688D01*
X110096478Y-133886142D01*
X110057038Y-134033331D01*
X110000522Y-134097066D01*
X109953865Y-134124003D01*
X109870411Y-134141081D01*
X109723222Y-134101641D01*
X109659487Y-134045125D01*
X109632550Y-133998468D01*
X109615472Y-133915014D01*
X109654911Y-133767825D01*
X109711428Y-133704090D01*
X109758085Y-133677153D01*
X109841539Y-133660075D01*
G04 #@! TO.C,D9*
X76251880Y-125133022D02*
X76458935Y-124360281D01*
X76274949Y-124310983D01*
X76154698Y-124318200D01*
X76061384Y-124372075D01*
X76004867Y-124435810D01*
X75928631Y-124573139D01*
X75899052Y-124683530D01*
X75896410Y-124840579D01*
X75913487Y-124924033D01*
X75967362Y-125017347D01*
X76067894Y-125083723D01*
X76251880Y-125133022D01*
X75442342Y-124916107D02*
X75295153Y-124876668D01*
X75231419Y-124820151D01*
X75204481Y-124773494D01*
X75160466Y-124643383D01*
X75163108Y-124486335D01*
X75241986Y-124191957D01*
X75298503Y-124128223D01*
X75345160Y-124101285D01*
X75428614Y-124084208D01*
X75575803Y-124123647D01*
X75639537Y-124180164D01*
X75666475Y-124226821D01*
X75683553Y-124310275D01*
X75634254Y-124494261D01*
X75577737Y-124557995D01*
X75531080Y-124584933D01*
X75447626Y-124602010D01*
X75300437Y-124562571D01*
X75236703Y-124506054D01*
X75209765Y-124459397D01*
X75192688Y-124375943D01*
G04 #@! TO.C,D10*
X145546536Y-79603933D02*
X145753591Y-78831192D01*
X145569605Y-78781893D01*
X145449354Y-78789111D01*
X145356040Y-78842986D01*
X145299523Y-78906721D01*
X145223287Y-79044050D01*
X145193707Y-79154441D01*
X145191066Y-79311489D01*
X145208143Y-79394944D01*
X145262018Y-79488258D01*
X145362550Y-79554634D01*
X145546536Y-79603933D01*
X144369026Y-79288420D02*
X144810592Y-79406737D01*
X144589809Y-79347579D02*
X144796864Y-78574838D01*
X144840879Y-78704949D01*
X144894754Y-78798263D01*
X144958489Y-78854780D01*
X144097718Y-78387502D02*
X144024124Y-78367783D01*
X143940670Y-78384861D01*
X143894013Y-78411798D01*
X143837496Y-78475532D01*
X143761260Y-78612861D01*
X143711961Y-78796847D01*
X143709319Y-78953896D01*
X143726396Y-79037350D01*
X143753334Y-79084007D01*
X143817068Y-79140524D01*
X143890663Y-79160243D01*
X143974117Y-79143165D01*
X144020774Y-79116228D01*
X144077291Y-79052493D01*
X144153527Y-78915165D01*
X144202826Y-78731179D01*
X144205468Y-78574130D01*
X144188390Y-78490676D01*
X144161453Y-78444019D01*
X144097718Y-78387502D01*
G04 #@! TO.C,D11*
X165180049Y-79934214D02*
X165387104Y-79161473D01*
X165203118Y-79112174D01*
X165082867Y-79119392D01*
X164989553Y-79173267D01*
X164933036Y-79237002D01*
X164856800Y-79374331D01*
X164827220Y-79484722D01*
X164824579Y-79641770D01*
X164841656Y-79725225D01*
X164895531Y-79818539D01*
X164996063Y-79884915D01*
X165180049Y-79934214D01*
X164002539Y-79618701D02*
X164444105Y-79737018D01*
X164223322Y-79677860D02*
X164430377Y-78905119D01*
X164474392Y-79035230D01*
X164528267Y-79128544D01*
X164592002Y-79185061D01*
X163266596Y-79421506D02*
X163708162Y-79539823D01*
X163487379Y-79480664D02*
X163694434Y-78707924D01*
X163738449Y-78838035D01*
X163792324Y-78931349D01*
X163856058Y-78987865D01*
G04 #@! TO.C,D12*
X160249546Y-98335101D02*
X160456601Y-97562360D01*
X160272615Y-97513061D01*
X160152364Y-97520279D01*
X160059050Y-97574154D01*
X160002533Y-97637889D01*
X159926297Y-97775218D01*
X159896717Y-97885609D01*
X159894076Y-98042657D01*
X159911153Y-98126112D01*
X159965028Y-98219426D01*
X160065560Y-98285802D01*
X160249546Y-98335101D01*
X159072036Y-98019588D02*
X159513602Y-98137905D01*
X159292819Y-98078747D02*
X159499874Y-97306006D01*
X159543889Y-97436117D01*
X159597764Y-97529431D01*
X159661499Y-97585948D01*
X158964994Y-97241564D02*
X158938057Y-97194907D01*
X158874322Y-97138390D01*
X158690336Y-97089091D01*
X158606882Y-97106169D01*
X158560225Y-97133106D01*
X158503709Y-97196841D01*
X158483989Y-97270435D01*
X158491207Y-97390686D01*
X158814456Y-97950570D01*
X158336093Y-97822393D01*
G04 #@! TO.C,D13*
X140616033Y-98004820D02*
X140823088Y-97232079D01*
X140639102Y-97182780D01*
X140518851Y-97189998D01*
X140425537Y-97243873D01*
X140369020Y-97307608D01*
X140292784Y-97444937D01*
X140263204Y-97555328D01*
X140260563Y-97712376D01*
X140277640Y-97795831D01*
X140331515Y-97889145D01*
X140432047Y-97955521D01*
X140616033Y-98004820D01*
X139438523Y-97689307D02*
X139880089Y-97807624D01*
X139659306Y-97748466D02*
X139866361Y-96975725D01*
X139910376Y-97105836D01*
X139964251Y-97199150D01*
X140027986Y-97255667D01*
X139387998Y-96847548D02*
X138909635Y-96719371D01*
X139088337Y-97082767D01*
X138977945Y-97053187D01*
X138894491Y-97070265D01*
X138847834Y-97097203D01*
X138791317Y-97160937D01*
X138742019Y-97344923D01*
X138759096Y-97428377D01*
X138786034Y-97475034D01*
X138849768Y-97531551D01*
X139070551Y-97590709D01*
X139154005Y-97573632D01*
X139200662Y-97546694D01*
G04 #@! TO.C,D14*
X155319043Y-116735988D02*
X155526098Y-115963247D01*
X155342112Y-115913948D01*
X155221861Y-115921166D01*
X155128547Y-115975041D01*
X155072030Y-116038776D01*
X154995794Y-116176105D01*
X154966214Y-116286496D01*
X154963573Y-116443544D01*
X154980650Y-116526999D01*
X155034525Y-116620313D01*
X155135057Y-116686689D01*
X155319043Y-116735988D01*
X154141533Y-116420475D02*
X154583099Y-116538792D01*
X154362316Y-116479634D02*
X154569371Y-115706893D01*
X154613386Y-115837004D01*
X154667261Y-115930318D01*
X154730996Y-115986835D01*
X153617221Y-115727839D02*
X153479184Y-116242999D01*
X153880085Y-115482760D02*
X153916174Y-116084017D01*
X153437811Y-115955840D01*
G04 #@! TO.C,D15*
X135685530Y-116405707D02*
X135892585Y-115632966D01*
X135708599Y-115583667D01*
X135588348Y-115590885D01*
X135495034Y-115644760D01*
X135438517Y-115708495D01*
X135362281Y-115845824D01*
X135332701Y-115956215D01*
X135330060Y-116113263D01*
X135347137Y-116196718D01*
X135401012Y-116290032D01*
X135501544Y-116356408D01*
X135685530Y-116405707D01*
X134508020Y-116090194D02*
X134949586Y-116208511D01*
X134728803Y-116149353D02*
X134935858Y-115376612D01*
X134979873Y-115506723D01*
X135033748Y-115600037D01*
X135097483Y-115656554D01*
X134015929Y-115130118D02*
X134383901Y-115228716D01*
X134322100Y-115606547D01*
X134295163Y-115559890D01*
X134231428Y-115503373D01*
X134047442Y-115454074D01*
X133963988Y-115471152D01*
X133917331Y-115498090D01*
X133860814Y-115561824D01*
X133811516Y-115745810D01*
X133828593Y-115829264D01*
X133855531Y-115875921D01*
X133919265Y-115932438D01*
X134103251Y-115981737D01*
X134186705Y-115964659D01*
X134233362Y-115937722D01*
G04 #@! TO.C,D16*
X130755027Y-134806594D02*
X130962082Y-134033853D01*
X130778096Y-133984554D01*
X130657845Y-133991772D01*
X130564531Y-134045647D01*
X130508014Y-134109382D01*
X130431778Y-134246711D01*
X130402198Y-134357102D01*
X130399557Y-134514150D01*
X130416634Y-134597605D01*
X130470509Y-134690919D01*
X130571041Y-134757295D01*
X130755027Y-134806594D01*
X129577517Y-134491081D02*
X130019083Y-134609398D01*
X129798300Y-134550240D02*
X130005355Y-133777499D01*
X130049370Y-133907610D01*
X130103245Y-134000924D01*
X130166980Y-134057441D01*
X129122223Y-133540865D02*
X129269412Y-133580304D01*
X129333146Y-133636820D01*
X129360084Y-133683477D01*
X129404099Y-133813588D01*
X129401457Y-133970637D01*
X129322579Y-134265014D01*
X129266062Y-134328749D01*
X129219405Y-134355686D01*
X129135951Y-134372764D01*
X128988762Y-134333325D01*
X128925028Y-134276808D01*
X128898090Y-134230151D01*
X128881013Y-134146697D01*
X128930311Y-133962711D01*
X128986828Y-133898977D01*
X129033485Y-133872039D01*
X129116939Y-133854961D01*
X129264128Y-133894401D01*
X129327863Y-133950917D01*
X129354800Y-133997574D01*
X129371878Y-134081028D01*
G04 #@! TO.C,D17*
X125824525Y-153207481D02*
X126031580Y-152434740D01*
X125847594Y-152385441D01*
X125727343Y-152392659D01*
X125634029Y-152446534D01*
X125577512Y-152510269D01*
X125501276Y-152647598D01*
X125471696Y-152757989D01*
X125469055Y-152915037D01*
X125486132Y-152998492D01*
X125540007Y-153091806D01*
X125640539Y-153158182D01*
X125824525Y-153207481D01*
X124647015Y-152891968D02*
X125088581Y-153010285D01*
X124867798Y-152951127D02*
X125074853Y-152178386D01*
X125118868Y-152308497D01*
X125172743Y-152401811D01*
X125236478Y-152458328D01*
X124596490Y-152050209D02*
X124081330Y-151912172D01*
X124205449Y-152773651D01*
G04 #@! TO.C,D18*
X106191012Y-152877200D02*
X106398067Y-152104459D01*
X106214081Y-152055160D01*
X106093830Y-152062378D01*
X106000516Y-152116253D01*
X105943999Y-152179988D01*
X105867763Y-152317317D01*
X105838183Y-152427708D01*
X105835542Y-152584756D01*
X105852619Y-152668211D01*
X105906494Y-152761525D01*
X106007026Y-152827901D01*
X106191012Y-152877200D01*
X105013502Y-152561687D02*
X105455068Y-152680004D01*
X105234285Y-152620846D02*
X105441340Y-151848105D01*
X105485355Y-151978216D01*
X105539230Y-152071530D01*
X105602965Y-152128047D01*
X104690253Y-152001804D02*
X104773707Y-151984726D01*
X104820364Y-151957789D01*
X104876881Y-151894054D01*
X104886741Y-151857257D01*
X104869663Y-151773803D01*
X104842726Y-151727146D01*
X104778991Y-151670629D01*
X104631802Y-151631190D01*
X104548348Y-151648268D01*
X104501691Y-151675205D01*
X104445175Y-151738940D01*
X104435315Y-151775737D01*
X104452393Y-151859191D01*
X104479330Y-151905848D01*
X104543065Y-151962365D01*
X104690253Y-152001804D01*
X104753988Y-152058320D01*
X104780925Y-152104977D01*
X104798003Y-152188432D01*
X104758564Y-152335620D01*
X104702047Y-152399355D01*
X104655390Y-152426292D01*
X104571936Y-152443370D01*
X104424747Y-152403931D01*
X104361013Y-152347414D01*
X104334075Y-152300757D01*
X104316998Y-152217303D01*
X104356437Y-152070114D01*
X104412953Y-152006380D01*
X104459610Y-151979442D01*
X104543065Y-151962365D01*
G04 #@! TO.C,D19*
X199516571Y-98995663D02*
X199723626Y-98222922D01*
X199539640Y-98173623D01*
X199419389Y-98180841D01*
X199326075Y-98234716D01*
X199269558Y-98298451D01*
X199193322Y-98435780D01*
X199163742Y-98546171D01*
X199161101Y-98703219D01*
X199178178Y-98786674D01*
X199232053Y-98879988D01*
X199332585Y-98946364D01*
X199516571Y-98995663D01*
X198339061Y-98680150D02*
X198780627Y-98798467D01*
X198559844Y-98739309D02*
X198766899Y-97966568D01*
X198810914Y-98096679D01*
X198864789Y-98189993D01*
X198928524Y-98246510D01*
X197971089Y-98581552D02*
X197823901Y-98542113D01*
X197760166Y-98485597D01*
X197733229Y-98438940D01*
X197689214Y-98308829D01*
X197691855Y-98151780D01*
X197770734Y-97857403D01*
X197827250Y-97793668D01*
X197873907Y-97766731D01*
X197957361Y-97749653D01*
X198104550Y-97789092D01*
X198168285Y-97845609D01*
X198195222Y-97892266D01*
X198212300Y-97975720D01*
X198163001Y-98159706D01*
X198106484Y-98223440D01*
X198059827Y-98250378D01*
X197976373Y-98267455D01*
X197829184Y-98228016D01*
X197765450Y-98171500D01*
X197738512Y-98124843D01*
X197721435Y-98041389D01*
G04 #@! TO.C,D20*
X182348310Y-89464939D02*
X182555365Y-88692198D01*
X182371379Y-88642899D01*
X182251128Y-88650117D01*
X182157814Y-88703992D01*
X182101297Y-88767727D01*
X182025061Y-88905056D01*
X181995481Y-89015447D01*
X181992840Y-89172495D01*
X182009917Y-89255950D01*
X182063792Y-89349264D01*
X182164324Y-89415640D01*
X182348310Y-89464939D01*
X181799702Y-88568597D02*
X181772764Y-88521940D01*
X181709030Y-88465423D01*
X181525044Y-88416125D01*
X181441590Y-88433202D01*
X181394933Y-88460140D01*
X181338416Y-88523874D01*
X181318697Y-88597469D01*
X181325914Y-88717720D01*
X181649163Y-89277603D01*
X181170800Y-89149426D01*
X180899492Y-88248508D02*
X180825898Y-88228789D01*
X180742444Y-88245867D01*
X180695787Y-88272804D01*
X180639270Y-88336538D01*
X180563034Y-88473867D01*
X180513735Y-88657853D01*
X180511093Y-88814902D01*
X180528170Y-88898356D01*
X180555108Y-88945013D01*
X180618842Y-89001530D01*
X180692437Y-89021249D01*
X180775891Y-89004171D01*
X180822548Y-88977234D01*
X180879065Y-88913499D01*
X180955301Y-88776171D01*
X181004600Y-88592185D01*
X181007242Y-88435136D01*
X180990164Y-88351682D01*
X180963227Y-88305025D01*
X180899492Y-88248508D01*
G04 #@! TO.C,D21*
X177417807Y-107865826D02*
X177624862Y-107093085D01*
X177440876Y-107043786D01*
X177320625Y-107051004D01*
X177227311Y-107104879D01*
X177170794Y-107168614D01*
X177094558Y-107305943D01*
X177064978Y-107416334D01*
X177062337Y-107573382D01*
X177079414Y-107656837D01*
X177133289Y-107750151D01*
X177233821Y-107816527D01*
X177417807Y-107865826D01*
X176869199Y-106969484D02*
X176842261Y-106922827D01*
X176778527Y-106866310D01*
X176594541Y-106817012D01*
X176511087Y-106834089D01*
X176464430Y-106861027D01*
X176407913Y-106924761D01*
X176388194Y-106998356D01*
X176395411Y-107118607D01*
X176718660Y-107678490D01*
X176240297Y-107550313D01*
X175504354Y-107353118D02*
X175945920Y-107471435D01*
X175725137Y-107412276D02*
X175932192Y-106639536D01*
X175976207Y-106769647D01*
X176030082Y-106862961D01*
X176093816Y-106919477D01*
G04 #@! TO.C,D22*
X194586068Y-117396550D02*
X194793123Y-116623809D01*
X194609137Y-116574510D01*
X194488886Y-116581728D01*
X194395572Y-116635603D01*
X194339055Y-116699338D01*
X194262819Y-116836667D01*
X194233239Y-116947058D01*
X194230598Y-117104106D01*
X194247675Y-117187561D01*
X194301550Y-117280875D01*
X194402082Y-117347251D01*
X194586068Y-117396550D01*
X194037460Y-116500208D02*
X194010522Y-116453551D01*
X193946788Y-116397034D01*
X193762802Y-116347736D01*
X193679348Y-116364813D01*
X193632691Y-116391751D01*
X193576174Y-116455485D01*
X193556455Y-116529080D01*
X193563672Y-116649331D01*
X193886921Y-117209214D01*
X193408558Y-117081037D01*
X193301516Y-116303013D02*
X193274579Y-116256356D01*
X193210844Y-116199839D01*
X193026858Y-116150540D01*
X192943404Y-116167618D01*
X192896747Y-116194555D01*
X192840231Y-116258290D01*
X192820511Y-116331884D01*
X192827729Y-116452135D01*
X193150978Y-117012019D01*
X192672615Y-116883842D01*
G04 #@! TO.C,D23*
X172487304Y-126266713D02*
X172694359Y-125493972D01*
X172510373Y-125444673D01*
X172390122Y-125451891D01*
X172296808Y-125505766D01*
X172240291Y-125569501D01*
X172164055Y-125706830D01*
X172134475Y-125817221D01*
X172131834Y-125974269D01*
X172148911Y-126057724D01*
X172202786Y-126151038D01*
X172303318Y-126217414D01*
X172487304Y-126266713D01*
X171938696Y-125370371D02*
X171911758Y-125323714D01*
X171848024Y-125267197D01*
X171664038Y-125217899D01*
X171580584Y-125234976D01*
X171533927Y-125261914D01*
X171477410Y-125325648D01*
X171457691Y-125399243D01*
X171464908Y-125519494D01*
X171788157Y-126079377D01*
X171309794Y-125951200D01*
X171259269Y-125109441D02*
X170780906Y-124981264D01*
X170959608Y-125344660D01*
X170849216Y-125315080D01*
X170765762Y-125332158D01*
X170719105Y-125359096D01*
X170662588Y-125422830D01*
X170613290Y-125606816D01*
X170630367Y-125690270D01*
X170657305Y-125736927D01*
X170721039Y-125793444D01*
X170941822Y-125852602D01*
X171025276Y-125835525D01*
X171071933Y-125808587D01*
G04 #@! TO.C,D24*
X150388540Y-135136875D02*
X150595595Y-134364134D01*
X150411609Y-134314835D01*
X150291358Y-134322053D01*
X150198044Y-134375928D01*
X150141527Y-134439663D01*
X150065291Y-134576992D01*
X150035711Y-134687383D01*
X150033070Y-134844431D01*
X150050147Y-134927886D01*
X150104022Y-135021200D01*
X150204554Y-135087576D01*
X150388540Y-135136875D01*
X149839932Y-134240533D02*
X149812994Y-134193876D01*
X149749260Y-134137359D01*
X149565274Y-134088061D01*
X149481820Y-134105138D01*
X149435163Y-134132076D01*
X149378646Y-134195810D01*
X149358927Y-134269405D01*
X149366144Y-134389656D01*
X149689393Y-134949539D01*
X149211030Y-134821362D01*
X148686718Y-134128726D02*
X148548681Y-134643886D01*
X148949582Y-133883647D02*
X148985671Y-134484904D01*
X148507308Y-134356727D01*
G04 #@! TO.C,D25*
X167556801Y-144667600D02*
X167763856Y-143894859D01*
X167579870Y-143845560D01*
X167459619Y-143852778D01*
X167366305Y-143906653D01*
X167309788Y-143970388D01*
X167233552Y-144107717D01*
X167203972Y-144218108D01*
X167201331Y-144375156D01*
X167218408Y-144458611D01*
X167272283Y-144551925D01*
X167372815Y-144618301D01*
X167556801Y-144667600D01*
X167008193Y-143771258D02*
X166981255Y-143724601D01*
X166917521Y-143668084D01*
X166733535Y-143618786D01*
X166650081Y-143635863D01*
X166603424Y-143662801D01*
X166546907Y-143726535D01*
X166527188Y-143800130D01*
X166534405Y-143920381D01*
X166857654Y-144480264D01*
X166379291Y-144352087D01*
X165887200Y-143392011D02*
X166255172Y-143490609D01*
X166193371Y-143868440D01*
X166166434Y-143821783D01*
X166102699Y-143765266D01*
X165918713Y-143715967D01*
X165835259Y-143733045D01*
X165788602Y-143759983D01*
X165732085Y-143823717D01*
X165682787Y-144007703D01*
X165699864Y-144091157D01*
X165726802Y-144137814D01*
X165790536Y-144194331D01*
X165974522Y-144243630D01*
X166057976Y-144226552D01*
X166104633Y-144199615D01*
G04 #@! TO.C,D26*
X145458037Y-153537762D02*
X145665092Y-152765021D01*
X145481106Y-152715722D01*
X145360855Y-152722940D01*
X145267541Y-152776815D01*
X145211024Y-152840550D01*
X145134788Y-152977879D01*
X145105208Y-153088270D01*
X145102567Y-153245318D01*
X145119644Y-153328773D01*
X145173519Y-153422087D01*
X145274051Y-153488463D01*
X145458037Y-153537762D01*
X144909429Y-152641420D02*
X144882491Y-152594763D01*
X144818757Y-152538246D01*
X144634771Y-152488948D01*
X144551317Y-152506025D01*
X144504660Y-152532963D01*
X144448143Y-152596697D01*
X144428424Y-152670292D01*
X144435641Y-152790543D01*
X144758890Y-153350426D01*
X144280527Y-153222249D01*
X143825233Y-152272033D02*
X143972422Y-152311472D01*
X144036156Y-152367988D01*
X144063094Y-152414645D01*
X144107109Y-152544756D01*
X144104467Y-152701805D01*
X144025589Y-152996182D01*
X143969072Y-153059917D01*
X143922415Y-153086854D01*
X143838961Y-153103932D01*
X143691772Y-153064493D01*
X143628038Y-153007976D01*
X143601100Y-152961319D01*
X143584023Y-152877865D01*
X143633321Y-152693879D01*
X143689838Y-152630145D01*
X143736495Y-152603207D01*
X143819949Y-152586129D01*
X143967138Y-152625569D01*
X144030873Y-152682085D01*
X144057810Y-152728742D01*
X144074888Y-152812196D01*
G04 #@! TO.C,D27*
X162626299Y-163068487D02*
X162833354Y-162295746D01*
X162649368Y-162246447D01*
X162529117Y-162253665D01*
X162435803Y-162307540D01*
X162379286Y-162371275D01*
X162303050Y-162508604D01*
X162273470Y-162618995D01*
X162270829Y-162776043D01*
X162287906Y-162859498D01*
X162341781Y-162952812D01*
X162442313Y-163019188D01*
X162626299Y-163068487D01*
X162077691Y-162172145D02*
X162050753Y-162125488D01*
X161987019Y-162068971D01*
X161803033Y-162019673D01*
X161719579Y-162036750D01*
X161672922Y-162063688D01*
X161616405Y-162127422D01*
X161596686Y-162201017D01*
X161603903Y-162321268D01*
X161927152Y-162881151D01*
X161448789Y-162752974D01*
X161398264Y-161911215D02*
X160883104Y-161773178D01*
X161007223Y-162634657D01*
G04 #@! TO.C,D28*
X211754330Y-126927275D02*
X211961385Y-126154534D01*
X211777399Y-126105235D01*
X211657148Y-126112453D01*
X211563834Y-126166328D01*
X211507317Y-126230063D01*
X211431081Y-126367392D01*
X211401501Y-126477783D01*
X211398860Y-126634831D01*
X211415937Y-126718286D01*
X211469812Y-126811600D01*
X211570344Y-126877976D01*
X211754330Y-126927275D01*
X211205722Y-126030933D02*
X211178784Y-125984276D01*
X211115050Y-125927759D01*
X210931064Y-125878461D01*
X210847610Y-125895538D01*
X210800953Y-125922476D01*
X210744436Y-125986210D01*
X210724717Y-126059805D01*
X210731934Y-126180056D01*
X211055183Y-126739939D01*
X210576820Y-126611762D01*
X210253571Y-126051879D02*
X210337025Y-126034801D01*
X210383682Y-126007864D01*
X210440199Y-125944129D01*
X210450059Y-125907332D01*
X210432981Y-125823878D01*
X210406044Y-125777221D01*
X210342309Y-125720704D01*
X210195120Y-125681265D01*
X210111666Y-125698343D01*
X210065009Y-125725280D01*
X210008493Y-125789015D01*
X209998633Y-125825812D01*
X210015711Y-125909266D01*
X210042648Y-125955923D01*
X210106383Y-126012440D01*
X210253571Y-126051879D01*
X210317306Y-126108395D01*
X210344243Y-126155052D01*
X210361321Y-126238507D01*
X210321882Y-126385695D01*
X210265365Y-126449430D01*
X210218708Y-126476367D01*
X210135254Y-126493445D01*
X209988065Y-126454006D01*
X209924331Y-126397489D01*
X209897393Y-126350832D01*
X209880316Y-126267378D01*
X209919755Y-126120189D01*
X209976271Y-126056455D01*
X210022928Y-126029517D01*
X210106383Y-126012440D01*
G04 #@! TO.C,D29*
X189655566Y-135797437D02*
X189862621Y-135024696D01*
X189678635Y-134975397D01*
X189558384Y-134982615D01*
X189465070Y-135036490D01*
X189408553Y-135100225D01*
X189332317Y-135237554D01*
X189302737Y-135347945D01*
X189300096Y-135504993D01*
X189317173Y-135588448D01*
X189371048Y-135681762D01*
X189471580Y-135748138D01*
X189655566Y-135797437D01*
X189106958Y-134901095D02*
X189080020Y-134854438D01*
X189016286Y-134797921D01*
X188832300Y-134748623D01*
X188748846Y-134765700D01*
X188702189Y-134792638D01*
X188645672Y-134856372D01*
X188625953Y-134929967D01*
X188633170Y-135050218D01*
X188956419Y-135610101D01*
X188478056Y-135481924D01*
X188110084Y-135383326D02*
X187962896Y-135343887D01*
X187899161Y-135287371D01*
X187872224Y-135240714D01*
X187828209Y-135110603D01*
X187830850Y-134953554D01*
X187909729Y-134659177D01*
X187966245Y-134595442D01*
X188012902Y-134568505D01*
X188096356Y-134551427D01*
X188243545Y-134590866D01*
X188307280Y-134647383D01*
X188334217Y-134694040D01*
X188351295Y-134777494D01*
X188301996Y-134961480D01*
X188245479Y-135025214D01*
X188198822Y-135052152D01*
X188115368Y-135069229D01*
X187968179Y-135029790D01*
X187904445Y-134973274D01*
X187877507Y-134926617D01*
X187860430Y-134843163D01*
G04 #@! TO.C,D30*
X206823827Y-145328162D02*
X207030882Y-144555421D01*
X206846896Y-144506122D01*
X206726645Y-144513340D01*
X206633331Y-144567215D01*
X206576814Y-144630950D01*
X206500578Y-144768279D01*
X206470998Y-144878670D01*
X206468357Y-145035718D01*
X206485434Y-145119173D01*
X206539309Y-145212487D01*
X206639841Y-145278863D01*
X206823827Y-145328162D01*
X206331736Y-144368086D02*
X205853372Y-144239908D01*
X206032074Y-144603304D01*
X205921683Y-144573725D01*
X205838229Y-144590803D01*
X205791572Y-144617740D01*
X205735055Y-144681475D01*
X205685756Y-144865460D01*
X205702834Y-144948915D01*
X205729771Y-144995572D01*
X205793506Y-145052088D01*
X206014289Y-145111247D01*
X206097743Y-145094169D01*
X206144400Y-145067232D01*
X205375009Y-144111731D02*
X205301415Y-144092012D01*
X205217961Y-144109090D01*
X205171304Y-144136027D01*
X205114787Y-144199761D01*
X205038551Y-144337090D01*
X204989252Y-144521076D01*
X204986610Y-144678125D01*
X205003687Y-144761579D01*
X205030625Y-144808236D01*
X205094359Y-144864753D01*
X205167954Y-144884472D01*
X205251408Y-144867394D01*
X205298065Y-144840457D01*
X205354582Y-144776722D01*
X205430818Y-144639394D01*
X205480117Y-144455408D01*
X205482759Y-144298359D01*
X205465681Y-144214905D01*
X205438744Y-144168248D01*
X205375009Y-144111731D01*
G04 #@! TO.C,D31*
X184725063Y-154198324D02*
X184932118Y-153425583D01*
X184748132Y-153376284D01*
X184627881Y-153383502D01*
X184534567Y-153437377D01*
X184478050Y-153501112D01*
X184401814Y-153638441D01*
X184372234Y-153748832D01*
X184369593Y-153905880D01*
X184386670Y-153989335D01*
X184440545Y-154082649D01*
X184541077Y-154149025D01*
X184725063Y-154198324D01*
X184232972Y-153238248D02*
X183754608Y-153110070D01*
X183933310Y-153473466D01*
X183822919Y-153443887D01*
X183739465Y-153460965D01*
X183692808Y-153487902D01*
X183636291Y-153551637D01*
X183586992Y-153735622D01*
X183604070Y-153819077D01*
X183631007Y-153865734D01*
X183694742Y-153922250D01*
X183915525Y-153981409D01*
X183998979Y-153964331D01*
X184045636Y-153937394D01*
X182811610Y-153685616D02*
X183253176Y-153803933D01*
X183032393Y-153744774D02*
X183239448Y-152972034D01*
X183283463Y-153102145D01*
X183337338Y-153195459D01*
X183401072Y-153251975D01*
G04 #@! TO.C,D32*
X179794560Y-172599211D02*
X180001615Y-171826470D01*
X179817629Y-171777171D01*
X179697378Y-171784389D01*
X179604064Y-171838264D01*
X179547547Y-171901999D01*
X179471311Y-172039328D01*
X179441731Y-172149719D01*
X179439090Y-172306767D01*
X179456167Y-172390222D01*
X179510042Y-172483536D01*
X179610574Y-172549912D01*
X179794560Y-172599211D01*
X179302469Y-171639135D02*
X178824105Y-171510957D01*
X179002807Y-171874353D01*
X178892416Y-171844774D01*
X178808962Y-171861852D01*
X178762305Y-171888789D01*
X178705788Y-171952524D01*
X178656489Y-172136509D01*
X178673567Y-172219964D01*
X178700504Y-172266621D01*
X178764239Y-172323137D01*
X178985022Y-172382296D01*
X179068476Y-172365218D01*
X179115133Y-172338281D01*
X178510008Y-171505674D02*
X178483071Y-171459017D01*
X178419336Y-171402500D01*
X178235350Y-171353201D01*
X178151896Y-171370279D01*
X178105239Y-171397216D01*
X178048723Y-171460951D01*
X178029003Y-171534545D01*
X178036221Y-171654796D01*
X178359470Y-172214680D01*
X177881107Y-172086503D01*
G04 #@! TO.C,D33*
X204784135Y-180229313D02*
X204011394Y-180022258D01*
X203962095Y-180206244D01*
X203969313Y-180326495D01*
X204023188Y-180419809D01*
X204086923Y-180476326D01*
X204224252Y-180552562D01*
X204334643Y-180582142D01*
X204491691Y-180584783D01*
X204575146Y-180567706D01*
X204668460Y-180513831D01*
X204734836Y-180413299D01*
X204784135Y-180229313D01*
X203824059Y-180721404D02*
X203695881Y-181199768D01*
X204059277Y-181021066D01*
X204029698Y-181131457D01*
X204046776Y-181214911D01*
X204073713Y-181261568D01*
X204137448Y-181318085D01*
X204321433Y-181367384D01*
X204404888Y-181350306D01*
X204451545Y-181323369D01*
X204508061Y-181259634D01*
X204567220Y-181038851D01*
X204550142Y-180955397D01*
X204523205Y-180908740D01*
X203626863Y-181457348D02*
X203498686Y-181935711D01*
X203862082Y-181757009D01*
X203832502Y-181867401D01*
X203849580Y-181950855D01*
X203876518Y-181997512D01*
X203940252Y-182054029D01*
X204124238Y-182103327D01*
X204207692Y-182086250D01*
X204254349Y-182059312D01*
X204310866Y-181995578D01*
X204370024Y-181774795D01*
X204352947Y-181691341D01*
X204326009Y-181644684D01*
G04 #@! TO.C,D34*
X234845184Y-122727193D02*
X234638129Y-121954453D01*
X234454143Y-122003752D01*
X234353611Y-122070128D01*
X234299737Y-122163442D01*
X234282659Y-122246896D01*
X234285301Y-122403945D01*
X234314880Y-122514336D01*
X234391117Y-122651665D01*
X234447633Y-122715400D01*
X234540947Y-122769274D01*
X234661198Y-122776492D01*
X234845184Y-122727193D01*
X233938983Y-122141788D02*
X233460619Y-122269966D01*
X233797078Y-122495325D01*
X233686686Y-122524904D01*
X233622952Y-122581421D01*
X233596014Y-122628077D01*
X233578937Y-122711532D01*
X233628236Y-122895517D01*
X233684752Y-122959252D01*
X233731409Y-122986189D01*
X233814863Y-123003267D01*
X234035646Y-122944108D01*
X234099381Y-122887592D01*
X234126318Y-122840935D01*
X232867289Y-122705022D02*
X233005326Y-123220182D01*
X232972396Y-122361345D02*
X233304279Y-122864004D01*
X232825916Y-122992181D01*
G04 #@! TO.C,D35*
X256943949Y-131597356D02*
X256736894Y-130824616D01*
X256552908Y-130873915D01*
X256452376Y-130940291D01*
X256398502Y-131033605D01*
X256381424Y-131117059D01*
X256384066Y-131274108D01*
X256413645Y-131384499D01*
X256489882Y-131521828D01*
X256546398Y-131585563D01*
X256639712Y-131639437D01*
X256759963Y-131646655D01*
X256943949Y-131597356D01*
X256037748Y-131011951D02*
X255559384Y-131140129D01*
X255895843Y-131365488D01*
X255785451Y-131395067D01*
X255721717Y-131451584D01*
X255694779Y-131498240D01*
X255677702Y-131581695D01*
X255727001Y-131765680D01*
X255783517Y-131829415D01*
X255830174Y-131856352D01*
X255913628Y-131873430D01*
X256134411Y-131814271D01*
X256198146Y-131757755D01*
X256225083Y-131711098D01*
X254860238Y-131327464D02*
X255228210Y-131228866D01*
X255363605Y-131586978D01*
X255316948Y-131560041D01*
X255233494Y-131542963D01*
X255049508Y-131592262D01*
X254985773Y-131648779D01*
X254958836Y-131695436D01*
X254941758Y-131778890D01*
X254991057Y-131962876D01*
X255047574Y-132026611D01*
X255094231Y-132053548D01*
X255177685Y-132070626D01*
X255361671Y-132021327D01*
X255425405Y-131964810D01*
X255452343Y-131918153D01*
G04 #@! TO.C,D36*
X239775687Y-141128080D02*
X239568632Y-140355340D01*
X239384646Y-140404639D01*
X239284114Y-140471015D01*
X239230240Y-140564329D01*
X239213162Y-140647783D01*
X239215804Y-140804832D01*
X239245383Y-140915223D01*
X239321620Y-141052552D01*
X239378136Y-141116287D01*
X239471450Y-141170161D01*
X239591701Y-141177379D01*
X239775687Y-141128080D01*
X238869486Y-140542675D02*
X238391122Y-140670853D01*
X238727581Y-140896212D01*
X238617189Y-140925791D01*
X238553455Y-140982308D01*
X238526517Y-141028964D01*
X238509440Y-141112419D01*
X238558739Y-141296404D01*
X238615255Y-141360139D01*
X238661912Y-141387076D01*
X238745366Y-141404154D01*
X238966149Y-141344995D01*
X239029884Y-141288479D01*
X239056821Y-141241822D01*
X237728773Y-140848328D02*
X237875962Y-140808889D01*
X237959416Y-140825967D01*
X238006073Y-140852904D01*
X238109247Y-140943576D01*
X238185483Y-141080905D01*
X238264361Y-141375283D01*
X238247284Y-141458737D01*
X238220346Y-141505394D01*
X238156612Y-141561910D01*
X238009423Y-141601350D01*
X237925969Y-141584272D01*
X237879312Y-141557335D01*
X237822795Y-141493600D01*
X237773496Y-141309614D01*
X237790574Y-141226160D01*
X237817511Y-141179503D01*
X237881246Y-141122986D01*
X238028435Y-141083547D01*
X238111889Y-141100625D01*
X238158546Y-141127562D01*
X238215062Y-141191297D01*
G04 #@! TO.C,D37*
X261874451Y-149998243D02*
X261667396Y-149225503D01*
X261483410Y-149274802D01*
X261382878Y-149341178D01*
X261329004Y-149434492D01*
X261311926Y-149517946D01*
X261314568Y-149674995D01*
X261344147Y-149785386D01*
X261420384Y-149922715D01*
X261476900Y-149986450D01*
X261570214Y-150040324D01*
X261690465Y-150047542D01*
X261874451Y-149998243D01*
X260968250Y-149412838D02*
X260489886Y-149541016D01*
X260826345Y-149766375D01*
X260715953Y-149795954D01*
X260652219Y-149852471D01*
X260625281Y-149899127D01*
X260608204Y-149982582D01*
X260657503Y-150166567D01*
X260714019Y-150230302D01*
X260760676Y-150257239D01*
X260844130Y-150274317D01*
X261064913Y-150215158D01*
X261128648Y-150158642D01*
X261155585Y-150111985D01*
X260232306Y-149610034D02*
X259717146Y-149748071D01*
X260255376Y-150432073D01*
G04 #@! TO.C,D38*
X266804954Y-168399130D02*
X266597899Y-167626390D01*
X266413913Y-167675689D01*
X266313381Y-167742065D01*
X266259507Y-167835379D01*
X266242429Y-167918833D01*
X266245071Y-168075882D01*
X266274650Y-168186273D01*
X266350887Y-168323602D01*
X266407403Y-168387337D01*
X266500717Y-168441211D01*
X266620968Y-168448429D01*
X266804954Y-168399130D01*
X265898753Y-167813725D02*
X265420389Y-167941903D01*
X265756848Y-168167262D01*
X265646456Y-168196841D01*
X265582722Y-168253358D01*
X265555784Y-168300014D01*
X265538707Y-168383469D01*
X265588006Y-168567454D01*
X265644522Y-168631189D01*
X265691179Y-168658126D01*
X265774633Y-168675204D01*
X265995416Y-168616045D01*
X266059151Y-168559529D01*
X266086088Y-168512872D01*
X265067561Y-168391394D02*
X265131296Y-168334878D01*
X265158233Y-168288221D01*
X265175311Y-168204767D01*
X265165451Y-168167969D01*
X265108934Y-168104235D01*
X265062278Y-168077297D01*
X264978823Y-168060220D01*
X264831635Y-168099659D01*
X264767900Y-168156176D01*
X264740963Y-168202833D01*
X264723885Y-168286287D01*
X264733745Y-168323084D01*
X264790262Y-168386818D01*
X264836919Y-168413756D01*
X264920373Y-168430833D01*
X265067561Y-168391394D01*
X265151015Y-168408472D01*
X265197672Y-168435409D01*
X265254189Y-168499144D01*
X265293628Y-168646333D01*
X265276551Y-168729787D01*
X265249613Y-168776444D01*
X265185879Y-168832960D01*
X265038690Y-168872400D01*
X264955236Y-168855322D01*
X264908579Y-168828385D01*
X264852062Y-168764650D01*
X264812623Y-168617461D01*
X264829701Y-168534007D01*
X264856638Y-168487350D01*
X264920373Y-168430833D01*
G04 #@! TO.C,D39*
X237738130Y-183005266D02*
X238510870Y-182798211D01*
X238461571Y-182614225D01*
X238395195Y-182513693D01*
X238301881Y-182459819D01*
X238218427Y-182442741D01*
X238061378Y-182445383D01*
X237950987Y-182474962D01*
X237813658Y-182551199D01*
X237749923Y-182607715D01*
X237696049Y-182701029D01*
X237688831Y-182821280D01*
X237738130Y-183005266D01*
X238323535Y-182099065D02*
X238195357Y-181620701D01*
X237969998Y-181957160D01*
X237940419Y-181846768D01*
X237883902Y-181783034D01*
X237837246Y-181756096D01*
X237753791Y-181739019D01*
X237569806Y-181788318D01*
X237506071Y-181844834D01*
X237479134Y-181891491D01*
X237462056Y-181974945D01*
X237521215Y-182195728D01*
X237577731Y-182259463D01*
X237624388Y-182286400D01*
X237324019Y-181459785D02*
X237284580Y-181312596D01*
X237301658Y-181229142D01*
X237328595Y-181182485D01*
X237419267Y-181079312D01*
X237556596Y-181003075D01*
X237850973Y-180924197D01*
X237934427Y-180941275D01*
X237981084Y-180968212D01*
X238037601Y-181031947D01*
X238077040Y-181179135D01*
X238059963Y-181262590D01*
X238033025Y-181309246D01*
X237969291Y-181365763D01*
X237785305Y-181415062D01*
X237701851Y-181397984D01*
X237655194Y-181371047D01*
X237598677Y-181307312D01*
X237559238Y-181160124D01*
X237576315Y-181076670D01*
X237603253Y-181030013D01*
X237666987Y-180973496D01*
G04 #@! TO.C,D40*
X247082943Y-94795582D02*
X246875888Y-94022842D01*
X246691902Y-94072141D01*
X246591370Y-94138517D01*
X246537496Y-94231831D01*
X246520418Y-94315285D01*
X246523060Y-94472334D01*
X246552639Y-94582725D01*
X246628876Y-94720054D01*
X246685392Y-94783789D01*
X246778706Y-94837663D01*
X246898957Y-94844881D01*
X247082943Y-94795582D01*
X245840991Y-94576215D02*
X245979028Y-95091376D01*
X245946099Y-94232539D02*
X246277981Y-94735198D01*
X245799618Y-94863375D01*
X245220015Y-94466532D02*
X245146421Y-94486251D01*
X245082686Y-94542768D01*
X245055749Y-94589425D01*
X245038671Y-94672879D01*
X245041313Y-94829927D01*
X245090612Y-95013913D01*
X245166848Y-95151242D01*
X245223365Y-95214977D01*
X245270022Y-95241914D01*
X245353476Y-95258992D01*
X245427070Y-95239272D01*
X245490805Y-95182756D01*
X245517742Y-95136099D01*
X245534820Y-95052644D01*
X245532178Y-94895596D01*
X245482879Y-94711610D01*
X245406643Y-94574281D01*
X245350126Y-94510547D01*
X245303469Y-94483609D01*
X245220015Y-94466532D01*
G04 #@! TO.C,D41*
X264251204Y-85264857D02*
X264044149Y-84492117D01*
X263860163Y-84541416D01*
X263759631Y-84607792D01*
X263705757Y-84701106D01*
X263688679Y-84784560D01*
X263691321Y-84941609D01*
X263720900Y-85052000D01*
X263797137Y-85189329D01*
X263853653Y-85253064D01*
X263946967Y-85306938D01*
X264067218Y-85314156D01*
X264251204Y-85264857D01*
X263009252Y-85045490D02*
X263147289Y-85560651D01*
X263114360Y-84701814D02*
X263446242Y-85204473D01*
X262967879Y-85332650D01*
X262337751Y-85777566D02*
X262779317Y-85659248D01*
X262558534Y-85718407D02*
X262351479Y-84945666D01*
X262454653Y-85036338D01*
X262547967Y-85090213D01*
X262631421Y-85107291D01*
G04 #@! TO.C,D42*
X269181707Y-103665744D02*
X268974652Y-102893004D01*
X268790666Y-102942303D01*
X268690134Y-103008679D01*
X268636260Y-103101993D01*
X268619182Y-103185447D01*
X268621824Y-103342496D01*
X268651403Y-103452887D01*
X268727640Y-103590216D01*
X268784156Y-103653951D01*
X268877470Y-103707825D01*
X268997721Y-103715043D01*
X269181707Y-103665744D01*
X267939755Y-103446377D02*
X268077792Y-103961538D01*
X268044863Y-103102701D02*
X268376745Y-103605360D01*
X267898382Y-103733537D01*
X267522485Y-103360989D02*
X267475828Y-103334052D01*
X267392374Y-103316974D01*
X267208388Y-103366273D01*
X267144653Y-103422790D01*
X267117716Y-103469447D01*
X267100638Y-103552901D01*
X267120358Y-103626495D01*
X267186734Y-103727027D01*
X267746617Y-104050276D01*
X267268254Y-104178453D01*
G04 #@! TO.C,D43*
X252013446Y-113196469D02*
X251806391Y-112423729D01*
X251622405Y-112473028D01*
X251521873Y-112539404D01*
X251467999Y-112632718D01*
X251450921Y-112716172D01*
X251453563Y-112873221D01*
X251483142Y-112983612D01*
X251559379Y-113120941D01*
X251615895Y-113184676D01*
X251709209Y-113238550D01*
X251829460Y-113245768D01*
X252013446Y-113196469D01*
X250771494Y-112977102D02*
X250909531Y-113492263D01*
X250876602Y-112633426D02*
X251208484Y-113136085D01*
X250730121Y-113264262D01*
X250371301Y-112808260D02*
X249892938Y-112936437D01*
X250229396Y-113161796D01*
X250119005Y-113191375D01*
X250055270Y-113247892D01*
X250028333Y-113294549D01*
X250011255Y-113378003D01*
X250060554Y-113561989D01*
X250117071Y-113625724D01*
X250163728Y-113652661D01*
X250247182Y-113669739D01*
X250467965Y-113610580D01*
X250531700Y-113554063D01*
X250558637Y-113507406D01*
G04 #@! TO.C,D44*
X274112210Y-122066631D02*
X273905155Y-121293891D01*
X273721169Y-121343190D01*
X273620637Y-121409566D01*
X273566763Y-121502880D01*
X273549685Y-121586334D01*
X273552327Y-121743383D01*
X273581906Y-121853774D01*
X273658143Y-121991103D01*
X273714659Y-122054838D01*
X273807973Y-122108712D01*
X273928224Y-122115930D01*
X274112210Y-122066631D01*
X272870258Y-121847264D02*
X273008295Y-122362425D01*
X272975366Y-121503588D02*
X273307248Y-122006247D01*
X272828885Y-122134424D01*
X272134315Y-122044460D02*
X272272352Y-122559620D01*
X272239422Y-121700783D02*
X272571305Y-122203442D01*
X272092942Y-122331619D01*
G04 #@! TO.C,D45*
X296210974Y-130936794D02*
X296003919Y-130164054D01*
X295819933Y-130213353D01*
X295719401Y-130279729D01*
X295665527Y-130373043D01*
X295648449Y-130456497D01*
X295651091Y-130613546D01*
X295680670Y-130723937D01*
X295756907Y-130861266D01*
X295813423Y-130925001D01*
X295906737Y-130978875D01*
X296026988Y-130986093D01*
X296210974Y-130936794D01*
X294969022Y-130717427D02*
X295107059Y-131232588D01*
X295074130Y-130373751D02*
X295406012Y-130876410D01*
X294927649Y-131004587D01*
X294127263Y-130666902D02*
X294495235Y-130568304D01*
X294630630Y-130926416D01*
X294583973Y-130899479D01*
X294500519Y-130882401D01*
X294316533Y-130931700D01*
X294252798Y-130988217D01*
X294225861Y-131034874D01*
X294208783Y-131118328D01*
X294258082Y-131302314D01*
X294314599Y-131366049D01*
X294361256Y-131392986D01*
X294444710Y-131410064D01*
X294628696Y-131360765D01*
X294692430Y-131304248D01*
X294719368Y-131257591D01*
G04 #@! TO.C,D46*
X279042713Y-140467518D02*
X278835658Y-139694778D01*
X278651672Y-139744077D01*
X278551140Y-139810453D01*
X278497266Y-139903767D01*
X278480188Y-139987221D01*
X278482830Y-140144270D01*
X278512409Y-140254661D01*
X278588646Y-140391990D01*
X278645162Y-140455725D01*
X278738476Y-140509599D01*
X278858727Y-140516817D01*
X279042713Y-140467518D01*
X277800761Y-140248151D02*
X277938798Y-140763312D01*
X277905869Y-139904475D02*
X278237751Y-140407134D01*
X277759388Y-140535311D01*
X276995799Y-140187766D02*
X277142988Y-140148327D01*
X277226442Y-140165405D01*
X277273099Y-140192342D01*
X277376273Y-140283014D01*
X277452509Y-140420343D01*
X277531387Y-140714721D01*
X277514310Y-140798175D01*
X277487372Y-140844832D01*
X277423638Y-140901348D01*
X277276449Y-140940788D01*
X277192995Y-140923710D01*
X277146338Y-140896773D01*
X277089821Y-140833038D01*
X277040522Y-140649052D01*
X277057600Y-140565598D01*
X277084537Y-140518941D01*
X277148272Y-140462424D01*
X277295461Y-140422985D01*
X277378915Y-140440063D01*
X277425572Y-140467000D01*
X277482088Y-140530735D01*
G04 #@! TO.C,D47*
X301141477Y-149337681D02*
X300934422Y-148564941D01*
X300750436Y-148614240D01*
X300649904Y-148680616D01*
X300596030Y-148773930D01*
X300578952Y-148857384D01*
X300581594Y-149014433D01*
X300611173Y-149124824D01*
X300687410Y-149262153D01*
X300743926Y-149325888D01*
X300837240Y-149379762D01*
X300957491Y-149386980D01*
X301141477Y-149337681D01*
X299899525Y-149118314D02*
X300037562Y-149633475D01*
X300004633Y-148774638D02*
X300336515Y-149277297D01*
X299858152Y-149405474D01*
X299499332Y-148949472D02*
X298984172Y-149087509D01*
X299522402Y-149771511D01*
G04 #@! TO.C,D48*
X283973215Y-158868405D02*
X283766160Y-158095665D01*
X283582174Y-158144964D01*
X283481642Y-158211340D01*
X283427768Y-158304654D01*
X283410690Y-158388108D01*
X283413332Y-158545157D01*
X283442911Y-158655548D01*
X283519148Y-158792877D01*
X283575664Y-158856612D01*
X283668978Y-158910486D01*
X283789229Y-158917704D01*
X283973215Y-158868405D01*
X282731263Y-158649038D02*
X282869300Y-159164199D01*
X282836371Y-158305362D02*
X283168253Y-158808021D01*
X282689890Y-158936198D01*
X282235822Y-158860669D02*
X282299557Y-158804153D01*
X282326494Y-158757496D01*
X282343572Y-158674042D01*
X282333712Y-158637244D01*
X282277195Y-158573510D01*
X282230539Y-158546572D01*
X282147084Y-158529495D01*
X281999896Y-158568934D01*
X281936161Y-158625451D01*
X281909224Y-158672108D01*
X281892146Y-158755562D01*
X281902006Y-158792359D01*
X281958523Y-158856093D01*
X282005180Y-158883031D01*
X282088634Y-158900108D01*
X282235822Y-158860669D01*
X282319276Y-158877747D01*
X282365933Y-158904684D01*
X282422450Y-158968419D01*
X282461889Y-159115608D01*
X282444812Y-159199062D01*
X282417874Y-159245719D01*
X282354140Y-159302235D01*
X282206951Y-159341675D01*
X282123497Y-159324597D01*
X282076840Y-159297660D01*
X282020323Y-159233925D01*
X281980884Y-159086736D01*
X281997962Y-159003282D01*
X282024899Y-158956625D01*
X282088634Y-158900108D01*
G04 #@! TO.C,D49*
X301052978Y-75403852D02*
X300845923Y-74631112D01*
X300661937Y-74680411D01*
X300561405Y-74746787D01*
X300507531Y-74840101D01*
X300490453Y-74923555D01*
X300493095Y-75080604D01*
X300522674Y-75190995D01*
X300598911Y-75328324D01*
X300655427Y-75392059D01*
X300748741Y-75445933D01*
X300868992Y-75453151D01*
X301052978Y-75403852D01*
X299811026Y-75184485D02*
X299949063Y-75699646D01*
X299916134Y-74840809D02*
X300248016Y-75343468D01*
X299769653Y-75471645D01*
X299507497Y-75817963D02*
X299360308Y-75857402D01*
X299276854Y-75840324D01*
X299230197Y-75813387D01*
X299127024Y-75722715D01*
X299050787Y-75585386D01*
X298971909Y-75291009D01*
X298988987Y-75207555D01*
X299015924Y-75160898D01*
X299079659Y-75104381D01*
X299226847Y-75064942D01*
X299310302Y-75082019D01*
X299356958Y-75108957D01*
X299413475Y-75172691D01*
X299462774Y-75356677D01*
X299445696Y-75440131D01*
X299418759Y-75486788D01*
X299355024Y-75543305D01*
X299207836Y-75582744D01*
X299124382Y-75565667D01*
X299077725Y-75538729D01*
X299021208Y-75474995D01*
G04 #@! TO.C,D50*
X281419466Y-75734133D02*
X281212411Y-74961393D01*
X281028425Y-75010692D01*
X280927893Y-75077068D01*
X280874019Y-75170382D01*
X280856941Y-75253836D01*
X280859583Y-75410885D01*
X280889162Y-75521276D01*
X280965399Y-75658605D01*
X281021915Y-75722340D01*
X281115229Y-75776214D01*
X281235480Y-75783432D01*
X281419466Y-75734133D01*
X280071699Y-75267046D02*
X280439670Y-75168448D01*
X280575065Y-75526560D01*
X280528408Y-75499623D01*
X280444954Y-75482545D01*
X280260968Y-75531844D01*
X280197234Y-75588361D01*
X280170296Y-75635017D01*
X280153219Y-75718472D01*
X280202518Y-75902457D01*
X280259034Y-75966192D01*
X280305691Y-75993129D01*
X280389145Y-76010207D01*
X280573131Y-75960908D01*
X280636866Y-75904392D01*
X280663803Y-75857735D01*
X279556538Y-75405083D02*
X279482944Y-75424802D01*
X279419209Y-75481319D01*
X279392272Y-75527976D01*
X279375194Y-75611430D01*
X279377836Y-75768478D01*
X279427135Y-75952464D01*
X279503371Y-76089793D01*
X279559888Y-76153528D01*
X279606545Y-76180465D01*
X279689999Y-76197543D01*
X279763593Y-76177823D01*
X279827328Y-76121307D01*
X279854265Y-76074650D01*
X279871343Y-75991195D01*
X279868701Y-75834147D01*
X279819402Y-75650161D01*
X279743166Y-75512832D01*
X279686649Y-75449098D01*
X279639992Y-75422160D01*
X279556538Y-75405083D01*
G04 #@! TO.C,D51*
X286349968Y-94135020D02*
X286142913Y-93362280D01*
X285958927Y-93411579D01*
X285858395Y-93477955D01*
X285804521Y-93571269D01*
X285787443Y-93654723D01*
X285790085Y-93811772D01*
X285819664Y-93922163D01*
X285895901Y-94059492D01*
X285952417Y-94123227D01*
X286045731Y-94177101D01*
X286165982Y-94184319D01*
X286349968Y-94135020D01*
X285002201Y-93667933D02*
X285370172Y-93569335D01*
X285505567Y-93927447D01*
X285458910Y-93900510D01*
X285375456Y-93883432D01*
X285191470Y-93932731D01*
X285127736Y-93989248D01*
X285100798Y-94035904D01*
X285083721Y-94119359D01*
X285133020Y-94303344D01*
X285189536Y-94367079D01*
X285236193Y-94394016D01*
X285319647Y-94411094D01*
X285503633Y-94361795D01*
X285567368Y-94305279D01*
X285594305Y-94258622D01*
X284436515Y-94647729D02*
X284878081Y-94529411D01*
X284657298Y-94588570D02*
X284450243Y-93815829D01*
X284553417Y-93906501D01*
X284646731Y-93960376D01*
X284730185Y-93977454D01*
G04 #@! TO.C,D52*
X305983481Y-93804739D02*
X305776426Y-93031999D01*
X305592440Y-93081298D01*
X305491908Y-93147674D01*
X305438034Y-93240988D01*
X305420956Y-93324442D01*
X305423598Y-93481491D01*
X305453177Y-93591882D01*
X305529414Y-93729211D01*
X305585930Y-93792946D01*
X305679244Y-93846820D01*
X305799495Y-93854038D01*
X305983481Y-93804739D01*
X304635714Y-93337652D02*
X305003685Y-93239054D01*
X305139080Y-93597166D01*
X305092423Y-93570229D01*
X305008969Y-93553151D01*
X304824983Y-93602450D01*
X304761249Y-93658967D01*
X304734311Y-93705623D01*
X304717234Y-93789078D01*
X304766533Y-93973063D01*
X304823049Y-94036798D01*
X304869706Y-94063735D01*
X304953160Y-94080813D01*
X305137146Y-94031514D01*
X305200881Y-93974998D01*
X305227818Y-93928341D01*
X304324259Y-93499984D02*
X304277602Y-93473047D01*
X304194148Y-93455969D01*
X304010162Y-93505268D01*
X303946427Y-93561785D01*
X303919490Y-93608442D01*
X303902412Y-93691896D01*
X303922132Y-93765490D01*
X303988508Y-93866022D01*
X304548391Y-94189271D01*
X304070028Y-94317448D01*
G04 #@! TO.C,D53*
X291280471Y-112535907D02*
X291073416Y-111763167D01*
X290889430Y-111812466D01*
X290788898Y-111878842D01*
X290735024Y-111972156D01*
X290717946Y-112055610D01*
X290720588Y-112212659D01*
X290750167Y-112323050D01*
X290826404Y-112460379D01*
X290882920Y-112524114D01*
X290976234Y-112577988D01*
X291096485Y-112585206D01*
X291280471Y-112535907D01*
X289932704Y-112068820D02*
X290300675Y-111970222D01*
X290436070Y-112328334D01*
X290389413Y-112301397D01*
X290305959Y-112284319D01*
X290121973Y-112333618D01*
X290058239Y-112390135D01*
X290031301Y-112436791D01*
X290014224Y-112520246D01*
X290063523Y-112704231D01*
X290120039Y-112767966D01*
X290166696Y-112794903D01*
X290250150Y-112811981D01*
X290434136Y-112762682D01*
X290497871Y-112706166D01*
X290524808Y-112659509D01*
X289638326Y-112147698D02*
X289159963Y-112275875D01*
X289496421Y-112501234D01*
X289386030Y-112530813D01*
X289322295Y-112587330D01*
X289295358Y-112633987D01*
X289278280Y-112717441D01*
X289327579Y-112901427D01*
X289384096Y-112965162D01*
X289430753Y-112992099D01*
X289514207Y-113009177D01*
X289734990Y-112950018D01*
X289798725Y-112893501D01*
X289825662Y-112846844D01*
G04 #@! TO.C,D54*
X310913984Y-112205626D02*
X310706929Y-111432886D01*
X310522943Y-111482185D01*
X310422411Y-111548561D01*
X310368537Y-111641875D01*
X310351459Y-111725329D01*
X310354101Y-111882378D01*
X310383680Y-111992769D01*
X310459917Y-112130098D01*
X310516433Y-112193833D01*
X310609747Y-112247707D01*
X310729998Y-112254925D01*
X310913984Y-112205626D01*
X309566217Y-111738539D02*
X309934188Y-111639941D01*
X310069583Y-111998053D01*
X310022926Y-111971116D01*
X309939472Y-111954038D01*
X309755486Y-112003337D01*
X309691752Y-112059854D01*
X309664814Y-112106510D01*
X309647737Y-112189965D01*
X309697036Y-112373950D01*
X309753552Y-112437685D01*
X309800209Y-112464622D01*
X309883663Y-112481700D01*
X310067649Y-112432401D01*
X310131384Y-112375885D01*
X310158321Y-112329228D01*
X308936089Y-112183455D02*
X309074126Y-112698615D01*
X309041196Y-111839778D02*
X309373079Y-112342437D01*
X308894716Y-112470614D01*
G04 #@! TO.C,D55*
X315844487Y-130606513D02*
X315637432Y-129833773D01*
X315453446Y-129883072D01*
X315352914Y-129949448D01*
X315299040Y-130042762D01*
X315281962Y-130126216D01*
X315284604Y-130283265D01*
X315314183Y-130393656D01*
X315390420Y-130530985D01*
X315446936Y-130594720D01*
X315540250Y-130648594D01*
X315660501Y-130655812D01*
X315844487Y-130606513D01*
X314496720Y-130139426D02*
X314864691Y-130040828D01*
X315000086Y-130398940D01*
X314953429Y-130372003D01*
X314869975Y-130354925D01*
X314685989Y-130404224D01*
X314622255Y-130460741D01*
X314595317Y-130507397D01*
X314578240Y-130590852D01*
X314627539Y-130774837D01*
X314684055Y-130838572D01*
X314730712Y-130865509D01*
X314814166Y-130882587D01*
X314998152Y-130833288D01*
X315061887Y-130776772D01*
X315088824Y-130730115D01*
X313760776Y-130336621D02*
X314128748Y-130238023D01*
X314264143Y-130596135D01*
X314217486Y-130569198D01*
X314134032Y-130552120D01*
X313950046Y-130601419D01*
X313886311Y-130657936D01*
X313859374Y-130704593D01*
X313842296Y-130788047D01*
X313891595Y-130972033D01*
X313948112Y-131035768D01*
X313994769Y-131062705D01*
X314078223Y-131079783D01*
X314262209Y-131030484D01*
X314325943Y-130973967D01*
X314352881Y-130927310D01*
G04 #@! TO.C,D56*
X320774989Y-149007400D02*
X320567934Y-148234660D01*
X320383948Y-148283959D01*
X320283416Y-148350335D01*
X320229542Y-148443649D01*
X320212464Y-148527103D01*
X320215106Y-148684152D01*
X320244685Y-148794543D01*
X320320922Y-148931872D01*
X320377438Y-148995607D01*
X320470752Y-149049481D01*
X320591003Y-149056699D01*
X320774989Y-149007400D01*
X319427222Y-148540313D02*
X319795193Y-148441715D01*
X319930588Y-148799827D01*
X319883931Y-148772890D01*
X319800477Y-148755812D01*
X319616491Y-148805111D01*
X319552757Y-148861628D01*
X319525819Y-148908284D01*
X319508742Y-148991739D01*
X319558041Y-149175724D01*
X319614557Y-149239459D01*
X319661214Y-149266396D01*
X319744668Y-149283474D01*
X319928654Y-149234175D01*
X319992389Y-149177659D01*
X320019326Y-149131002D01*
X318728075Y-148727648D02*
X318875264Y-148688209D01*
X318958718Y-148705287D01*
X319005375Y-148732224D01*
X319108549Y-148822896D01*
X319184785Y-148960225D01*
X319263663Y-149254603D01*
X319246586Y-149338057D01*
X319219648Y-149384714D01*
X319155914Y-149441230D01*
X319008725Y-149480670D01*
X318925271Y-149463592D01*
X318878614Y-149436655D01*
X318822097Y-149372920D01*
X318772798Y-149188934D01*
X318789876Y-149105480D01*
X318816813Y-149058823D01*
X318880548Y-149002306D01*
X319027737Y-148962867D01*
X319111191Y-148979945D01*
X319157848Y-149006882D01*
X319214364Y-149070617D01*
G04 #@! TO.C,D57*
X340408502Y-148677119D02*
X340201447Y-147904379D01*
X340017461Y-147953678D01*
X339916929Y-148020054D01*
X339863055Y-148113368D01*
X339845977Y-148196822D01*
X339848619Y-148353871D01*
X339878198Y-148464262D01*
X339954435Y-148601591D01*
X340010951Y-148665326D01*
X340104265Y-148719200D01*
X340224516Y-148726418D01*
X340408502Y-148677119D01*
X339060735Y-148210032D02*
X339428706Y-148111434D01*
X339564101Y-148469546D01*
X339517444Y-148442609D01*
X339433990Y-148425531D01*
X339250004Y-148474830D01*
X339186270Y-148531347D01*
X339159332Y-148578003D01*
X339142255Y-148661458D01*
X339191554Y-148845443D01*
X339248070Y-148909178D01*
X339294727Y-148936115D01*
X339378181Y-148953193D01*
X339562167Y-148903894D01*
X339625902Y-148847378D01*
X339652839Y-148800721D01*
X338766357Y-148288910D02*
X338251197Y-148426947D01*
X338789427Y-149110949D01*
G04 #@! TO.C,D58*
X320686491Y-75073571D02*
X320479436Y-74300831D01*
X320295450Y-74350130D01*
X320194918Y-74416506D01*
X320141044Y-74509820D01*
X320123966Y-74593274D01*
X320126608Y-74750323D01*
X320156187Y-74860714D01*
X320232424Y-74998043D01*
X320288940Y-75061778D01*
X320382254Y-75115652D01*
X320502505Y-75122870D01*
X320686491Y-75073571D01*
X319338724Y-74606484D02*
X319706695Y-74507886D01*
X319842090Y-74865998D01*
X319795433Y-74839061D01*
X319711979Y-74821983D01*
X319527993Y-74871282D01*
X319464259Y-74927799D01*
X319437321Y-74974455D01*
X319420244Y-75057910D01*
X319469543Y-75241895D01*
X319526059Y-75305630D01*
X319572716Y-75332567D01*
X319656170Y-75349645D01*
X319840156Y-75300346D01*
X319903891Y-75243830D01*
X319930828Y-75197173D01*
X318949098Y-75065835D02*
X319012833Y-75009319D01*
X319039770Y-74962662D01*
X319056848Y-74879208D01*
X319046988Y-74842410D01*
X318990471Y-74778676D01*
X318943815Y-74751738D01*
X318860360Y-74734661D01*
X318713172Y-74774100D01*
X318649437Y-74830617D01*
X318622500Y-74877274D01*
X318605422Y-74960728D01*
X318615282Y-74997525D01*
X318671799Y-75061259D01*
X318718456Y-75088197D01*
X318801910Y-75105274D01*
X318949098Y-75065835D01*
X319032552Y-75082913D01*
X319079209Y-75109850D01*
X319135726Y-75173585D01*
X319175165Y-75320774D01*
X319158088Y-75404228D01*
X319131150Y-75450885D01*
X319067416Y-75507401D01*
X318920227Y-75546841D01*
X318836773Y-75529763D01*
X318790116Y-75502826D01*
X318733599Y-75439091D01*
X318694160Y-75291902D01*
X318711238Y-75208448D01*
X318738175Y-75161791D01*
X318801910Y-75105274D01*
G04 #@! TO.C,D59*
X348287821Y-67677816D02*
X348080766Y-66905076D01*
X347896780Y-66954375D01*
X347796248Y-67020751D01*
X347742374Y-67114065D01*
X347725296Y-67197519D01*
X347727938Y-67354568D01*
X347757517Y-67464959D01*
X347833754Y-67602288D01*
X347890270Y-67666023D01*
X347983584Y-67719897D01*
X348103835Y-67727115D01*
X348287821Y-67677816D01*
X346940054Y-67210729D02*
X347308025Y-67112131D01*
X347443420Y-67470243D01*
X347396763Y-67443306D01*
X347313309Y-67426228D01*
X347129323Y-67475527D01*
X347065589Y-67532044D01*
X347038651Y-67578700D01*
X347021574Y-67662155D01*
X347070873Y-67846140D01*
X347127389Y-67909875D01*
X347174046Y-67936812D01*
X347257500Y-67953890D01*
X347441486Y-67904591D01*
X347505221Y-67848075D01*
X347532158Y-67801418D01*
X346742340Y-68091927D02*
X346595151Y-68131366D01*
X346511697Y-68114288D01*
X346465040Y-68087351D01*
X346361867Y-67996679D01*
X346285630Y-67859350D01*
X346206752Y-67564973D01*
X346223830Y-67481519D01*
X346250767Y-67434862D01*
X346314502Y-67378345D01*
X346461690Y-67338906D01*
X346545145Y-67355983D01*
X346591801Y-67382921D01*
X346648318Y-67446655D01*
X346697617Y-67630641D01*
X346680539Y-67714095D01*
X346653602Y-67760752D01*
X346589867Y-67817269D01*
X346442679Y-67856708D01*
X346359225Y-67839631D01*
X346312568Y-67812693D01*
X346256051Y-67748959D01*
G04 #@! TO.C,D60*
X348618102Y-87311329D02*
X348411047Y-86538589D01*
X348227061Y-86587888D01*
X348126529Y-86654264D01*
X348072655Y-86747578D01*
X348055577Y-86831032D01*
X348058219Y-86988081D01*
X348087798Y-87098472D01*
X348164035Y-87235801D01*
X348220551Y-87299536D01*
X348313865Y-87353410D01*
X348434116Y-87360628D01*
X348618102Y-87311329D01*
X347307132Y-86834382D02*
X347454321Y-86794943D01*
X347537775Y-86812021D01*
X347584432Y-86838958D01*
X347687605Y-86929630D01*
X347763842Y-87066959D01*
X347842720Y-87361336D01*
X347825642Y-87444790D01*
X347798705Y-87491447D01*
X347734970Y-87547964D01*
X347587781Y-87587403D01*
X347504327Y-87570325D01*
X347457670Y-87543388D01*
X347401154Y-87479653D01*
X347351855Y-87295668D01*
X347368932Y-87212213D01*
X347395870Y-87165557D01*
X347459604Y-87109040D01*
X347606793Y-87069601D01*
X347690247Y-87086678D01*
X347736904Y-87113616D01*
X347793421Y-87177350D01*
X346755174Y-86982279D02*
X346681580Y-87001998D01*
X346617845Y-87058515D01*
X346590908Y-87105172D01*
X346573830Y-87188626D01*
X346576472Y-87345674D01*
X346625771Y-87529660D01*
X346702007Y-87666989D01*
X346758524Y-87730724D01*
X346805181Y-87757661D01*
X346888635Y-87774739D01*
X346962229Y-87755019D01*
X347025964Y-87698503D01*
X347052901Y-87651846D01*
X347069979Y-87568391D01*
X347067337Y-87411343D01*
X347018038Y-87227357D01*
X346941802Y-87090028D01*
X346885285Y-87026294D01*
X346838628Y-86999356D01*
X346755174Y-86982279D01*
G04 #@! TO.C,D61*
X325616994Y-93474458D02*
X325409939Y-92701718D01*
X325225953Y-92751017D01*
X325125421Y-92817393D01*
X325071547Y-92910707D01*
X325054469Y-92994161D01*
X325057111Y-93151210D01*
X325086690Y-93261601D01*
X325162927Y-93398930D01*
X325219443Y-93462665D01*
X325312757Y-93516539D01*
X325433008Y-93523757D01*
X325616994Y-93474458D01*
X324306024Y-92997511D02*
X324453213Y-92958072D01*
X324536667Y-92975150D01*
X324583324Y-93002087D01*
X324686497Y-93092759D01*
X324762734Y-93230088D01*
X324841612Y-93524465D01*
X324824534Y-93607919D01*
X324797597Y-93654576D01*
X324733862Y-93711093D01*
X324586673Y-93750532D01*
X324503219Y-93733454D01*
X324456562Y-93706517D01*
X324400046Y-93642782D01*
X324350747Y-93458797D01*
X324367824Y-93375342D01*
X324394762Y-93328686D01*
X324458496Y-93272169D01*
X324605685Y-93232730D01*
X324689139Y-93249807D01*
X324735796Y-93276745D01*
X324792313Y-93340479D01*
X323703541Y-93987167D02*
X324145107Y-93868849D01*
X323924324Y-93928008D02*
X323717269Y-93155267D01*
X323820443Y-93245939D01*
X323913757Y-93299814D01*
X323997211Y-93316892D01*
G04 #@! TO.C,D62*
X360448938Y-103863278D02*
X360241883Y-103090538D01*
X360057897Y-103139837D01*
X359957365Y-103206213D01*
X359903491Y-103299527D01*
X359886413Y-103382981D01*
X359889055Y-103540030D01*
X359918634Y-103650421D01*
X359994871Y-103787750D01*
X360051387Y-103851485D01*
X360144701Y-103905359D01*
X360264952Y-103912577D01*
X360448938Y-103863278D01*
X359137968Y-103386331D02*
X359285157Y-103346892D01*
X359368611Y-103363970D01*
X359415268Y-103390907D01*
X359518441Y-103481579D01*
X359594678Y-103618908D01*
X359673556Y-103913285D01*
X359656478Y-103996739D01*
X359629541Y-104043396D01*
X359565806Y-104099913D01*
X359418617Y-104139352D01*
X359335163Y-104122274D01*
X359288506Y-104095337D01*
X359231990Y-104031602D01*
X359182691Y-103847617D01*
X359199768Y-103764162D01*
X359226706Y-103717506D01*
X359290440Y-103660989D01*
X359437629Y-103621550D01*
X359521083Y-103638627D01*
X359567740Y-103665565D01*
X359624257Y-103729299D01*
X358789716Y-103558523D02*
X358743059Y-103531586D01*
X358659605Y-103514508D01*
X358475619Y-103563807D01*
X358411884Y-103620324D01*
X358384947Y-103666981D01*
X358367869Y-103750435D01*
X358387589Y-103824029D01*
X358453965Y-103924561D01*
X359013848Y-104247810D01*
X358535485Y-104375987D01*
G04 #@! TO.C,D63*
X330547497Y-111875345D02*
X330340442Y-111102605D01*
X330156456Y-111151904D01*
X330055924Y-111218280D01*
X330002050Y-111311594D01*
X329984972Y-111395048D01*
X329987614Y-111552097D01*
X330017193Y-111662488D01*
X330093430Y-111799817D01*
X330149946Y-111863552D01*
X330243260Y-111917426D01*
X330363511Y-111924644D01*
X330547497Y-111875345D01*
X329236527Y-111398398D02*
X329383716Y-111358959D01*
X329467170Y-111376037D01*
X329513827Y-111402974D01*
X329617000Y-111493646D01*
X329693237Y-111630975D01*
X329772115Y-111925352D01*
X329755037Y-112008806D01*
X329728100Y-112055463D01*
X329664365Y-112111980D01*
X329517176Y-112151419D01*
X329433722Y-112134341D01*
X329387065Y-112107404D01*
X329330549Y-112043669D01*
X329281250Y-111859684D01*
X329298327Y-111776229D01*
X329325265Y-111729573D01*
X329388999Y-111673056D01*
X329536188Y-111633617D01*
X329619642Y-111650694D01*
X329666299Y-111677632D01*
X329722816Y-111741366D01*
X328905352Y-111487136D02*
X328426989Y-111615313D01*
X328763447Y-111840672D01*
X328653056Y-111870251D01*
X328589321Y-111926768D01*
X328562384Y-111973425D01*
X328545306Y-112056879D01*
X328594605Y-112240865D01*
X328651122Y-112304600D01*
X328697779Y-112331537D01*
X328781233Y-112348615D01*
X329002016Y-112289456D01*
X329065751Y-112232939D01*
X329092688Y-112186282D01*
G04 #@! TO.C,D64*
X335477999Y-130276232D02*
X335270944Y-129503492D01*
X335086958Y-129552791D01*
X334986426Y-129619167D01*
X334932552Y-129712481D01*
X334915474Y-129795935D01*
X334918116Y-129952984D01*
X334947695Y-130063375D01*
X335023932Y-130200704D01*
X335080448Y-130264439D01*
X335173762Y-130318313D01*
X335294013Y-130325531D01*
X335477999Y-130276232D01*
X334167029Y-129799285D02*
X334314218Y-129759846D01*
X334397672Y-129776924D01*
X334444329Y-129803861D01*
X334547502Y-129894533D01*
X334623739Y-130031862D01*
X334702617Y-130326239D01*
X334685539Y-130409693D01*
X334658602Y-130456350D01*
X334594867Y-130512867D01*
X334447678Y-130552306D01*
X334364224Y-130535228D01*
X334317567Y-130508291D01*
X334261051Y-130444556D01*
X334211752Y-130260571D01*
X334228829Y-130177116D01*
X334255767Y-130130460D01*
X334319501Y-130073943D01*
X334466690Y-130034504D01*
X334550144Y-130051581D01*
X334596801Y-130078519D01*
X334653318Y-130142253D01*
X333500104Y-130254061D02*
X333638141Y-130769221D01*
X333605211Y-129910384D02*
X333937094Y-130413043D01*
X333458731Y-130541220D01*
G04 #@! TO.C,D65*
X360779219Y-123496790D02*
X360572164Y-122724050D01*
X360388178Y-122773349D01*
X360287646Y-122839725D01*
X360233772Y-122933039D01*
X360216694Y-123016493D01*
X360219336Y-123173542D01*
X360248915Y-123283933D01*
X360325152Y-123421262D01*
X360381668Y-123484997D01*
X360474982Y-123538871D01*
X360595233Y-123546089D01*
X360779219Y-123496790D01*
X359468249Y-123019843D02*
X359615438Y-122980404D01*
X359698892Y-122997482D01*
X359745549Y-123024419D01*
X359848722Y-123115091D01*
X359924959Y-123252420D01*
X360003837Y-123546797D01*
X359986759Y-123630251D01*
X359959822Y-123676908D01*
X359896087Y-123733425D01*
X359748898Y-123772864D01*
X359665444Y-123755786D01*
X359618787Y-123728849D01*
X359562271Y-123665114D01*
X359512972Y-123481129D01*
X359530049Y-123397674D01*
X359556987Y-123351018D01*
X359620721Y-123294501D01*
X359767910Y-123255062D01*
X359851364Y-123272139D01*
X359898021Y-123299077D01*
X359954538Y-123362811D01*
X358695508Y-123226898D02*
X359063480Y-123128300D01*
X359198875Y-123486412D01*
X359152218Y-123459475D01*
X359068764Y-123442397D01*
X358884778Y-123491696D01*
X358821043Y-123548213D01*
X358794106Y-123594870D01*
X358777028Y-123678324D01*
X358826327Y-123862310D01*
X358882844Y-123926045D01*
X358929501Y-123952982D01*
X359012955Y-123970060D01*
X359196941Y-123920761D01*
X359260675Y-123864244D01*
X359287613Y-123817587D01*
G04 #@! TO.C,D66*
X386080439Y-116717349D02*
X385873384Y-115944609D01*
X385689398Y-115993908D01*
X385588866Y-116060284D01*
X385534992Y-116153598D01*
X385517914Y-116237052D01*
X385520556Y-116394101D01*
X385550135Y-116504492D01*
X385626372Y-116641821D01*
X385682888Y-116705556D01*
X385776202Y-116759430D01*
X385896453Y-116766648D01*
X386080439Y-116717349D01*
X384769469Y-116240402D02*
X384916658Y-116200963D01*
X385000112Y-116218041D01*
X385046769Y-116244978D01*
X385149942Y-116335650D01*
X385226179Y-116472979D01*
X385305057Y-116767356D01*
X385287979Y-116850810D01*
X385261042Y-116897467D01*
X385197307Y-116953984D01*
X385050118Y-116993423D01*
X384966664Y-116976345D01*
X384920007Y-116949408D01*
X384863491Y-116885673D01*
X384814192Y-116701688D01*
X384831269Y-116618233D01*
X384858207Y-116571577D01*
X384921941Y-116515060D01*
X385069130Y-116475621D01*
X385152584Y-116492698D01*
X385199241Y-116519636D01*
X385255758Y-116583370D01*
X384033525Y-116437597D02*
X384180714Y-116398158D01*
X384264168Y-116415236D01*
X384310825Y-116442173D01*
X384413999Y-116532845D01*
X384490235Y-116670174D01*
X384569113Y-116964552D01*
X384552036Y-117048006D01*
X384525098Y-117094663D01*
X384461364Y-117151179D01*
X384314175Y-117190619D01*
X384230721Y-117173541D01*
X384184064Y-117146604D01*
X384127547Y-117082869D01*
X384078248Y-116898883D01*
X384095326Y-116815429D01*
X384122263Y-116768772D01*
X384185998Y-116712255D01*
X384333187Y-116672816D01*
X384416641Y-116689894D01*
X384463298Y-116716831D01*
X384519814Y-116780566D01*
G04 #@! TO.C,J_GND1*
X208422595Y-85862630D02*
X208422595Y-86576916D01*
X208470214Y-86719773D01*
X208565452Y-86815011D01*
X208708309Y-86862630D01*
X208803547Y-86862630D01*
X208184500Y-86957869D02*
X207422595Y-86957869D01*
X206660690Y-85910250D02*
X206755928Y-85862630D01*
X206898785Y-85862630D01*
X207041642Y-85910250D01*
X207136880Y-86005488D01*
X207184500Y-86100726D01*
X207232119Y-86291202D01*
X207232119Y-86434059D01*
X207184500Y-86624535D01*
X207136880Y-86719773D01*
X207041642Y-86815011D01*
X206898785Y-86862630D01*
X206803547Y-86862630D01*
X206660690Y-86815011D01*
X206613071Y-86767392D01*
X206613071Y-86434059D01*
X206803547Y-86434059D01*
X206184500Y-86862630D02*
X206184500Y-85862630D01*
X205613071Y-86862630D01*
X205613071Y-85862630D01*
X205136880Y-86862630D02*
X205136880Y-85862630D01*
X204898785Y-85862630D01*
X204755928Y-85910250D01*
X204660690Y-86005488D01*
X204613071Y-86100726D01*
X204565452Y-86291202D01*
X204565452Y-86434059D01*
X204613071Y-86624535D01*
X204660690Y-86719773D01*
X204755928Y-86815011D01*
X204898785Y-86862630D01*
X205136880Y-86862630D01*
X203613071Y-86862630D02*
X204184500Y-86862630D01*
X203898785Y-86862630D02*
X203898785Y-85862630D01*
X203994023Y-86005488D01*
X204089261Y-86100726D01*
X204184500Y-86148345D01*
G04 #@! TO.C,J_RGB1*
X208557535Y-79353880D02*
X208557535Y-80068166D01*
X208605154Y-80211023D01*
X208700392Y-80306261D01*
X208843250Y-80353880D01*
X208938488Y-80353880D01*
X208319440Y-80449119D02*
X207557535Y-80449119D01*
X206748011Y-80353880D02*
X207081345Y-79877690D01*
X207319440Y-80353880D02*
X207319440Y-79353880D01*
X206938488Y-79353880D01*
X206843250Y-79401500D01*
X206795630Y-79449119D01*
X206748011Y-79544357D01*
X206748011Y-79687214D01*
X206795630Y-79782452D01*
X206843250Y-79830071D01*
X206938488Y-79877690D01*
X207319440Y-79877690D01*
X205795630Y-79401500D02*
X205890869Y-79353880D01*
X206033726Y-79353880D01*
X206176583Y-79401500D01*
X206271821Y-79496738D01*
X206319440Y-79591976D01*
X206367059Y-79782452D01*
X206367059Y-79925309D01*
X206319440Y-80115785D01*
X206271821Y-80211023D01*
X206176583Y-80306261D01*
X206033726Y-80353880D01*
X205938488Y-80353880D01*
X205795630Y-80306261D01*
X205748011Y-80258642D01*
X205748011Y-79925309D01*
X205938488Y-79925309D01*
X204986107Y-79830071D02*
X204843250Y-79877690D01*
X204795630Y-79925309D01*
X204748011Y-80020547D01*
X204748011Y-80163404D01*
X204795630Y-80258642D01*
X204843250Y-80306261D01*
X204938488Y-80353880D01*
X205319440Y-80353880D01*
X205319440Y-79353880D01*
X204986107Y-79353880D01*
X204890869Y-79401500D01*
X204843250Y-79449119D01*
X204795630Y-79544357D01*
X204795630Y-79639595D01*
X204843250Y-79734833D01*
X204890869Y-79782452D01*
X204986107Y-79830071D01*
X205319440Y-79830071D01*
X203795630Y-80353880D02*
X204367059Y-80353880D01*
X204081345Y-80353880D02*
X204081345Y-79353880D01*
X204176583Y-79496738D01*
X204271821Y-79591976D01*
X204367059Y-79639595D01*
G04 #@! TO.C,J_VCC1*
X241506107Y-86338880D02*
X241506107Y-87053166D01*
X241553726Y-87196023D01*
X241648964Y-87291261D01*
X241791821Y-87338880D01*
X241887059Y-87338880D01*
X241268011Y-87434119D02*
X240506107Y-87434119D01*
X240410869Y-86338880D02*
X240077535Y-87338880D01*
X239744202Y-86338880D01*
X238839440Y-87243642D02*
X238887059Y-87291261D01*
X239029916Y-87338880D01*
X239125154Y-87338880D01*
X239268011Y-87291261D01*
X239363250Y-87196023D01*
X239410869Y-87100785D01*
X239458488Y-86910309D01*
X239458488Y-86767452D01*
X239410869Y-86576976D01*
X239363250Y-86481738D01*
X239268011Y-86386500D01*
X239125154Y-86338880D01*
X239029916Y-86338880D01*
X238887059Y-86386500D01*
X238839440Y-86434119D01*
X237839440Y-87243642D02*
X237887059Y-87291261D01*
X238029916Y-87338880D01*
X238125154Y-87338880D01*
X238268011Y-87291261D01*
X238363250Y-87196023D01*
X238410869Y-87100785D01*
X238458488Y-86910309D01*
X238458488Y-86767452D01*
X238410869Y-86576976D01*
X238363250Y-86481738D01*
X238268011Y-86386500D01*
X238125154Y-86338880D01*
X238029916Y-86338880D01*
X237887059Y-86386500D01*
X237839440Y-86434119D01*
X236887059Y-87338880D02*
X237458488Y-87338880D01*
X237172773Y-87338880D02*
X237172773Y-86338880D01*
X237268011Y-86481738D01*
X237363250Y-86576976D01*
X237458488Y-86624595D01*
G04 #@! TO.C,K_0*
D10*
X324726763Y-89672154D02*
X324467944Y-88706228D01*
X324174806Y-89820051D02*
X324440877Y-89157171D01*
X323915987Y-88854125D02*
X324615841Y-89258186D01*
X324015469Y-89961343D02*
X323279526Y-90158538D01*
X322582089Y-89211542D02*
X322490096Y-89236191D01*
X322410428Y-89306837D01*
X322376756Y-89365158D01*
X322355409Y-89469476D01*
X322358712Y-89665786D01*
X322420335Y-89895769D01*
X322515630Y-90067430D01*
X322586276Y-90147098D01*
X322644598Y-90180770D01*
X322748915Y-90202117D01*
X322840908Y-90177467D01*
X322920576Y-90106822D01*
X322954248Y-90048500D01*
X322975595Y-89944183D01*
X322972293Y-89747872D01*
X322910669Y-89517890D01*
X322815374Y-89346229D01*
X322744728Y-89266560D01*
X322686407Y-89232889D01*
X322582089Y-89211542D01*
G04 #@! TO.C,K_1*
X123173304Y-90348575D02*
X123432123Y-89382649D01*
X122621346Y-90200678D02*
X123183211Y-89759643D01*
X122880165Y-89234752D02*
X123284226Y-89934607D01*
X122412711Y-90243372D02*
X121676767Y-90046177D01*
X120965473Y-89756988D02*
X121517431Y-89904885D01*
X121241452Y-89830937D02*
X121500271Y-88865011D01*
X121555290Y-89027650D01*
X121622633Y-89144292D01*
X121702302Y-89214938D01*
G04 #@! TO.C,K_2*
X142806816Y-90678856D02*
X143065635Y-89712930D01*
X142254858Y-90530959D02*
X142816723Y-90089924D01*
X142513677Y-89565033D02*
X142917738Y-90264888D01*
X142046223Y-90573653D02*
X141310279Y-90376458D01*
X141385112Y-89361233D02*
X141351441Y-89302912D01*
X141271772Y-89232266D01*
X141041790Y-89170642D01*
X140937472Y-89191989D01*
X140879151Y-89225661D01*
X140808505Y-89305329D01*
X140783856Y-89397322D01*
X140792878Y-89547636D01*
X141196939Y-90247491D01*
X140598985Y-90087269D01*
G04 #@! TO.C,K_3*
X162440327Y-91009137D02*
X162699146Y-90043211D01*
X161888369Y-90861240D02*
X162450234Y-90420205D01*
X162147188Y-89895314D02*
X162551249Y-90595169D01*
X161679734Y-90903934D02*
X160943790Y-90706739D01*
X161089269Y-89611846D02*
X160491315Y-89451625D01*
X160714693Y-89905869D01*
X160576703Y-89868895D01*
X160472386Y-89890242D01*
X160414065Y-89923914D01*
X160343419Y-90003582D01*
X160281795Y-90233565D01*
X160303142Y-90337882D01*
X160336814Y-90396203D01*
X160416482Y-90466849D01*
X160692461Y-90540798D01*
X160796779Y-90519451D01*
X160855100Y-90485779D01*
G04 #@! TO.C,K_4*
X179608591Y-100539860D02*
X179867410Y-99573934D01*
X179056633Y-100391963D02*
X179618498Y-99950928D01*
X179315452Y-99426037D02*
X179719513Y-100125892D01*
X178847998Y-100434657D02*
X178112054Y-100237462D01*
X177665299Y-99328972D02*
X177492753Y-99972923D01*
X177993879Y-99022624D02*
X178038991Y-99774195D01*
X177441037Y-99613973D01*
G04 #@! TO.C,K_5*
X196776852Y-110070586D02*
X197035671Y-109104660D01*
X196224894Y-109922689D02*
X196786759Y-109481654D01*
X196483713Y-108956763D02*
X196887774Y-109656618D01*
X196016259Y-109965383D02*
X195280315Y-109768188D01*
X194873837Y-108525398D02*
X195333801Y-108648645D01*
X195256551Y-109120935D01*
X195222879Y-109062614D01*
X195143211Y-108991968D01*
X194913228Y-108930344D01*
X194808911Y-108951691D01*
X194750590Y-108985363D01*
X194679944Y-109065031D01*
X194618320Y-109295014D01*
X194639667Y-109399331D01*
X194673339Y-109457652D01*
X194753007Y-109528298D01*
X194982989Y-109589922D01*
X195087307Y-109568575D01*
X195145628Y-109534903D01*
G04 #@! TO.C,K_6*
X251123215Y-109394165D02*
X250864396Y-108428239D01*
X250571258Y-109542062D02*
X250837329Y-108879182D01*
X250312439Y-108576136D02*
X251012293Y-108980197D01*
X250411921Y-109683354D02*
X249675978Y-109880549D01*
X248748559Y-108995176D02*
X248932545Y-108945877D01*
X249036862Y-108967224D01*
X249095183Y-109000896D01*
X249224151Y-109114236D01*
X249319446Y-109285897D01*
X249418044Y-109653869D01*
X249396697Y-109758187D01*
X249363025Y-109816508D01*
X249283357Y-109887154D01*
X249099371Y-109936453D01*
X248995053Y-109915106D01*
X248936732Y-109881434D01*
X248866086Y-109801766D01*
X248804462Y-109571783D01*
X248825809Y-109467466D01*
X248859481Y-109409144D01*
X248939149Y-109338499D01*
X249123135Y-109289200D01*
X249227453Y-109310547D01*
X249285774Y-109344218D01*
X249356420Y-109423887D01*
G04 #@! TO.C,K_7*
X268291474Y-99863442D02*
X268032655Y-98897516D01*
X267739517Y-100011339D02*
X268005588Y-99348459D01*
X267480698Y-99045413D02*
X268180552Y-99449474D01*
X267580180Y-100152631D02*
X266844237Y-100349826D01*
X266422779Y-99328881D02*
X265778828Y-99501427D01*
X266451616Y-100356431D01*
G04 #@! TO.C,K_8*
X285459738Y-90332717D02*
X285200919Y-89366791D01*
X284907781Y-90480614D02*
X285173852Y-89817734D01*
X284648962Y-89514688D02*
X285348816Y-89918749D01*
X284748444Y-90621906D02*
X284012501Y-90819101D01*
X283471983Y-90273748D02*
X283551651Y-90203102D01*
X283585323Y-90144781D01*
X283606670Y-90040463D01*
X283594345Y-89994467D01*
X283523699Y-89914799D01*
X283465378Y-89881127D01*
X283361061Y-89859780D01*
X283177075Y-89909079D01*
X283097406Y-89979725D01*
X283063735Y-90038046D01*
X283042388Y-90142364D01*
X283054712Y-90188360D01*
X283125358Y-90268028D01*
X283183679Y-90301700D01*
X283287997Y-90323047D01*
X283471983Y-90273748D01*
X283576301Y-90295095D01*
X283634622Y-90328767D01*
X283705268Y-90408435D01*
X283754567Y-90592421D01*
X283733220Y-90696739D01*
X283699548Y-90755060D01*
X283619880Y-90825706D01*
X283435894Y-90875005D01*
X283331576Y-90853658D01*
X283273255Y-90819986D01*
X283202609Y-90740318D01*
X283153310Y-90556332D01*
X283174657Y-90452014D01*
X283208329Y-90393693D01*
X283287997Y-90323047D01*
G04 #@! TO.C,K_9*
X305093249Y-90002436D02*
X304834430Y-89036510D01*
X304541292Y-90150333D02*
X304807363Y-89487453D01*
X304282473Y-89184407D02*
X304982327Y-89588468D01*
X304381955Y-90291625D02*
X303646012Y-90488820D01*
X303345384Y-90470775D02*
X303161398Y-90520074D01*
X303057080Y-90498727D01*
X302998759Y-90465055D01*
X302869792Y-90351715D01*
X302774496Y-90180054D01*
X302675899Y-89812083D01*
X302697246Y-89707765D01*
X302730917Y-89649444D01*
X302810586Y-89578798D01*
X302994572Y-89529499D01*
X303098889Y-89550846D01*
X303157210Y-89584518D01*
X303227856Y-89664186D01*
X303289480Y-89894168D01*
X303268133Y-89998486D01*
X303234461Y-90056807D01*
X303154793Y-90127453D01*
X302970807Y-90176752D01*
X302866489Y-90155405D01*
X302808168Y-90121733D01*
X302737522Y-90042065D01*
G04 #@! TO.C,K_A1*
X113726264Y-127261270D02*
X113985083Y-126295344D01*
X113174306Y-127113374D02*
X113736171Y-126672338D01*
X113433125Y-126147448D02*
X113837186Y-126847302D01*
X112965671Y-127156068D02*
X112229727Y-126958872D01*
X112144339Y-126541602D02*
X111684375Y-126418354D01*
X112162384Y-126842230D02*
X112099228Y-125790031D01*
X111518433Y-126669684D01*
X110690497Y-126447839D02*
X111242455Y-126595736D01*
X110966476Y-126521787D02*
X111225295Y-125555861D01*
X111280314Y-125718500D01*
X111347657Y-125835143D01*
X111427325Y-125905789D01*
G04 #@! TO.C,K_Alt1*
X160829507Y-174396064D02*
X161088326Y-173430139D01*
X160277550Y-174248168D02*
X160839414Y-173807133D01*
X160536369Y-173282242D02*
X160940430Y-173982096D01*
X160068914Y-174290862D02*
X159332971Y-174093666D01*
X159247583Y-173676396D02*
X158787618Y-173553149D01*
X159265627Y-173977024D02*
X159202471Y-172924825D01*
X158621677Y-173804478D01*
X158161712Y-173681231D02*
X158266030Y-173659884D01*
X158336676Y-173580216D01*
X158558521Y-172752279D01*
X158104276Y-172975657D02*
X157736304Y-172877059D01*
X158052559Y-172616707D02*
X157830715Y-173444644D01*
X157760069Y-173524312D01*
X157655751Y-173545659D01*
X157563758Y-173521010D01*
X156735822Y-173299165D02*
X157287779Y-173447061D01*
X157011800Y-173373113D02*
X157270619Y-172407187D01*
X157325638Y-172569826D01*
X157392982Y-172686468D01*
X157472650Y-172757114D01*
G04 #@! TO.C,K_B1*
X182468305Y-165402656D02*
X182727124Y-164436730D01*
X181916347Y-165254760D02*
X182478212Y-164813725D01*
X182175166Y-164288834D02*
X182579227Y-164988688D01*
X181707712Y-165297454D02*
X180971768Y-165100258D01*
X180580032Y-164354408D02*
X180429718Y-164363430D01*
X180371397Y-164397102D01*
X180300751Y-164476770D01*
X180263777Y-164614759D01*
X180285124Y-164719077D01*
X180318795Y-164777398D01*
X180398464Y-164848044D01*
X180766435Y-164946642D01*
X181025254Y-163980716D01*
X180703279Y-163894443D01*
X180598961Y-163915790D01*
X180540640Y-163949462D01*
X180469994Y-164029130D01*
X180445345Y-164121123D01*
X180466692Y-164225441D01*
X180500364Y-164283762D01*
X180580032Y-164354408D01*
X180902007Y-164440681D01*
X179294548Y-164552251D02*
X179846506Y-164700147D01*
X179570527Y-164626199D02*
X179829346Y-163660273D01*
X179884365Y-163822912D01*
X179951708Y-163939555D01*
X180031377Y-164010200D01*
G04 #@! TO.C,K_Backspace1*
X356145800Y-81253452D02*
X355886981Y-80287526D01*
X355593843Y-81401348D02*
X355859914Y-80738468D01*
X355335023Y-80435422D02*
X356034878Y-80839483D01*
X355434506Y-81542640D02*
X354698563Y-81739836D01*
X353986384Y-81289778D02*
X353860719Y-81372749D01*
X353827047Y-81431070D01*
X353805700Y-81535387D01*
X353842674Y-81673377D01*
X353913320Y-81753045D01*
X353971641Y-81786717D01*
X354075959Y-81808064D01*
X354443931Y-81709466D01*
X354185112Y-80743540D01*
X353863137Y-80829813D01*
X353783468Y-80900459D01*
X353749797Y-80958780D01*
X353728449Y-81063098D01*
X353753099Y-81155091D01*
X353823745Y-81234759D01*
X353882066Y-81268431D01*
X353986384Y-81289778D01*
X354308359Y-81203505D01*
X353064037Y-82079208D02*
X352928465Y-81573246D01*
X352949812Y-81468929D01*
X353029480Y-81398283D01*
X353213466Y-81348984D01*
X353317784Y-81370331D01*
X353051712Y-82033211D02*
X353156030Y-82054558D01*
X353386012Y-81992935D01*
X353465680Y-81922289D01*
X353487027Y-81817971D01*
X353462378Y-81725978D01*
X353391732Y-81646310D01*
X353287414Y-81624963D01*
X353057432Y-81686586D01*
X352953114Y-81665239D01*
X352177779Y-82267381D02*
X352282097Y-82288728D01*
X352466083Y-82239429D01*
X352545751Y-82168783D01*
X352579423Y-82110462D01*
X352600770Y-82006144D01*
X352526821Y-81730165D01*
X352456176Y-81650497D01*
X352397854Y-81616825D01*
X352293537Y-81595478D01*
X352109551Y-81644777D01*
X352029883Y-81715423D01*
X351776136Y-82424300D02*
X351517317Y-81458374D01*
X351585545Y-82080977D02*
X351408164Y-82522897D01*
X351235618Y-81878947D02*
X351702187Y-82148321D01*
X351027867Y-82575499D02*
X350948199Y-82646145D01*
X350764213Y-82695443D01*
X350659896Y-82674096D01*
X350589250Y-82594428D01*
X350576925Y-82548432D01*
X350598272Y-82444114D01*
X350677940Y-82373468D01*
X350815930Y-82336494D01*
X350895598Y-82265848D01*
X350916945Y-82161530D01*
X350904620Y-82115534D01*
X350833974Y-82035866D01*
X350729657Y-82014519D01*
X350591667Y-82051493D01*
X350511999Y-82122139D01*
X350039710Y-82199390D02*
X350298529Y-83165315D01*
X350052034Y-82245386D02*
X349947717Y-82224039D01*
X349763731Y-82273338D01*
X349684063Y-82343984D01*
X349650391Y-82402305D01*
X349629044Y-82506623D01*
X349702992Y-82782601D01*
X349773638Y-82862270D01*
X349831959Y-82895941D01*
X349936277Y-82917288D01*
X350120263Y-82867989D01*
X350199931Y-82797344D01*
X348924355Y-83188432D02*
X348788783Y-82682471D01*
X348810130Y-82578153D01*
X348889798Y-82507507D01*
X349073784Y-82458209D01*
X349178102Y-82479556D01*
X348912030Y-83142436D02*
X349016348Y-83163783D01*
X349246330Y-83102159D01*
X349325998Y-83031513D01*
X349347345Y-82927196D01*
X349322696Y-82835203D01*
X349252050Y-82755534D01*
X349147732Y-82734187D01*
X348917750Y-82795811D01*
X348813432Y-82774464D01*
X348038097Y-83376605D02*
X348142415Y-83397952D01*
X348326401Y-83348653D01*
X348406069Y-83278008D01*
X348439741Y-83219686D01*
X348461088Y-83115369D01*
X348387139Y-82839390D01*
X348316493Y-82759722D01*
X348258172Y-82726050D01*
X348153855Y-82704703D01*
X347969869Y-82754002D01*
X347890200Y-82824648D01*
X347256157Y-83586125D02*
X347360475Y-83607472D01*
X347544461Y-83558174D01*
X347624129Y-83487528D01*
X347645476Y-83383210D01*
X347546878Y-83015238D01*
X347476232Y-82935570D01*
X347371915Y-82914223D01*
X347187929Y-82963522D01*
X347108261Y-83034168D01*
X347086913Y-83138485D01*
X347111563Y-83230478D01*
X347596177Y-83199224D01*
X346302556Y-83890941D02*
X346854514Y-83743044D01*
X346578535Y-83816993D02*
X346319716Y-82851067D01*
X346448683Y-82964407D01*
X346565325Y-83031750D01*
X346669643Y-83053097D01*
G04 #@! TO.C,K_C1*
X148131783Y-146341206D02*
X148390602Y-145375280D01*
X147579825Y-146193310D02*
X148141690Y-145752275D01*
X147838644Y-145227384D02*
X148242705Y-145927238D01*
X147371190Y-146236004D02*
X146635246Y-146038808D01*
X145902605Y-145645302D02*
X145936277Y-145703623D01*
X146061942Y-145786594D01*
X146153934Y-145811243D01*
X146304249Y-145802221D01*
X146420891Y-145734878D01*
X146491537Y-145655209D01*
X146586832Y-145483548D01*
X146623806Y-145345559D01*
X146627109Y-145149248D01*
X146605762Y-145044931D01*
X146538418Y-144928288D01*
X146412754Y-144845318D01*
X146320761Y-144820668D01*
X146170446Y-144829691D01*
X146112125Y-144863362D01*
X144958026Y-145490801D02*
X145509984Y-145638697D01*
X145234005Y-145564749D02*
X145492824Y-144598823D01*
X145547843Y-144761462D01*
X145615186Y-144878105D01*
X145694855Y-144948750D01*
G04 #@! TO.C,K_Colon1*
X336634612Y-125925480D02*
X336375793Y-124959554D01*
X336082655Y-126073377D02*
X336348726Y-125410497D01*
X335823835Y-125107451D02*
X336523690Y-125511512D01*
X335923318Y-126214669D02*
X335187375Y-126411864D01*
X334356136Y-126437398D02*
X334414457Y-126471070D01*
X334564771Y-126480092D01*
X334656764Y-126455443D01*
X334782429Y-126372472D01*
X334849772Y-126255830D01*
X334871119Y-126151512D01*
X334867817Y-125955202D01*
X334830843Y-125817212D01*
X334735547Y-125645551D01*
X334664901Y-125565883D01*
X334548259Y-125498540D01*
X334397945Y-125489517D01*
X334305952Y-125514167D01*
X334180287Y-125597137D01*
X334146616Y-125655458D01*
X333828828Y-126677288D02*
X333908496Y-126606642D01*
X333942168Y-126548321D01*
X333963515Y-126444003D01*
X333889566Y-126168024D01*
X333818920Y-126088356D01*
X333760599Y-126054684D01*
X333656282Y-126033337D01*
X333518292Y-126070312D01*
X333438624Y-126140957D01*
X333404952Y-126199279D01*
X333383605Y-126303596D01*
X333457553Y-126579575D01*
X333528199Y-126659243D01*
X333586521Y-126692915D01*
X333690838Y-126714262D01*
X333828828Y-126677288D01*
X332954895Y-126911458D02*
X333034563Y-126840812D01*
X333055910Y-126736494D01*
X332834065Y-125908558D01*
X332448934Y-127047029D02*
X332528602Y-126976384D01*
X332562274Y-126918062D01*
X332583621Y-126813745D01*
X332509672Y-126537766D01*
X332439026Y-126458098D01*
X332380705Y-126424426D01*
X332276388Y-126403079D01*
X332138398Y-126440053D01*
X332058730Y-126510699D01*
X332025058Y-126569020D01*
X332003711Y-126673338D01*
X332077659Y-126949317D01*
X332148305Y-127028985D01*
X332206626Y-127062657D01*
X332310944Y-127084004D01*
X332448934Y-127047029D01*
X331540444Y-126600274D02*
X331712990Y-127244225D01*
X331565093Y-126692267D02*
X331506772Y-126658596D01*
X331402455Y-126637248D01*
X331264465Y-126674223D01*
X331184797Y-126744869D01*
X331163450Y-126849186D01*
X331299022Y-127355147D01*
X330333096Y-127613966D02*
X330885054Y-127466070D01*
X330609075Y-127540018D02*
X330350256Y-126574092D01*
X330479223Y-126687432D01*
X330595865Y-126754776D01*
X330700183Y-126776123D01*
G04 #@! TO.C,K_Ctrl1*
X124395703Y-164633657D02*
X124654522Y-163667731D01*
X123843745Y-164485761D02*
X124405610Y-164044725D01*
X124102564Y-163519835D02*
X124506625Y-164219689D01*
X123635110Y-164528455D02*
X122899167Y-164331259D01*
X122166526Y-163937753D02*
X122200197Y-163996074D01*
X122325862Y-164079045D01*
X122417855Y-164103694D01*
X122568169Y-164094672D01*
X122684811Y-164027329D01*
X122755457Y-163947660D01*
X122850753Y-163775999D01*
X122887727Y-163638010D01*
X122891029Y-163441699D01*
X122869682Y-163337382D01*
X122802339Y-163220739D01*
X122676674Y-163137769D01*
X122584681Y-163113119D01*
X122434367Y-163122141D01*
X122376046Y-163155813D01*
X122038443Y-163311847D02*
X121670472Y-163213250D01*
X121986727Y-162952898D02*
X121764882Y-163780834D01*
X121694236Y-163860502D01*
X121589918Y-163881849D01*
X121497926Y-163857200D01*
X121175950Y-163770927D02*
X121348496Y-163126976D01*
X121299197Y-163310962D02*
X121277850Y-163206645D01*
X121244179Y-163148324D01*
X121164510Y-163077678D01*
X121072517Y-163053028D01*
X120440007Y-163573732D02*
X120544324Y-163552385D01*
X120614970Y-163472716D01*
X120836815Y-162644780D01*
X119566074Y-163339562D02*
X120118032Y-163487459D01*
X119842053Y-163413510D02*
X120100872Y-162447584D01*
X120155891Y-162610223D01*
X120223234Y-162726866D01*
X120302902Y-162797512D01*
G04 #@! TO.C,K_D1*
X153062285Y-127940320D02*
X153321104Y-126974394D01*
X152510327Y-127792424D02*
X153072192Y-127351389D01*
X152769146Y-126826498D02*
X153173207Y-127526352D01*
X152301692Y-127835118D02*
X151565748Y-127637922D01*
X151360415Y-127484306D02*
X151619234Y-126518380D01*
X151389252Y-126456756D01*
X151238938Y-126465779D01*
X151122296Y-126533122D01*
X151051650Y-126612790D01*
X150956354Y-126784452D01*
X150919380Y-126922441D01*
X150916078Y-127118752D01*
X150937425Y-127223069D01*
X151004768Y-127339712D01*
X151130433Y-127422682D01*
X151360415Y-127484306D01*
X149888528Y-127089915D02*
X150440486Y-127237811D01*
X150164507Y-127163863D02*
X150423326Y-126197937D01*
X150478345Y-126360576D01*
X150545688Y-126477219D01*
X150625357Y-126547864D01*
G04 #@! TO.C,K_Del1*
X87521441Y-80795687D02*
X87780260Y-79829761D01*
X86969484Y-80647790D02*
X87531349Y-80206755D01*
X87228303Y-79681864D02*
X87632364Y-80381718D01*
X86760848Y-80690484D02*
X86024905Y-80493289D01*
X85819572Y-80339672D02*
X86078391Y-79373746D01*
X85848409Y-79312123D01*
X85698095Y-79321145D01*
X85581452Y-79388489D01*
X85510806Y-79468157D01*
X85415511Y-79639818D01*
X85378537Y-79777807D01*
X85375235Y-79974118D01*
X85396582Y-80078436D01*
X85463925Y-80195078D01*
X85589590Y-80278049D01*
X85819572Y-80339672D01*
X84497999Y-79936259D02*
X84577667Y-80006905D01*
X84761653Y-80056204D01*
X84865971Y-80034857D01*
X84936617Y-79955188D01*
X85035215Y-79587217D01*
X85013868Y-79482899D01*
X84934199Y-79412253D01*
X84750213Y-79362954D01*
X84645896Y-79384301D01*
X84575250Y-79463970D01*
X84550600Y-79555962D01*
X84985916Y-79771203D01*
X83887720Y-79822034D02*
X83992038Y-79800687D01*
X84062684Y-79721019D01*
X84284529Y-78893082D01*
X83013788Y-79587864D02*
X83565745Y-79735761D01*
X83289766Y-79661813D02*
X83548585Y-78695887D01*
X83603604Y-78858526D01*
X83670948Y-78975168D01*
X83750616Y-79045814D01*
G04 #@! TO.C,K_Down1*
X307044604Y-163437115D02*
X306785785Y-162471189D01*
X306492647Y-163585012D02*
X306758718Y-162922132D01*
X306233828Y-162619086D02*
X306933682Y-163023147D01*
X306333310Y-163726303D02*
X305597367Y-163923499D01*
X305342735Y-163893130D02*
X305083916Y-162927204D01*
X304853934Y-162988827D01*
X304728269Y-163071798D01*
X304660925Y-163188440D01*
X304639578Y-163292758D01*
X304642881Y-163489069D01*
X304679855Y-163627058D01*
X304775150Y-163798719D01*
X304845796Y-163878387D01*
X304962438Y-163945731D01*
X305112753Y-163954753D01*
X305342735Y-163893130D01*
X304238820Y-164188923D02*
X304318488Y-164118277D01*
X304352160Y-164059956D01*
X304373507Y-163955638D01*
X304299558Y-163679659D01*
X304228913Y-163599991D01*
X304170591Y-163566319D01*
X304066274Y-163544972D01*
X303928284Y-163581946D01*
X303848616Y-163652592D01*
X303814944Y-163710913D01*
X303793597Y-163815231D01*
X303867546Y-164091210D01*
X303938191Y-164170878D01*
X303996513Y-164204550D01*
X304100830Y-164225897D01*
X304238820Y-164188923D01*
X303422323Y-163717518D02*
X303410883Y-164410768D01*
X303103650Y-164000102D01*
X303042912Y-164509365D01*
X302686380Y-163914714D01*
X302318408Y-164013311D02*
X302490954Y-164657262D01*
X302343057Y-164105304D02*
X302284736Y-164071633D01*
X302180418Y-164050286D01*
X302042429Y-164087260D01*
X301962761Y-164157906D01*
X301941414Y-164262223D01*
X302076986Y-164768184D01*
X301111060Y-165027004D02*
X301663018Y-164879107D01*
X301387039Y-164953055D02*
X301128220Y-163987129D01*
X301257187Y-164100469D01*
X301373829Y-164167813D01*
X301478147Y-164189160D01*
G04 #@! TO.C,K_E1*
X157946791Y-109527108D02*
X158205610Y-108561182D01*
X157394834Y-109379211D02*
X157956698Y-108938176D01*
X157653653Y-108413285D02*
X158057714Y-109113139D01*
X157186198Y-109421905D02*
X156450255Y-109224710D01*
X156380494Y-108565132D02*
X156058518Y-108478859D01*
X155784957Y-108947846D02*
X156244922Y-109071093D01*
X156503741Y-108105167D01*
X156043776Y-107981920D01*
X154865028Y-108701352D02*
X155416985Y-108849248D01*
X155141007Y-108775300D02*
X155399826Y-107809374D01*
X155454844Y-107972013D01*
X155522188Y-108088655D01*
X155601856Y-108159301D01*
G04 #@! TO.C,K_Ent1*
X244886046Y-182475286D02*
X245851972Y-182216467D01*
X244738149Y-181923328D02*
X245401029Y-182189400D01*
X245704075Y-181664509D02*
X245300014Y-182364364D01*
X244596857Y-181763992D02*
X244399662Y-181028048D01*
X244935992Y-180637845D02*
X244849719Y-180315870D01*
X244306784Y-180313452D02*
X244430031Y-180773417D01*
X245395957Y-180514598D01*
X245272710Y-180054633D01*
X244839812Y-179726938D02*
X244195862Y-179899484D01*
X244747819Y-179751587D02*
X244781491Y-179693266D01*
X244802838Y-179588948D01*
X244765864Y-179450959D01*
X244695218Y-179371291D01*
X244590900Y-179349944D01*
X244084939Y-179485516D01*
X244642617Y-178990994D02*
X244544019Y-178623023D01*
X244927618Y-178766732D02*
X244099681Y-178988577D01*
X243995364Y-178967230D01*
X243924718Y-178887562D01*
X243900068Y-178795569D01*
X243678224Y-177967632D02*
X243826120Y-178519590D01*
X243752172Y-178243611D02*
X244718098Y-177984792D01*
X244604758Y-178113759D01*
X244537414Y-178230401D01*
X244516067Y-178334719D01*
G04 #@! TO.C,K_Enter1*
X366352066Y-117962711D02*
X366093247Y-116996785D01*
X365800109Y-118110608D02*
X366066180Y-117447728D01*
X365541290Y-117144682D02*
X366241144Y-117548743D01*
X365640772Y-118251899D02*
X364904829Y-118449095D01*
X364514625Y-117912764D02*
X364192650Y-117999037D01*
X364190232Y-118541973D02*
X364650197Y-118418726D01*
X364391378Y-117452800D01*
X363931413Y-117576047D01*
X363603718Y-118008945D02*
X363776264Y-118652895D01*
X363628367Y-118100938D02*
X363570046Y-118067266D01*
X363465729Y-118045919D01*
X363327739Y-118082893D01*
X363248071Y-118153539D01*
X363226724Y-118257857D01*
X363362296Y-118763818D01*
X362867775Y-118206140D02*
X362499803Y-118304738D01*
X362643512Y-117921139D02*
X362865357Y-118749075D01*
X362844010Y-118853393D01*
X362764342Y-118924039D01*
X362672349Y-118948688D01*
X361970077Y-119087563D02*
X362074395Y-119108910D01*
X362258381Y-119059611D01*
X362338049Y-118988965D01*
X362359396Y-118884647D01*
X362260798Y-118516676D01*
X362190152Y-118437007D01*
X362085835Y-118415660D01*
X361901849Y-118464959D01*
X361822180Y-118535605D01*
X361800833Y-118639923D01*
X361825483Y-118731916D01*
X362310097Y-118700661D01*
X361522437Y-119256806D02*
X361349891Y-118612856D01*
X361399190Y-118796842D02*
X361328544Y-118717173D01*
X361270223Y-118683502D01*
X361165905Y-118662155D01*
X361073912Y-118686804D01*
X360418522Y-119552600D02*
X360970480Y-119404703D01*
X360694501Y-119478651D02*
X360435682Y-118512725D01*
X360564649Y-118626065D01*
X360681291Y-118693409D01*
X360785609Y-118714756D01*
G04 #@! TO.C,K_Esc1*
X106014320Y-85750839D02*
X106273139Y-84784913D01*
X105462363Y-85602943D02*
X106024228Y-85161907D01*
X105721182Y-84637017D02*
X106125243Y-85336871D01*
X105253727Y-85645637D02*
X104517784Y-85448441D01*
X104448023Y-84788863D02*
X104126048Y-84702590D01*
X103852486Y-85171577D02*
X104312451Y-85294825D01*
X104571270Y-84328899D01*
X104111305Y-84205652D01*
X103496839Y-85026983D02*
X103392522Y-85048330D01*
X103208536Y-84999031D01*
X103128868Y-84928386D01*
X103107521Y-84824068D01*
X103119845Y-84778071D01*
X103190491Y-84698403D01*
X103294809Y-84677056D01*
X103432798Y-84714030D01*
X103537116Y-84692683D01*
X103607762Y-84613015D01*
X103620086Y-84567019D01*
X103598739Y-84462701D01*
X103519071Y-84392055D01*
X103381082Y-84355081D01*
X103276764Y-84376428D01*
X102254935Y-84694216D02*
X102334603Y-84764862D01*
X102518589Y-84814161D01*
X102622906Y-84792814D01*
X102681228Y-84759142D01*
X102751873Y-84679474D01*
X102825822Y-84403495D01*
X102804475Y-84299177D01*
X102770803Y-84240856D01*
X102691135Y-84170210D01*
X102507149Y-84120911D01*
X102402831Y-84142258D01*
X101322681Y-84493718D02*
X101874638Y-84641615D01*
X101598659Y-84567666D02*
X101857478Y-83601741D01*
X101912497Y-83764379D01*
X101979841Y-83881022D01*
X102059509Y-83951668D01*
G04 #@! TO.C,K_F1*
X170161553Y-137452558D02*
X170420372Y-136486632D01*
X169609595Y-137304662D02*
X170171460Y-136863626D01*
X169868414Y-136338736D02*
X170272475Y-137038590D01*
X169400960Y-137347356D02*
X168665016Y-137150160D01*
X168273280Y-136404310D02*
X168595255Y-136490583D01*
X168459684Y-136996544D02*
X168718503Y-136030618D01*
X168258538Y-135907371D01*
X167125786Y-136639127D02*
X167677744Y-136787024D01*
X167401765Y-136713075D02*
X167660584Y-135747149D01*
X167715603Y-135909788D01*
X167782946Y-136026431D01*
X167862614Y-136097077D01*
G04 #@! TO.C,K_G1*
X187398807Y-147001769D02*
X187657626Y-146035843D01*
X186846849Y-146853873D02*
X187408714Y-146412838D01*
X187105668Y-145887947D02*
X187509729Y-146587801D01*
X186638214Y-146896567D02*
X185902270Y-146699371D01*
X185437470Y-145490254D02*
X185541788Y-145468907D01*
X185679778Y-145505881D01*
X185805442Y-145588851D01*
X185872786Y-145705494D01*
X185894133Y-145809811D01*
X185890830Y-146006122D01*
X185853856Y-146144111D01*
X185758561Y-146315772D01*
X185687915Y-146395441D01*
X185571273Y-146462784D01*
X185420958Y-146471806D01*
X185328966Y-146447157D01*
X185203301Y-146364186D01*
X185169629Y-146305865D01*
X185255902Y-145983890D01*
X185439888Y-146033189D01*
X184225050Y-146151364D02*
X184777008Y-146299260D01*
X184501029Y-146225312D02*
X184759848Y-145259386D01*
X184814867Y-145422025D01*
X184882210Y-145538668D01*
X184961879Y-145609313D01*
G04 #@! TO.C,K_H1*
X261490182Y-146060368D02*
X261231363Y-145094442D01*
X260938225Y-146208265D02*
X261204296Y-145545385D01*
X260679406Y-145242339D02*
X261379260Y-145646400D01*
X260778888Y-146349557D02*
X260042945Y-146546752D01*
X259788313Y-146516383D02*
X259529494Y-145550457D01*
X259652741Y-146010422D02*
X259100784Y-146158318D01*
X259236356Y-146664279D02*
X258977536Y-145698354D01*
X258270430Y-146923098D02*
X258822387Y-146775202D01*
X258546409Y-146849150D02*
X258287589Y-145883224D01*
X258416557Y-145996564D01*
X258533199Y-146063908D01*
X258637517Y-146085255D01*
G04 #@! TO.C,K_I1*
X290620223Y-108671982D02*
X290361404Y-107706056D01*
X290068265Y-108819878D02*
X290334337Y-108156998D01*
X289809446Y-107853952D02*
X290509300Y-108258013D01*
X289908929Y-108961170D02*
X289172985Y-109158365D01*
X288918353Y-109127996D02*
X288659534Y-108162070D01*
X287952428Y-109386815D02*
X288504385Y-109238918D01*
X288228406Y-109312867D02*
X287969587Y-108346941D01*
X288098554Y-108460281D01*
X288215197Y-108527624D01*
X288319514Y-108548971D01*
G04 #@! TO.C,K_J1*
X278520453Y-136566618D02*
X278261634Y-135600693D01*
X277968495Y-136714515D02*
X278234567Y-136051635D01*
X277709676Y-135748589D02*
X278409531Y-136152650D01*
X277809159Y-136855807D02*
X277073216Y-137053002D01*
X276283786Y-136130655D02*
X276468657Y-136820602D01*
X276551627Y-136946267D01*
X276668270Y-137013611D01*
X276818584Y-137022633D01*
X276910577Y-136997983D01*
X275576679Y-137355400D02*
X276128637Y-137207504D01*
X275852658Y-137281452D02*
X275593839Y-136315526D01*
X275722806Y-136428866D01*
X275839448Y-136496210D01*
X275943766Y-136517557D01*
G04 #@! TO.C,K_K1*
X295803704Y-127005082D02*
X295544885Y-126039156D01*
X295251747Y-127152978D02*
X295517818Y-126490098D01*
X294992928Y-126187052D02*
X295692782Y-126591113D01*
X295092410Y-127294270D02*
X294356467Y-127491465D01*
X294101835Y-127461096D02*
X293843016Y-126495170D01*
X293549877Y-127608993D02*
X293815949Y-126946113D01*
X293291058Y-126643067D02*
X293990912Y-127047128D01*
X292629948Y-127855487D02*
X293181906Y-127707590D01*
X292905927Y-127781539D02*
X292647108Y-126815613D01*
X292776075Y-126928953D01*
X292892717Y-126996296D01*
X292997035Y-127017643D01*
G04 #@! TO.C,K_L1*
X315345225Y-126699450D02*
X315086406Y-125733524D01*
X314793268Y-126847347D02*
X315059339Y-126184467D01*
X314534449Y-125881421D02*
X315234303Y-126285482D01*
X314633931Y-126988638D02*
X313897988Y-127185834D01*
X313183391Y-127278712D02*
X313643356Y-127155465D01*
X313384537Y-126189539D01*
X312355455Y-127500557D02*
X312907412Y-127352660D01*
X312631434Y-127426608D02*
X312372615Y-126460682D01*
X312501582Y-126574022D01*
X312618224Y-126641366D01*
X312722542Y-126662713D01*
G04 #@! TO.C,K_LBRC1*
X210823359Y-138549953D02*
X211082178Y-137584028D01*
X210271402Y-138402057D02*
X210833267Y-137961022D01*
X210530221Y-137436131D02*
X210934282Y-138135985D01*
X210062766Y-138444751D02*
X209326823Y-138247555D01*
X208661525Y-137970692D02*
X209121490Y-138093939D01*
X209380309Y-137128013D01*
X208153147Y-137292185D02*
X208002833Y-137301207D01*
X207944511Y-137334879D01*
X207873866Y-137414547D01*
X207836891Y-137552536D01*
X207858238Y-137656854D01*
X207891910Y-137715175D01*
X207971578Y-137785821D01*
X208339550Y-137884419D01*
X208598369Y-136918493D01*
X208276394Y-136832220D01*
X208172076Y-136853567D01*
X208113755Y-136887239D01*
X208043109Y-136966907D01*
X208018460Y-137058900D01*
X208039807Y-137163218D01*
X208073479Y-137221539D01*
X208153147Y-137292185D01*
X208475122Y-137378458D01*
X206821667Y-137477703D02*
X207266889Y-137104011D01*
X207373624Y-137625600D02*
X207632443Y-136659674D01*
X207264472Y-136561076D01*
X207160154Y-136582423D01*
X207101833Y-136616095D01*
X207031187Y-136695763D01*
X206994213Y-136833753D01*
X207015560Y-136938070D01*
X207049232Y-136996391D01*
X207128900Y-137067037D01*
X207496871Y-137165635D01*
X205880390Y-137126891D02*
X205914062Y-137185212D01*
X206039727Y-137268183D01*
X206131720Y-137292832D01*
X206282034Y-137283810D01*
X206398676Y-137216467D01*
X206469322Y-137136798D01*
X206564617Y-136965137D01*
X206601592Y-136827148D01*
X206604894Y-136630837D01*
X206583547Y-136526520D01*
X206516203Y-136409877D01*
X206390539Y-136326907D01*
X206298546Y-136302257D01*
X206148232Y-136311279D01*
X206089910Y-136344951D01*
X204935812Y-136972390D02*
X205487769Y-137120286D01*
X205211790Y-137046338D02*
X205470609Y-136080412D01*
X205525628Y-136243051D01*
X205592972Y-136359693D01*
X205672640Y-136430339D01*
G04 #@! TO.C,K_Left1*
X289370383Y-173103412D02*
X289111564Y-172137486D01*
X288818425Y-173251309D02*
X289084497Y-172588429D01*
X288559606Y-172285383D02*
X289259461Y-172689444D01*
X288659089Y-173392600D02*
X287923146Y-173589796D01*
X287208549Y-173682674D02*
X287668514Y-173559426D01*
X287409695Y-172593501D01*
X286506277Y-173821548D02*
X286610595Y-173842895D01*
X286794581Y-173793596D01*
X286874249Y-173722950D01*
X286895596Y-173618633D01*
X286796998Y-173250661D01*
X286726353Y-173170993D01*
X286622035Y-173149646D01*
X286438049Y-173198944D01*
X286358381Y-173269590D01*
X286337034Y-173373908D01*
X286361683Y-173465901D01*
X286846297Y-173434647D01*
X286024081Y-173309867D02*
X285656109Y-173408465D01*
X286058637Y-173990792D02*
X285836793Y-173162855D01*
X285766147Y-173083187D01*
X285661829Y-173061840D01*
X285569836Y-173086489D01*
X285472123Y-173457763D02*
X285104151Y-173556361D01*
X285247861Y-173172762D02*
X285469706Y-174000699D01*
X285448359Y-174105016D01*
X285368690Y-174175662D01*
X285276697Y-174200312D01*
X284448761Y-174422157D02*
X285000719Y-174274260D01*
X284724740Y-174348208D02*
X284465921Y-173382283D01*
X284594888Y-173495622D01*
X284711530Y-173562966D01*
X284815848Y-173584313D01*
G04 #@! TO.C,K_LFn1*
X104693196Y-164284890D02*
X104952015Y-163318964D01*
X104141239Y-164136994D02*
X104703104Y-163695958D01*
X104400058Y-163171068D02*
X104804119Y-163870922D01*
X103932603Y-164179688D02*
X103196660Y-163982492D01*
X102531362Y-163705628D02*
X102991327Y-163828876D01*
X103250146Y-162862950D01*
X102022984Y-163027121D02*
X102344959Y-163113394D01*
X102209387Y-163619355D02*
X102468206Y-162653430D01*
X102008241Y-162530182D01*
X101553997Y-162753560D02*
X101381451Y-163397511D01*
X101529347Y-162845553D02*
X101495675Y-162787232D01*
X101416007Y-162716586D01*
X101278018Y-162679612D01*
X101173700Y-162700959D01*
X101103054Y-162780627D01*
X100967482Y-163286588D01*
X100001557Y-163027769D02*
X100553514Y-163175666D01*
X100277535Y-163101717D02*
X100536354Y-162135792D01*
X100591373Y-162298430D01*
X100658717Y-162415073D01*
X100738385Y-162485719D01*
G04 #@! TO.C,K_Lower1*
X179101684Y-184222583D02*
X179360503Y-183256657D01*
X178549726Y-184074686D02*
X179111591Y-183633651D01*
X178808545Y-183108760D02*
X179212606Y-183808614D01*
X178341091Y-184117380D02*
X177605147Y-183920185D01*
X176939850Y-183643321D02*
X177399814Y-183766568D01*
X177658633Y-182800642D01*
X176479885Y-183520074D02*
X176584202Y-183498727D01*
X176642524Y-183465055D01*
X176713170Y-183385387D01*
X176787118Y-183109408D01*
X176765771Y-183005090D01*
X176732099Y-182946769D01*
X176652431Y-182876123D01*
X176514441Y-182839149D01*
X176410124Y-182860496D01*
X176351803Y-182894168D01*
X176281157Y-182973836D01*
X176207208Y-183249815D01*
X176228555Y-183354133D01*
X176262227Y-183412454D01*
X176341895Y-183483100D01*
X176479885Y-183520074D01*
X176008480Y-182703577D02*
X175651948Y-183298229D01*
X175591210Y-182788965D01*
X175283977Y-183199631D01*
X175272537Y-182506382D01*
X174376372Y-182907140D02*
X174456040Y-182977786D01*
X174640026Y-183027085D01*
X174744344Y-183005738D01*
X174814990Y-182926070D01*
X174913587Y-182558098D01*
X174892240Y-182453781D01*
X174812572Y-182383135D01*
X174628586Y-182333836D01*
X174524269Y-182355183D01*
X174453623Y-182434851D01*
X174428973Y-182526844D01*
X174864289Y-182742084D01*
X173904083Y-182829890D02*
X174076629Y-182185939D01*
X174027330Y-182369925D02*
X174005983Y-182265607D01*
X173972311Y-182207286D01*
X173892643Y-182136640D01*
X173800650Y-182111991D01*
X172800167Y-182534097D02*
X173352125Y-182681993D01*
X173076146Y-182608045D02*
X173334965Y-181642119D01*
X173389984Y-181804758D01*
X173457328Y-181921400D01*
X173536996Y-181992046D01*
G04 #@! TO.C,K_M1*
X283634941Y-154918208D02*
X283376122Y-153952282D01*
X283082983Y-155066104D02*
X283349055Y-154403224D01*
X282824164Y-154100178D02*
X283524018Y-154504239D01*
X282923647Y-155207396D02*
X282187703Y-155404591D01*
X281933072Y-155374222D02*
X281674253Y-154408296D01*
X281537148Y-155184516D01*
X281030302Y-154580842D01*
X281289121Y-155546768D01*
X280323195Y-155805587D02*
X280875153Y-155657690D01*
X280599174Y-155731639D02*
X280340355Y-154765713D01*
X280469322Y-154879053D01*
X280585964Y-154946396D01*
X280690282Y-154967743D01*
G04 #@! TO.C,K_N1*
X266420685Y-164461255D02*
X266161866Y-163495329D01*
X265868728Y-164609152D02*
X266134799Y-163946272D01*
X265609909Y-163643226D02*
X266309763Y-164047287D01*
X265709391Y-164750444D02*
X264973448Y-164947639D01*
X264718816Y-164917270D02*
X264459997Y-163951344D01*
X264166859Y-165065166D01*
X263908039Y-164099241D01*
X263200933Y-165323985D02*
X263752890Y-165176089D01*
X263476912Y-165250037D02*
X263218092Y-164284111D01*
X263347060Y-164397451D01*
X263463702Y-164464795D01*
X263568020Y-164486142D01*
G04 #@! TO.C,K_Novelty1*
X86032654Y-119840790D02*
X86291473Y-118874864D01*
X85480697Y-119692893D02*
X86042562Y-119251858D01*
X85739516Y-118726967D02*
X86143577Y-119426821D01*
X85272061Y-119735587D02*
X84536118Y-119538392D01*
X84330785Y-119384775D02*
X84589604Y-118418849D01*
X83778827Y-119236879D01*
X84037646Y-118270953D01*
X83180873Y-119076657D02*
X83285191Y-119055310D01*
X83343512Y-119021638D01*
X83414158Y-118941970D01*
X83488106Y-118665991D01*
X83466759Y-118561674D01*
X83433088Y-118503353D01*
X83353419Y-118432707D01*
X83215430Y-118395732D01*
X83111112Y-118417080D01*
X83052791Y-118450751D01*
X82982145Y-118530420D01*
X82908197Y-118806398D01*
X82929544Y-118910716D01*
X82963216Y-118969037D01*
X83042884Y-119039683D01*
X83180873Y-119076657D01*
X82709469Y-118260161D02*
X82306940Y-118842488D01*
X82249504Y-118136913D01*
X81353339Y-118537672D02*
X81433008Y-118608318D01*
X81616993Y-118657617D01*
X81721311Y-118636270D01*
X81791957Y-118556602D01*
X81890555Y-118188630D01*
X81869208Y-118084312D01*
X81789539Y-118013666D01*
X81605554Y-117964367D01*
X81501236Y-117985714D01*
X81430590Y-118065383D01*
X81405941Y-118157376D01*
X81841256Y-118372616D01*
X80743061Y-118423447D02*
X80847378Y-118402100D01*
X80918024Y-118322432D01*
X81139869Y-117494496D01*
X80685624Y-117717873D02*
X80317652Y-117619275D01*
X80633908Y-117358924D02*
X80412063Y-118186860D01*
X80341417Y-118266528D01*
X80237099Y-118287875D01*
X80145106Y-118263226D01*
X80087670Y-117557652D02*
X79685142Y-118139979D01*
X79627705Y-117434405D02*
X79685142Y-118139979D01*
X79715511Y-118394611D01*
X79749183Y-118452932D01*
X79828851Y-118523578D01*
X78581227Y-117844186D02*
X79133184Y-117992082D01*
X78857205Y-117918134D02*
X79116024Y-116952208D01*
X79171043Y-117114847D01*
X79238387Y-117231489D01*
X79318055Y-117302135D01*
G04 #@! TO.C,K_O1*
X310529713Y-108267752D02*
X310270894Y-107301826D01*
X309977756Y-108415649D02*
X310243827Y-107752769D01*
X309718937Y-107449723D02*
X310418791Y-107853784D01*
X309818419Y-108556941D02*
X309082476Y-108754136D01*
X308385039Y-107807140D02*
X308201053Y-107856439D01*
X308121385Y-107927085D01*
X308054042Y-108043727D01*
X308057344Y-108240037D01*
X308143617Y-108562013D01*
X308238912Y-108733674D01*
X308355555Y-108801017D01*
X308459872Y-108822364D01*
X308643858Y-108773066D01*
X308723526Y-108702420D01*
X308790870Y-108585777D01*
X308787568Y-108389467D01*
X308701295Y-108067491D01*
X308605999Y-107895830D01*
X308489357Y-107828487D01*
X308385039Y-107807140D01*
X307309961Y-109130482D02*
X307861918Y-108982586D01*
X307585940Y-109056534D02*
X307327120Y-108090608D01*
X307456088Y-108203948D01*
X307572730Y-108271292D01*
X307677048Y-108292639D01*
G04 #@! TO.C,K_P1*
X330140228Y-107943633D02*
X329881409Y-106977707D01*
X329588271Y-108091529D02*
X329854342Y-107428649D01*
X329329452Y-107125603D02*
X330029306Y-107529664D01*
X329428934Y-108232821D02*
X328692991Y-108430016D01*
X328438359Y-108399647D02*
X328179540Y-107433721D01*
X327811568Y-107532319D01*
X327731900Y-107602965D01*
X327698228Y-107661286D01*
X327676881Y-107765604D01*
X327713855Y-107903593D01*
X327784501Y-107983261D01*
X327842822Y-108016933D01*
X327947140Y-108038280D01*
X328315112Y-107939682D01*
X326966472Y-108794038D02*
X327518430Y-108646141D01*
X327242451Y-108720090D02*
X326983632Y-107754164D01*
X327112599Y-107867504D01*
X327229241Y-107934847D01*
X327333559Y-107956194D01*
G04 #@! TO.C,K_Period1*
X322184583Y-144588861D02*
X321925764Y-143622935D01*
X321632625Y-144736758D02*
X321898697Y-144073878D01*
X321373806Y-143770832D02*
X322073660Y-144174893D01*
X321473289Y-144878050D02*
X320737345Y-145075245D01*
X320482713Y-145044876D02*
X320223894Y-144078950D01*
X319855923Y-144177548D01*
X319776254Y-144248194D01*
X319742583Y-144306515D01*
X319721236Y-144410832D01*
X319758210Y-144548822D01*
X319828856Y-144628490D01*
X319887177Y-144662162D01*
X319991494Y-144683509D01*
X320359466Y-144584911D01*
X319136491Y-145356296D02*
X319240809Y-145377643D01*
X319424795Y-145328344D01*
X319504463Y-145257698D01*
X319525810Y-145153381D01*
X319427212Y-144785409D01*
X319356566Y-144705741D01*
X319252249Y-144684394D01*
X319068263Y-144733693D01*
X318988595Y-144804338D01*
X318967247Y-144908656D01*
X318991897Y-145000649D01*
X319476511Y-144969395D01*
X318688851Y-145525540D02*
X318516305Y-144881589D01*
X318565604Y-145065575D02*
X318494958Y-144985907D01*
X318436637Y-144952235D01*
X318332319Y-144930888D01*
X318240326Y-144955537D01*
X318090897Y-145685761D02*
X317918351Y-145041810D01*
X317832078Y-144719835D02*
X317890399Y-144753507D01*
X317856727Y-144811828D01*
X317798406Y-144778156D01*
X317832078Y-144719835D01*
X317856727Y-144811828D01*
X317492943Y-145845982D02*
X317572611Y-145775336D01*
X317606283Y-145717015D01*
X317627630Y-145612698D01*
X317553682Y-145336719D01*
X317483036Y-145257051D01*
X317424715Y-145223379D01*
X317320397Y-145202032D01*
X317182408Y-145239006D01*
X317102739Y-145309652D01*
X317069068Y-145367973D01*
X317047721Y-145472291D01*
X317121669Y-145748270D01*
X317192315Y-145827938D01*
X317250636Y-145861609D01*
X317354954Y-145882957D01*
X317492943Y-145845982D01*
X316343031Y-146154100D02*
X316084212Y-145188174D01*
X316330707Y-146108104D02*
X316435024Y-146129451D01*
X316619010Y-146080152D01*
X316698678Y-146009506D01*
X316732350Y-145951185D01*
X316753697Y-145846867D01*
X316679749Y-145570888D01*
X316609103Y-145491220D01*
X316550782Y-145457548D01*
X316446464Y-145436201D01*
X316262478Y-145485500D01*
X316182810Y-145556146D01*
X315377105Y-146412919D02*
X315929063Y-146265023D01*
X315653084Y-146338971D02*
X315394265Y-145373045D01*
X315523232Y-145486385D01*
X315639875Y-145553729D01*
X315744192Y-145575076D01*
G04 #@! TO.C,K_PgDn1*
X205923965Y-156896072D02*
X206182784Y-155930147D01*
X205372008Y-156748176D02*
X205933873Y-156307141D01*
X205630827Y-155782250D02*
X206034888Y-156482104D01*
X205163372Y-156790870D02*
X204427429Y-156593674D01*
X204222096Y-156440058D02*
X204480915Y-155474132D01*
X204112943Y-155375534D01*
X204008626Y-155396881D01*
X203950305Y-155430553D01*
X203879659Y-155510221D01*
X203842685Y-155648211D01*
X203864032Y-155752528D01*
X203897703Y-155810850D01*
X203977372Y-155881496D01*
X204345343Y-155980093D01*
X203014748Y-155426366D02*
X202805228Y-156208306D01*
X202826575Y-156312623D01*
X202860247Y-156370945D01*
X202939915Y-156441591D01*
X203077904Y-156478565D01*
X203182222Y-156457218D01*
X202854527Y-156024320D02*
X202934195Y-156094966D01*
X203118181Y-156144265D01*
X203222499Y-156122918D01*
X203280820Y-156089246D01*
X203351466Y-156009578D01*
X203425414Y-155733599D01*
X203404067Y-155629281D01*
X203370395Y-155570960D01*
X203290727Y-155500314D01*
X203106741Y-155451015D01*
X203002423Y-155472362D01*
X202382237Y-155947069D02*
X202641056Y-154981143D01*
X202411074Y-154919520D01*
X202260760Y-154928542D01*
X202144118Y-154995886D01*
X202073472Y-155075554D01*
X201978176Y-155247215D01*
X201941202Y-155385204D01*
X201937900Y-155581515D01*
X201959247Y-155685833D01*
X202026590Y-155802475D01*
X202152255Y-155885446D01*
X202382237Y-155947069D01*
X201588858Y-155044300D02*
X201416312Y-155688250D01*
X201564208Y-155136293D02*
X201530536Y-155077971D01*
X201450868Y-155007326D01*
X201312879Y-154970351D01*
X201208561Y-154991698D01*
X201137915Y-155071367D01*
X201002343Y-155577328D01*
X200036418Y-155318509D02*
X200588375Y-155466405D01*
X200312396Y-155392457D02*
X200571215Y-154426531D01*
X200626234Y-154589170D01*
X200693578Y-154705812D01*
X200773246Y-154776458D01*
G04 #@! TO.C,K_PgUp1*
X245678815Y-155227514D02*
X245419996Y-154261588D01*
X245126858Y-155375411D02*
X245392929Y-154712531D01*
X244868039Y-154409485D02*
X245567893Y-154813546D01*
X244967521Y-155516702D02*
X244231578Y-155713898D01*
X243976946Y-155683529D02*
X243718127Y-154717603D01*
X243350155Y-154816201D01*
X243270487Y-154886846D01*
X243236815Y-154945168D01*
X243215468Y-155049485D01*
X243252442Y-155187475D01*
X243323088Y-155267143D01*
X243381409Y-155300815D01*
X243485727Y-155322162D01*
X243853699Y-155223564D01*
X242424506Y-155409320D02*
X242634026Y-156191259D01*
X242704672Y-156270928D01*
X242762993Y-156304599D01*
X242867311Y-156325947D01*
X243005300Y-156288972D01*
X243084968Y-156218326D01*
X242584727Y-156007274D02*
X242689045Y-156028621D01*
X242873031Y-155979322D01*
X242952699Y-155908676D01*
X242986371Y-155850355D01*
X243007718Y-155746037D01*
X242933769Y-155470058D01*
X242863124Y-155390390D01*
X242804802Y-155356718D01*
X242700485Y-155335371D01*
X242516499Y-155384670D01*
X242436831Y-155455316D01*
X241878268Y-155210591D02*
X242087788Y-155992531D01*
X242066441Y-156096849D01*
X242032770Y-156155170D01*
X241953101Y-156225816D01*
X241769115Y-156275115D01*
X241664798Y-156253768D01*
X241606477Y-156220096D01*
X241535831Y-156140428D01*
X241326311Y-155358488D01*
X240952619Y-155803710D02*
X241211438Y-156769636D01*
X240964944Y-155849707D02*
X240860626Y-155828360D01*
X240676640Y-155877659D01*
X240596972Y-155948305D01*
X240563300Y-156006626D01*
X240541953Y-156110944D01*
X240615901Y-156386922D01*
X240686547Y-156466591D01*
X240744868Y-156500262D01*
X240849186Y-156521609D01*
X241033172Y-156472310D01*
X241112840Y-156401665D01*
X239745271Y-156817403D02*
X240297229Y-156669506D01*
X240021250Y-156743454D02*
X239762431Y-155777528D01*
X239891398Y-155890868D01*
X240008040Y-155958212D01*
X240112358Y-155979559D01*
G04 #@! TO.C,K_Pipe1*
X354222255Y-101490873D02*
X353963436Y-100524947D01*
X353670298Y-101638769D02*
X353936369Y-100975889D01*
X353411479Y-100672844D02*
X354111333Y-101076905D01*
X353510961Y-101780061D02*
X352775018Y-101977257D01*
X352520386Y-101946887D02*
X352261567Y-100980961D01*
X351893595Y-101079559D01*
X351813927Y-101150205D01*
X351780255Y-101208526D01*
X351758908Y-101312844D01*
X351795882Y-101450833D01*
X351866528Y-101530502D01*
X351924849Y-101564173D01*
X352029167Y-101585520D01*
X352397139Y-101486923D01*
X351554460Y-102205706D02*
X351381914Y-101561756D01*
X351295641Y-101239780D02*
X351353962Y-101273452D01*
X351320290Y-101331773D01*
X351261969Y-101298102D01*
X351295641Y-101239780D01*
X351320290Y-101331773D01*
X350921949Y-101685003D02*
X351180768Y-102650929D01*
X350934274Y-101730999D02*
X350829956Y-101709652D01*
X350645971Y-101758951D01*
X350566302Y-101829597D01*
X350532631Y-101887918D01*
X350511284Y-101992236D01*
X350585232Y-102268215D01*
X350655878Y-102347883D01*
X350714199Y-102381555D01*
X350818517Y-102402902D01*
X351002502Y-102353603D01*
X351082171Y-102282957D01*
X349840266Y-102615724D02*
X349944584Y-102637071D01*
X350128570Y-102587773D01*
X350208238Y-102517127D01*
X350229585Y-102412809D01*
X350130987Y-102044837D01*
X350060341Y-101965169D01*
X349956024Y-101943822D01*
X349772038Y-101993121D01*
X349692369Y-102063767D01*
X349671022Y-102168084D01*
X349695672Y-102260077D01*
X350180286Y-102228823D01*
X348886665Y-102920540D02*
X349438623Y-102772643D01*
X349162644Y-102846592D02*
X348903825Y-101880666D01*
X349032792Y-101994006D01*
X349149434Y-102061349D01*
X349253752Y-102082696D01*
G04 #@! TO.C,K_Q1*
X118748762Y-108885034D02*
X119007581Y-107919108D01*
X118196804Y-108737137D02*
X118758669Y-108296102D01*
X118455623Y-107771211D02*
X118859684Y-108471065D01*
X117988169Y-108779831D02*
X117252225Y-108582636D01*
X116378293Y-108348466D02*
X116482610Y-108327119D01*
X116599253Y-108259776D01*
X116774216Y-108158760D01*
X116878534Y-108137413D01*
X116970527Y-108162063D01*
X116862907Y-108379720D02*
X116967224Y-108358373D01*
X117083867Y-108291030D01*
X117179162Y-108119369D01*
X117265435Y-107797393D01*
X117268737Y-107601083D01*
X117201394Y-107484440D01*
X117121726Y-107413794D01*
X116937740Y-107364496D01*
X116833422Y-107385843D01*
X116716780Y-107453186D01*
X116621484Y-107624847D01*
X116535211Y-107946823D01*
X116531909Y-108143133D01*
X116599253Y-108259776D01*
X116678921Y-108330421D01*
X116862907Y-108379720D01*
X115529009Y-108022304D02*
X116080967Y-108170200D01*
X115804988Y-108096252D02*
X116063807Y-107130326D01*
X116118826Y-107292965D01*
X116186169Y-107409607D01*
X116265837Y-107480253D01*
G04 #@! TO.C,K_R1*
X175161050Y-119070157D02*
X175419869Y-118104231D01*
X174609092Y-118922261D02*
X175170957Y-118481226D01*
X174867911Y-117956335D02*
X175271972Y-118656189D01*
X174400457Y-118964955D02*
X173664513Y-118767759D01*
X172907223Y-118466246D02*
X173352445Y-118092555D01*
X173459180Y-118614143D02*
X173717999Y-117648217D01*
X173350028Y-117549619D01*
X173245710Y-117570966D01*
X173187389Y-117604638D01*
X173116743Y-117684306D01*
X173079769Y-117822296D01*
X173101116Y-117926613D01*
X173134787Y-117984934D01*
X173214456Y-118055580D01*
X173582427Y-118154178D01*
X171987293Y-118219752D02*
X172539251Y-118367648D01*
X172263272Y-118293700D02*
X172522091Y-117327774D01*
X172577110Y-117490413D01*
X172644453Y-117607056D01*
X172724122Y-117677701D01*
G04 #@! TO.C,K_Raise1*
X272800074Y-182473914D02*
X272541255Y-181507988D01*
X272248117Y-182621810D02*
X272514188Y-181958930D01*
X271989298Y-181655884D02*
X272689152Y-182059945D01*
X272088780Y-182763102D02*
X271352837Y-182960298D01*
X270546247Y-183077825D02*
X270744975Y-182531587D01*
X271098205Y-182929928D02*
X270839386Y-181964002D01*
X270471414Y-182062600D01*
X270391746Y-182133246D01*
X270358074Y-182191567D01*
X270336727Y-182295885D01*
X270373701Y-182433874D01*
X270444347Y-182513542D01*
X270502668Y-182547214D01*
X270606986Y-182568561D01*
X270974958Y-182469963D01*
X269718311Y-183299670D02*
X269582739Y-182793709D01*
X269604086Y-182689391D01*
X269683754Y-182618745D01*
X269867740Y-182569446D01*
X269972058Y-182590793D01*
X269705986Y-183253673D02*
X269810304Y-183275020D01*
X270040286Y-183213397D01*
X270119954Y-183142751D01*
X270141301Y-183038433D01*
X270116652Y-182946440D01*
X270046006Y-182866772D01*
X269941688Y-182845425D01*
X269711706Y-182907048D01*
X269607388Y-182885701D01*
X269258346Y-183422917D02*
X269085800Y-182778966D01*
X268999527Y-182456991D02*
X269057848Y-182490663D01*
X269024177Y-182548984D01*
X268965855Y-182515312D01*
X268999527Y-182456991D01*
X269024177Y-182548984D01*
X268832053Y-183487843D02*
X268752385Y-183558489D01*
X268568399Y-183607788D01*
X268464081Y-183586441D01*
X268393436Y-183506772D01*
X268381111Y-183460776D01*
X268402458Y-183356458D01*
X268482126Y-183285812D01*
X268620116Y-183248838D01*
X268699784Y-183178192D01*
X268721131Y-183073875D01*
X268708806Y-183027878D01*
X268638160Y-182948210D01*
X268533843Y-182926863D01*
X268395853Y-182963837D01*
X268316185Y-183034483D01*
X267636145Y-183808285D02*
X267740463Y-183829632D01*
X267924449Y-183780334D01*
X268004117Y-183709688D01*
X268025464Y-183605370D01*
X267926866Y-183237398D01*
X267856220Y-183157730D01*
X267751903Y-183136383D01*
X267567917Y-183185682D01*
X267488248Y-183256328D01*
X267466901Y-183360645D01*
X267491551Y-183452638D01*
X267976165Y-183421384D01*
X266682544Y-184113101D02*
X267234502Y-183965204D01*
X266958523Y-184039153D02*
X266699704Y-183073227D01*
X266828671Y-183186567D01*
X266945313Y-183253910D01*
X267049631Y-183275257D01*
G04 #@! TO.C,K_RBRC1*
X240817308Y-136808140D02*
X240558489Y-135842214D01*
X240265350Y-136956037D02*
X240531422Y-136293157D01*
X240006531Y-135990111D02*
X240706386Y-136394172D01*
X240106014Y-137097328D02*
X239370070Y-137294524D01*
X238563481Y-137412051D02*
X238762209Y-136865813D01*
X239115439Y-137264155D02*
X238856620Y-136298229D01*
X238488648Y-136396826D01*
X238408980Y-136467472D01*
X238375308Y-136525794D01*
X238353961Y-136630111D01*
X238390935Y-136768101D01*
X238461581Y-136847769D01*
X238519902Y-136881441D01*
X238624220Y-136902788D01*
X238992191Y-136804190D01*
X237691966Y-137103285D02*
X237566301Y-137186256D01*
X237532629Y-137244577D01*
X237511282Y-137348895D01*
X237548256Y-137486884D01*
X237618902Y-137566553D01*
X237677223Y-137600224D01*
X237781541Y-137621571D01*
X238149513Y-137522974D01*
X237890694Y-136557048D01*
X237568718Y-136643321D01*
X237489050Y-136713967D01*
X237455379Y-136772288D01*
X237434031Y-136876605D01*
X237458681Y-136968598D01*
X237529327Y-137048267D01*
X237587648Y-137081938D01*
X237691966Y-137103285D01*
X238013941Y-137017012D01*
X236631629Y-137929689D02*
X236830357Y-137383452D01*
X237183587Y-137781793D02*
X236924768Y-136815867D01*
X236556796Y-136914465D01*
X236477128Y-136985110D01*
X236443456Y-137043432D01*
X236422109Y-137147749D01*
X236459083Y-137285739D01*
X236529729Y-137365407D01*
X236588050Y-137399079D01*
X236692368Y-137420426D01*
X237060340Y-137321828D01*
X235641054Y-138096515D02*
X235699375Y-138130187D01*
X235849689Y-138139209D01*
X235941682Y-138114560D01*
X236067347Y-138031589D01*
X236134691Y-137914947D01*
X236156038Y-137810629D01*
X236152735Y-137614319D01*
X236115761Y-137476329D01*
X236020466Y-137304668D01*
X235949820Y-137225000D01*
X235833177Y-137157656D01*
X235682863Y-137148634D01*
X235590870Y-137173284D01*
X235465206Y-137256254D01*
X235431534Y-137314575D01*
X234745774Y-138435003D02*
X235297732Y-138287106D01*
X235021753Y-138361054D02*
X234762934Y-137395128D01*
X234891901Y-137508468D01*
X235008543Y-137575812D01*
X235112861Y-137597159D01*
G04 #@! TO.C,K_Right1*
X346311629Y-162776552D02*
X346052810Y-161810626D01*
X345759672Y-162924449D02*
X346025743Y-162261569D01*
X345500853Y-161958523D02*
X346200707Y-162362584D01*
X345600335Y-163065740D02*
X344864392Y-163262936D01*
X344057802Y-163380463D02*
X344256530Y-162834226D01*
X344609760Y-163232567D02*
X344350941Y-162266641D01*
X343982969Y-162365239D01*
X343903301Y-162435884D01*
X343869629Y-162494206D01*
X343848282Y-162598523D01*
X343885256Y-162736513D01*
X343955902Y-162816181D01*
X344014223Y-162849853D01*
X344118541Y-162871200D01*
X344486513Y-162772602D01*
X343643834Y-163491386D02*
X343471288Y-162847435D01*
X343385015Y-162525460D02*
X343443336Y-162559132D01*
X343409665Y-162617453D01*
X343351343Y-162583781D01*
X343385015Y-162525460D01*
X343409665Y-162617453D01*
X342597355Y-163081605D02*
X342806875Y-163863545D01*
X342877521Y-163943213D01*
X342935842Y-163976885D01*
X343040160Y-163998232D01*
X343178150Y-163961258D01*
X343257818Y-163890612D01*
X342757577Y-163679559D02*
X342861894Y-163700906D01*
X343045880Y-163651607D01*
X343125548Y-163580961D01*
X343159220Y-163522640D01*
X343180567Y-163418322D01*
X343106619Y-163142343D01*
X343035973Y-163062675D01*
X342977652Y-163029003D01*
X342873334Y-163007656D01*
X342689348Y-163056955D01*
X342609680Y-163127601D01*
X342309937Y-163848802D02*
X342051117Y-162882877D01*
X341895968Y-163959725D02*
X341760396Y-163453764D01*
X341781743Y-163349446D01*
X341861412Y-163278800D01*
X341999401Y-163241826D01*
X342103719Y-163263173D01*
X342162040Y-163296845D01*
X341401447Y-163402047D02*
X341033475Y-163500645D01*
X341177185Y-163117046D02*
X341399030Y-163944983D01*
X341377682Y-164049300D01*
X341298014Y-164119946D01*
X341206021Y-164144596D01*
X340378085Y-164366441D02*
X340930043Y-164218544D01*
X340654064Y-164292492D02*
X340395245Y-163326566D01*
X340524212Y-163439906D01*
X340640854Y-163507250D01*
X340745172Y-163528597D01*
G04 #@! TO.C,K_RShift1*
X366981324Y-137516113D02*
X366722505Y-136550188D01*
X366429367Y-137664010D02*
X366695438Y-137001130D01*
X366170548Y-136698084D02*
X366870402Y-137102145D01*
X366270030Y-137805302D02*
X365534087Y-138002497D01*
X364727497Y-138120025D02*
X364926225Y-137573787D01*
X365279455Y-137972128D02*
X365020636Y-137006202D01*
X364652664Y-137104800D01*
X364572996Y-137175446D01*
X364539324Y-137233767D01*
X364517977Y-137338085D01*
X364554951Y-137476074D01*
X364625597Y-137555742D01*
X364683918Y-137589414D01*
X364788236Y-137610761D01*
X365156208Y-137512163D01*
X364347201Y-138172626D02*
X364221536Y-138255596D01*
X363991554Y-138317220D01*
X363887236Y-138295873D01*
X363828915Y-138262201D01*
X363758269Y-138182533D01*
X363733620Y-138090540D01*
X363754967Y-137986222D01*
X363788638Y-137927901D01*
X363868307Y-137857255D01*
X364039968Y-137761960D01*
X364119636Y-137691314D01*
X364153308Y-137632993D01*
X364174655Y-137528675D01*
X364150005Y-137436682D01*
X364079360Y-137357014D01*
X364021038Y-137323342D01*
X363916721Y-137301995D01*
X363686738Y-137363619D01*
X363561074Y-137446590D01*
X363393600Y-138477441D02*
X363134781Y-137511515D01*
X362979632Y-138588364D02*
X362844060Y-138082403D01*
X362865407Y-137978085D01*
X362945075Y-137907439D01*
X363083064Y-137870465D01*
X363187382Y-137891812D01*
X363245703Y-137925484D01*
X362519667Y-138711611D02*
X362347121Y-138067660D01*
X362260848Y-137745685D02*
X362319169Y-137779357D01*
X362285497Y-137837678D01*
X362227176Y-137804006D01*
X362260848Y-137745685D01*
X362285497Y-137837678D01*
X362025146Y-138153933D02*
X361657174Y-138252531D01*
X362059702Y-138834858D02*
X361837857Y-138006922D01*
X361767211Y-137927253D01*
X361662894Y-137905906D01*
X361570901Y-137930556D01*
X361473188Y-138301830D02*
X361105216Y-138400428D01*
X361248926Y-138016829D02*
X361470770Y-138844765D01*
X361449423Y-138949083D01*
X361369755Y-139019729D01*
X361277762Y-139044378D01*
X360449826Y-139266223D02*
X361001783Y-139118327D01*
X360725805Y-139192275D02*
X360466986Y-138226349D01*
X360595953Y-138339689D01*
X360712595Y-138407033D01*
X360816913Y-138428380D01*
G04 #@! TO.C,K_S1*
X133405774Y-127603877D02*
X133664593Y-126637951D01*
X132853817Y-127455980D02*
X133415682Y-127014945D01*
X133112636Y-126490055D02*
X133516697Y-127189909D01*
X132645181Y-127498674D02*
X131909238Y-127301479D01*
X131762226Y-127114191D02*
X131611912Y-127123213D01*
X131381930Y-127061589D01*
X131302262Y-126990944D01*
X131268590Y-126932622D01*
X131247243Y-126828305D01*
X131271892Y-126736312D01*
X131342538Y-126656644D01*
X131400859Y-126622972D01*
X131505177Y-126601625D01*
X131701488Y-126604927D01*
X131805805Y-126583580D01*
X131864126Y-126549908D01*
X131934772Y-126470240D01*
X131959422Y-126378247D01*
X131938075Y-126273930D01*
X131904403Y-126215608D01*
X131824735Y-126144962D01*
X131594752Y-126083339D01*
X131444438Y-126092361D01*
X130278015Y-126765796D02*
X130829972Y-126913693D01*
X130553993Y-126839745D02*
X130812812Y-125873819D01*
X130867831Y-126036458D01*
X130935175Y-126153100D01*
X131014843Y-126223746D01*
G04 #@! TO.C,K_Slash1*
X341496117Y-144344852D02*
X341237298Y-143378926D01*
X340944160Y-144492749D02*
X341210231Y-143829869D01*
X340685341Y-143526823D02*
X341385195Y-143930884D01*
X340784823Y-144634041D02*
X340048880Y-144831236D01*
X339827920Y-144742546D02*
X339702255Y-144825516D01*
X339472273Y-144887140D01*
X339367955Y-144865793D01*
X339309634Y-144832121D01*
X339238988Y-144752453D01*
X339214339Y-144660460D01*
X339235686Y-144556142D01*
X339269357Y-144497821D01*
X339349026Y-144427175D01*
X339520687Y-144331880D01*
X339600355Y-144261234D01*
X339634027Y-144202913D01*
X339655374Y-144098595D01*
X339630724Y-144006602D01*
X339560078Y-143926934D01*
X339501757Y-143893262D01*
X339397440Y-143871915D01*
X339167457Y-143933539D01*
X339041793Y-144016509D01*
X338736329Y-145084335D02*
X338815998Y-145013689D01*
X338837345Y-144909372D01*
X338615500Y-144081435D01*
X337954389Y-145293855D02*
X337818818Y-144787894D01*
X337840165Y-144683577D01*
X337919833Y-144612931D01*
X338103819Y-144563632D01*
X338208136Y-144584979D01*
X337942065Y-145247859D02*
X338046382Y-145269206D01*
X338276365Y-145207582D01*
X338356033Y-145136937D01*
X338377380Y-145032619D01*
X338352730Y-144940626D01*
X338282085Y-144860958D01*
X338177767Y-144839611D01*
X337947785Y-144901234D01*
X337843467Y-144879887D01*
X337528096Y-145358781D02*
X337448428Y-145429427D01*
X337264442Y-145478726D01*
X337160125Y-145457379D01*
X337089479Y-145377711D01*
X337077154Y-145331714D01*
X337098501Y-145227397D01*
X337178169Y-145156751D01*
X337316159Y-145119777D01*
X337395827Y-145049131D01*
X337417174Y-144944813D01*
X337404849Y-144898817D01*
X337334203Y-144819149D01*
X337229886Y-144797802D01*
X337091896Y-144834776D01*
X337012228Y-144905422D01*
X336712485Y-145626623D02*
X336453666Y-144660697D01*
X336298517Y-145737545D02*
X336162945Y-145231584D01*
X336184292Y-145127266D01*
X336263960Y-145056621D01*
X336401949Y-145019646D01*
X336506267Y-145040993D01*
X336564588Y-145074665D01*
X335332591Y-145996364D02*
X335884548Y-145848468D01*
X335608570Y-145922416D02*
X335349750Y-144956490D01*
X335478718Y-145069830D01*
X335595360Y-145137174D01*
X335699678Y-145158521D01*
G04 #@! TO.C,K_Space1*
X202318827Y-177098864D02*
X201352902Y-176840045D01*
X202170931Y-177650822D02*
X201729896Y-177088957D01*
X201205005Y-177392003D02*
X201904859Y-176987942D01*
X202213625Y-177859457D02*
X202016429Y-178595401D01*
X201829141Y-178742412D02*
X201838164Y-178892727D01*
X201776540Y-179122709D01*
X201705894Y-179202377D01*
X201647573Y-179236049D01*
X201543255Y-179257396D01*
X201451262Y-179232746D01*
X201371594Y-179162101D01*
X201337922Y-179103779D01*
X201316575Y-178999462D01*
X201319878Y-178803151D01*
X201298531Y-178698834D01*
X201264859Y-178640512D01*
X201185191Y-178569866D01*
X201093198Y-178545217D01*
X200988880Y-178566564D01*
X200930559Y-178600236D01*
X200859913Y-178679904D01*
X200798289Y-178909886D01*
X200807312Y-179060200D01*
X200972368Y-179548117D02*
X201938294Y-179806936D01*
X201018365Y-179560442D02*
X200947719Y-179640110D01*
X200898420Y-179824096D01*
X200919767Y-179928413D01*
X200953439Y-179986735D01*
X201033107Y-180057381D01*
X201309086Y-180131329D01*
X201413403Y-180109982D01*
X201471724Y-180076310D01*
X201542370Y-179996642D01*
X201591669Y-179812656D01*
X201570322Y-179708338D01*
X201271227Y-181008564D02*
X200765265Y-180872992D01*
X200685597Y-180802346D01*
X200664250Y-180698029D01*
X200713549Y-180514043D01*
X200784195Y-180434375D01*
X201225230Y-180996239D02*
X201295876Y-180916571D01*
X201357500Y-180686589D01*
X201336153Y-180582271D01*
X201256484Y-180511625D01*
X201164491Y-180486976D01*
X201060174Y-180508323D01*
X200989528Y-180587991D01*
X200927904Y-180817973D01*
X200857258Y-180897642D01*
X200991060Y-181870172D02*
X201061706Y-181790504D01*
X201111005Y-181606518D01*
X201089658Y-181502201D01*
X201055986Y-181443879D01*
X200976318Y-181373233D01*
X200700339Y-181299285D01*
X200596022Y-181320632D01*
X200537701Y-181354304D01*
X200467055Y-181433972D01*
X200417756Y-181617958D01*
X200439103Y-181722276D01*
X200781540Y-182652112D02*
X200852186Y-182572444D01*
X200901485Y-182388458D01*
X200880138Y-182284140D01*
X200800470Y-182213495D01*
X200432498Y-182114897D01*
X200328180Y-182136244D01*
X200257535Y-182215912D01*
X200208236Y-182399898D01*
X200229583Y-182504216D01*
X200309251Y-182574862D01*
X200401244Y-182599511D01*
X200616484Y-182164196D01*
X200568718Y-183630363D02*
X200716614Y-183078405D01*
X200642666Y-183354384D02*
X199676740Y-183095565D01*
X199839379Y-183040546D01*
X199956021Y-182973203D01*
X200026667Y-182893534D01*
G04 #@! TO.C,K_T1*
X192214320Y-128570071D02*
X192473139Y-127604145D01*
X191662363Y-128422174D02*
X192224228Y-127981139D01*
X191921182Y-127456248D02*
X192325243Y-128156102D01*
X191453728Y-128464868D02*
X190717784Y-128267673D01*
X190909260Y-127185104D02*
X190357302Y-127037208D01*
X190374462Y-128077082D02*
X190633281Y-127111156D01*
X189270546Y-127781289D02*
X189822504Y-127929185D01*
X189546525Y-127855237D02*
X189805344Y-126889311D01*
X189860363Y-127051950D01*
X189927707Y-127168592D01*
X190007375Y-127239238D01*
G04 #@! TO.C,K_Tab1*
X96483597Y-102919099D02*
X96742416Y-101953173D01*
X95931640Y-102771203D02*
X96493505Y-102330167D01*
X96190459Y-101805277D02*
X96594520Y-102505131D01*
X95723004Y-102813897D02*
X94987061Y-102616701D01*
X95178536Y-101534133D02*
X94626579Y-101386236D01*
X94643739Y-102426110D02*
X94902558Y-101460185D01*
X93631816Y-102154967D02*
X93767388Y-101649006D01*
X93838034Y-101569337D01*
X93942352Y-101547990D01*
X94126338Y-101597289D01*
X94206006Y-101667935D01*
X93644141Y-102108970D02*
X93723809Y-102179616D01*
X93953792Y-102241240D01*
X94058109Y-102219893D01*
X94128755Y-102140224D01*
X94153405Y-102048232D01*
X94132058Y-101943914D01*
X94052389Y-101873268D01*
X93822407Y-101811644D01*
X93742739Y-101740998D01*
X93171852Y-102031720D02*
X93430671Y-101065794D01*
X93332073Y-101433765D02*
X93252405Y-101363120D01*
X93068419Y-101313821D01*
X92964101Y-101335168D01*
X92905780Y-101368839D01*
X92835134Y-101448508D01*
X92761186Y-101724487D01*
X92782533Y-101828804D01*
X92816205Y-101887125D01*
X92895873Y-101957771D01*
X93079859Y-102007070D01*
X93184176Y-101985723D01*
X91791958Y-101661978D02*
X92343915Y-101809875D01*
X92067936Y-101735926D02*
X92326755Y-100770001D01*
X92381774Y-100932639D01*
X92449118Y-101049282D01*
X92528786Y-101119928D01*
G04 #@! TO.C,K_U1*
X273727939Y-118128757D02*
X273469120Y-117162831D01*
X273175982Y-118276654D02*
X273442053Y-117613774D01*
X272917163Y-117310728D02*
X273617017Y-117714789D01*
X273016645Y-118417946D02*
X272280702Y-118615141D01*
X271767251Y-117618846D02*
X271976771Y-118400786D01*
X271955424Y-118505104D01*
X271921752Y-118563425D01*
X271842084Y-118634071D01*
X271658098Y-118683369D01*
X271553781Y-118662022D01*
X271495460Y-118628351D01*
X271424814Y-118548682D01*
X271215293Y-117766743D01*
X270508187Y-118991487D02*
X271060144Y-118843591D01*
X270784166Y-118917539D02*
X270525346Y-117951613D01*
X270654314Y-118064953D01*
X270770956Y-118132297D01*
X270875274Y-118153644D01*
G04 #@! TO.C,K_Up1*
X325758190Y-163353328D02*
X325499371Y-162387403D01*
X325206232Y-163501225D02*
X325472304Y-162838345D01*
X324947413Y-162535299D02*
X325647267Y-162939360D01*
X325046896Y-163642517D02*
X324310952Y-163839712D01*
X323797502Y-162843417D02*
X324007022Y-163625357D01*
X323985675Y-163729675D01*
X323952003Y-163787996D01*
X323872335Y-163858642D01*
X323688349Y-163907941D01*
X323584031Y-163886594D01*
X323525710Y-163852922D01*
X323455064Y-163773254D01*
X323245544Y-162991314D01*
X322871852Y-163436536D02*
X323130671Y-164402462D01*
X322884177Y-163482533D02*
X322779859Y-163461186D01*
X322595873Y-163510484D01*
X322516205Y-163581130D01*
X322482533Y-163639452D01*
X322461186Y-163743769D01*
X322535135Y-164019748D01*
X322605781Y-164099416D01*
X322664102Y-164133088D01*
X322768419Y-164154435D01*
X322952405Y-164105136D01*
X323032074Y-164034490D01*
X321664504Y-164450228D02*
X322216462Y-164302332D01*
X321940483Y-164376280D02*
X321681664Y-163410354D01*
X321810631Y-163523694D01*
X321927273Y-163591038D01*
X322031591Y-163612385D01*
G04 #@! TO.C,K_V1*
X165231050Y-155853443D02*
X165489869Y-154887517D01*
X164679092Y-155705547D02*
X165240957Y-155264511D01*
X164937911Y-154739621D02*
X165341972Y-155439475D01*
X164470457Y-155748241D02*
X163734513Y-155551045D01*
X163925989Y-154468477D02*
X163345195Y-155348130D01*
X163282038Y-154295931D01*
X162195283Y-155040012D02*
X162747241Y-155187909D01*
X162471262Y-155113960D02*
X162730081Y-154148034D01*
X162785100Y-154310673D01*
X162852443Y-154427316D01*
X162932111Y-154497962D01*
G04 #@! TO.C,K_W1*
X138428270Y-109227638D02*
X138687089Y-108261713D01*
X137876313Y-109079742D02*
X138438177Y-108638707D01*
X138135132Y-108113816D02*
X138539193Y-108813670D01*
X137667677Y-109122436D02*
X136931734Y-108925240D01*
X137077213Y-107830347D02*
X136588412Y-108734650D01*
X136589296Y-107995404D01*
X136220440Y-108636052D01*
X136249277Y-107608503D01*
X135116525Y-108340259D02*
X135668482Y-108488155D01*
X135392503Y-108414207D02*
X135651322Y-107448281D01*
X135706341Y-107610920D01*
X135773685Y-107727562D01*
X135853353Y-107798208D01*
G04 #@! TO.C,K_Win1*
X143937223Y-164939290D02*
X144196042Y-163973364D01*
X143385265Y-164791393D02*
X143947130Y-164350358D01*
X143644085Y-163825467D02*
X144048146Y-164525322D01*
X143176630Y-164834087D02*
X142440687Y-164636892D01*
X142586166Y-163541999D02*
X142097364Y-164446301D01*
X142098249Y-163707055D01*
X141729393Y-164347703D01*
X141758229Y-163320154D01*
X141131439Y-164187482D02*
X141303985Y-163543532D01*
X141390258Y-163221556D02*
X141423929Y-163279877D01*
X141365608Y-163313549D01*
X141331936Y-163255228D01*
X141390258Y-163221556D01*
X141365608Y-163313549D01*
X140844020Y-163420284D02*
X140671474Y-164064235D01*
X140819370Y-163512277D02*
X140785699Y-163453956D01*
X140706030Y-163383310D01*
X140568041Y-163346336D01*
X140463723Y-163367683D01*
X140393078Y-163447351D01*
X140257506Y-163953312D01*
X139291580Y-163694493D02*
X139843537Y-163842390D01*
X139567559Y-163768442D02*
X139826378Y-162802516D01*
X139881396Y-162965155D01*
X139948740Y-163081797D01*
X140028408Y-163152443D01*
G04 #@! TO.C,K_X1*
X128475270Y-146004763D02*
X128734089Y-145038837D01*
X127923313Y-145856866D02*
X128485178Y-145415831D01*
X128182132Y-144890941D02*
X128586193Y-145590795D01*
X127714677Y-145899560D02*
X126978734Y-145702365D01*
X127124213Y-144607472D02*
X126221443Y-145400852D01*
X126480262Y-144434926D02*
X126865394Y-145573398D01*
X125347511Y-145166682D02*
X125899468Y-145314579D01*
X125623489Y-145240631D02*
X125882308Y-144274705D01*
X125937327Y-144437344D01*
X126004671Y-144553986D01*
X126084339Y-144624632D01*
G04 #@! TO.C,K_Y1*
X256467686Y-127684131D02*
X256208866Y-126718205D01*
X255915728Y-127832027D02*
X256181800Y-127169147D01*
X255656909Y-126866101D02*
X256356763Y-127270162D01*
X255756391Y-127973319D02*
X255020448Y-128170515D01*
X254458583Y-127729479D02*
X254581830Y-128189444D01*
X254644987Y-127137245D02*
X254458583Y-127729479D01*
X254001036Y-127309791D01*
X253431919Y-128497562D02*
X253983876Y-128349665D01*
X253707897Y-128423614D02*
X253449078Y-127457688D01*
X253578045Y-127571028D01*
X253694688Y-127638371D01*
X253799005Y-127659718D01*
G04 #@! TO.C,K_Z1*
X108841759Y-145674483D02*
X109100578Y-144708557D01*
X108289802Y-145526586D02*
X108851667Y-145085551D01*
X108548621Y-144560661D02*
X108952682Y-145260515D01*
X108081166Y-145569280D02*
X107345223Y-145372085D01*
X107490702Y-144277192D02*
X106846751Y-144104646D01*
X107231883Y-145243118D01*
X106587932Y-145070572D01*
X105714000Y-144836402D02*
X106265957Y-144984299D01*
X105989978Y-144910351D02*
X106248797Y-143944425D01*
X106303816Y-144107064D01*
X106371160Y-144223706D01*
X106450828Y-144294352D01*
G04 #@! TO.C,SW_1*
D12*
X243617535Y-87752511D02*
X243474678Y-87800130D01*
X243236583Y-87800130D01*
X243141345Y-87752511D01*
X243093726Y-87704892D01*
X243046107Y-87609654D01*
X243046107Y-87514416D01*
X243093726Y-87419178D01*
X243141345Y-87371559D01*
X243236583Y-87323940D01*
X243427059Y-87276321D01*
X243522297Y-87228702D01*
X243569916Y-87181083D01*
X243617535Y-87085845D01*
X243617535Y-86990607D01*
X243569916Y-86895369D01*
X243522297Y-86847750D01*
X243427059Y-86800130D01*
X243188964Y-86800130D01*
X243046107Y-86847750D01*
X242712773Y-86800130D02*
X242474678Y-87800130D01*
X242284202Y-87085845D01*
X242093726Y-87800130D01*
X241855630Y-86800130D01*
X241712773Y-87895369D02*
X240950869Y-87895369D01*
X240188964Y-87800130D02*
X240760392Y-87800130D01*
X240474678Y-87800130D02*
X240474678Y-86800130D01*
X240569916Y-86942988D01*
X240665154Y-87038226D01*
X240760392Y-87085845D01*
G04 #@! TD*
M02*
