M48
INCH,TZ
T1C0.067
T2C0.120
T3C0.157
%
G90
G05
T1
X0.0164Y-2.6912
X0.3916Y-2.0153
X0.4028Y-2.7947
X0.5082Y-0.4936
X0.778Y-2.1188
X0.8574Y-1.3636
X0.8946Y-0.5971
X1.1806Y-3.7796
X1.2327Y-0.6877
X1.2438Y-1.4672
X1.3748Y-3.0552
X1.567Y-3.8831
X1.5689Y-2.3307
X1.619Y-0.7913
X1.7611Y-3.1587
X1.763Y-1.6063
X1.9536Y-3.7926
X1.9552Y-2.4343
X1.9571Y-0.8818
X2.1477Y-3.0682
X2.1494Y-1.7098
X2.34Y-3.8962
X2.3418Y-2.3437
X2.3435Y-0.9854
X2.5341Y-3.1717
X2.536Y-1.6193
X2.7266Y-3.8056
X2.7282Y-2.4473
X2.7301Y-0.8948
X2.9207Y-3.0812
X2.9223Y-1.7228
X3.113Y-3.9092
X3.1148Y-2.3567
X3.1164Y-0.9984
X3.3071Y-3.1847
X3.3089Y-1.6323
X3.4025Y-4.1809
X3.5012Y-2.4603
X3.503Y-0.9078
X3.5966Y-3.4564
X3.6953Y-1.7358
X3.7889Y-4.2844
X3.7907Y-2.732
X3.8894Y-1.0114
X3.983Y-3.5599
X3.9848Y-2.0075
X4.0784Y-4.5561
X4.1771Y-2.8355
X4.179Y-1.2831
X4.2725Y-3.8316
X4.3712Y-2.111
X4.4648Y-4.6596
X4.4666Y-3.1072
X4.5653Y-1.3866
X4.6589Y-3.9352
X4.6608Y-2.3827
X4.853Y-3.2107
X4.8549Y-1.6583
X4.9928Y-4.814
X5.0471Y-2.4863
X5.0963Y-4.4277
X5.1426Y-3.4824
X5.2412Y-1.7618
X5.3367Y-2.758
X5.5289Y-3.5859
X5.723Y-2.8615
X6.2778Y-2.8599
X6.4719Y-3.5843
X6.6642Y-2.7563
X6.7596Y-1.7602
X6.8583Y-3.4808
X6.9045Y-4.426
X6.9537Y-2.4846
X7.0081Y-4.8124
X7.146Y-1.6567
X7.1479Y-3.2091
X7.3401Y-2.3811
X7.342Y-3.9335
X7.4355Y-1.385
X7.5342Y-3.1056
X7.5361Y-4.658
X7.6297Y-2.1094
X7.7283Y-3.83
X7.8219Y-1.2815
X7.8238Y-2.8339
X7.9225Y-4.5545
X8.016Y-2.0059
X8.0179Y-3.5583
X8.1115Y-1.0098
X8.2101Y-2.7303
X8.212Y-4.2828
X8.3056Y-1.7342
X8.4043Y-3.4548
X8.4978Y-0.9062
X8.4997Y-2.4586
X8.5984Y-4.1792
X8.6919Y-1.6307
X8.6938Y-3.1831
X8.8844Y-0.9968
X8.8861Y-2.3551
X8.8879Y-3.9075
X9.0786Y-1.7212
X9.0802Y-3.0796
X9.2708Y-0.8932
X9.2727Y-2.4456
X9.2743Y-3.804
X9.4649Y-1.6177
X9.4668Y-3.1701
X9.6574Y-0.9837
X9.659Y-2.3421
X9.6609Y-3.8945
X9.8515Y-1.7082
X9.8531Y-3.0666
X10.0438Y-0.8802
X10.0456Y-2.4326
X10.0473Y-3.791
X10.2379Y-1.6047
X10.2398Y-3.1571
X10.432Y-2.3291
X10.4339Y-3.8815
X10.6261Y-3.0536
X10.7441Y-0.6926
X10.7571Y-1.4655
X10.8202Y-3.778
X11.1304Y-0.589
X11.1434Y-1.362
X11.2229Y-2.1172
X11.2359Y-2.8902
X11.6092Y-2.0137
X11.6222Y-2.7866
X12.232Y-2.6233
X12.6183Y-2.5197
T2
X-0.1732Y-2.3557
X0.202Y-1.6798
X0.7348Y-2.599
X1.11Y-1.9231
X4.6573Y-5.0037
X4.9006Y-4.0957
X7.1003Y-4.0941
X7.3436Y-5.002
X10.4121Y-0.4968
X10.8909Y-1.9215
X11.3201Y-0.2535
X11.7989Y-1.6782
T3
X-0.3285Y-2.9353
X0.0467Y-2.2593
X0.2096Y-2.743
X0.5795Y-3.1785
X0.5848Y-2.0671
X0.7014Y-0.5454
X0.9547Y-2.5026
X1.0506Y-1.4154
X1.3738Y-3.8314
X1.4258Y-0.7395
X1.5679Y-3.1069
X1.7621Y-2.3825
X1.9562Y-1.6581
X2.1468Y-3.8444
X2.1503Y-0.9336
X2.3409Y-3.1199
X2.535Y-2.3955
X2.7291Y-1.6711
X2.9198Y-3.8574
X2.9233Y-0.9466
X3.1139Y-3.1329
X3.308Y-2.4085
X3.5021Y-1.6841
X3.5957Y-4.2326
X3.6962Y-0.9596
X3.7898Y-3.5082
X3.9839Y-2.7837
X4.178Y-2.0593
X4.2716Y-4.6078
X4.3721Y-1.3348
X4.4657Y-3.8834
X4.6598Y-3.159
X4.8539Y-2.4345
X5.0446Y-4.6208
X5.0481Y-1.7101
X5.2369Y-5.1589
X5.3357Y-3.5342
X5.4801Y-4.251
X5.5299Y-2.8097
X6.471Y-2.8081
X6.5207Y-4.2494
X6.6651Y-3.5326
X6.764Y-5.1573
X6.9528Y-1.7084
X6.9563Y-4.6192
X7.1469Y-2.4329
X7.341Y-3.1573
X7.5352Y-3.8818
X7.6287Y-1.3332
X7.7293Y-4.6062
X7.8228Y-2.0577
X8.017Y-2.7821
X8.2111Y-3.5065
X8.3046Y-0.958
X8.4052Y-4.231
X8.4988Y-1.6824
X8.6929Y-2.4069
X8.887Y-3.1313
X9.0776Y-0.945
X9.0811Y-3.8558
X9.2717Y-1.6694
X9.4659Y-2.3939
X9.66Y-3.1183
X9.8506Y-0.932
X9.8541Y-3.8428
X10.0447Y-1.6564
X10.2388Y-2.3809
X10.4329Y-3.1053
X10.5674Y-1.0764
X10.6271Y-3.8298
X10.9373Y-0.6408
X10.9503Y-1.4138
X11.0462Y-2.501
X11.416Y-2.0654
X11.429Y-2.8384
X11.4754Y-0.8331
X11.9541Y-2.2577
X12.4252Y-2.5715
T0
M30
