G04 #@! TF.FileFunction,Legend,Top*
%FSLAX46Y46*%
G04 Gerber Fmt 4.6, Leading zero omitted, Abs format (unit mm)*
G04 Created by KiCad (PCBNEW 4.0.7) date 09/07/18 12:57:53*
%MOMM*%
%LPD*%
G01*
G04 APERTURE LIST*
%ADD10C,0.100000*%
%ADD11C,0.381000*%
%ADD12C,0.203200*%
G04 APERTURE END LIST*
D10*
D11*
X307821915Y-60826047D02*
X309539331Y-60365867D01*
X318371757Y-57999225D02*
X320089173Y-57539045D01*
X320089173Y-57539045D02*
X320549353Y-59256461D01*
X322915995Y-68088887D02*
X323376175Y-69806303D01*
X323376175Y-69806303D02*
X321658759Y-70266483D01*
X312826333Y-72633125D02*
X311108917Y-73093305D01*
X311108917Y-73093305D02*
X310648737Y-71375889D01*
X308282095Y-62543463D02*
X307821915Y-60826047D01*
X833897Y-61894464D02*
X2551313Y-62354644D01*
X11383739Y-64721286D02*
X13101155Y-65181466D01*
X13101155Y-65181466D02*
X12640975Y-66898882D01*
X10274333Y-75731308D02*
X9814153Y-77448724D01*
X9814153Y-77448724D02*
X8096737Y-76988544D01*
X-735689Y-74621902D02*
X-2453105Y-74161722D01*
X-2453105Y-74161722D02*
X-1992925Y-72444306D01*
X373717Y-63611880D02*
X833897Y-61894464D01*
X242427968Y-19182269D02*
X244145384Y-18722089D01*
X252977810Y-16355447D02*
X254695226Y-15895267D01*
X254695226Y-15895267D02*
X255155406Y-17612683D01*
X257522048Y-26445109D02*
X257982228Y-28162525D01*
X257982228Y-28162525D02*
X256264812Y-28622705D01*
X247432386Y-30989347D02*
X245714970Y-31449527D01*
X245714970Y-31449527D02*
X245254790Y-29732111D01*
X242888148Y-20899685D02*
X242427968Y-19182269D01*
X50127069Y-15936496D02*
X51844485Y-16396676D01*
X60676911Y-18763318D02*
X62394327Y-19223498D01*
X62394327Y-19223498D02*
X61934147Y-20940914D01*
X59567505Y-29773340D02*
X59107325Y-31490756D01*
X59107325Y-31490756D02*
X57389909Y-31030576D01*
X48557483Y-28663934D02*
X46840067Y-28203754D01*
X46840067Y-28203754D02*
X47300247Y-26486338D01*
X49666889Y-17653912D02*
X50127069Y-15936496D01*
X69760582Y-16266777D02*
X71477998Y-16726957D01*
X80310424Y-19093599D02*
X82027840Y-19553779D01*
X82027840Y-19553779D02*
X81567660Y-21271195D01*
X79201018Y-30103621D02*
X78740838Y-31821037D01*
X78740838Y-31821037D02*
X77023422Y-31360857D01*
X68190996Y-28994215D02*
X66473580Y-28534035D01*
X66473580Y-28534035D02*
X66933760Y-26816619D01*
X69300402Y-17984193D02*
X69760582Y-16266777D01*
X89394093Y-16597058D02*
X91111509Y-17057238D01*
X99943935Y-19423880D02*
X101661351Y-19884060D01*
X101661351Y-19884060D02*
X101201171Y-21601476D01*
X98834529Y-30433902D02*
X98374349Y-32151318D01*
X98374349Y-32151318D02*
X96656933Y-31691138D01*
X87824507Y-29324496D02*
X86107091Y-28864316D01*
X86107091Y-28864316D02*
X86567271Y-27146900D01*
X88933913Y-18314474D02*
X89394093Y-16597058D01*
X106562356Y-26127781D02*
X108279772Y-26587961D01*
X117112198Y-28954603D02*
X118829614Y-29414783D01*
X118829614Y-29414783D02*
X118369434Y-31132199D01*
X116002792Y-39964625D02*
X115542612Y-41682041D01*
X115542612Y-41682041D02*
X113825196Y-41221861D01*
X104992770Y-38855219D02*
X103275354Y-38395039D01*
X103275354Y-38395039D02*
X103735534Y-36677623D01*
X106102176Y-27845197D02*
X106562356Y-26127781D01*
X123730617Y-35658507D02*
X125448033Y-36118687D01*
X134280459Y-38485329D02*
X135997875Y-38945509D01*
X135997875Y-38945509D02*
X135537695Y-40662925D01*
X133171053Y-49495351D02*
X132710873Y-51212767D01*
X132710873Y-51212767D02*
X130993457Y-50752587D01*
X122161031Y-48385945D02*
X120443615Y-47925765D01*
X120443615Y-47925765D02*
X120903795Y-46208349D01*
X123270437Y-37375923D02*
X123730617Y-35658507D01*
X168824420Y-38904280D02*
X170541836Y-38444100D01*
X179374262Y-36077458D02*
X181091678Y-35617278D01*
X181091678Y-35617278D02*
X181551858Y-37334694D01*
X183918500Y-46167120D02*
X184378680Y-47884536D01*
X184378680Y-47884536D02*
X182661264Y-48344716D01*
X173828838Y-50711358D02*
X172111422Y-51171538D01*
X172111422Y-51171538D02*
X171651242Y-49454122D01*
X169284600Y-40621696D02*
X168824420Y-38904280D01*
X185992680Y-29373557D02*
X187710096Y-28913377D01*
X196542522Y-26546735D02*
X198259938Y-26086555D01*
X198259938Y-26086555D02*
X198720118Y-27803971D01*
X201086760Y-36636397D02*
X201546940Y-38353813D01*
X201546940Y-38353813D02*
X199829524Y-38813993D01*
X190997098Y-41180635D02*
X189279682Y-41640815D01*
X189279682Y-41640815D02*
X188819502Y-39923399D01*
X186452860Y-31090973D02*
X185992680Y-29373557D01*
X203160943Y-19842832D02*
X204878359Y-19382652D01*
X213710785Y-17016010D02*
X215428201Y-16555830D01*
X215428201Y-16555830D02*
X215888381Y-18273246D01*
X218255023Y-27105672D02*
X218715203Y-28823088D01*
X218715203Y-28823088D02*
X216997787Y-29283268D01*
X208165361Y-31649910D02*
X206447945Y-32110090D01*
X206447945Y-32110090D02*
X205987765Y-30392674D01*
X203621123Y-21560248D02*
X203160943Y-19842832D01*
X222794455Y-19512551D02*
X224511871Y-19052371D01*
X233344297Y-16685729D02*
X235061713Y-16225549D01*
X235061713Y-16225549D02*
X235521893Y-17942965D01*
X237888535Y-26775391D02*
X238348715Y-28492807D01*
X238348715Y-28492807D02*
X236631299Y-28952987D01*
X227798873Y-31319629D02*
X226081457Y-31779809D01*
X226081457Y-31779809D02*
X225621277Y-30062393D01*
X223254635Y-21229967D02*
X222794455Y-19512551D01*
X40266062Y-52738269D02*
X41983478Y-53198449D01*
X50815904Y-55565091D02*
X52533320Y-56025271D01*
X52533320Y-56025271D02*
X52073140Y-57742687D01*
X49706498Y-66575113D02*
X49246318Y-68292529D01*
X49246318Y-68292529D02*
X47528902Y-67832349D01*
X38696476Y-65465707D02*
X36979060Y-65005527D01*
X36979060Y-65005527D02*
X37439240Y-63288111D01*
X39805882Y-54455685D02*
X40266062Y-52738269D01*
X86840345Y-99731329D02*
X88557761Y-100191509D01*
X97390187Y-102558151D02*
X99107603Y-103018331D01*
X99107603Y-103018331D02*
X98647423Y-104735747D01*
X96280781Y-113568173D02*
X95820601Y-115285589D01*
X95820601Y-115285589D02*
X94103185Y-114825409D01*
X85270759Y-112458767D02*
X83553343Y-111998587D01*
X83553343Y-111998587D02*
X84013523Y-110281171D01*
X86380165Y-101448745D02*
X86840345Y-99731329D01*
X108939108Y-90861168D02*
X110656524Y-91321348D01*
X119488950Y-93687990D02*
X121206366Y-94148170D01*
X121206366Y-94148170D02*
X120746186Y-95865586D01*
X118379544Y-104698012D02*
X117919364Y-106415428D01*
X117919364Y-106415428D02*
X116201948Y-105955248D01*
X107369522Y-103588606D02*
X105652106Y-103128426D01*
X105652106Y-103128426D02*
X106112286Y-101411010D01*
X108478928Y-92578584D02*
X108939108Y-90861168D01*
X270029299Y-11786517D02*
X271746715Y-11326337D01*
X280579141Y-8959695D02*
X282296557Y-8499515D01*
X282296557Y-8499515D02*
X282756737Y-10216931D01*
X285123379Y-19049357D02*
X285583559Y-20766773D01*
X285583559Y-20766773D02*
X283866143Y-21226953D01*
X275033717Y-23593595D02*
X273316301Y-24053775D01*
X273316301Y-24053775D02*
X272856121Y-22336359D01*
X270489479Y-13503933D02*
X270029299Y-11786517D01*
X74602585Y-71799718D02*
X76320001Y-72259898D01*
X85152427Y-74626540D02*
X86869843Y-75086720D01*
X86869843Y-75086720D02*
X86409663Y-76804136D01*
X84043021Y-85636562D02*
X83582841Y-87353978D01*
X83582841Y-87353978D02*
X81865425Y-86893798D01*
X73032999Y-84527156D02*
X71315583Y-84066976D01*
X71315583Y-84066976D02*
X71775763Y-82349560D01*
X74142405Y-73517134D02*
X74602585Y-71799718D01*
X252288974Y-55984044D02*
X254006390Y-55523864D01*
X262838816Y-53157222D02*
X264556232Y-52697042D01*
X264556232Y-52697042D02*
X265016412Y-54414458D01*
X267383054Y-63246884D02*
X267843234Y-64964300D01*
X267843234Y-64964300D02*
X266125818Y-65424480D01*
X257293392Y-67791122D02*
X255575976Y-68251302D01*
X255575976Y-68251302D02*
X255115796Y-66533886D01*
X252749154Y-57701460D02*
X252288974Y-55984044D01*
X217952450Y-75045493D02*
X219669866Y-74585313D01*
X228502292Y-72218671D02*
X230219708Y-71758491D01*
X230219708Y-71758491D02*
X230679888Y-73475907D01*
X233046530Y-82308333D02*
X233506710Y-84025749D01*
X233506710Y-84025749D02*
X231789294Y-84485929D01*
X222956868Y-86852571D02*
X221239452Y-87312751D01*
X221239452Y-87312751D02*
X220779272Y-85595335D01*
X218412630Y-76762909D02*
X217952450Y-75045493D01*
X50038570Y-89870324D02*
X51755986Y-90330504D01*
X60588412Y-92697146D02*
X62305828Y-93157326D01*
X62305828Y-93157326D02*
X61845648Y-94874742D01*
X59479006Y-103707168D02*
X59018826Y-105424584D01*
X59018826Y-105424584D02*
X57301410Y-104964404D01*
X48468984Y-102597762D02*
X46751568Y-102137582D01*
X46751568Y-102137582D02*
X47211748Y-100420166D01*
X49578390Y-91587740D02*
X50038570Y-89870324D01*
X79533088Y-53398832D02*
X81250504Y-53859012D01*
X90082930Y-56225654D02*
X91800346Y-56685834D01*
X91800346Y-56685834D02*
X91340166Y-58403250D01*
X88973524Y-67235676D02*
X88513344Y-68953092D01*
X88513344Y-68953092D02*
X86795928Y-68492912D01*
X77963502Y-66126270D02*
X76246086Y-65666090D01*
X76246086Y-65666090D02*
X76706266Y-63948674D01*
X79072908Y-55116248D02*
X79533088Y-53398832D01*
X13325295Y-6075490D02*
X15042711Y-6535670D01*
X23875137Y-8902312D02*
X25592553Y-9362492D01*
X25592553Y-9362492D02*
X25132373Y-11079908D01*
X22765731Y-19912334D02*
X22305551Y-21629750D01*
X22305551Y-21629750D02*
X20588135Y-21169570D01*
X11755709Y-18802928D02*
X10038293Y-18342748D01*
X10038293Y-18342748D02*
X10498473Y-16625332D01*
X12865115Y-7792906D02*
X13325295Y-6075490D01*
X222882953Y-93446381D02*
X224600369Y-92986201D01*
X233432795Y-90619559D02*
X235150211Y-90159379D01*
X235150211Y-90159379D02*
X235610391Y-91876795D01*
X237977033Y-100709221D02*
X238437213Y-102426637D01*
X238437213Y-102426637D02*
X236719797Y-102886817D01*
X227887371Y-105253459D02*
X226169955Y-105713639D01*
X226169955Y-105713639D02*
X225709775Y-103996223D01*
X223343133Y-95163797D02*
X222882953Y-93446381D01*
X84463591Y-34997944D02*
X86181007Y-35458124D01*
X95013433Y-37824766D02*
X96730849Y-38284946D01*
X96730849Y-38284946D02*
X96270669Y-40002362D01*
X93904027Y-48834788D02*
X93443847Y-50552204D01*
X93443847Y-50552204D02*
X91726431Y-50092024D01*
X82894005Y-47725382D02*
X81176589Y-47265202D01*
X81176589Y-47265202D02*
X81636769Y-45547786D01*
X84003411Y-36715360D02*
X84463591Y-34997944D01*
X181180177Y-109551108D02*
X181640357Y-111268524D01*
X184006999Y-120100950D02*
X184467179Y-121818366D01*
X184467179Y-121818366D02*
X182749763Y-122278546D01*
X173917337Y-124645188D02*
X172199921Y-125105368D01*
X172199921Y-125105368D02*
X171739741Y-123387952D01*
X169373099Y-114555526D02*
X168912919Y-112838110D01*
X168912919Y-112838110D02*
X170630335Y-112377930D01*
X179462761Y-110011288D02*
X181180177Y-109551108D01*
X282190415Y-47971976D02*
X283907831Y-47511796D01*
X292740257Y-45145154D02*
X294457673Y-44684974D01*
X294457673Y-44684974D02*
X294917853Y-46402390D01*
X297284495Y-55234816D02*
X297744675Y-56952232D01*
X297744675Y-56952232D02*
X296027259Y-57412412D01*
X287194833Y-59779054D02*
X285477417Y-60239234D01*
X285477417Y-60239234D02*
X285017237Y-58521818D01*
X282650595Y-49689392D02*
X282190415Y-47971976D01*
X31726181Y-11005993D02*
X33443597Y-11466173D01*
X42276023Y-13832815D02*
X43993439Y-14292995D01*
X43993439Y-14292995D02*
X43533259Y-16010411D01*
X41166617Y-24842837D02*
X40706437Y-26560253D01*
X40706437Y-26560253D02*
X38989021Y-26100073D01*
X30156595Y-23733431D02*
X28439179Y-23273251D01*
X28439179Y-23273251D02*
X28899359Y-21555835D01*
X31266001Y-12723409D02*
X31726181Y-11005993D01*
X96701350Y-62929557D02*
X98418766Y-63389737D01*
X107251192Y-65756379D02*
X108968608Y-66216559D01*
X108968608Y-66216559D02*
X108508428Y-67933975D01*
X106141786Y-76766401D02*
X105681606Y-78483817D01*
X105681606Y-78483817D02*
X103964190Y-78023637D01*
X95131764Y-75656995D02*
X93414348Y-75196815D01*
X93414348Y-75196815D02*
X93874528Y-73479399D01*
X96241170Y-64646973D02*
X96701350Y-62929557D01*
X113869610Y-72460281D02*
X115587026Y-72920461D01*
X124419452Y-75287103D02*
X126136868Y-75747283D01*
X126136868Y-75747283D02*
X125676688Y-77464699D01*
X123310046Y-86297125D02*
X122849866Y-88014541D01*
X122849866Y-88014541D02*
X121132450Y-87554361D01*
X112300024Y-85187719D02*
X110582608Y-84727539D01*
X110582608Y-84727539D02*
X111042788Y-83010123D01*
X113409430Y-74177697D02*
X113869610Y-72460281D01*
X178685426Y-75706055D02*
X180402842Y-75245875D01*
X189235268Y-72879233D02*
X190952684Y-72419053D01*
X190952684Y-72419053D02*
X191412864Y-74136469D01*
X193779506Y-82968895D02*
X194239686Y-84686311D01*
X194239686Y-84686311D02*
X192522270Y-85146491D01*
X183689844Y-87513133D02*
X181972428Y-87973313D01*
X181972428Y-87973313D02*
X181512248Y-86255897D01*
X179145606Y-77423471D02*
X178685426Y-75706055D01*
X208091445Y-38243720D02*
X209808861Y-37783540D01*
X218641287Y-35416898D02*
X220358703Y-34956718D01*
X220358703Y-34956718D02*
X220818883Y-36674134D01*
X223185525Y-45506560D02*
X223645705Y-47223976D01*
X223645705Y-47223976D02*
X221928289Y-47684156D01*
X213095863Y-50050798D02*
X211378447Y-50510978D01*
X211378447Y-50510978D02*
X210918267Y-48793562D01*
X208551625Y-39961136D02*
X208091445Y-38243720D01*
X195853687Y-66175330D02*
X197571103Y-65715150D01*
X206403529Y-63348508D02*
X208120945Y-62888328D01*
X208120945Y-62888328D02*
X208581125Y-64605744D01*
X210947767Y-73438170D02*
X211407947Y-75155586D01*
X211407947Y-75155586D02*
X209690531Y-75615766D01*
X200858105Y-77982408D02*
X199140689Y-78442588D01*
X199140689Y-78442588D02*
X198680509Y-76725172D01*
X196313867Y-67892746D02*
X195853687Y-66175330D01*
X213021947Y-56644606D02*
X214739363Y-56184426D01*
X223571789Y-53817784D02*
X225289205Y-53357604D01*
X225289205Y-53357604D02*
X225749385Y-55075020D01*
X228116027Y-63907446D02*
X228576207Y-65624862D01*
X228576207Y-65624862D02*
X226858791Y-66085042D01*
X218026365Y-68451684D02*
X216308949Y-68911864D01*
X216308949Y-68911864D02*
X215848769Y-67194448D01*
X213482127Y-58362022D02*
X213021947Y-56644606D01*
X232655461Y-56314325D02*
X234372877Y-55854145D01*
X243205303Y-53487503D02*
X244922719Y-53027323D01*
X244922719Y-53027323D02*
X245382899Y-54744739D01*
X247749541Y-63577165D02*
X248209721Y-65294581D01*
X248209721Y-65294581D02*
X246492305Y-65754761D01*
X237659879Y-68121403D02*
X235942463Y-68581583D01*
X235942463Y-68581583D02*
X235482283Y-66864167D01*
X233115641Y-58031741D02*
X232655461Y-56314325D01*
X135968375Y-63590119D02*
X137685791Y-64050299D01*
X146518217Y-66416941D02*
X148235633Y-66877121D01*
X148235633Y-66877121D02*
X147775453Y-68594537D01*
X145408811Y-77426963D02*
X144948631Y-79144379D01*
X144948631Y-79144379D02*
X143231215Y-78684199D01*
X134398789Y-76317557D02*
X132681373Y-75857377D01*
X132681373Y-75857377D02*
X133141553Y-74139961D01*
X135508195Y-65307535D02*
X135968375Y-63590119D01*
X205714692Y-102977105D02*
X207432108Y-102516925D01*
X216264534Y-100150283D02*
X217981950Y-99690103D01*
X217981950Y-99690103D02*
X218442130Y-101407519D01*
X220808772Y-110239945D02*
X221268952Y-111957361D01*
X221268952Y-111957361D02*
X219551536Y-112417541D01*
X210719110Y-114784183D02*
X209001694Y-115244363D01*
X209001694Y-115244363D02*
X208541514Y-113526947D01*
X206174872Y-104694521D02*
X205714692Y-102977105D01*
X30405058Y-89540044D02*
X32122474Y-90000224D01*
X40954900Y-92366866D02*
X42672316Y-92827046D01*
X42672316Y-92827046D02*
X42212136Y-94544462D01*
X39845494Y-103376888D02*
X39385314Y-105094304D01*
X39385314Y-105094304D02*
X37667898Y-104634124D01*
X28835472Y-102267482D02*
X27118056Y-101807302D01*
X27118056Y-101807302D02*
X27578236Y-100089886D01*
X29944878Y-91257460D02*
X30405058Y-89540044D01*
X104008606Y-109262055D02*
X105726022Y-109722235D01*
X114558448Y-112088877D02*
X116275864Y-112549057D01*
X116275864Y-112549057D02*
X115815684Y-114266473D01*
X113449042Y-123098899D02*
X112988862Y-124816315D01*
X112988862Y-124816315D02*
X111271446Y-124356135D01*
X102439020Y-121989493D02*
X100721604Y-121529313D01*
X100721604Y-121529313D02*
X101181784Y-119811897D01*
X103548426Y-110979471D02*
X104008606Y-109262055D01*
X200784189Y-84576218D02*
X202501605Y-84116038D01*
X211334031Y-81749396D02*
X213051447Y-81289216D01*
X213051447Y-81289216D02*
X213511627Y-83006632D01*
X215878269Y-91839058D02*
X216338449Y-93556474D01*
X216338449Y-93556474D02*
X214621033Y-94016654D01*
X205788607Y-96383296D02*
X204071191Y-96843476D01*
X204071191Y-96843476D02*
X203611011Y-95126060D01*
X201244369Y-86293634D02*
X200784189Y-84576218D01*
X183615929Y-94106942D02*
X185333345Y-93646762D01*
X194165771Y-91280120D02*
X195883187Y-90819940D01*
X195883187Y-90819940D02*
X196343367Y-92537356D01*
X198710009Y-101369782D02*
X199170189Y-103087198D01*
X199170189Y-103087198D02*
X197452773Y-103547378D01*
X188620347Y-105914020D02*
X186902931Y-106374200D01*
X186902931Y-106374200D02*
X186442751Y-104656784D01*
X184076109Y-95824358D02*
X183615929Y-94106942D01*
X10364621Y-44726202D02*
X12082037Y-45186382D01*
X20914463Y-47553024D02*
X22631879Y-48013204D01*
X22631879Y-48013204D02*
X22171699Y-49730620D01*
X19805057Y-58563046D02*
X19344877Y-60280462D01*
X19344877Y-60280462D02*
X17627461Y-59820282D01*
X8795035Y-57453640D02*
X7077619Y-56993460D01*
X7077619Y-56993460D02*
X7537799Y-55276044D01*
X9904441Y-46443618D02*
X10364621Y-44726202D01*
X227724958Y-37913439D02*
X229442374Y-37453259D01*
X238274800Y-35086617D02*
X239992216Y-34626437D01*
X239992216Y-34626437D02*
X240452396Y-36343853D01*
X242819038Y-45176279D02*
X243279218Y-46893695D01*
X243279218Y-46893695D02*
X241561802Y-47353875D01*
X232729376Y-49720517D02*
X231011960Y-50180697D01*
X231011960Y-50180697D02*
X230551780Y-48463281D01*
X228185138Y-39630855D02*
X227724958Y-37913439D01*
X247358471Y-37583157D02*
X249075887Y-37122977D01*
X257908313Y-34756335D02*
X259625729Y-34296155D01*
X259625729Y-34296155D02*
X260085909Y-36013571D01*
X262452551Y-44845997D02*
X262912731Y-46563413D01*
X262912731Y-46563413D02*
X261195315Y-47023593D01*
X252362889Y-49390235D02*
X250645473Y-49850415D01*
X250645473Y-49850415D02*
X250185293Y-48132999D01*
X247818651Y-39300573D02*
X247358471Y-37583157D01*
X237585964Y-74715212D02*
X239303380Y-74255032D01*
X248135806Y-71888390D02*
X249853222Y-71428210D01*
X249853222Y-71428210D02*
X250313402Y-73145626D01*
X252680044Y-81978052D02*
X253140224Y-83695468D01*
X253140224Y-83695468D02*
X251422808Y-84155648D01*
X242590382Y-86522290D02*
X240872966Y-86982470D01*
X240872966Y-86982470D02*
X240412786Y-85265054D01*
X238046144Y-76432628D02*
X237585964Y-74715212D01*
X131037872Y-81991005D02*
X132755288Y-82451185D01*
X141587714Y-84817827D02*
X143305130Y-85278007D01*
X143305130Y-85278007D02*
X142844950Y-86995423D01*
X140478308Y-95827849D02*
X140018128Y-97545265D01*
X140018128Y-97545265D02*
X138300712Y-97085085D01*
X129468286Y-94718443D02*
X127750870Y-94258263D01*
X127750870Y-94258263D02*
X128211050Y-92540847D01*
X130577692Y-83708421D02*
X131037872Y-81991005D01*
X161517163Y-85236780D02*
X163234579Y-84776600D01*
X172067005Y-82409958D02*
X173784421Y-81949778D01*
X173784421Y-81949778D02*
X174244601Y-83667194D01*
X176611243Y-92499620D02*
X177071423Y-94217036D01*
X177071423Y-94217036D02*
X175354007Y-94677216D01*
X166521581Y-97043858D02*
X164804165Y-97504038D01*
X164804165Y-97504038D02*
X164343985Y-95786622D01*
X161977343Y-86954196D02*
X161517163Y-85236780D01*
X270359580Y-31420028D02*
X272076996Y-30959848D01*
X280909422Y-28593206D02*
X282626838Y-28133026D01*
X282626838Y-28133026D02*
X283087018Y-29850442D01*
X285453660Y-38682868D02*
X285913840Y-40400284D01*
X285913840Y-40400284D02*
X284196424Y-40860464D01*
X275363998Y-43227106D02*
X273646582Y-43687286D01*
X273646582Y-43687286D02*
X273186402Y-41969870D01*
X270819760Y-33137444D02*
X270359580Y-31420028D01*
X45196566Y-34337383D02*
X46913982Y-34797563D01*
X55746408Y-37164205D02*
X57463824Y-37624385D01*
X57463824Y-37624385D02*
X57003644Y-39341801D01*
X54637002Y-48174227D02*
X54176822Y-49891643D01*
X54176822Y-49891643D02*
X52459406Y-49431463D01*
X43626980Y-47064821D02*
X41909564Y-46604641D01*
X41909564Y-46604641D02*
X42369744Y-44887225D01*
X44736386Y-36054799D02*
X45196566Y-34337383D01*
X101631852Y-44528669D02*
X103349268Y-44988849D01*
X112181694Y-47355491D02*
X113899110Y-47815671D01*
X113899110Y-47815671D02*
X113438930Y-49533087D01*
X111072288Y-58365513D02*
X110612108Y-60082929D01*
X110612108Y-60082929D02*
X108894692Y-59622749D01*
X100062266Y-57256107D02*
X98344850Y-56795927D01*
X98344850Y-56795927D02*
X98805030Y-55078511D01*
X101171672Y-46246085D02*
X101631852Y-44528669D01*
X188546430Y-112507829D02*
X190263846Y-112047649D01*
X199096272Y-109681007D02*
X200813688Y-109220827D01*
X200813688Y-109220827D02*
X201273868Y-110938243D01*
X203640510Y-119770669D02*
X204100690Y-121488085D01*
X204100690Y-121488085D02*
X202383274Y-121948265D01*
X193550848Y-124314907D02*
X191833432Y-124775087D01*
X191833432Y-124775087D02*
X191373252Y-123057671D01*
X189006610Y-114225245D02*
X188546430Y-112507829D01*
X156586661Y-66835893D02*
X158304077Y-66375713D01*
X167136503Y-64009071D02*
X168853919Y-63548891D01*
X168853919Y-63548891D02*
X169314099Y-65266307D01*
X171680741Y-74098733D02*
X172140921Y-75816149D01*
X172140921Y-75816149D02*
X170423505Y-76276329D01*
X161591079Y-78642971D02*
X159873663Y-79103151D01*
X159873663Y-79103151D02*
X159413483Y-77385735D01*
X157046841Y-68553309D02*
X156586661Y-66835893D01*
X262149978Y-92785818D02*
X263867394Y-92325638D01*
X272699820Y-89958996D02*
X274417236Y-89498816D01*
X274417236Y-89498816D02*
X274877416Y-91216232D01*
X277244058Y-100048658D02*
X277704238Y-101766074D01*
X277704238Y-101766074D02*
X275986822Y-102226254D01*
X267154396Y-104592896D02*
X265436980Y-105053076D01*
X265436980Y-105053076D02*
X264976800Y-103335660D01*
X262610158Y-94503234D02*
X262149978Y-92785818D01*
X282520696Y-67605489D02*
X284238112Y-67145309D01*
X293070538Y-64778667D02*
X294787954Y-64318487D01*
X294787954Y-64318487D02*
X295248134Y-66035903D01*
X297614776Y-74868329D02*
X298074956Y-76585745D01*
X298074956Y-76585745D02*
X296357540Y-77045925D01*
X287525114Y-79412567D02*
X285807698Y-79872747D01*
X285807698Y-79872747D02*
X285347518Y-78155331D01*
X282980876Y-69322905D02*
X282520696Y-67605489D01*
X59899575Y-53068551D02*
X61616991Y-53528731D01*
X70449417Y-55895373D02*
X72166833Y-56355553D01*
X72166833Y-56355553D02*
X71706653Y-58072969D01*
X69340011Y-66905395D02*
X68879831Y-68622811D01*
X68879831Y-68622811D02*
X67162415Y-68162631D01*
X58329989Y-65795989D02*
X56612573Y-65335809D01*
X56612573Y-65335809D02*
X57072753Y-63618393D01*
X59439395Y-54785967D02*
X59899575Y-53068551D01*
X257219475Y-74384930D02*
X258936891Y-73924750D01*
X267769317Y-71558108D02*
X269486733Y-71097928D01*
X269486733Y-71097928D02*
X269946913Y-72815344D01*
X272313555Y-81647770D02*
X272773735Y-83365186D01*
X272773735Y-83365186D02*
X271056319Y-83825366D01*
X262223893Y-86192008D02*
X260506477Y-86652188D01*
X260506477Y-86652188D02*
X260046297Y-84934772D01*
X257679655Y-76102346D02*
X257219475Y-74384930D01*
X120355116Y-121859594D02*
X120815296Y-120142178D01*
X123181938Y-111309752D02*
X123642118Y-109592336D01*
X123642118Y-109592336D02*
X125359534Y-110052516D01*
X134191960Y-112419158D02*
X135909376Y-112879338D01*
X135909376Y-112879338D02*
X135449196Y-114596754D01*
X133082554Y-123429180D02*
X132622374Y-125146596D01*
X132622374Y-125146596D02*
X130904958Y-124686416D01*
X122072532Y-122319774D02*
X120355116Y-121859594D01*
X118800114Y-54059394D02*
X120517530Y-54519574D01*
X129349956Y-56886216D02*
X131067372Y-57346396D01*
X131067372Y-57346396D02*
X130607192Y-59063812D01*
X128240550Y-67896238D02*
X127780370Y-69613654D01*
X127780370Y-69613654D02*
X126062954Y-69153474D01*
X117230528Y-66786832D02*
X115513112Y-66326652D01*
X115513112Y-66326652D02*
X115973292Y-64609236D01*
X118339934Y-55776810D02*
X118800114Y-54059394D01*
X22195458Y-28174253D02*
X23912874Y-28634433D01*
X32745300Y-31001075D02*
X34462716Y-31461255D01*
X34462716Y-31461255D02*
X34002536Y-33178671D01*
X31635894Y-42011097D02*
X31175714Y-43728513D01*
X31175714Y-43728513D02*
X29458298Y-43268333D01*
X20625872Y-40901691D02*
X18908456Y-40441511D01*
X18908456Y-40441511D02*
X19368636Y-38724095D01*
X21735278Y-29891669D02*
X22195458Y-28174253D01*
X190923184Y-47774443D02*
X192640600Y-47314263D01*
X201473026Y-44947621D02*
X203190442Y-44487441D01*
X203190442Y-44487441D02*
X203650622Y-46204857D01*
X206017264Y-55037283D02*
X206477444Y-56754699D01*
X206477444Y-56754699D02*
X204760028Y-57214879D01*
X195927602Y-59581521D02*
X194210186Y-60041701D01*
X194210186Y-60041701D02*
X193750006Y-58324285D01*
X191383364Y-49491859D02*
X190923184Y-47774443D01*
X242516467Y-93116099D02*
X244233883Y-92655919D01*
X253066309Y-90289277D02*
X254783725Y-89829097D01*
X254783725Y-89829097D02*
X255243905Y-91546513D01*
X257610547Y-100378939D02*
X258070727Y-102096355D01*
X258070727Y-102096355D02*
X256353311Y-102556535D01*
X247520885Y-104923177D02*
X245803469Y-105383357D01*
X245803469Y-105383357D02*
X245343289Y-103665941D01*
X242976647Y-94833515D02*
X242516467Y-93116099D01*
X91770848Y-81330442D02*
X93488264Y-81790622D01*
X102320690Y-84157264D02*
X104038106Y-84617444D01*
X104038106Y-84617444D02*
X103577926Y-86334860D01*
X101211284Y-95167286D02*
X100751104Y-96884702D01*
X100751104Y-96884702D02*
X99033688Y-96424522D01*
X90201262Y-94057880D02*
X88483846Y-93597700D01*
X88483846Y-93597700D02*
X88944026Y-91880284D01*
X91310668Y-83047858D02*
X91770848Y-81330442D01*
X64830078Y-34667663D02*
X66547494Y-35127843D01*
X75379920Y-37494485D02*
X77097336Y-37954665D01*
X77097336Y-37954665D02*
X76637156Y-39672081D01*
X74270514Y-48504507D02*
X73810334Y-50221923D01*
X73810334Y-50221923D02*
X72092918Y-49761743D01*
X63260492Y-47395101D02*
X61543076Y-46934921D01*
X61543076Y-46934921D02*
X62003256Y-45217505D01*
X64369898Y-36385079D02*
X64830078Y-34667663D01*
X69672082Y-90200606D02*
X71389498Y-90660786D01*
X80221924Y-93027428D02*
X81939340Y-93487608D01*
X81939340Y-93487608D02*
X81479160Y-95205024D01*
X79112518Y-104037450D02*
X78652338Y-105754866D01*
X78652338Y-105754866D02*
X76934922Y-105294686D01*
X68102496Y-102928044D02*
X66385080Y-102467864D01*
X66385080Y-102467864D02*
X66845260Y-100750448D01*
X69211902Y-91918022D02*
X69672082Y-90200606D01*
X54969072Y-71469437D02*
X56686488Y-71929617D01*
X65518914Y-74296259D02*
X67236330Y-74756439D01*
X67236330Y-74756439D02*
X66776150Y-76473855D01*
X64409508Y-85306281D02*
X63949328Y-87023697D01*
X63949328Y-87023697D02*
X62231912Y-86563517D01*
X53399486Y-84196875D02*
X51682070Y-83736695D01*
X51682070Y-83736695D02*
X52142250Y-82019279D01*
X54508892Y-73186853D02*
X54969072Y-71469437D01*
X173754923Y-57305168D02*
X175472339Y-56844988D01*
X184304765Y-54478346D02*
X186022181Y-54018166D01*
X186022181Y-54018166D02*
X186482361Y-55735582D01*
X188849003Y-64568008D02*
X189309183Y-66285424D01*
X189309183Y-66285424D02*
X187591767Y-66745604D01*
X178759341Y-69112246D02*
X177041925Y-69572426D01*
X177041925Y-69572426D02*
X176581745Y-67855010D01*
X174215103Y-59022584D02*
X173754923Y-57305168D01*
X35335561Y-71139157D02*
X37052977Y-71599337D01*
X45885403Y-73965979D02*
X47602819Y-74426159D01*
X47602819Y-74426159D02*
X47142639Y-76143575D01*
X44775997Y-84976001D02*
X44315817Y-86693417D01*
X44315817Y-86693417D02*
X42598401Y-86233237D01*
X33765975Y-83866595D02*
X32048559Y-83406415D01*
X32048559Y-83406415D02*
X32508739Y-81688999D01*
X34875381Y-72856573D02*
X35335561Y-71139157D01*
X161290000Y-18097500D02*
X143510000Y-18097500D01*
X143510000Y-18097500D02*
X143510000Y-48577500D01*
X143510000Y-48577500D02*
X161290000Y-48577500D01*
X161290000Y-48577500D02*
X161290000Y-18097500D01*
X146050000Y-18097500D02*
X146050000Y-20637500D01*
X146050000Y-20637500D02*
X143510000Y-20637500D01*
D12*
X150079524Y-40050357D02*
X151107619Y-40050357D01*
X151228571Y-39977785D01*
X151289048Y-39905214D01*
X151349524Y-39760071D01*
X151349524Y-39469785D01*
X151289048Y-39324643D01*
X151228571Y-39252071D01*
X151107619Y-39179500D01*
X150079524Y-39179500D01*
X151470476Y-38816643D02*
X151470476Y-37655500D01*
X151349524Y-37292643D02*
X150079524Y-37292643D01*
X150079524Y-36712071D01*
X150140000Y-36566929D01*
X150200476Y-36494357D01*
X150321429Y-36421786D01*
X150502857Y-36421786D01*
X150623810Y-36494357D01*
X150684286Y-36566929D01*
X150744762Y-36712071D01*
X150744762Y-37292643D01*
X151349524Y-35768643D02*
X150502857Y-35768643D01*
X150744762Y-35768643D02*
X150623810Y-35696071D01*
X150563333Y-35623500D01*
X150502857Y-35478357D01*
X150502857Y-35333214D01*
X151349524Y-34607500D02*
X151289048Y-34752642D01*
X151228571Y-34825214D01*
X151107619Y-34897785D01*
X150744762Y-34897785D01*
X150623810Y-34825214D01*
X150563333Y-34752642D01*
X150502857Y-34607500D01*
X150502857Y-34389785D01*
X150563333Y-34244642D01*
X150623810Y-34172071D01*
X150744762Y-34099500D01*
X151107619Y-34099500D01*
X151228571Y-34172071D01*
X151289048Y-34244642D01*
X151349524Y-34389785D01*
X151349524Y-34607500D01*
X151349524Y-33446357D02*
X150079524Y-33446357D01*
X150986667Y-32938357D01*
X150079524Y-32430357D01*
X151349524Y-32430357D01*
X151349524Y-31704643D02*
X150502857Y-31704643D01*
X150079524Y-31704643D02*
X150140000Y-31777214D01*
X150200476Y-31704643D01*
X150140000Y-31632071D01*
X150079524Y-31704643D01*
X150200476Y-31704643D01*
X151289048Y-30325786D02*
X151349524Y-30470929D01*
X151349524Y-30761215D01*
X151289048Y-30906357D01*
X151228571Y-30978929D01*
X151107619Y-31051500D01*
X150744762Y-31051500D01*
X150623810Y-30978929D01*
X150563333Y-30906357D01*
X150502857Y-30761215D01*
X150502857Y-30470929D01*
X150563333Y-30325786D01*
X151349524Y-29672643D02*
X150502857Y-29672643D01*
X150744762Y-29672643D02*
X150623810Y-29600071D01*
X150563333Y-29527500D01*
X150502857Y-29382357D01*
X150502857Y-29237214D01*
X151349524Y-28511500D02*
X151289048Y-28656642D01*
X151228571Y-28729214D01*
X151107619Y-28801785D01*
X150744762Y-28801785D01*
X150623810Y-28729214D01*
X150563333Y-28656642D01*
X150502857Y-28511500D01*
X150502857Y-28293785D01*
X150563333Y-28148642D01*
X150623810Y-28076071D01*
X150744762Y-28003500D01*
X151107619Y-28003500D01*
X151228571Y-28076071D01*
X151289048Y-28148642D01*
X151349524Y-28293785D01*
X151349524Y-28511500D01*
X151349524Y-26552071D02*
X151349524Y-27422928D01*
X151349524Y-26987500D02*
X150079524Y-26987500D01*
X150260952Y-27132643D01*
X150381905Y-27277785D01*
X150442381Y-27422928D01*
M02*
