G04 #@! TF.FileFunction,Soldermask,Bot*
%FSLAX46Y46*%
G04 Gerber Fmt 4.6, Leading zero omitted, Abs format (unit mm)*
G04 Created by KiCad (PCBNEW 4.0.7) date 09/07/18 18:10:35*
%MOMM*%
%LPD*%
G01*
G04 APERTURE LIST*
%ADD10C,0.100000*%
%ADD11C,0.150000*%
%ADD12C,2.900000*%
%ADD13C,2.000000*%
%ADD14C,3.200000*%
%ADD15C,2.200000*%
%ADD16R,2.100000X1.400000*%
%ADD17R,2.152600X2.152600*%
%ADD18C,2.152600*%
G04 APERTURE END LIST*
D10*
D11*
X19050000Y-107156250D02*
X-28575000Y-76200000D01*
X152400000Y-145256250D02*
X19050000Y-107156250D01*
X285750000Y-107156250D02*
X152400000Y-145256250D01*
X333375000Y-76200000D02*
X285750000Y-107156250D01*
X326231250Y-50006250D02*
X333375000Y-76200000D01*
X300037500Y2381250D02*
X326231250Y-50006250D01*
X161925000Y-16668750D02*
X300037500Y2381250D01*
X142875000Y-16668750D02*
X161925000Y-16668750D01*
X4762500Y2381250D02*
X142875000Y-16668750D01*
X-21431250Y-50006250D02*
X4762500Y2381250D01*
X-28575000Y-76200000D02*
X-21431250Y-50006250D01*
D12*
X223549808Y-75963356D02*
X223144384Y-77583396D01*
X228620971Y-73487091D02*
X228732633Y-74056241D01*
X313419273Y-61743910D02*
X313013849Y-63363950D01*
X318490436Y-59267645D02*
X318602098Y-59836795D01*
X1718555Y-64602580D02*
X557427Y-65802864D01*
X7348442Y-64993652D02*
X7160570Y-65542382D01*
D10*
G36*
X54571803Y-13673423D02*
X54157692Y-15218904D01*
X52612211Y-14804793D01*
X53026322Y-13259312D01*
X54571803Y-13673423D01*
X54571803Y-13673423D01*
G37*
G36*
X57614469Y-14488703D02*
X57200358Y-16034184D01*
X55654877Y-15620073D01*
X56068988Y-14074592D01*
X57614469Y-14488703D01*
X57614469Y-14488703D01*
G37*
G36*
X60105196Y-14949035D02*
X59587558Y-16880887D01*
X57655706Y-16363249D01*
X58173344Y-14431397D01*
X60105196Y-14949035D01*
X60105196Y-14949035D01*
G37*
D13*
X51346229Y-13637354D03*
D10*
G36*
X36170916Y-8742920D02*
X35756805Y-10288401D01*
X34211324Y-9874290D01*
X34625435Y-8328809D01*
X36170916Y-8742920D01*
X36170916Y-8742920D01*
G37*
G36*
X39213582Y-9558200D02*
X38799471Y-11103681D01*
X37253990Y-10689570D01*
X37668101Y-9144089D01*
X39213582Y-9558200D01*
X39213582Y-9558200D01*
G37*
G36*
X41704309Y-10018532D02*
X41186671Y-11950384D01*
X39254819Y-11432746D01*
X39772457Y-9500894D01*
X41704309Y-10018532D01*
X41704309Y-10018532D01*
G37*
D13*
X32945342Y-8706851D03*
D10*
G36*
X17770029Y-3812418D02*
X17355918Y-5357899D01*
X15810437Y-4943788D01*
X16224548Y-3398307D01*
X17770029Y-3812418D01*
X17770029Y-3812418D01*
G37*
G36*
X20812695Y-4627698D02*
X20398584Y-6173179D01*
X18853103Y-5759068D01*
X19267214Y-4213587D01*
X20812695Y-4627698D01*
X20812695Y-4627698D01*
G37*
G36*
X23303422Y-5088030D02*
X22785784Y-7019882D01*
X20853932Y-6502244D01*
X21371570Y-4570392D01*
X23303422Y-5088030D01*
X23303422Y-5088030D01*
G37*
D13*
X14544455Y-3776349D03*
D10*
G36*
X49641300Y-32074310D02*
X49227189Y-33619791D01*
X47681708Y-33205680D01*
X48095819Y-31660199D01*
X49641300Y-32074310D01*
X49641300Y-32074310D01*
G37*
G36*
X52683966Y-32889590D02*
X52269855Y-34435071D01*
X50724374Y-34020960D01*
X51138485Y-32475479D01*
X52683966Y-32889590D01*
X52683966Y-32889590D01*
G37*
G36*
X55174693Y-33349922D02*
X54657055Y-35281774D01*
X52725203Y-34764136D01*
X53242841Y-32832284D01*
X55174693Y-33349922D01*
X55174693Y-33349922D01*
G37*
D13*
X46415726Y-32038241D03*
D10*
G36*
X26640192Y-25911182D02*
X26226081Y-27456663D01*
X24680600Y-27042552D01*
X25094711Y-25497071D01*
X26640192Y-25911182D01*
X26640192Y-25911182D01*
G37*
G36*
X29682858Y-26726462D02*
X29268747Y-28271943D01*
X27723266Y-27857832D01*
X28137377Y-26312351D01*
X29682858Y-26726462D01*
X29682858Y-26726462D01*
G37*
G36*
X32173585Y-27186794D02*
X31655947Y-29118646D01*
X29724095Y-28601008D01*
X30241733Y-26669156D01*
X32173585Y-27186794D01*
X32173585Y-27186794D01*
G37*
D13*
X23414618Y-25875113D03*
D10*
G36*
X44710798Y-50475197D02*
X44296687Y-52020678D01*
X42751206Y-51606567D01*
X43165317Y-50061086D01*
X44710798Y-50475197D01*
X44710798Y-50475197D01*
G37*
G36*
X47753464Y-51290477D02*
X47339353Y-52835958D01*
X45793872Y-52421847D01*
X46207983Y-50876366D01*
X47753464Y-51290477D01*
X47753464Y-51290477D01*
G37*
G36*
X50244191Y-51750809D02*
X49726553Y-53682661D01*
X47794701Y-53165023D01*
X48312339Y-51233171D01*
X50244191Y-51750809D01*
X50244191Y-51750809D01*
G37*
D13*
X41485224Y-50439128D03*
D10*
G36*
X14809356Y-42463130D02*
X14395245Y-44008611D01*
X12849764Y-43594500D01*
X13263875Y-42049019D01*
X14809356Y-42463130D01*
X14809356Y-42463130D01*
G37*
G36*
X17852022Y-43278410D02*
X17437911Y-44823891D01*
X15892430Y-44409780D01*
X16306541Y-42864299D01*
X17852022Y-43278410D01*
X17852022Y-43278410D01*
G37*
G36*
X20342749Y-43738742D02*
X19825111Y-45670594D01*
X17893259Y-45152956D01*
X18410897Y-43221104D01*
X20342749Y-43738742D01*
X20342749Y-43738742D01*
G37*
D13*
X11583782Y-42427061D03*
D10*
G36*
X39780295Y-68876084D02*
X39366184Y-70421565D01*
X37820703Y-70007454D01*
X38234814Y-68461973D01*
X39780295Y-68876084D01*
X39780295Y-68876084D01*
G37*
G36*
X42822961Y-69691364D02*
X42408850Y-71236845D01*
X40863369Y-70822734D01*
X41277480Y-69277253D01*
X42822961Y-69691364D01*
X42822961Y-69691364D01*
G37*
G36*
X45313688Y-70151696D02*
X44796050Y-72083548D01*
X42864198Y-71565910D01*
X43381836Y-69634058D01*
X45313688Y-70151696D01*
X45313688Y-70151696D01*
G37*
D13*
X36554721Y-68840015D03*
D10*
G36*
X5278632Y-59631391D02*
X4864521Y-61176872D01*
X3319040Y-60762761D01*
X3733151Y-59217280D01*
X5278632Y-59631391D01*
X5278632Y-59631391D01*
G37*
G36*
X8321298Y-60446671D02*
X7907187Y-61992152D01*
X6361706Y-61578041D01*
X6775817Y-60032560D01*
X8321298Y-60446671D01*
X8321298Y-60446671D01*
G37*
G36*
X10812025Y-60907003D02*
X10294387Y-62838855D01*
X8362535Y-62321217D01*
X8880173Y-60389365D01*
X10812025Y-60907003D01*
X10812025Y-60907003D01*
G37*
D13*
X2053058Y-59595322D03*
D10*
G36*
X74205316Y-14003704D02*
X73791205Y-15549185D01*
X72245724Y-15135074D01*
X72659835Y-13589593D01*
X74205316Y-14003704D01*
X74205316Y-14003704D01*
G37*
G36*
X77247982Y-14818984D02*
X76833871Y-16364465D01*
X75288390Y-15950354D01*
X75702501Y-14404873D01*
X77247982Y-14818984D01*
X77247982Y-14818984D01*
G37*
G36*
X79738709Y-15279316D02*
X79221071Y-17211168D01*
X77289219Y-16693530D01*
X77806857Y-14761678D01*
X79738709Y-15279316D01*
X79738709Y-15279316D01*
G37*
D13*
X70979742Y-13967635D03*
D10*
G36*
X93838829Y-14333985D02*
X93424718Y-15879466D01*
X91879237Y-15465355D01*
X92293348Y-13919874D01*
X93838829Y-14333985D01*
X93838829Y-14333985D01*
G37*
G36*
X96881495Y-15149265D02*
X96467384Y-16694746D01*
X94921903Y-16280635D01*
X95336014Y-14735154D01*
X96881495Y-15149265D01*
X96881495Y-15149265D01*
G37*
G36*
X99372222Y-15609597D02*
X98854584Y-17541449D01*
X96922732Y-17023811D01*
X97440370Y-15091959D01*
X99372222Y-15609597D01*
X99372222Y-15609597D01*
G37*
D13*
X90613255Y-14297916D03*
D10*
G36*
X88908326Y-32734872D02*
X88494215Y-34280353D01*
X86948734Y-33866242D01*
X87362845Y-32320761D01*
X88908326Y-32734872D01*
X88908326Y-32734872D01*
G37*
G36*
X91950992Y-33550152D02*
X91536881Y-35095633D01*
X89991400Y-34681522D01*
X90405511Y-33136041D01*
X91950992Y-33550152D01*
X91950992Y-33550152D01*
G37*
G36*
X94441719Y-34010484D02*
X93924081Y-35942336D01*
X91992229Y-35424698D01*
X92509867Y-33492846D01*
X94441719Y-34010484D01*
X94441719Y-34010484D01*
G37*
D13*
X85682752Y-32698803D03*
D10*
G36*
X69274813Y-32404591D02*
X68860702Y-33950072D01*
X67315221Y-33535961D01*
X67729332Y-31990480D01*
X69274813Y-32404591D01*
X69274813Y-32404591D01*
G37*
G36*
X72317479Y-33219871D02*
X71903368Y-34765352D01*
X70357887Y-34351241D01*
X70771998Y-32805760D01*
X72317479Y-33219871D01*
X72317479Y-33219871D01*
G37*
G36*
X74808206Y-33680203D02*
X74290568Y-35612055D01*
X72358716Y-35094417D01*
X72876354Y-33162565D01*
X74808206Y-33680203D01*
X74808206Y-33680203D01*
G37*
D13*
X66049239Y-32368522D03*
D10*
G36*
X83977823Y-51135759D02*
X83563712Y-52681240D01*
X82018231Y-52267129D01*
X82432342Y-50721648D01*
X83977823Y-51135759D01*
X83977823Y-51135759D01*
G37*
G36*
X87020489Y-51951039D02*
X86606378Y-53496520D01*
X85060897Y-53082409D01*
X85475008Y-51536928D01*
X87020489Y-51951039D01*
X87020489Y-51951039D01*
G37*
G36*
X89511216Y-52411371D02*
X88993578Y-54343223D01*
X87061726Y-53825585D01*
X87579364Y-51893733D01*
X89511216Y-52411371D01*
X89511216Y-52411371D01*
G37*
D13*
X80752249Y-51099690D03*
D10*
G36*
X64344310Y-50805478D02*
X63930199Y-52350959D01*
X62384718Y-51936848D01*
X62798829Y-50391367D01*
X64344310Y-50805478D01*
X64344310Y-50805478D01*
G37*
G36*
X67386976Y-51620758D02*
X66972865Y-53166239D01*
X65427384Y-52752128D01*
X65841495Y-51206647D01*
X67386976Y-51620758D01*
X67386976Y-51620758D01*
G37*
G36*
X69877703Y-52081090D02*
X69360065Y-54012942D01*
X67428213Y-53495304D01*
X67945851Y-51563452D01*
X69877703Y-52081090D01*
X69877703Y-52081090D01*
G37*
D13*
X61118736Y-50769409D03*
D10*
G36*
X59413807Y-69206365D02*
X58999696Y-70751846D01*
X57454215Y-70337735D01*
X57868326Y-68792254D01*
X59413807Y-69206365D01*
X59413807Y-69206365D01*
G37*
G36*
X62456473Y-70021645D02*
X62042362Y-71567126D01*
X60496881Y-71153015D01*
X60910992Y-69607534D01*
X62456473Y-70021645D01*
X62456473Y-70021645D01*
G37*
G36*
X64947200Y-70481977D02*
X64429562Y-72413829D01*
X62497710Y-71896191D01*
X63015348Y-69964339D01*
X64947200Y-70481977D01*
X64947200Y-70481977D01*
G37*
D13*
X56188233Y-69170296D03*
D10*
G36*
X54483305Y-87607252D02*
X54069194Y-89152733D01*
X52523713Y-88738622D01*
X52937824Y-87193141D01*
X54483305Y-87607252D01*
X54483305Y-87607252D01*
G37*
G36*
X57525971Y-88422532D02*
X57111860Y-89968013D01*
X55566379Y-89553902D01*
X55980490Y-88008421D01*
X57525971Y-88422532D01*
X57525971Y-88422532D01*
G37*
G36*
X60016698Y-88882864D02*
X59499060Y-90814716D01*
X57567208Y-90297078D01*
X58084846Y-88365226D01*
X60016698Y-88882864D01*
X60016698Y-88882864D01*
G37*
D13*
X51257731Y-87571183D03*
D10*
G36*
X34849792Y-87276971D02*
X34435681Y-88822452D01*
X32890200Y-88408341D01*
X33304311Y-86862860D01*
X34849792Y-87276971D01*
X34849792Y-87276971D01*
G37*
G36*
X37892458Y-88092251D02*
X37478347Y-89637732D01*
X35932866Y-89223621D01*
X36346977Y-87678140D01*
X37892458Y-88092251D01*
X37892458Y-88092251D01*
G37*
G36*
X40383185Y-88552583D02*
X39865547Y-90484435D01*
X37933695Y-89966797D01*
X38451333Y-88034945D01*
X40383185Y-88552583D01*
X40383185Y-88552583D01*
G37*
D13*
X31624218Y-87240902D03*
D10*
G36*
X128175351Y-33395434D02*
X127761240Y-34940915D01*
X126215759Y-34526804D01*
X126629870Y-32981323D01*
X128175351Y-33395434D01*
X128175351Y-33395434D01*
G37*
G36*
X131218017Y-34210714D02*
X130803906Y-35756195D01*
X129258425Y-35342084D01*
X129672536Y-33796603D01*
X131218017Y-34210714D01*
X131218017Y-34210714D01*
G37*
G36*
X133708744Y-34671046D02*
X133191106Y-36602898D01*
X131259254Y-36085260D01*
X131776892Y-34153408D01*
X133708744Y-34671046D01*
X133708744Y-34671046D01*
G37*
D13*
X124949777Y-33359365D03*
D10*
G36*
X111007090Y-23864710D02*
X110592979Y-25410191D01*
X109047498Y-24996080D01*
X109461609Y-23450599D01*
X111007090Y-23864710D01*
X111007090Y-23864710D01*
G37*
G36*
X114049756Y-24679990D02*
X113635645Y-26225471D01*
X112090164Y-25811360D01*
X112504275Y-24265879D01*
X114049756Y-24679990D01*
X114049756Y-24679990D01*
G37*
G36*
X116540483Y-25140322D02*
X116022845Y-27072174D01*
X114090993Y-26554536D01*
X114608631Y-24622684D01*
X116540483Y-25140322D01*
X116540483Y-25140322D01*
G37*
D13*
X107781516Y-23828641D03*
D10*
G36*
X106076587Y-42265597D02*
X105662476Y-43811078D01*
X104116995Y-43396967D01*
X104531106Y-41851486D01*
X106076587Y-42265597D01*
X106076587Y-42265597D01*
G37*
G36*
X109119253Y-43080877D02*
X108705142Y-44626358D01*
X107159661Y-44212247D01*
X107573772Y-42666766D01*
X109119253Y-43080877D01*
X109119253Y-43080877D01*
G37*
G36*
X111609980Y-43541209D02*
X111092342Y-45473061D01*
X109160490Y-44955423D01*
X109678128Y-43023571D01*
X111609980Y-43541209D01*
X111609980Y-43541209D01*
G37*
D13*
X102851013Y-42229528D03*
D10*
G36*
X123244848Y-51796321D02*
X122830737Y-53341802D01*
X121285256Y-52927691D01*
X121699367Y-51382210D01*
X123244848Y-51796321D01*
X123244848Y-51796321D01*
G37*
G36*
X126287514Y-52611601D02*
X125873403Y-54157082D01*
X124327922Y-53742971D01*
X124742033Y-52197490D01*
X126287514Y-52611601D01*
X126287514Y-52611601D01*
G37*
G36*
X128778241Y-53071933D02*
X128260603Y-55003785D01*
X126328751Y-54486147D01*
X126846389Y-52554295D01*
X128778241Y-53071933D01*
X128778241Y-53071933D01*
G37*
D13*
X120019274Y-51760252D03*
D10*
G36*
X101146084Y-60666484D02*
X100731973Y-62211965D01*
X99186492Y-61797854D01*
X99600603Y-60252373D01*
X101146084Y-60666484D01*
X101146084Y-60666484D01*
G37*
G36*
X104188750Y-61481764D02*
X103774639Y-63027245D01*
X102229158Y-62613134D01*
X102643269Y-61067653D01*
X104188750Y-61481764D01*
X104188750Y-61481764D01*
G37*
G36*
X106679477Y-61942096D02*
X106161839Y-63873948D01*
X104229987Y-63356310D01*
X104747625Y-61424458D01*
X106679477Y-61942096D01*
X106679477Y-61942096D01*
G37*
D13*
X97920510Y-60630415D03*
D10*
G36*
X79047320Y-69536646D02*
X78633209Y-71082127D01*
X77087728Y-70668016D01*
X77501839Y-69122535D01*
X79047320Y-69536646D01*
X79047320Y-69536646D01*
G37*
G36*
X82089986Y-70351926D02*
X81675875Y-71897407D01*
X80130394Y-71483296D01*
X80544505Y-69937815D01*
X82089986Y-70351926D01*
X82089986Y-70351926D01*
G37*
G36*
X84580713Y-70812258D02*
X84063075Y-72744110D01*
X82131223Y-72226472D01*
X82648861Y-70294620D01*
X84580713Y-70812258D01*
X84580713Y-70812258D01*
G37*
D13*
X75821746Y-69500577D03*
D10*
G36*
X96215581Y-79067371D02*
X95801470Y-80612852D01*
X94255989Y-80198741D01*
X94670100Y-78653260D01*
X96215581Y-79067371D01*
X96215581Y-79067371D01*
G37*
G36*
X99258247Y-79882651D02*
X98844136Y-81428132D01*
X97298655Y-81014021D01*
X97712766Y-79468540D01*
X99258247Y-79882651D01*
X99258247Y-79882651D01*
G37*
G36*
X101748974Y-80342983D02*
X101231336Y-82274835D01*
X99299484Y-81757197D01*
X99817122Y-79825345D01*
X101748974Y-80342983D01*
X101748974Y-80342983D01*
G37*
D13*
X92990007Y-79031302D03*
D10*
G36*
X74116817Y-87937533D02*
X73702706Y-89483014D01*
X72157225Y-89068903D01*
X72571336Y-87523422D01*
X74116817Y-87937533D01*
X74116817Y-87937533D01*
G37*
G36*
X77159483Y-88752813D02*
X76745372Y-90298294D01*
X75199891Y-89884183D01*
X75614002Y-88338702D01*
X77159483Y-88752813D01*
X77159483Y-88752813D01*
G37*
G36*
X79650210Y-89213145D02*
X79132572Y-91144997D01*
X77200720Y-90627359D01*
X77718358Y-88695507D01*
X79650210Y-89213145D01*
X79650210Y-89213145D01*
G37*
D13*
X70891243Y-87901464D03*
D10*
G36*
X91285079Y-97468258D02*
X90870968Y-99013739D01*
X89325487Y-98599628D01*
X89739598Y-97054147D01*
X91285079Y-97468258D01*
X91285079Y-97468258D01*
G37*
G36*
X94327745Y-98283538D02*
X93913634Y-99829019D01*
X92368153Y-99414908D01*
X92782264Y-97869427D01*
X94327745Y-98283538D01*
X94327745Y-98283538D01*
G37*
G36*
X96818472Y-98743870D02*
X96300834Y-100675722D01*
X94368982Y-100158084D01*
X94886620Y-98226232D01*
X96818472Y-98743870D01*
X96818472Y-98743870D01*
G37*
D13*
X88059505Y-97432189D03*
D10*
G36*
X140413110Y-61327046D02*
X139998999Y-62872527D01*
X138453518Y-62458416D01*
X138867629Y-60912935D01*
X140413110Y-61327046D01*
X140413110Y-61327046D01*
G37*
G36*
X143455776Y-62142326D02*
X143041665Y-63687807D01*
X141496184Y-63273696D01*
X141910295Y-61728215D01*
X143455776Y-62142326D01*
X143455776Y-62142326D01*
G37*
G36*
X145946503Y-62602658D02*
X145428865Y-64534510D01*
X143497013Y-64016872D01*
X144014651Y-62085020D01*
X145946503Y-62602658D01*
X145946503Y-62602658D01*
G37*
D13*
X137187536Y-61290977D03*
D10*
G36*
X118314346Y-70197208D02*
X117900235Y-71742689D01*
X116354754Y-71328578D01*
X116768865Y-69783097D01*
X118314346Y-70197208D01*
X118314346Y-70197208D01*
G37*
G36*
X121357012Y-71012488D02*
X120942901Y-72557969D01*
X119397420Y-72143858D01*
X119811531Y-70598377D01*
X121357012Y-71012488D01*
X121357012Y-71012488D01*
G37*
G36*
X123847739Y-71472820D02*
X123330101Y-73404672D01*
X121398249Y-72887034D01*
X121915887Y-70955182D01*
X123847739Y-71472820D01*
X123847739Y-71472820D01*
G37*
D13*
X115088772Y-70161139D03*
D10*
G36*
X135482607Y-79727933D02*
X135068496Y-81273414D01*
X133523015Y-80859303D01*
X133937126Y-79313822D01*
X135482607Y-79727933D01*
X135482607Y-79727933D01*
G37*
G36*
X138525273Y-80543213D02*
X138111162Y-82088694D01*
X136565681Y-81674583D01*
X136979792Y-80129102D01*
X138525273Y-80543213D01*
X138525273Y-80543213D01*
G37*
G36*
X141016000Y-81003545D02*
X140498362Y-82935397D01*
X138566510Y-82417759D01*
X139084148Y-80485907D01*
X141016000Y-81003545D01*
X141016000Y-81003545D01*
G37*
D13*
X132257033Y-79691864D03*
D10*
G36*
X113383843Y-88598095D02*
X112969732Y-90143576D01*
X111424251Y-89729465D01*
X111838362Y-88183984D01*
X113383843Y-88598095D01*
X113383843Y-88598095D01*
G37*
G36*
X116426509Y-89413375D02*
X116012398Y-90958856D01*
X114466917Y-90544745D01*
X114881028Y-88999264D01*
X116426509Y-89413375D01*
X116426509Y-89413375D01*
G37*
G36*
X118917236Y-89873707D02*
X118399598Y-91805559D01*
X116467746Y-91287921D01*
X116985384Y-89356069D01*
X118917236Y-89873707D01*
X118917236Y-89873707D01*
G37*
D13*
X110158269Y-88562026D03*
D10*
G36*
X108453340Y-106998982D02*
X108039229Y-108544463D01*
X106493748Y-108130352D01*
X106907859Y-106584871D01*
X108453340Y-106998982D01*
X108453340Y-106998982D01*
G37*
G36*
X111496006Y-107814262D02*
X111081895Y-109359743D01*
X109536414Y-108945632D01*
X109950525Y-107400151D01*
X111496006Y-107814262D01*
X111496006Y-107814262D01*
G37*
G36*
X113986733Y-108274594D02*
X113469095Y-110206446D01*
X111537243Y-109688808D01*
X112054881Y-107756956D01*
X113986733Y-108274594D01*
X113986733Y-108274594D01*
G37*
D13*
X105227766Y-106962913D03*
D10*
G36*
X136562620Y-118864164D02*
X135017139Y-118450053D01*
X135431250Y-116904572D01*
X136976731Y-117318683D01*
X136562620Y-118864164D01*
X136562620Y-118864164D01*
G37*
G36*
X135747340Y-121906830D02*
X134201859Y-121492719D01*
X134615970Y-119947238D01*
X136161451Y-120361349D01*
X135747340Y-121906830D01*
X135747340Y-121906830D01*
G37*
G36*
X135287008Y-124397557D02*
X133355156Y-123879919D01*
X133872794Y-121948067D01*
X135804646Y-122465705D01*
X135287008Y-124397557D01*
X135287008Y-124397557D01*
G37*
D13*
X136598689Y-115638590D03*
D10*
G36*
X164813814Y-62894108D02*
X164399703Y-61348627D01*
X165945184Y-60934516D01*
X166359295Y-62479997D01*
X164813814Y-62894108D01*
X164813814Y-62894108D01*
G37*
G36*
X161771148Y-63709388D02*
X161357037Y-62163907D01*
X162902518Y-61749796D01*
X163316629Y-63295277D01*
X161771148Y-63709388D01*
X161771148Y-63709388D01*
G37*
G36*
X159383948Y-64556091D02*
X158866310Y-62624239D01*
X160798162Y-62106601D01*
X161315800Y-64038453D01*
X159383948Y-64556091D01*
X159383948Y-64556091D01*
G37*
D13*
X167625277Y-61312558D03*
D10*
G36*
X186912579Y-71764271D02*
X186498468Y-70218790D01*
X188043949Y-69804679D01*
X188458060Y-71350160D01*
X186912579Y-71764271D01*
X186912579Y-71764271D01*
G37*
G36*
X183869913Y-72579551D02*
X183455802Y-71034070D01*
X185001283Y-70619959D01*
X185415394Y-72165440D01*
X183869913Y-72579551D01*
X183869913Y-72579551D01*
G37*
G36*
X181482713Y-73426254D02*
X180965075Y-71494402D01*
X182896927Y-70976764D01*
X183414565Y-72908616D01*
X181482713Y-73426254D01*
X181482713Y-73426254D01*
G37*
D13*
X189724042Y-70182721D03*
D10*
G36*
X169744317Y-81294995D02*
X169330206Y-79749514D01*
X170875687Y-79335403D01*
X171289798Y-80880884D01*
X169744317Y-81294995D01*
X169744317Y-81294995D01*
G37*
G36*
X166701651Y-82110275D02*
X166287540Y-80564794D01*
X167833021Y-80150683D01*
X168247132Y-81696164D01*
X166701651Y-82110275D01*
X166701651Y-82110275D01*
G37*
G36*
X164314451Y-82956978D02*
X163796813Y-81025126D01*
X165728665Y-80507488D01*
X166246303Y-82439340D01*
X164314451Y-82956978D01*
X164314451Y-82956978D01*
G37*
D13*
X172555780Y-79713445D03*
D10*
G36*
X191843081Y-90165158D02*
X191428970Y-88619677D01*
X192974451Y-88205566D01*
X193388562Y-89751047D01*
X191843081Y-90165158D01*
X191843081Y-90165158D01*
G37*
G36*
X188800415Y-90980438D02*
X188386304Y-89434957D01*
X189931785Y-89020846D01*
X190345896Y-90566327D01*
X188800415Y-90980438D01*
X188800415Y-90980438D01*
G37*
G36*
X186413215Y-91827141D02*
X185895577Y-89895289D01*
X187827429Y-89377651D01*
X188345067Y-91309503D01*
X186413215Y-91827141D01*
X186413215Y-91827141D01*
G37*
D13*
X194654544Y-88583608D03*
D10*
G36*
X196773584Y-108566045D02*
X196359473Y-107020564D01*
X197904954Y-106606453D01*
X198319065Y-108151934D01*
X196773584Y-108566045D01*
X196773584Y-108566045D01*
G37*
G36*
X193730918Y-109381325D02*
X193316807Y-107835844D01*
X194862288Y-107421733D01*
X195276399Y-108967214D01*
X193730918Y-109381325D01*
X193730918Y-109381325D01*
G37*
G36*
X191343718Y-110228028D02*
X190826080Y-108296176D01*
X192757932Y-107778538D01*
X193275570Y-109710390D01*
X191343718Y-110228028D01*
X191343718Y-110228028D01*
G37*
D13*
X199585047Y-106984495D03*
D10*
G36*
X169814592Y-118352896D02*
X168269111Y-118767007D01*
X167855000Y-117221526D01*
X169400481Y-116807415D01*
X169814592Y-118352896D01*
X169814592Y-118352896D01*
G37*
G36*
X170629872Y-121395562D02*
X169084391Y-121809673D01*
X168670280Y-120264192D01*
X170215761Y-119850081D01*
X170629872Y-121395562D01*
X170629872Y-121395562D01*
G37*
G36*
X171476575Y-123782762D02*
X169544723Y-124300400D01*
X169027085Y-122368548D01*
X170958937Y-121850910D01*
X171476575Y-123782762D01*
X171476575Y-123782762D01*
G37*
D13*
X168233042Y-115541433D03*
D10*
G36*
X177051573Y-34962497D02*
X176637462Y-33417016D01*
X178182943Y-33002905D01*
X178597054Y-34548386D01*
X177051573Y-34962497D01*
X177051573Y-34962497D01*
G37*
G36*
X174008907Y-35777777D02*
X173594796Y-34232296D01*
X175140277Y-33818185D01*
X175554388Y-35363666D01*
X174008907Y-35777777D01*
X174008907Y-35777777D01*
G37*
G36*
X171621707Y-36624480D02*
X171104069Y-34692628D01*
X173035921Y-34174990D01*
X173553559Y-36106842D01*
X171621707Y-36624480D01*
X171621707Y-36624480D01*
G37*
D13*
X179863036Y-33380947D03*
D10*
G36*
X194219834Y-25431772D02*
X193805723Y-23886291D01*
X195351204Y-23472180D01*
X195765315Y-25017661D01*
X194219834Y-25431772D01*
X194219834Y-25431772D01*
G37*
G36*
X191177168Y-26247052D02*
X190763057Y-24701571D01*
X192308538Y-24287460D01*
X192722649Y-25832941D01*
X191177168Y-26247052D01*
X191177168Y-26247052D01*
G37*
G36*
X188789968Y-27093755D02*
X188272330Y-25161903D01*
X190204182Y-24644265D01*
X190721820Y-26576117D01*
X188789968Y-27093755D01*
X188789968Y-27093755D01*
G37*
D13*
X197031297Y-23850222D03*
D10*
G36*
X199150337Y-43832659D02*
X198736226Y-42287178D01*
X200281707Y-41873067D01*
X200695818Y-43418548D01*
X199150337Y-43832659D01*
X199150337Y-43832659D01*
G37*
G36*
X196107671Y-44647939D02*
X195693560Y-43102458D01*
X197239041Y-42688347D01*
X197653152Y-44233828D01*
X196107671Y-44647939D01*
X196107671Y-44647939D01*
G37*
G36*
X193720471Y-45494642D02*
X193202833Y-43562790D01*
X195134685Y-43045152D01*
X195652323Y-44977004D01*
X193720471Y-45494642D01*
X193720471Y-45494642D01*
G37*
D13*
X201961800Y-42251109D03*
D10*
G36*
X181982076Y-53363384D02*
X181567965Y-51817903D01*
X183113446Y-51403792D01*
X183527557Y-52949273D01*
X181982076Y-53363384D01*
X181982076Y-53363384D01*
G37*
G36*
X178939410Y-54178664D02*
X178525299Y-52633183D01*
X180070780Y-52219072D01*
X180484891Y-53764553D01*
X178939410Y-54178664D01*
X178939410Y-54178664D01*
G37*
G36*
X176552210Y-55025367D02*
X176034572Y-53093515D01*
X177966424Y-52575877D01*
X178484062Y-54507729D01*
X176552210Y-55025367D01*
X176552210Y-55025367D01*
G37*
D13*
X184793539Y-51781834D03*
D10*
G36*
X204080840Y-62233546D02*
X203666729Y-60688065D01*
X205212210Y-60273954D01*
X205626321Y-61819435D01*
X204080840Y-62233546D01*
X204080840Y-62233546D01*
G37*
G36*
X201038174Y-63048826D02*
X200624063Y-61503345D01*
X202169544Y-61089234D01*
X202583655Y-62634715D01*
X201038174Y-63048826D01*
X201038174Y-63048826D01*
G37*
G36*
X198650974Y-63895529D02*
X198133336Y-61963677D01*
X200065188Y-61446039D01*
X200582826Y-63377891D01*
X198650974Y-63895529D01*
X198650974Y-63895529D01*
G37*
D13*
X206892303Y-60651996D03*
D10*
G36*
X226179604Y-71103709D02*
X225765493Y-69558228D01*
X227310974Y-69144117D01*
X227725085Y-70689598D01*
X226179604Y-71103709D01*
X226179604Y-71103709D01*
G37*
G36*
X223136938Y-71918989D02*
X222722827Y-70373508D01*
X224268308Y-69959397D01*
X224682419Y-71504878D01*
X223136938Y-71918989D01*
X223136938Y-71918989D01*
G37*
G36*
X220749738Y-72765692D02*
X220232100Y-70833840D01*
X222163952Y-70316202D01*
X222681590Y-72248054D01*
X220749738Y-72765692D01*
X220749738Y-72765692D01*
G37*
D13*
X228991067Y-69522159D03*
D10*
G36*
X209011343Y-80634433D02*
X208597232Y-79088952D01*
X210142713Y-78674841D01*
X210556824Y-80220322D01*
X209011343Y-80634433D01*
X209011343Y-80634433D01*
G37*
G36*
X205968677Y-81449713D02*
X205554566Y-79904232D01*
X207100047Y-79490121D01*
X207514158Y-81035602D01*
X205968677Y-81449713D01*
X205968677Y-81449713D01*
G37*
G36*
X203581477Y-82296416D02*
X203063839Y-80364564D01*
X204995691Y-79846926D01*
X205513329Y-81778778D01*
X203581477Y-82296416D01*
X203581477Y-82296416D01*
G37*
D13*
X211822806Y-79052883D03*
D10*
G36*
X231110107Y-89504596D02*
X230695996Y-87959115D01*
X232241477Y-87545004D01*
X232655588Y-89090485D01*
X231110107Y-89504596D01*
X231110107Y-89504596D01*
G37*
G36*
X228067441Y-90319876D02*
X227653330Y-88774395D01*
X229198811Y-88360284D01*
X229612922Y-89905765D01*
X228067441Y-90319876D01*
X228067441Y-90319876D01*
G37*
G36*
X225680241Y-91166579D02*
X225162603Y-89234727D01*
X227094455Y-88717089D01*
X227612093Y-90648941D01*
X225680241Y-91166579D01*
X225680241Y-91166579D01*
G37*
D13*
X233921570Y-87923046D03*
D10*
G36*
X213941845Y-99035320D02*
X213527734Y-97489839D01*
X215073215Y-97075728D01*
X215487326Y-98621209D01*
X213941845Y-99035320D01*
X213941845Y-99035320D01*
G37*
G36*
X210899179Y-99850600D02*
X210485068Y-98305119D01*
X212030549Y-97891008D01*
X212444660Y-99436489D01*
X210899179Y-99850600D01*
X210899179Y-99850600D01*
G37*
G36*
X208511979Y-100697303D02*
X207994341Y-98765451D01*
X209926193Y-98247813D01*
X210443831Y-100179665D01*
X208511979Y-100697303D01*
X208511979Y-100697303D01*
G37*
D13*
X216753308Y-97453770D03*
D10*
G36*
X231021608Y-15570767D02*
X230607497Y-14025286D01*
X232152978Y-13611175D01*
X232567089Y-15156656D01*
X231021608Y-15570767D01*
X231021608Y-15570767D01*
G37*
G36*
X227978942Y-16386047D02*
X227564831Y-14840566D01*
X229110312Y-14426455D01*
X229524423Y-15971936D01*
X227978942Y-16386047D01*
X227978942Y-16386047D01*
G37*
G36*
X225591742Y-17232750D02*
X225074104Y-15300898D01*
X227005956Y-14783260D01*
X227523594Y-16715112D01*
X225591742Y-17232750D01*
X225591742Y-17232750D01*
G37*
D13*
X233833071Y-13989217D03*
D10*
G36*
X211388096Y-15901048D02*
X210973985Y-14355567D01*
X212519466Y-13941456D01*
X212933577Y-15486937D01*
X211388096Y-15901048D01*
X211388096Y-15901048D01*
G37*
G36*
X208345430Y-16716328D02*
X207931319Y-15170847D01*
X209476800Y-14756736D01*
X209890911Y-16302217D01*
X208345430Y-16716328D01*
X208345430Y-16716328D01*
G37*
G36*
X205958230Y-17563031D02*
X205440592Y-15631179D01*
X207372444Y-15113541D01*
X207890082Y-17045393D01*
X205958230Y-17563031D01*
X205958230Y-17563031D01*
G37*
D13*
X214199559Y-14319498D03*
D10*
G36*
X216318598Y-34301935D02*
X215904487Y-32756454D01*
X217449968Y-32342343D01*
X217864079Y-33887824D01*
X216318598Y-34301935D01*
X216318598Y-34301935D01*
G37*
G36*
X213275932Y-35117215D02*
X212861821Y-33571734D01*
X214407302Y-33157623D01*
X214821413Y-34703104D01*
X213275932Y-35117215D01*
X213275932Y-35117215D01*
G37*
G36*
X210888732Y-35963918D02*
X210371094Y-34032066D01*
X212302946Y-33514428D01*
X212820584Y-35446280D01*
X210888732Y-35963918D01*
X210888732Y-35963918D01*
G37*
D13*
X219130061Y-32720385D03*
D10*
G36*
X235952111Y-33971654D02*
X235538000Y-32426173D01*
X237083481Y-32012062D01*
X237497592Y-33557543D01*
X235952111Y-33971654D01*
X235952111Y-33971654D01*
G37*
G36*
X232909445Y-34786934D02*
X232495334Y-33241453D01*
X234040815Y-32827342D01*
X234454926Y-34372823D01*
X232909445Y-34786934D01*
X232909445Y-34786934D01*
G37*
G36*
X230522245Y-35633637D02*
X230004607Y-33701785D01*
X231936459Y-33184147D01*
X232454097Y-35115999D01*
X230522245Y-35633637D01*
X230522245Y-35633637D01*
G37*
D13*
X238763574Y-32390104D03*
D10*
G36*
X221249101Y-52702822D02*
X220834990Y-51157341D01*
X222380471Y-50743230D01*
X222794582Y-52288711D01*
X221249101Y-52702822D01*
X221249101Y-52702822D01*
G37*
G36*
X218206435Y-53518102D02*
X217792324Y-51972621D01*
X219337805Y-51558510D01*
X219751916Y-53103991D01*
X218206435Y-53518102D01*
X218206435Y-53518102D01*
G37*
G36*
X215819235Y-54364805D02*
X215301597Y-52432953D01*
X217233449Y-51915315D01*
X217751087Y-53847167D01*
X215819235Y-54364805D01*
X215819235Y-54364805D01*
G37*
D13*
X224060564Y-51121272D03*
D10*
G36*
X240882614Y-52372541D02*
X240468503Y-50827060D01*
X242013984Y-50412949D01*
X242428095Y-51958430D01*
X240882614Y-52372541D01*
X240882614Y-52372541D01*
G37*
G36*
X237839948Y-53187821D02*
X237425837Y-51642340D01*
X238971318Y-51228229D01*
X239385429Y-52773710D01*
X237839948Y-53187821D01*
X237839948Y-53187821D01*
G37*
G36*
X235452748Y-54034524D02*
X234935110Y-52102672D01*
X236866962Y-51585034D01*
X237384600Y-53516886D01*
X235452748Y-54034524D01*
X235452748Y-54034524D01*
G37*
D13*
X243694077Y-50790991D03*
D10*
G36*
X245813117Y-70773428D02*
X245399006Y-69227947D01*
X246944487Y-68813836D01*
X247358598Y-70359317D01*
X245813117Y-70773428D01*
X245813117Y-70773428D01*
G37*
G36*
X242770451Y-71588708D02*
X242356340Y-70043227D01*
X243901821Y-69629116D01*
X244315932Y-71174597D01*
X242770451Y-71588708D01*
X242770451Y-71588708D01*
G37*
G36*
X240383251Y-72435411D02*
X239865613Y-70503559D01*
X241797465Y-69985921D01*
X242315103Y-71917773D01*
X240383251Y-72435411D01*
X240383251Y-72435411D01*
G37*
D13*
X248624580Y-69191878D03*
D10*
G36*
X250743619Y-89174315D02*
X250329508Y-87628834D01*
X251874989Y-87214723D01*
X252289100Y-88760204D01*
X250743619Y-89174315D01*
X250743619Y-89174315D01*
G37*
G36*
X247700953Y-89989595D02*
X247286842Y-88444114D01*
X248832323Y-88030003D01*
X249246434Y-89575484D01*
X247700953Y-89989595D01*
X247700953Y-89989595D01*
G37*
G36*
X245313753Y-90836298D02*
X244796115Y-88904446D01*
X246727967Y-88386808D01*
X247245605Y-90318660D01*
X245313753Y-90836298D01*
X245313753Y-90836298D01*
G37*
D13*
X253555082Y-87592765D03*
D10*
G36*
X270377132Y-88844034D02*
X269963021Y-87298553D01*
X271508502Y-86884442D01*
X271922613Y-88429923D01*
X270377132Y-88844034D01*
X270377132Y-88844034D01*
G37*
G36*
X267334466Y-89659314D02*
X266920355Y-88113833D01*
X268465836Y-87699722D01*
X268879947Y-89245203D01*
X267334466Y-89659314D01*
X267334466Y-89659314D01*
G37*
G36*
X264947266Y-90506017D02*
X264429628Y-88574165D01*
X266361480Y-88056527D01*
X266879118Y-89988379D01*
X264947266Y-90506017D01*
X264947266Y-90506017D01*
G37*
D13*
X273188595Y-87262484D03*
D10*
G36*
X250655121Y-15240486D02*
X250241010Y-13695005D01*
X251786491Y-13280894D01*
X252200602Y-14826375D01*
X250655121Y-15240486D01*
X250655121Y-15240486D01*
G37*
G36*
X247612455Y-16055766D02*
X247198344Y-14510285D01*
X248743825Y-14096174D01*
X249157936Y-15641655D01*
X247612455Y-16055766D01*
X247612455Y-16055766D01*
G37*
G36*
X245225255Y-16902469D02*
X244707617Y-14970617D01*
X246639469Y-14452979D01*
X247157107Y-16384831D01*
X245225255Y-16902469D01*
X245225255Y-16902469D01*
G37*
D13*
X253466584Y-13658936D03*
D10*
G36*
X278256451Y-7844731D02*
X277842340Y-6299250D01*
X279387821Y-5885139D01*
X279801932Y-7430620D01*
X278256451Y-7844731D01*
X278256451Y-7844731D01*
G37*
G36*
X275213785Y-8660011D02*
X274799674Y-7114530D01*
X276345155Y-6700419D01*
X276759266Y-8245900D01*
X275213785Y-8660011D01*
X275213785Y-8660011D01*
G37*
G36*
X272826585Y-9506714D02*
X272308947Y-7574862D01*
X274240799Y-7057224D01*
X274758437Y-8989076D01*
X272826585Y-9506714D01*
X272826585Y-9506714D01*
G37*
D13*
X281067914Y-6263181D03*
D10*
G36*
X278586732Y-27478244D02*
X278172621Y-25932763D01*
X279718102Y-25518652D01*
X280132213Y-27064133D01*
X278586732Y-27478244D01*
X278586732Y-27478244D01*
G37*
G36*
X275544066Y-28293524D02*
X275129955Y-26748043D01*
X276675436Y-26333932D01*
X277089547Y-27879413D01*
X275544066Y-28293524D01*
X275544066Y-28293524D01*
G37*
G36*
X273156866Y-29140227D02*
X272639228Y-27208375D01*
X274571080Y-26690737D01*
X275088718Y-28622589D01*
X273156866Y-29140227D01*
X273156866Y-29140227D01*
G37*
D13*
X281398195Y-25896694D03*
D10*
G36*
X255585624Y-33641373D02*
X255171513Y-32095892D01*
X256716994Y-31681781D01*
X257131105Y-33227262D01*
X255585624Y-33641373D01*
X255585624Y-33641373D01*
G37*
G36*
X252542958Y-34456653D02*
X252128847Y-32911172D01*
X253674328Y-32497061D01*
X254088439Y-34042542D01*
X252542958Y-34456653D01*
X252542958Y-34456653D01*
G37*
G36*
X250155758Y-35303356D02*
X249638120Y-33371504D01*
X251569972Y-32853866D01*
X252087610Y-34785718D01*
X250155758Y-35303356D01*
X250155758Y-35303356D01*
G37*
D13*
X258397087Y-32059823D03*
D10*
G36*
X290417568Y-44030193D02*
X290003457Y-42484712D01*
X291548938Y-42070601D01*
X291963049Y-43616082D01*
X290417568Y-44030193D01*
X290417568Y-44030193D01*
G37*
G36*
X287374902Y-44845473D02*
X286960791Y-43299992D01*
X288506272Y-42885881D01*
X288920383Y-44431362D01*
X287374902Y-44845473D01*
X287374902Y-44845473D01*
G37*
G36*
X284987702Y-45692176D02*
X284470064Y-43760324D01*
X286401916Y-43242686D01*
X286919554Y-45174538D01*
X284987702Y-45692176D01*
X284987702Y-45692176D01*
G37*
D13*
X293229031Y-42448643D03*
D10*
G36*
X260516127Y-52042260D02*
X260102016Y-50496779D01*
X261647497Y-50082668D01*
X262061608Y-51628149D01*
X260516127Y-52042260D01*
X260516127Y-52042260D01*
G37*
G36*
X257473461Y-52857540D02*
X257059350Y-51312059D01*
X258604831Y-50897948D01*
X259018942Y-52443429D01*
X257473461Y-52857540D01*
X257473461Y-52857540D01*
G37*
G36*
X255086261Y-53704243D02*
X254568623Y-51772391D01*
X256500475Y-51254753D01*
X257018113Y-53186605D01*
X255086261Y-53704243D01*
X255086261Y-53704243D01*
G37*
D13*
X263327590Y-50460710D03*
D10*
G36*
X265446629Y-70443147D02*
X265032518Y-68897666D01*
X266577999Y-68483555D01*
X266992110Y-70029036D01*
X265446629Y-70443147D01*
X265446629Y-70443147D01*
G37*
G36*
X262403963Y-71258427D02*
X261989852Y-69712946D01*
X263535333Y-69298835D01*
X263949444Y-70844316D01*
X262403963Y-71258427D01*
X262403963Y-71258427D01*
G37*
G36*
X260016763Y-72105130D02*
X259499125Y-70173278D01*
X261430977Y-69655640D01*
X261948615Y-71587492D01*
X260016763Y-72105130D01*
X260016763Y-72105130D01*
G37*
D13*
X268258092Y-68861597D03*
D10*
G36*
X290747849Y-63663705D02*
X290333738Y-62118224D01*
X291879219Y-61704113D01*
X292293330Y-63249594D01*
X290747849Y-63663705D01*
X290747849Y-63663705D01*
G37*
G36*
X287705183Y-64478985D02*
X287291072Y-62933504D01*
X288836553Y-62519393D01*
X289250664Y-64064874D01*
X287705183Y-64478985D01*
X287705183Y-64478985D01*
G37*
G36*
X285317983Y-65325688D02*
X284800345Y-63393836D01*
X286732197Y-62876198D01*
X287249835Y-64808050D01*
X285317983Y-65325688D01*
X285317983Y-65325688D01*
G37*
D13*
X293559312Y-62082155D03*
D10*
G36*
X316049069Y-56884264D02*
X315634958Y-55338783D01*
X317180439Y-54924672D01*
X317594550Y-56470153D01*
X316049069Y-56884264D01*
X316049069Y-56884264D01*
G37*
G36*
X313006403Y-57699544D02*
X312592292Y-56154063D01*
X314137773Y-55739952D01*
X314551884Y-57285433D01*
X313006403Y-57699544D01*
X313006403Y-57699544D01*
G37*
G36*
X310619203Y-58546247D02*
X310101565Y-56614395D01*
X312033417Y-56096757D01*
X312551055Y-58028609D01*
X310619203Y-58546247D01*
X310619203Y-58546247D01*
G37*
D13*
X318860532Y-55302714D03*
D14*
X19687856Y-90058484D03*
X285121582Y-90002555D03*
X91125356Y-123395984D03*
X213684082Y-123340054D03*
X7781605Y-28145984D03*
X297027833Y-28090054D03*
D15*
X135731250Y-26193750D03*
X135890000Y-19685000D03*
X168910000Y-26670000D03*
D12*
X248025327Y-20100132D02*
X247619903Y-21720172D01*
X253096490Y-17623867D02*
X253208152Y-18193017D01*
X51011728Y-18644612D02*
X49850600Y-19844896D01*
X56641615Y-19035684D02*
X56453743Y-19584414D01*
X70645240Y-18974893D02*
X69484112Y-20175177D01*
X76275127Y-19365965D02*
X76087255Y-19914695D01*
X90278751Y-19305174D02*
X89117623Y-20505458D01*
X95908638Y-19696246D02*
X95720766Y-20244976D01*
X107447015Y-28835897D02*
X106285887Y-30036181D01*
X113076902Y-29226969D02*
X112889030Y-29775699D01*
X124615276Y-38366623D02*
X123454148Y-39566907D01*
X130245163Y-38757695D02*
X130057291Y-39306425D01*
X174421779Y-39822143D02*
X174016355Y-41442183D01*
X179492942Y-37345878D02*
X179604604Y-37915028D01*
X191590038Y-30291420D02*
X191184614Y-31911460D01*
X196661201Y-27815155D02*
X196772863Y-28384305D01*
X208758302Y-20760695D02*
X208352878Y-22380735D01*
X213829465Y-18284430D02*
X213941127Y-18853580D01*
X228391813Y-20430414D02*
X227986389Y-22050454D01*
X233462976Y-17954149D02*
X233574638Y-18523299D01*
X41150720Y-55446385D02*
X39989592Y-56646669D01*
X46780607Y-55837457D02*
X46592735Y-56386187D01*
X87725004Y-102439445D02*
X86563876Y-103639729D01*
X93354891Y-102830517D02*
X93167019Y-103379247D01*
X109823766Y-93569284D02*
X108662638Y-94769568D01*
X115453653Y-93960356D02*
X115265781Y-94509086D01*
X275626657Y-12704381D02*
X275221233Y-14324421D01*
X280697820Y-10228116D02*
X280809482Y-10797266D01*
X75487244Y-74507834D02*
X74326116Y-75708118D01*
X81117131Y-74898906D02*
X80929259Y-75447636D01*
X257886333Y-56901908D02*
X257480909Y-58521948D01*
X262957496Y-54425643D02*
X263069158Y-54994793D01*
X50923228Y-92578440D02*
X49762100Y-93778724D01*
X56553115Y-92969512D02*
X56365243Y-93518242D01*
X80417746Y-56106948D02*
X79256618Y-57307232D01*
X86047633Y-56498020D02*
X85859761Y-57046750D01*
X14209954Y-8783606D02*
X13048826Y-9983890D01*
X19839841Y-9174678D02*
X19651969Y-9723408D01*
X228480311Y-94364244D02*
X228074887Y-95984284D01*
X233551474Y-91887979D02*
X233663136Y-92457129D01*
X85348249Y-37706060D02*
X84187121Y-38906344D01*
X90978136Y-38097132D02*
X90790264Y-38645862D01*
X181530201Y-112910688D02*
X179910161Y-112505264D01*
X184006466Y-117981851D02*
X183437316Y-118093513D01*
X287787773Y-48889840D02*
X287382349Y-50509880D01*
X292858936Y-46413575D02*
X292970598Y-46982725D01*
X32610840Y-13714109D02*
X31449712Y-14914393D01*
X38240727Y-14105181D02*
X38052855Y-14653911D01*
X97586009Y-65637673D02*
X96424881Y-66837957D01*
X103215896Y-66028745D02*
X103028024Y-66577475D01*
X114754268Y-75168397D02*
X113593140Y-76368681D01*
X120384155Y-75559469D02*
X120196283Y-76108199D01*
X184282785Y-76623918D02*
X183877361Y-78243958D01*
X189353948Y-74147653D02*
X189465610Y-74716803D01*
X213688804Y-39161583D02*
X213283380Y-40781623D01*
X218759967Y-36685318D02*
X218871629Y-37254468D01*
X201451045Y-67093194D02*
X201045621Y-68713234D01*
X206522208Y-64616929D02*
X206633870Y-65186079D01*
X218619305Y-57562469D02*
X218213881Y-59182509D01*
X223690468Y-55086204D02*
X223802130Y-55655354D01*
X238252819Y-57232188D02*
X237847395Y-58852228D01*
X243323982Y-54755923D02*
X243435644Y-55325073D01*
X136853033Y-66298235D02*
X135691905Y-67498519D01*
X142482920Y-66689307D02*
X142295048Y-67238037D01*
X211312051Y-103894969D02*
X210906627Y-105515009D01*
X216383214Y-101418704D02*
X216494876Y-101987854D01*
X31289716Y-92248160D02*
X30128588Y-93448444D01*
X36919603Y-92639232D02*
X36731731Y-93187962D01*
X104893265Y-111970170D02*
X103732137Y-113170454D01*
X110523152Y-112361242D02*
X110335280Y-112909972D01*
X206381547Y-85494082D02*
X205976123Y-87114122D01*
X211452710Y-83017817D02*
X211564372Y-83586967D01*
X189213288Y-95024805D02*
X188807864Y-96644845D01*
X194284451Y-92548540D02*
X194396113Y-93117690D01*
X11249280Y-47434318D02*
X10088152Y-48634602D01*
X16879167Y-47825390D02*
X16691295Y-48374120D01*
X233322316Y-38831302D02*
X232916892Y-40451342D01*
X238393479Y-36355037D02*
X238505141Y-36924187D01*
X252955829Y-38501020D02*
X252550405Y-40121060D01*
X258026992Y-36024755D02*
X258138654Y-36593905D01*
X243183323Y-75633075D02*
X242777899Y-77253115D01*
X248254486Y-73156810D02*
X248366148Y-73725960D01*
X131922531Y-84699121D02*
X130761403Y-85899405D01*
X137552418Y-85090193D02*
X137364546Y-85638923D01*
X167114522Y-86154643D02*
X166709098Y-87774683D01*
X172185685Y-83678378D02*
X172297347Y-84247528D01*
X275956939Y-32337891D02*
X275551515Y-33957931D01*
X281028102Y-29861626D02*
X281139764Y-30430776D01*
X46081225Y-37045499D02*
X44920097Y-38245783D01*
X51711112Y-37436571D02*
X51523240Y-37985301D01*
X102516511Y-47236785D02*
X101355383Y-48437069D01*
X108146398Y-47627857D02*
X107958526Y-48176587D01*
X194143788Y-113425692D02*
X193738364Y-115045732D01*
X199214951Y-110949427D02*
X199326613Y-111518577D01*
X162184020Y-67753756D02*
X161778596Y-69373796D01*
X167255183Y-65277491D02*
X167366845Y-65846641D01*
X267747336Y-93703681D02*
X267341912Y-95323721D01*
X272818499Y-91227416D02*
X272930161Y-91796566D01*
X288118054Y-68523353D02*
X287712630Y-70143393D01*
X293189217Y-66047088D02*
X293300879Y-66616238D01*
X60784234Y-55776667D02*
X59623106Y-56976951D01*
X66414121Y-56167739D02*
X66226249Y-56716469D01*
X262816833Y-75302793D02*
X262411409Y-76922833D01*
X267887996Y-72826528D02*
X267999658Y-73395678D01*
X121748853Y-118802525D02*
X122949137Y-119963653D01*
X122139925Y-113172638D02*
X122688655Y-113360510D01*
X119684773Y-56767510D02*
X118523645Y-57967794D01*
X125314660Y-57158582D02*
X125126788Y-57707312D01*
X23080117Y-30882369D02*
X21918989Y-32082653D01*
X28710004Y-31273441D02*
X28522132Y-31822171D01*
X196520542Y-48692307D02*
X196115118Y-50312347D01*
X201591705Y-46216042D02*
X201703367Y-46785192D01*
X248113826Y-94033963D02*
X247708402Y-95654003D01*
X253184989Y-91557698D02*
X253296651Y-92126848D01*
X92655506Y-84038558D02*
X91494378Y-85238842D01*
X98285393Y-84429630D02*
X98097521Y-84978360D01*
X65714737Y-37375779D02*
X64553609Y-38576063D01*
X71344624Y-37766851D02*
X71156752Y-38315581D01*
X70556741Y-92908722D02*
X69395613Y-94109006D01*
X76186628Y-93299794D02*
X75998756Y-93848524D01*
X55853730Y-74177553D02*
X54692602Y-75377837D01*
X61483617Y-74568625D02*
X61295745Y-75117355D01*
X179352281Y-58223031D02*
X178946857Y-59843071D01*
X184423444Y-55746766D02*
X184535106Y-56315916D01*
X36220219Y-73847273D02*
X35059091Y-75047557D01*
X41850106Y-74238345D02*
X41662234Y-74787075D01*
D16*
X168300000Y-23331250D03*
X174600000Y-23331250D03*
X168300000Y-19531250D03*
X174600000Y-19531250D03*
D17*
X144780000Y-19367500D03*
D18*
X144780000Y-21907500D03*
X144780000Y-24447500D03*
X144780000Y-26987500D03*
X144780000Y-29527500D03*
X144780000Y-32067500D03*
X144780000Y-34607500D03*
X144780000Y-37147500D03*
X144780000Y-39687500D03*
X144780000Y-42227500D03*
X144780000Y-44767500D03*
X144780000Y-47307500D03*
X160020000Y-47307500D03*
X160020000Y-44767500D03*
X160020000Y-42227500D03*
X160020000Y-39687500D03*
X160020000Y-37147500D03*
X160020000Y-34607500D03*
X160020000Y-32067500D03*
X160020000Y-29527500D03*
X160020000Y-26987500D03*
X160020000Y-24447500D03*
X160020000Y-21907500D03*
X160020000Y-19367500D03*
D14*
X197643750Y-19050000D03*
X107156250Y-19050000D03*
M02*
