G04 #@! TF.GenerationSoftware,KiCad,Pcbnew,(6.0.0-rc1-dev-557-ge985f797c)*
G04 #@! TF.CreationDate,2018-09-26T16:52:15-05:00*
G04 #@! TF.ProjectId,orgonaut66,6F72676F6E61757436362E6B69636164,2*
G04 #@! TF.SameCoordinates,Original*
G04 #@! TF.FileFunction,Legend,Top*
G04 #@! TF.FilePolarity,Positive*
%FSLAX46Y46*%
G04 Gerber Fmt 4.6, Leading zero omitted, Abs format (unit mm)*
G04 Created by KiCad (PCBNEW (6.0.0-rc1-dev-557-ge985f797c)) date 09/26/18 16:52:15*
%MOMM*%
%LPD*%
G01*
G04 APERTURE LIST*
%ADD10C,0.381000*%
%ADD11C,0.203200*%
G04 APERTURE END LIST*
D10*
G04 #@! TO.C,K_Comma1*
X290158532Y-136727047D02*
X291875948Y-136266867D01*
X300708374Y-133900225D02*
X302425790Y-133440045D01*
X302425790Y-133440045D02*
X302885970Y-135157461D01*
X305252612Y-143989887D02*
X305712792Y-145707303D01*
X305712792Y-145707303D02*
X303995376Y-146167483D01*
X295162950Y-148534125D02*
X293445534Y-148994305D01*
X293445534Y-148994305D02*
X292985354Y-147276889D01*
X290618712Y-138444463D02*
X290158532Y-136727047D01*
G04 #@! TO.C,K_RFn1*
X380027997Y-122507601D02*
X381745413Y-122047421D01*
X390577839Y-119680779D02*
X392295255Y-119220599D01*
X392295255Y-119220599D02*
X392755435Y-120938015D01*
X395122077Y-129770441D02*
X395582257Y-131487857D01*
X395582257Y-131487857D02*
X393864841Y-131948037D01*
X385032415Y-134314679D02*
X383314999Y-134774859D01*
X383314999Y-134774859D02*
X382854819Y-133057443D01*
X380488177Y-124225017D02*
X380027997Y-122507601D01*
G04 #@! TO.C,K_LShift1*
X69543752Y-123631948D02*
X71261168Y-124092128D01*
X80093594Y-126458770D02*
X81811010Y-126918950D01*
X81811010Y-126918950D02*
X81350830Y-128636366D01*
X78984188Y-137468792D02*
X78524008Y-139186208D01*
X78524008Y-139186208D02*
X76806592Y-138726028D01*
X67974166Y-136359386D02*
X66256750Y-135899206D01*
X66256750Y-135899206D02*
X66716930Y-134181790D01*
X69083572Y-125349364D02*
X69543752Y-123631948D01*
G04 #@! TO.C,K_0*
X314634051Y-80863823D02*
X316351467Y-80403643D01*
X325183893Y-78037001D02*
X326901309Y-77576821D01*
X326901309Y-77576821D02*
X327361489Y-79294237D01*
X329728131Y-88126663D02*
X330188311Y-89844079D01*
X330188311Y-89844079D02*
X328470895Y-90304259D01*
X319638469Y-92670901D02*
X317921053Y-93131081D01*
X317921053Y-93131081D02*
X317460873Y-91413665D01*
X315094231Y-82581239D02*
X314634051Y-80863823D01*
G04 #@! TO.C,K_1*
X118836925Y-77673980D02*
X120554341Y-78134160D01*
X129386767Y-80500802D02*
X131104183Y-80960982D01*
X131104183Y-80960982D02*
X130644003Y-82678398D01*
X128277361Y-91510824D02*
X127817181Y-93228240D01*
X127817181Y-93228240D02*
X126099765Y-92768060D01*
X117267339Y-90401418D02*
X115549923Y-89941238D01*
X115549923Y-89941238D02*
X116010103Y-88223822D01*
X118376745Y-79391396D02*
X118836925Y-77673980D01*
G04 #@! TO.C,K_2*
X138470437Y-78004261D02*
X140187853Y-78464441D01*
X149020279Y-80831083D02*
X150737695Y-81291263D01*
X150737695Y-81291263D02*
X150277515Y-83008679D01*
X147910873Y-91841105D02*
X147450693Y-93558521D01*
X147450693Y-93558521D02*
X145733277Y-93098341D01*
X136900851Y-90731699D02*
X135183435Y-90271519D01*
X135183435Y-90271519D02*
X135643615Y-88554103D01*
X138010257Y-79721677D02*
X138470437Y-78004261D01*
G04 #@! TO.C,K_3*
X158103948Y-78334542D02*
X159821364Y-78794722D01*
X168653790Y-81161364D02*
X170371206Y-81621544D01*
X170371206Y-81621544D02*
X169911026Y-83338960D01*
X167544384Y-92171386D02*
X167084204Y-93888802D01*
X167084204Y-93888802D02*
X165366788Y-93428622D01*
X156534362Y-91061980D02*
X154816946Y-90601800D01*
X154816946Y-90601800D02*
X155277126Y-88884384D01*
X157643768Y-80051958D02*
X158103948Y-78334542D01*
G04 #@! TO.C,K_4*
X175272212Y-87865265D02*
X176989628Y-88325445D01*
X185822054Y-90692087D02*
X187539470Y-91152267D01*
X187539470Y-91152267D02*
X187079290Y-92869683D01*
X184712648Y-101702109D02*
X184252468Y-103419525D01*
X184252468Y-103419525D02*
X182535052Y-102959345D01*
X173702626Y-100592703D02*
X171985210Y-100132523D01*
X171985210Y-100132523D02*
X172445390Y-98415107D01*
X174812032Y-89582681D02*
X175272212Y-87865265D01*
G04 #@! TO.C,K_5*
X192440473Y-97395991D02*
X194157889Y-97856171D01*
X202990315Y-100222813D02*
X204707731Y-100682993D01*
X204707731Y-100682993D02*
X204247551Y-102400409D01*
X201880909Y-111232835D02*
X201420729Y-112950251D01*
X201420729Y-112950251D02*
X199703313Y-112490071D01*
X190870887Y-110123429D02*
X189153471Y-109663249D01*
X189153471Y-109663249D02*
X189613651Y-107945833D01*
X191980293Y-99113407D02*
X192440473Y-97395991D01*
G04 #@! TO.C,K_6*
X241030503Y-100585834D02*
X242747919Y-100125654D01*
X251580345Y-97759012D02*
X253297761Y-97298832D01*
X253297761Y-97298832D02*
X253757941Y-99016248D01*
X256124583Y-107848674D02*
X256584763Y-109566090D01*
X256584763Y-109566090D02*
X254867347Y-110026270D01*
X246034921Y-112392912D02*
X244317505Y-112853092D01*
X244317505Y-112853092D02*
X243857325Y-111135676D01*
X241490683Y-102303250D02*
X241030503Y-100585834D01*
G04 #@! TO.C,K_7*
X258198762Y-91055111D02*
X259916178Y-90594931D01*
X268748604Y-88228289D02*
X270466020Y-87768109D01*
X270466020Y-87768109D02*
X270926200Y-89485525D01*
X273292842Y-98317951D02*
X273753022Y-100035367D01*
X273753022Y-100035367D02*
X272035606Y-100495547D01*
X263203180Y-102862189D02*
X261485764Y-103322369D01*
X261485764Y-103322369D02*
X261025584Y-101604953D01*
X258658942Y-92772527D02*
X258198762Y-91055111D01*
G04 #@! TO.C,K_8*
X275367026Y-81524386D02*
X277084442Y-81064206D01*
X285916868Y-78697564D02*
X287634284Y-78237384D01*
X287634284Y-78237384D02*
X288094464Y-79954800D01*
X290461106Y-88787226D02*
X290921286Y-90504642D01*
X290921286Y-90504642D02*
X289203870Y-90964822D01*
X280371444Y-93331464D02*
X278654028Y-93791644D01*
X278654028Y-93791644D02*
X278193848Y-92074228D01*
X275827206Y-83241802D02*
X275367026Y-81524386D01*
G04 #@! TO.C,K_9*
X295000537Y-81194105D02*
X296717953Y-80733925D01*
X305550379Y-78367283D02*
X307267795Y-77907103D01*
X307267795Y-77907103D02*
X307727975Y-79624519D01*
X310094617Y-88456945D02*
X310554797Y-90174361D01*
X310554797Y-90174361D02*
X308837381Y-90634541D01*
X300004955Y-93001183D02*
X298287539Y-93461363D01*
X298287539Y-93461363D02*
X297827359Y-91743947D01*
X295460717Y-82911521D02*
X295000537Y-81194105D01*
G04 #@! TO.C,K_A1*
X108975917Y-114475753D02*
X110693333Y-114935933D01*
X119525759Y-117302575D02*
X121243175Y-117762755D01*
X121243175Y-117762755D02*
X120782995Y-119480171D01*
X118416353Y-128312597D02*
X117956173Y-130030013D01*
X117956173Y-130030013D02*
X116238757Y-129569833D01*
X107406331Y-127203191D02*
X105688915Y-126743011D01*
X105688915Y-126743011D02*
X106149095Y-125025595D01*
X108515737Y-116193169D02*
X108975917Y-114475753D01*
G04 #@! TO.C,K_Alt1*
X155550201Y-161468813D02*
X157267617Y-161928993D01*
X166100043Y-164295635D02*
X167817459Y-164755815D01*
X167817459Y-164755815D02*
X167357279Y-166473231D01*
X164990637Y-175305657D02*
X164530457Y-177023073D01*
X164530457Y-177023073D02*
X162813041Y-176562893D01*
X153980615Y-174196251D02*
X152263199Y-173736071D01*
X152263199Y-173736071D02*
X152723379Y-172018655D01*
X155090021Y-163186229D02*
X155550201Y-161468813D01*
G04 #@! TO.C,K_B1*
X177648963Y-152598652D02*
X179366379Y-153058832D01*
X188198805Y-155425474D02*
X189916221Y-155885654D01*
X189916221Y-155885654D02*
X189456041Y-157603070D01*
X187089399Y-166435496D02*
X186629219Y-168152912D01*
X186629219Y-168152912D02*
X184911803Y-167692732D01*
X176079377Y-165326090D02*
X174361961Y-164865910D01*
X174361961Y-164865910D02*
X174822141Y-163148494D01*
X177188783Y-154316068D02*
X177648963Y-152598652D01*
G04 #@! TO.C,K_Backspace1*
X342235381Y-73468072D02*
X343952797Y-73007892D01*
X352785223Y-70641250D02*
X354502639Y-70181070D01*
X354502639Y-70181070D02*
X354962819Y-71898486D01*
X357329461Y-80730912D02*
X357789641Y-82448328D01*
X357789641Y-82448328D02*
X356072225Y-82908508D01*
X347239799Y-85275150D02*
X345522383Y-85735330D01*
X345522383Y-85735330D02*
X345062203Y-84017914D01*
X342695561Y-75185488D02*
X342235381Y-73468072D01*
G04 #@! TO.C,K_C1*
X143312441Y-133537202D02*
X145029857Y-133997382D01*
X153862283Y-136364024D02*
X155579699Y-136824204D01*
X155579699Y-136824204D02*
X155119519Y-138541620D01*
X152752877Y-147374046D02*
X152292697Y-149091462D01*
X152292697Y-149091462D02*
X150575281Y-148631282D01*
X141742855Y-146264640D02*
X140025439Y-145804460D01*
X140025439Y-145804460D02*
X140485619Y-144087044D01*
X142852261Y-135254618D02*
X143312441Y-133537202D01*
G04 #@! TO.C,K_Colon1*
X324495057Y-117665599D02*
X326212473Y-117205419D01*
X335044899Y-114838777D02*
X336762315Y-114378597D01*
X336762315Y-114378597D02*
X337222495Y-116096013D01*
X339589137Y-124928439D02*
X340049317Y-126645855D01*
X340049317Y-126645855D02*
X338331901Y-127106035D01*
X329499475Y-129472677D02*
X327782059Y-129932857D01*
X327782059Y-129932857D02*
X327321879Y-128215441D01*
X324955237Y-119383015D02*
X324495057Y-117665599D01*
G04 #@! TO.C,K_Ctrl1*
X118748425Y-151607808D02*
X120465841Y-152067988D01*
X129298267Y-154434630D02*
X131015683Y-154894810D01*
X131015683Y-154894810D02*
X130555503Y-156612226D01*
X128188861Y-165444652D02*
X127728681Y-167162068D01*
X127728681Y-167162068D02*
X126011265Y-166701888D01*
X117178839Y-164335246D02*
X115461423Y-163875066D01*
X115461423Y-163875066D02*
X115921603Y-162157650D01*
X118288245Y-153325224D02*
X118748425Y-151607808D01*
G04 #@! TO.C,K_D1*
X148242943Y-115136316D02*
X149960359Y-115596496D01*
X158792785Y-117963138D02*
X160510201Y-118423318D01*
X160510201Y-118423318D02*
X160050021Y-120140734D01*
X157683379Y-128973160D02*
X157223199Y-130690576D01*
X157223199Y-130690576D02*
X155505783Y-130230396D01*
X146673357Y-127863754D02*
X144955941Y-127403574D01*
X144955941Y-127403574D02*
X145416121Y-125686158D01*
X147782763Y-116853732D02*
X148242943Y-115136316D01*
G04 #@! TO.C,K_Del1*
X82035151Y-67812974D02*
X83752567Y-68273154D01*
X92584993Y-70639796D02*
X94302409Y-71099976D01*
X94302409Y-71099976D02*
X93842229Y-72817392D01*
X91475587Y-81649818D02*
X91015407Y-83367234D01*
X91015407Y-83367234D02*
X89297991Y-82907054D01*
X80465565Y-80540412D02*
X78748149Y-80080232D01*
X78748149Y-80080232D02*
X79208329Y-78362816D01*
X81574971Y-69530390D02*
X82035151Y-67812974D01*
G04 #@! TO.C,K_Down1*
X295089035Y-155127935D02*
X296806451Y-154667755D01*
X305638877Y-152301113D02*
X307356293Y-151840933D01*
X307356293Y-151840933D02*
X307816473Y-153558349D01*
X310183115Y-162390775D02*
X310643295Y-164108191D01*
X310643295Y-164108191D02*
X308925879Y-164568371D01*
X300093453Y-166935013D02*
X298376037Y-167395193D01*
X298376037Y-167395193D02*
X297915857Y-165677777D01*
X295549215Y-156845351D02*
X295089035Y-155127935D01*
G04 #@! TO.C,K_E1*
X153173446Y-96735428D02*
X154890862Y-97195608D01*
X163723288Y-99562250D02*
X165440704Y-100022430D01*
X165440704Y-100022430D02*
X164980524Y-101739846D01*
X162613882Y-110572272D02*
X162153702Y-112289688D01*
X162153702Y-112289688D02*
X160436286Y-111829508D01*
X151603860Y-109462866D02*
X149886444Y-109002686D01*
X149886444Y-109002686D02*
X150346624Y-107285270D01*
X152713266Y-98452844D02*
X153173446Y-96735428D01*
G04 #@! TO.C,K_Ent1*
X253386260Y-171232662D02*
X253846440Y-172950078D01*
X256213082Y-181782504D02*
X256673262Y-183499920D01*
X256673262Y-183499920D02*
X254955846Y-183960100D01*
X246123420Y-186326742D02*
X244406004Y-186786922D01*
X244406004Y-186786922D02*
X243945824Y-185069506D01*
X241579182Y-176237080D02*
X241119002Y-174519664D01*
X241119002Y-174519664D02*
X242836418Y-174059484D01*
X251668844Y-171692842D02*
X253386260Y-171232662D01*
G04 #@! TO.C,K_Enter1*
X354396497Y-109653531D02*
X356113913Y-109193351D01*
X364946339Y-106826709D02*
X366663755Y-106366529D01*
X366663755Y-106366529D02*
X367123935Y-108083945D01*
X369490577Y-116916371D02*
X369950757Y-118633787D01*
X369950757Y-118633787D02*
X368233341Y-119093967D01*
X359400915Y-121460609D02*
X357683499Y-121920789D01*
X357683499Y-121920789D02*
X357223319Y-120203373D01*
X354856677Y-111370947D02*
X354396497Y-109653531D01*
G04 #@! TO.C,K_Esc1*
X100436037Y-72743477D02*
X102153453Y-73203657D01*
X110985879Y-75570299D02*
X112703295Y-76030479D01*
X112703295Y-76030479D02*
X112243115Y-77747895D01*
X109876473Y-86580321D02*
X109416293Y-88297737D01*
X109416293Y-88297737D02*
X107698877Y-87837557D01*
X98866451Y-85470915D02*
X97149035Y-85010735D01*
X97149035Y-85010735D02*
X97609215Y-83293319D01*
X99975857Y-74460893D02*
X100436037Y-72743477D01*
G04 #@! TO.C,K_F1*
X165411206Y-124667041D02*
X167128622Y-125127221D01*
X175961048Y-127493863D02*
X177678464Y-127954043D01*
X177678464Y-127954043D02*
X177218284Y-129671459D01*
X174851642Y-138503885D02*
X174391462Y-140221301D01*
X174391462Y-140221301D02*
X172674046Y-139761121D01*
X163841620Y-137394479D02*
X162124204Y-136934299D01*
X162124204Y-136934299D02*
X162584384Y-135216883D01*
X164951026Y-126384457D02*
X165411206Y-124667041D01*
G04 #@! TO.C,K_G1*
X182579465Y-134197765D02*
X184296881Y-134657945D01*
X193129307Y-137024587D02*
X194846723Y-137484767D01*
X194846723Y-137484767D02*
X194386543Y-139202183D01*
X192019901Y-148034609D02*
X191559721Y-149752025D01*
X191559721Y-149752025D02*
X189842305Y-149291845D01*
X181009879Y-146925203D02*
X179292463Y-146465023D01*
X179292463Y-146465023D02*
X179752643Y-144747607D01*
X182119285Y-135915181D02*
X182579465Y-134197765D01*
G04 #@! TO.C,K_H1*
X250891509Y-137387609D02*
X252608925Y-136927429D01*
X261441351Y-134560787D02*
X263158767Y-134100607D01*
X263158767Y-134100607D02*
X263618947Y-135818023D01*
X265985589Y-144650449D02*
X266445769Y-146367865D01*
X266445769Y-146367865D02*
X264728353Y-146828045D01*
X255895927Y-149194687D02*
X254178511Y-149654867D01*
X254178511Y-149654867D02*
X253718331Y-147937451D01*
X251351689Y-139105025D02*
X250891509Y-137387609D01*
G04 #@! TO.C,K_I1*
X280297528Y-99925274D02*
X282014944Y-99465094D01*
X290847370Y-97098452D02*
X292564786Y-96638272D01*
X292564786Y-96638272D02*
X293024966Y-98355688D01*
X295391608Y-107188114D02*
X295851788Y-108905530D01*
X295851788Y-108905530D02*
X294134372Y-109365710D01*
X285301946Y-111732352D02*
X283584530Y-112192532D01*
X283584530Y-112192532D02*
X283124350Y-110475116D01*
X280757708Y-101642690D02*
X280297528Y-99925274D01*
G04 #@! TO.C,K_J1*
X268059769Y-127856885D02*
X269777185Y-127396705D01*
X278609611Y-125030063D02*
X280327027Y-124569883D01*
X280327027Y-124569883D02*
X280787207Y-126287299D01*
X283153849Y-135119725D02*
X283614029Y-136837141D01*
X283614029Y-136837141D02*
X281896613Y-137297321D01*
X273064187Y-139663963D02*
X271346771Y-140124143D01*
X271346771Y-140124143D02*
X270886591Y-138406727D01*
X268519949Y-129574301D02*
X268059769Y-127856885D01*
G04 #@! TO.C,K_K1*
X285228029Y-118326160D02*
X286945445Y-117865980D01*
X295777871Y-115499338D02*
X297495287Y-115039158D01*
X297495287Y-115039158D02*
X297955467Y-116756574D01*
X300322109Y-125589000D02*
X300782289Y-127306416D01*
X300782289Y-127306416D02*
X299064873Y-127766596D01*
X290232447Y-130133238D02*
X288515031Y-130593418D01*
X288515031Y-130593418D02*
X288054851Y-128876002D01*
X285688209Y-120043576D02*
X285228029Y-118326160D01*
G04 #@! TO.C,K_L1*
X304861543Y-117995879D02*
X306578959Y-117535699D01*
X315411385Y-115169057D02*
X317128801Y-114708877D01*
X317128801Y-114708877D02*
X317588981Y-116426293D01*
X319955623Y-125258719D02*
X320415803Y-126976135D01*
X320415803Y-126976135D02*
X318698387Y-127436315D01*
X309865961Y-129802957D02*
X308148545Y-130263137D01*
X308148545Y-130263137D02*
X307688365Y-128545721D01*
X305321723Y-119713295D02*
X304861543Y-117995879D01*
G04 #@! TO.C,K_LBRC1*
X204647122Y-125382370D02*
X206364538Y-125842550D01*
X215196964Y-128209192D02*
X216914380Y-128669372D01*
X216914380Y-128669372D02*
X216454200Y-130386788D01*
X214087558Y-139219214D02*
X213627378Y-140936630D01*
X213627378Y-140936630D02*
X211909962Y-140476450D01*
X203077536Y-138109808D02*
X201360120Y-137649628D01*
X201360120Y-137649628D02*
X201820300Y-135932212D01*
X204186942Y-127099786D02*
X204647122Y-125382370D01*
G04 #@! TO.C,K_Left1*
X277920775Y-164658660D02*
X279638191Y-164198480D01*
X288470617Y-161831838D02*
X290188033Y-161371658D01*
X290188033Y-161371658D02*
X290648213Y-163089074D01*
X293014855Y-171921500D02*
X293475035Y-173638916D01*
X293475035Y-173638916D02*
X291757619Y-174099096D01*
X282925193Y-176465738D02*
X281207777Y-176925918D01*
X281207777Y-176925918D02*
X280747597Y-175208502D01*
X278380955Y-166376076D02*
X277920775Y-164658660D01*
G04 #@! TO.C,K_LFn1*
X99114913Y-151277528D02*
X100832329Y-151737708D01*
X109664755Y-154104350D02*
X111382171Y-154564530D01*
X111382171Y-154564530D02*
X110921991Y-156281946D01*
X108555349Y-165114372D02*
X108095169Y-166831788D01*
X108095169Y-166831788D02*
X106377753Y-166371608D01*
X97545327Y-164004966D02*
X95827911Y-163544786D01*
X95827911Y-163544786D02*
X96288091Y-161827370D01*
X98654733Y-152994944D02*
X99114913Y-151277528D01*
G04 #@! TO.C,K_Lower1*
X172718462Y-170999538D02*
X174435878Y-171459718D01*
X183268304Y-173826360D02*
X184985720Y-174286540D01*
X184985720Y-174286540D02*
X184525540Y-176003956D01*
X182158898Y-184836382D02*
X181698718Y-186553798D01*
X181698718Y-186553798D02*
X179981302Y-186093618D01*
X171148876Y-183726976D02*
X169431460Y-183266796D01*
X169431460Y-183266796D02*
X169891640Y-181549380D01*
X172258282Y-172716954D02*
X172718462Y-170999538D01*
G04 #@! TO.C,K_M1*
X272990271Y-146257773D02*
X274707687Y-145797593D01*
X283540113Y-143430951D02*
X285257529Y-142970771D01*
X285257529Y-142970771D02*
X285717709Y-144688187D01*
X288084351Y-153520613D02*
X288544531Y-155238029D01*
X288544531Y-155238029D02*
X286827115Y-155698209D01*
X277994689Y-158064851D02*
X276277273Y-158525031D01*
X276277273Y-158525031D02*
X275817093Y-156807615D01*
X273450451Y-147975189D02*
X272990271Y-146257773D01*
G04 #@! TO.C,K_N1*
X255822012Y-155788496D02*
X257539428Y-155328316D01*
X266371854Y-152961674D02*
X268089270Y-152501494D01*
X268089270Y-152501494D02*
X268549450Y-154218910D01*
X270916092Y-163051336D02*
X271376272Y-164768752D01*
X271376272Y-164768752D02*
X269658856Y-165228932D01*
X260826430Y-167595574D02*
X259109014Y-168055754D01*
X259109014Y-168055754D02*
X258648834Y-166338338D01*
X256282192Y-157505912D02*
X255822012Y-155788496D01*
G04 #@! TO.C,K_Novelty1*
X79074477Y-106463686D02*
X80791893Y-106923866D01*
X89624319Y-109290508D02*
X91341735Y-109750688D01*
X91341735Y-109750688D02*
X90881555Y-111468104D01*
X88514913Y-120300530D02*
X88054733Y-122017946D01*
X88054733Y-122017946D02*
X86337317Y-121557766D01*
X77504891Y-119191124D02*
X75787475Y-118730944D01*
X75787475Y-118730944D02*
X76247655Y-117013528D01*
X78614297Y-108181102D02*
X79074477Y-106463686D01*
G04 #@! TO.C,K_O1*
X299931040Y-99594993D02*
X301648456Y-99134813D01*
X310480882Y-96768171D02*
X312198298Y-96307991D01*
X312198298Y-96307991D02*
X312658478Y-98025407D01*
X315025120Y-106857833D02*
X315485300Y-108575249D01*
X315485300Y-108575249D02*
X313767884Y-109035429D01*
X304935458Y-111402071D02*
X303218042Y-111862251D01*
X303218042Y-111862251D02*
X302757862Y-110144835D01*
X300391220Y-101312409D02*
X299931040Y-99594993D01*
G04 #@! TO.C,K_P1*
X319564553Y-99264711D02*
X321281969Y-98804531D01*
X330114395Y-96437889D02*
X331831811Y-95977709D01*
X331831811Y-95977709D02*
X332291991Y-97695125D01*
X334658633Y-106527551D02*
X335118813Y-108244967D01*
X335118813Y-108244967D02*
X333401397Y-108705147D01*
X324568971Y-111071789D02*
X322851555Y-111531969D01*
X322851555Y-111531969D02*
X322391375Y-109814553D01*
X320024733Y-100982127D02*
X319564553Y-99264711D01*
G04 #@! TO.C,K_Period1*
X309792047Y-136396766D02*
X311509463Y-135936586D01*
X320341889Y-133569944D02*
X322059305Y-133109764D01*
X322059305Y-133109764D02*
X322519485Y-134827180D01*
X324886127Y-143659606D02*
X325346307Y-145377022D01*
X325346307Y-145377022D02*
X323628891Y-145837202D01*
X314796465Y-148203844D02*
X313079049Y-148664024D01*
X313079049Y-148664024D02*
X312618869Y-146946608D01*
X310252227Y-138114182D02*
X309792047Y-136396766D01*
G04 #@! TO.C,K_PgDn1*
X199747728Y-143728489D02*
X201465144Y-144188669D01*
X210297570Y-146555311D02*
X212014986Y-147015491D01*
X212014986Y-147015491D02*
X211554806Y-148732907D01*
X209188164Y-157565333D02*
X208727984Y-159282749D01*
X208727984Y-159282749D02*
X207010568Y-158822569D01*
X198178142Y-156455927D02*
X196460726Y-155995747D01*
X196460726Y-155995747D02*
X196920906Y-154278331D01*
X199287548Y-145445905D02*
X199747728Y-143728489D01*
G04 #@! TO.C,K_PgUp1*
X233723246Y-146918334D02*
X235440662Y-146458154D01*
X244273088Y-144091512D02*
X245990504Y-143631332D01*
X245990504Y-143631332D02*
X246450684Y-145348748D01*
X248817326Y-154181174D02*
X249277506Y-155898590D01*
X249277506Y-155898590D02*
X247560090Y-156358770D01*
X238727664Y-158725412D02*
X237010248Y-159185592D01*
X237010248Y-159185592D02*
X236550068Y-157468176D01*
X234183426Y-148635750D02*
X233723246Y-146918334D01*
G04 #@! TO.C,K_Pipe1*
X342565663Y-93101582D02*
X344283079Y-92641402D01*
X353115505Y-90274760D02*
X354832921Y-89814580D01*
X354832921Y-89814580D02*
X355293101Y-91531996D01*
X357659743Y-100364422D02*
X358119923Y-102081838D01*
X358119923Y-102081838D02*
X356402507Y-102542018D01*
X347570081Y-104908660D02*
X345852665Y-105368840D01*
X345852665Y-105368840D02*
X345392485Y-103651424D01*
X343025843Y-94818998D02*
X342565663Y-93101582D01*
G04 #@! TO.C,K_Q1*
X113906422Y-96074867D02*
X115623838Y-96535047D01*
X124456264Y-98901689D02*
X126173680Y-99361869D01*
X126173680Y-99361869D02*
X125713500Y-101079285D01*
X123346858Y-109911711D02*
X122886678Y-111629127D01*
X122886678Y-111629127D02*
X121169262Y-111168947D01*
X112336836Y-108802305D02*
X110619420Y-108342125D01*
X110619420Y-108342125D02*
X111079600Y-106624709D01*
X113446242Y-97792283D02*
X113906422Y-96074867D01*
G04 #@! TO.C,K_R1*
X170341708Y-106266153D02*
X172059124Y-106726333D01*
X180891550Y-109092975D02*
X182608966Y-109553155D01*
X182608966Y-109553155D02*
X182148786Y-111270571D01*
X179782144Y-120102997D02*
X179321964Y-121820413D01*
X179321964Y-121820413D02*
X177604548Y-121360233D01*
X168772122Y-118993591D02*
X167054706Y-118533411D01*
X167054706Y-118533411D02*
X167514886Y-116815995D01*
X169881528Y-107983569D02*
X170341708Y-106266153D01*
G04 #@! TO.C,K_Raise1*
X260752512Y-174189383D02*
X262469928Y-173729203D01*
X271302354Y-171362561D02*
X273019770Y-170902381D01*
X273019770Y-170902381D02*
X273479950Y-172619797D01*
X275846592Y-181452223D02*
X276306772Y-183169639D01*
X276306772Y-183169639D02*
X274589356Y-183629819D01*
X265756930Y-185996461D02*
X264039514Y-186456641D01*
X264039514Y-186456641D02*
X263579334Y-184739225D01*
X261212692Y-175906799D02*
X260752512Y-174189383D01*
G04 #@! TO.C,K_RBRC1*
X228792744Y-128517447D02*
X230510160Y-128057267D01*
X239342586Y-125690625D02*
X241060002Y-125230445D01*
X241060002Y-125230445D02*
X241520182Y-126947861D01*
X243886824Y-135780287D02*
X244347004Y-137497703D01*
X244347004Y-137497703D02*
X242629588Y-137957883D01*
X233797162Y-140324525D02*
X232079746Y-140784705D01*
X232079746Y-140784705D02*
X231619566Y-139067289D01*
X229252924Y-130234863D02*
X228792744Y-128517447D01*
G04 #@! TO.C,K_Right1*
X334356060Y-154467372D02*
X336073476Y-154007192D01*
X344905902Y-151640550D02*
X346623318Y-151180370D01*
X346623318Y-151180370D02*
X347083498Y-152897786D01*
X349450140Y-161730212D02*
X349910320Y-163447628D01*
X349910320Y-163447628D02*
X348192904Y-163907808D01*
X339360478Y-166274450D02*
X337643062Y-166734630D01*
X337643062Y-166734630D02*
X337182882Y-165017214D01*
X334816240Y-156184788D02*
X334356060Y-154467372D01*
G04 #@! TO.C,K_RShift1*
X354726778Y-129287044D02*
X356444194Y-128826864D01*
X365276620Y-126460222D02*
X366994036Y-126000042D01*
X366994036Y-126000042D02*
X367454216Y-127717458D01*
X369820858Y-136549884D02*
X370281038Y-138267300D01*
X370281038Y-138267300D02*
X368563622Y-138727480D01*
X359731196Y-141094122D02*
X358013780Y-141554302D01*
X358013780Y-141554302D02*
X357553600Y-139836886D01*
X355186958Y-131004460D02*
X354726778Y-129287044D01*
G04 #@! TO.C,K_S1*
X128609431Y-114806035D02*
X130326847Y-115266215D01*
X139159273Y-117632857D02*
X140876689Y-118093037D01*
X140876689Y-118093037D02*
X140416509Y-119810453D01*
X138049867Y-128642879D02*
X137589687Y-130360295D01*
X137589687Y-130360295D02*
X135872271Y-129900115D01*
X127039845Y-127533473D02*
X125322429Y-127073293D01*
X125322429Y-127073293D02*
X125782609Y-125355877D01*
X128149251Y-116523451D02*
X128609431Y-114806035D01*
G04 #@! TO.C,K_Slash1*
X329425557Y-136066484D02*
X331142973Y-135606304D01*
X339975399Y-133239662D02*
X341692815Y-132779482D01*
X341692815Y-132779482D02*
X342152995Y-134496898D01*
X344519637Y-143329324D02*
X344979817Y-145046740D01*
X344979817Y-145046740D02*
X343262401Y-145506920D01*
X334429975Y-147873562D02*
X332712559Y-148333742D01*
X332712559Y-148333742D02*
X332252379Y-146616326D01*
X329885737Y-137783900D02*
X329425557Y-136066484D01*
G04 #@! TO.C,K_Space1*
X189064971Y-183597078D02*
X189525151Y-181879662D01*
X191891793Y-173047236D02*
X192351973Y-171329820D01*
X192351973Y-171329820D02*
X194069389Y-171790000D01*
X202901815Y-174156642D02*
X204619231Y-174616822D01*
X204619231Y-174616822D02*
X204159051Y-176334238D01*
X201792409Y-185166664D02*
X201332229Y-186884080D01*
X201332229Y-186884080D02*
X199614813Y-186423900D01*
X190782387Y-184057258D02*
X189064971Y-183597078D01*
G04 #@! TO.C,K_T1*
X187509970Y-115796878D02*
X189227386Y-116257058D01*
X198059812Y-118623700D02*
X199777228Y-119083880D01*
X199777228Y-119083880D02*
X199317048Y-120801296D01*
X196950406Y-129633722D02*
X196490226Y-131351138D01*
X196490226Y-131351138D02*
X194772810Y-130890958D01*
X185940384Y-128524316D02*
X184222968Y-128064136D01*
X184222968Y-128064136D02*
X184683148Y-126346720D01*
X187049790Y-117514294D02*
X187509970Y-115796878D01*
G04 #@! TO.C,K_Tab1*
X90905314Y-89911737D02*
X92622730Y-90371917D01*
X101455156Y-92738559D02*
X103172572Y-93198739D01*
X103172572Y-93198739D02*
X102712392Y-94916155D01*
X100345750Y-103748581D02*
X99885570Y-105465997D01*
X99885570Y-105465997D02*
X98168154Y-105005817D01*
X89335728Y-102639175D02*
X87618312Y-102178995D01*
X87618312Y-102178995D02*
X88078492Y-100461579D01*
X90445134Y-91629153D02*
X90905314Y-89911737D01*
G04 #@! TO.C,K_U1*
X263129266Y-109455998D02*
X264846682Y-108995818D01*
X273679108Y-106629176D02*
X275396524Y-106168996D01*
X275396524Y-106168996D02*
X275856704Y-107886412D01*
X278223346Y-116718838D02*
X278683526Y-118436254D01*
X278683526Y-118436254D02*
X276966110Y-118896434D01*
X268133684Y-121263076D02*
X266416268Y-121723256D01*
X266416268Y-121723256D02*
X265956088Y-120005840D01*
X263589446Y-111173414D02*
X263129266Y-109455998D01*
G04 #@! TO.C,K_Up1*
X314722550Y-154797654D02*
X316439966Y-154337474D01*
X325272392Y-151970832D02*
X326989808Y-151510652D01*
X326989808Y-151510652D02*
X327449988Y-153228068D01*
X329816630Y-162060494D02*
X330276810Y-163777910D01*
X330276810Y-163777910D02*
X328559394Y-164238090D01*
X319726968Y-166604732D02*
X318009552Y-167064912D01*
X318009552Y-167064912D02*
X317549372Y-165347496D01*
X315182730Y-156515070D02*
X314722550Y-154797654D01*
G04 #@! TO.C,K_V1*
X160480703Y-143067926D02*
X162198119Y-143528106D01*
X171030545Y-145894748D02*
X172747961Y-146354928D01*
X172747961Y-146354928D02*
X172287781Y-148072344D01*
X169921139Y-156904770D02*
X169460959Y-158622186D01*
X169460959Y-158622186D02*
X167743543Y-158162006D01*
X158911117Y-155795364D02*
X157193701Y-155335184D01*
X157193701Y-155335184D02*
X157653881Y-153617768D01*
X160020523Y-144785342D02*
X160480703Y-143067926D01*
G04 #@! TO.C,K_W1*
X133539934Y-96405147D02*
X135257350Y-96865327D01*
X144089776Y-99231969D02*
X145807192Y-99692149D01*
X145807192Y-99692149D02*
X145347012Y-101409565D01*
X142980370Y-110241991D02*
X142520190Y-111959407D01*
X142520190Y-111959407D02*
X140802774Y-111499227D01*
X131970348Y-109132585D02*
X130252932Y-108672405D01*
X130252932Y-108672405D02*
X130713112Y-106954989D01*
X133079754Y-98122563D02*
X133539934Y-96405147D01*
G04 #@! TO.C,K_Win1*
X138381938Y-151938090D02*
X140099354Y-152398270D01*
X148931780Y-154764912D02*
X150649196Y-155225092D01*
X150649196Y-155225092D02*
X150189016Y-156942508D01*
X147822374Y-165774934D02*
X147362194Y-167492350D01*
X147362194Y-167492350D02*
X145644778Y-167032170D01*
X136812352Y-164665528D02*
X135094936Y-164205348D01*
X135094936Y-164205348D02*
X135555116Y-162487932D01*
X137921758Y-153655506D02*
X138381938Y-151938090D01*
G04 #@! TO.C,K_X1*
X123678927Y-133206921D02*
X125396343Y-133667101D01*
X134228769Y-136033743D02*
X135946185Y-136493923D01*
X135946185Y-136493923D02*
X135486005Y-138211339D01*
X133119363Y-147043765D02*
X132659183Y-148761181D01*
X132659183Y-148761181D02*
X130941767Y-148301001D01*
X122109341Y-145934359D02*
X120391925Y-145474179D01*
X120391925Y-145474179D02*
X120852105Y-143756763D01*
X123218747Y-134924337D02*
X123678927Y-133206921D01*
G04 #@! TO.C,K_Y1*
X245961005Y-118986722D02*
X247678421Y-118526542D01*
X256510847Y-116159900D02*
X258228263Y-115699720D01*
X258228263Y-115699720D02*
X258688443Y-117417136D01*
X261055085Y-126249562D02*
X261515265Y-127966978D01*
X261515265Y-127966978D02*
X259797849Y-128427158D01*
X250965423Y-130793800D02*
X249248007Y-131253980D01*
X249248007Y-131253980D02*
X248787827Y-129536564D01*
X246421185Y-120704138D02*
X245961005Y-118986722D01*
G04 #@! TO.C,K_Z1*
X104045416Y-132876641D02*
X105762832Y-133336821D01*
X114595258Y-135703463D02*
X116312674Y-136163643D01*
X116312674Y-136163643D02*
X115852494Y-137881059D01*
X113485852Y-146713485D02*
X113025672Y-148430901D01*
X113025672Y-148430901D02*
X111308256Y-147970721D01*
X102475830Y-145604079D02*
X100758414Y-145143899D01*
X100758414Y-145143899D02*
X101218594Y-143426483D01*
X103585236Y-134594057D02*
X104045416Y-132876641D01*
G04 #@! TO.C,U_ProMicro1*
X231743250Y-80264000D02*
X213963250Y-80264000D01*
X213963250Y-80264000D02*
X213963250Y-110744000D01*
X213963250Y-110744000D02*
X231743250Y-110744000D01*
X231743250Y-110744000D02*
X231743250Y-80264000D01*
X216503250Y-80264000D02*
X216503250Y-82804000D01*
X216503250Y-82804000D02*
X213963250Y-82804000D01*
D11*
X220532773Y-102216857D02*
X221560869Y-102216857D01*
X221681821Y-102144285D01*
X221742297Y-102071714D01*
X221802773Y-101926571D01*
X221802773Y-101636285D01*
X221742297Y-101491142D01*
X221681821Y-101418571D01*
X221560869Y-101346000D01*
X220532773Y-101346000D01*
X221923726Y-100983142D02*
X221923726Y-99822000D01*
X221802773Y-99459142D02*
X220532773Y-99459142D01*
X220532773Y-98878571D01*
X220593250Y-98733428D01*
X220653726Y-98660857D01*
X220774678Y-98588285D01*
X220956107Y-98588285D01*
X221077059Y-98660857D01*
X221137535Y-98733428D01*
X221198011Y-98878571D01*
X221198011Y-99459142D01*
X221802773Y-97935142D02*
X220956107Y-97935142D01*
X221198011Y-97935142D02*
X221077059Y-97862571D01*
X221016583Y-97790000D01*
X220956107Y-97644857D01*
X220956107Y-97499714D01*
X221802773Y-96774000D02*
X221742297Y-96919142D01*
X221681821Y-96991714D01*
X221560869Y-97064285D01*
X221198011Y-97064285D01*
X221077059Y-96991714D01*
X221016583Y-96919142D01*
X220956107Y-96774000D01*
X220956107Y-96556285D01*
X221016583Y-96411142D01*
X221077059Y-96338571D01*
X221198011Y-96266000D01*
X221560869Y-96266000D01*
X221681821Y-96338571D01*
X221742297Y-96411142D01*
X221802773Y-96556285D01*
X221802773Y-96774000D01*
X221802773Y-95612857D02*
X220532773Y-95612857D01*
X221439916Y-95104857D01*
X220532773Y-94596857D01*
X221802773Y-94596857D01*
X221802773Y-93871142D02*
X220956107Y-93871142D01*
X220532773Y-93871142D02*
X220593250Y-93943714D01*
X220653726Y-93871142D01*
X220593250Y-93798571D01*
X220532773Y-93871142D01*
X220653726Y-93871142D01*
X221742297Y-92492285D02*
X221802773Y-92637428D01*
X221802773Y-92927714D01*
X221742297Y-93072857D01*
X221681821Y-93145428D01*
X221560869Y-93218000D01*
X221198011Y-93218000D01*
X221077059Y-93145428D01*
X221016583Y-93072857D01*
X220956107Y-92927714D01*
X220956107Y-92637428D01*
X221016583Y-92492285D01*
X221802773Y-91839142D02*
X220956107Y-91839142D01*
X221198011Y-91839142D02*
X221077059Y-91766571D01*
X221016583Y-91694000D01*
X220956107Y-91548857D01*
X220956107Y-91403714D01*
X221802773Y-90678000D02*
X221742297Y-90823142D01*
X221681821Y-90895714D01*
X221560869Y-90968285D01*
X221198011Y-90968285D01*
X221077059Y-90895714D01*
X221016583Y-90823142D01*
X220956107Y-90678000D01*
X220956107Y-90460285D01*
X221016583Y-90315142D01*
X221077059Y-90242571D01*
X221198011Y-90170000D01*
X221560869Y-90170000D01*
X221681821Y-90242571D01*
X221742297Y-90315142D01*
X221802773Y-90460285D01*
X221802773Y-90678000D01*
X221802773Y-88718571D02*
X221802773Y-89589428D01*
X221802773Y-89154000D02*
X220532773Y-89154000D01*
X220714202Y-89299142D01*
X220835154Y-89444285D01*
X220895630Y-89589428D01*
G04 #@! TD*
M02*
