G04 #@! TF.FileFunction,Legend,Bot*
%FSLAX46Y46*%
G04 Gerber Fmt 4.6, Leading zero omitted, Abs format (unit mm)*
G04 Created by KiCad (PCBNEW 4.0.7) date 09/12/18 16:57:19*
%MOMM*%
%LPD*%
G01*
G04 APERTURE LIST*
%ADD10C,0.100000*%
%ADD11C,0.200000*%
%ADD12C,0.120000*%
%ADD13C,0.150000*%
G04 APERTURE END LIST*
D10*
D11*
X57621404Y-14076450D02*
X57000238Y-16394672D01*
X57790441Y-14121744D02*
X57169275Y-16439966D01*
X57959478Y-14167037D02*
X57338312Y-16485259D01*
X57724683Y-16588787D02*
X58345848Y-14270565D01*
X58128515Y-14212330D02*
X57507349Y-16530552D01*
X58249256Y-14244683D02*
X57628090Y-16562905D01*
X58321700Y-14264094D02*
X52719331Y-12762944D01*
X52719331Y-12762944D02*
X52098165Y-15081166D01*
X52098165Y-15081166D02*
X57700535Y-16582316D01*
X39220517Y-9145947D02*
X38599351Y-11464169D01*
X39389554Y-9191241D02*
X38768388Y-11509463D01*
X39558591Y-9236534D02*
X38937425Y-11554756D01*
X39323796Y-11658284D02*
X39944961Y-9340062D01*
X39727628Y-9281827D02*
X39106462Y-11600049D01*
X39848369Y-9314180D02*
X39227203Y-11632402D01*
X39920813Y-9333591D02*
X34318444Y-7832441D01*
X34318444Y-7832441D02*
X33697278Y-10150663D01*
X33697278Y-10150663D02*
X39299648Y-11651813D01*
X20819630Y-4215445D02*
X20198464Y-6533667D01*
X20988667Y-4260739D02*
X20367501Y-6578961D01*
X21157704Y-4306032D02*
X20536538Y-6624254D01*
X20922909Y-6727782D02*
X21544074Y-4409560D01*
X21326741Y-4351325D02*
X20705575Y-6669547D01*
X21447482Y-4383678D02*
X20826316Y-6701900D01*
X21519926Y-4403089D02*
X15917557Y-2901939D01*
X15917557Y-2901939D02*
X15296391Y-5220161D01*
X15296391Y-5220161D02*
X20898761Y-6721311D01*
X52690901Y-32477337D02*
X52069735Y-34795559D01*
X52859938Y-32522631D02*
X52238772Y-34840853D01*
X53028975Y-32567924D02*
X52407809Y-34886146D01*
X52794180Y-34989674D02*
X53415345Y-32671452D01*
X53198012Y-32613217D02*
X52576846Y-34931439D01*
X53318753Y-32645570D02*
X52697587Y-34963792D01*
X53391197Y-32664981D02*
X47788828Y-31163831D01*
X47788828Y-31163831D02*
X47167662Y-33482053D01*
X47167662Y-33482053D02*
X52770032Y-34983203D01*
X29689793Y-26314209D02*
X29068627Y-28632431D01*
X29858830Y-26359503D02*
X29237664Y-28677725D01*
X30027867Y-26404796D02*
X29406701Y-28723018D01*
X29793072Y-28826546D02*
X30414237Y-26508324D01*
X30196904Y-26450089D02*
X29575738Y-28768311D01*
X30317645Y-26482442D02*
X29696479Y-28800664D01*
X30390089Y-26501853D02*
X24787720Y-25000703D01*
X24787720Y-25000703D02*
X24166554Y-27318925D01*
X24166554Y-27318925D02*
X29768924Y-28820075D01*
X47760399Y-50878224D02*
X47139233Y-53196446D01*
X47929436Y-50923518D02*
X47308270Y-53241740D01*
X48098473Y-50968811D02*
X47477307Y-53287033D01*
X47863678Y-53390561D02*
X48484843Y-51072339D01*
X48267510Y-51014104D02*
X47646344Y-53332326D01*
X48388251Y-51046457D02*
X47767085Y-53364679D01*
X48460695Y-51065868D02*
X42858326Y-49564718D01*
X42858326Y-49564718D02*
X42237160Y-51882940D01*
X42237160Y-51882940D02*
X47839530Y-53384090D01*
X17858957Y-42866157D02*
X17237791Y-45184379D01*
X18027994Y-42911451D02*
X17406828Y-45229673D01*
X18197031Y-42956744D02*
X17575865Y-45274966D01*
X17962236Y-45378494D02*
X18583401Y-43060272D01*
X18366068Y-43002037D02*
X17744902Y-45320259D01*
X18486809Y-43034390D02*
X17865643Y-45352612D01*
X18559253Y-43053801D02*
X12956884Y-41552651D01*
X12956884Y-41552651D02*
X12335718Y-43870873D01*
X12335718Y-43870873D02*
X17938088Y-45372023D01*
X42829896Y-69279111D02*
X42208730Y-71597333D01*
X42998933Y-69324405D02*
X42377767Y-71642627D01*
X43167970Y-69369698D02*
X42546804Y-71687920D01*
X42933175Y-71791448D02*
X43554340Y-69473226D01*
X43337007Y-69414991D02*
X42715841Y-71733213D01*
X43457748Y-69447344D02*
X42836582Y-71765566D01*
X43530192Y-69466755D02*
X37927823Y-67965605D01*
X37927823Y-67965605D02*
X37306657Y-70283827D01*
X37306657Y-70283827D02*
X42909027Y-71784977D01*
X8328233Y-60034418D02*
X7707067Y-62352640D01*
X8497270Y-60079712D02*
X7876104Y-62397934D01*
X8666307Y-60125005D02*
X8045141Y-62443227D01*
X8431512Y-62546755D02*
X9052677Y-60228533D01*
X8835344Y-60170298D02*
X8214178Y-62488520D01*
X8956085Y-60202651D02*
X8334919Y-62520873D01*
X9028529Y-60222062D02*
X3426160Y-58720912D01*
X3426160Y-58720912D02*
X2804994Y-61039134D01*
X2804994Y-61039134D02*
X8407364Y-62540284D01*
X77254917Y-14406731D02*
X76633751Y-16724953D01*
X77423954Y-14452025D02*
X76802788Y-16770247D01*
X77592991Y-14497318D02*
X76971825Y-16815540D01*
X77358196Y-16919068D02*
X77979361Y-14600846D01*
X77762028Y-14542611D02*
X77140862Y-16860833D01*
X77882769Y-14574964D02*
X77261603Y-16893186D01*
X77955213Y-14594375D02*
X72352844Y-13093225D01*
X72352844Y-13093225D02*
X71731678Y-15411447D01*
X71731678Y-15411447D02*
X77334048Y-16912597D01*
X96888430Y-14737012D02*
X96267264Y-17055234D01*
X97057467Y-14782306D02*
X96436301Y-17100528D01*
X97226504Y-14827599D02*
X96605338Y-17145821D01*
X96991709Y-17249349D02*
X97612874Y-14931127D01*
X97395541Y-14872892D02*
X96774375Y-17191114D01*
X97516282Y-14905245D02*
X96895116Y-17223467D01*
X97588726Y-14924656D02*
X91986357Y-13423506D01*
X91986357Y-13423506D02*
X91365191Y-15741728D01*
X91365191Y-15741728D02*
X96967561Y-17242878D01*
X91957927Y-33137899D02*
X91336761Y-35456121D01*
X92126964Y-33183193D02*
X91505798Y-35501415D01*
X92296001Y-33228486D02*
X91674835Y-35546708D01*
X92061206Y-35650236D02*
X92682371Y-33332014D01*
X92465038Y-33273779D02*
X91843872Y-35592001D01*
X92585779Y-33306132D02*
X91964613Y-35624354D01*
X92658223Y-33325543D02*
X87055854Y-31824393D01*
X87055854Y-31824393D02*
X86434688Y-34142615D01*
X86434688Y-34142615D02*
X92037058Y-35643765D01*
X72324414Y-32807618D02*
X71703248Y-35125840D01*
X72493451Y-32852912D02*
X71872285Y-35171134D01*
X72662488Y-32898205D02*
X72041322Y-35216427D01*
X72427693Y-35319955D02*
X73048858Y-33001733D01*
X72831525Y-32943498D02*
X72210359Y-35261720D01*
X72952266Y-32975851D02*
X72331100Y-35294073D01*
X73024710Y-32995262D02*
X67422341Y-31494112D01*
X67422341Y-31494112D02*
X66801175Y-33812334D01*
X66801175Y-33812334D02*
X72403545Y-35313484D01*
X87027424Y-51538786D02*
X86406258Y-53857008D01*
X87196461Y-51584080D02*
X86575295Y-53902302D01*
X87365498Y-51629373D02*
X86744332Y-53947595D01*
X87130703Y-54051123D02*
X87751868Y-51732901D01*
X87534535Y-51674666D02*
X86913369Y-53992888D01*
X87655276Y-51707019D02*
X87034110Y-54025241D01*
X87727720Y-51726430D02*
X82125351Y-50225280D01*
X82125351Y-50225280D02*
X81504185Y-52543502D01*
X81504185Y-52543502D02*
X87106555Y-54044652D01*
X67393911Y-51208505D02*
X66772745Y-53526727D01*
X67562948Y-51253799D02*
X66941782Y-53572021D01*
X67731985Y-51299092D02*
X67110819Y-53617314D01*
X67497190Y-53720842D02*
X68118355Y-51402620D01*
X67901022Y-51344385D02*
X67279856Y-53662607D01*
X68021763Y-51376738D02*
X67400597Y-53694960D01*
X68094207Y-51396149D02*
X62491838Y-49894999D01*
X62491838Y-49894999D02*
X61870672Y-52213221D01*
X61870672Y-52213221D02*
X67473042Y-53714371D01*
X62463408Y-69609392D02*
X61842242Y-71927614D01*
X62632445Y-69654686D02*
X62011279Y-71972908D01*
X62801482Y-69699979D02*
X62180316Y-72018201D01*
X62566687Y-72121729D02*
X63187852Y-69803507D01*
X62970519Y-69745272D02*
X62349353Y-72063494D01*
X63091260Y-69777625D02*
X62470094Y-72095847D01*
X63163704Y-69797036D02*
X57561335Y-68295886D01*
X57561335Y-68295886D02*
X56940169Y-70614108D01*
X56940169Y-70614108D02*
X62542539Y-72115258D01*
X57532906Y-88010279D02*
X56911740Y-90328501D01*
X57701943Y-88055573D02*
X57080777Y-90373795D01*
X57870980Y-88100866D02*
X57249814Y-90419088D01*
X57636185Y-90522616D02*
X58257350Y-88204394D01*
X58040017Y-88146159D02*
X57418851Y-90464381D01*
X58160758Y-88178512D02*
X57539592Y-90496734D01*
X58233202Y-88197923D02*
X52630833Y-86696773D01*
X52630833Y-86696773D02*
X52009667Y-89014995D01*
X52009667Y-89014995D02*
X57612037Y-90516145D01*
X37899393Y-87679998D02*
X37278227Y-89998220D01*
X38068430Y-87725292D02*
X37447264Y-90043514D01*
X38237467Y-87770585D02*
X37616301Y-90088807D01*
X38002672Y-90192335D02*
X38623837Y-87874113D01*
X38406504Y-87815878D02*
X37785338Y-90134100D01*
X38527245Y-87848231D02*
X37906079Y-90166453D01*
X38599689Y-87867642D02*
X32997320Y-86366492D01*
X32997320Y-86366492D02*
X32376154Y-88684714D01*
X32376154Y-88684714D02*
X37978524Y-90185864D01*
X131224952Y-33798461D02*
X130603786Y-36116683D01*
X131393989Y-33843755D02*
X130772823Y-36161977D01*
X131563026Y-33889048D02*
X130941860Y-36207270D01*
X131328231Y-36310798D02*
X131949396Y-33992576D01*
X131732063Y-33934341D02*
X131110897Y-36252563D01*
X131852804Y-33966694D02*
X131231638Y-36284916D01*
X131925248Y-33986105D02*
X126322879Y-32484955D01*
X126322879Y-32484955D02*
X125701713Y-34803177D01*
X125701713Y-34803177D02*
X131304083Y-36304327D01*
X114056691Y-24267737D02*
X113435525Y-26585959D01*
X114225728Y-24313031D02*
X113604562Y-26631253D01*
X114394765Y-24358324D02*
X113773599Y-26676546D01*
X114159970Y-26780074D02*
X114781135Y-24461852D01*
X114563802Y-24403617D02*
X113942636Y-26721839D01*
X114684543Y-24435970D02*
X114063377Y-26754192D01*
X114756987Y-24455381D02*
X109154618Y-22954231D01*
X109154618Y-22954231D02*
X108533452Y-25272453D01*
X108533452Y-25272453D02*
X114135822Y-26773603D01*
X109126188Y-42668624D02*
X108505022Y-44986846D01*
X109295225Y-42713918D02*
X108674059Y-45032140D01*
X109464262Y-42759211D02*
X108843096Y-45077433D01*
X109229467Y-45180961D02*
X109850632Y-42862739D01*
X109633299Y-42804504D02*
X109012133Y-45122726D01*
X109754040Y-42836857D02*
X109132874Y-45155079D01*
X109826484Y-42856268D02*
X104224115Y-41355118D01*
X104224115Y-41355118D02*
X103602949Y-43673340D01*
X103602949Y-43673340D02*
X109205319Y-45174490D01*
X126294449Y-52199348D02*
X125673283Y-54517570D01*
X126463486Y-52244642D02*
X125842320Y-54562864D01*
X126632523Y-52289935D02*
X126011357Y-54608157D01*
X126397728Y-54711685D02*
X127018893Y-52393463D01*
X126801560Y-52335228D02*
X126180394Y-54653450D01*
X126922301Y-52367581D02*
X126301135Y-54685803D01*
X126994745Y-52386992D02*
X121392376Y-50885842D01*
X121392376Y-50885842D02*
X120771210Y-53204064D01*
X120771210Y-53204064D02*
X126373580Y-54705214D01*
X104195685Y-61069511D02*
X103574519Y-63387733D01*
X104364722Y-61114805D02*
X103743556Y-63433027D01*
X104533759Y-61160098D02*
X103912593Y-63478320D01*
X104298964Y-63581848D02*
X104920129Y-61263626D01*
X104702796Y-61205391D02*
X104081630Y-63523613D01*
X104823537Y-61237744D02*
X104202371Y-63555966D01*
X104895981Y-61257155D02*
X99293612Y-59756005D01*
X99293612Y-59756005D02*
X98672446Y-62074227D01*
X98672446Y-62074227D02*
X104274816Y-63575377D01*
X82096921Y-69939673D02*
X81475755Y-72257895D01*
X82265958Y-69984967D02*
X81644792Y-72303189D01*
X82434995Y-70030260D02*
X81813829Y-72348482D01*
X82200200Y-72452010D02*
X82821365Y-70133788D01*
X82604032Y-70075553D02*
X81982866Y-72393775D01*
X82724773Y-70107906D02*
X82103607Y-72426128D01*
X82797217Y-70127317D02*
X77194848Y-68626167D01*
X77194848Y-68626167D02*
X76573682Y-70944389D01*
X76573682Y-70944389D02*
X82176052Y-72445539D01*
X99265182Y-79470398D02*
X98644016Y-81788620D01*
X99434219Y-79515692D02*
X98813053Y-81833914D01*
X99603256Y-79560985D02*
X98982090Y-81879207D01*
X99368461Y-81982735D02*
X99989626Y-79664513D01*
X99772293Y-79606278D02*
X99151127Y-81924500D01*
X99893034Y-79638631D02*
X99271868Y-81956853D01*
X99965478Y-79658042D02*
X94363109Y-78156892D01*
X94363109Y-78156892D02*
X93741943Y-80475114D01*
X93741943Y-80475114D02*
X99344313Y-81976264D01*
X77166418Y-88340560D02*
X76545252Y-90658782D01*
X77335455Y-88385854D02*
X76714289Y-90704076D01*
X77504492Y-88431147D02*
X76883326Y-90749369D01*
X77269697Y-90852897D02*
X77890862Y-88534675D01*
X77673529Y-88476440D02*
X77052363Y-90794662D01*
X77794270Y-88508793D02*
X77173104Y-90827015D01*
X77866714Y-88528204D02*
X72264345Y-87027054D01*
X72264345Y-87027054D02*
X71643179Y-89345276D01*
X71643179Y-89345276D02*
X77245549Y-90846426D01*
X94334680Y-97871285D02*
X93713514Y-100189507D01*
X94503717Y-97916579D02*
X93882551Y-100234801D01*
X94672754Y-97961872D02*
X94051588Y-100280094D01*
X94437959Y-100383622D02*
X95059124Y-98065400D01*
X94841791Y-98007165D02*
X94220625Y-100325387D01*
X94962532Y-98039518D02*
X94341366Y-100357740D01*
X95034976Y-98058929D02*
X89432607Y-96557779D01*
X89432607Y-96557779D02*
X88811441Y-98876001D01*
X88811441Y-98876001D02*
X94413811Y-100377151D01*
X143462711Y-61730073D02*
X142841545Y-64048295D01*
X143631748Y-61775367D02*
X143010582Y-64093589D01*
X143800785Y-61820660D02*
X143179619Y-64138882D01*
X143565990Y-64242410D02*
X144187155Y-61924188D01*
X143969822Y-61865953D02*
X143348656Y-64184175D01*
X144090563Y-61898306D02*
X143469397Y-64216528D01*
X144163007Y-61917717D02*
X138560638Y-60416567D01*
X138560638Y-60416567D02*
X137939472Y-62734789D01*
X137939472Y-62734789D02*
X143541842Y-64235939D01*
X121363947Y-70600235D02*
X120742781Y-72918457D01*
X121532984Y-70645529D02*
X120911818Y-72963751D01*
X121702021Y-70690822D02*
X121080855Y-73009044D01*
X121467226Y-73112572D02*
X122088391Y-70794350D01*
X121871058Y-70736115D02*
X121249892Y-73054337D01*
X121991799Y-70768468D02*
X121370633Y-73086690D01*
X122064243Y-70787879D02*
X116461874Y-69286729D01*
X116461874Y-69286729D02*
X115840708Y-71604951D01*
X115840708Y-71604951D02*
X121443078Y-73106101D01*
X138532208Y-80130960D02*
X137911042Y-82449182D01*
X138701245Y-80176254D02*
X138080079Y-82494476D01*
X138870282Y-80221547D02*
X138249116Y-82539769D01*
X138635487Y-82643297D02*
X139256652Y-80325075D01*
X139039319Y-80266840D02*
X138418153Y-82585062D01*
X139160060Y-80299193D02*
X138538894Y-82617415D01*
X139232504Y-80318604D02*
X133630135Y-78817454D01*
X133630135Y-78817454D02*
X133008969Y-81135676D01*
X133008969Y-81135676D02*
X138611339Y-82636826D01*
X116433444Y-89001122D02*
X115812278Y-91319344D01*
X116602481Y-89046416D02*
X115981315Y-91364638D01*
X116771518Y-89091709D02*
X116150352Y-91409931D01*
X116536723Y-91513459D02*
X117157888Y-89195237D01*
X116940555Y-89137002D02*
X116319389Y-91455224D01*
X117061296Y-89169355D02*
X116440130Y-91487577D01*
X117133740Y-89188766D02*
X111531371Y-87687616D01*
X111531371Y-87687616D02*
X110910205Y-90005838D01*
X110910205Y-90005838D02*
X116512575Y-91506988D01*
X111502941Y-107402009D02*
X110881775Y-109720231D01*
X111671978Y-107447303D02*
X111050812Y-109765525D01*
X111841015Y-107492596D02*
X111219849Y-109810818D01*
X111606220Y-109914346D02*
X112227385Y-107596124D01*
X112010052Y-107537889D02*
X111388886Y-109856111D01*
X112130793Y-107570242D02*
X111509627Y-109888464D01*
X112203237Y-107589653D02*
X106600868Y-106088503D01*
X106600868Y-106088503D02*
X105979702Y-108406725D01*
X105979702Y-108406725D02*
X111582072Y-109907875D01*
X136159593Y-121913765D02*
X133841371Y-121292599D01*
X136114299Y-122082802D02*
X133796077Y-121461636D01*
X136069006Y-122251839D02*
X133750784Y-121630673D01*
X133647256Y-122017044D02*
X135965478Y-122638209D01*
X136023713Y-122420876D02*
X133705491Y-121799710D01*
X135991360Y-122541617D02*
X133673138Y-121920451D01*
X135971949Y-122614061D02*
X137473099Y-117011692D01*
X137473099Y-117011692D02*
X135154877Y-116390526D01*
X135154877Y-116390526D02*
X133653727Y-121992896D01*
X161971268Y-64069876D02*
X161350102Y-61751654D01*
X161802231Y-64115170D02*
X161181065Y-61796948D01*
X161633194Y-64160463D02*
X161012028Y-61842241D01*
X160625658Y-61945769D02*
X161246823Y-64263991D01*
X161464157Y-64205756D02*
X160842991Y-61887534D01*
X161343416Y-64238109D02*
X160722250Y-61919887D01*
X161270971Y-64257520D02*
X166873341Y-62756370D01*
X166873341Y-62756370D02*
X166252175Y-60438148D01*
X166252175Y-60438148D02*
X160649806Y-61939298D01*
X184070033Y-72940039D02*
X183448867Y-70621817D01*
X183900996Y-72985333D02*
X183279830Y-70667111D01*
X183731959Y-73030626D02*
X183110793Y-70712404D01*
X182724423Y-70815932D02*
X183345588Y-73134154D01*
X183562922Y-73075919D02*
X182941756Y-70757697D01*
X183442181Y-73108272D02*
X182821015Y-70790050D01*
X183369736Y-73127683D02*
X188972106Y-71626533D01*
X188972106Y-71626533D02*
X188350940Y-69308311D01*
X188350940Y-69308311D02*
X182748571Y-70809461D01*
X166901771Y-82470763D02*
X166280605Y-80152541D01*
X166732734Y-82516057D02*
X166111568Y-80197835D01*
X166563697Y-82561350D02*
X165942531Y-80243128D01*
X165556161Y-80346656D02*
X166177326Y-82664878D01*
X166394660Y-82606643D02*
X165773494Y-80288421D01*
X166273919Y-82638996D02*
X165652753Y-80320774D01*
X166201474Y-82658407D02*
X171803844Y-81157257D01*
X171803844Y-81157257D02*
X171182678Y-78839035D01*
X171182678Y-78839035D02*
X165580309Y-80340185D01*
X189000535Y-91340926D02*
X188379369Y-89022704D01*
X188831498Y-91386220D02*
X188210332Y-89067998D01*
X188662461Y-91431513D02*
X188041295Y-89113291D01*
X187654925Y-89216819D02*
X188276090Y-91535041D01*
X188493424Y-91476806D02*
X187872258Y-89158584D01*
X188372683Y-91509159D02*
X187751517Y-89190937D01*
X188300238Y-91528570D02*
X193902608Y-90027420D01*
X193902608Y-90027420D02*
X193281442Y-87709198D01*
X193281442Y-87709198D02*
X187679073Y-89210348D01*
X193931038Y-109741813D02*
X193309872Y-107423591D01*
X193762001Y-109787107D02*
X193140835Y-107468885D01*
X193592964Y-109832400D02*
X192971798Y-107514178D01*
X192585428Y-107617706D02*
X193206593Y-109935928D01*
X193423927Y-109877693D02*
X192802761Y-107559471D01*
X193303186Y-109910046D02*
X192682020Y-107591824D01*
X193230741Y-109929457D02*
X198833111Y-108428307D01*
X198833111Y-108428307D02*
X198211945Y-106110085D01*
X198211945Y-106110085D02*
X192609576Y-107611235D01*
X170990360Y-121195442D02*
X168672138Y-121816608D01*
X171035654Y-121364479D02*
X168717432Y-121985645D01*
X171080947Y-121533516D02*
X168762725Y-122154682D01*
X168866253Y-122541052D02*
X171184475Y-121919887D01*
X171126240Y-121702553D02*
X168808018Y-122323719D01*
X171158593Y-121823294D02*
X168840371Y-122444460D01*
X171178004Y-121895739D02*
X169676854Y-116293369D01*
X169676854Y-116293369D02*
X167358632Y-116914535D01*
X167358632Y-116914535D02*
X168859782Y-122516904D01*
X174209027Y-36138265D02*
X173587861Y-33820043D01*
X174039990Y-36183559D02*
X173418824Y-33865337D01*
X173870953Y-36228852D02*
X173249787Y-33910630D01*
X172863417Y-34014158D02*
X173484582Y-36332380D01*
X173701916Y-36274145D02*
X173080750Y-33955923D01*
X173581175Y-36306498D02*
X172960009Y-33988276D01*
X173508730Y-36325909D02*
X179111100Y-34824759D01*
X179111100Y-34824759D02*
X178489934Y-32506537D01*
X178489934Y-32506537D02*
X172887565Y-34007687D01*
X191377288Y-26607540D02*
X190756122Y-24289318D01*
X191208251Y-26652834D02*
X190587085Y-24334612D01*
X191039214Y-26698127D02*
X190418048Y-24379905D01*
X190031678Y-24483433D02*
X190652843Y-26801655D01*
X190870177Y-26743420D02*
X190249011Y-24425198D01*
X190749436Y-26775773D02*
X190128270Y-24457551D01*
X190676991Y-26795184D02*
X196279361Y-25294034D01*
X196279361Y-25294034D02*
X195658195Y-22975812D01*
X195658195Y-22975812D02*
X190055826Y-24476962D01*
X196307791Y-45008427D02*
X195686625Y-42690205D01*
X196138754Y-45053721D02*
X195517588Y-42735499D01*
X195969717Y-45099014D02*
X195348551Y-42780792D01*
X194962181Y-42884320D02*
X195583346Y-45202542D01*
X195800680Y-45144307D02*
X195179514Y-42826085D01*
X195679939Y-45176660D02*
X195058773Y-42858438D01*
X195607494Y-45196071D02*
X201209864Y-43694921D01*
X201209864Y-43694921D02*
X200588698Y-41376699D01*
X200588698Y-41376699D02*
X194986329Y-42877849D01*
X179139530Y-54539152D02*
X178518364Y-52220930D01*
X178970493Y-54584446D02*
X178349327Y-52266224D01*
X178801456Y-54629739D02*
X178180290Y-52311517D01*
X177793920Y-52415045D02*
X178415085Y-54733267D01*
X178632419Y-54675032D02*
X178011253Y-52356810D01*
X178511678Y-54707385D02*
X177890512Y-52389163D01*
X178439233Y-54726796D02*
X184041603Y-53225646D01*
X184041603Y-53225646D02*
X183420437Y-50907424D01*
X183420437Y-50907424D02*
X177818068Y-52408574D01*
X201238294Y-63409314D02*
X200617128Y-61091092D01*
X201069257Y-63454608D02*
X200448091Y-61136386D01*
X200900220Y-63499901D02*
X200279054Y-61181679D01*
X199892684Y-61285207D02*
X200513849Y-63603429D01*
X200731183Y-63545194D02*
X200110017Y-61226972D01*
X200610442Y-63577547D02*
X199989276Y-61259325D01*
X200537997Y-63596958D02*
X206140367Y-62095808D01*
X206140367Y-62095808D02*
X205519201Y-59777586D01*
X205519201Y-59777586D02*
X199916832Y-61278736D01*
X223337058Y-72279477D02*
X222715892Y-69961255D01*
X223168021Y-72324771D02*
X222546855Y-70006549D01*
X222998984Y-72370064D02*
X222377818Y-70051842D01*
X221991448Y-70155370D02*
X222612613Y-72473592D01*
X222829947Y-72415357D02*
X222208781Y-70097135D01*
X222709206Y-72447710D02*
X222088040Y-70129488D01*
X222636761Y-72467121D02*
X228239131Y-70965971D01*
X228239131Y-70965971D02*
X227617965Y-68647749D01*
X227617965Y-68647749D02*
X222015596Y-70148899D01*
X206168797Y-81810201D02*
X205547631Y-79491979D01*
X205999760Y-81855495D02*
X205378594Y-79537273D01*
X205830723Y-81900788D02*
X205209557Y-79582566D01*
X204823187Y-79686094D02*
X205444352Y-82004316D01*
X205661686Y-81946081D02*
X205040520Y-79627859D01*
X205540945Y-81978434D02*
X204919779Y-79660212D01*
X205468500Y-81997845D02*
X211070870Y-80496695D01*
X211070870Y-80496695D02*
X210449704Y-78178473D01*
X210449704Y-78178473D02*
X204847335Y-79679623D01*
X228267561Y-90680364D02*
X227646395Y-88362142D01*
X228098524Y-90725658D02*
X227477358Y-88407436D01*
X227929487Y-90770951D02*
X227308321Y-88452729D01*
X226921951Y-88556257D02*
X227543116Y-90874479D01*
X227760450Y-90816244D02*
X227139284Y-88498022D01*
X227639709Y-90848597D02*
X227018543Y-88530375D01*
X227567264Y-90868008D02*
X233169634Y-89366858D01*
X233169634Y-89366858D02*
X232548468Y-87048636D01*
X232548468Y-87048636D02*
X226946099Y-88549786D01*
X211099299Y-100211088D02*
X210478133Y-97892866D01*
X210930262Y-100256382D02*
X210309096Y-97938160D01*
X210761225Y-100301675D02*
X210140059Y-97983453D01*
X209753689Y-98086981D02*
X210374854Y-100405203D01*
X210592188Y-100346968D02*
X209971022Y-98028746D01*
X210471447Y-100379321D02*
X209850281Y-98061099D01*
X210399002Y-100398732D02*
X216001372Y-98897582D01*
X216001372Y-98897582D02*
X215380206Y-96579360D01*
X215380206Y-96579360D02*
X209777837Y-98080510D01*
X228179062Y-16746535D02*
X227557896Y-14428313D01*
X228010025Y-16791829D02*
X227388859Y-14473607D01*
X227840988Y-16837122D02*
X227219822Y-14518900D01*
X226833452Y-14622428D02*
X227454617Y-16940650D01*
X227671951Y-16882415D02*
X227050785Y-14564193D01*
X227551210Y-16914768D02*
X226930044Y-14596546D01*
X227478765Y-16934179D02*
X233081135Y-15433029D01*
X233081135Y-15433029D02*
X232459969Y-13114807D01*
X232459969Y-13114807D02*
X226857600Y-14615957D01*
X208545550Y-17076816D02*
X207924384Y-14758594D01*
X208376513Y-17122110D02*
X207755347Y-14803888D01*
X208207476Y-17167403D02*
X207586310Y-14849181D01*
X207199940Y-14952709D02*
X207821105Y-17270931D01*
X208038439Y-17212696D02*
X207417273Y-14894474D01*
X207917698Y-17245049D02*
X207296532Y-14926827D01*
X207845253Y-17264460D02*
X213447623Y-15763310D01*
X213447623Y-15763310D02*
X212826457Y-13445088D01*
X212826457Y-13445088D02*
X207224088Y-14946238D01*
X213476052Y-35477703D02*
X212854886Y-33159481D01*
X213307015Y-35522997D02*
X212685849Y-33204775D01*
X213137978Y-35568290D02*
X212516812Y-33250068D01*
X212130442Y-33353596D02*
X212751607Y-35671818D01*
X212968941Y-35613583D02*
X212347775Y-33295361D01*
X212848200Y-35645936D02*
X212227034Y-33327714D01*
X212775755Y-35665347D02*
X218378125Y-34164197D01*
X218378125Y-34164197D02*
X217756959Y-31845975D01*
X217756959Y-31845975D02*
X212154590Y-33347125D01*
X233109565Y-35147422D02*
X232488399Y-32829200D01*
X232940528Y-35192716D02*
X232319362Y-32874494D01*
X232771491Y-35238009D02*
X232150325Y-32919787D01*
X231763955Y-33023315D02*
X232385120Y-35341537D01*
X232602454Y-35283302D02*
X231981288Y-32965080D01*
X232481713Y-35315655D02*
X231860547Y-32997433D01*
X232409268Y-35335066D02*
X238011638Y-33833916D01*
X238011638Y-33833916D02*
X237390472Y-31515694D01*
X237390472Y-31515694D02*
X231788103Y-33016844D01*
X218406555Y-53878590D02*
X217785389Y-51560368D01*
X218237518Y-53923884D02*
X217616352Y-51605662D01*
X218068481Y-53969177D02*
X217447315Y-51650955D01*
X217060945Y-51754483D02*
X217682110Y-54072705D01*
X217899444Y-54014470D02*
X217278278Y-51696248D01*
X217778703Y-54046823D02*
X217157537Y-51728601D01*
X217706258Y-54066234D02*
X223308628Y-52565084D01*
X223308628Y-52565084D02*
X222687462Y-50246862D01*
X222687462Y-50246862D02*
X217085093Y-51748012D01*
X238040068Y-53548309D02*
X237418902Y-51230087D01*
X237871031Y-53593603D02*
X237249865Y-51275381D01*
X237701994Y-53638896D02*
X237080828Y-51320674D01*
X236694458Y-51424202D02*
X237315623Y-53742424D01*
X237532957Y-53684189D02*
X236911791Y-51365967D01*
X237412216Y-53716542D02*
X236791050Y-51398320D01*
X237339771Y-53735953D02*
X242942141Y-52234803D01*
X242942141Y-52234803D02*
X242320975Y-49916581D01*
X242320975Y-49916581D02*
X236718606Y-51417731D01*
X242970571Y-71949196D02*
X242349405Y-69630974D01*
X242801534Y-71994490D02*
X242180368Y-69676268D01*
X242632497Y-72039783D02*
X242011331Y-69721561D01*
X241624961Y-69825089D02*
X242246126Y-72143311D01*
X242463460Y-72085076D02*
X241842294Y-69766854D01*
X242342719Y-72117429D02*
X241721553Y-69799207D01*
X242270274Y-72136840D02*
X247872644Y-70635690D01*
X247872644Y-70635690D02*
X247251478Y-68317468D01*
X247251478Y-68317468D02*
X241649109Y-69818618D01*
X247901073Y-90350083D02*
X247279907Y-88031861D01*
X247732036Y-90395377D02*
X247110870Y-88077155D01*
X247562999Y-90440670D02*
X246941833Y-88122448D01*
X246555463Y-88225976D02*
X247176628Y-90544198D01*
X247393962Y-90485963D02*
X246772796Y-88167741D01*
X247273221Y-90518316D02*
X246652055Y-88200094D01*
X247200776Y-90537727D02*
X252803146Y-89036577D01*
X252803146Y-89036577D02*
X252181980Y-86718355D01*
X252181980Y-86718355D02*
X246579611Y-88219505D01*
X267534586Y-90019802D02*
X266913420Y-87701580D01*
X267365549Y-90065096D02*
X266744383Y-87746874D01*
X267196512Y-90110389D02*
X266575346Y-87792167D01*
X266188976Y-87895695D02*
X266810141Y-90213917D01*
X267027475Y-90155682D02*
X266406309Y-87837460D01*
X266906734Y-90188035D02*
X266285568Y-87869813D01*
X266834289Y-90207446D02*
X272436659Y-88706296D01*
X272436659Y-88706296D02*
X271815493Y-86388074D01*
X271815493Y-86388074D02*
X266213124Y-87889224D01*
X247812575Y-16416254D02*
X247191409Y-14098032D01*
X247643538Y-16461548D02*
X247022372Y-14143326D01*
X247474501Y-16506841D02*
X246853335Y-14188619D01*
X246466965Y-14292147D02*
X247088130Y-16610369D01*
X247305464Y-16552134D02*
X246684298Y-14233912D01*
X247184723Y-16584487D02*
X246563557Y-14266265D01*
X247112278Y-16603898D02*
X252714648Y-15102748D01*
X252714648Y-15102748D02*
X252093482Y-12784526D01*
X252093482Y-12784526D02*
X246491113Y-14285676D01*
X275413905Y-9020499D02*
X274792739Y-6702277D01*
X275244868Y-9065793D02*
X274623702Y-6747571D01*
X275075831Y-9111086D02*
X274454665Y-6792864D01*
X274068295Y-6896392D02*
X274689460Y-9214614D01*
X274906794Y-9156379D02*
X274285628Y-6838157D01*
X274786053Y-9188732D02*
X274164887Y-6870510D01*
X274713608Y-9208143D02*
X280315978Y-7706993D01*
X280315978Y-7706993D02*
X279694812Y-5388771D01*
X279694812Y-5388771D02*
X274092443Y-6889921D01*
X275744186Y-28654012D02*
X275123020Y-26335790D01*
X275575149Y-28699306D02*
X274953983Y-26381084D01*
X275406112Y-28744599D02*
X274784946Y-26426377D01*
X274398576Y-26529905D02*
X275019741Y-28848127D01*
X275237075Y-28789892D02*
X274615909Y-26471670D01*
X275116334Y-28822245D02*
X274495168Y-26504023D01*
X275043889Y-28841656D02*
X280646259Y-27340506D01*
X280646259Y-27340506D02*
X280025093Y-25022284D01*
X280025093Y-25022284D02*
X274422724Y-26523434D01*
X252743078Y-34817141D02*
X252121912Y-32498919D01*
X252574041Y-34862435D02*
X251952875Y-32544213D01*
X252405004Y-34907728D02*
X251783838Y-32589506D01*
X251397468Y-32693034D02*
X252018633Y-35011256D01*
X252235967Y-34953021D02*
X251614801Y-32634799D01*
X252115226Y-34985374D02*
X251494060Y-32667152D01*
X252042781Y-35004785D02*
X257645151Y-33503635D01*
X257645151Y-33503635D02*
X257023985Y-31185413D01*
X257023985Y-31185413D02*
X251421616Y-32686563D01*
X287575022Y-45205961D02*
X286953856Y-42887739D01*
X287405985Y-45251255D02*
X286784819Y-42933033D01*
X287236948Y-45296548D02*
X286615782Y-42978326D01*
X286229412Y-43081854D02*
X286850577Y-45400076D01*
X287067911Y-45341841D02*
X286446745Y-43023619D01*
X286947170Y-45374194D02*
X286326004Y-43055972D01*
X286874725Y-45393605D02*
X292477095Y-43892455D01*
X292477095Y-43892455D02*
X291855929Y-41574233D01*
X291855929Y-41574233D02*
X286253560Y-43075383D01*
X257673581Y-53218028D02*
X257052415Y-50899806D01*
X257504544Y-53263322D02*
X256883378Y-50945100D01*
X257335507Y-53308615D02*
X256714341Y-50990393D01*
X256327971Y-51093921D02*
X256949136Y-53412143D01*
X257166470Y-53353908D02*
X256545304Y-51035686D01*
X257045729Y-53386261D02*
X256424563Y-51068039D01*
X256973284Y-53405672D02*
X262575654Y-51904522D01*
X262575654Y-51904522D02*
X261954488Y-49586300D01*
X261954488Y-49586300D02*
X256352119Y-51087450D01*
X262604083Y-71618915D02*
X261982917Y-69300693D01*
X262435046Y-71664209D02*
X261813880Y-69345987D01*
X262266009Y-71709502D02*
X261644843Y-69391280D01*
X261258473Y-69494808D02*
X261879638Y-71813030D01*
X262096972Y-71754795D02*
X261475806Y-69436573D01*
X261976231Y-71787148D02*
X261355065Y-69468926D01*
X261903786Y-71806559D02*
X267506156Y-70305409D01*
X267506156Y-70305409D02*
X266884990Y-67987187D01*
X266884990Y-67987187D02*
X261282621Y-69488337D01*
X287905303Y-64839473D02*
X287284137Y-62521251D01*
X287736266Y-64884767D02*
X287115100Y-62566545D01*
X287567229Y-64930060D02*
X286946063Y-62611838D01*
X286559693Y-62715366D02*
X287180858Y-65033588D01*
X287398192Y-64975353D02*
X286777026Y-62657131D01*
X287277451Y-65007706D02*
X286656285Y-62689484D01*
X287205006Y-65027117D02*
X292807376Y-63525967D01*
X292807376Y-63525967D02*
X292186210Y-61207745D01*
X292186210Y-61207745D02*
X286583841Y-62708895D01*
X313206523Y-58060032D02*
X312585357Y-55741810D01*
X313037486Y-58105326D02*
X312416320Y-55787104D01*
X312868449Y-58150619D02*
X312247283Y-55832397D01*
X311860913Y-55935925D02*
X312482078Y-58254147D01*
X312699412Y-58195912D02*
X312078246Y-55877690D01*
X312578671Y-58228265D02*
X311957505Y-55910043D01*
X312506226Y-58247676D02*
X318108596Y-56746526D01*
X318108596Y-56746526D02*
X317487430Y-54428304D01*
X317487430Y-54428304D02*
X311885061Y-55929454D01*
D12*
X134431250Y-27293750D02*
X134431250Y-25593750D01*
X134431250Y-25593750D02*
X134431250Y-25093750D01*
X134431250Y-25093750D02*
X137031250Y-25093750D01*
X137031250Y-25093750D02*
X137031250Y-27293750D01*
X137031250Y-27293750D02*
X134431250Y-27293750D01*
X134590000Y-20785000D02*
X134590000Y-19085000D01*
X134590000Y-19085000D02*
X134590000Y-18585000D01*
X134590000Y-18585000D02*
X137190000Y-18585000D01*
X137190000Y-18585000D02*
X137190000Y-20785000D01*
X137190000Y-20785000D02*
X134590000Y-20785000D01*
X167610000Y-27770000D02*
X167610000Y-26070000D01*
X167610000Y-26070000D02*
X167610000Y-25570000D01*
X167610000Y-25570000D02*
X170210000Y-25570000D01*
X170210000Y-25570000D02*
X170210000Y-27770000D01*
X170210000Y-27770000D02*
X167610000Y-27770000D01*
X169750000Y-19131250D02*
X170200000Y-18681250D01*
X173150000Y-19131250D02*
X172700000Y-18681250D01*
X173150000Y-23731250D02*
X172700000Y-24181250D01*
X169750000Y-23731250D02*
X170200000Y-24181250D01*
X174200000Y-22431250D02*
X174200000Y-20431250D01*
X170200000Y-18681250D02*
X172700000Y-18681250D01*
X168700000Y-22431250D02*
X168700000Y-20431250D01*
X170200000Y-24181250D02*
X172700000Y-24181250D01*
D11*
X232442792Y-82660207D02*
X232183973Y-81694282D01*
X231890834Y-82808104D02*
X232156906Y-82145224D01*
X231632015Y-81842178D02*
X232331870Y-82246240D01*
X231731498Y-82949396D02*
X230995554Y-83146591D01*
X230164315Y-83172126D02*
X230222636Y-83205798D01*
X230372950Y-83214820D01*
X230464943Y-83190170D01*
X230590608Y-83107200D01*
X230657952Y-82990557D01*
X230679299Y-82886240D01*
X230675996Y-82689929D01*
X230639022Y-82551939D01*
X230543727Y-82380278D01*
X230473081Y-82300610D01*
X230356439Y-82233267D01*
X230206124Y-82224245D01*
X230114131Y-82248894D01*
X229988466Y-82331865D01*
X229954795Y-82390186D01*
X229637007Y-83412015D02*
X229716675Y-83341369D01*
X229750347Y-83283048D01*
X229771694Y-83178731D01*
X229697746Y-82902751D01*
X229627100Y-82823083D01*
X229568779Y-82789411D01*
X229464461Y-82768064D01*
X229326471Y-82805039D01*
X229246803Y-82875684D01*
X229213131Y-82934006D01*
X229191784Y-83038323D01*
X229265732Y-83314303D01*
X229336378Y-83393971D01*
X229394699Y-83427643D01*
X229499017Y-83448990D01*
X229637007Y-83412015D01*
X228901064Y-83609211D02*
X228728517Y-82965260D01*
X228753167Y-83057253D02*
X228694846Y-83023581D01*
X228590528Y-83002234D01*
X228452538Y-83039208D01*
X228372870Y-83109854D01*
X228351523Y-83214172D01*
X228487095Y-83720133D01*
X228351523Y-83214172D02*
X228280877Y-83134504D01*
X228176559Y-83113157D01*
X228038570Y-83150131D01*
X227958902Y-83220776D01*
X227937555Y-83325094D01*
X228073127Y-83831056D01*
X227613163Y-83954303D02*
X227440617Y-83310352D01*
X227465266Y-83402345D02*
X227406945Y-83368673D01*
X227302627Y-83347326D01*
X227164637Y-83384300D01*
X227084969Y-83454946D01*
X227063622Y-83559264D01*
X227199194Y-84065225D01*
X227063622Y-83559264D02*
X226992976Y-83479595D01*
X226888659Y-83458248D01*
X226750669Y-83495223D01*
X226671001Y-83565868D01*
X226649654Y-83670186D01*
X226785226Y-84176148D01*
X225911293Y-84410317D02*
X225775721Y-83904356D01*
X225797068Y-83800038D01*
X225876736Y-83729392D01*
X226060723Y-83680093D01*
X226165041Y-83701440D01*
X225898968Y-84364321D02*
X226003286Y-84385668D01*
X226233269Y-84324044D01*
X226312937Y-84253398D01*
X226334284Y-84149081D01*
X226309635Y-84057088D01*
X226238989Y-83977420D01*
X226134671Y-83956073D01*
X225904688Y-84017696D01*
X225800371Y-83996349D01*
X224945367Y-84669136D02*
X225497325Y-84521240D01*
X225221347Y-84595188D02*
X224962528Y-83629262D01*
X225091495Y-83742602D01*
X225208137Y-83809945D01*
X225312455Y-83831292D01*
X321001357Y-68792016D02*
X320742538Y-67826090D01*
X320449399Y-68939913D02*
X320715471Y-68277032D01*
X320190580Y-67973987D02*
X320890435Y-68378048D01*
X320290063Y-69081204D02*
X319554119Y-69278400D01*
X318747530Y-69395927D02*
X318946258Y-68849689D01*
X319299488Y-69248030D02*
X319040669Y-68282105D01*
X318672696Y-68380703D01*
X318593028Y-68451348D01*
X318559357Y-68509669D01*
X318538010Y-68613987D01*
X318574984Y-68751976D01*
X318645630Y-68831644D01*
X318703951Y-68865316D01*
X318808268Y-68886663D01*
X319176241Y-68788065D01*
X317876014Y-69087161D02*
X318197990Y-69000888D01*
X318333562Y-69506849D02*
X318074743Y-68540924D01*
X317614778Y-68664171D01*
X317333079Y-69084744D02*
X317505625Y-69728694D01*
X317357729Y-69176736D02*
X317299408Y-69143065D01*
X317195090Y-69121718D01*
X317057100Y-69158692D01*
X316977432Y-69229338D01*
X316956085Y-69333655D01*
X317091657Y-69839617D01*
X316125731Y-70098436D02*
X316677689Y-69950539D01*
X316401710Y-70024488D02*
X316142891Y-69058562D01*
X316271858Y-69171902D01*
X316388501Y-69239245D01*
X316492818Y-69260592D01*
X5496722Y-74694656D02*
X5755542Y-73728730D01*
X4944764Y-74546759D02*
X5506630Y-74105723D01*
X5203583Y-73580833D02*
X5607645Y-74280688D01*
X4736129Y-74589453D02*
X4000186Y-74392257D01*
X3334888Y-74115394D02*
X3794853Y-74238641D01*
X4053672Y-73272715D01*
X3071234Y-73995449D02*
X2920920Y-74004471D01*
X2690937Y-73942848D01*
X2611269Y-73872202D01*
X2577597Y-73813881D01*
X2556250Y-73709563D01*
X2580899Y-73617570D01*
X2651545Y-73537902D01*
X2709866Y-73504230D01*
X2814184Y-73482882D01*
X3010496Y-73486185D01*
X3114813Y-73464838D01*
X3173134Y-73431166D01*
X3243780Y-73351498D01*
X3268429Y-73259505D01*
X3247082Y-73155188D01*
X3213411Y-73096867D01*
X3133743Y-73026221D01*
X2903759Y-72964597D01*
X2753446Y-72973619D01*
X2092983Y-73782626D02*
X2351802Y-72816701D01*
X1679015Y-73671704D02*
X1814587Y-73165742D01*
X1885232Y-73086074D01*
X1989550Y-73064727D01*
X2127540Y-73101702D01*
X2207208Y-73172347D01*
X2240880Y-73230668D01*
X1219050Y-73548457D02*
X1391597Y-72904506D01*
X1477869Y-72582531D02*
X1511541Y-72640852D01*
X1453220Y-72674524D01*
X1419548Y-72616203D01*
X1477869Y-72582531D01*
X1453220Y-72674524D01*
X1069622Y-72818233D02*
X701650Y-72719635D01*
X759086Y-73425210D02*
X980931Y-72597273D01*
X959584Y-72492956D01*
X879916Y-72422310D01*
X787923Y-72397660D01*
X517664Y-72670336D02*
X149692Y-72571739D01*
X465947Y-72311387D02*
X244102Y-73139324D01*
X173456Y-73218992D01*
X69139Y-73240339D01*
X-22854Y-73215690D01*
X-850791Y-72993844D02*
X-298833Y-73141741D01*
X-574812Y-73067793D02*
X-315993Y-72101867D01*
X-260974Y-72264506D01*
X-193631Y-72381148D01*
X-113963Y-72451794D01*
D13*
X55091801Y-17008555D02*
X55298856Y-16235814D01*
X55114871Y-16186515D01*
X54994619Y-16193733D01*
X54901305Y-16247607D01*
X54844788Y-16311342D01*
X54768552Y-16448671D01*
X54738973Y-16559063D01*
X54736331Y-16716112D01*
X54753408Y-16799565D01*
X54807283Y-16892880D01*
X54907815Y-16959256D01*
X55091801Y-17008555D01*
X53914291Y-16693042D02*
X54355857Y-16811359D01*
X54135075Y-16752201D02*
X54342130Y-15979460D01*
X54386145Y-16109570D01*
X54440020Y-16202885D01*
X54503754Y-16259401D01*
X36690914Y-12078052D02*
X36897969Y-11305311D01*
X36713984Y-11256012D01*
X36593732Y-11263230D01*
X36500418Y-11317104D01*
X36443901Y-11380839D01*
X36367665Y-11518168D01*
X36338086Y-11628560D01*
X36335444Y-11785609D01*
X36352521Y-11869062D01*
X36406396Y-11962377D01*
X36506928Y-12028753D01*
X36690914Y-12078052D01*
X36142306Y-11181710D02*
X36115369Y-11135053D01*
X36051634Y-11078536D01*
X35867648Y-11029237D01*
X35784195Y-11046315D01*
X35737537Y-11073252D01*
X35681020Y-11136987D01*
X35661301Y-11210581D01*
X35668518Y-11330832D01*
X35991767Y-11890716D01*
X35513404Y-11762539D01*
X18290027Y-7147550D02*
X18497082Y-6374809D01*
X18313097Y-6325510D01*
X18192845Y-6332728D01*
X18099531Y-6386602D01*
X18043014Y-6450337D01*
X17966778Y-6587666D01*
X17937199Y-6698058D01*
X17934557Y-6855107D01*
X17951634Y-6938560D01*
X18005509Y-7031875D01*
X18106041Y-7098251D01*
X18290027Y-7147550D01*
X17797936Y-6187473D02*
X17319572Y-6059296D01*
X17498275Y-6422692D01*
X17387883Y-6393113D01*
X17304429Y-6410190D01*
X17257772Y-6437127D01*
X17201255Y-6500863D01*
X17151956Y-6684848D01*
X17169034Y-6768302D01*
X17195972Y-6814960D01*
X17259706Y-6871476D01*
X17480490Y-6930635D01*
X17563943Y-6913557D01*
X17610600Y-6886619D01*
X50161298Y-35409442D02*
X50368353Y-34636701D01*
X50184368Y-34587402D01*
X50064116Y-34594620D01*
X49970802Y-34648494D01*
X49914285Y-34712229D01*
X49838049Y-34849558D01*
X49808470Y-34959950D01*
X49805828Y-35116999D01*
X49822905Y-35200452D01*
X49876780Y-35293767D01*
X49977312Y-35360143D01*
X50161298Y-35409442D01*
X49195420Y-34598488D02*
X49057383Y-35113649D01*
X49458284Y-34353410D02*
X49494373Y-34954666D01*
X49016010Y-34826489D01*
X27160190Y-29246314D02*
X27367245Y-28473573D01*
X27183260Y-28424274D01*
X27063008Y-28431492D01*
X26969694Y-28485366D01*
X26913177Y-28549101D01*
X26836941Y-28686430D01*
X26807362Y-28796822D01*
X26804720Y-28953871D01*
X26821797Y-29037324D01*
X26875672Y-29130639D01*
X26976204Y-29197015D01*
X27160190Y-29246314D01*
X26226532Y-28167920D02*
X26594505Y-28266518D01*
X26532704Y-28644349D01*
X26505767Y-28597692D01*
X26442032Y-28541176D01*
X26258046Y-28491877D01*
X26174592Y-28508954D01*
X26127935Y-28535891D01*
X26071418Y-28599627D01*
X26022119Y-28783612D01*
X26039197Y-28867066D01*
X26066135Y-28913724D01*
X26129869Y-28970240D01*
X26313855Y-29019539D01*
X26397309Y-29002462D01*
X26443966Y-28975523D01*
X45230796Y-53810329D02*
X45437851Y-53037588D01*
X45253866Y-52988289D01*
X45133614Y-52995507D01*
X45040300Y-53049381D01*
X44983783Y-53113116D01*
X44907547Y-53250445D01*
X44877968Y-53360837D01*
X44875326Y-53517886D01*
X44892403Y-53601339D01*
X44946278Y-53694654D01*
X45046810Y-53761030D01*
X45230796Y-53810329D01*
X44333936Y-52741795D02*
X44481125Y-52781234D01*
X44544859Y-52837750D01*
X44571796Y-52884407D01*
X44615812Y-53014519D01*
X44613170Y-53171567D01*
X44534291Y-53465945D01*
X44477775Y-53529679D01*
X44431118Y-53556617D01*
X44347664Y-53573694D01*
X44200475Y-53534255D01*
X44136741Y-53477739D01*
X44109803Y-53431081D01*
X44092725Y-53347627D01*
X44142024Y-53163642D01*
X44198541Y-53099906D01*
X44245198Y-53072969D01*
X44328652Y-53055892D01*
X44475841Y-53095331D01*
X44539576Y-53151848D01*
X44566513Y-53198504D01*
X44583590Y-53281959D01*
X15329354Y-45798262D02*
X15536409Y-45025521D01*
X15352424Y-44976222D01*
X15232172Y-44983440D01*
X15138858Y-45037314D01*
X15082341Y-45101049D01*
X15006105Y-45238378D01*
X14976526Y-45348770D01*
X14973884Y-45505819D01*
X14990961Y-45589272D01*
X15044836Y-45682587D01*
X15145368Y-45748963D01*
X15329354Y-45798262D01*
X14837263Y-44838185D02*
X14322102Y-44700149D01*
X14446222Y-45561627D01*
X40300293Y-72211216D02*
X40507348Y-71438475D01*
X40323363Y-71389176D01*
X40203111Y-71396394D01*
X40109797Y-71450268D01*
X40053280Y-71514003D01*
X39977044Y-71651332D01*
X39947465Y-71761724D01*
X39944823Y-71918773D01*
X39961900Y-72002226D01*
X40015775Y-72095541D01*
X40116307Y-72161917D01*
X40300293Y-72211216D01*
X39535478Y-71533015D02*
X39618933Y-71515938D01*
X39665589Y-71488999D01*
X39722106Y-71425265D01*
X39731966Y-71388468D01*
X39714888Y-71305014D01*
X39687951Y-71258357D01*
X39624216Y-71201841D01*
X39477027Y-71162401D01*
X39393574Y-71179479D01*
X39346916Y-71206416D01*
X39290399Y-71270151D01*
X39280540Y-71306948D01*
X39297617Y-71390402D01*
X39324555Y-71437059D01*
X39388289Y-71493576D01*
X39535478Y-71533015D01*
X39599213Y-71589532D01*
X39626150Y-71636188D01*
X39643228Y-71719643D01*
X39603788Y-71866832D01*
X39547272Y-71930566D01*
X39500615Y-71957504D01*
X39417161Y-71974581D01*
X39269972Y-71935142D01*
X39206238Y-71878626D01*
X39179300Y-71831968D01*
X39162222Y-71748514D01*
X39201661Y-71601325D01*
X39258178Y-71537590D01*
X39304836Y-71510653D01*
X39388289Y-71493576D01*
X5798630Y-62966523D02*
X6005685Y-62193782D01*
X5821700Y-62144483D01*
X5701448Y-62151701D01*
X5608134Y-62205575D01*
X5551617Y-62269310D01*
X5475381Y-62406639D01*
X5445802Y-62517031D01*
X5443160Y-62674080D01*
X5460237Y-62757533D01*
X5514112Y-62850848D01*
X5614644Y-62917224D01*
X5798630Y-62966523D01*
X4989093Y-62749608D02*
X4841904Y-62710169D01*
X4778169Y-62653652D01*
X4751232Y-62606995D01*
X4707216Y-62476884D01*
X4709858Y-62319836D01*
X4788736Y-62025458D01*
X4845253Y-61961723D01*
X4891911Y-61934786D01*
X4975364Y-61917708D01*
X5122553Y-61957148D01*
X5186288Y-62013664D01*
X5213225Y-62060321D01*
X5230303Y-62143775D01*
X5181004Y-62327761D01*
X5124487Y-62391495D01*
X5077830Y-62418433D01*
X4994376Y-62435511D01*
X4847187Y-62396072D01*
X4783453Y-62339555D01*
X4756515Y-62292897D01*
X4739437Y-62209444D01*
X75093286Y-17437434D02*
X75300342Y-16664693D01*
X75116356Y-16615394D01*
X74996104Y-16622612D01*
X74902790Y-16676486D01*
X74846274Y-16740221D01*
X74770038Y-16877550D01*
X74740458Y-16987942D01*
X74737816Y-17144990D01*
X74754894Y-17228444D01*
X74808769Y-17321759D01*
X74909301Y-17388135D01*
X75093286Y-17437434D01*
X73915777Y-17121921D02*
X74357343Y-17240238D01*
X74136560Y-17181080D02*
X74343615Y-16408339D01*
X74387630Y-16538449D01*
X74441505Y-16631764D01*
X74505239Y-16688280D01*
X73644469Y-16221003D02*
X73570874Y-16201284D01*
X73487420Y-16218361D01*
X73440763Y-16245298D01*
X73384246Y-16309033D01*
X73308010Y-16446362D01*
X73258711Y-16630348D01*
X73256069Y-16787396D01*
X73273147Y-16870850D01*
X73300084Y-16917508D01*
X73363818Y-16974024D01*
X73437413Y-16993744D01*
X73520867Y-16976666D01*
X73567525Y-16949728D01*
X73624041Y-16885994D01*
X73700277Y-16748665D01*
X73749576Y-16564679D01*
X73752218Y-16407631D01*
X73735141Y-16324176D01*
X73708203Y-16277520D01*
X73644469Y-16221003D01*
X94726799Y-17767715D02*
X94933855Y-16994974D01*
X94749869Y-16945675D01*
X94629617Y-16952893D01*
X94536303Y-17006767D01*
X94479787Y-17070502D01*
X94403551Y-17207831D01*
X94373971Y-17318223D01*
X94371329Y-17475271D01*
X94388407Y-17558725D01*
X94442282Y-17652040D01*
X94542814Y-17718416D01*
X94726799Y-17767715D01*
X93549290Y-17452202D02*
X93990856Y-17570519D01*
X93770073Y-17511361D02*
X93977128Y-16738620D01*
X94021143Y-16868730D01*
X94075018Y-16962045D01*
X94138752Y-17018561D01*
X92813346Y-17255006D02*
X93254912Y-17373324D01*
X93034129Y-17314165D02*
X93241185Y-16541424D01*
X93285199Y-16671535D01*
X93339075Y-16764849D01*
X93402809Y-16821366D01*
X89796296Y-36168602D02*
X90003352Y-35395861D01*
X89819366Y-35346562D01*
X89699114Y-35353780D01*
X89605800Y-35407654D01*
X89549284Y-35471389D01*
X89473048Y-35608718D01*
X89443468Y-35719110D01*
X89440826Y-35876158D01*
X89457904Y-35959612D01*
X89511779Y-36052927D01*
X89612311Y-36119303D01*
X89796296Y-36168602D01*
X88618787Y-35853089D02*
X89060353Y-35971406D01*
X88839570Y-35912248D02*
X89046625Y-35139507D01*
X89090640Y-35269617D01*
X89144515Y-35362932D01*
X89208249Y-35419448D01*
X88511745Y-35075064D02*
X88484808Y-35028407D01*
X88421072Y-34971891D01*
X88237087Y-34922592D01*
X88153633Y-34939669D01*
X88106976Y-34966606D01*
X88050459Y-35030341D01*
X88030739Y-35103935D01*
X88037957Y-35224187D01*
X88361206Y-35784070D01*
X87882843Y-35655893D01*
X70162783Y-35838321D02*
X70369839Y-35065580D01*
X70185853Y-35016281D01*
X70065601Y-35023499D01*
X69972287Y-35077373D01*
X69915771Y-35141108D01*
X69839535Y-35278437D01*
X69809955Y-35388829D01*
X69807313Y-35545877D01*
X69824391Y-35629331D01*
X69878266Y-35722646D01*
X69978798Y-35789022D01*
X70162783Y-35838321D01*
X68985274Y-35522808D02*
X69426840Y-35641125D01*
X69206057Y-35581967D02*
X69413112Y-34809226D01*
X69457127Y-34939336D01*
X69511002Y-35032651D01*
X69574736Y-35089167D01*
X68934748Y-34681049D02*
X68456385Y-34552872D01*
X68635087Y-34916268D01*
X68524696Y-34886688D01*
X68441242Y-34903766D01*
X68394584Y-34930703D01*
X68338068Y-34994438D01*
X68288769Y-35178424D01*
X68305846Y-35261877D01*
X68332784Y-35308535D01*
X68396519Y-35365051D01*
X68617302Y-35424210D01*
X68700756Y-35407133D01*
X68747413Y-35380195D01*
X84865793Y-54569489D02*
X85072849Y-53796748D01*
X84888863Y-53747449D01*
X84768611Y-53754667D01*
X84675297Y-53808541D01*
X84618781Y-53872276D01*
X84542545Y-54009605D01*
X84512965Y-54119997D01*
X84510323Y-54277045D01*
X84527401Y-54360499D01*
X84581276Y-54453814D01*
X84681808Y-54520190D01*
X84865793Y-54569489D01*
X83688284Y-54253976D02*
X84129850Y-54372293D01*
X83909067Y-54313135D02*
X84116122Y-53540394D01*
X84160137Y-53670504D01*
X84214012Y-53763819D01*
X84277746Y-53820335D01*
X83163972Y-53561339D02*
X83025935Y-54076500D01*
X83426835Y-53316261D02*
X83462925Y-53917517D01*
X82984561Y-53789340D01*
X65232280Y-54239208D02*
X65439336Y-53466467D01*
X65255350Y-53417168D01*
X65135098Y-53424386D01*
X65041784Y-53478260D01*
X64985268Y-53541995D01*
X64909032Y-53679324D01*
X64879452Y-53789716D01*
X64876810Y-53946764D01*
X64893888Y-54030218D01*
X64947763Y-54123533D01*
X65048295Y-54189909D01*
X65232280Y-54239208D01*
X64054771Y-53923695D02*
X64496337Y-54042012D01*
X64275554Y-53982854D02*
X64482609Y-53210113D01*
X64526624Y-53340223D01*
X64580499Y-53433538D01*
X64644233Y-53490054D01*
X63562679Y-52963618D02*
X63930651Y-53062216D01*
X63868851Y-53440047D01*
X63841913Y-53393391D01*
X63778178Y-53336874D01*
X63594193Y-53287575D01*
X63510739Y-53304653D01*
X63464081Y-53331590D01*
X63407565Y-53395325D01*
X63358266Y-53579311D01*
X63375343Y-53662764D01*
X63402281Y-53709422D01*
X63466016Y-53765938D01*
X63650001Y-53815237D01*
X63733456Y-53798160D01*
X63780113Y-53771222D01*
X60301777Y-72640095D02*
X60508833Y-71867354D01*
X60324847Y-71818055D01*
X60204595Y-71825273D01*
X60111281Y-71879147D01*
X60054765Y-71942882D01*
X59978529Y-72080211D01*
X59948949Y-72190603D01*
X59946307Y-72347651D01*
X59963385Y-72431105D01*
X60017260Y-72524420D01*
X60117792Y-72590796D01*
X60301777Y-72640095D01*
X59124268Y-72324582D02*
X59565834Y-72442899D01*
X59345051Y-72383741D02*
X59552106Y-71611000D01*
X59596121Y-71741110D01*
X59649996Y-71834425D01*
X59713730Y-71890941D01*
X58668974Y-71374365D02*
X58816163Y-71413804D01*
X58879897Y-71470321D01*
X58906834Y-71516977D01*
X58950849Y-71647089D01*
X58948207Y-71804137D01*
X58869329Y-72098515D01*
X58812813Y-72162249D01*
X58766156Y-72189187D01*
X58682701Y-72206265D01*
X58535513Y-72166825D01*
X58471778Y-72110309D01*
X58444840Y-72063651D01*
X58427763Y-71980198D01*
X58477062Y-71796212D01*
X58533578Y-71732477D01*
X58580236Y-71705540D01*
X58663690Y-71688462D01*
X58810878Y-71727901D01*
X58874613Y-71784418D01*
X58901551Y-71831075D01*
X58918628Y-71914529D01*
X55371275Y-91040982D02*
X55578331Y-90268241D01*
X55394345Y-90218942D01*
X55274093Y-90226160D01*
X55180779Y-90280034D01*
X55124263Y-90343769D01*
X55048027Y-90481098D01*
X55018447Y-90591490D01*
X55015805Y-90748538D01*
X55032883Y-90831992D01*
X55086758Y-90925307D01*
X55187290Y-90991683D01*
X55371275Y-91040982D01*
X54193766Y-90725469D02*
X54635332Y-90843786D01*
X54414549Y-90784628D02*
X54621604Y-90011887D01*
X54665619Y-90141997D01*
X54719494Y-90235312D01*
X54783228Y-90291828D01*
X54143240Y-89883710D02*
X53628080Y-89745673D01*
X53752199Y-90607152D01*
X35737762Y-90710701D02*
X35944818Y-89937960D01*
X35760832Y-89888661D01*
X35640580Y-89895879D01*
X35547266Y-89949753D01*
X35490750Y-90013488D01*
X35414514Y-90150817D01*
X35384934Y-90261209D01*
X35382292Y-90418257D01*
X35399370Y-90501711D01*
X35453245Y-90595026D01*
X35553777Y-90661402D01*
X35737762Y-90710701D01*
X34560253Y-90395188D02*
X35001819Y-90513505D01*
X34781036Y-90454347D02*
X34988091Y-89681606D01*
X35032106Y-89811716D01*
X35085981Y-89905031D01*
X35149715Y-89961547D01*
X34237004Y-89835304D02*
X34320458Y-89818227D01*
X34367115Y-89791289D01*
X34423631Y-89727555D01*
X34433491Y-89690758D01*
X34416414Y-89607303D01*
X34389477Y-89560647D01*
X34325742Y-89504130D01*
X34178553Y-89464691D01*
X34095099Y-89481768D01*
X34048442Y-89508705D01*
X33991925Y-89572440D01*
X33982065Y-89609237D01*
X33999143Y-89692691D01*
X34026081Y-89739349D01*
X34089815Y-89795865D01*
X34237004Y-89835304D01*
X34300739Y-89891821D01*
X34327676Y-89938478D01*
X34344753Y-90021932D01*
X34305314Y-90169121D01*
X34248798Y-90232855D01*
X34202141Y-90259793D01*
X34118686Y-90276871D01*
X33971498Y-90237431D01*
X33907763Y-90180915D01*
X33880825Y-90134257D01*
X33863748Y-90050804D01*
X33903187Y-89903615D01*
X33959704Y-89839880D01*
X34006361Y-89812943D01*
X34089815Y-89795865D01*
X129063321Y-36829164D02*
X129270377Y-36056423D01*
X129086391Y-36007124D01*
X128966139Y-36014342D01*
X128872825Y-36068216D01*
X128816309Y-36131951D01*
X128740073Y-36269280D01*
X128710493Y-36379672D01*
X128707851Y-36536720D01*
X128724929Y-36620174D01*
X128778804Y-36713489D01*
X128879336Y-36779865D01*
X129063321Y-36829164D01*
X127885812Y-36513651D02*
X128327378Y-36631968D01*
X128106595Y-36572810D02*
X128313650Y-35800069D01*
X128357665Y-35930179D01*
X128411540Y-36023494D01*
X128475274Y-36080010D01*
X127517840Y-36415053D02*
X127370651Y-36375614D01*
X127306916Y-36319098D01*
X127279979Y-36272440D01*
X127235964Y-36142329D01*
X127238606Y-35985281D01*
X127317484Y-35690903D01*
X127374001Y-35627168D01*
X127420658Y-35600231D01*
X127504112Y-35583154D01*
X127651301Y-35622593D01*
X127715036Y-35679110D01*
X127741973Y-35725766D01*
X127759050Y-35809221D01*
X127709751Y-35993206D01*
X127653235Y-36056941D01*
X127606578Y-36083879D01*
X127523123Y-36100956D01*
X127375935Y-36061517D01*
X127312201Y-36005001D01*
X127285263Y-35958343D01*
X127268185Y-35874889D01*
X111895060Y-27298440D02*
X112102116Y-26525699D01*
X111918130Y-26476400D01*
X111797878Y-26483618D01*
X111704564Y-26537492D01*
X111648048Y-26601227D01*
X111571812Y-26738556D01*
X111542232Y-26848948D01*
X111539590Y-27005996D01*
X111556668Y-27089450D01*
X111610543Y-27182765D01*
X111711075Y-27249141D01*
X111895060Y-27298440D01*
X111346453Y-26402097D02*
X111319515Y-26355441D01*
X111255780Y-26298924D01*
X111071794Y-26249625D01*
X110988341Y-26266703D01*
X110941683Y-26293640D01*
X110885167Y-26357375D01*
X110865447Y-26430969D01*
X110872665Y-26551220D01*
X111195914Y-27111104D01*
X110717551Y-26982927D01*
X110446243Y-26082009D02*
X110372648Y-26062290D01*
X110289194Y-26079367D01*
X110242537Y-26106304D01*
X110186020Y-26170039D01*
X110109784Y-26307368D01*
X110060485Y-26491354D01*
X110057843Y-26648402D01*
X110074921Y-26731856D01*
X110101858Y-26778514D01*
X110165592Y-26835030D01*
X110239187Y-26854750D01*
X110322641Y-26837672D01*
X110369299Y-26810734D01*
X110425815Y-26747000D01*
X110502051Y-26609671D01*
X110551350Y-26425685D01*
X110553992Y-26268637D01*
X110536915Y-26185182D01*
X110509977Y-26138526D01*
X110446243Y-26082009D01*
X106964557Y-45699327D02*
X107171613Y-44926586D01*
X106987627Y-44877287D01*
X106867375Y-44884505D01*
X106774061Y-44938379D01*
X106717545Y-45002114D01*
X106641309Y-45139443D01*
X106611729Y-45249835D01*
X106609087Y-45406883D01*
X106626165Y-45490337D01*
X106680040Y-45583652D01*
X106780572Y-45650028D01*
X106964557Y-45699327D01*
X106415950Y-44802984D02*
X106389012Y-44756328D01*
X106325277Y-44699811D01*
X106141291Y-44650512D01*
X106057838Y-44667590D01*
X106011180Y-44694527D01*
X105954664Y-44758262D01*
X105934944Y-44831856D01*
X105942162Y-44952107D01*
X106265411Y-45511991D01*
X105787048Y-45383814D01*
X105051104Y-45186618D02*
X105492670Y-45304936D01*
X105271887Y-45245777D02*
X105478943Y-44473036D01*
X105522957Y-44603147D01*
X105576833Y-44696461D01*
X105640567Y-44752978D01*
X124132818Y-55230051D02*
X124339874Y-54457310D01*
X124155888Y-54408011D01*
X124035636Y-54415229D01*
X123942322Y-54469103D01*
X123885806Y-54532838D01*
X123809570Y-54670167D01*
X123779990Y-54780559D01*
X123777348Y-54937607D01*
X123794426Y-55021061D01*
X123848301Y-55114376D01*
X123948833Y-55180752D01*
X124132818Y-55230051D01*
X123584211Y-54333708D02*
X123557273Y-54287052D01*
X123493538Y-54230535D01*
X123309552Y-54181236D01*
X123226099Y-54198314D01*
X123179441Y-54225251D01*
X123122925Y-54288986D01*
X123103205Y-54362580D01*
X123110423Y-54482831D01*
X123433672Y-55042715D01*
X122955309Y-54914538D01*
X122848267Y-54136513D02*
X122821330Y-54089856D01*
X122757594Y-54033340D01*
X122573609Y-53984041D01*
X122490155Y-54001118D01*
X122443498Y-54028055D01*
X122386981Y-54091790D01*
X122367261Y-54165384D01*
X122374479Y-54285636D01*
X122697728Y-54845519D01*
X122219365Y-54717342D01*
X102034054Y-64100214D02*
X102241110Y-63327473D01*
X102057124Y-63278174D01*
X101936872Y-63285392D01*
X101843558Y-63339266D01*
X101787042Y-63403001D01*
X101710806Y-63540330D01*
X101681226Y-63650722D01*
X101678584Y-63807770D01*
X101695662Y-63891224D01*
X101749537Y-63984539D01*
X101850069Y-64050915D01*
X102034054Y-64100214D01*
X101485447Y-63203871D02*
X101458509Y-63157215D01*
X101394774Y-63100698D01*
X101210788Y-63051399D01*
X101127335Y-63068477D01*
X101080677Y-63095414D01*
X101024161Y-63159149D01*
X101004441Y-63232743D01*
X101011659Y-63352994D01*
X101334908Y-63912878D01*
X100856545Y-63784701D01*
X100806019Y-62942942D02*
X100327656Y-62814765D01*
X100506358Y-63178161D01*
X100395967Y-63148581D01*
X100312513Y-63165659D01*
X100265855Y-63192596D01*
X100209339Y-63256331D01*
X100160040Y-63440317D01*
X100177117Y-63523770D01*
X100204055Y-63570428D01*
X100267790Y-63626944D01*
X100488573Y-63686103D01*
X100572027Y-63669026D01*
X100618684Y-63642088D01*
X79935290Y-72970376D02*
X80142346Y-72197635D01*
X79958360Y-72148336D01*
X79838108Y-72155554D01*
X79744794Y-72209428D01*
X79688278Y-72273163D01*
X79612042Y-72410492D01*
X79582462Y-72520884D01*
X79579820Y-72677932D01*
X79596898Y-72761386D01*
X79650773Y-72854701D01*
X79751305Y-72921077D01*
X79935290Y-72970376D01*
X79386683Y-72074033D02*
X79359745Y-72027377D01*
X79296010Y-71970860D01*
X79112024Y-71921561D01*
X79028571Y-71938639D01*
X78981913Y-71965576D01*
X78925397Y-72029311D01*
X78905677Y-72102905D01*
X78912895Y-72223156D01*
X79236144Y-72783040D01*
X78757781Y-72654863D01*
X78233469Y-71962226D02*
X78095432Y-72477387D01*
X78496332Y-71717148D02*
X78532422Y-72318404D01*
X78054058Y-72190227D01*
X97103551Y-82501101D02*
X97310607Y-81728360D01*
X97126621Y-81679061D01*
X97006369Y-81686279D01*
X96913055Y-81740153D01*
X96856539Y-81803888D01*
X96780303Y-81941217D01*
X96750723Y-82051609D01*
X96748081Y-82208657D01*
X96765159Y-82292111D01*
X96819034Y-82385426D01*
X96919566Y-82451802D01*
X97103551Y-82501101D01*
X96554944Y-81604758D02*
X96528006Y-81558102D01*
X96464271Y-81501585D01*
X96280285Y-81452286D01*
X96196832Y-81469364D01*
X96150174Y-81496301D01*
X96093658Y-81560036D01*
X96073938Y-81633630D01*
X96081156Y-81753881D01*
X96404405Y-82313765D01*
X95926042Y-82185588D01*
X95433950Y-81225511D02*
X95801922Y-81324109D01*
X95740122Y-81701940D01*
X95713184Y-81655284D01*
X95649449Y-81598767D01*
X95465464Y-81549468D01*
X95382010Y-81566546D01*
X95335352Y-81593483D01*
X95278836Y-81657218D01*
X95229537Y-81841204D01*
X95246614Y-81924657D01*
X95273552Y-81971315D01*
X95337287Y-82027831D01*
X95521272Y-82077130D01*
X95604727Y-82060053D01*
X95651384Y-82033115D01*
X75004787Y-91371263D02*
X75211843Y-90598522D01*
X75027857Y-90549223D01*
X74907605Y-90556441D01*
X74814291Y-90610315D01*
X74757775Y-90674050D01*
X74681539Y-90811379D01*
X74651959Y-90921771D01*
X74649317Y-91078819D01*
X74666395Y-91162273D01*
X74720270Y-91255588D01*
X74820802Y-91321964D01*
X75004787Y-91371263D01*
X74456180Y-90474920D02*
X74429242Y-90428264D01*
X74365507Y-90371747D01*
X74181521Y-90322448D01*
X74098068Y-90339526D01*
X74051410Y-90366463D01*
X73994894Y-90430198D01*
X73975174Y-90503792D01*
X73982392Y-90624043D01*
X74305641Y-91183927D01*
X73827278Y-91055750D01*
X73371984Y-90105533D02*
X73519173Y-90144972D01*
X73582907Y-90201489D01*
X73609844Y-90248145D01*
X73653859Y-90378257D01*
X73651217Y-90535305D01*
X73572339Y-90829683D01*
X73515823Y-90893417D01*
X73469166Y-90920355D01*
X73385711Y-90937433D01*
X73238523Y-90897993D01*
X73174788Y-90841477D01*
X73147850Y-90794819D01*
X73130773Y-90711366D01*
X73180072Y-90527380D01*
X73236588Y-90463645D01*
X73283246Y-90436708D01*
X73366700Y-90419630D01*
X73513888Y-90459069D01*
X73577623Y-90515586D01*
X73604561Y-90562243D01*
X73621638Y-90645697D01*
X92173049Y-100901988D02*
X92380105Y-100129247D01*
X92196119Y-100079948D01*
X92075867Y-100087166D01*
X91982553Y-100141040D01*
X91926037Y-100204775D01*
X91849801Y-100342104D01*
X91820221Y-100452496D01*
X91817579Y-100609544D01*
X91834657Y-100692998D01*
X91888532Y-100786313D01*
X91989064Y-100852689D01*
X92173049Y-100901988D01*
X91624442Y-100005645D02*
X91597504Y-99958989D01*
X91533769Y-99902472D01*
X91349783Y-99853173D01*
X91266330Y-99870251D01*
X91219672Y-99897188D01*
X91163156Y-99960923D01*
X91143436Y-100034517D01*
X91150654Y-100154768D01*
X91473903Y-100714652D01*
X90995540Y-100586475D01*
X90945014Y-99744716D02*
X90429854Y-99606679D01*
X90553973Y-100468158D01*
X141301080Y-64760776D02*
X141508136Y-63988035D01*
X141324150Y-63938736D01*
X141203898Y-63945954D01*
X141110584Y-63999828D01*
X141054068Y-64063563D01*
X140977832Y-64200892D01*
X140948252Y-64311284D01*
X140945610Y-64468332D01*
X140962688Y-64551786D01*
X141016563Y-64645101D01*
X141117095Y-64711477D01*
X141301080Y-64760776D01*
X140752473Y-63864433D02*
X140725535Y-63817777D01*
X140661800Y-63761260D01*
X140477814Y-63711961D01*
X140394361Y-63729039D01*
X140347703Y-63755976D01*
X140291187Y-63819711D01*
X140271467Y-63893305D01*
X140278685Y-64013556D01*
X140601934Y-64573440D01*
X140123571Y-64445263D01*
X139800322Y-63885379D02*
X139883776Y-63868302D01*
X139930433Y-63841364D01*
X139986949Y-63777630D01*
X139996809Y-63740833D01*
X139979732Y-63657378D01*
X139952795Y-63610722D01*
X139889060Y-63554205D01*
X139741871Y-63514766D01*
X139658417Y-63531843D01*
X139611760Y-63558780D01*
X139555243Y-63622515D01*
X139545383Y-63659312D01*
X139562461Y-63742766D01*
X139589399Y-63789424D01*
X139653133Y-63845940D01*
X139800322Y-63885379D01*
X139864057Y-63941896D01*
X139890994Y-63988553D01*
X139908071Y-64072007D01*
X139868632Y-64219196D01*
X139812116Y-64282930D01*
X139765459Y-64309868D01*
X139682004Y-64326946D01*
X139534816Y-64287506D01*
X139471081Y-64230990D01*
X139444143Y-64184332D01*
X139427066Y-64100879D01*
X139466505Y-63953690D01*
X139523022Y-63889955D01*
X139569679Y-63863018D01*
X139653133Y-63845940D01*
X119202316Y-73630938D02*
X119409372Y-72858197D01*
X119225386Y-72808898D01*
X119105134Y-72816116D01*
X119011820Y-72869990D01*
X118955304Y-72933725D01*
X118879068Y-73071054D01*
X118849488Y-73181446D01*
X118846846Y-73338494D01*
X118863924Y-73421948D01*
X118917799Y-73515263D01*
X119018331Y-73581639D01*
X119202316Y-73630938D01*
X118653709Y-72734595D02*
X118626771Y-72687939D01*
X118563036Y-72631422D01*
X118379050Y-72582123D01*
X118295597Y-72599201D01*
X118248939Y-72626138D01*
X118192423Y-72689873D01*
X118172703Y-72763467D01*
X118179921Y-72883718D01*
X118503170Y-73443602D01*
X118024807Y-73315425D01*
X117656835Y-73216827D02*
X117509646Y-73177388D01*
X117445911Y-73120872D01*
X117418974Y-73074214D01*
X117374959Y-72944103D01*
X117377601Y-72787055D01*
X117456479Y-72492677D01*
X117512996Y-72428942D01*
X117559653Y-72402005D01*
X117643107Y-72384928D01*
X117790296Y-72424367D01*
X117854031Y-72480884D01*
X117880968Y-72527540D01*
X117898045Y-72610995D01*
X117848746Y-72794980D01*
X117792230Y-72858715D01*
X117745573Y-72885653D01*
X117662118Y-72902730D01*
X117514930Y-72863291D01*
X117451196Y-72806775D01*
X117424258Y-72760117D01*
X117407180Y-72676663D01*
X136370577Y-83161663D02*
X136577633Y-82388922D01*
X136393647Y-82339623D01*
X136273395Y-82346841D01*
X136180081Y-82400715D01*
X136123565Y-82464450D01*
X136047329Y-82601779D01*
X136017749Y-82712171D01*
X136015107Y-82869219D01*
X136032185Y-82952673D01*
X136086060Y-83045988D01*
X136186592Y-83112364D01*
X136370577Y-83161663D01*
X135878486Y-82201586D02*
X135400123Y-82073409D01*
X135578825Y-82436805D01*
X135468433Y-82407226D01*
X135384980Y-82424303D01*
X135338322Y-82451240D01*
X135281805Y-82514975D01*
X135232507Y-82698961D01*
X135249584Y-82782415D01*
X135276522Y-82829073D01*
X135340256Y-82885589D01*
X135561040Y-82944748D01*
X135644493Y-82927670D01*
X135691150Y-82900732D01*
X134921760Y-81945232D02*
X134848165Y-81925513D01*
X134764711Y-81942590D01*
X134718054Y-81969527D01*
X134661537Y-82033262D01*
X134585301Y-82170591D01*
X134536002Y-82354577D01*
X134533360Y-82511625D01*
X134550438Y-82595079D01*
X134577375Y-82641737D01*
X134641109Y-82698253D01*
X134714704Y-82717973D01*
X134798158Y-82700895D01*
X134844816Y-82673957D01*
X134901332Y-82610223D01*
X134977568Y-82472894D01*
X135026867Y-82288908D01*
X135029509Y-82131860D01*
X135012432Y-82048405D01*
X134985494Y-82001749D01*
X134921760Y-81945232D01*
X114271813Y-92031825D02*
X114478869Y-91259084D01*
X114294883Y-91209785D01*
X114174631Y-91217003D01*
X114081317Y-91270877D01*
X114024801Y-91334612D01*
X113948565Y-91471941D01*
X113918985Y-91582333D01*
X113916343Y-91739381D01*
X113933421Y-91822835D01*
X113987296Y-91916150D01*
X114087828Y-91982526D01*
X114271813Y-92031825D01*
X113779722Y-91071748D02*
X113301359Y-90943571D01*
X113480061Y-91306967D01*
X113369669Y-91277388D01*
X113286216Y-91294465D01*
X113239558Y-91321402D01*
X113183041Y-91385137D01*
X113133743Y-91569123D01*
X113150820Y-91652577D01*
X113177758Y-91699235D01*
X113241492Y-91755751D01*
X113462276Y-91814910D01*
X113545729Y-91797832D01*
X113592386Y-91770894D01*
X112358360Y-91519116D02*
X112799926Y-91637434D01*
X112579143Y-91578275D02*
X112786199Y-90805534D01*
X112830213Y-90935645D01*
X112884089Y-91028959D01*
X112947823Y-91085476D01*
X109341310Y-110432712D02*
X109548366Y-109659971D01*
X109364380Y-109610672D01*
X109244128Y-109617890D01*
X109150814Y-109671764D01*
X109094298Y-109735499D01*
X109018062Y-109872828D01*
X108988482Y-109983220D01*
X108985840Y-110140268D01*
X109002918Y-110223722D01*
X109056793Y-110317037D01*
X109157325Y-110383413D01*
X109341310Y-110432712D01*
X108849219Y-109472635D02*
X108370856Y-109344458D01*
X108549558Y-109707854D01*
X108439166Y-109678275D01*
X108355713Y-109695352D01*
X108309055Y-109722289D01*
X108252538Y-109786024D01*
X108203240Y-109970010D01*
X108220317Y-110053464D01*
X108247255Y-110100122D01*
X108310989Y-110156638D01*
X108531773Y-110215797D01*
X108615226Y-110198719D01*
X108661883Y-110171781D01*
X108056759Y-109339174D02*
X108029822Y-109292517D01*
X107966086Y-109236001D01*
X107782101Y-109186702D01*
X107698647Y-109203779D01*
X107651990Y-109230716D01*
X107595473Y-109294451D01*
X107575753Y-109368045D01*
X107582971Y-109488297D01*
X107906220Y-110048180D01*
X107427857Y-109920003D01*
X134330886Y-118062814D02*
X133558145Y-117855758D01*
X133508846Y-118039744D01*
X133516064Y-118159996D01*
X133569938Y-118253310D01*
X133633673Y-118309826D01*
X133771002Y-118386062D01*
X133881394Y-118415642D01*
X134038442Y-118418284D01*
X134121896Y-118401206D01*
X134215211Y-118347331D01*
X134281587Y-118246799D01*
X134330886Y-118062814D01*
X133370809Y-118554905D02*
X133242632Y-119033268D01*
X133606028Y-118854566D01*
X133576449Y-118964958D01*
X133593526Y-119048411D01*
X133620463Y-119095069D01*
X133684198Y-119151586D01*
X133868184Y-119200884D01*
X133951638Y-119183807D01*
X133998296Y-119156869D01*
X134054812Y-119093135D01*
X134113971Y-118872351D01*
X134096893Y-118788898D01*
X134069955Y-118742241D01*
X133173614Y-119290849D02*
X133045437Y-119769212D01*
X133408833Y-119590510D01*
X133379253Y-119700901D01*
X133396331Y-119784355D01*
X133423268Y-119831013D01*
X133487003Y-119887529D01*
X133670989Y-119936828D01*
X133754442Y-119919751D01*
X133801100Y-119892813D01*
X133857616Y-119829078D01*
X133916775Y-119608295D01*
X133899698Y-119524841D01*
X133872760Y-119478184D01*
X164391935Y-60560694D02*
X164184880Y-59787953D01*
X164000894Y-59837252D01*
X163900362Y-59903629D01*
X163846487Y-59996942D01*
X163829410Y-60080397D01*
X163832052Y-60237445D01*
X163861631Y-60347837D01*
X163937867Y-60485166D01*
X163994384Y-60548900D01*
X164087698Y-60602775D01*
X164207950Y-60609993D01*
X164391935Y-60560694D01*
X163485733Y-59975289D02*
X163007370Y-60103466D01*
X163343829Y-60328825D01*
X163233437Y-60358405D01*
X163169703Y-60414921D01*
X163142765Y-60461578D01*
X163125687Y-60545032D01*
X163174986Y-60729018D01*
X163231503Y-60792752D01*
X163278160Y-60819690D01*
X163361614Y-60836768D01*
X163582398Y-60777609D01*
X163646132Y-60721093D01*
X163673069Y-60674435D01*
X162414039Y-60538522D02*
X162552076Y-61053683D01*
X162519147Y-60194846D02*
X162851029Y-60697505D01*
X162372666Y-60825682D01*
X186490700Y-69430857D02*
X186283645Y-68658116D01*
X186099659Y-68707415D01*
X185999127Y-68773792D01*
X185945252Y-68867105D01*
X185928175Y-68950560D01*
X185930817Y-69107608D01*
X185960396Y-69218000D01*
X186036632Y-69355329D01*
X186093149Y-69419063D01*
X186186463Y-69472938D01*
X186306715Y-69480156D01*
X186490700Y-69430857D01*
X185584498Y-68845452D02*
X185106135Y-68973629D01*
X185442594Y-69198988D01*
X185332202Y-69228568D01*
X185268468Y-69285084D01*
X185241530Y-69331741D01*
X185224452Y-69415195D01*
X185273751Y-69599181D01*
X185330268Y-69662915D01*
X185376925Y-69689853D01*
X185460379Y-69706931D01*
X185681163Y-69647772D01*
X185744897Y-69591256D01*
X185771834Y-69544598D01*
X184406988Y-69160965D02*
X184774961Y-69062367D01*
X184910355Y-69420479D01*
X184863699Y-69393542D01*
X184780244Y-69376464D01*
X184596258Y-69425763D01*
X184532524Y-69482280D01*
X184505586Y-69528936D01*
X184488509Y-69612391D01*
X184537807Y-69796377D01*
X184594324Y-69860111D01*
X184640982Y-69887049D01*
X184724435Y-69904126D01*
X184908421Y-69854828D01*
X184972156Y-69798311D01*
X184999093Y-69751653D01*
X169322438Y-78961581D02*
X169115383Y-78188840D01*
X168931397Y-78238139D01*
X168830865Y-78304516D01*
X168776990Y-78397829D01*
X168759913Y-78481284D01*
X168762555Y-78638332D01*
X168792134Y-78748724D01*
X168868370Y-78886053D01*
X168924887Y-78949787D01*
X169018201Y-79003662D01*
X169138453Y-79010880D01*
X169322438Y-78961581D01*
X168416236Y-78376176D02*
X167937873Y-78504353D01*
X168274332Y-78729712D01*
X168163940Y-78759292D01*
X168100206Y-78815808D01*
X168073268Y-78862465D01*
X168056190Y-78945919D01*
X168105489Y-79129905D01*
X168162006Y-79193639D01*
X168208663Y-79220577D01*
X168292117Y-79237655D01*
X168512901Y-79178496D01*
X168576635Y-79121980D01*
X168603572Y-79075322D01*
X167275524Y-78681829D02*
X167422713Y-78642390D01*
X167506167Y-78659467D01*
X167552823Y-78686405D01*
X167655997Y-78777077D01*
X167732234Y-78914406D01*
X167811112Y-79208783D01*
X167794034Y-79292237D01*
X167767097Y-79338895D01*
X167703362Y-79395411D01*
X167556173Y-79434850D01*
X167472720Y-79417773D01*
X167426062Y-79390835D01*
X167369545Y-79327101D01*
X167320247Y-79143115D01*
X167337324Y-79059660D01*
X167364262Y-79013004D01*
X167427996Y-78956487D01*
X167575185Y-78917048D01*
X167658640Y-78934125D01*
X167705296Y-78961063D01*
X167761813Y-79024798D01*
X191421202Y-87831744D02*
X191214147Y-87059003D01*
X191030161Y-87108302D01*
X190929629Y-87174679D01*
X190875754Y-87267992D01*
X190858677Y-87351447D01*
X190861319Y-87508495D01*
X190890898Y-87618887D01*
X190967134Y-87756216D01*
X191023651Y-87819950D01*
X191116965Y-87873825D01*
X191237217Y-87881043D01*
X191421202Y-87831744D01*
X190515000Y-87246339D02*
X190036637Y-87374516D01*
X190373096Y-87599875D01*
X190262704Y-87629455D01*
X190198970Y-87685971D01*
X190172032Y-87732628D01*
X190154954Y-87816082D01*
X190204253Y-88000068D01*
X190260770Y-88063802D01*
X190307427Y-88090740D01*
X190390881Y-88107818D01*
X190611665Y-88048659D01*
X190675399Y-87992143D01*
X190702336Y-87945485D01*
X189779057Y-87443535D02*
X189263896Y-87581571D01*
X189802126Y-88265574D01*
X196351705Y-106232631D02*
X196144650Y-105459890D01*
X195960664Y-105509189D01*
X195860132Y-105575566D01*
X195806257Y-105668879D01*
X195789180Y-105752334D01*
X195791822Y-105909382D01*
X195821401Y-106019774D01*
X195897637Y-106157103D01*
X195954154Y-106220837D01*
X196047468Y-106274712D01*
X196167720Y-106281930D01*
X196351705Y-106232631D01*
X195445503Y-105647226D02*
X194967140Y-105775403D01*
X195303599Y-106000762D01*
X195193207Y-106030342D01*
X195129473Y-106086858D01*
X195102535Y-106133515D01*
X195085457Y-106216969D01*
X195134756Y-106400955D01*
X195191273Y-106464689D01*
X195237930Y-106491627D01*
X195321384Y-106508705D01*
X195542168Y-106449546D01*
X195605902Y-106393030D01*
X195632839Y-106346372D01*
X194614312Y-106224895D02*
X194678047Y-106168378D01*
X194704984Y-106121721D01*
X194722061Y-106038267D01*
X194712202Y-106001470D01*
X194655685Y-105937735D01*
X194609028Y-105910798D01*
X194525574Y-105893721D01*
X194378385Y-105933160D01*
X194314651Y-105989676D01*
X194287713Y-106036333D01*
X194270635Y-106119788D01*
X194280495Y-106156584D01*
X194337012Y-106220319D01*
X194383669Y-106247257D01*
X194467123Y-106264334D01*
X194614312Y-106224895D01*
X194697766Y-106241972D01*
X194744423Y-106268909D01*
X194800940Y-106332645D01*
X194840379Y-106479833D01*
X194823301Y-106563287D01*
X194796364Y-106609945D01*
X194732629Y-106666461D01*
X194585440Y-106705900D01*
X194501987Y-106688823D01*
X194455329Y-106661885D01*
X194398812Y-106598151D01*
X194359373Y-106450962D01*
X194376451Y-106367507D01*
X194403389Y-106320850D01*
X194467123Y-106264334D01*
X167284880Y-120838767D02*
X168057621Y-120631712D01*
X168008322Y-120447726D01*
X167941945Y-120347194D01*
X167848632Y-120293319D01*
X167765177Y-120276242D01*
X167608129Y-120278884D01*
X167497737Y-120308463D01*
X167360408Y-120384699D01*
X167296674Y-120441216D01*
X167242799Y-120534530D01*
X167235581Y-120654782D01*
X167284880Y-120838767D01*
X167870285Y-119932565D02*
X167742108Y-119454202D01*
X167516749Y-119790661D01*
X167487169Y-119680269D01*
X167430653Y-119616535D01*
X167383996Y-119589597D01*
X167300542Y-119572519D01*
X167116556Y-119621818D01*
X167052822Y-119678335D01*
X167025884Y-119724992D01*
X167008806Y-119808446D01*
X167067965Y-120029230D01*
X167124481Y-120092964D01*
X167171139Y-120119901D01*
X166870769Y-119293286D02*
X166831330Y-119146097D01*
X166848408Y-119062643D01*
X166875346Y-119015986D01*
X166966017Y-118912812D01*
X167103346Y-118836576D01*
X167397723Y-118757697D01*
X167481178Y-118774775D01*
X167527835Y-118801713D01*
X167584351Y-118865447D01*
X167623790Y-119012636D01*
X167606713Y-119096090D01*
X167579776Y-119142747D01*
X167516041Y-119199264D01*
X167332055Y-119248563D01*
X167248602Y-119231485D01*
X167201944Y-119204548D01*
X167145427Y-119140813D01*
X167105988Y-118993624D01*
X167123066Y-118910171D01*
X167150004Y-118863513D01*
X167213738Y-118806996D01*
X176629694Y-32629083D02*
X176422639Y-31856342D01*
X176238653Y-31905641D01*
X176138121Y-31972018D01*
X176084246Y-32065331D01*
X176067169Y-32148786D01*
X176069811Y-32305834D01*
X176099390Y-32416226D01*
X176175626Y-32553555D01*
X176232143Y-32617289D01*
X176325457Y-32671164D01*
X176445709Y-32678382D01*
X176629694Y-32629083D01*
X175387742Y-32409715D02*
X175525779Y-32924876D01*
X175492850Y-32066040D02*
X175824732Y-32568698D01*
X175346369Y-32696875D01*
X174766766Y-32300032D02*
X174693171Y-32319752D01*
X174629437Y-32376268D01*
X174602500Y-32422925D01*
X174585421Y-32506380D01*
X174588064Y-32663428D01*
X174637362Y-32847414D01*
X174713598Y-32984743D01*
X174770116Y-33048477D01*
X174816773Y-33075415D01*
X174900226Y-33092493D01*
X174973821Y-33072773D01*
X175037555Y-33016257D01*
X175064493Y-32969599D01*
X175081571Y-32886145D01*
X175078929Y-32729097D01*
X175029630Y-32545111D01*
X174953394Y-32407782D01*
X174896877Y-32344047D01*
X174850220Y-32317110D01*
X174766766Y-32300032D01*
X193797955Y-23098358D02*
X193590900Y-22325617D01*
X193406914Y-22374916D01*
X193306382Y-22441293D01*
X193252507Y-22534606D01*
X193235430Y-22618061D01*
X193238072Y-22775109D01*
X193267651Y-22885501D01*
X193343887Y-23022830D01*
X193400404Y-23086564D01*
X193493718Y-23140439D01*
X193613970Y-23147657D01*
X193797955Y-23098358D01*
X192556003Y-22878990D02*
X192694040Y-23394151D01*
X192661111Y-22535315D02*
X192992993Y-23037973D01*
X192514630Y-23166150D01*
X191884502Y-23611066D02*
X192326068Y-23492749D01*
X192105285Y-23551908D02*
X191898230Y-22779167D01*
X192001403Y-22869838D01*
X192094718Y-22923714D01*
X192178171Y-22940791D01*
X198728458Y-41499245D02*
X198521403Y-40726504D01*
X198337417Y-40775803D01*
X198236885Y-40842180D01*
X198183010Y-40935493D01*
X198165933Y-41018948D01*
X198168575Y-41175996D01*
X198198154Y-41286388D01*
X198274390Y-41423717D01*
X198330907Y-41487451D01*
X198424221Y-41541326D01*
X198544473Y-41548544D01*
X198728458Y-41499245D01*
X197486506Y-41279877D02*
X197624543Y-41795038D01*
X197591614Y-40936202D02*
X197923496Y-41438860D01*
X197445133Y-41567037D01*
X197069235Y-41194489D02*
X197022578Y-41167552D01*
X196939124Y-41150475D01*
X196755138Y-41199774D01*
X196691404Y-41256290D01*
X196664466Y-41302947D01*
X196647388Y-41386402D01*
X196667108Y-41459995D01*
X196733484Y-41560527D01*
X197293368Y-41883776D01*
X196815005Y-42011953D01*
X181560197Y-51029970D02*
X181353142Y-50257229D01*
X181169156Y-50306528D01*
X181068624Y-50372905D01*
X181014749Y-50466218D01*
X180997672Y-50549673D01*
X181000314Y-50706721D01*
X181029893Y-50817113D01*
X181106129Y-50954442D01*
X181162646Y-51018176D01*
X181255960Y-51072051D01*
X181376212Y-51079269D01*
X181560197Y-51029970D01*
X180318245Y-50810602D02*
X180456282Y-51325763D01*
X180423353Y-50466927D02*
X180755235Y-50969585D01*
X180276872Y-51097762D01*
X179918052Y-50641761D02*
X179439688Y-50769938D01*
X179776147Y-50995297D01*
X179665755Y-51024876D01*
X179602021Y-51081393D01*
X179575083Y-51128049D01*
X179558006Y-51211504D01*
X179607304Y-51395490D01*
X179663821Y-51459224D01*
X179710479Y-51486162D01*
X179793932Y-51503239D01*
X180014716Y-51444081D01*
X180078450Y-51387564D01*
X180105387Y-51340907D01*
X203658961Y-59900132D02*
X203451906Y-59127391D01*
X203267920Y-59176690D01*
X203167388Y-59243067D01*
X203113513Y-59336380D01*
X203096436Y-59419835D01*
X203099078Y-59576883D01*
X203128657Y-59687275D01*
X203204893Y-59824604D01*
X203261410Y-59888338D01*
X203354724Y-59942213D01*
X203474976Y-59949431D01*
X203658961Y-59900132D01*
X202417009Y-59680764D02*
X202555046Y-60195925D01*
X202522117Y-59337089D02*
X202853999Y-59839747D01*
X202375636Y-59967924D01*
X201681065Y-59877960D02*
X201819102Y-60393121D01*
X201786173Y-59534284D02*
X202118055Y-60036943D01*
X201639692Y-60165120D01*
X225757725Y-68770295D02*
X225550670Y-67997554D01*
X225366684Y-68046853D01*
X225266152Y-68113230D01*
X225212277Y-68206543D01*
X225195200Y-68289998D01*
X225197842Y-68447046D01*
X225227421Y-68557438D01*
X225303657Y-68694767D01*
X225360174Y-68758501D01*
X225453488Y-68812376D01*
X225573740Y-68819594D01*
X225757725Y-68770295D01*
X224515773Y-68550927D02*
X224653810Y-69066088D01*
X224620881Y-68207252D02*
X224952763Y-68709910D01*
X224474400Y-68838087D01*
X223674013Y-68500403D02*
X224041986Y-68401805D01*
X224177380Y-68759917D01*
X224130724Y-68732980D01*
X224047269Y-68715902D01*
X223863283Y-68765201D01*
X223799549Y-68821718D01*
X223772611Y-68868374D01*
X223755534Y-68951829D01*
X223804832Y-69135815D01*
X223861349Y-69199549D01*
X223908007Y-69226487D01*
X223991460Y-69243564D01*
X224175446Y-69194266D01*
X224239181Y-69137749D01*
X224266118Y-69091091D01*
X208589464Y-78301019D02*
X208382409Y-77528278D01*
X208198423Y-77577577D01*
X208097891Y-77643954D01*
X208044016Y-77737267D01*
X208026939Y-77820722D01*
X208029581Y-77977770D01*
X208059160Y-78088162D01*
X208135396Y-78225491D01*
X208191913Y-78289225D01*
X208285227Y-78343100D01*
X208405479Y-78350318D01*
X208589464Y-78301019D01*
X207347512Y-78081651D02*
X207485549Y-78596812D01*
X207452620Y-77737976D02*
X207784502Y-78240634D01*
X207306139Y-78368811D01*
X206542550Y-78021267D02*
X206689739Y-77981828D01*
X206773193Y-77998905D01*
X206819849Y-78025843D01*
X206923023Y-78116515D01*
X206999260Y-78253844D01*
X207078138Y-78548221D01*
X207061060Y-78631675D01*
X207034123Y-78678333D01*
X206970388Y-78734849D01*
X206823199Y-78774288D01*
X206739746Y-78757211D01*
X206693088Y-78730273D01*
X206636571Y-78666539D01*
X206587273Y-78482553D01*
X206604350Y-78399098D01*
X206631288Y-78352442D01*
X206695022Y-78295925D01*
X206842211Y-78256486D01*
X206925666Y-78273563D01*
X206972322Y-78300501D01*
X207028839Y-78364236D01*
X230688228Y-87171182D02*
X230481173Y-86398441D01*
X230297187Y-86447740D01*
X230196655Y-86514117D01*
X230142780Y-86607430D01*
X230125703Y-86690885D01*
X230128345Y-86847933D01*
X230157924Y-86958325D01*
X230234160Y-87095654D01*
X230290677Y-87159388D01*
X230383991Y-87213263D01*
X230504243Y-87220481D01*
X230688228Y-87171182D01*
X229446276Y-86951814D02*
X229584313Y-87466975D01*
X229551384Y-86608139D02*
X229883266Y-87110797D01*
X229404903Y-87238974D01*
X229046083Y-86782973D02*
X228530922Y-86921009D01*
X229069152Y-87605012D01*
X213519966Y-96701906D02*
X213312911Y-95929165D01*
X213128925Y-95978464D01*
X213028393Y-96044841D01*
X212974518Y-96138154D01*
X212957441Y-96221609D01*
X212960083Y-96378657D01*
X212989662Y-96489049D01*
X213065898Y-96626378D01*
X213122415Y-96690112D01*
X213215729Y-96743987D01*
X213335981Y-96751205D01*
X213519966Y-96701906D01*
X212278014Y-96482538D02*
X212416051Y-96997699D01*
X212383122Y-96138863D02*
X212715004Y-96641521D01*
X212236641Y-96769698D01*
X211782573Y-96694170D02*
X211846308Y-96637653D01*
X211873245Y-96590996D01*
X211890322Y-96507542D01*
X211880463Y-96470745D01*
X211823946Y-96407010D01*
X211777289Y-96380073D01*
X211693835Y-96362996D01*
X211546646Y-96402435D01*
X211482912Y-96458951D01*
X211455974Y-96505608D01*
X211438896Y-96589063D01*
X211448756Y-96625859D01*
X211505273Y-96689594D01*
X211551930Y-96716532D01*
X211635384Y-96733609D01*
X211782573Y-96694170D01*
X211866027Y-96711247D01*
X211912684Y-96738184D01*
X211969201Y-96801920D01*
X212008640Y-96949108D01*
X211991562Y-97032562D01*
X211964625Y-97079220D01*
X211900890Y-97135736D01*
X211753701Y-97175175D01*
X211670248Y-97158098D01*
X211623590Y-97131160D01*
X211567073Y-97067426D01*
X211527634Y-96920237D01*
X211544712Y-96836782D01*
X211571650Y-96790125D01*
X211635384Y-96733609D01*
X230599729Y-13237353D02*
X230392674Y-12464612D01*
X230208688Y-12513911D01*
X230108156Y-12580288D01*
X230054281Y-12673601D01*
X230037204Y-12757056D01*
X230039846Y-12914104D01*
X230069425Y-13024496D01*
X230145661Y-13161825D01*
X230202178Y-13225559D01*
X230295492Y-13279434D01*
X230415744Y-13286652D01*
X230599729Y-13237353D01*
X229357777Y-13017985D02*
X229495814Y-13533146D01*
X229462885Y-12674310D02*
X229794767Y-13176968D01*
X229316404Y-13305145D01*
X229054248Y-13651464D02*
X228907059Y-13690903D01*
X228823605Y-13673825D01*
X228776948Y-13646887D01*
X228673774Y-13556216D01*
X228597538Y-13418887D01*
X228518659Y-13124510D01*
X228535737Y-13041055D01*
X228562675Y-12994398D01*
X228626409Y-12937882D01*
X228773598Y-12898443D01*
X228857052Y-12915520D01*
X228903709Y-12942457D01*
X228960226Y-13006192D01*
X229009525Y-13190178D01*
X228992447Y-13273631D01*
X228965510Y-13320289D01*
X228901775Y-13376806D01*
X228754586Y-13416245D01*
X228671133Y-13399167D01*
X228624475Y-13372229D01*
X228567958Y-13308495D01*
X210966217Y-13567634D02*
X210759162Y-12794893D01*
X210575176Y-12844192D01*
X210474644Y-12910569D01*
X210420769Y-13003882D01*
X210403692Y-13087337D01*
X210406334Y-13244385D01*
X210435913Y-13354777D01*
X210512149Y-13492106D01*
X210568666Y-13555840D01*
X210661980Y-13609715D01*
X210782232Y-13616933D01*
X210966217Y-13567634D01*
X209618449Y-13100547D02*
X209986421Y-13001949D01*
X210121816Y-13360060D01*
X210075159Y-13333123D01*
X209991705Y-13316046D01*
X209807719Y-13365345D01*
X209743985Y-13421861D01*
X209717047Y-13468518D01*
X209699969Y-13551972D01*
X209749268Y-13735958D01*
X209805785Y-13799692D01*
X209852442Y-13826630D01*
X209935896Y-13843708D01*
X210119882Y-13794409D01*
X210183617Y-13737892D01*
X210210554Y-13691235D01*
X209103289Y-13238583D02*
X209029694Y-13258303D01*
X208965960Y-13314819D01*
X208939023Y-13361476D01*
X208921944Y-13444931D01*
X208924587Y-13601979D01*
X208973885Y-13785965D01*
X209050121Y-13923294D01*
X209106639Y-13987028D01*
X209153296Y-14013966D01*
X209236749Y-14031044D01*
X209310344Y-14011324D01*
X209374078Y-13954808D01*
X209401016Y-13908150D01*
X209418094Y-13824696D01*
X209415452Y-13667648D01*
X209366153Y-13483662D01*
X209289917Y-13346333D01*
X209233400Y-13282598D01*
X209186743Y-13255661D01*
X209103289Y-13238583D01*
X215896719Y-31968521D02*
X215689664Y-31195780D01*
X215505678Y-31245079D01*
X215405146Y-31311456D01*
X215351271Y-31404769D01*
X215334194Y-31488224D01*
X215336836Y-31645272D01*
X215366415Y-31755664D01*
X215442651Y-31892993D01*
X215499168Y-31956727D01*
X215592482Y-32010602D01*
X215712734Y-32017820D01*
X215896719Y-31968521D01*
X214548951Y-31501434D02*
X214916923Y-31402836D01*
X215052318Y-31760947D01*
X215005661Y-31734010D01*
X214922207Y-31716933D01*
X214738221Y-31766232D01*
X214674487Y-31822748D01*
X214647549Y-31869405D01*
X214630471Y-31952859D01*
X214679770Y-32136845D01*
X214736287Y-32200579D01*
X214782944Y-32227517D01*
X214866398Y-32244595D01*
X215050384Y-32195296D01*
X215114119Y-32138779D01*
X215141056Y-32092122D01*
X213983266Y-32481229D02*
X214424832Y-32362912D01*
X214204049Y-32422071D02*
X213996994Y-31649330D01*
X214100167Y-31740001D01*
X214193482Y-31793877D01*
X214276935Y-31810954D01*
X235530232Y-31638240D02*
X235323177Y-30865499D01*
X235139191Y-30914798D01*
X235038659Y-30981175D01*
X234984784Y-31074488D01*
X234967707Y-31157943D01*
X234970349Y-31314991D01*
X234999928Y-31425383D01*
X235076164Y-31562712D01*
X235132681Y-31626446D01*
X235225995Y-31680321D01*
X235346247Y-31687539D01*
X235530232Y-31638240D01*
X234182464Y-31171153D02*
X234550436Y-31072555D01*
X234685831Y-31430666D01*
X234639174Y-31403729D01*
X234555720Y-31386652D01*
X234371734Y-31435951D01*
X234308000Y-31492467D01*
X234281062Y-31539124D01*
X234263984Y-31622578D01*
X234313283Y-31806564D01*
X234369800Y-31870298D01*
X234416457Y-31897236D01*
X234499911Y-31914314D01*
X234683897Y-31865015D01*
X234747632Y-31808498D01*
X234774569Y-31761841D01*
X233871009Y-31333484D02*
X233824352Y-31306547D01*
X233740898Y-31289470D01*
X233556912Y-31338769D01*
X233493178Y-31395285D01*
X233466240Y-31441942D01*
X233449162Y-31525397D01*
X233468882Y-31598990D01*
X233535258Y-31699522D01*
X234095142Y-32022771D01*
X233616779Y-32150948D01*
X220827222Y-50369408D02*
X220620167Y-49596667D01*
X220436181Y-49645966D01*
X220335649Y-49712343D01*
X220281774Y-49805656D01*
X220264697Y-49889111D01*
X220267339Y-50046159D01*
X220296918Y-50156551D01*
X220373154Y-50293880D01*
X220429671Y-50357614D01*
X220522985Y-50411489D01*
X220643237Y-50418707D01*
X220827222Y-50369408D01*
X219479454Y-49902321D02*
X219847426Y-49803723D01*
X219982821Y-50161834D01*
X219936164Y-50134897D01*
X219852710Y-50117820D01*
X219668724Y-50167119D01*
X219604990Y-50223635D01*
X219578052Y-50270292D01*
X219560974Y-50353746D01*
X219610273Y-50537732D01*
X219666790Y-50601466D01*
X219713447Y-50628404D01*
X219796901Y-50645482D01*
X219980887Y-50596183D01*
X220044622Y-50539666D01*
X220071559Y-50493009D01*
X219185077Y-49981199D02*
X218706713Y-50109376D01*
X219043172Y-50334735D01*
X218932780Y-50364314D01*
X218869046Y-50420831D01*
X218842108Y-50467487D01*
X218825031Y-50550942D01*
X218874329Y-50734928D01*
X218930846Y-50798662D01*
X218977504Y-50825600D01*
X219060957Y-50842677D01*
X219281741Y-50783519D01*
X219345475Y-50727002D01*
X219372412Y-50680345D01*
X240460735Y-50039127D02*
X240253680Y-49266386D01*
X240069694Y-49315685D01*
X239969162Y-49382062D01*
X239915287Y-49475375D01*
X239898210Y-49558830D01*
X239900852Y-49715878D01*
X239930431Y-49826270D01*
X240006667Y-49963599D01*
X240063184Y-50027333D01*
X240156498Y-50081208D01*
X240276750Y-50088426D01*
X240460735Y-50039127D01*
X239112967Y-49572040D02*
X239480939Y-49473442D01*
X239616334Y-49831553D01*
X239569677Y-49804616D01*
X239486223Y-49787539D01*
X239302237Y-49836838D01*
X239238503Y-49893354D01*
X239211565Y-49940011D01*
X239194487Y-50023465D01*
X239243786Y-50207451D01*
X239300303Y-50271185D01*
X239346960Y-50298123D01*
X239430414Y-50315201D01*
X239614400Y-50265902D01*
X239678135Y-50209385D01*
X239705072Y-50162728D01*
X238482839Y-50016955D02*
X238620876Y-50532116D01*
X238587947Y-49673279D02*
X238919829Y-50175938D01*
X238441466Y-50304115D01*
X245391238Y-68440014D02*
X245184183Y-67667273D01*
X245000197Y-67716572D01*
X244899665Y-67782949D01*
X244845790Y-67876262D01*
X244828713Y-67959717D01*
X244831355Y-68116765D01*
X244860934Y-68227157D01*
X244937170Y-68364486D01*
X244993687Y-68428220D01*
X245087001Y-68482095D01*
X245207253Y-68489313D01*
X245391238Y-68440014D01*
X244043470Y-67972927D02*
X244411442Y-67874329D01*
X244546837Y-68232440D01*
X244500180Y-68205503D01*
X244416726Y-68188426D01*
X244232740Y-68237725D01*
X244169006Y-68294241D01*
X244142068Y-68340898D01*
X244124990Y-68424352D01*
X244174289Y-68608338D01*
X244230806Y-68672072D01*
X244277463Y-68699010D01*
X244360917Y-68716088D01*
X244544903Y-68666789D01*
X244608638Y-68610272D01*
X244635575Y-68563615D01*
X243307526Y-68170122D02*
X243675499Y-68071524D01*
X243810893Y-68429636D01*
X243764237Y-68402699D01*
X243680782Y-68385621D01*
X243496796Y-68434920D01*
X243433062Y-68491437D01*
X243406124Y-68538093D01*
X243389047Y-68621548D01*
X243438345Y-68805534D01*
X243494862Y-68869268D01*
X243541520Y-68896206D01*
X243624973Y-68913283D01*
X243808959Y-68863985D01*
X243872694Y-68807468D01*
X243899631Y-68760810D01*
X250321740Y-86840901D02*
X250114685Y-86068160D01*
X249930699Y-86117459D01*
X249830167Y-86183836D01*
X249776292Y-86277149D01*
X249759215Y-86360604D01*
X249761857Y-86517652D01*
X249791436Y-86628044D01*
X249867672Y-86765373D01*
X249924189Y-86829107D01*
X250017503Y-86882982D01*
X250137755Y-86890200D01*
X250321740Y-86840901D01*
X248973972Y-86373814D02*
X249341944Y-86275216D01*
X249477339Y-86633327D01*
X249430682Y-86606390D01*
X249347228Y-86589313D01*
X249163242Y-86638612D01*
X249099508Y-86695128D01*
X249072570Y-86741785D01*
X249055492Y-86825239D01*
X249104791Y-87009225D01*
X249161308Y-87072959D01*
X249207965Y-87099897D01*
X249291419Y-87116975D01*
X249475405Y-87067676D01*
X249539140Y-87011159D01*
X249566077Y-86964502D01*
X248274826Y-86561149D02*
X248422015Y-86521710D01*
X248505469Y-86538787D01*
X248552125Y-86565725D01*
X248655299Y-86656397D01*
X248731536Y-86793726D01*
X248810414Y-87088103D01*
X248793336Y-87171557D01*
X248766399Y-87218215D01*
X248702664Y-87274731D01*
X248555475Y-87314170D01*
X248472022Y-87297093D01*
X248425364Y-87270155D01*
X248368847Y-87206421D01*
X248319549Y-87022435D01*
X248336626Y-86938980D01*
X248363564Y-86892324D01*
X248427298Y-86835807D01*
X248574487Y-86796368D01*
X248657942Y-86813445D01*
X248704598Y-86840383D01*
X248761115Y-86904118D01*
X269955253Y-86510620D02*
X269748198Y-85737879D01*
X269564212Y-85787178D01*
X269463680Y-85853555D01*
X269409805Y-85946868D01*
X269392728Y-86030323D01*
X269395370Y-86187371D01*
X269424949Y-86297763D01*
X269501185Y-86435092D01*
X269557702Y-86498826D01*
X269651016Y-86552701D01*
X269771268Y-86559919D01*
X269955253Y-86510620D01*
X268607485Y-86043533D02*
X268975457Y-85944935D01*
X269110852Y-86303046D01*
X269064195Y-86276109D01*
X268980741Y-86259032D01*
X268796755Y-86308331D01*
X268733021Y-86364847D01*
X268706083Y-86411504D01*
X268689005Y-86494958D01*
X268738304Y-86678944D01*
X268794821Y-86742678D01*
X268841478Y-86769616D01*
X268924932Y-86786694D01*
X269108918Y-86737395D01*
X269172653Y-86680878D01*
X269199590Y-86634221D01*
X268313108Y-86122411D02*
X267797947Y-86260447D01*
X268336177Y-86944450D01*
X250233242Y-12907072D02*
X250026187Y-12134331D01*
X249842201Y-12183630D01*
X249741669Y-12250007D01*
X249687794Y-12343320D01*
X249670717Y-12426775D01*
X249673359Y-12583823D01*
X249702938Y-12694215D01*
X249779174Y-12831544D01*
X249835691Y-12895278D01*
X249929005Y-12949153D01*
X250049257Y-12956371D01*
X250233242Y-12907072D01*
X248885474Y-12439985D02*
X249253446Y-12341387D01*
X249388841Y-12699498D01*
X249342184Y-12672561D01*
X249258730Y-12655484D01*
X249074744Y-12704783D01*
X249011010Y-12761299D01*
X248984072Y-12807956D01*
X248966994Y-12891410D01*
X249016293Y-13075396D01*
X249072810Y-13139130D01*
X249119467Y-13166068D01*
X249202921Y-13183146D01*
X249386907Y-13133847D01*
X249450642Y-13077330D01*
X249477579Y-13030673D01*
X248495849Y-12899336D02*
X248559584Y-12842819D01*
X248586521Y-12796162D01*
X248603598Y-12712708D01*
X248593739Y-12675911D01*
X248537222Y-12612176D01*
X248490565Y-12585239D01*
X248407111Y-12568162D01*
X248259922Y-12607601D01*
X248196188Y-12664117D01*
X248169250Y-12710774D01*
X248152172Y-12794229D01*
X248162032Y-12831025D01*
X248218549Y-12894760D01*
X248265206Y-12921698D01*
X248348660Y-12938775D01*
X248495849Y-12899336D01*
X248579303Y-12916413D01*
X248625960Y-12943350D01*
X248682477Y-13007086D01*
X248721916Y-13154274D01*
X248704838Y-13237728D01*
X248677901Y-13284386D01*
X248614166Y-13340902D01*
X248466977Y-13380341D01*
X248383524Y-13363264D01*
X248336866Y-13336326D01*
X248280349Y-13272592D01*
X248240910Y-13125403D01*
X248257988Y-13041948D01*
X248284926Y-12995291D01*
X248348660Y-12938775D01*
X277834572Y-5511317D02*
X277627517Y-4738576D01*
X277443531Y-4787875D01*
X277342999Y-4854252D01*
X277289124Y-4947565D01*
X277272047Y-5031020D01*
X277274689Y-5188068D01*
X277304268Y-5298460D01*
X277380504Y-5435789D01*
X277437021Y-5499523D01*
X277530335Y-5553398D01*
X277650587Y-5560616D01*
X277834572Y-5511317D01*
X276486804Y-5044230D02*
X276854776Y-4945632D01*
X276990171Y-5303743D01*
X276943514Y-5276806D01*
X276860060Y-5259729D01*
X276676074Y-5309028D01*
X276612340Y-5365544D01*
X276585402Y-5412201D01*
X276568324Y-5495655D01*
X276617623Y-5679641D01*
X276674140Y-5743375D01*
X276720797Y-5770313D01*
X276804251Y-5787391D01*
X276988237Y-5738092D01*
X277051972Y-5681575D01*
X277078909Y-5634918D01*
X276289091Y-5925428D02*
X276141902Y-5964867D01*
X276058448Y-5947789D01*
X276011791Y-5920851D01*
X275908617Y-5830180D01*
X275832381Y-5692851D01*
X275753502Y-5398474D01*
X275770580Y-5315019D01*
X275797518Y-5268362D01*
X275861252Y-5211846D01*
X276008441Y-5172407D01*
X276091895Y-5189484D01*
X276138552Y-5216421D01*
X276195069Y-5280156D01*
X276244368Y-5464142D01*
X276227290Y-5547595D01*
X276200353Y-5594253D01*
X276136618Y-5650770D01*
X275989429Y-5690209D01*
X275905976Y-5673131D01*
X275859318Y-5646193D01*
X275802801Y-5582459D01*
X278164853Y-25144830D02*
X277957798Y-24372089D01*
X277773812Y-24421388D01*
X277673280Y-24487765D01*
X277619405Y-24581078D01*
X277602328Y-24664533D01*
X277604970Y-24821581D01*
X277634549Y-24931973D01*
X277710785Y-25069302D01*
X277767302Y-25133036D01*
X277860616Y-25186911D01*
X277980868Y-25194129D01*
X278164853Y-25144830D01*
X276853883Y-24667883D02*
X277001072Y-24628443D01*
X277084525Y-24645521D01*
X277131182Y-24672458D01*
X277234356Y-24763130D01*
X277310592Y-24900459D01*
X277389470Y-25194837D01*
X277372393Y-25278290D01*
X277345456Y-25324948D01*
X277281721Y-25381465D01*
X277134532Y-25420904D01*
X277051078Y-25403826D01*
X277004421Y-25376888D01*
X276947904Y-25313154D01*
X276898605Y-25129168D01*
X276915683Y-25045714D01*
X276942621Y-24999057D01*
X277006355Y-24942541D01*
X277153544Y-24903102D01*
X277236998Y-24920179D01*
X277283655Y-24947116D01*
X277340172Y-25010851D01*
X276301925Y-24815779D02*
X276228330Y-24835499D01*
X276164596Y-24892015D01*
X276137659Y-24938672D01*
X276120580Y-25022127D01*
X276123223Y-25179175D01*
X276172521Y-25363161D01*
X276248757Y-25500490D01*
X276305275Y-25564224D01*
X276351932Y-25591162D01*
X276435385Y-25608240D01*
X276508980Y-25588520D01*
X276572714Y-25532004D01*
X276599652Y-25485346D01*
X276616730Y-25401892D01*
X276614088Y-25244844D01*
X276564789Y-25060858D01*
X276488553Y-24923529D01*
X276432036Y-24859794D01*
X276385379Y-24832857D01*
X276301925Y-24815779D01*
X255163745Y-31307959D02*
X254956690Y-30535218D01*
X254772704Y-30584517D01*
X254672172Y-30650894D01*
X254618297Y-30744207D01*
X254601220Y-30827662D01*
X254603862Y-30984710D01*
X254633441Y-31095102D01*
X254709677Y-31232431D01*
X254766194Y-31296165D01*
X254859508Y-31350040D01*
X254979760Y-31357258D01*
X255163745Y-31307959D01*
X253852775Y-30831012D02*
X253999964Y-30791572D01*
X254083417Y-30808650D01*
X254130074Y-30835587D01*
X254233248Y-30926259D01*
X254309484Y-31063588D01*
X254388362Y-31357966D01*
X254371285Y-31441419D01*
X254344348Y-31488077D01*
X254280613Y-31544594D01*
X254133424Y-31584033D01*
X254049970Y-31566955D01*
X254003313Y-31540017D01*
X253946796Y-31476283D01*
X253897497Y-31292297D01*
X253914575Y-31208843D01*
X253941513Y-31162186D01*
X254005247Y-31105670D01*
X254152436Y-31066231D01*
X254235890Y-31083308D01*
X254282547Y-31110245D01*
X254339064Y-31173980D01*
X253250292Y-31820667D02*
X253691858Y-31702350D01*
X253471075Y-31761509D02*
X253264020Y-30988768D01*
X253367193Y-31079439D01*
X253460508Y-31133315D01*
X253543961Y-31150392D01*
X289995689Y-41696779D02*
X289788634Y-40924038D01*
X289604648Y-40973337D01*
X289504116Y-41039714D01*
X289450241Y-41133027D01*
X289433164Y-41216482D01*
X289435806Y-41373530D01*
X289465385Y-41483922D01*
X289541621Y-41621251D01*
X289598138Y-41684985D01*
X289691452Y-41738860D01*
X289811704Y-41746078D01*
X289995689Y-41696779D01*
X288684719Y-41219832D02*
X288831908Y-41180392D01*
X288915361Y-41197470D01*
X288962018Y-41224407D01*
X289065192Y-41315079D01*
X289141428Y-41452408D01*
X289220306Y-41746786D01*
X289203229Y-41830239D01*
X289176292Y-41876897D01*
X289112557Y-41933414D01*
X288965368Y-41972853D01*
X288881914Y-41955775D01*
X288835257Y-41928837D01*
X288778740Y-41865103D01*
X288729441Y-41681117D01*
X288746519Y-41597663D01*
X288773457Y-41551006D01*
X288837191Y-41494490D01*
X288984380Y-41455051D01*
X289067834Y-41472128D01*
X289114491Y-41499065D01*
X289171008Y-41562800D01*
X288336466Y-41392023D02*
X288289809Y-41365086D01*
X288206355Y-41348009D01*
X288022369Y-41397308D01*
X287958635Y-41453824D01*
X287931697Y-41500481D01*
X287914619Y-41583936D01*
X287934339Y-41657529D01*
X288000715Y-41758061D01*
X288560599Y-42081310D01*
X288082236Y-42209487D01*
X260094248Y-49708846D02*
X259887193Y-48936105D01*
X259703207Y-48985404D01*
X259602675Y-49051781D01*
X259548800Y-49145094D01*
X259531723Y-49228549D01*
X259534365Y-49385597D01*
X259563944Y-49495989D01*
X259640180Y-49633318D01*
X259696697Y-49697052D01*
X259790011Y-49750927D01*
X259910263Y-49758145D01*
X260094248Y-49708846D01*
X258783278Y-49231899D02*
X258930467Y-49192459D01*
X259013920Y-49209537D01*
X259060577Y-49236474D01*
X259163751Y-49327146D01*
X259239987Y-49464475D01*
X259318865Y-49758853D01*
X259301788Y-49842306D01*
X259274851Y-49888964D01*
X259211116Y-49945481D01*
X259063927Y-49984920D01*
X258980473Y-49967842D01*
X258933816Y-49940904D01*
X258877299Y-49877170D01*
X258828000Y-49693184D01*
X258845078Y-49609730D01*
X258872016Y-49563073D01*
X258935750Y-49506557D01*
X259082939Y-49467118D01*
X259166393Y-49484195D01*
X259213050Y-49511132D01*
X259269567Y-49574867D01*
X258452103Y-49320637D02*
X257973739Y-49448814D01*
X258310198Y-49674173D01*
X258199806Y-49703752D01*
X258136072Y-49760269D01*
X258109134Y-49806925D01*
X258092057Y-49890380D01*
X258141355Y-50074366D01*
X258197872Y-50138100D01*
X258244530Y-50165038D01*
X258327983Y-50182115D01*
X258548767Y-50122957D01*
X258612501Y-50066440D01*
X258639438Y-50019783D01*
X265024750Y-68109733D02*
X264817695Y-67336992D01*
X264633709Y-67386291D01*
X264533177Y-67452668D01*
X264479302Y-67545981D01*
X264462225Y-67629436D01*
X264464867Y-67786484D01*
X264494446Y-67896876D01*
X264570682Y-68034205D01*
X264627199Y-68097939D01*
X264720513Y-68151814D01*
X264840765Y-68159032D01*
X265024750Y-68109733D01*
X263713780Y-67632786D02*
X263860969Y-67593346D01*
X263944422Y-67610424D01*
X263991079Y-67637361D01*
X264094253Y-67728033D01*
X264170489Y-67865362D01*
X264249367Y-68159740D01*
X264232290Y-68243193D01*
X264205353Y-68289851D01*
X264141618Y-68346368D01*
X263994429Y-68385807D01*
X263910975Y-68368729D01*
X263864318Y-68341791D01*
X263807801Y-68278057D01*
X263758502Y-68094071D01*
X263775580Y-68010617D01*
X263802518Y-67963960D01*
X263866252Y-67907444D01*
X264013441Y-67868005D01*
X264096895Y-67885082D01*
X264143552Y-67912019D01*
X264200069Y-67975754D01*
X263046854Y-68087561D02*
X263184891Y-68602722D01*
X263151962Y-67743885D02*
X263483844Y-68246544D01*
X263005481Y-68374721D01*
X290325970Y-61330291D02*
X290118915Y-60557550D01*
X289934929Y-60606849D01*
X289834397Y-60673226D01*
X289780522Y-60766539D01*
X289763445Y-60849994D01*
X289766087Y-61007042D01*
X289795666Y-61117434D01*
X289871902Y-61254763D01*
X289928419Y-61318497D01*
X290021733Y-61372372D01*
X290141985Y-61379590D01*
X290325970Y-61330291D01*
X289015000Y-60853344D02*
X289162189Y-60813904D01*
X289245642Y-60830982D01*
X289292299Y-60857919D01*
X289395473Y-60948591D01*
X289471709Y-61085920D01*
X289550587Y-61380298D01*
X289533510Y-61463751D01*
X289506573Y-61510409D01*
X289442838Y-61566926D01*
X289295649Y-61606365D01*
X289212195Y-61589287D01*
X289165538Y-61562349D01*
X289109021Y-61498615D01*
X289059722Y-61314629D01*
X289076800Y-61231175D01*
X289103738Y-61184518D01*
X289167472Y-61128002D01*
X289314661Y-61088563D01*
X289398115Y-61105640D01*
X289444772Y-61132577D01*
X289501289Y-61196312D01*
X288242258Y-61060399D02*
X288610231Y-60961801D01*
X288745625Y-61319913D01*
X288698969Y-61292976D01*
X288615514Y-61275898D01*
X288431528Y-61325197D01*
X288367794Y-61381714D01*
X288340856Y-61428370D01*
X288323779Y-61511825D01*
X288373077Y-61695811D01*
X288429594Y-61759545D01*
X288476252Y-61786483D01*
X288559705Y-61803560D01*
X288743691Y-61754262D01*
X288807426Y-61697745D01*
X288834363Y-61651087D01*
X315627190Y-54550850D02*
X315420135Y-53778109D01*
X315236149Y-53827408D01*
X315135617Y-53893785D01*
X315081742Y-53987098D01*
X315064665Y-54070553D01*
X315067307Y-54227601D01*
X315096886Y-54337993D01*
X315173122Y-54475322D01*
X315229639Y-54539056D01*
X315322953Y-54592931D01*
X315443205Y-54600149D01*
X315627190Y-54550850D01*
X314316220Y-54073903D02*
X314463409Y-54034463D01*
X314546862Y-54051541D01*
X314593519Y-54078478D01*
X314696693Y-54169150D01*
X314772929Y-54306479D01*
X314851807Y-54600857D01*
X314834730Y-54684310D01*
X314807793Y-54730968D01*
X314744058Y-54787485D01*
X314596869Y-54826924D01*
X314513415Y-54809846D01*
X314466758Y-54782908D01*
X314410241Y-54719174D01*
X314360942Y-54535188D01*
X314378020Y-54451734D01*
X314404958Y-54405077D01*
X314468692Y-54348561D01*
X314615881Y-54309122D01*
X314699335Y-54326199D01*
X314745992Y-54353136D01*
X314802509Y-54416871D01*
X313580276Y-54271098D02*
X313727465Y-54231659D01*
X313810919Y-54248736D01*
X313857575Y-54275674D01*
X313960749Y-54366346D01*
X314036986Y-54503675D01*
X314115864Y-54798052D01*
X314098786Y-54881506D01*
X314071849Y-54928164D01*
X314008114Y-54984680D01*
X313860925Y-55024119D01*
X313777472Y-55007042D01*
X313730814Y-54980104D01*
X313674297Y-54916370D01*
X313624999Y-54732384D01*
X313642076Y-54648929D01*
X313669014Y-54602273D01*
X313732748Y-54545756D01*
X313879937Y-54506317D01*
X313963392Y-54523394D01*
X314010048Y-54550332D01*
X314066565Y-54614067D01*
X137969345Y-23696131D02*
X137969345Y-24410417D01*
X138016965Y-24553274D01*
X138112203Y-24648512D01*
X138255060Y-24696131D01*
X138350298Y-24696131D01*
X137731250Y-24791369D02*
X136969345Y-24791369D01*
X136207440Y-23743750D02*
X136302678Y-23696131D01*
X136445535Y-23696131D01*
X136588393Y-23743750D01*
X136683631Y-23838988D01*
X136731250Y-23934226D01*
X136778869Y-24124702D01*
X136778869Y-24267560D01*
X136731250Y-24458036D01*
X136683631Y-24553274D01*
X136588393Y-24648512D01*
X136445535Y-24696131D01*
X136350297Y-24696131D01*
X136207440Y-24648512D01*
X136159821Y-24600893D01*
X136159821Y-24267560D01*
X136350297Y-24267560D01*
X135731250Y-24696131D02*
X135731250Y-23696131D01*
X135159821Y-24696131D01*
X135159821Y-23696131D01*
X134683631Y-24696131D02*
X134683631Y-23696131D01*
X134445536Y-23696131D01*
X134302678Y-23743750D01*
X134207440Y-23838988D01*
X134159821Y-23934226D01*
X134112202Y-24124702D01*
X134112202Y-24267560D01*
X134159821Y-24458036D01*
X134207440Y-24553274D01*
X134302678Y-24648512D01*
X134445536Y-24696131D01*
X134683631Y-24696131D01*
X133159821Y-24696131D02*
X133731250Y-24696131D01*
X133445536Y-24696131D02*
X133445536Y-23696131D01*
X133540774Y-23838988D01*
X133636012Y-23934226D01*
X133731250Y-23981845D01*
X138104285Y-17187381D02*
X138104285Y-17901667D01*
X138151905Y-18044524D01*
X138247143Y-18139762D01*
X138390000Y-18187381D01*
X138485238Y-18187381D01*
X137866190Y-18282619D02*
X137104285Y-18282619D01*
X136294761Y-18187381D02*
X136628095Y-17711190D01*
X136866190Y-18187381D02*
X136866190Y-17187381D01*
X136485237Y-17187381D01*
X136389999Y-17235000D01*
X136342380Y-17282619D01*
X136294761Y-17377857D01*
X136294761Y-17520714D01*
X136342380Y-17615952D01*
X136389999Y-17663571D01*
X136485237Y-17711190D01*
X136866190Y-17711190D01*
X135342380Y-17235000D02*
X135437618Y-17187381D01*
X135580475Y-17187381D01*
X135723333Y-17235000D01*
X135818571Y-17330238D01*
X135866190Y-17425476D01*
X135913809Y-17615952D01*
X135913809Y-17758810D01*
X135866190Y-17949286D01*
X135818571Y-18044524D01*
X135723333Y-18139762D01*
X135580475Y-18187381D01*
X135485237Y-18187381D01*
X135342380Y-18139762D01*
X135294761Y-18092143D01*
X135294761Y-17758810D01*
X135485237Y-17758810D01*
X134532856Y-17663571D02*
X134389999Y-17711190D01*
X134342380Y-17758810D01*
X134294761Y-17854048D01*
X134294761Y-17996905D01*
X134342380Y-18092143D01*
X134389999Y-18139762D01*
X134485237Y-18187381D01*
X134866190Y-18187381D01*
X134866190Y-17187381D01*
X134532856Y-17187381D01*
X134437618Y-17235000D01*
X134389999Y-17282619D01*
X134342380Y-17377857D01*
X134342380Y-17473095D01*
X134389999Y-17568333D01*
X134437618Y-17615952D01*
X134532856Y-17663571D01*
X134866190Y-17663571D01*
X133342380Y-18187381D02*
X133913809Y-18187381D01*
X133628095Y-18187381D02*
X133628095Y-17187381D01*
X133723333Y-17330238D01*
X133818571Y-17425476D01*
X133913809Y-17473095D01*
X171052857Y-24172381D02*
X171052857Y-24886667D01*
X171100477Y-25029524D01*
X171195715Y-25124762D01*
X171338572Y-25172381D01*
X171433810Y-25172381D01*
X170814762Y-25267619D02*
X170052857Y-25267619D01*
X169957619Y-24172381D02*
X169624286Y-25172381D01*
X169290952Y-24172381D01*
X168386190Y-25077143D02*
X168433809Y-25124762D01*
X168576666Y-25172381D01*
X168671904Y-25172381D01*
X168814762Y-25124762D01*
X168910000Y-25029524D01*
X168957619Y-24934286D01*
X169005238Y-24743810D01*
X169005238Y-24600952D01*
X168957619Y-24410476D01*
X168910000Y-24315238D01*
X168814762Y-24220000D01*
X168671904Y-24172381D01*
X168576666Y-24172381D01*
X168433809Y-24220000D01*
X168386190Y-24267619D01*
X167386190Y-25077143D02*
X167433809Y-25124762D01*
X167576666Y-25172381D01*
X167671904Y-25172381D01*
X167814762Y-25124762D01*
X167910000Y-25029524D01*
X167957619Y-24934286D01*
X168005238Y-24743810D01*
X168005238Y-24600952D01*
X167957619Y-24410476D01*
X167910000Y-24315238D01*
X167814762Y-24220000D01*
X167671904Y-24172381D01*
X167576666Y-24172381D01*
X167433809Y-24220000D01*
X167386190Y-24267619D01*
X166433809Y-25172381D02*
X167005238Y-25172381D01*
X166719524Y-25172381D02*
X166719524Y-24172381D01*
X166814762Y-24315238D01*
X166910000Y-24410476D01*
X167005238Y-24458095D01*
D11*
X254273514Y-27505655D02*
X254014695Y-26539729D01*
X253721556Y-27653551D02*
X253987628Y-26990671D01*
X253462737Y-26687625D02*
X254162592Y-27091687D01*
X253562220Y-27794843D02*
X252826276Y-27992038D01*
X252128840Y-27045042D02*
X252036846Y-27069692D01*
X251957178Y-27140338D01*
X251923506Y-27198659D01*
X251902159Y-27302976D01*
X251905462Y-27499287D01*
X251967085Y-27729270D01*
X252062381Y-27900931D01*
X252133026Y-27980599D01*
X252191348Y-28014271D01*
X252295665Y-28035618D01*
X252387659Y-28010968D01*
X252467327Y-27940322D01*
X252500999Y-27882001D01*
X252522346Y-27777683D01*
X252519043Y-27581373D01*
X252457420Y-27351390D01*
X252362124Y-27179729D01*
X252291479Y-27100061D01*
X252233157Y-27066389D01*
X252128840Y-27045042D01*
X52720055Y-28182075D02*
X52978874Y-27216150D01*
X52168097Y-28034179D02*
X52729962Y-27593143D01*
X52426916Y-27068253D02*
X52830977Y-27768108D01*
X51959461Y-28076873D02*
X51223518Y-27879677D01*
X50512223Y-27590489D02*
X51064181Y-27738386D01*
X50788203Y-27664437D02*
X51047022Y-26698512D01*
X51102041Y-26861150D01*
X51169384Y-26977792D01*
X51249052Y-27048438D01*
X72353567Y-28512356D02*
X72612386Y-27546431D01*
X71801609Y-28364460D02*
X72363474Y-27923424D01*
X72060428Y-27398534D02*
X72464489Y-28098389D01*
X71592973Y-28407154D02*
X70857030Y-28209958D01*
X70931863Y-27194734D02*
X70898191Y-27136412D01*
X70818523Y-27065767D01*
X70588540Y-27004143D01*
X70484223Y-27025490D01*
X70425901Y-27059162D01*
X70355256Y-27138830D01*
X70330606Y-27230823D01*
X70339629Y-27381137D01*
X70743690Y-28080991D01*
X70145735Y-27920770D01*
X91987078Y-28842637D02*
X92245897Y-27876712D01*
X91435120Y-28694741D02*
X91996985Y-28253705D01*
X91693939Y-27728815D02*
X92098000Y-28428670D01*
X91226484Y-28737435D02*
X90490541Y-28540239D01*
X90636020Y-27445346D02*
X90038065Y-27285125D01*
X90261444Y-27739370D01*
X90123453Y-27702395D01*
X90019136Y-27723742D01*
X89960815Y-27757414D01*
X89890169Y-27837083D01*
X89828545Y-28067065D01*
X89849892Y-28171383D01*
X89883564Y-28229704D01*
X89963232Y-28300350D01*
X90239212Y-28374298D01*
X90343529Y-28352951D01*
X90401850Y-28319279D01*
X109155342Y-38373360D02*
X109414161Y-37407435D01*
X108603384Y-38225464D02*
X109165249Y-37784428D01*
X108862203Y-37259538D02*
X109266264Y-37959393D01*
X108394748Y-38268158D02*
X107658805Y-38070962D01*
X107212049Y-37162472D02*
X107039503Y-37806423D01*
X107540630Y-36856125D02*
X107585741Y-37607696D01*
X106987787Y-37447474D01*
X126323603Y-47904086D02*
X126582422Y-46938161D01*
X125771645Y-47756190D02*
X126333510Y-47315154D01*
X126030464Y-46790264D02*
X126434525Y-47490119D01*
X125563009Y-47798884D02*
X124827066Y-47601688D01*
X124420587Y-46358899D02*
X124880552Y-46482146D01*
X124803301Y-46954435D01*
X124769630Y-46896114D01*
X124689962Y-46825468D01*
X124459978Y-46763844D01*
X124355661Y-46785191D01*
X124297340Y-46818863D01*
X124226694Y-46898532D01*
X124165070Y-47128514D01*
X124186417Y-47232832D01*
X124220089Y-47291153D01*
X124299757Y-47361799D01*
X124529740Y-47423422D01*
X124634058Y-47402075D01*
X124692379Y-47368404D01*
X180669966Y-47227666D02*
X180411147Y-46261740D01*
X180118008Y-47375562D02*
X180384080Y-46712682D01*
X179859189Y-46409636D02*
X180559044Y-46813698D01*
X179958672Y-47516854D02*
X179222728Y-47714049D01*
X178295309Y-46828677D02*
X178479295Y-46779378D01*
X178583613Y-46800725D01*
X178641934Y-46834397D01*
X178770901Y-46947736D01*
X178866196Y-47119397D01*
X178964794Y-47487370D01*
X178943447Y-47591687D01*
X178909776Y-47650008D01*
X178830107Y-47720654D01*
X178646121Y-47769953D01*
X178541803Y-47748606D01*
X178483482Y-47714935D01*
X178412836Y-47635266D01*
X178351213Y-47405284D01*
X178372559Y-47300966D01*
X178406231Y-47242645D01*
X178485899Y-47171999D01*
X178669886Y-47122700D01*
X178774204Y-47144047D01*
X178832525Y-47177719D01*
X178903171Y-47257388D01*
X197838225Y-37696943D02*
X197579406Y-36731017D01*
X197286267Y-37844839D02*
X197552339Y-37181959D01*
X197027448Y-36878913D02*
X197727303Y-37282975D01*
X197126931Y-37986131D02*
X196390987Y-38183326D01*
X195969529Y-37162382D02*
X195325579Y-37334928D01*
X195998366Y-38189931D01*
X215006489Y-28166218D02*
X214747670Y-27200292D01*
X214454531Y-28314114D02*
X214720603Y-27651234D01*
X214195712Y-27348188D02*
X214895567Y-27752250D01*
X214295195Y-28455406D02*
X213559251Y-28652601D01*
X213018734Y-28107248D02*
X213098402Y-28036602D01*
X213132074Y-27978281D01*
X213153421Y-27873964D01*
X213141096Y-27827967D01*
X213070450Y-27748299D01*
X213012129Y-27714627D01*
X212907811Y-27693280D01*
X212723825Y-27742579D01*
X212644157Y-27813225D01*
X212610485Y-27871546D01*
X212589138Y-27975864D01*
X212601463Y-28021860D01*
X212672108Y-28101529D01*
X212730429Y-28135200D01*
X212834747Y-28156547D01*
X213018734Y-28107248D01*
X213123051Y-28128595D01*
X213181372Y-28162267D01*
X213252018Y-28241936D01*
X213301317Y-28425922D01*
X213279970Y-28530239D01*
X213246299Y-28588560D01*
X213166630Y-28659206D01*
X212982644Y-28708505D01*
X212878326Y-28687158D01*
X212820005Y-28653487D01*
X212749359Y-28573818D01*
X212700060Y-28389833D01*
X212721407Y-28285514D01*
X212755079Y-28227193D01*
X212834747Y-28156547D01*
X234640000Y-27835937D02*
X234381181Y-26870011D01*
X234088042Y-27983833D02*
X234354114Y-27320953D01*
X233829223Y-27017907D02*
X234529078Y-27421969D01*
X233928706Y-28125125D02*
X233192762Y-28322320D01*
X232892134Y-28304276D02*
X232708149Y-28353575D01*
X232603830Y-28332228D01*
X232545509Y-28298556D01*
X232416542Y-28185216D01*
X232321247Y-28013555D01*
X232222649Y-27645583D01*
X232243996Y-27541265D01*
X232277668Y-27482944D01*
X232357336Y-27412298D01*
X232541322Y-27362999D01*
X232645640Y-27384346D01*
X232703961Y-27418018D01*
X232774607Y-27497686D01*
X232836230Y-27727668D01*
X232814883Y-27831986D01*
X232781212Y-27890308D01*
X232701544Y-27960954D01*
X232517557Y-28010253D01*
X232413240Y-27988906D01*
X232354918Y-27955233D01*
X232284272Y-27875565D01*
X43273014Y-65094771D02*
X43531833Y-64128845D01*
X42721056Y-64946874D02*
X43282922Y-64505839D01*
X42979875Y-63980948D02*
X43383937Y-64680803D01*
X42512421Y-64989568D02*
X41776478Y-64792373D01*
X41691089Y-64375102D02*
X41231124Y-64251855D01*
X41709134Y-64675730D02*
X41645978Y-63623532D01*
X41065183Y-64503184D01*
X40237247Y-64281339D02*
X40789205Y-64429236D01*
X40513226Y-64355288D02*
X40772045Y-63389362D01*
X40827064Y-63552001D01*
X40894407Y-63668643D01*
X40974075Y-63739289D01*
X90376259Y-112229565D02*
X90635078Y-111263639D01*
X89824301Y-112081669D02*
X90386166Y-111640633D01*
X90083120Y-111115743D02*
X90487181Y-111815597D01*
X89615666Y-112124363D02*
X88879722Y-111927167D01*
X88794334Y-111509897D02*
X88334369Y-111386650D01*
X88812378Y-111810525D02*
X88749222Y-110758326D01*
X88168427Y-111637979D01*
X87708463Y-111514732D02*
X87812781Y-111493385D01*
X87883427Y-111413716D01*
X88105272Y-110585780D01*
X87651026Y-110809157D02*
X87283055Y-110710559D01*
X87599310Y-110450208D02*
X87377465Y-111278144D01*
X87306819Y-111357813D01*
X87202502Y-111379160D01*
X87110509Y-111354510D01*
X86282571Y-111132665D02*
X86834529Y-111280562D01*
X86558551Y-111206614D02*
X86817370Y-110240688D01*
X86872389Y-110403326D01*
X86939732Y-110519969D01*
X87019400Y-110590614D01*
X112015055Y-103236157D02*
X112273875Y-102270231D01*
X111463097Y-103088260D02*
X112024963Y-102647225D01*
X111721916Y-102122334D02*
X112125978Y-102822189D01*
X111254462Y-103130954D02*
X110518519Y-102933759D01*
X110126782Y-102187908D02*
X109976468Y-102196930D01*
X109918147Y-102230603D01*
X109847501Y-102310271D01*
X109810527Y-102448260D01*
X109831874Y-102552578D01*
X109865545Y-102610899D01*
X109945214Y-102681544D01*
X110313186Y-102780142D01*
X110572005Y-101814217D01*
X110250029Y-101727943D01*
X110145711Y-101749290D01*
X110087390Y-101782962D01*
X110016745Y-101862630D01*
X109992095Y-101954623D01*
X110013442Y-102058941D01*
X110047114Y-102117262D01*
X110126782Y-102187908D01*
X110448758Y-102274181D01*
X108841298Y-102385751D02*
X109393257Y-102533648D01*
X109117278Y-102459700D02*
X109376097Y-101493774D01*
X109431116Y-101656413D01*
X109498459Y-101773055D01*
X109578127Y-101843701D01*
X285692551Y-19086952D02*
X285433732Y-18121026D01*
X285140593Y-19234849D02*
X285406665Y-18571968D01*
X284881774Y-18268923D02*
X285581629Y-18672984D01*
X284981257Y-19376140D02*
X284245313Y-19573336D01*
X283533134Y-19123278D02*
X283407469Y-19206249D01*
X283373798Y-19264571D01*
X283352451Y-19368888D01*
X283389425Y-19506878D01*
X283460071Y-19586546D01*
X283518392Y-19620218D01*
X283622709Y-19641565D01*
X283990682Y-19542967D01*
X283731862Y-18577041D01*
X283409887Y-18663314D01*
X283330218Y-18733960D01*
X283296547Y-18792281D01*
X283275200Y-18896599D01*
X283299849Y-18988591D01*
X283370495Y-19068259D01*
X283428816Y-19101931D01*
X283533134Y-19123278D01*
X283855110Y-19037005D01*
X282610787Y-19912708D02*
X282475215Y-19406747D01*
X282496562Y-19302429D01*
X282576230Y-19231783D01*
X282760217Y-19182484D01*
X282864534Y-19203831D01*
X282598462Y-19866712D02*
X282702780Y-19888059D01*
X282932763Y-19826435D01*
X283012431Y-19755789D01*
X283033778Y-19651472D01*
X283009129Y-19559479D01*
X282938483Y-19479811D01*
X282834165Y-19458464D01*
X282604182Y-19520088D01*
X282499865Y-19498740D01*
X281724529Y-20100882D02*
X281828847Y-20122229D01*
X282012833Y-20072929D01*
X282092502Y-20002284D01*
X282126173Y-19943962D01*
X282147520Y-19839645D01*
X282073572Y-19563665D01*
X282002926Y-19483997D01*
X281944605Y-19450326D01*
X281840287Y-19428979D01*
X281656301Y-19478278D01*
X281576633Y-19548923D01*
X281322886Y-20257800D02*
X281064067Y-19291874D01*
X281132296Y-19914478D02*
X280954914Y-20356398D01*
X280782368Y-19712447D02*
X281248938Y-19981822D01*
X280574618Y-20408999D02*
X280494950Y-20479645D01*
X280310964Y-20528944D01*
X280206645Y-20507597D01*
X280136000Y-20427929D01*
X280123675Y-20381933D01*
X280145022Y-20277615D01*
X280224691Y-20206969D01*
X280362680Y-20169995D01*
X280442348Y-20099349D01*
X280463695Y-19995031D01*
X280451370Y-19949034D01*
X280380725Y-19869366D01*
X280276407Y-19848019D01*
X280138418Y-19884993D01*
X280058749Y-19955639D01*
X279586460Y-20032890D02*
X279845279Y-20998816D01*
X279598784Y-20078886D02*
X279494467Y-20057539D01*
X279310480Y-20106838D01*
X279230812Y-20177484D01*
X279197140Y-20235805D01*
X279175793Y-20340123D01*
X279249742Y-20616102D01*
X279320388Y-20695770D01*
X279378709Y-20729442D01*
X279483026Y-20750789D01*
X279667013Y-20701490D01*
X279746681Y-20630844D01*
X278471104Y-21021933D02*
X278335532Y-20515971D01*
X278356879Y-20411654D01*
X278436547Y-20341008D01*
X278620534Y-20291709D01*
X278724851Y-20313056D01*
X278458779Y-20975937D02*
X278563097Y-20997284D01*
X278793080Y-20935660D01*
X278872748Y-20865014D01*
X278894095Y-20760696D01*
X278869446Y-20668704D01*
X278798800Y-20589035D01*
X278694482Y-20567688D01*
X278464499Y-20629312D01*
X278360182Y-20607965D01*
X277584846Y-21210106D02*
X277689164Y-21231453D01*
X277873151Y-21182154D01*
X277952819Y-21111508D01*
X277986491Y-21053187D01*
X278007838Y-20948870D01*
X277933889Y-20672890D01*
X277863243Y-20593222D01*
X277804922Y-20559550D01*
X277700605Y-20538203D01*
X277516618Y-20587502D01*
X277436950Y-20658148D01*
X276802906Y-21419626D02*
X276907224Y-21440973D01*
X277091211Y-21391674D01*
X277170879Y-21321029D01*
X277192226Y-21216711D01*
X277093628Y-20848739D01*
X277022982Y-20769070D01*
X276918664Y-20747723D01*
X276734678Y-20797023D01*
X276655010Y-20867668D01*
X276633663Y-20971986D01*
X276658312Y-21063980D01*
X277142927Y-21032725D01*
X275849305Y-21724442D02*
X276401263Y-21576545D01*
X276125285Y-21650493D02*
X275866466Y-20684568D01*
X275995433Y-20797907D01*
X276112075Y-20865251D01*
X276216392Y-20886598D01*
X77678533Y-84174707D02*
X77937353Y-83208781D01*
X77126575Y-84026810D02*
X77688441Y-83585775D01*
X77385394Y-83060884D02*
X77789456Y-83760739D01*
X76917940Y-84069504D02*
X76181997Y-83872309D01*
X75449355Y-83478803D02*
X75483027Y-83537124D01*
X75608692Y-83620094D01*
X75700684Y-83644744D01*
X75850999Y-83635722D01*
X75967642Y-83568378D01*
X76038287Y-83488710D01*
X76133583Y-83317049D01*
X76170557Y-83179059D01*
X76173859Y-82982749D01*
X76152512Y-82878431D01*
X76085169Y-82761789D01*
X75959503Y-82678818D01*
X75867511Y-82654169D01*
X75717197Y-82663191D01*
X75658876Y-82696863D01*
X74504776Y-83324301D02*
X75056735Y-83472198D01*
X74780756Y-83398250D02*
X75039575Y-82432324D01*
X75094594Y-82594963D01*
X75161937Y-82711605D01*
X75241605Y-82782251D01*
X266181363Y-63758981D02*
X265922544Y-62793055D01*
X265629405Y-63906877D02*
X265895477Y-63243997D01*
X265370586Y-62940951D02*
X266070441Y-63345013D01*
X265470069Y-64048169D02*
X264734125Y-64245364D01*
X263902886Y-64270899D02*
X263961208Y-64304571D01*
X264111521Y-64313593D01*
X264203514Y-64288944D01*
X264329180Y-64205973D01*
X264396523Y-64089331D01*
X264417870Y-63985013D01*
X264414568Y-63788703D01*
X264377594Y-63650712D01*
X264282298Y-63479051D01*
X264211652Y-63399383D01*
X264095010Y-63332040D01*
X263944695Y-63323018D01*
X263852702Y-63347667D01*
X263727038Y-63430638D01*
X263693366Y-63488959D01*
X263375579Y-64510788D02*
X263455247Y-64440142D01*
X263488919Y-64381821D01*
X263510266Y-64277504D01*
X263436317Y-64001524D01*
X263365671Y-63921856D01*
X263307350Y-63888184D01*
X263203033Y-63866837D01*
X263065042Y-63903812D01*
X262985374Y-63974458D01*
X262951703Y-64032779D01*
X262930356Y-64137096D01*
X263004304Y-64413076D01*
X263074950Y-64492744D01*
X263133271Y-64526416D01*
X263237589Y-64547763D01*
X263375579Y-64510788D01*
X262501646Y-64744958D02*
X262581314Y-64674312D01*
X262602661Y-64569995D01*
X262380816Y-63742058D01*
X261995684Y-64880530D02*
X262075352Y-64809884D01*
X262109024Y-64751563D01*
X262130371Y-64647245D01*
X262056423Y-64371266D01*
X261985777Y-64291598D01*
X261927456Y-64257926D01*
X261823138Y-64236579D01*
X261685148Y-64273553D01*
X261605480Y-64344199D01*
X261571808Y-64402520D01*
X261550461Y-64506838D01*
X261624409Y-64782817D01*
X261695055Y-64862486D01*
X261753376Y-64896157D01*
X261857694Y-64917504D01*
X261995684Y-64880530D01*
X261087194Y-64433775D02*
X261259740Y-65077725D01*
X261111844Y-64525767D02*
X261053523Y-64492096D01*
X260949205Y-64470749D01*
X260811215Y-64507723D01*
X260731547Y-64578369D01*
X260710200Y-64682686D01*
X260845772Y-65188648D01*
X259879846Y-65447467D02*
X260431804Y-65299570D01*
X260155825Y-65373519D02*
X259897006Y-64407593D01*
X260025973Y-64520933D01*
X260142616Y-64588276D01*
X260246933Y-64609623D01*
X53942454Y-102467158D02*
X54201273Y-101501232D01*
X53390496Y-102319261D02*
X53952361Y-101878226D01*
X53649315Y-101353335D02*
X54053376Y-102053190D01*
X53181861Y-102361955D02*
X52445917Y-102164760D01*
X51713276Y-101771254D02*
X51746948Y-101829575D01*
X51872612Y-101912545D01*
X51964605Y-101937195D01*
X52114920Y-101928173D01*
X52231562Y-101860829D01*
X52302208Y-101781161D01*
X52397503Y-101609500D01*
X52434478Y-101471510D01*
X52437780Y-101275200D01*
X52416433Y-101170882D01*
X52349090Y-101054240D01*
X52223424Y-100971269D01*
X52131431Y-100946620D01*
X51981117Y-100955642D01*
X51922796Y-100989314D01*
X51585194Y-101145348D02*
X51217223Y-101046750D01*
X51533478Y-100786398D02*
X51311633Y-101614335D01*
X51240987Y-101694003D01*
X51136669Y-101715350D01*
X51044677Y-101690701D01*
X50722701Y-101604428D02*
X50895247Y-100960477D01*
X50845948Y-101144462D02*
X50824601Y-101040145D01*
X50790929Y-100981824D01*
X50711261Y-100911178D01*
X50619267Y-100886528D01*
X49986757Y-101407232D02*
X50091074Y-101385885D01*
X50161720Y-101306217D01*
X50383565Y-100478280D01*
X49112823Y-101173062D02*
X49664781Y-101320959D01*
X49388802Y-101247011D02*
X49647621Y-100281085D01*
X49702640Y-100443723D01*
X49769984Y-100560366D01*
X49849652Y-100631012D01*
X82609035Y-65773821D02*
X82867855Y-64807895D01*
X82057077Y-65625924D02*
X82618943Y-65184889D01*
X82315896Y-64659998D02*
X82719958Y-65359853D01*
X81848442Y-65668618D02*
X81112499Y-65471423D01*
X80907166Y-65317806D02*
X81165985Y-64351881D01*
X80936003Y-64290257D01*
X80785688Y-64299279D01*
X80669046Y-64366623D01*
X80598400Y-64446291D01*
X80503105Y-64617952D01*
X80466130Y-64755942D01*
X80462828Y-64952252D01*
X80484175Y-65056570D01*
X80551518Y-65173212D01*
X80677184Y-65256183D01*
X80907166Y-65317806D01*
X79435278Y-64923415D02*
X79987237Y-65071312D01*
X79711258Y-64997364D02*
X79970077Y-64031438D01*
X80025096Y-64194077D01*
X80092439Y-64310719D01*
X80172107Y-64381365D01*
X17068192Y-18629187D02*
X17327011Y-17663261D01*
X16516234Y-18481291D02*
X17078100Y-18040255D01*
X16775053Y-17515365D02*
X17179114Y-18215219D01*
X16307599Y-18523985D02*
X15571655Y-18326789D01*
X15366323Y-18173173D02*
X15625142Y-17207247D01*
X15395159Y-17145623D01*
X15244845Y-17154645D01*
X15128202Y-17221989D01*
X15057556Y-17301657D01*
X14962261Y-17473318D01*
X14925287Y-17611308D01*
X14921984Y-17807619D01*
X14943331Y-17911936D01*
X15010675Y-18028578D01*
X15136340Y-18111549D01*
X15366323Y-18173173D01*
X14044749Y-17769759D02*
X14124417Y-17840405D01*
X14308404Y-17889704D01*
X14412721Y-17868357D01*
X14483367Y-17788689D01*
X14581965Y-17420717D01*
X14560618Y-17316399D01*
X14480950Y-17245753D01*
X14296963Y-17196454D01*
X14192646Y-17217801D01*
X14122000Y-17297469D01*
X14097350Y-17389463D01*
X14532666Y-17604703D01*
X13434471Y-17655535D02*
X13538788Y-17634188D01*
X13609434Y-17554519D01*
X13831279Y-16726583D01*
X12560537Y-17421365D02*
X13112495Y-17569261D01*
X12836516Y-17495313D02*
X13095335Y-16529387D01*
X13150354Y-16692026D01*
X13217698Y-16808668D01*
X13297366Y-16879314D01*
X236591355Y-101270616D02*
X236332536Y-100304690D01*
X236039397Y-101418512D02*
X236305469Y-100755632D01*
X235780578Y-100452587D02*
X236480432Y-100856648D01*
X235880060Y-101559804D02*
X235144117Y-101757000D01*
X234889485Y-101726630D02*
X234630666Y-100760704D01*
X234400684Y-100822328D01*
X234275018Y-100905299D01*
X234207675Y-101021941D01*
X234186328Y-101126259D01*
X234189630Y-101322569D01*
X234226605Y-101460559D01*
X234321900Y-101632220D01*
X234392546Y-101711888D01*
X234509188Y-101779232D01*
X234659503Y-101788254D01*
X234889485Y-101726630D01*
X233785570Y-102022423D02*
X233865238Y-101951778D01*
X233898910Y-101893456D01*
X233920257Y-101789139D01*
X233846308Y-101513159D01*
X233775663Y-101433491D01*
X233717342Y-101399820D01*
X233613024Y-101378473D01*
X233475034Y-101415447D01*
X233395366Y-101486093D01*
X233361694Y-101544414D01*
X233340347Y-101648731D01*
X233414295Y-101924711D01*
X233484941Y-102004379D01*
X233543262Y-102038051D01*
X233647580Y-102059398D01*
X233785570Y-102022423D01*
X232969073Y-101551019D02*
X232957634Y-102244268D01*
X232650400Y-101833602D01*
X232589661Y-102342866D01*
X232233129Y-101748214D01*
X231865158Y-101846812D02*
X232037704Y-102490763D01*
X231889807Y-101938805D02*
X231831486Y-101905133D01*
X231727169Y-101883786D01*
X231589179Y-101920760D01*
X231509510Y-101991406D01*
X231488163Y-102095724D01*
X231623735Y-102601685D01*
X230657810Y-102860504D02*
X231209768Y-102712608D01*
X230933789Y-102786556D02*
X230674970Y-101820630D01*
X230803937Y-101933970D01*
X230920579Y-102001313D01*
X231024897Y-102022660D01*
X87493542Y-47360608D02*
X87752361Y-46394682D01*
X86941584Y-47212712D02*
X87503449Y-46771676D01*
X87200403Y-46246786D02*
X87604464Y-46946640D01*
X86732949Y-47255406D02*
X85997005Y-47058210D01*
X85927244Y-46398632D02*
X85605269Y-46312359D01*
X85331707Y-46781346D02*
X85791672Y-46904594D01*
X86050492Y-45938668D01*
X85590526Y-45815421D01*
X84411778Y-46534852D02*
X84963736Y-46682749D01*
X84687757Y-46608801D02*
X84946576Y-45642875D01*
X85001595Y-45805513D01*
X85068939Y-45922156D01*
X85148607Y-45992801D01*
X174432796Y-120308787D02*
X175398722Y-120049968D01*
X174284900Y-119756829D02*
X174947780Y-120022901D01*
X175250825Y-119498010D02*
X174846764Y-120197864D01*
X174143608Y-119597492D02*
X173946412Y-118861549D01*
X174482743Y-118471345D02*
X174396470Y-118149369D01*
X173853534Y-118146952D02*
X173976782Y-118606917D01*
X174942708Y-118348098D01*
X174819460Y-117888133D01*
X174386563Y-117560438D02*
X173742612Y-117732984D01*
X174294570Y-117585087D02*
X174328242Y-117526766D01*
X174349589Y-117422449D01*
X174312614Y-117284459D01*
X174241969Y-117204790D01*
X174137651Y-117183443D01*
X173631690Y-117319015D01*
X174189367Y-116824494D02*
X174090770Y-116456523D01*
X174474368Y-116600232D02*
X173646432Y-116822077D01*
X173542114Y-116800730D01*
X173471468Y-116721062D01*
X173446819Y-116629069D01*
X173224974Y-115801132D02*
X173372870Y-116353090D01*
X173298922Y-116077111D02*
X174264848Y-115818292D01*
X174151508Y-115947259D01*
X174084165Y-116063901D01*
X174062818Y-116168219D01*
X295898818Y-55796211D02*
X295639999Y-54830286D01*
X295346860Y-55944108D02*
X295612932Y-55281227D01*
X295088041Y-54978182D02*
X295787895Y-55382244D01*
X295187523Y-56085400D02*
X294451580Y-56282595D01*
X294061376Y-55746264D02*
X293739400Y-55832538D01*
X293736983Y-56375473D02*
X294196948Y-56252226D01*
X293938129Y-55286300D01*
X293478164Y-55409547D01*
X293150469Y-55842445D02*
X293323015Y-56486396D01*
X293175118Y-55934438D02*
X293116797Y-55900766D01*
X293012480Y-55879419D01*
X292874490Y-55916393D01*
X292794821Y-55987039D01*
X292773474Y-56091357D01*
X292909046Y-56597318D01*
X292414525Y-56039640D02*
X292046554Y-56138238D01*
X292190263Y-55754639D02*
X292412108Y-56582576D01*
X292390761Y-56686894D01*
X292311093Y-56757539D01*
X292219100Y-56782189D01*
X291516827Y-56921063D02*
X291621145Y-56942410D01*
X291805131Y-56893111D01*
X291884799Y-56822466D01*
X291906146Y-56718148D01*
X291807549Y-56350176D01*
X291736903Y-56270507D01*
X291632585Y-56249160D01*
X291448599Y-56298460D01*
X291368930Y-56369105D01*
X291347583Y-56473423D01*
X291372233Y-56565417D01*
X291856848Y-56534162D01*
X291069188Y-57090307D02*
X290896641Y-56446356D01*
X290945940Y-56630342D02*
X290875294Y-56550674D01*
X290816973Y-56517002D01*
X290712656Y-56495655D01*
X290620662Y-56520304D01*
X289965272Y-57386100D02*
X290517230Y-57238204D01*
X290241251Y-57312152D02*
X289982432Y-56346226D01*
X290111399Y-56459566D01*
X290228041Y-56526909D01*
X290332359Y-56548256D01*
X35561071Y-23584340D02*
X35819890Y-22618414D01*
X35009113Y-23436443D02*
X35570978Y-22995408D01*
X35267932Y-22470517D02*
X35671993Y-23170372D01*
X34800478Y-23479137D02*
X34064534Y-23281941D01*
X33994773Y-22622364D02*
X33672797Y-22536090D01*
X33399236Y-23005078D02*
X33859201Y-23128325D01*
X34118020Y-22162399D01*
X33658055Y-22039152D01*
X33043590Y-22860484D02*
X32939272Y-22881831D01*
X32755286Y-22832532D01*
X32675617Y-22761886D01*
X32654270Y-22657568D01*
X32666595Y-22611572D01*
X32737241Y-22531904D01*
X32841559Y-22510557D01*
X32979548Y-22547531D01*
X33083866Y-22526184D01*
X33154512Y-22446515D01*
X33166837Y-22400519D01*
X33145490Y-22296201D01*
X33065822Y-22225555D01*
X32927832Y-22188581D01*
X32823514Y-22209928D01*
X31801684Y-22527716D02*
X31881352Y-22598362D01*
X32065339Y-22647661D01*
X32169657Y-22626314D01*
X32227978Y-22592642D01*
X32298623Y-22512974D01*
X32372572Y-22236995D01*
X32351225Y-22132677D01*
X32317553Y-22074356D01*
X32237885Y-22003710D01*
X32053898Y-21954411D01*
X31949581Y-21975758D01*
X30869430Y-22327218D02*
X31421388Y-22475115D01*
X31145410Y-22401167D02*
X31404229Y-21435241D01*
X31459247Y-21597880D01*
X31526591Y-21714522D01*
X31606259Y-21785168D01*
X99708303Y-75286059D02*
X99967122Y-74320133D01*
X99156345Y-75138162D02*
X99718211Y-74697127D01*
X99415164Y-74172236D02*
X99819226Y-74872091D01*
X98947710Y-75180856D02*
X98211767Y-74983661D01*
X97820030Y-74237809D02*
X98142006Y-74324083D01*
X98006434Y-74830044D02*
X98265253Y-73864118D01*
X97805288Y-73740871D01*
X96672536Y-74472627D02*
X97224494Y-74620524D01*
X96948515Y-74546576D02*
X97207334Y-73580650D01*
X97262353Y-73743289D01*
X97329696Y-73859931D01*
X97409364Y-73930577D01*
X116945557Y-84835270D02*
X117204377Y-83869344D01*
X116393599Y-84687373D02*
X116955465Y-84246338D01*
X116652418Y-83721447D02*
X117056480Y-84421302D01*
X116184964Y-84730067D02*
X115449021Y-84532872D01*
X114984221Y-83323754D02*
X115088538Y-83302407D01*
X115226527Y-83339381D01*
X115352193Y-83422352D01*
X115419536Y-83538994D01*
X115440883Y-83643312D01*
X115437581Y-83839622D01*
X115400607Y-83977612D01*
X115305311Y-84149273D01*
X115234666Y-84228941D01*
X115118023Y-84296285D01*
X114967708Y-84305307D01*
X114875716Y-84280657D01*
X114750051Y-84197687D01*
X114716379Y-84139366D01*
X114802652Y-83817391D01*
X114986638Y-83866690D01*
X113771800Y-83984864D02*
X114323759Y-84132761D01*
X114047780Y-84058813D02*
X114306599Y-83092887D01*
X114361618Y-83255526D01*
X114428961Y-83372168D01*
X114508629Y-83442814D01*
X191036933Y-83893869D02*
X190778114Y-82927943D01*
X190484975Y-84041766D02*
X190751047Y-83378885D01*
X190226156Y-83075840D02*
X190926010Y-83479901D01*
X190325639Y-84183057D02*
X189589695Y-84380253D01*
X189335063Y-84349883D02*
X189076244Y-83383958D01*
X189199491Y-83843922D02*
X188647533Y-83991818D01*
X188783105Y-84497780D02*
X188524286Y-83531854D01*
X187817179Y-84756599D02*
X188369137Y-84608702D01*
X188093159Y-84682651D02*
X187834340Y-83716725D01*
X187963307Y-83830065D01*
X188079949Y-83897408D01*
X188184267Y-83918755D01*
X220166973Y-46505482D02*
X219908154Y-45539556D01*
X219615015Y-46653379D02*
X219881087Y-45990498D01*
X219356196Y-45687453D02*
X220056051Y-46091514D01*
X219455679Y-46794670D02*
X218719735Y-46991866D01*
X218465104Y-46961497D02*
X218206285Y-45995571D01*
X217499178Y-47220316D02*
X218051136Y-47072419D01*
X217775157Y-47146367D02*
X217516338Y-46180441D01*
X217645305Y-46293781D01*
X217761948Y-46361125D01*
X217866265Y-46382472D01*
X208067204Y-74400119D02*
X207808385Y-73434193D01*
X207515246Y-74548016D02*
X207781318Y-73885135D01*
X207256426Y-73582090D02*
X207956281Y-73986151D01*
X207355909Y-74689307D02*
X206619966Y-74886503D01*
X205830535Y-73964156D02*
X206015406Y-74654103D01*
X206098378Y-74779768D01*
X206215020Y-74847111D01*
X206365334Y-74856133D01*
X206457327Y-74831484D01*
X205123429Y-75188901D02*
X205675387Y-75041004D01*
X205399408Y-75114953D02*
X205140589Y-74149027D01*
X205269556Y-74262367D01*
X205386198Y-74329710D01*
X205490516Y-74351057D01*
X225350455Y-64838582D02*
X225091636Y-63872656D01*
X224798497Y-64986479D02*
X225064569Y-64323598D01*
X224539678Y-64020553D02*
X225239533Y-64424614D01*
X224639161Y-65127770D02*
X223903217Y-65324966D01*
X223648586Y-65294597D02*
X223389767Y-64328671D01*
X223096628Y-65442493D02*
X223362700Y-64779613D01*
X222837808Y-64476567D02*
X223537663Y-64880629D01*
X222176698Y-65688988D02*
X222728656Y-65541091D01*
X222452678Y-65615039D02*
X222193859Y-64649113D01*
X222322826Y-64762453D01*
X222439468Y-64829797D01*
X222543785Y-64851144D01*
X244891976Y-64532950D02*
X244633157Y-63567025D01*
X244340018Y-64680847D02*
X244606090Y-64017967D01*
X244081199Y-63714921D02*
X244781054Y-64118983D01*
X244180682Y-64822139D02*
X243444738Y-65019334D01*
X242730142Y-65112212D02*
X243190107Y-64988965D01*
X242931288Y-64023039D01*
X241902205Y-65334057D02*
X242454163Y-65186161D01*
X242178184Y-65260109D02*
X241919365Y-64294183D01*
X242048332Y-64407523D01*
X242164975Y-64474866D01*
X242269292Y-64496213D01*
X140401218Y-76328687D02*
X140660037Y-75362761D01*
X139849260Y-76180790D02*
X140411126Y-75739755D01*
X140108079Y-75214865D02*
X140512141Y-75914719D01*
X139640625Y-76223484D02*
X138904682Y-76026289D01*
X138239384Y-75749425D02*
X138699349Y-75872673D01*
X138958168Y-74906747D01*
X137731005Y-75070918D02*
X137580691Y-75079940D01*
X137522369Y-75113613D01*
X137451724Y-75193281D01*
X137414749Y-75331270D01*
X137436096Y-75435587D01*
X137469768Y-75493909D01*
X137549436Y-75564554D01*
X137917409Y-75663152D01*
X138176228Y-74697226D01*
X137854252Y-74610953D01*
X137749934Y-74632300D01*
X137691613Y-74665972D01*
X137620967Y-74745640D01*
X137596318Y-74837633D01*
X137617665Y-74941951D01*
X137651337Y-75000272D01*
X137731005Y-75070918D01*
X138052981Y-75157191D01*
X136399525Y-75256437D02*
X136844748Y-74882745D01*
X136951483Y-75404333D02*
X137210302Y-74438407D01*
X136842330Y-74339810D01*
X136738012Y-74361157D01*
X136679691Y-74394828D01*
X136609045Y-74474496D01*
X136572071Y-74612486D01*
X136593418Y-74716803D01*
X136627090Y-74775124D01*
X136706758Y-74845770D01*
X137074730Y-74944368D01*
X135458248Y-74905625D02*
X135491920Y-74963946D01*
X135617585Y-75046916D01*
X135709578Y-75071566D01*
X135859892Y-75062544D01*
X135976535Y-74995200D01*
X136047181Y-74915532D01*
X136142476Y-74743871D01*
X136179450Y-74605881D01*
X136182753Y-74409571D01*
X136161406Y-74305253D01*
X136094062Y-74188611D01*
X135968397Y-74105640D01*
X135876404Y-74080991D01*
X135726090Y-74090013D01*
X135667769Y-74123685D01*
X134513670Y-74751123D02*
X135065628Y-74899020D01*
X134789649Y-74825072D02*
X135048468Y-73859146D01*
X135103487Y-74021785D01*
X135170830Y-74138427D01*
X135250498Y-74209073D01*
X218917134Y-110936912D02*
X218658315Y-109970987D01*
X218365176Y-111084809D02*
X218631248Y-110421928D01*
X218106357Y-110118883D02*
X218806212Y-110522945D01*
X218205840Y-111226101D02*
X217469896Y-111423296D01*
X216755299Y-111516174D02*
X217215265Y-111392927D01*
X216956445Y-110427001D01*
X216053027Y-111655049D02*
X216157345Y-111676396D01*
X216341332Y-111627097D01*
X216421000Y-111556451D01*
X216442347Y-111452133D01*
X216343749Y-111084161D01*
X216273103Y-111004493D01*
X216168785Y-110983146D01*
X215984799Y-111032445D01*
X215905131Y-111103091D01*
X215883784Y-111207408D01*
X215908433Y-111299402D01*
X216393048Y-111268148D01*
X215570831Y-111143367D02*
X215202860Y-111241965D01*
X215605388Y-111824292D02*
X215383543Y-110996356D01*
X215312897Y-110916687D01*
X215208580Y-110895340D01*
X215116587Y-110919990D01*
X215018873Y-111291264D02*
X214650902Y-111389861D01*
X214794611Y-111006263D02*
X215016456Y-111834200D01*
X214995109Y-111938517D01*
X214915441Y-112009163D01*
X214823448Y-112033812D01*
X213995510Y-112255658D02*
X214547468Y-112107761D01*
X214271490Y-112181709D02*
X214012671Y-111215783D01*
X214141638Y-111329123D01*
X214258280Y-111396467D01*
X214362597Y-111417814D01*
X34239947Y-102118391D02*
X34498766Y-101152465D01*
X33687989Y-101970494D02*
X34249854Y-101529459D01*
X33946808Y-101004568D02*
X34350869Y-101704423D01*
X33479354Y-102013188D02*
X32743410Y-101815992D01*
X32078112Y-101539129D02*
X32538077Y-101662376D01*
X32796896Y-100696450D01*
X31569733Y-100860621D02*
X31891709Y-100946894D01*
X31756137Y-101452856D02*
X32014956Y-100486930D01*
X31554991Y-100363683D01*
X31100747Y-100587060D02*
X30928201Y-101231011D01*
X31076097Y-100679053D02*
X31042426Y-100620732D01*
X30962758Y-100550086D01*
X30824767Y-100513112D01*
X30720450Y-100534459D01*
X30649804Y-100614127D01*
X30514232Y-101120088D01*
X29548306Y-100861269D02*
X30100264Y-101009166D01*
X29824286Y-100935218D02*
X30083105Y-99969292D01*
X30138123Y-100131931D01*
X30205467Y-100248573D01*
X30285135Y-100319219D01*
X108648435Y-122056083D02*
X108907254Y-121090158D01*
X108096477Y-121908187D02*
X108658342Y-121467151D01*
X108355296Y-120942261D02*
X108759357Y-121642116D01*
X107887842Y-121950881D02*
X107151898Y-121753685D01*
X106486600Y-121476822D02*
X106946565Y-121600069D01*
X107205384Y-120634143D01*
X106026636Y-121353574D02*
X106130953Y-121332227D01*
X106189274Y-121298556D01*
X106259920Y-121218888D01*
X106333869Y-120942908D01*
X106312522Y-120838591D01*
X106278850Y-120780269D01*
X106199182Y-120709624D01*
X106061192Y-120672649D01*
X105956874Y-120693996D01*
X105898553Y-120727668D01*
X105827907Y-120807336D01*
X105753959Y-121083316D01*
X105775306Y-121187633D01*
X105808977Y-121245954D01*
X105888646Y-121316600D01*
X106026636Y-121353574D01*
X105555231Y-120537078D02*
X105198699Y-121131730D01*
X105137960Y-120622465D01*
X104830727Y-121033132D01*
X104819287Y-120339882D01*
X103923122Y-120740641D02*
X104002790Y-120811287D01*
X104186777Y-120860586D01*
X104291095Y-120839239D01*
X104361740Y-120759571D01*
X104460338Y-120391598D01*
X104438991Y-120287281D01*
X104359323Y-120216635D01*
X104175336Y-120167336D01*
X104071019Y-120188683D01*
X104000373Y-120268351D01*
X103975723Y-120360345D01*
X104411039Y-120575585D01*
X103450833Y-120663390D02*
X103623379Y-120019439D01*
X103574081Y-120203425D02*
X103552734Y-120099108D01*
X103519062Y-120040786D01*
X103439394Y-119970141D01*
X103347400Y-119945491D01*
X102346917Y-120367597D02*
X102898875Y-120515494D01*
X102622897Y-120441545D02*
X102881716Y-119475620D01*
X102936734Y-119638258D01*
X103004078Y-119754900D01*
X103083746Y-119825546D01*
X213181691Y-92751708D02*
X212922872Y-91785782D01*
X212629733Y-92899605D02*
X212895805Y-92236724D01*
X212370914Y-91933679D02*
X213070769Y-92337740D01*
X212470397Y-93040896D02*
X211734453Y-93238092D01*
X211479822Y-93207723D02*
X211221003Y-92241797D01*
X211083898Y-93018017D01*
X210577052Y-92414343D01*
X210835871Y-93380269D01*
X209869945Y-93639088D02*
X210421903Y-93491191D01*
X210145925Y-93565139D02*
X209887105Y-92599214D01*
X210016072Y-92712553D01*
X210132715Y-92779897D01*
X210237032Y-92801244D01*
X195967436Y-102294756D02*
X195708617Y-101328830D01*
X195415478Y-102442653D02*
X195681550Y-101779772D01*
X195156659Y-101476727D02*
X195856513Y-101880788D01*
X195256142Y-102583944D02*
X194520198Y-102781140D01*
X194265566Y-102750770D02*
X194006747Y-101784845D01*
X193713608Y-102898667D01*
X193454789Y-101932741D01*
X192747682Y-103157486D02*
X193299640Y-103009589D01*
X193023662Y-103083538D02*
X192764843Y-102117612D01*
X192893810Y-102230952D01*
X193010452Y-102298295D01*
X193114770Y-102319642D01*
X15579405Y-57674290D02*
X15838225Y-56708365D01*
X15027447Y-57526394D02*
X15589313Y-57085358D01*
X15286267Y-56560468D02*
X15690328Y-57260323D01*
X14818812Y-57569088D02*
X14082869Y-57371892D01*
X13877536Y-57218276D02*
X14136355Y-56252350D01*
X13325578Y-57070379D01*
X13584397Y-56104453D01*
X12727624Y-56910158D02*
X12831942Y-56888811D01*
X12890263Y-56855139D01*
X12960909Y-56775471D01*
X13034857Y-56499492D01*
X13013510Y-56395174D01*
X12979839Y-56336853D01*
X12900171Y-56266207D01*
X12762180Y-56229233D01*
X12657863Y-56250580D01*
X12599542Y-56284251D01*
X12528896Y-56363920D01*
X12454947Y-56639899D01*
X12476294Y-56744217D01*
X12509966Y-56802538D01*
X12589634Y-56873184D01*
X12727624Y-56910158D01*
X12256220Y-56093661D02*
X11853691Y-56675988D01*
X11796254Y-55970414D01*
X10900089Y-56371173D02*
X10979758Y-56441818D01*
X11163744Y-56491117D01*
X11268062Y-56469770D01*
X11338708Y-56390102D01*
X11437305Y-56022130D01*
X11415958Y-55917812D01*
X11336290Y-55847167D01*
X11152304Y-55797868D01*
X11047986Y-55819215D01*
X10977340Y-55898883D01*
X10952691Y-55990876D01*
X11388006Y-56206117D01*
X10289811Y-56256948D02*
X10394129Y-56235601D01*
X10464775Y-56155933D01*
X10686619Y-55327996D01*
X10232374Y-55551373D02*
X9864403Y-55452776D01*
X10180658Y-55192424D02*
X9958813Y-56020361D01*
X9888167Y-56100029D01*
X9783850Y-56121376D01*
X9691857Y-56096726D01*
X9634420Y-55391152D02*
X9231892Y-55973479D01*
X9174455Y-55267904D02*
X9231892Y-55973479D01*
X9262261Y-56228111D01*
X9295933Y-56286432D01*
X9375601Y-56357078D01*
X8127975Y-55677686D02*
X8679934Y-55825582D01*
X8403955Y-55751634D02*
X8662774Y-54785708D01*
X8717793Y-54948347D01*
X8785136Y-55064989D01*
X8864804Y-55135635D01*
X240076464Y-46101253D02*
X239817645Y-45135327D01*
X239524506Y-46249150D02*
X239790578Y-45586269D01*
X239265687Y-45283224D02*
X239965541Y-45687285D01*
X239365170Y-46390441D02*
X238629226Y-46587637D01*
X237931790Y-45640640D02*
X237747803Y-45689939D01*
X237668135Y-45760585D01*
X237600791Y-45877228D01*
X237604094Y-46073538D01*
X237690367Y-46395514D01*
X237785662Y-46567175D01*
X237902304Y-46634518D01*
X238006622Y-46655865D01*
X238190609Y-46606566D01*
X238270277Y-46535920D01*
X238337620Y-46419278D01*
X238334318Y-46222968D01*
X238248045Y-45900992D01*
X238152749Y-45729331D01*
X238036107Y-45661987D01*
X237931790Y-45640640D01*
X236856710Y-46963983D02*
X237408668Y-46816086D01*
X237132690Y-46890035D02*
X236873871Y-45924109D01*
X237002838Y-46037449D01*
X237119480Y-46104792D01*
X237223798Y-46126139D01*
X259686979Y-45777133D02*
X259428160Y-44811207D01*
X259135021Y-45925030D02*
X259401093Y-45262149D01*
X258876202Y-44959104D02*
X259576057Y-45363165D01*
X258975685Y-46066321D02*
X258239741Y-46263517D01*
X257985110Y-46233148D02*
X257726291Y-45267222D01*
X257358318Y-45365820D01*
X257278650Y-45436465D01*
X257244978Y-45494787D01*
X257223631Y-45599104D01*
X257260605Y-45737093D01*
X257331251Y-45816762D01*
X257389572Y-45850433D01*
X257493890Y-45871780D01*
X257861862Y-45773182D01*
X256513222Y-46627539D02*
X257065180Y-46479642D01*
X256789202Y-46553590D02*
X256530383Y-45587664D01*
X256659350Y-45701004D01*
X256775992Y-45768348D01*
X256880309Y-45789695D01*
X251731333Y-82422362D02*
X251472514Y-81456436D01*
X251179375Y-82570259D02*
X251445447Y-81907378D01*
X250920556Y-81604333D02*
X251620411Y-82008394D01*
X251020039Y-82711550D02*
X250284095Y-82908746D01*
X250029464Y-82878376D02*
X249770645Y-81912451D01*
X249402672Y-82011048D01*
X249323004Y-82081694D01*
X249289332Y-82140015D01*
X249267985Y-82244333D01*
X249304960Y-82382322D01*
X249375605Y-82461990D01*
X249433926Y-82495662D01*
X249538244Y-82517009D01*
X249906216Y-82418411D01*
X248683241Y-83189797D02*
X248787558Y-83211144D01*
X248971545Y-83161845D01*
X249051213Y-83091199D01*
X249072560Y-82986881D01*
X248973962Y-82618909D01*
X248903316Y-82539241D01*
X248798999Y-82517894D01*
X248615012Y-82567193D01*
X248535344Y-82637839D01*
X248513997Y-82742156D01*
X248538647Y-82834150D01*
X249023261Y-82802896D01*
X248235601Y-83359040D02*
X248063055Y-82715090D01*
X248112354Y-82899075D02*
X248041708Y-82819407D01*
X247983387Y-82785735D01*
X247879069Y-82764388D01*
X247787076Y-82789038D01*
X247637647Y-83519262D02*
X247465101Y-82875311D01*
X247378828Y-82553336D02*
X247437149Y-82587008D01*
X247403477Y-82645329D01*
X247345156Y-82611657D01*
X247378828Y-82553336D01*
X247403477Y-82645329D01*
X247039693Y-83679483D02*
X247119361Y-83608837D01*
X247153033Y-83550516D01*
X247174380Y-83446198D01*
X247100432Y-83170219D01*
X247029786Y-83090551D01*
X246971465Y-83056879D01*
X246867147Y-83035532D01*
X246729157Y-83072506D01*
X246649489Y-83143152D01*
X246615817Y-83201473D01*
X246594470Y-83305791D01*
X246668419Y-83581770D01*
X246739064Y-83661439D01*
X246797386Y-83695110D01*
X246901703Y-83716457D01*
X247039693Y-83679483D01*
X245889781Y-83987601D02*
X245630962Y-83021675D01*
X245877456Y-83941605D02*
X245981774Y-83962952D01*
X246165760Y-83913653D01*
X246245429Y-83843007D01*
X246279100Y-83784686D01*
X246300447Y-83680368D01*
X246226499Y-83404389D01*
X246155853Y-83324720D01*
X246097532Y-83291049D01*
X245993214Y-83269702D01*
X245809228Y-83319001D01*
X245729559Y-83389647D01*
X244923855Y-84246420D02*
X245475813Y-84098523D01*
X245199835Y-84172472D02*
X244941015Y-83206546D01*
X245069982Y-83319886D01*
X245186625Y-83387229D01*
X245290942Y-83408576D01*
X135470716Y-94729573D02*
X135729535Y-93763647D01*
X134918758Y-94581676D02*
X135480624Y-94140641D01*
X135177577Y-93615751D02*
X135581639Y-94315605D01*
X134710123Y-94624370D02*
X133974180Y-94427175D01*
X133768847Y-94273559D02*
X134027666Y-93307633D01*
X133659694Y-93209035D01*
X133555376Y-93230382D01*
X133497055Y-93264054D01*
X133426409Y-93343722D01*
X133389435Y-93481711D01*
X133410782Y-93586029D01*
X133444454Y-93644350D01*
X133524122Y-93714995D01*
X133892094Y-93813593D01*
X132561498Y-93259866D02*
X132351978Y-94041806D01*
X132373325Y-94146124D01*
X132406997Y-94204445D01*
X132486666Y-94275091D01*
X132624655Y-94312065D01*
X132728973Y-94290718D01*
X132401277Y-93857820D02*
X132480945Y-93928466D01*
X132664932Y-93977765D01*
X132769249Y-93956418D01*
X132827570Y-93922747D01*
X132898216Y-93843079D01*
X132972165Y-93567099D01*
X132950818Y-93462781D01*
X132917146Y-93404460D01*
X132837478Y-93333815D01*
X132653491Y-93284515D01*
X132549174Y-93305862D01*
X131928988Y-93780570D02*
X132187807Y-92814644D01*
X131957825Y-92753021D01*
X131807510Y-92762043D01*
X131690868Y-92829386D01*
X131620222Y-92909054D01*
X131524927Y-93080715D01*
X131487952Y-93218705D01*
X131484650Y-93415016D01*
X131505997Y-93519333D01*
X131573340Y-93635976D01*
X131699006Y-93718946D01*
X131928988Y-93780570D01*
X131135608Y-92877800D02*
X130963062Y-93521751D01*
X131110959Y-92969793D02*
X131077287Y-92911472D01*
X130997619Y-92840826D01*
X130859629Y-92803851D01*
X130755311Y-92825198D01*
X130684665Y-92904867D01*
X130549093Y-93410828D01*
X129583168Y-93152009D02*
X130135126Y-93299906D01*
X129859147Y-93225958D02*
X130117966Y-92260032D01*
X130172985Y-92422671D01*
X130240328Y-92539313D01*
X130319996Y-92609959D01*
X175225566Y-93061015D02*
X174966747Y-92095089D01*
X174673608Y-93208911D02*
X174939680Y-92546031D01*
X174414789Y-92242986D02*
X175114643Y-92647047D01*
X174514271Y-93350203D02*
X173778328Y-93547399D01*
X173523696Y-93517029D02*
X173264877Y-92551103D01*
X172896905Y-92649701D01*
X172817237Y-92720347D01*
X172783565Y-92778668D01*
X172762218Y-92882986D01*
X172799192Y-93020975D01*
X172869838Y-93100643D01*
X172928159Y-93134315D01*
X173032477Y-93155662D01*
X173400449Y-93057064D01*
X171971255Y-93242820D02*
X172180776Y-94024760D01*
X172251422Y-94104428D01*
X172309743Y-94138100D01*
X172414061Y-94159447D01*
X172552050Y-94122473D01*
X172631719Y-94051827D01*
X172131477Y-93840774D02*
X172235794Y-93862121D01*
X172419781Y-93812822D01*
X172499449Y-93742177D01*
X172533121Y-93683855D01*
X172554468Y-93579538D01*
X172480519Y-93303558D01*
X172409874Y-93223890D01*
X172351553Y-93190219D01*
X172247235Y-93168872D01*
X172063248Y-93218171D01*
X171983580Y-93288816D01*
X171425018Y-93044092D02*
X171634539Y-93826032D01*
X171613192Y-93930350D01*
X171579520Y-93988671D01*
X171499852Y-94059317D01*
X171315865Y-94108616D01*
X171211547Y-94087269D01*
X171153226Y-94053597D01*
X171082581Y-93973929D01*
X170873060Y-93191989D01*
X170499369Y-93637211D02*
X170758188Y-94603137D01*
X170511694Y-93683207D02*
X170407376Y-93661860D01*
X170223390Y-93711159D01*
X170143721Y-93781805D01*
X170110050Y-93840126D01*
X170088703Y-93944444D01*
X170162651Y-94220423D01*
X170233297Y-94300091D01*
X170291618Y-94333763D01*
X170395936Y-94355110D01*
X170579922Y-94305811D01*
X170659590Y-94235165D01*
X169292021Y-94650903D02*
X169843979Y-94503007D01*
X169568000Y-94576955D02*
X169309181Y-93611029D01*
X169438148Y-93724369D01*
X169554790Y-93791712D01*
X169659108Y-93813059D01*
X283769005Y-39324373D02*
X283510186Y-38358448D01*
X283217047Y-39472270D02*
X283483120Y-38809389D01*
X282958228Y-38506344D02*
X283658083Y-38910406D01*
X283057711Y-39613562D02*
X282321767Y-39810757D01*
X282067136Y-39780388D02*
X281808317Y-38814462D01*
X281440345Y-38913060D01*
X281360676Y-38983706D01*
X281327005Y-39042027D01*
X281305658Y-39146344D01*
X281342632Y-39284334D01*
X281413278Y-39364002D01*
X281471599Y-39397674D01*
X281575916Y-39419021D01*
X281943889Y-39320423D01*
X281101210Y-40039207D02*
X280928664Y-39395256D01*
X280842391Y-39073281D02*
X280900712Y-39106953D01*
X280867040Y-39165274D01*
X280808719Y-39131602D01*
X280842391Y-39073281D01*
X280867040Y-39165274D01*
X280468700Y-39518503D02*
X280727519Y-40484429D01*
X280481024Y-39564500D02*
X280376707Y-39543153D01*
X280192720Y-39592452D01*
X280113052Y-39663097D01*
X280079380Y-39721419D01*
X280058033Y-39825736D01*
X280131982Y-40101716D01*
X280202628Y-40181384D01*
X280260949Y-40215055D01*
X280365266Y-40236402D01*
X280549253Y-40187103D01*
X280628921Y-40116458D01*
X279387016Y-40449225D02*
X279491333Y-40470572D01*
X279675320Y-40421273D01*
X279754988Y-40350627D01*
X279776335Y-40246310D01*
X279677737Y-39878337D01*
X279607092Y-39798669D01*
X279502774Y-39777322D01*
X279318787Y-39826621D01*
X279239119Y-39897267D01*
X279217772Y-40001585D01*
X279242422Y-40093578D01*
X279727036Y-40062324D01*
X278433415Y-40754041D02*
X278985373Y-40606144D01*
X278709394Y-40680092D02*
X278450575Y-39714166D01*
X278579542Y-39827506D01*
X278696184Y-39894850D01*
X278800502Y-39916197D01*
X48295512Y-46718534D02*
X48554331Y-45752608D01*
X47743554Y-46570637D02*
X48305420Y-46129602D01*
X48002373Y-45604712D02*
X48406435Y-46304566D01*
X47534919Y-46613331D02*
X46798975Y-46416136D01*
X45925042Y-46181966D02*
X46029360Y-46160619D01*
X46146002Y-46093276D01*
X46320966Y-45992261D01*
X46425284Y-45970914D01*
X46517277Y-45995563D01*
X46409657Y-46213221D02*
X46513975Y-46191874D01*
X46630617Y-46124530D01*
X46725912Y-45952869D01*
X46812185Y-45630893D01*
X46815488Y-45434583D01*
X46748144Y-45317941D01*
X46668476Y-45247295D01*
X46484489Y-45197996D01*
X46380172Y-45219343D01*
X46263530Y-45286686D01*
X46168234Y-45458347D01*
X46081961Y-45780323D01*
X46078659Y-45976634D01*
X46146002Y-46093276D01*
X46225670Y-46163922D01*
X46409657Y-46213221D01*
X45075759Y-45855804D02*
X45627717Y-46003701D01*
X45351738Y-45929752D02*
X45610557Y-44963827D01*
X45665576Y-45126465D01*
X45732919Y-45243107D01*
X45812588Y-45313753D01*
X104707800Y-56903658D02*
X104966620Y-55937732D01*
X104155842Y-56755761D02*
X104717708Y-56314726D01*
X104414661Y-55789835D02*
X104818723Y-56489690D01*
X103947207Y-56798455D02*
X103211264Y-56601260D01*
X102453973Y-56299747D02*
X102899196Y-55926055D01*
X103005931Y-56447643D02*
X103264750Y-55481718D01*
X102896778Y-55383120D01*
X102792460Y-55404467D01*
X102734139Y-55438138D01*
X102663493Y-55517807D01*
X102626519Y-55655796D01*
X102647866Y-55760113D01*
X102681538Y-55818434D01*
X102761206Y-55889080D01*
X103129178Y-55987678D01*
X101534043Y-56053252D02*
X102086002Y-56201149D01*
X101810023Y-56127201D02*
X102068842Y-55161275D01*
X102123861Y-55323914D01*
X102191204Y-55440556D01*
X102270872Y-55511202D01*
X202346825Y-120307414D02*
X202088006Y-119341488D01*
X201794867Y-120455311D02*
X202060939Y-119792430D01*
X201536047Y-119489385D02*
X202235902Y-119893446D01*
X201635530Y-120596603D02*
X200899587Y-120793798D01*
X200092997Y-120911326D02*
X200291726Y-120365087D01*
X200644955Y-120763429D02*
X200386136Y-119797503D01*
X200018164Y-119896101D01*
X199938495Y-119966747D01*
X199904824Y-120025068D01*
X199883477Y-120129385D01*
X199920451Y-120267375D01*
X199991097Y-120347043D01*
X200049418Y-120380715D01*
X200153735Y-120402062D01*
X200521708Y-120303464D01*
X199265060Y-121133170D02*
X199129488Y-120627209D01*
X199150835Y-120522891D01*
X199230504Y-120452245D01*
X199414490Y-120402946D01*
X199518808Y-120424293D01*
X199252736Y-121087174D02*
X199357053Y-121108521D01*
X199587036Y-121046897D01*
X199666704Y-120976251D01*
X199688052Y-120871934D01*
X199663402Y-120779941D01*
X199592756Y-120700273D01*
X199488439Y-120678926D01*
X199258456Y-120740550D01*
X199154138Y-120719203D01*
X198805096Y-121256417D02*
X198632550Y-120612467D01*
X198546277Y-120290492D02*
X198604598Y-120324163D01*
X198570927Y-120382485D01*
X198512605Y-120348813D01*
X198546277Y-120290492D01*
X198570927Y-120382485D01*
X198378804Y-121321343D02*
X198299136Y-121391989D01*
X198115150Y-121441288D01*
X198010831Y-121419941D01*
X197940186Y-121340273D01*
X197927861Y-121294277D01*
X197949208Y-121189959D01*
X198028877Y-121119313D01*
X198166866Y-121082339D01*
X198246534Y-121011693D01*
X198267881Y-120907375D01*
X198255556Y-120861378D01*
X198184911Y-120781710D01*
X198080593Y-120760363D01*
X197942604Y-120797337D01*
X197862935Y-120867983D01*
X197182895Y-121641786D02*
X197287212Y-121663133D01*
X197471199Y-121613834D01*
X197550867Y-121543188D01*
X197572214Y-121438871D01*
X197473616Y-121070898D01*
X197402970Y-120991230D01*
X197298653Y-120969883D01*
X197114666Y-121019182D01*
X197034998Y-121089828D01*
X197013651Y-121194146D01*
X197038301Y-121286140D01*
X197522915Y-121254885D01*
X196229294Y-121946602D02*
X196781252Y-121798705D01*
X196505273Y-121872653D02*
X196246454Y-120906727D01*
X196375421Y-121020067D01*
X196492063Y-121087411D01*
X196596381Y-121108758D01*
X170364059Y-74641640D02*
X170105240Y-73675715D01*
X169812101Y-74789537D02*
X170078173Y-74126657D01*
X169553282Y-73823611D02*
X170253136Y-74227673D01*
X169652765Y-74930829D02*
X168916821Y-75128024D01*
X168110231Y-75245552D02*
X168308960Y-74699313D01*
X168662189Y-75097655D02*
X168403370Y-74131729D01*
X168035398Y-74230327D01*
X167955730Y-74300973D01*
X167922058Y-74359294D01*
X167900711Y-74463612D01*
X167937685Y-74601601D01*
X168008331Y-74681269D01*
X168066652Y-74714941D01*
X168170970Y-74736288D01*
X168538942Y-74637690D01*
X167238716Y-74936786D02*
X167113051Y-75019756D01*
X167079380Y-75078078D01*
X167058033Y-75182396D01*
X167095007Y-75320385D01*
X167165652Y-75400053D01*
X167223974Y-75433725D01*
X167328291Y-75455072D01*
X167696263Y-75356474D01*
X167437444Y-74390548D01*
X167115469Y-74476821D01*
X167035800Y-74547467D01*
X167002129Y-74605788D01*
X166980782Y-74710106D01*
X167005431Y-74802099D01*
X167076077Y-74881767D01*
X167134398Y-74915439D01*
X167238716Y-74936786D01*
X167560691Y-74850512D01*
X166178380Y-75763190D02*
X166377108Y-75216951D01*
X166730338Y-75615293D02*
X166471519Y-74649367D01*
X166103546Y-74747965D01*
X166023878Y-74818611D01*
X165990206Y-74876932D01*
X165968859Y-74981250D01*
X166005833Y-75119239D01*
X166076479Y-75198907D01*
X166134800Y-75232579D01*
X166239118Y-75253926D01*
X166607090Y-75155328D01*
X165187804Y-75930016D02*
X165246126Y-75963688D01*
X165396439Y-75972710D01*
X165488432Y-75948061D01*
X165614098Y-75865090D01*
X165681441Y-75748448D01*
X165702788Y-75644130D01*
X165699486Y-75447820D01*
X165662512Y-75309829D01*
X165567216Y-75138168D01*
X165496570Y-75058500D01*
X165379928Y-74991157D01*
X165229613Y-74982135D01*
X165137620Y-75006784D01*
X165011956Y-75089755D01*
X164978284Y-75148076D01*
X164292524Y-76268503D02*
X164844482Y-76120607D01*
X164568504Y-76194555D02*
X164309685Y-75228629D01*
X164438652Y-75341969D01*
X164555294Y-75409312D01*
X164659612Y-75430659D01*
X275858380Y-100610053D02*
X275599561Y-99644127D01*
X275306422Y-100757949D02*
X275572494Y-100095069D01*
X275047603Y-99792024D02*
X275747457Y-100196085D01*
X275147085Y-100899241D02*
X274411142Y-101096437D01*
X273604552Y-101213964D02*
X273803281Y-100667726D01*
X274156510Y-101066067D02*
X273897691Y-100100141D01*
X273529719Y-100198739D01*
X273450051Y-100269385D01*
X273416379Y-100327706D01*
X273395032Y-100432024D01*
X273432006Y-100570013D01*
X273502652Y-100649681D01*
X273560973Y-100683353D01*
X273665291Y-100704700D01*
X274033263Y-100606102D01*
X273190584Y-101324886D02*
X273018038Y-100680935D01*
X272931765Y-100358960D02*
X272990086Y-100392632D01*
X272956415Y-100450953D01*
X272898094Y-100417282D01*
X272931765Y-100358960D01*
X272956415Y-100450953D01*
X272144105Y-100915105D02*
X272353625Y-101697045D01*
X272424271Y-101776713D01*
X272482592Y-101810385D01*
X272586911Y-101831732D01*
X272724900Y-101794758D01*
X272804568Y-101724112D01*
X272304327Y-101513059D02*
X272408644Y-101534406D01*
X272592631Y-101485107D01*
X272672299Y-101414462D01*
X272705971Y-101356140D01*
X272727318Y-101251823D01*
X272653369Y-100975843D01*
X272582723Y-100896175D01*
X272524402Y-100862504D01*
X272420085Y-100841157D01*
X272236098Y-100890456D01*
X272156430Y-100961101D01*
X271856687Y-101682303D02*
X271597868Y-100716377D01*
X271442718Y-101793226D02*
X271307146Y-101287264D01*
X271328493Y-101182946D01*
X271408162Y-101112301D01*
X271546152Y-101075326D01*
X271650469Y-101096673D01*
X271708790Y-101130345D01*
X270948197Y-101235548D02*
X270580226Y-101334145D01*
X270723935Y-100950547D02*
X270945780Y-101778483D01*
X270924433Y-101882801D01*
X270844765Y-101953447D01*
X270752772Y-101978096D01*
X269924835Y-102199941D02*
X270476793Y-102052045D01*
X270200814Y-102125993D02*
X269941995Y-101160067D01*
X270070962Y-101273407D01*
X270187604Y-101340750D01*
X270291922Y-101362097D01*
X296528075Y-75349614D02*
X296269256Y-74383688D01*
X295976117Y-75497511D02*
X296242189Y-74834630D01*
X295717298Y-74531585D02*
X296417153Y-74935646D01*
X295816781Y-75638802D02*
X295080837Y-75835998D01*
X294274247Y-75953525D02*
X294472976Y-75407287D01*
X294826205Y-75805629D02*
X294567386Y-74839703D01*
X294199414Y-74938301D01*
X294119746Y-75008946D01*
X294086074Y-75067268D01*
X294064727Y-75171585D01*
X294101701Y-75309574D01*
X294172347Y-75389242D01*
X294230668Y-75422914D01*
X294334986Y-75444261D01*
X294702958Y-75345663D01*
X293893951Y-76006126D02*
X293768287Y-76089097D01*
X293538304Y-76150721D01*
X293433986Y-76129374D01*
X293375665Y-76095702D01*
X293305019Y-76016034D01*
X293280370Y-75924041D01*
X293301717Y-75819723D01*
X293335388Y-75761402D01*
X293415056Y-75690756D01*
X293586718Y-75595460D01*
X293666386Y-75524814D01*
X293700058Y-75466493D01*
X293721405Y-75362176D01*
X293696756Y-75270183D01*
X293626110Y-75190515D01*
X293567789Y-75156843D01*
X293463471Y-75135496D01*
X293233488Y-75197120D01*
X293107824Y-75280090D01*
X292940350Y-76310942D02*
X292681531Y-75345016D01*
X292526381Y-76421864D02*
X292390809Y-75915903D01*
X292412156Y-75811585D01*
X292491825Y-75740940D01*
X292629815Y-75703965D01*
X292734132Y-75725312D01*
X292792453Y-75758984D01*
X292066417Y-76545112D02*
X291893871Y-75901161D01*
X291807598Y-75579186D02*
X291865919Y-75612857D01*
X291832248Y-75671179D01*
X291773926Y-75637507D01*
X291807598Y-75579186D01*
X291832248Y-75671179D01*
X291571896Y-75987434D02*
X291203925Y-76086031D01*
X291606453Y-76668359D02*
X291384608Y-75840422D01*
X291313962Y-75760754D01*
X291209645Y-75739407D01*
X291117652Y-75764056D01*
X291019938Y-76135330D02*
X290651967Y-76233928D01*
X290795676Y-75850329D02*
X291017521Y-76678266D01*
X290996174Y-76782584D01*
X290916506Y-76853229D01*
X290824513Y-76877879D01*
X289996575Y-77099724D02*
X290548533Y-76951827D01*
X290272555Y-77025776D02*
X290013736Y-76059850D01*
X290142703Y-76173190D01*
X290259345Y-76240533D01*
X290363663Y-76261880D01*
X62952525Y-65437377D02*
X63211344Y-64471452D01*
X62400567Y-65289481D02*
X62962432Y-64848445D01*
X62659386Y-64323555D02*
X63063447Y-65023410D01*
X62191932Y-65332175D02*
X61455988Y-65134979D01*
X61308976Y-64947691D02*
X61158662Y-64956713D01*
X60928679Y-64895090D01*
X60849011Y-64824444D01*
X60815339Y-64766123D01*
X60793992Y-64661805D01*
X60818642Y-64569812D01*
X60889288Y-64490144D01*
X60947609Y-64456473D01*
X61051927Y-64435125D01*
X61248238Y-64438427D01*
X61352556Y-64417080D01*
X61410877Y-64383408D01*
X61481522Y-64303740D01*
X61506172Y-64211747D01*
X61484825Y-64107430D01*
X61451153Y-64049109D01*
X61371485Y-63978463D01*
X61141502Y-63916839D01*
X60991188Y-63925861D01*
X59824764Y-64599297D02*
X60376722Y-64747193D01*
X60100744Y-64673245D02*
X60359563Y-63707319D01*
X60414581Y-63869958D01*
X60481925Y-63986600D01*
X60561593Y-64057246D01*
X271042868Y-82178353D02*
X270784049Y-81212427D01*
X270490910Y-82326249D02*
X270756982Y-81663369D01*
X270232091Y-81360324D02*
X270931946Y-81764385D01*
X270331574Y-82467541D02*
X269595630Y-82664737D01*
X269374670Y-82576046D02*
X269249006Y-82659017D01*
X269019023Y-82720641D01*
X268914705Y-82699294D01*
X268856384Y-82665622D01*
X268785738Y-82585954D01*
X268761089Y-82493961D01*
X268782436Y-82389643D01*
X268816108Y-82331322D01*
X268895775Y-82260675D01*
X269067437Y-82165380D01*
X269147106Y-82094734D01*
X269180777Y-82036413D01*
X269202124Y-81932095D01*
X269177475Y-81840102D01*
X269106829Y-81760434D01*
X269048508Y-81726763D01*
X268944190Y-81705416D01*
X268714207Y-81767039D01*
X268588543Y-81850010D01*
X268283080Y-82917836D02*
X268362748Y-82847190D01*
X268384095Y-82742872D01*
X268162250Y-81914936D01*
X267501139Y-83127356D02*
X267365567Y-82621395D01*
X267386914Y-82517077D01*
X267466582Y-82446431D01*
X267650569Y-82397132D01*
X267754886Y-82418479D01*
X267488814Y-83081360D02*
X267593132Y-83102707D01*
X267823115Y-83041083D01*
X267902783Y-82970437D01*
X267924130Y-82866120D01*
X267899481Y-82774127D01*
X267828835Y-82694459D01*
X267724517Y-82673112D01*
X267494534Y-82734735D01*
X267390217Y-82713388D01*
X267074846Y-83192282D02*
X266995178Y-83262928D01*
X266811193Y-83312227D01*
X266706874Y-83290880D01*
X266636228Y-83211212D01*
X266623904Y-83165216D01*
X266645251Y-83060898D01*
X266724920Y-82990252D01*
X266862909Y-82953278D01*
X266942577Y-82882632D01*
X266963924Y-82778313D01*
X266951599Y-82732317D01*
X266880953Y-82652649D01*
X266776636Y-82631302D01*
X266638646Y-82668276D01*
X266558977Y-82738922D01*
X266259235Y-83460124D02*
X266000416Y-82494198D01*
X265845266Y-83571046D02*
X265709694Y-83065085D01*
X265731041Y-82960767D01*
X265810709Y-82890121D01*
X265948699Y-82853147D01*
X266053017Y-82874494D01*
X266111338Y-82908166D01*
X264879340Y-83829865D02*
X265431298Y-83681968D01*
X265155319Y-83755917D02*
X264896500Y-82789991D01*
X265025467Y-82903331D01*
X265142110Y-82970674D01*
X265246427Y-82992021D01*
X131865578Y-114932365D02*
X130899652Y-114673546D01*
X131717681Y-115484323D02*
X131276646Y-114922457D01*
X130751756Y-115225504D02*
X131451610Y-114821442D01*
X131760375Y-115692958D02*
X131563180Y-116428902D01*
X131375892Y-116575913D02*
X131384914Y-116726227D01*
X131323290Y-116956210D01*
X131252644Y-117035878D01*
X131194323Y-117069550D01*
X131090006Y-117090897D01*
X130998013Y-117066248D01*
X130918345Y-116995602D01*
X130884673Y-116937281D01*
X130863325Y-116832963D01*
X130866628Y-116636651D01*
X130845281Y-116532334D01*
X130811609Y-116474013D01*
X130731941Y-116403367D01*
X130639948Y-116378718D01*
X130535630Y-116400065D01*
X130477309Y-116433736D01*
X130406664Y-116513404D01*
X130345040Y-116743388D01*
X130354062Y-116893702D01*
X130519118Y-117381618D02*
X131485044Y-117640437D01*
X130565115Y-117393942D02*
X130494469Y-117473610D01*
X130445170Y-117657597D01*
X130466517Y-117761915D01*
X130500189Y-117820236D01*
X130579857Y-117890882D01*
X130855836Y-117964830D01*
X130960154Y-117943483D01*
X131018475Y-117909811D01*
X131089121Y-117830143D01*
X131138420Y-117646156D01*
X131117073Y-117541839D01*
X130817977Y-118842065D02*
X130312015Y-118706493D01*
X130232347Y-118635848D01*
X130211000Y-118531530D01*
X130260299Y-118347543D01*
X130330945Y-118267875D01*
X130771980Y-118829741D02*
X130842626Y-118750073D01*
X130904250Y-118520089D01*
X130882903Y-118415772D01*
X130803235Y-118345126D01*
X130711242Y-118320477D01*
X130606925Y-118341824D01*
X130536279Y-118421492D01*
X130474655Y-118651475D01*
X130404009Y-118731143D01*
X130537811Y-119703674D02*
X130608457Y-119624006D01*
X130657756Y-119440019D01*
X130636409Y-119335701D01*
X130602737Y-119277380D01*
X130523069Y-119206734D01*
X130247089Y-119132786D01*
X130142772Y-119154133D01*
X130084451Y-119187805D01*
X130013805Y-119267473D01*
X129964506Y-119451459D01*
X129985853Y-119555777D01*
X130328291Y-120485614D02*
X130398936Y-120405946D01*
X130448236Y-120221959D01*
X130426888Y-120117641D01*
X130347220Y-120046996D01*
X129979248Y-119948398D01*
X129874930Y-119969745D01*
X129804285Y-120049413D01*
X129754986Y-120233400D01*
X129776333Y-120337717D01*
X129856001Y-120408363D01*
X129947995Y-120433013D01*
X130163235Y-119997697D01*
X130115468Y-121463864D02*
X130263365Y-120911906D01*
X130189416Y-121187885D02*
X129223491Y-120929066D01*
X129386129Y-120874047D01*
X129502772Y-120806704D01*
X129573417Y-120727035D01*
X121761071Y-66403571D02*
X122019890Y-65437645D01*
X121209113Y-66255674D02*
X121770978Y-65814639D01*
X121467932Y-65289749D02*
X121871993Y-65989603D01*
X121000478Y-66298368D02*
X120264534Y-66101173D01*
X120456010Y-65018605D02*
X119904052Y-64870708D01*
X119921212Y-65910582D02*
X120180031Y-64944657D01*
X118817296Y-65614789D02*
X119369254Y-65762686D01*
X119093276Y-65688737D02*
X119352095Y-64722812D01*
X119407113Y-64885450D01*
X119474457Y-65002093D01*
X119554125Y-65072738D01*
X26030348Y-40752600D02*
X26289167Y-39786674D01*
X25478390Y-40604703D02*
X26040255Y-40163668D01*
X25737209Y-39638777D02*
X26141270Y-40338632D01*
X25269755Y-40647397D02*
X24533811Y-40450201D01*
X24725287Y-39367633D02*
X24173329Y-39219737D01*
X24190489Y-40259611D02*
X24449308Y-39293685D01*
X23178566Y-39988467D02*
X23314138Y-39482505D01*
X23384784Y-39402837D01*
X23489101Y-39381490D01*
X23673088Y-39430789D01*
X23752756Y-39501435D01*
X23190891Y-39942471D02*
X23270559Y-40013116D01*
X23500542Y-40074740D01*
X23604859Y-40053393D01*
X23675505Y-39973725D01*
X23700155Y-39881732D01*
X23678808Y-39777415D01*
X23599139Y-39706769D01*
X23369156Y-39645145D01*
X23289488Y-39574499D01*
X22718602Y-39865220D02*
X22977421Y-38899294D01*
X22878823Y-39267266D02*
X22799155Y-39196620D01*
X22615168Y-39147321D01*
X22510851Y-39168668D01*
X22452530Y-39202339D01*
X22381884Y-39282007D01*
X22307935Y-39557987D01*
X22329282Y-39662305D01*
X22362954Y-39720626D01*
X22442622Y-39791271D01*
X22626609Y-39840571D01*
X22730926Y-39819224D01*
X21338707Y-39495478D02*
X21890665Y-39643375D01*
X21614687Y-39569427D02*
X21873506Y-38603501D01*
X21928524Y-38766140D01*
X21995868Y-38882782D01*
X22075536Y-38953428D01*
X203274690Y-55962258D02*
X203015871Y-54996332D01*
X202722732Y-56110155D02*
X202988804Y-55447274D01*
X202463913Y-55144229D02*
X203163767Y-55548290D01*
X202563396Y-56251446D02*
X201827452Y-56448642D01*
X201314001Y-55452347D02*
X201523521Y-56234287D01*
X201502174Y-56338604D01*
X201468503Y-56396925D01*
X201388835Y-56467571D01*
X201204848Y-56516870D01*
X201100530Y-56495523D01*
X201042209Y-56461852D01*
X200971563Y-56382183D01*
X200762043Y-55600243D01*
X200054936Y-56824988D02*
X200606894Y-56677091D01*
X200330916Y-56751040D02*
X200072097Y-55785114D01*
X200201064Y-55898454D01*
X200317706Y-55965797D01*
X200422024Y-55987144D01*
X255304940Y-101186829D02*
X255046121Y-100220903D01*
X254752982Y-101334726D02*
X255019054Y-100671845D01*
X254494163Y-100368800D02*
X255194018Y-100772861D01*
X254593646Y-101476017D02*
X253857702Y-101673213D01*
X253344252Y-100676918D02*
X253553772Y-101458858D01*
X253532425Y-101563175D01*
X253498753Y-101621497D01*
X253419085Y-101692142D01*
X253235098Y-101741441D01*
X253130781Y-101720094D01*
X253072460Y-101686423D01*
X253001814Y-101606755D01*
X252792294Y-100824814D01*
X252418602Y-101270036D02*
X252677421Y-102235962D01*
X252430927Y-101316033D02*
X252326610Y-101294686D01*
X252142623Y-101343985D01*
X252062955Y-101414631D01*
X252029283Y-101472952D01*
X252007936Y-101577269D01*
X252081885Y-101853249D01*
X252152530Y-101932917D01*
X252210851Y-101966589D01*
X252315169Y-101987936D01*
X252499156Y-101938637D01*
X252578824Y-101867991D01*
X251211254Y-102283729D02*
X251763212Y-102135832D01*
X251487233Y-102209780D02*
X251228414Y-101243855D01*
X251357381Y-101357195D01*
X251474024Y-101424538D01*
X251578341Y-101445885D01*
X94777800Y-93686944D02*
X95036619Y-92721018D01*
X94225842Y-93539047D02*
X94787708Y-93098012D01*
X94484661Y-92573121D02*
X94888723Y-93272976D01*
X94017207Y-93581741D02*
X93281264Y-93384546D01*
X93472739Y-92301977D02*
X92891945Y-93181630D01*
X92828788Y-92129431D01*
X91742033Y-92873512D02*
X92293991Y-93021409D01*
X92018012Y-92947461D02*
X92276831Y-91981535D01*
X92331850Y-92144174D01*
X92399193Y-92260816D01*
X92478861Y-92331462D01*
X67975021Y-47061139D02*
X68233840Y-46095213D01*
X67423063Y-46913242D02*
X67984928Y-46472207D01*
X67681882Y-45947316D02*
X68085943Y-46647171D01*
X67214427Y-46955936D02*
X66478484Y-46758741D01*
X66623963Y-45663848D02*
X66135162Y-46568150D01*
X66136046Y-45828904D01*
X65767189Y-46469552D01*
X65796026Y-45442003D01*
X64663274Y-46173759D02*
X65215232Y-46321656D01*
X64939254Y-46247708D02*
X65198073Y-45281782D01*
X65253092Y-45444420D01*
X65320435Y-45561063D01*
X65400103Y-45631709D01*
X73483973Y-102772790D02*
X73742792Y-101806864D01*
X72932015Y-102624894D02*
X73493881Y-102183858D01*
X73190834Y-101658968D02*
X73594896Y-102358822D01*
X72723380Y-102667588D02*
X71987436Y-102470392D01*
X72132916Y-101375499D02*
X71644114Y-102279802D01*
X71644999Y-101540555D01*
X71276142Y-102181204D01*
X71304979Y-101153654D01*
X70678189Y-102020982D02*
X70850735Y-101377032D01*
X70937008Y-101055057D02*
X70970679Y-101113378D01*
X70912358Y-101147050D01*
X70878686Y-101088728D01*
X70937008Y-101055057D01*
X70912358Y-101147050D01*
X70390770Y-101253785D02*
X70218224Y-101897735D01*
X70366121Y-101345777D02*
X70332449Y-101287456D01*
X70252781Y-101216810D01*
X70114791Y-101179836D01*
X70010473Y-101201183D01*
X69939828Y-101280851D01*
X69804256Y-101786813D01*
X68838330Y-101527994D02*
X69390288Y-101675891D01*
X69114309Y-101601942D02*
X69373128Y-100636016D01*
X69428147Y-100798655D01*
X69495490Y-100915297D01*
X69575159Y-100985943D01*
X58022021Y-83838263D02*
X58280840Y-82872338D01*
X57470063Y-83690367D02*
X58031928Y-83249331D01*
X57728882Y-82724441D02*
X58132943Y-83424296D01*
X57261428Y-83733061D02*
X56525484Y-83535865D01*
X56670963Y-82440972D02*
X55768193Y-83234352D01*
X56027012Y-82268426D02*
X56412144Y-83406898D01*
X54894260Y-83000183D02*
X55446218Y-83148079D01*
X55170240Y-83074131D02*
X55429059Y-82108205D01*
X55484077Y-82270844D01*
X55551421Y-82387486D01*
X55631089Y-82458132D01*
X186014436Y-65517631D02*
X185755617Y-64551705D01*
X185462478Y-65665528D02*
X185728550Y-65002647D01*
X185203659Y-64699602D02*
X185903514Y-65103663D01*
X185303142Y-65806820D02*
X184567198Y-66004015D01*
X184005333Y-65562979D02*
X184128581Y-66022945D01*
X184191737Y-64970746D02*
X184005333Y-65562979D01*
X183547786Y-65143292D01*
X182978668Y-66331063D02*
X183530626Y-66183166D01*
X183254648Y-66257114D02*
X182995829Y-65291188D01*
X183124796Y-65404528D01*
X183241438Y-65471872D01*
X183345755Y-65493219D01*
X38388510Y-83507983D02*
X38647329Y-82542058D01*
X37836552Y-83360087D02*
X38398417Y-82919051D01*
X38095371Y-82394161D02*
X38499432Y-83094016D01*
X37627917Y-83402781D02*
X36891973Y-83205585D01*
X37037452Y-82110692D02*
X36393501Y-81938146D01*
X36778633Y-83076618D01*
X36134682Y-82904072D01*
X35260749Y-82669903D02*
X35812707Y-82817799D01*
X35536729Y-82743851D02*
X35795548Y-81777925D01*
X35850566Y-81940564D01*
X35917910Y-82057206D01*
X35997578Y-82127852D01*
D13*
X173164286Y-25586012D02*
X173021429Y-25633631D01*
X172783333Y-25633631D01*
X172688095Y-25586012D01*
X172640476Y-25538393D01*
X172592857Y-25443155D01*
X172592857Y-25347917D01*
X172640476Y-25252679D01*
X172688095Y-25205060D01*
X172783333Y-25157440D01*
X172973810Y-25109821D01*
X173069048Y-25062202D01*
X173116667Y-25014583D01*
X173164286Y-24919345D01*
X173164286Y-24824107D01*
X173116667Y-24728869D01*
X173069048Y-24681250D01*
X172973810Y-24633631D01*
X172735714Y-24633631D01*
X172592857Y-24681250D01*
X172259524Y-24633631D02*
X172021429Y-25633631D01*
X171830952Y-24919345D01*
X171640476Y-25633631D01*
X171402381Y-24633631D01*
X171259524Y-25728869D02*
X170497619Y-25728869D01*
X169735714Y-25633631D02*
X170307143Y-25633631D01*
X170021429Y-25633631D02*
X170021429Y-24633631D01*
X170116667Y-24776488D01*
X170211905Y-24871726D01*
X170307143Y-24919345D01*
M02*
