G04 #@! TF.FileFunction,Soldermask,Top*
%FSLAX46Y46*%
G04 Gerber Fmt 4.6, Leading zero omitted, Abs format (unit mm)*
G04 Created by KiCad (PCBNEW 4.0.7) date 09/07/18 12:57:53*
%MOMM*%
%LPD*%
G01*
G04 APERTURE LIST*
%ADD10C,0.100000*%
%ADD11C,2.900000*%
%ADD12C,2.000000*%
%ADD13C,3.200000*%
%ADD14C,2.200000*%
%ADD15R,2.152600X2.152600*%
%ADD16C,2.152600*%
G04 APERTURE END LIST*
D10*
D11*
X311666441Y-62228856D02*
X311261017Y-63848896D01*
X316737604Y-59752591D02*
X316849266Y-60321741D01*
X3461950Y-65031596D02*
X2300822Y-66231880D01*
X9091837Y-65422668D02*
X8903965Y-65971398D01*
D10*
G36*
X66954500Y-16269632D02*
X66436862Y-18201484D01*
X64505010Y-17683846D01*
X65022648Y-15751994D01*
X66954500Y-16269632D01*
X66954500Y-16269632D01*
G37*
D12*
X58195533Y-14957951D03*
D10*
G36*
X48553613Y-11339129D02*
X48035975Y-13270981D01*
X46104123Y-12753343D01*
X46621761Y-10821491D01*
X48553613Y-11339129D01*
X48553613Y-11339129D01*
G37*
D12*
X39794646Y-10027448D03*
D10*
G36*
X30152726Y-6408627D02*
X29635088Y-8340479D01*
X27703236Y-7822841D01*
X28220874Y-5890989D01*
X30152726Y-6408627D01*
X30152726Y-6408627D01*
G37*
D12*
X21393759Y-5096946D03*
D10*
G36*
X62023997Y-34670519D02*
X61506359Y-36602371D01*
X59574507Y-36084733D01*
X60092145Y-34152881D01*
X62023997Y-34670519D01*
X62023997Y-34670519D01*
G37*
D12*
X53265030Y-33358838D03*
D10*
G36*
X39022888Y-28507391D02*
X38505250Y-30439243D01*
X36573398Y-29921605D01*
X37091036Y-27989753D01*
X39022888Y-28507391D01*
X39022888Y-28507391D01*
G37*
D12*
X30263921Y-27195710D03*
D10*
G36*
X57093494Y-53071406D02*
X56575856Y-55003258D01*
X54644004Y-54485620D01*
X55161642Y-52553768D01*
X57093494Y-53071406D01*
X57093494Y-53071406D01*
G37*
D12*
X48334527Y-51759725D03*
D10*
G36*
X27192053Y-45059339D02*
X26674415Y-46991191D01*
X24742563Y-46473553D01*
X25260201Y-44541701D01*
X27192053Y-45059339D01*
X27192053Y-45059339D01*
G37*
D12*
X18433086Y-43747658D03*
D10*
G36*
X52162992Y-71472293D02*
X51645354Y-73404145D01*
X49713502Y-72886507D01*
X50231140Y-70954655D01*
X52162992Y-71472293D01*
X52162992Y-71472293D01*
G37*
D12*
X43404025Y-70160612D03*
D10*
G36*
X17661328Y-62227600D02*
X17143690Y-64159452D01*
X15211838Y-63641814D01*
X15729476Y-61709962D01*
X17661328Y-62227600D01*
X17661328Y-62227600D01*
G37*
D12*
X8902361Y-60915919D03*
D10*
G36*
X86588013Y-16599913D02*
X86070375Y-18531765D01*
X84138523Y-18014127D01*
X84656161Y-16082275D01*
X86588013Y-16599913D01*
X86588013Y-16599913D01*
G37*
D12*
X77829046Y-15288232D03*
D10*
G36*
X106221525Y-16930194D02*
X105703887Y-18862046D01*
X103772035Y-18344408D01*
X104289673Y-16412556D01*
X106221525Y-16930194D01*
X106221525Y-16930194D01*
G37*
D12*
X97462558Y-15618513D03*
D10*
G36*
X101291023Y-35331081D02*
X100773385Y-37262933D01*
X98841533Y-36745295D01*
X99359171Y-34813443D01*
X101291023Y-35331081D01*
X101291023Y-35331081D01*
G37*
D12*
X92532056Y-34019400D03*
D10*
G36*
X81657510Y-35000800D02*
X81139872Y-36932652D01*
X79208020Y-36415014D01*
X79725658Y-34483162D01*
X81657510Y-35000800D01*
X81657510Y-35000800D01*
G37*
D12*
X72898543Y-33689119D03*
D10*
G36*
X96360520Y-53731968D02*
X95842882Y-55663820D01*
X93911030Y-55146182D01*
X94428668Y-53214330D01*
X96360520Y-53731968D01*
X96360520Y-53731968D01*
G37*
D12*
X87601553Y-52420287D03*
D10*
G36*
X76727007Y-53401687D02*
X76209369Y-55333539D01*
X74277517Y-54815901D01*
X74795155Y-52884049D01*
X76727007Y-53401687D01*
X76727007Y-53401687D01*
G37*
D12*
X67968040Y-52090006D03*
D10*
G36*
X71796504Y-71802574D02*
X71278866Y-73734426D01*
X69347014Y-73216788D01*
X69864652Y-71284936D01*
X71796504Y-71802574D01*
X71796504Y-71802574D01*
G37*
D12*
X63037537Y-70490893D03*
D10*
G36*
X66866001Y-90203461D02*
X66348363Y-92135313D01*
X64416511Y-91617675D01*
X64934149Y-89685823D01*
X66866001Y-90203461D01*
X66866001Y-90203461D01*
G37*
D12*
X58107034Y-88891780D03*
D10*
G36*
X47232489Y-89873180D02*
X46714851Y-91805032D01*
X44782999Y-91287394D01*
X45300637Y-89355542D01*
X47232489Y-89873180D01*
X47232489Y-89873180D01*
G37*
D12*
X38473522Y-88561499D03*
D10*
G36*
X140558048Y-35991643D02*
X140040410Y-37923495D01*
X138108558Y-37405857D01*
X138626196Y-35474005D01*
X140558048Y-35991643D01*
X140558048Y-35991643D01*
G37*
D12*
X131799081Y-34679962D03*
D10*
G36*
X123389787Y-26460919D02*
X122872149Y-28392771D01*
X120940297Y-27875133D01*
X121457935Y-25943281D01*
X123389787Y-26460919D01*
X123389787Y-26460919D01*
G37*
D12*
X114630820Y-25149238D03*
D10*
G36*
X118459284Y-44861806D02*
X117941646Y-46793658D01*
X116009794Y-46276020D01*
X116527432Y-44344168D01*
X118459284Y-44861806D01*
X118459284Y-44861806D01*
G37*
D12*
X109700317Y-43550125D03*
D10*
G36*
X135627545Y-54392530D02*
X135109907Y-56324382D01*
X133178055Y-55806744D01*
X133695693Y-53874892D01*
X135627545Y-54392530D01*
X135627545Y-54392530D01*
G37*
D12*
X126868578Y-53080849D03*
D10*
G36*
X113528781Y-63262693D02*
X113011143Y-65194545D01*
X111079291Y-64676907D01*
X111596929Y-62745055D01*
X113528781Y-63262693D01*
X113528781Y-63262693D01*
G37*
D12*
X104769814Y-61951012D03*
D10*
G36*
X91430017Y-72132855D02*
X90912379Y-74064707D01*
X88980527Y-73547069D01*
X89498165Y-71615217D01*
X91430017Y-72132855D01*
X91430017Y-72132855D01*
G37*
D12*
X82671050Y-70821174D03*
D10*
G36*
X108598278Y-81663580D02*
X108080640Y-83595432D01*
X106148788Y-83077794D01*
X106666426Y-81145942D01*
X108598278Y-81663580D01*
X108598278Y-81663580D01*
G37*
D12*
X99839311Y-80351899D03*
D10*
G36*
X86499514Y-90533742D02*
X85981876Y-92465594D01*
X84050024Y-91947956D01*
X84567662Y-90016104D01*
X86499514Y-90533742D01*
X86499514Y-90533742D01*
G37*
D12*
X77740547Y-89222061D03*
D10*
G36*
X103667775Y-100064467D02*
X103150137Y-101996319D01*
X101218285Y-101478681D01*
X101735923Y-99546829D01*
X103667775Y-100064467D01*
X103667775Y-100064467D01*
G37*
D12*
X94908808Y-98752786D03*
D10*
G36*
X152515832Y-63701717D02*
X151998194Y-65633569D01*
X150066342Y-65115931D01*
X150583980Y-63184079D01*
X152515832Y-63701717D01*
X152515832Y-63701717D01*
G37*
D12*
X143756865Y-62390036D03*
D10*
G36*
X130697042Y-72793417D02*
X130179404Y-74725269D01*
X128247552Y-74207631D01*
X128765190Y-72275779D01*
X130697042Y-72793417D01*
X130697042Y-72793417D01*
G37*
D12*
X121938075Y-71481736D03*
D10*
G36*
X147585329Y-82102604D02*
X147067691Y-84034456D01*
X145135839Y-83516818D01*
X145653477Y-81584966D01*
X147585329Y-82102604D01*
X147585329Y-82102604D01*
G37*
D12*
X138826362Y-80790923D03*
D10*
G36*
X125766540Y-91194304D02*
X125248902Y-93126156D01*
X123317050Y-92608518D01*
X123834688Y-90676666D01*
X125766540Y-91194304D01*
X125766540Y-91194304D01*
G37*
D12*
X117007573Y-89882623D03*
D10*
G36*
X120836037Y-109595191D02*
X120318399Y-111527043D01*
X118386547Y-111009405D01*
X118904185Y-109077553D01*
X120836037Y-109595191D01*
X120836037Y-109595191D01*
G37*
D12*
X112077070Y-108283510D03*
D10*
G36*
X137030402Y-124826573D02*
X135098550Y-124308935D01*
X135616188Y-122377083D01*
X137548040Y-122894721D01*
X137030402Y-124826573D01*
X137030402Y-124826573D01*
G37*
D12*
X138342083Y-116067606D03*
D10*
G36*
X170679766Y-58938050D02*
X171197404Y-60869902D01*
X169265552Y-61387540D01*
X168747914Y-59455688D01*
X170679766Y-58938050D01*
X170679766Y-58938050D01*
G37*
D12*
X162438437Y-62181583D03*
D10*
G36*
X192778530Y-67808212D02*
X193296168Y-69740064D01*
X191364316Y-70257702D01*
X190846678Y-68325850D01*
X192778530Y-67808212D01*
X192778530Y-67808212D01*
G37*
D12*
X184537201Y-71051745D03*
D10*
G36*
X175610269Y-77338937D02*
X176127907Y-79270789D01*
X174196055Y-79788427D01*
X173678417Y-77856575D01*
X175610269Y-77338937D01*
X175610269Y-77338937D01*
G37*
D12*
X167368940Y-80582470D03*
D10*
G36*
X197709033Y-86209099D02*
X198226671Y-88140951D01*
X196294819Y-88658589D01*
X195777181Y-86726737D01*
X197709033Y-86209099D01*
X197709033Y-86209099D01*
G37*
D12*
X189467704Y-89452632D03*
D10*
G36*
X202639536Y-104609986D02*
X203157174Y-106541838D01*
X201225322Y-107059476D01*
X200707684Y-105127624D01*
X202639536Y-104609986D01*
X202639536Y-104609986D01*
G37*
D12*
X194398207Y-107853519D03*
D10*
G36*
X169723743Y-124267707D02*
X167791891Y-124785345D01*
X167274253Y-122853493D01*
X169206105Y-122335855D01*
X169723743Y-124267707D01*
X169723743Y-124267707D01*
G37*
D12*
X166480210Y-116026378D03*
D10*
G36*
X182917524Y-31006438D02*
X183435162Y-32938290D01*
X181503310Y-33455928D01*
X180985672Y-31524076D01*
X182917524Y-31006438D01*
X182917524Y-31006438D01*
G37*
D12*
X174676195Y-34249971D03*
D10*
G36*
X200085786Y-21475713D02*
X200603424Y-23407565D01*
X198671572Y-23925203D01*
X198153934Y-21993351D01*
X200085786Y-21475713D01*
X200085786Y-21475713D01*
G37*
D12*
X191844457Y-24719246D03*
D10*
G36*
X205016288Y-39876600D02*
X205533926Y-41808452D01*
X203602074Y-42326090D01*
X203084436Y-40394238D01*
X205016288Y-39876600D01*
X205016288Y-39876600D01*
G37*
D12*
X196774959Y-43120133D03*
D10*
G36*
X187848027Y-49407325D02*
X188365665Y-51339177D01*
X186433813Y-51856815D01*
X185916175Y-49924963D01*
X187848027Y-49407325D01*
X187848027Y-49407325D01*
G37*
D12*
X179606698Y-52650858D03*
D10*
G36*
X209946791Y-58277487D02*
X210464429Y-60209339D01*
X208532577Y-60726977D01*
X208014939Y-58795125D01*
X209946791Y-58277487D01*
X209946791Y-58277487D01*
G37*
D12*
X201705462Y-61521020D03*
D10*
G36*
X232045555Y-67147650D02*
X232563193Y-69079502D01*
X230631341Y-69597140D01*
X230113703Y-67665288D01*
X232045555Y-67147650D01*
X232045555Y-67147650D01*
G37*
D12*
X223804226Y-70391183D03*
D10*
G36*
X214877294Y-76678374D02*
X215394932Y-78610226D01*
X213463080Y-79127864D01*
X212945442Y-77196012D01*
X214877294Y-76678374D01*
X214877294Y-76678374D01*
G37*
D12*
X206635965Y-79921907D03*
D10*
G36*
X236976058Y-85548537D02*
X237493696Y-87480389D01*
X235561844Y-87998027D01*
X235044206Y-86066175D01*
X236976058Y-85548537D01*
X236976058Y-85548537D01*
G37*
D12*
X228734729Y-88792070D03*
D10*
G36*
X219807797Y-95079261D02*
X220325435Y-97011113D01*
X218393583Y-97528751D01*
X217875945Y-95596899D01*
X219807797Y-95079261D01*
X219807797Y-95079261D01*
G37*
D12*
X211566468Y-98322794D03*
D10*
G36*
X236887560Y-11614708D02*
X237405198Y-13546560D01*
X235473346Y-14064198D01*
X234955708Y-12132346D01*
X236887560Y-11614708D01*
X236887560Y-11614708D01*
G37*
D12*
X228646231Y-14858241D03*
D10*
G36*
X217254047Y-11944989D02*
X217771685Y-13876841D01*
X215839833Y-14394479D01*
X215322195Y-12462627D01*
X217254047Y-11944989D01*
X217254047Y-11944989D01*
G37*
D12*
X209012718Y-15188522D03*
D10*
G36*
X222184550Y-30345876D02*
X222702188Y-32277728D01*
X220770336Y-32795366D01*
X220252698Y-30863514D01*
X222184550Y-30345876D01*
X222184550Y-30345876D01*
G37*
D12*
X213943221Y-33589409D03*
D10*
G36*
X241818062Y-30015595D02*
X242335700Y-31947447D01*
X240403848Y-32465085D01*
X239886210Y-30533233D01*
X241818062Y-30015595D01*
X241818062Y-30015595D01*
G37*
D12*
X233576733Y-33259128D03*
D10*
G36*
X227115053Y-48746763D02*
X227632691Y-50678615D01*
X225700839Y-51196253D01*
X225183201Y-49264401D01*
X227115053Y-48746763D01*
X227115053Y-48746763D01*
G37*
D12*
X218873724Y-51990296D03*
D10*
G36*
X246748565Y-48416482D02*
X247266203Y-50348334D01*
X245334351Y-50865972D01*
X244816713Y-48934120D01*
X246748565Y-48416482D01*
X246748565Y-48416482D01*
G37*
D12*
X238507236Y-51660015D03*
D10*
G36*
X251679068Y-66817369D02*
X252196706Y-68749221D01*
X250264854Y-69266859D01*
X249747216Y-67335007D01*
X251679068Y-66817369D01*
X251679068Y-66817369D01*
G37*
D12*
X243437739Y-70060902D03*
D10*
G36*
X256609571Y-85218256D02*
X257127209Y-87150108D01*
X255195357Y-87667746D01*
X254677719Y-85735894D01*
X256609571Y-85218256D01*
X256609571Y-85218256D01*
G37*
D12*
X248368242Y-88461789D03*
D10*
G36*
X276243084Y-84887975D02*
X276760722Y-86819827D01*
X274828870Y-87337465D01*
X274311232Y-85405613D01*
X276243084Y-84887975D01*
X276243084Y-84887975D01*
G37*
D12*
X268001755Y-88131508D03*
D10*
G36*
X256521072Y-11284427D02*
X257038710Y-13216279D01*
X255106858Y-13733917D01*
X254589220Y-11802065D01*
X256521072Y-11284427D01*
X256521072Y-11284427D01*
G37*
D12*
X248279743Y-14527960D03*
D10*
G36*
X284122403Y-3888673D02*
X284640041Y-5820525D01*
X282708189Y-6338163D01*
X282190551Y-4406311D01*
X284122403Y-3888673D01*
X284122403Y-3888673D01*
G37*
D12*
X275881074Y-7132206D03*
D10*
G36*
X284745898Y-23242947D02*
X285263536Y-25174799D01*
X283331684Y-25692437D01*
X282814046Y-23760585D01*
X284745898Y-23242947D01*
X284745898Y-23242947D01*
G37*
D12*
X276504569Y-26486480D03*
D10*
G36*
X261451575Y-29685314D02*
X261969213Y-31617166D01*
X260037361Y-32134804D01*
X259519723Y-30202952D01*
X261451575Y-29685314D01*
X261451575Y-29685314D01*
G37*
D12*
X253210246Y-32928847D03*
D10*
G36*
X296283519Y-40074134D02*
X296801157Y-42005986D01*
X294869305Y-42523624D01*
X294351667Y-40591772D01*
X296283519Y-40074134D01*
X296283519Y-40074134D01*
G37*
D12*
X288042190Y-43317667D03*
D10*
G36*
X266382078Y-48086201D02*
X266899716Y-50018053D01*
X264967864Y-50535691D01*
X264450226Y-48603839D01*
X266382078Y-48086201D01*
X266382078Y-48086201D01*
G37*
D12*
X258140749Y-51329734D03*
D10*
G36*
X271312581Y-66487088D02*
X271830219Y-68418940D01*
X269898367Y-68936578D01*
X269380729Y-67004726D01*
X271312581Y-66487088D01*
X271312581Y-66487088D01*
G37*
D12*
X263071252Y-69730621D03*
D10*
G36*
X296613800Y-59707646D02*
X297131438Y-61639498D01*
X295199586Y-62157136D01*
X294681948Y-60225284D01*
X296613800Y-59707646D01*
X296613800Y-59707646D01*
G37*
D12*
X288372471Y-62951179D03*
D10*
G36*
X322208234Y-52648967D02*
X322725872Y-54580819D01*
X320794020Y-55098457D01*
X320276382Y-53166605D01*
X322208234Y-52648967D01*
X322208234Y-52648967D01*
G37*
D12*
X313966905Y-55892500D03*
D13*
X21431250Y-90487500D03*
X283368750Y-90487500D03*
X92868750Y-123825000D03*
X211931250Y-123825000D03*
X9525000Y-28575000D03*
X295275000Y-28575000D03*
D14*
X135128000Y-25908000D03*
X135128000Y-17272000D03*
X166624000Y-26924000D03*
D11*
X246272494Y-20585078D02*
X245867070Y-22205118D01*
X251343657Y-18108813D02*
X251455319Y-18677963D01*
X52755122Y-19073628D02*
X51593994Y-20273912D01*
X58385009Y-19464700D02*
X58197137Y-20013430D01*
X72388635Y-19403909D02*
X71227507Y-20604193D01*
X78018522Y-19794981D02*
X77830650Y-20343711D01*
X92022146Y-19734190D02*
X90861018Y-20934474D01*
X97652033Y-20125262D02*
X97464161Y-20673992D01*
X109190409Y-29264913D02*
X108029281Y-30465197D01*
X114820296Y-29655985D02*
X114632424Y-30204715D01*
X126358670Y-38795639D02*
X125197542Y-39995923D01*
X131988557Y-39186711D02*
X131800685Y-39735441D01*
X172668946Y-40307089D02*
X172263522Y-41927129D01*
X177740109Y-37830824D02*
X177851771Y-38399974D01*
X189837206Y-30776366D02*
X189431782Y-32396406D01*
X194908369Y-28300101D02*
X195020031Y-28869251D01*
X207005469Y-21245641D02*
X206600045Y-22865681D01*
X212076632Y-18769376D02*
X212188294Y-19338526D01*
X226638981Y-20915360D02*
X226233557Y-22535400D01*
X231710144Y-18439095D02*
X231821806Y-19008245D01*
X42894115Y-55875401D02*
X41732987Y-57075685D01*
X48524002Y-56266473D02*
X48336130Y-56815203D01*
X89468398Y-102868461D02*
X88307270Y-104068745D01*
X95098285Y-103259533D02*
X94910413Y-103808263D01*
X111567161Y-93998300D02*
X110406033Y-95198584D01*
X117197048Y-94389372D02*
X117009176Y-94938102D01*
X273873825Y-13189326D02*
X273468401Y-14809366D01*
X278944988Y-10713061D02*
X279056650Y-11282211D01*
X77230638Y-74936850D02*
X76069510Y-76137134D01*
X82860525Y-75327922D02*
X82672653Y-75876652D01*
X256133500Y-57386853D02*
X255728076Y-59006893D01*
X261204663Y-54910588D02*
X261316325Y-55479738D01*
X221796976Y-76448302D02*
X221391552Y-78068342D01*
X226868139Y-73972037D02*
X226979801Y-74541187D01*
X52666623Y-93007456D02*
X51505495Y-94207740D01*
X58296510Y-93398528D02*
X58108638Y-93947258D01*
X82161141Y-56535964D02*
X81000013Y-57736248D01*
X87791028Y-56927036D02*
X87603156Y-57475766D01*
X15953348Y-9212622D02*
X14792220Y-10412906D01*
X21583235Y-9603694D02*
X21395363Y-10152424D01*
X226727479Y-94849190D02*
X226322055Y-96469230D01*
X231798642Y-92372925D02*
X231910304Y-92942075D01*
X87091644Y-38135076D02*
X85930516Y-39335360D01*
X92721531Y-38526148D02*
X92533659Y-39074878D01*
X179777368Y-113395634D02*
X178157328Y-112990210D01*
X182253633Y-118466797D02*
X181684483Y-118578459D01*
X286034941Y-49374785D02*
X285629517Y-50994825D01*
X291106104Y-46898520D02*
X291217766Y-47467670D01*
X34354234Y-14143125D02*
X33193106Y-15343409D01*
X39984121Y-14534197D02*
X39796249Y-15082927D01*
X99329403Y-66066689D02*
X98168275Y-67266973D01*
X104959290Y-66457761D02*
X104771418Y-67006491D01*
X116497663Y-75597413D02*
X115336535Y-76797697D01*
X122127550Y-75988485D02*
X121939678Y-76537215D01*
X182529952Y-77108864D02*
X182124528Y-78728904D01*
X187601115Y-74632599D02*
X187712777Y-75201749D01*
X211935971Y-39646529D02*
X211530547Y-41266569D01*
X217007134Y-37170264D02*
X217118796Y-37739414D01*
X199698213Y-67578139D02*
X199292789Y-69198179D01*
X204769376Y-65101874D02*
X204881038Y-65671024D01*
X216866473Y-58047415D02*
X216461049Y-59667455D01*
X221937636Y-55571150D02*
X222049298Y-56140300D01*
X236499987Y-57717134D02*
X236094563Y-59337174D01*
X241571150Y-55240869D02*
X241682812Y-55810019D01*
X138596428Y-66727251D02*
X137435300Y-67927535D01*
X144226315Y-67118323D02*
X144038443Y-67667053D01*
X209559218Y-104379914D02*
X209153794Y-105999954D01*
X214630381Y-101903649D02*
X214742043Y-102472799D01*
X33033111Y-92677176D02*
X31871983Y-93877460D01*
X38662998Y-93068248D02*
X38475126Y-93616978D01*
X106636659Y-112399187D02*
X105475531Y-113599471D01*
X112266546Y-112790259D02*
X112078674Y-113338989D01*
X204628715Y-85979027D02*
X204223291Y-87599067D01*
X209699878Y-83502762D02*
X209811540Y-84071912D01*
X187460455Y-95509751D02*
X187055031Y-97129791D01*
X192531618Y-93033486D02*
X192643280Y-93602636D01*
X12992674Y-47863334D02*
X11831546Y-49063618D01*
X18622561Y-48254406D02*
X18434689Y-48803136D01*
X231569484Y-39316248D02*
X231164060Y-40936288D01*
X236640647Y-36839983D02*
X236752309Y-37409133D01*
X251202997Y-38985966D02*
X250797573Y-40606006D01*
X256274160Y-36509701D02*
X256385822Y-37078851D01*
X241430490Y-76118021D02*
X241025066Y-77738061D01*
X246501653Y-73641756D02*
X246613315Y-74210906D01*
X133665925Y-85128137D02*
X132504797Y-86328421D01*
X139295812Y-85519209D02*
X139107940Y-86067939D01*
X165361689Y-86639589D02*
X164956265Y-88259629D01*
X170432852Y-84163324D02*
X170544514Y-84732474D01*
X274204106Y-32822837D02*
X273798682Y-34442877D01*
X279275269Y-30346572D02*
X279386931Y-30915722D01*
X47824619Y-37474515D02*
X46663491Y-38674799D01*
X53454506Y-37865587D02*
X53266634Y-38414317D01*
X104259905Y-47665801D02*
X103098777Y-48866085D01*
X109889792Y-48056873D02*
X109701920Y-48605603D01*
X192390956Y-113910638D02*
X191985532Y-115530678D01*
X197462119Y-111434373D02*
X197573781Y-112003523D01*
X160431187Y-68238702D02*
X160025763Y-69858742D01*
X165502350Y-65762437D02*
X165614012Y-66331587D01*
X265994504Y-94188627D02*
X265589080Y-95808667D01*
X271065667Y-91712362D02*
X271177329Y-92281512D01*
X286365222Y-69008298D02*
X285959798Y-70628338D01*
X291436385Y-66532033D02*
X291548047Y-67101183D01*
X62527628Y-56205683D02*
X61366500Y-57405967D01*
X68157515Y-56596755D02*
X67969643Y-57145485D01*
X261064001Y-75787739D02*
X260658577Y-77407779D01*
X266135164Y-73311474D02*
X266246826Y-73880624D01*
X123492248Y-119231541D02*
X124692532Y-120392669D01*
X123883320Y-113601654D02*
X124432050Y-113789526D01*
X121428167Y-57196526D02*
X120267039Y-58396810D01*
X127058054Y-57587598D02*
X126870182Y-58136328D01*
X24823511Y-31311385D02*
X23662383Y-32511669D01*
X30453398Y-31702457D02*
X30265526Y-32251187D01*
X194767710Y-49177252D02*
X194362286Y-50797292D01*
X199838873Y-46700987D02*
X199950535Y-47270137D01*
X246360993Y-94518908D02*
X245955569Y-96138948D01*
X251432156Y-92042643D02*
X251543818Y-92611793D01*
X94398901Y-84467574D02*
X93237773Y-85667858D01*
X100028788Y-84858646D02*
X99840916Y-85407376D01*
X67458131Y-37804795D02*
X66297003Y-39005079D01*
X73088018Y-38195867D02*
X72900146Y-38744597D01*
X72300135Y-93337738D02*
X71139007Y-94538022D01*
X77930022Y-93728810D02*
X77742150Y-94277540D01*
X57597125Y-74606569D02*
X56435997Y-75806853D01*
X63227012Y-74997641D02*
X63039140Y-75546371D01*
X177599449Y-58707977D02*
X177194025Y-60328017D01*
X182670612Y-56231712D02*
X182782274Y-56800862D01*
X37963614Y-74276289D02*
X36802486Y-75476573D01*
X43593501Y-74667361D02*
X43405629Y-75216091D01*
D15*
X144780000Y-19367500D03*
D16*
X144780000Y-21907500D03*
X144780000Y-24447500D03*
X144780000Y-26987500D03*
X144780000Y-29527500D03*
X144780000Y-32067500D03*
X144780000Y-34607500D03*
X144780000Y-37147500D03*
X144780000Y-39687500D03*
X144780000Y-42227500D03*
X144780000Y-44767500D03*
X144780000Y-47307500D03*
X160020000Y-47307500D03*
X160020000Y-44767500D03*
X160020000Y-42227500D03*
X160020000Y-39687500D03*
X160020000Y-37147500D03*
X160020000Y-34607500D03*
X160020000Y-32067500D03*
X160020000Y-29527500D03*
X160020000Y-26987500D03*
X160020000Y-24447500D03*
X160020000Y-21907500D03*
X160020000Y-19367500D03*
M02*
