G04 #@! TF.FileFunction,Paste,Bot*
%FSLAX46Y46*%
G04 Gerber Fmt 4.6, Leading zero omitted, Abs format (unit mm)*
G04 Created by KiCad (PCBNEW 4.0.7) date 09/07/18 17:38:58*
%MOMM*%
%LPD*%
G01*
G04 APERTURE LIST*
%ADD10C,0.100000*%
%ADD11R,1.700000X1.000000*%
G04 APERTURE END LIST*
D10*
G36*
X54326854Y-13814844D02*
X54016271Y-14973955D01*
X52857160Y-14663372D01*
X53167743Y-13504261D01*
X54326854Y-13814844D01*
X54326854Y-13814844D01*
G37*
G36*
X57369520Y-14630124D02*
X57058937Y-15789235D01*
X55899826Y-15478652D01*
X56210409Y-14319541D01*
X57369520Y-14630124D01*
X57369520Y-14630124D01*
G37*
G36*
X35925967Y-8884341D02*
X35615384Y-10043452D01*
X34456273Y-9732869D01*
X34766856Y-8573758D01*
X35925967Y-8884341D01*
X35925967Y-8884341D01*
G37*
G36*
X38968633Y-9699621D02*
X38658050Y-10858732D01*
X37498939Y-10548149D01*
X37809522Y-9389038D01*
X38968633Y-9699621D01*
X38968633Y-9699621D01*
G37*
G36*
X17525080Y-3953839D02*
X17214497Y-5112950D01*
X16055386Y-4802367D01*
X16365969Y-3643256D01*
X17525080Y-3953839D01*
X17525080Y-3953839D01*
G37*
G36*
X20567746Y-4769119D02*
X20257163Y-5928230D01*
X19098052Y-5617647D01*
X19408635Y-4458536D01*
X20567746Y-4769119D01*
X20567746Y-4769119D01*
G37*
G36*
X49396351Y-32215731D02*
X49085768Y-33374842D01*
X47926657Y-33064259D01*
X48237240Y-31905148D01*
X49396351Y-32215731D01*
X49396351Y-32215731D01*
G37*
G36*
X52439017Y-33031011D02*
X52128434Y-34190122D01*
X50969323Y-33879539D01*
X51279906Y-32720428D01*
X52439017Y-33031011D01*
X52439017Y-33031011D01*
G37*
G36*
X26395243Y-26052603D02*
X26084660Y-27211714D01*
X24925549Y-26901131D01*
X25236132Y-25742020D01*
X26395243Y-26052603D01*
X26395243Y-26052603D01*
G37*
G36*
X29437909Y-26867883D02*
X29127326Y-28026994D01*
X27968215Y-27716411D01*
X28278798Y-26557300D01*
X29437909Y-26867883D01*
X29437909Y-26867883D01*
G37*
G36*
X44465849Y-50616618D02*
X44155266Y-51775729D01*
X42996155Y-51465146D01*
X43306738Y-50306035D01*
X44465849Y-50616618D01*
X44465849Y-50616618D01*
G37*
G36*
X47508515Y-51431898D02*
X47197932Y-52591009D01*
X46038821Y-52280426D01*
X46349404Y-51121315D01*
X47508515Y-51431898D01*
X47508515Y-51431898D01*
G37*
G36*
X14564407Y-42604551D02*
X14253824Y-43763662D01*
X13094713Y-43453079D01*
X13405296Y-42293968D01*
X14564407Y-42604551D01*
X14564407Y-42604551D01*
G37*
G36*
X17607073Y-43419831D02*
X17296490Y-44578942D01*
X16137379Y-44268359D01*
X16447962Y-43109248D01*
X17607073Y-43419831D01*
X17607073Y-43419831D01*
G37*
G36*
X39535346Y-69017505D02*
X39224763Y-70176616D01*
X38065652Y-69866033D01*
X38376235Y-68706922D01*
X39535346Y-69017505D01*
X39535346Y-69017505D01*
G37*
G36*
X42578012Y-69832785D02*
X42267429Y-70991896D01*
X41108318Y-70681313D01*
X41418901Y-69522202D01*
X42578012Y-69832785D01*
X42578012Y-69832785D01*
G37*
G36*
X5033683Y-59772812D02*
X4723100Y-60931923D01*
X3563989Y-60621340D01*
X3874572Y-59462229D01*
X5033683Y-59772812D01*
X5033683Y-59772812D01*
G37*
G36*
X8076349Y-60588092D02*
X7765766Y-61747203D01*
X6606655Y-61436620D01*
X6917238Y-60277509D01*
X8076349Y-60588092D01*
X8076349Y-60588092D01*
G37*
G36*
X73960367Y-14145125D02*
X73649784Y-15304236D01*
X72490673Y-14993653D01*
X72801256Y-13834542D01*
X73960367Y-14145125D01*
X73960367Y-14145125D01*
G37*
G36*
X77003033Y-14960405D02*
X76692450Y-16119516D01*
X75533339Y-15808933D01*
X75843922Y-14649822D01*
X77003033Y-14960405D01*
X77003033Y-14960405D01*
G37*
G36*
X93593880Y-14475406D02*
X93283297Y-15634517D01*
X92124186Y-15323934D01*
X92434769Y-14164823D01*
X93593880Y-14475406D01*
X93593880Y-14475406D01*
G37*
G36*
X96636546Y-15290686D02*
X96325963Y-16449797D01*
X95166852Y-16139214D01*
X95477435Y-14980103D01*
X96636546Y-15290686D01*
X96636546Y-15290686D01*
G37*
G36*
X88663377Y-32876293D02*
X88352794Y-34035404D01*
X87193683Y-33724821D01*
X87504266Y-32565710D01*
X88663377Y-32876293D01*
X88663377Y-32876293D01*
G37*
G36*
X91706043Y-33691573D02*
X91395460Y-34850684D01*
X90236349Y-34540101D01*
X90546932Y-33380990D01*
X91706043Y-33691573D01*
X91706043Y-33691573D01*
G37*
G36*
X69029864Y-32546012D02*
X68719281Y-33705123D01*
X67560170Y-33394540D01*
X67870753Y-32235429D01*
X69029864Y-32546012D01*
X69029864Y-32546012D01*
G37*
G36*
X72072530Y-33361292D02*
X71761947Y-34520403D01*
X70602836Y-34209820D01*
X70913419Y-33050709D01*
X72072530Y-33361292D01*
X72072530Y-33361292D01*
G37*
G36*
X83732874Y-51277180D02*
X83422291Y-52436291D01*
X82263180Y-52125708D01*
X82573763Y-50966597D01*
X83732874Y-51277180D01*
X83732874Y-51277180D01*
G37*
G36*
X86775540Y-52092460D02*
X86464957Y-53251571D01*
X85305846Y-52940988D01*
X85616429Y-51781877D01*
X86775540Y-52092460D01*
X86775540Y-52092460D01*
G37*
G36*
X64099361Y-50946899D02*
X63788778Y-52106010D01*
X62629667Y-51795427D01*
X62940250Y-50636316D01*
X64099361Y-50946899D01*
X64099361Y-50946899D01*
G37*
G36*
X67142027Y-51762179D02*
X66831444Y-52921290D01*
X65672333Y-52610707D01*
X65982916Y-51451596D01*
X67142027Y-51762179D01*
X67142027Y-51762179D01*
G37*
G36*
X59168858Y-69347786D02*
X58858275Y-70506897D01*
X57699164Y-70196314D01*
X58009747Y-69037203D01*
X59168858Y-69347786D01*
X59168858Y-69347786D01*
G37*
G36*
X62211524Y-70163066D02*
X61900941Y-71322177D01*
X60741830Y-71011594D01*
X61052413Y-69852483D01*
X62211524Y-70163066D01*
X62211524Y-70163066D01*
G37*
G36*
X54238356Y-87748673D02*
X53927773Y-88907784D01*
X52768662Y-88597201D01*
X53079245Y-87438090D01*
X54238356Y-87748673D01*
X54238356Y-87748673D01*
G37*
G36*
X57281022Y-88563953D02*
X56970439Y-89723064D01*
X55811328Y-89412481D01*
X56121911Y-88253370D01*
X57281022Y-88563953D01*
X57281022Y-88563953D01*
G37*
G36*
X34604843Y-87418392D02*
X34294260Y-88577503D01*
X33135149Y-88266920D01*
X33445732Y-87107809D01*
X34604843Y-87418392D01*
X34604843Y-87418392D01*
G37*
G36*
X37647509Y-88233672D02*
X37336926Y-89392783D01*
X36177815Y-89082200D01*
X36488398Y-87923089D01*
X37647509Y-88233672D01*
X37647509Y-88233672D01*
G37*
G36*
X127930402Y-33536855D02*
X127619819Y-34695966D01*
X126460708Y-34385383D01*
X126771291Y-33226272D01*
X127930402Y-33536855D01*
X127930402Y-33536855D01*
G37*
G36*
X130973068Y-34352135D02*
X130662485Y-35511246D01*
X129503374Y-35200663D01*
X129813957Y-34041552D01*
X130973068Y-34352135D01*
X130973068Y-34352135D01*
G37*
G36*
X110762141Y-24006131D02*
X110451558Y-25165242D01*
X109292447Y-24854659D01*
X109603030Y-23695548D01*
X110762141Y-24006131D01*
X110762141Y-24006131D01*
G37*
G36*
X113804807Y-24821411D02*
X113494224Y-25980522D01*
X112335113Y-25669939D01*
X112645696Y-24510828D01*
X113804807Y-24821411D01*
X113804807Y-24821411D01*
G37*
G36*
X105831638Y-42407018D02*
X105521055Y-43566129D01*
X104361944Y-43255546D01*
X104672527Y-42096435D01*
X105831638Y-42407018D01*
X105831638Y-42407018D01*
G37*
G36*
X108874304Y-43222298D02*
X108563721Y-44381409D01*
X107404610Y-44070826D01*
X107715193Y-42911715D01*
X108874304Y-43222298D01*
X108874304Y-43222298D01*
G37*
G36*
X122999899Y-51937742D02*
X122689316Y-53096853D01*
X121530205Y-52786270D01*
X121840788Y-51627159D01*
X122999899Y-51937742D01*
X122999899Y-51937742D01*
G37*
G36*
X126042565Y-52753022D02*
X125731982Y-53912133D01*
X124572871Y-53601550D01*
X124883454Y-52442439D01*
X126042565Y-52753022D01*
X126042565Y-52753022D01*
G37*
G36*
X100901135Y-60807905D02*
X100590552Y-61967016D01*
X99431441Y-61656433D01*
X99742024Y-60497322D01*
X100901135Y-60807905D01*
X100901135Y-60807905D01*
G37*
G36*
X103943801Y-61623185D02*
X103633218Y-62782296D01*
X102474107Y-62471713D01*
X102784690Y-61312602D01*
X103943801Y-61623185D01*
X103943801Y-61623185D01*
G37*
G36*
X78802371Y-69678067D02*
X78491788Y-70837178D01*
X77332677Y-70526595D01*
X77643260Y-69367484D01*
X78802371Y-69678067D01*
X78802371Y-69678067D01*
G37*
G36*
X81845037Y-70493347D02*
X81534454Y-71652458D01*
X80375343Y-71341875D01*
X80685926Y-70182764D01*
X81845037Y-70493347D01*
X81845037Y-70493347D01*
G37*
G36*
X95970632Y-79208792D02*
X95660049Y-80367903D01*
X94500938Y-80057320D01*
X94811521Y-78898209D01*
X95970632Y-79208792D01*
X95970632Y-79208792D01*
G37*
G36*
X99013298Y-80024072D02*
X98702715Y-81183183D01*
X97543604Y-80872600D01*
X97854187Y-79713489D01*
X99013298Y-80024072D01*
X99013298Y-80024072D01*
G37*
G36*
X73871868Y-88078954D02*
X73561285Y-89238065D01*
X72402174Y-88927482D01*
X72712757Y-87768371D01*
X73871868Y-88078954D01*
X73871868Y-88078954D01*
G37*
G36*
X76914534Y-88894234D02*
X76603951Y-90053345D01*
X75444840Y-89742762D01*
X75755423Y-88583651D01*
X76914534Y-88894234D01*
X76914534Y-88894234D01*
G37*
G36*
X91040130Y-97609679D02*
X90729547Y-98768790D01*
X89570436Y-98458207D01*
X89881019Y-97299096D01*
X91040130Y-97609679D01*
X91040130Y-97609679D01*
G37*
G36*
X94082796Y-98424959D02*
X93772213Y-99584070D01*
X92613102Y-99273487D01*
X92923685Y-98114376D01*
X94082796Y-98424959D01*
X94082796Y-98424959D01*
G37*
G36*
X140168161Y-61468467D02*
X139857578Y-62627578D01*
X138698467Y-62316995D01*
X139009050Y-61157884D01*
X140168161Y-61468467D01*
X140168161Y-61468467D01*
G37*
G36*
X143210827Y-62283747D02*
X142900244Y-63442858D01*
X141741133Y-63132275D01*
X142051716Y-61973164D01*
X143210827Y-62283747D01*
X143210827Y-62283747D01*
G37*
G36*
X118069397Y-70338629D02*
X117758814Y-71497740D01*
X116599703Y-71187157D01*
X116910286Y-70028046D01*
X118069397Y-70338629D01*
X118069397Y-70338629D01*
G37*
G36*
X121112063Y-71153909D02*
X120801480Y-72313020D01*
X119642369Y-72002437D01*
X119952952Y-70843326D01*
X121112063Y-71153909D01*
X121112063Y-71153909D01*
G37*
G36*
X135237658Y-79869354D02*
X134927075Y-81028465D01*
X133767964Y-80717882D01*
X134078547Y-79558771D01*
X135237658Y-79869354D01*
X135237658Y-79869354D01*
G37*
G36*
X138280324Y-80684634D02*
X137969741Y-81843745D01*
X136810630Y-81533162D01*
X137121213Y-80374051D01*
X138280324Y-80684634D01*
X138280324Y-80684634D01*
G37*
G36*
X113138894Y-88739516D02*
X112828311Y-89898627D01*
X111669200Y-89588044D01*
X111979783Y-88428933D01*
X113138894Y-88739516D01*
X113138894Y-88739516D01*
G37*
G36*
X116181560Y-89554796D02*
X115870977Y-90713907D01*
X114711866Y-90403324D01*
X115022449Y-89244213D01*
X116181560Y-89554796D01*
X116181560Y-89554796D01*
G37*
G36*
X108208391Y-107140403D02*
X107897808Y-108299514D01*
X106738697Y-107988931D01*
X107049280Y-106829820D01*
X108208391Y-107140403D01*
X108208391Y-107140403D01*
G37*
G36*
X111251057Y-107955683D02*
X110940474Y-109114794D01*
X109781363Y-108804211D01*
X110091946Y-107645100D01*
X111251057Y-107955683D01*
X111251057Y-107955683D01*
G37*
G36*
X136421199Y-118619215D02*
X135262088Y-118308632D01*
X135572671Y-117149521D01*
X136731782Y-117460104D01*
X136421199Y-118619215D01*
X136421199Y-118619215D01*
G37*
G36*
X135605919Y-121661881D02*
X134446808Y-121351298D01*
X134757391Y-120192187D01*
X135916502Y-120502770D01*
X135605919Y-121661881D01*
X135605919Y-121661881D01*
G37*
G36*
X164955235Y-62649159D02*
X164644652Y-61490048D01*
X165803763Y-61179465D01*
X166114346Y-62338576D01*
X164955235Y-62649159D01*
X164955235Y-62649159D01*
G37*
G36*
X161912569Y-63464439D02*
X161601986Y-62305328D01*
X162761097Y-61994745D01*
X163071680Y-63153856D01*
X161912569Y-63464439D01*
X161912569Y-63464439D01*
G37*
G36*
X187054000Y-71519322D02*
X186743417Y-70360211D01*
X187902528Y-70049628D01*
X188213111Y-71208739D01*
X187054000Y-71519322D01*
X187054000Y-71519322D01*
G37*
G36*
X184011334Y-72334602D02*
X183700751Y-71175491D01*
X184859862Y-70864908D01*
X185170445Y-72024019D01*
X184011334Y-72334602D01*
X184011334Y-72334602D01*
G37*
G36*
X169885738Y-81050046D02*
X169575155Y-79890935D01*
X170734266Y-79580352D01*
X171044849Y-80739463D01*
X169885738Y-81050046D01*
X169885738Y-81050046D01*
G37*
G36*
X166843072Y-81865326D02*
X166532489Y-80706215D01*
X167691600Y-80395632D01*
X168002183Y-81554743D01*
X166843072Y-81865326D01*
X166843072Y-81865326D01*
G37*
G36*
X191984502Y-89920209D02*
X191673919Y-88761098D01*
X192833030Y-88450515D01*
X193143613Y-89609626D01*
X191984502Y-89920209D01*
X191984502Y-89920209D01*
G37*
G36*
X188941836Y-90735489D02*
X188631253Y-89576378D01*
X189790364Y-89265795D01*
X190100947Y-90424906D01*
X188941836Y-90735489D01*
X188941836Y-90735489D01*
G37*
G36*
X196915005Y-108321096D02*
X196604422Y-107161985D01*
X197763533Y-106851402D01*
X198074116Y-108010513D01*
X196915005Y-108321096D01*
X196915005Y-108321096D01*
G37*
G36*
X193872339Y-109136376D02*
X193561756Y-107977265D01*
X194720867Y-107666682D01*
X195031450Y-108825793D01*
X193872339Y-109136376D01*
X193872339Y-109136376D01*
G37*
G36*
X169569643Y-118211475D02*
X168410532Y-118522058D01*
X168099949Y-117362947D01*
X169259060Y-117052364D01*
X169569643Y-118211475D01*
X169569643Y-118211475D01*
G37*
G36*
X170384923Y-121254141D02*
X169225812Y-121564724D01*
X168915229Y-120405613D01*
X170074340Y-120095030D01*
X170384923Y-121254141D01*
X170384923Y-121254141D01*
G37*
G36*
X177192994Y-34717548D02*
X176882411Y-33558437D01*
X178041522Y-33247854D01*
X178352105Y-34406965D01*
X177192994Y-34717548D01*
X177192994Y-34717548D01*
G37*
G36*
X174150328Y-35532828D02*
X173839745Y-34373717D01*
X174998856Y-34063134D01*
X175309439Y-35222245D01*
X174150328Y-35532828D01*
X174150328Y-35532828D01*
G37*
G36*
X194361255Y-25186823D02*
X194050672Y-24027712D01*
X195209783Y-23717129D01*
X195520366Y-24876240D01*
X194361255Y-25186823D01*
X194361255Y-25186823D01*
G37*
G36*
X191318589Y-26002103D02*
X191008006Y-24842992D01*
X192167117Y-24532409D01*
X192477700Y-25691520D01*
X191318589Y-26002103D01*
X191318589Y-26002103D01*
G37*
G36*
X199291758Y-43587710D02*
X198981175Y-42428599D01*
X200140286Y-42118016D01*
X200450869Y-43277127D01*
X199291758Y-43587710D01*
X199291758Y-43587710D01*
G37*
G36*
X196249092Y-44402990D02*
X195938509Y-43243879D01*
X197097620Y-42933296D01*
X197408203Y-44092407D01*
X196249092Y-44402990D01*
X196249092Y-44402990D01*
G37*
G36*
X182123497Y-53118435D02*
X181812914Y-51959324D01*
X182972025Y-51648741D01*
X183282608Y-52807852D01*
X182123497Y-53118435D01*
X182123497Y-53118435D01*
G37*
G36*
X179080831Y-53933715D02*
X178770248Y-52774604D01*
X179929359Y-52464021D01*
X180239942Y-53623132D01*
X179080831Y-53933715D01*
X179080831Y-53933715D01*
G37*
G36*
X204222261Y-61988597D02*
X203911678Y-60829486D01*
X205070789Y-60518903D01*
X205381372Y-61678014D01*
X204222261Y-61988597D01*
X204222261Y-61988597D01*
G37*
G36*
X201179595Y-62803877D02*
X200869012Y-61644766D01*
X202028123Y-61334183D01*
X202338706Y-62493294D01*
X201179595Y-62803877D01*
X201179595Y-62803877D01*
G37*
G36*
X226321025Y-70858760D02*
X226010442Y-69699649D01*
X227169553Y-69389066D01*
X227480136Y-70548177D01*
X226321025Y-70858760D01*
X226321025Y-70858760D01*
G37*
G36*
X223278359Y-71674040D02*
X222967776Y-70514929D01*
X224126887Y-70204346D01*
X224437470Y-71363457D01*
X223278359Y-71674040D01*
X223278359Y-71674040D01*
G37*
G36*
X209152764Y-80389484D02*
X208842181Y-79230373D01*
X210001292Y-78919790D01*
X210311875Y-80078901D01*
X209152764Y-80389484D01*
X209152764Y-80389484D01*
G37*
G36*
X206110098Y-81204764D02*
X205799515Y-80045653D01*
X206958626Y-79735070D01*
X207269209Y-80894181D01*
X206110098Y-81204764D01*
X206110098Y-81204764D01*
G37*
G36*
X231251528Y-89259647D02*
X230940945Y-88100536D01*
X232100056Y-87789953D01*
X232410639Y-88949064D01*
X231251528Y-89259647D01*
X231251528Y-89259647D01*
G37*
G36*
X228208862Y-90074927D02*
X227898279Y-88915816D01*
X229057390Y-88605233D01*
X229367973Y-89764344D01*
X228208862Y-90074927D01*
X228208862Y-90074927D01*
G37*
G36*
X214083266Y-98790371D02*
X213772683Y-97631260D01*
X214931794Y-97320677D01*
X215242377Y-98479788D01*
X214083266Y-98790371D01*
X214083266Y-98790371D01*
G37*
G36*
X211040600Y-99605651D02*
X210730017Y-98446540D01*
X211889128Y-98135957D01*
X212199711Y-99295068D01*
X211040600Y-99605651D01*
X211040600Y-99605651D01*
G37*
G36*
X231163029Y-15325818D02*
X230852446Y-14166707D01*
X232011557Y-13856124D01*
X232322140Y-15015235D01*
X231163029Y-15325818D01*
X231163029Y-15325818D01*
G37*
G36*
X228120363Y-16141098D02*
X227809780Y-14981987D01*
X228968891Y-14671404D01*
X229279474Y-15830515D01*
X228120363Y-16141098D01*
X228120363Y-16141098D01*
G37*
G36*
X211529517Y-15656099D02*
X211218934Y-14496988D01*
X212378045Y-14186405D01*
X212688628Y-15345516D01*
X211529517Y-15656099D01*
X211529517Y-15656099D01*
G37*
G36*
X208486851Y-16471379D02*
X208176268Y-15312268D01*
X209335379Y-15001685D01*
X209645962Y-16160796D01*
X208486851Y-16471379D01*
X208486851Y-16471379D01*
G37*
G36*
X216460019Y-34056986D02*
X216149436Y-32897875D01*
X217308547Y-32587292D01*
X217619130Y-33746403D01*
X216460019Y-34056986D01*
X216460019Y-34056986D01*
G37*
G36*
X213417353Y-34872266D02*
X213106770Y-33713155D01*
X214265881Y-33402572D01*
X214576464Y-34561683D01*
X213417353Y-34872266D01*
X213417353Y-34872266D01*
G37*
G36*
X236093532Y-33726705D02*
X235782949Y-32567594D01*
X236942060Y-32257011D01*
X237252643Y-33416122D01*
X236093532Y-33726705D01*
X236093532Y-33726705D01*
G37*
G36*
X233050866Y-34541985D02*
X232740283Y-33382874D01*
X233899394Y-33072291D01*
X234209977Y-34231402D01*
X233050866Y-34541985D01*
X233050866Y-34541985D01*
G37*
G36*
X221390522Y-52457873D02*
X221079939Y-51298762D01*
X222239050Y-50988179D01*
X222549633Y-52147290D01*
X221390522Y-52457873D01*
X221390522Y-52457873D01*
G37*
G36*
X218347856Y-53273153D02*
X218037273Y-52114042D01*
X219196384Y-51803459D01*
X219506967Y-52962570D01*
X218347856Y-53273153D01*
X218347856Y-53273153D01*
G37*
G36*
X241024035Y-52127592D02*
X240713452Y-50968481D01*
X241872563Y-50657898D01*
X242183146Y-51817009D01*
X241024035Y-52127592D01*
X241024035Y-52127592D01*
G37*
G36*
X237981369Y-52942872D02*
X237670786Y-51783761D01*
X238829897Y-51473178D01*
X239140480Y-52632289D01*
X237981369Y-52942872D01*
X237981369Y-52942872D01*
G37*
G36*
X245954538Y-70528479D02*
X245643955Y-69369368D01*
X246803066Y-69058785D01*
X247113649Y-70217896D01*
X245954538Y-70528479D01*
X245954538Y-70528479D01*
G37*
G36*
X242911872Y-71343759D02*
X242601289Y-70184648D01*
X243760400Y-69874065D01*
X244070983Y-71033176D01*
X242911872Y-71343759D01*
X242911872Y-71343759D01*
G37*
G36*
X250885040Y-88929366D02*
X250574457Y-87770255D01*
X251733568Y-87459672D01*
X252044151Y-88618783D01*
X250885040Y-88929366D01*
X250885040Y-88929366D01*
G37*
G36*
X247842374Y-89744646D02*
X247531791Y-88585535D01*
X248690902Y-88274952D01*
X249001485Y-89434063D01*
X247842374Y-89744646D01*
X247842374Y-89744646D01*
G37*
G36*
X270518553Y-88599085D02*
X270207970Y-87439974D01*
X271367081Y-87129391D01*
X271677664Y-88288502D01*
X270518553Y-88599085D01*
X270518553Y-88599085D01*
G37*
G36*
X267475887Y-89414365D02*
X267165304Y-88255254D01*
X268324415Y-87944671D01*
X268634998Y-89103782D01*
X267475887Y-89414365D01*
X267475887Y-89414365D01*
G37*
G36*
X250796542Y-14995537D02*
X250485959Y-13836426D01*
X251645070Y-13525843D01*
X251955653Y-14684954D01*
X250796542Y-14995537D01*
X250796542Y-14995537D01*
G37*
G36*
X247753876Y-15810817D02*
X247443293Y-14651706D01*
X248602404Y-14341123D01*
X248912987Y-15500234D01*
X247753876Y-15810817D01*
X247753876Y-15810817D01*
G37*
G36*
X278397872Y-7599782D02*
X278087289Y-6440671D01*
X279246400Y-6130088D01*
X279556983Y-7289199D01*
X278397872Y-7599782D01*
X278397872Y-7599782D01*
G37*
G36*
X275355206Y-8415062D02*
X275044623Y-7255951D01*
X276203734Y-6945368D01*
X276514317Y-8104479D01*
X275355206Y-8415062D01*
X275355206Y-8415062D01*
G37*
G36*
X278728153Y-27233295D02*
X278417570Y-26074184D01*
X279576681Y-25763601D01*
X279887264Y-26922712D01*
X278728153Y-27233295D01*
X278728153Y-27233295D01*
G37*
G36*
X275685487Y-28048575D02*
X275374904Y-26889464D01*
X276534015Y-26578881D01*
X276844598Y-27737992D01*
X275685487Y-28048575D01*
X275685487Y-28048575D01*
G37*
G36*
X255727045Y-33396424D02*
X255416462Y-32237313D01*
X256575573Y-31926730D01*
X256886156Y-33085841D01*
X255727045Y-33396424D01*
X255727045Y-33396424D01*
G37*
G36*
X252684379Y-34211704D02*
X252373796Y-33052593D01*
X253532907Y-32742010D01*
X253843490Y-33901121D01*
X252684379Y-34211704D01*
X252684379Y-34211704D01*
G37*
G36*
X290558989Y-43785244D02*
X290248406Y-42626133D01*
X291407517Y-42315550D01*
X291718100Y-43474661D01*
X290558989Y-43785244D01*
X290558989Y-43785244D01*
G37*
G36*
X287516323Y-44600524D02*
X287205740Y-43441413D01*
X288364851Y-43130830D01*
X288675434Y-44289941D01*
X287516323Y-44600524D01*
X287516323Y-44600524D01*
G37*
G36*
X260657548Y-51797311D02*
X260346965Y-50638200D01*
X261506076Y-50327617D01*
X261816659Y-51486728D01*
X260657548Y-51797311D01*
X260657548Y-51797311D01*
G37*
G36*
X257614882Y-52612591D02*
X257304299Y-51453480D01*
X258463410Y-51142897D01*
X258773993Y-52302008D01*
X257614882Y-52612591D01*
X257614882Y-52612591D01*
G37*
G36*
X265588050Y-70198198D02*
X265277467Y-69039087D01*
X266436578Y-68728504D01*
X266747161Y-69887615D01*
X265588050Y-70198198D01*
X265588050Y-70198198D01*
G37*
G36*
X262545384Y-71013478D02*
X262234801Y-69854367D01*
X263393912Y-69543784D01*
X263704495Y-70702895D01*
X262545384Y-71013478D01*
X262545384Y-71013478D01*
G37*
G36*
X290889270Y-63418756D02*
X290578687Y-62259645D01*
X291737798Y-61949062D01*
X292048381Y-63108173D01*
X290889270Y-63418756D01*
X290889270Y-63418756D01*
G37*
G36*
X287846604Y-64234036D02*
X287536021Y-63074925D01*
X288695132Y-62764342D01*
X289005715Y-63923453D01*
X287846604Y-64234036D01*
X287846604Y-64234036D01*
G37*
G36*
X316190490Y-56639315D02*
X315879907Y-55480204D01*
X317039018Y-55169621D01*
X317349601Y-56328732D01*
X316190490Y-56639315D01*
X316190490Y-56639315D01*
G37*
G36*
X313147824Y-57454595D02*
X312837241Y-56295484D01*
X313996352Y-55984901D01*
X314306935Y-57144012D01*
X313147824Y-57454595D01*
X313147824Y-57454595D01*
G37*
D11*
X168300000Y-23331250D03*
X174600000Y-23331250D03*
X168300000Y-19531250D03*
X174600000Y-19531250D03*
M02*
