M48
INCH,TZ
T1C0.016
T2C0.028
T3C0.035
T4C0.043
T5C0.059
T6C0.110
%
G90
G05
T1
X6.Y-2.66
X6.04Y-4.86
X6.08Y-4.02
X6.12Y-3.78
X6.16Y-3.26
T2
X0.3505Y-2.3983
X0.6471Y-2.4777
X0.7257Y-1.7223
X0.8423Y-0.2007
X1.0223Y-1.8018
X1.1389Y-0.2801
X1.1915Y-1.0707
X1.4881Y-1.1502
X1.5147Y-3.4867
X1.5667Y-0.3948
X1.7088Y-2.7622
X1.8113Y-3.5662
X1.8633Y-0.4743
X1.9029Y-2.0378
X2.0054Y-2.8417
X2.097Y-1.3133
X2.1996Y-2.1173
X2.2877Y-3.4997
X2.2912Y-0.5889
X2.3937Y-1.3928
X2.4818Y-2.7752
X2.5843Y-3.5792
X2.5878Y-0.6684
X2.6759Y-2.0508
X2.7784Y-2.8547
X2.87Y-1.3263
X2.9725Y-2.1303
X3.0607Y-3.5127
X3.0641Y-0.6019
X3.1666Y-1.4058
X3.2548Y-2.7882
X3.3573Y-3.5922
X3.3608Y-0.6814
X3.4489Y-2.0638
X3.5514Y-2.8677
X3.643Y-1.3393
X3.7366Y-3.8879
X3.7455Y-2.1433
X3.8371Y-0.6149
X3.9307Y-3.1635
X3.9396Y-1.4188
X4.0332Y-3.9674
X4.1248Y-2.439
X4.1337Y-0.6944
X4.2273Y-3.2429
X4.3189Y-1.7146
X4.4125Y-4.2631
X4.4214Y-2.5185
X4.513Y-0.9901
X4.6066Y-3.5387
X4.6155Y-1.7941
X4.7091Y-4.3426
X4.8007Y-2.8142
X4.8096Y-1.0696
X4.9032Y-3.6182
X4.9948Y-2.0898
X5.0973Y-2.8937
X5.1889Y-1.3654
X5.2914Y-2.1693
X5.3671Y-4.8662
X5.4465Y-4.5696
X5.4656Y-3.1807
X5.4856Y-1.4448
X5.6597Y-2.4563
X5.7622Y-3.2602
X5.9563Y-2.5358
X6.3952Y-2.4481
X6.5543Y-4.568
X6.5893Y-3.1725
X6.6338Y-4.8646
X6.6918Y-2.3686
X6.877Y-1.3484
X6.886Y-3.0931
X7.0711Y-2.0729
X7.1736Y-1.2689
X7.2652Y-2.7973
X7.3678Y-1.9934
X7.4594Y-3.5218
X7.5529Y-0.9732
X7.5619Y-2.7178
X7.6535Y-4.2462
X7.747Y-1.6976
X7.756Y-3.4423
X7.8496Y-0.8937
X7.9412Y-2.4221
X7.9501Y-4.1667
X8.0437Y-1.6182
X8.1353Y-3.1465
X8.2288Y-0.598
X8.2378Y-2.3426
X8.3294Y-3.871
X8.423Y-1.3224
X8.4319Y-3.0671
X8.5255Y-0.5185
X8.6171Y-2.0469
X8.626Y-3.7915
X8.7196Y-1.2429
X8.8112Y-2.7713
X8.9137Y-1.9674
X9.0018Y-0.585
X9.0053Y-3.4958
X9.1078Y-2.6918
X9.1959Y-1.3094
X9.2984Y-0.5055
X9.3019Y-3.4163
X9.39Y-2.0339
X9.4926Y-1.2299
X9.5842Y-2.7583
X9.6867Y-1.9544
X9.7748Y-0.572
X9.7783Y-3.4827
X9.8808Y-2.6788
X9.9689Y-1.2964
X10.0714Y-0.4925
X10.0749Y-3.4033
X10.163Y-2.0209
X10.2655Y-1.2169
X10.3571Y-2.7453
X10.4596Y-1.9414
X10.5513Y-3.4697
X10.6538Y-2.6658
X10.8479Y-3.3903
X10.8615Y-0.2808
X10.886Y-1.0428
X11.1581Y-0.2013
X11.1826Y-0.9633
X11.3402Y-1.7054
X11.3532Y-2.4784
X11.6369Y-1.6259
X11.6499Y-2.3989
X12.3609Y-2.2005
X12.6575Y-2.121
T3
X5.32Y-0.68
X5.32Y-1.02
X6.56Y-1.06
T4
X5.7Y-0.7625
X5.7Y-0.8625
X5.7Y-0.9625
X5.7Y-1.0625
X5.7Y-1.1625
X5.7Y-1.2625
X5.7Y-1.3625
X5.7Y-1.4625
X5.7Y-1.5625
X5.7Y-1.6625
X5.7Y-1.7625
X5.7Y-1.8625
X6.3Y-0.7625
X6.3Y-0.8625
X6.3Y-0.9625
X6.3Y-1.0625
X6.3Y-1.1625
X6.3Y-1.2625
X6.3Y-1.3625
X6.3Y-1.4625
X6.3Y-1.5625
X6.3Y-1.6625
X6.3Y-1.7625
X6.3Y-1.8625
T6
X0.375Y-1.125
X0.8438Y-3.5625
X3.6562Y-4.875
X8.3438Y-4.875
X11.1562Y-3.5625
X11.625Y-1.125
T5
X0.1363Y-2.5603G85X0.0906Y-2.6076
G05
X0.3579Y-2.5757G85X0.3505Y-2.5973
G05
X0.5115Y-1.8844G85X0.4658Y-1.9316
G05
X0.6281Y-0.3627G85X0.5824Y-0.41
G05
X0.7332Y-1.8998G85X0.7258Y-1.9214
G05
X0.8497Y-0.3781G85X0.8423Y-0.3997
G05
X0.9773Y-1.2327G85X0.9316Y-1.28
G05
X1.199Y-1.2481G85X1.1916Y-1.2697
G05
X1.3005Y-3.6487G85X1.2548Y-3.696
G05
X1.3525Y-0.5568G85X1.3068Y-0.6041
G05
X1.4946Y-2.9243G85X1.4489Y-2.9715
G05
X1.5222Y-3.6641G85X1.5148Y-3.6857
G05
X1.5742Y-0.5722G85X1.5668Y-0.5938
G05
X1.6887Y-2.1998G85X1.643Y-2.2471
G05
X1.7163Y-2.9397G85X1.7089Y-2.9613
G05
X1.8829Y-1.4754G85X1.8371Y-1.5226
G05
X1.9104Y-2.2152G85X1.903Y-2.2368
G05
X2.0735Y-3.6617G85X2.0278Y-3.709
G05
X2.077Y-0.7509G85X2.0313Y-0.7982
G05
X2.1045Y-1.4908G85X2.0971Y-1.5124
G05
X2.2676Y-2.9373G85X2.2219Y-2.9845
G05
X2.2951Y-3.6771G85X2.2877Y-3.6987
G05
X2.2986Y-0.7663G85X2.2912Y-0.7879
G05
X2.4617Y-2.2128G85X2.416Y-2.2601
G05
X2.4893Y-2.9527G85X2.4819Y-2.9743
G05
X2.6558Y-1.4884G85X2.6101Y-1.5356
G05
X2.6834Y-2.2282G85X2.676Y-2.2498
G05
X2.8465Y-3.6747G85X2.8007Y-3.722
G05
X2.8499Y-0.7639G85X2.8042Y-0.8112
G05
X2.8775Y-1.5038G85X2.8701Y-1.5254
G05
X3.0406Y-2.9503G85X2.9949Y-2.9975
G05
X3.0681Y-3.6901G85X3.0607Y-3.7117
G05
X3.0716Y-0.7793G85X3.0642Y-0.8009
G05
X3.2347Y-2.2258G85X3.189Y-2.2731
G05
X3.2622Y-2.9657G85X3.2548Y-2.9873
G05
X3.4288Y-1.5014G85X3.3831Y-1.5486
G05
X3.4563Y-2.2412G85X3.4489Y-2.2628
G05
X3.5224Y-4.0499G85X3.4767Y-4.0972
G05
X3.6229Y-0.7769G85X3.5772Y-0.8242
G05
X3.6505Y-1.5168G85X3.6431Y-1.5384
G05
X3.7165Y-3.3255G85X3.6708Y-3.3728
G05
X3.744Y-4.0653G85X3.7366Y-4.0869
G05
X3.8446Y-0.7923G85X3.8372Y-0.8139
G05
X3.9106Y-2.6011G85X3.8649Y-2.6483
G05
X3.9381Y-3.3409G85X3.9307Y-3.3625
G05
X4.1047Y-1.8766G85X4.059Y-1.9239
G05
X4.1323Y-2.6164G85X4.1249Y-2.6381
G05
X4.1983Y-4.4252G85X4.1526Y-4.4724
G05
X4.2988Y-1.1522G85X4.2531Y-1.1994
G05
X4.3264Y-1.892G85X4.319Y-1.9136
G05
X4.3924Y-3.7007G85X4.3467Y-3.748
G05
X4.4199Y-4.4406G85X4.4125Y-4.4622
G05
X4.5205Y-1.1676G85X4.5131Y-1.1892
G05
X4.5865Y-2.9763G85X4.5408Y-3.0235
G05
X4.6141Y-3.7161G85X4.6067Y-3.7377
G05
X4.7806Y-2.2518G85X4.7349Y-2.2991
G05
X4.8082Y-2.9917G85X4.8008Y-3.0133
G05
X4.8619Y-4.6942G85X4.9092Y-4.7399
G05
X4.8773Y-4.4725G85X4.8989Y-4.4799
G05
X4.9748Y-1.5274G85X4.929Y-1.5746
G05
X5.0023Y-2.2672G85X4.9949Y-2.2888
G05
X5.1964Y-1.5428G85X5.189Y-1.5644
G05
X5.2624Y-3.3515G85X5.2167Y-3.3988
G05
X5.4566Y-2.6271G85X5.4108Y-2.6743
G05
X5.4841Y-3.3669G85X5.4767Y-3.3885
G05
X5.6782Y-2.6425G85X5.6708Y-2.6641
G05
X6.3162Y-2.6866G85X6.3002Y-2.7503
G05
X6.5103Y-3.411G85X6.4943Y-3.4748
G05
X6.5158Y-2.5891G85X6.5202Y-2.6115
G05
X6.71Y-3.3135G85X6.7144Y-3.3359
G05
X6.798Y-1.5869G85X6.782Y-1.6507
G05
X6.9921Y-2.3113G85X6.9761Y-2.3751
G05
X6.9976Y-1.4894G85X7.002Y-1.5118
G05
X7.0778Y-4.4644G85X7.0141Y-4.4484
G05
X7.1753Y-4.664G85X7.1529Y-4.6684
G05
X7.1862Y-3.0358G85X7.1703Y-3.0996
G05
X7.1918Y-2.2138G85X7.1962Y-2.2363
G05
X7.3803Y-3.7602G85X7.3644Y-3.824
G05
X7.3859Y-2.9383G85X7.3903Y-2.9607
G05
X7.4739Y-1.2117G85X7.4579Y-1.2754
G05
X7.5744Y-4.4847G85X7.5585Y-4.5485
G05
X7.58Y-3.6627G85X7.5844Y-3.6851
G05
X7.668Y-1.9361G85X7.6521Y-1.9999
G05
X7.6736Y-1.1142G85X7.678Y-1.1366
G05
X7.7741Y-4.3872G85X7.7785Y-4.4096
G05
X7.8621Y-2.6606G85X7.8462Y-2.7243
G05
X7.8677Y-1.8386G85X7.8721Y-1.861
G05
X8.0562Y-3.385G85X8.0403Y-3.4488
G05
X8.0618Y-2.5631G85X8.0662Y-2.5855
G05
X8.1498Y-0.8364G85X8.1339Y-0.9002
G05
X8.2504Y-4.1094G85X8.2344Y-4.1732
G05
X8.2559Y-3.2875G85X8.2603Y-3.3099
G05
X8.3439Y-1.5609G85X8.328Y-1.6247
G05
X8.3495Y-0.739G85X8.3539Y-0.7614
G05
X8.45Y-4.012G85X8.4544Y-4.0344
G05
X8.5381Y-2.2853G85X8.5221Y-2.3491
G05
X8.5436Y-1.4634G85X8.548Y-1.4858
G05
X8.7322Y-3.0098G85X8.7162Y-3.0736
G05
X8.7377Y-2.1878G85X8.7421Y-2.2102
G05
X8.9228Y-0.8234G85X8.9068Y-0.8872
G05
X8.9263Y-3.7342G85X8.9103Y-3.798
G05
X8.9318Y-2.9123G85X8.9362Y-2.9347
G05
X9.1169Y-1.5479G85X9.1009Y-1.6117
G05
X9.1224Y-0.7259G85X9.1268Y-0.7484
G05
X9.1259Y-3.6367G85X9.1303Y-3.6591
G05
X9.311Y-2.2723G85X9.2951Y-2.3361
G05
X9.3166Y-1.4504G85X9.321Y-1.4728
G05
X9.5051Y-2.9968G85X9.4892Y-3.0606
G05
X9.5107Y-2.1748G85X9.5151Y-2.1972
G05
X9.6958Y-0.8104G85X9.6798Y-0.8742
G05
X9.6993Y-3.7212G85X9.6833Y-3.785
G05
X9.7048Y-2.8993G85X9.7092Y-2.9217
G05
X9.8899Y-1.5349G85X9.8739Y-1.5987
G05
X9.8954Y-0.7129G85X9.8998Y-0.7354
G05
X9.8989Y-3.6237G85X9.9033Y-3.6461
G05
X10.084Y-2.2593G85X10.068Y-2.3231
G05
X10.0895Y-1.4374G85X10.0939Y-1.4598
G05
X10.2781Y-2.9838G85X10.2621Y-3.0476
G05
X10.2836Y-2.1618G85X10.288Y-2.1842
G05
X10.4722Y-3.7082G85X10.4563Y-3.772
G05
X10.4778Y-2.8863G85X10.4822Y-2.9087
G05
X10.6719Y-3.6107G85X10.6763Y-3.6331
G05
X10.7824Y-0.5193G85X10.7665Y-0.583
G05
X10.7954Y-1.2922G85X10.7795Y-1.356
G05
X10.9821Y-0.4218G85X10.9865Y-0.4442
G05
X10.9951Y-1.1947G85X10.9995Y-1.2172
G05
X11.2612Y-1.9439G85X11.2453Y-2.0077
G05
X11.2742Y-2.7169G85X11.2583Y-2.7806
G05
X11.4609Y-1.8464G85X11.4653Y-1.8688
G05
X11.4739Y-2.6194G85X11.4783Y-2.6418
G05
X12.2703Y-2.45G85X12.2544Y-2.5137
G05
X12.47Y-2.3525G85X12.4744Y-2.3749
G05
T0
M30
