G04 #@! TF.FileFunction,Paste,Bot*
%FSLAX46Y46*%
G04 Gerber Fmt 4.6, Leading zero omitted, Abs format (unit mm)*
G04 Created by KiCad (PCBNEW 4.0.7) date 09/07/18 12:57:52*
%MOMM*%
%LPD*%
G01*
G04 APERTURE LIST*
%ADD10C,0.100000*%
%ADD11R,1.700000X1.000000*%
G04 APERTURE END LIST*
D10*
G36*
X61176158Y-15135441D02*
X60865575Y-16294552D01*
X59706464Y-15983969D01*
X60017047Y-14824858D01*
X61176158Y-15135441D01*
X61176158Y-15135441D01*
G37*
G36*
X64218824Y-15950721D02*
X63908241Y-17109832D01*
X62749130Y-16799249D01*
X63059713Y-15640138D01*
X64218824Y-15950721D01*
X64218824Y-15950721D01*
G37*
G36*
X42775271Y-10204938D02*
X42464688Y-11364049D01*
X41305577Y-11053466D01*
X41616160Y-9894355D01*
X42775271Y-10204938D01*
X42775271Y-10204938D01*
G37*
G36*
X45817937Y-11020218D02*
X45507354Y-12179329D01*
X44348243Y-11868746D01*
X44658826Y-10709635D01*
X45817937Y-11020218D01*
X45817937Y-11020218D01*
G37*
G36*
X24374384Y-5274436D02*
X24063801Y-6433547D01*
X22904690Y-6122964D01*
X23215273Y-4963853D01*
X24374384Y-5274436D01*
X24374384Y-5274436D01*
G37*
G36*
X27417050Y-6089716D02*
X27106467Y-7248827D01*
X25947356Y-6938244D01*
X26257939Y-5779133D01*
X27417050Y-6089716D01*
X27417050Y-6089716D01*
G37*
G36*
X56245655Y-33536328D02*
X55935072Y-34695439D01*
X54775961Y-34384856D01*
X55086544Y-33225745D01*
X56245655Y-33536328D01*
X56245655Y-33536328D01*
G37*
G36*
X59288321Y-34351608D02*
X58977738Y-35510719D01*
X57818627Y-35200136D01*
X58129210Y-34041025D01*
X59288321Y-34351608D01*
X59288321Y-34351608D01*
G37*
G36*
X33244546Y-27373200D02*
X32933963Y-28532311D01*
X31774852Y-28221728D01*
X32085435Y-27062617D01*
X33244546Y-27373200D01*
X33244546Y-27373200D01*
G37*
G36*
X36287212Y-28188480D02*
X35976629Y-29347591D01*
X34817518Y-29037008D01*
X35128101Y-27877897D01*
X36287212Y-28188480D01*
X36287212Y-28188480D01*
G37*
G36*
X51315152Y-51937215D02*
X51004569Y-53096326D01*
X49845458Y-52785743D01*
X50156041Y-51626632D01*
X51315152Y-51937215D01*
X51315152Y-51937215D01*
G37*
G36*
X54357818Y-52752495D02*
X54047235Y-53911606D01*
X52888124Y-53601023D01*
X53198707Y-52441912D01*
X54357818Y-52752495D01*
X54357818Y-52752495D01*
G37*
G36*
X21413711Y-43925148D02*
X21103128Y-45084259D01*
X19944017Y-44773676D01*
X20254600Y-43614565D01*
X21413711Y-43925148D01*
X21413711Y-43925148D01*
G37*
G36*
X24456377Y-44740428D02*
X24145794Y-45899539D01*
X22986683Y-45588956D01*
X23297266Y-44429845D01*
X24456377Y-44740428D01*
X24456377Y-44740428D01*
G37*
G36*
X46384650Y-70338102D02*
X46074067Y-71497213D01*
X44914956Y-71186630D01*
X45225539Y-70027519D01*
X46384650Y-70338102D01*
X46384650Y-70338102D01*
G37*
G36*
X49427316Y-71153382D02*
X49116733Y-72312493D01*
X47957622Y-72001910D01*
X48268205Y-70842799D01*
X49427316Y-71153382D01*
X49427316Y-71153382D01*
G37*
G36*
X11882986Y-61093409D02*
X11572403Y-62252520D01*
X10413292Y-61941937D01*
X10723875Y-60782826D01*
X11882986Y-61093409D01*
X11882986Y-61093409D01*
G37*
G36*
X14925652Y-61908689D02*
X14615069Y-63067800D01*
X13455958Y-62757217D01*
X13766541Y-61598106D01*
X14925652Y-61908689D01*
X14925652Y-61908689D01*
G37*
G36*
X80809671Y-15465722D02*
X80499088Y-16624833D01*
X79339977Y-16314250D01*
X79650560Y-15155139D01*
X80809671Y-15465722D01*
X80809671Y-15465722D01*
G37*
G36*
X83852337Y-16281002D02*
X83541754Y-17440113D01*
X82382643Y-17129530D01*
X82693226Y-15970419D01*
X83852337Y-16281002D01*
X83852337Y-16281002D01*
G37*
G36*
X100443183Y-15796003D02*
X100132600Y-16955114D01*
X98973489Y-16644531D01*
X99284072Y-15485420D01*
X100443183Y-15796003D01*
X100443183Y-15796003D01*
G37*
G36*
X103485849Y-16611283D02*
X103175266Y-17770394D01*
X102016155Y-17459811D01*
X102326738Y-16300700D01*
X103485849Y-16611283D01*
X103485849Y-16611283D01*
G37*
G36*
X95512681Y-34196890D02*
X95202098Y-35356001D01*
X94042987Y-35045418D01*
X94353570Y-33886307D01*
X95512681Y-34196890D01*
X95512681Y-34196890D01*
G37*
G36*
X98555347Y-35012170D02*
X98244764Y-36171281D01*
X97085653Y-35860698D01*
X97396236Y-34701587D01*
X98555347Y-35012170D01*
X98555347Y-35012170D01*
G37*
G36*
X75879168Y-33866609D02*
X75568585Y-35025720D01*
X74409474Y-34715137D01*
X74720057Y-33556026D01*
X75879168Y-33866609D01*
X75879168Y-33866609D01*
G37*
G36*
X78921834Y-34681889D02*
X78611251Y-35841000D01*
X77452140Y-35530417D01*
X77762723Y-34371306D01*
X78921834Y-34681889D01*
X78921834Y-34681889D01*
G37*
G36*
X90582178Y-52597777D02*
X90271595Y-53756888D01*
X89112484Y-53446305D01*
X89423067Y-52287194D01*
X90582178Y-52597777D01*
X90582178Y-52597777D01*
G37*
G36*
X93624844Y-53413057D02*
X93314261Y-54572168D01*
X92155150Y-54261585D01*
X92465733Y-53102474D01*
X93624844Y-53413057D01*
X93624844Y-53413057D01*
G37*
G36*
X70948665Y-52267496D02*
X70638082Y-53426607D01*
X69478971Y-53116024D01*
X69789554Y-51956913D01*
X70948665Y-52267496D01*
X70948665Y-52267496D01*
G37*
G36*
X73991331Y-53082776D02*
X73680748Y-54241887D01*
X72521637Y-53931304D01*
X72832220Y-52772193D01*
X73991331Y-53082776D01*
X73991331Y-53082776D01*
G37*
G36*
X66018162Y-70668383D02*
X65707579Y-71827494D01*
X64548468Y-71516911D01*
X64859051Y-70357800D01*
X66018162Y-70668383D01*
X66018162Y-70668383D01*
G37*
G36*
X69060828Y-71483663D02*
X68750245Y-72642774D01*
X67591134Y-72332191D01*
X67901717Y-71173080D01*
X69060828Y-71483663D01*
X69060828Y-71483663D01*
G37*
G36*
X61087659Y-89069270D02*
X60777076Y-90228381D01*
X59617965Y-89917798D01*
X59928548Y-88758687D01*
X61087659Y-89069270D01*
X61087659Y-89069270D01*
G37*
G36*
X64130325Y-89884550D02*
X63819742Y-91043661D01*
X62660631Y-90733078D01*
X62971214Y-89573967D01*
X64130325Y-89884550D01*
X64130325Y-89884550D01*
G37*
G36*
X41454147Y-88738989D02*
X41143564Y-89898100D01*
X39984453Y-89587517D01*
X40295036Y-88428406D01*
X41454147Y-88738989D01*
X41454147Y-88738989D01*
G37*
G36*
X44496813Y-89554269D02*
X44186230Y-90713380D01*
X43027119Y-90402797D01*
X43337702Y-89243686D01*
X44496813Y-89554269D01*
X44496813Y-89554269D01*
G37*
G36*
X134779706Y-34857452D02*
X134469123Y-36016563D01*
X133310012Y-35705980D01*
X133620595Y-34546869D01*
X134779706Y-34857452D01*
X134779706Y-34857452D01*
G37*
G36*
X137822372Y-35672732D02*
X137511789Y-36831843D01*
X136352678Y-36521260D01*
X136663261Y-35362149D01*
X137822372Y-35672732D01*
X137822372Y-35672732D01*
G37*
G36*
X117611445Y-25326728D02*
X117300862Y-26485839D01*
X116141751Y-26175256D01*
X116452334Y-25016145D01*
X117611445Y-25326728D01*
X117611445Y-25326728D01*
G37*
G36*
X120654111Y-26142008D02*
X120343528Y-27301119D01*
X119184417Y-26990536D01*
X119495000Y-25831425D01*
X120654111Y-26142008D01*
X120654111Y-26142008D01*
G37*
G36*
X112680942Y-43727615D02*
X112370359Y-44886726D01*
X111211248Y-44576143D01*
X111521831Y-43417032D01*
X112680942Y-43727615D01*
X112680942Y-43727615D01*
G37*
G36*
X115723608Y-44542895D02*
X115413025Y-45702006D01*
X114253914Y-45391423D01*
X114564497Y-44232312D01*
X115723608Y-44542895D01*
X115723608Y-44542895D01*
G37*
G36*
X129849203Y-53258339D02*
X129538620Y-54417450D01*
X128379509Y-54106867D01*
X128690092Y-52947756D01*
X129849203Y-53258339D01*
X129849203Y-53258339D01*
G37*
G36*
X132891869Y-54073619D02*
X132581286Y-55232730D01*
X131422175Y-54922147D01*
X131732758Y-53763036D01*
X132891869Y-54073619D01*
X132891869Y-54073619D01*
G37*
G36*
X107750439Y-62128502D02*
X107439856Y-63287613D01*
X106280745Y-62977030D01*
X106591328Y-61817919D01*
X107750439Y-62128502D01*
X107750439Y-62128502D01*
G37*
G36*
X110793105Y-62943782D02*
X110482522Y-64102893D01*
X109323411Y-63792310D01*
X109633994Y-62633199D01*
X110793105Y-62943782D01*
X110793105Y-62943782D01*
G37*
G36*
X85651675Y-70998664D02*
X85341092Y-72157775D01*
X84181981Y-71847192D01*
X84492564Y-70688081D01*
X85651675Y-70998664D01*
X85651675Y-70998664D01*
G37*
G36*
X88694341Y-71813944D02*
X88383758Y-72973055D01*
X87224647Y-72662472D01*
X87535230Y-71503361D01*
X88694341Y-71813944D01*
X88694341Y-71813944D01*
G37*
G36*
X102819936Y-80529389D02*
X102509353Y-81688500D01*
X101350242Y-81377917D01*
X101660825Y-80218806D01*
X102819936Y-80529389D01*
X102819936Y-80529389D01*
G37*
G36*
X105862602Y-81344669D02*
X105552019Y-82503780D01*
X104392908Y-82193197D01*
X104703491Y-81034086D01*
X105862602Y-81344669D01*
X105862602Y-81344669D01*
G37*
G36*
X80721172Y-89399551D02*
X80410589Y-90558662D01*
X79251478Y-90248079D01*
X79562061Y-89088968D01*
X80721172Y-89399551D01*
X80721172Y-89399551D01*
G37*
G36*
X83763838Y-90214831D02*
X83453255Y-91373942D01*
X82294144Y-91063359D01*
X82604727Y-89904248D01*
X83763838Y-90214831D01*
X83763838Y-90214831D01*
G37*
G36*
X97889433Y-98930276D02*
X97578850Y-100089387D01*
X96419739Y-99778804D01*
X96730322Y-98619693D01*
X97889433Y-98930276D01*
X97889433Y-98930276D01*
G37*
G36*
X100932099Y-99745556D02*
X100621516Y-100904667D01*
X99462405Y-100594084D01*
X99772988Y-99434973D01*
X100932099Y-99745556D01*
X100932099Y-99745556D01*
G37*
G36*
X146737490Y-62567526D02*
X146426907Y-63726637D01*
X145267796Y-63416054D01*
X145578379Y-62256943D01*
X146737490Y-62567526D01*
X146737490Y-62567526D01*
G37*
G36*
X149780156Y-63382806D02*
X149469573Y-64541917D01*
X148310462Y-64231334D01*
X148621045Y-63072223D01*
X149780156Y-63382806D01*
X149780156Y-63382806D01*
G37*
G36*
X124918700Y-71659226D02*
X124608117Y-72818337D01*
X123449006Y-72507754D01*
X123759589Y-71348643D01*
X124918700Y-71659226D01*
X124918700Y-71659226D01*
G37*
G36*
X127961366Y-72474506D02*
X127650783Y-73633617D01*
X126491672Y-73323034D01*
X126802255Y-72163923D01*
X127961366Y-72474506D01*
X127961366Y-72474506D01*
G37*
G36*
X141806987Y-80968413D02*
X141496404Y-82127524D01*
X140337293Y-81816941D01*
X140647876Y-80657830D01*
X141806987Y-80968413D01*
X141806987Y-80968413D01*
G37*
G36*
X144849653Y-81783693D02*
X144539070Y-82942804D01*
X143379959Y-82632221D01*
X143690542Y-81473110D01*
X144849653Y-81783693D01*
X144849653Y-81783693D01*
G37*
G36*
X119988198Y-90060113D02*
X119677615Y-91219224D01*
X118518504Y-90908641D01*
X118829087Y-89749530D01*
X119988198Y-90060113D01*
X119988198Y-90060113D01*
G37*
G36*
X123030864Y-90875393D02*
X122720281Y-92034504D01*
X121561170Y-91723921D01*
X121871753Y-90564810D01*
X123030864Y-90875393D01*
X123030864Y-90875393D01*
G37*
G36*
X115057695Y-108461000D02*
X114747112Y-109620111D01*
X113588001Y-109309528D01*
X113898584Y-108150417D01*
X115057695Y-108461000D01*
X115057695Y-108461000D01*
G37*
G36*
X118100361Y-109276280D02*
X117789778Y-110435391D01*
X116630667Y-110124808D01*
X116941250Y-108965697D01*
X118100361Y-109276280D01*
X118100361Y-109276280D01*
G37*
G36*
X138164593Y-119048231D02*
X137005482Y-118737648D01*
X137316065Y-117578537D01*
X138475176Y-117889120D01*
X138164593Y-119048231D01*
X138164593Y-119048231D01*
G37*
G36*
X137349313Y-122090897D02*
X136190202Y-121780314D01*
X136500785Y-120621203D01*
X137659896Y-120931786D01*
X137349313Y-122090897D01*
X137349313Y-122090897D01*
G37*
G36*
X165108479Y-60844982D02*
X165419062Y-62004093D01*
X164259951Y-62314676D01*
X163949368Y-61155565D01*
X165108479Y-60844982D01*
X165108479Y-60844982D01*
G37*
G36*
X168151145Y-60029702D02*
X168461728Y-61188813D01*
X167302617Y-61499396D01*
X166992034Y-60340285D01*
X168151145Y-60029702D01*
X168151145Y-60029702D01*
G37*
G36*
X187207243Y-69715144D02*
X187517826Y-70874255D01*
X186358715Y-71184838D01*
X186048132Y-70025727D01*
X187207243Y-69715144D01*
X187207243Y-69715144D01*
G37*
G36*
X190249909Y-68899864D02*
X190560492Y-70058975D01*
X189401381Y-70369558D01*
X189090798Y-69210447D01*
X190249909Y-68899864D01*
X190249909Y-68899864D01*
G37*
G36*
X170038982Y-79245869D02*
X170349565Y-80404980D01*
X169190454Y-80715563D01*
X168879871Y-79556452D01*
X170038982Y-79245869D01*
X170038982Y-79245869D01*
G37*
G36*
X173081648Y-78430589D02*
X173392231Y-79589700D01*
X172233120Y-79900283D01*
X171922537Y-78741172D01*
X173081648Y-78430589D01*
X173081648Y-78430589D01*
G37*
G36*
X192137746Y-88116031D02*
X192448329Y-89275142D01*
X191289218Y-89585725D01*
X190978635Y-88426614D01*
X192137746Y-88116031D01*
X192137746Y-88116031D01*
G37*
G36*
X195180412Y-87300751D02*
X195490995Y-88459862D01*
X194331884Y-88770445D01*
X194021301Y-87611334D01*
X195180412Y-87300751D01*
X195180412Y-87300751D01*
G37*
G36*
X197068249Y-106516918D02*
X197378832Y-107676029D01*
X196219721Y-107986612D01*
X195909138Y-106827501D01*
X197068249Y-106516918D01*
X197068249Y-106516918D01*
G37*
G36*
X200110915Y-105701638D02*
X200421498Y-106860749D01*
X199262387Y-107171332D01*
X198951804Y-106012221D01*
X200110915Y-105701638D01*
X200110915Y-105701638D01*
G37*
G36*
X167816811Y-118696420D02*
X166657700Y-119007003D01*
X166347117Y-117847892D01*
X167506228Y-117537309D01*
X167816811Y-118696420D01*
X167816811Y-118696420D01*
G37*
G36*
X168632091Y-121739086D02*
X167472980Y-122049669D01*
X167162397Y-120890558D01*
X168321508Y-120579975D01*
X168632091Y-121739086D01*
X168632091Y-121739086D01*
G37*
G36*
X177346237Y-32913370D02*
X177656820Y-34072481D01*
X176497709Y-34383064D01*
X176187126Y-33223953D01*
X177346237Y-32913370D01*
X177346237Y-32913370D01*
G37*
G36*
X180388903Y-32098090D02*
X180699486Y-33257201D01*
X179540375Y-33567784D01*
X179229792Y-32408673D01*
X180388903Y-32098090D01*
X180388903Y-32098090D01*
G37*
G36*
X194514499Y-23382645D02*
X194825082Y-24541756D01*
X193665971Y-24852339D01*
X193355388Y-23693228D01*
X194514499Y-23382645D01*
X194514499Y-23382645D01*
G37*
G36*
X197557165Y-22567365D02*
X197867748Y-23726476D01*
X196708637Y-24037059D01*
X196398054Y-22877948D01*
X197557165Y-22567365D01*
X197557165Y-22567365D01*
G37*
G36*
X199445001Y-41783532D02*
X199755584Y-42942643D01*
X198596473Y-43253226D01*
X198285890Y-42094115D01*
X199445001Y-41783532D01*
X199445001Y-41783532D01*
G37*
G36*
X202487667Y-40968252D02*
X202798250Y-42127363D01*
X201639139Y-42437946D01*
X201328556Y-41278835D01*
X202487667Y-40968252D01*
X202487667Y-40968252D01*
G37*
G36*
X182276740Y-51314257D02*
X182587323Y-52473368D01*
X181428212Y-52783951D01*
X181117629Y-51624840D01*
X182276740Y-51314257D01*
X182276740Y-51314257D01*
G37*
G36*
X185319406Y-50498977D02*
X185629989Y-51658088D01*
X184470878Y-51968671D01*
X184160295Y-50809560D01*
X185319406Y-50498977D01*
X185319406Y-50498977D01*
G37*
G36*
X204375504Y-60184419D02*
X204686087Y-61343530D01*
X203526976Y-61654113D01*
X203216393Y-60495002D01*
X204375504Y-60184419D01*
X204375504Y-60184419D01*
G37*
G36*
X207418170Y-59369139D02*
X207728753Y-60528250D01*
X206569642Y-60838833D01*
X206259059Y-59679722D01*
X207418170Y-59369139D01*
X207418170Y-59369139D01*
G37*
G36*
X226474268Y-69054582D02*
X226784851Y-70213693D01*
X225625740Y-70524276D01*
X225315157Y-69365165D01*
X226474268Y-69054582D01*
X226474268Y-69054582D01*
G37*
G36*
X229516934Y-68239302D02*
X229827517Y-69398413D01*
X228668406Y-69708996D01*
X228357823Y-68549885D01*
X229516934Y-68239302D01*
X229516934Y-68239302D01*
G37*
G36*
X209306007Y-78585306D02*
X209616590Y-79744417D01*
X208457479Y-80055000D01*
X208146896Y-78895889D01*
X209306007Y-78585306D01*
X209306007Y-78585306D01*
G37*
G36*
X212348673Y-77770026D02*
X212659256Y-78929137D01*
X211500145Y-79239720D01*
X211189562Y-78080609D01*
X212348673Y-77770026D01*
X212348673Y-77770026D01*
G37*
G36*
X231404771Y-87455469D02*
X231715354Y-88614580D01*
X230556243Y-88925163D01*
X230245660Y-87766052D01*
X231404771Y-87455469D01*
X231404771Y-87455469D01*
G37*
G36*
X234447437Y-86640189D02*
X234758020Y-87799300D01*
X233598909Y-88109883D01*
X233288326Y-86950772D01*
X234447437Y-86640189D01*
X234447437Y-86640189D01*
G37*
G36*
X214236510Y-96986193D02*
X214547093Y-98145304D01*
X213387982Y-98455887D01*
X213077399Y-97296776D01*
X214236510Y-96986193D01*
X214236510Y-96986193D01*
G37*
G36*
X217279176Y-96170913D02*
X217589759Y-97330024D01*
X216430648Y-97640607D01*
X216120065Y-96481496D01*
X217279176Y-96170913D01*
X217279176Y-96170913D01*
G37*
G36*
X231316273Y-13521640D02*
X231626856Y-14680751D01*
X230467745Y-14991334D01*
X230157162Y-13832223D01*
X231316273Y-13521640D01*
X231316273Y-13521640D01*
G37*
G36*
X234358939Y-12706360D02*
X234669522Y-13865471D01*
X233510411Y-14176054D01*
X233199828Y-13016943D01*
X234358939Y-12706360D01*
X234358939Y-12706360D01*
G37*
G36*
X211682760Y-13851921D02*
X211993343Y-15011032D01*
X210834232Y-15321615D01*
X210523649Y-14162504D01*
X211682760Y-13851921D01*
X211682760Y-13851921D01*
G37*
G36*
X214725426Y-13036641D02*
X215036009Y-14195752D01*
X213876898Y-14506335D01*
X213566315Y-13347224D01*
X214725426Y-13036641D01*
X214725426Y-13036641D01*
G37*
G36*
X216613263Y-32252808D02*
X216923846Y-33411919D01*
X215764735Y-33722502D01*
X215454152Y-32563391D01*
X216613263Y-32252808D01*
X216613263Y-32252808D01*
G37*
G36*
X219655929Y-31437528D02*
X219966512Y-32596639D01*
X218807401Y-32907222D01*
X218496818Y-31748111D01*
X219655929Y-31437528D01*
X219655929Y-31437528D01*
G37*
G36*
X236246775Y-31922527D02*
X236557358Y-33081638D01*
X235398247Y-33392221D01*
X235087664Y-32233110D01*
X236246775Y-31922527D01*
X236246775Y-31922527D01*
G37*
G36*
X239289441Y-31107247D02*
X239600024Y-32266358D01*
X238440913Y-32576941D01*
X238130330Y-31417830D01*
X239289441Y-31107247D01*
X239289441Y-31107247D01*
G37*
G36*
X221543766Y-50653695D02*
X221854349Y-51812806D01*
X220695238Y-52123389D01*
X220384655Y-50964278D01*
X221543766Y-50653695D01*
X221543766Y-50653695D01*
G37*
G36*
X224586432Y-49838415D02*
X224897015Y-50997526D01*
X223737904Y-51308109D01*
X223427321Y-50148998D01*
X224586432Y-49838415D01*
X224586432Y-49838415D01*
G37*
G36*
X241177278Y-50323414D02*
X241487861Y-51482525D01*
X240328750Y-51793108D01*
X240018167Y-50633997D01*
X241177278Y-50323414D01*
X241177278Y-50323414D01*
G37*
G36*
X244219944Y-49508134D02*
X244530527Y-50667245D01*
X243371416Y-50977828D01*
X243060833Y-49818717D01*
X244219944Y-49508134D01*
X244219944Y-49508134D01*
G37*
G36*
X246107781Y-68724301D02*
X246418364Y-69883412D01*
X245259253Y-70193995D01*
X244948670Y-69034884D01*
X246107781Y-68724301D01*
X246107781Y-68724301D01*
G37*
G36*
X249150447Y-67909021D02*
X249461030Y-69068132D01*
X248301919Y-69378715D01*
X247991336Y-68219604D01*
X249150447Y-67909021D01*
X249150447Y-67909021D01*
G37*
G36*
X251038284Y-87125188D02*
X251348867Y-88284299D01*
X250189756Y-88594882D01*
X249879173Y-87435771D01*
X251038284Y-87125188D01*
X251038284Y-87125188D01*
G37*
G36*
X254080950Y-86309908D02*
X254391533Y-87469019D01*
X253232422Y-87779602D01*
X252921839Y-86620491D01*
X254080950Y-86309908D01*
X254080950Y-86309908D01*
G37*
G36*
X270671797Y-86794907D02*
X270982380Y-87954018D01*
X269823269Y-88264601D01*
X269512686Y-87105490D01*
X270671797Y-86794907D01*
X270671797Y-86794907D01*
G37*
G36*
X273714463Y-85979627D02*
X274025046Y-87138738D01*
X272865935Y-87449321D01*
X272555352Y-86290210D01*
X273714463Y-85979627D01*
X273714463Y-85979627D01*
G37*
G36*
X250949785Y-13191359D02*
X251260368Y-14350470D01*
X250101257Y-14661053D01*
X249790674Y-13501942D01*
X250949785Y-13191359D01*
X250949785Y-13191359D01*
G37*
G36*
X253992451Y-12376079D02*
X254303034Y-13535190D01*
X253143923Y-13845773D01*
X252833340Y-12686662D01*
X253992451Y-12376079D01*
X253992451Y-12376079D01*
G37*
G36*
X278551116Y-5795605D02*
X278861699Y-6954716D01*
X277702588Y-7265299D01*
X277392005Y-6106188D01*
X278551116Y-5795605D01*
X278551116Y-5795605D01*
G37*
G36*
X281593782Y-4980325D02*
X281904365Y-6139436D01*
X280745254Y-6450019D01*
X280434671Y-5290908D01*
X281593782Y-4980325D01*
X281593782Y-4980325D01*
G37*
G36*
X279174611Y-25149879D02*
X279485194Y-26308990D01*
X278326083Y-26619573D01*
X278015500Y-25460462D01*
X279174611Y-25149879D01*
X279174611Y-25149879D01*
G37*
G36*
X282217277Y-24334599D02*
X282527860Y-25493710D01*
X281368749Y-25804293D01*
X281058166Y-24645182D01*
X282217277Y-24334599D01*
X282217277Y-24334599D01*
G37*
G36*
X255880288Y-31592246D02*
X256190871Y-32751357D01*
X255031760Y-33061940D01*
X254721177Y-31902829D01*
X255880288Y-31592246D01*
X255880288Y-31592246D01*
G37*
G36*
X258922954Y-30776966D02*
X259233537Y-31936077D01*
X258074426Y-32246660D01*
X257763843Y-31087549D01*
X258922954Y-30776966D01*
X258922954Y-30776966D01*
G37*
G36*
X290712232Y-41981066D02*
X291022815Y-43140177D01*
X289863704Y-43450760D01*
X289553121Y-42291649D01*
X290712232Y-41981066D01*
X290712232Y-41981066D01*
G37*
G36*
X293754898Y-41165786D02*
X294065481Y-42324897D01*
X292906370Y-42635480D01*
X292595787Y-41476369D01*
X293754898Y-41165786D01*
X293754898Y-41165786D01*
G37*
G36*
X260810791Y-49993133D02*
X261121374Y-51152244D01*
X259962263Y-51462827D01*
X259651680Y-50303716D01*
X260810791Y-49993133D01*
X260810791Y-49993133D01*
G37*
G36*
X263853457Y-49177853D02*
X264164040Y-50336964D01*
X263004929Y-50647547D01*
X262694346Y-49488436D01*
X263853457Y-49177853D01*
X263853457Y-49177853D01*
G37*
G36*
X265741294Y-68394020D02*
X266051877Y-69553131D01*
X264892766Y-69863714D01*
X264582183Y-68704603D01*
X265741294Y-68394020D01*
X265741294Y-68394020D01*
G37*
G36*
X268783960Y-67578740D02*
X269094543Y-68737851D01*
X267935432Y-69048434D01*
X267624849Y-67889323D01*
X268783960Y-67578740D01*
X268783960Y-67578740D01*
G37*
G36*
X291042513Y-61614578D02*
X291353096Y-62773689D01*
X290193985Y-63084272D01*
X289883402Y-61925161D01*
X291042513Y-61614578D01*
X291042513Y-61614578D01*
G37*
G36*
X294085179Y-60799298D02*
X294395762Y-61958409D01*
X293236651Y-62268992D01*
X292926068Y-61109881D01*
X294085179Y-60799298D01*
X294085179Y-60799298D01*
G37*
G36*
X316636947Y-54555899D02*
X316947530Y-55715010D01*
X315788419Y-56025593D01*
X315477836Y-54866482D01*
X316636947Y-54555899D01*
X316636947Y-54555899D01*
G37*
G36*
X319679613Y-53740619D02*
X319990196Y-54899730D01*
X318831085Y-55210313D01*
X318520502Y-54051202D01*
X319679613Y-53740619D01*
X319679613Y-53740619D01*
G37*
D11*
X165918750Y-23331250D03*
X172218750Y-23331250D03*
X165918750Y-19531250D03*
X172218750Y-19531250D03*
M02*
