M48
INCH,TZ
T1C0.067
T2C0.120
T3C0.157
%
G90
G05
T1
X-0.0522Y-2.6743
X0.323Y-1.9984
X0.3342Y-2.7778
X0.4396Y-0.4767
X0.7094Y-2.1019
X0.7888Y-1.3468
X0.8259Y-0.5803
X1.112Y-3.7627
X1.164Y-0.6708
X1.1752Y-1.4503
X1.3061Y-3.0383
X1.4984Y-3.8663
X1.5002Y-2.3138
X1.5504Y-0.7744
X1.6925Y-3.1418
X1.6943Y-1.5894
X1.885Y-3.7757
X1.8866Y-2.4174
X1.8885Y-0.865
X2.0791Y-3.0513
X2.0807Y-1.6929
X2.2713Y-3.8793
X2.2732Y-2.3268
X2.2748Y-0.9685
X2.4655Y-3.1548
X2.4673Y-1.6024
X2.6579Y-3.7887
X2.6596Y-2.4304
X2.6614Y-0.878
X2.8521Y-3.0643
X2.8537Y-1.7059
X3.0443Y-3.8923
X3.0462Y-2.3398
X3.0478Y-0.9815
X3.2384Y-3.1678
X3.2403Y-1.6154
X3.3339Y-4.164
X3.4325Y-2.4434
X3.4344Y-0.891
X3.528Y-3.4395
X3.6267Y-1.7189
X3.7202Y-4.2675
X3.7221Y-2.7151
X3.8208Y-0.9945
X3.9143Y-3.543
X3.9162Y-1.9906
X4.0098Y-4.5392
X4.1085Y-2.8186
X4.1103Y-1.2662
X4.2039Y-3.8147
X4.3026Y-2.0942
X4.3962Y-4.6427
X4.398Y-3.0903
X4.4967Y-1.3697
X4.5903Y-3.9183
X4.5921Y-2.3659
X4.7844Y-3.1938
X4.7862Y-1.6414
X4.9242Y-4.7971
X4.9785Y-2.4694
X5.0277Y-4.4108
X5.0739Y-3.4655
X5.1726Y-1.7449
X5.2668Y-2.7432
X5.4603Y-3.5691
X5.6532Y-2.8468
X6.3468Y-2.8408
X6.541Y-3.5652
X6.7332Y-2.7373
X6.8286Y-1.7411
X6.9273Y-3.4617
X6.9735Y-4.4069
X7.0228Y-2.4656
X7.0771Y-4.7933
X7.215Y-1.6376
X7.2169Y-3.19
X7.4091Y-2.362
X7.411Y-3.9144
X7.5046Y-1.3659
X7.6032Y-3.0865
X7.6051Y-4.6389
X7.6987Y-2.0903
X7.7974Y-3.8109
X7.8909Y-1.2624
X7.8928Y-2.8148
X7.9915Y-4.5354
X8.085Y-1.9868
X8.0869Y-3.5392
X8.1805Y-0.9907
X8.2792Y-2.7112
X8.281Y-4.2637
X8.3746Y-1.7151
X8.4733Y-3.4357
X8.5668Y-0.8871
X8.5687Y-2.4396
X8.6674Y-4.1601
X8.761Y-1.6116
X8.7628Y-3.164
X8.9534Y-0.9777
X8.9551Y-2.336
X8.9569Y-3.8884
X9.1476Y-1.7021
X9.1492Y-3.0605
X9.3398Y-0.8741
X9.3417Y-2.4265
X9.3433Y-3.7849
X9.5339Y-1.5986
X9.5358Y-3.151
X9.7264Y-0.9647
X9.728Y-2.323
X9.7299Y-3.8754
X9.9205Y-1.6891
X9.9222Y-3.0475
X10.1128Y-0.8611
X10.1146Y-2.4135
X10.1163Y-3.7719
X10.3069Y-1.5856
X10.3088Y-3.138
X10.501Y-2.31
X10.5029Y-3.8624
X10.6951Y-3.0345
X10.8131Y-0.6735
X10.8261Y-1.4465
X10.8892Y-3.7589
X11.1995Y-0.57
X11.2125Y-1.3429
X11.2919Y-2.0981
X11.3049Y-2.8711
X11.6782Y-1.9946
X11.6912Y-2.7676
X12.301Y-2.6042
X12.6874Y-2.5006
T2
X-0.2418Y-2.3388
X0.1334Y-1.6629
X0.6661Y-2.5821
X1.0414Y-1.9062
X4.5887Y-4.9868
X4.832Y-4.0788
X7.1693Y-4.075
X7.4126Y-4.9829
X10.4811Y-0.4777
X10.9599Y-1.9024
X11.3891Y-0.2344
X11.8679Y-1.6591
T3
X-0.3971Y-2.9184
X-0.0219Y-2.2425
X0.141Y-2.7261
X0.5108Y-3.1617
X0.5162Y-2.0502
X0.6328Y-0.5285
X0.8861Y-2.4857
X0.982Y-1.3985
X1.3052Y-3.8145
X1.3572Y-0.7226
X1.4993Y-3.0901
X1.6934Y-2.3656
X1.8875Y-1.6412
X2.0782Y-3.8275
X2.0816Y-0.9167
X2.2723Y-3.1031
X2.4664Y-2.3786
X2.6605Y-1.6542
X2.8511Y-3.8405
X2.8546Y-0.9297
X3.0452Y-3.1161
X3.2394Y-2.3916
X3.4335Y-1.6672
X3.5271Y-4.2157
X3.6276Y-0.9427
X3.7212Y-3.4913
X3.9153Y-2.7668
X4.1094Y-2.0424
X4.203Y-4.591
X4.3035Y-1.3179
X4.3971Y-3.8665
X4.5912Y-3.1421
X4.7853Y-2.4176
X4.9759Y-4.604
X4.9794Y-1.6932
X5.1682Y-5.1421
X5.2671Y-3.5173
X5.4115Y-4.2341
X5.46Y-2.795
X6.54Y-2.789
X6.5897Y-4.2303
X6.7341Y-3.5135
X6.833Y-5.1382
X7.0218Y-1.6893
X7.0253Y-4.6001
X7.2159Y-2.4138
X7.4101Y-3.1382
X7.6042Y-3.8627
X7.6977Y-1.3141
X7.7983Y-4.5871
X7.8919Y-2.0386
X8.086Y-2.763
X8.2801Y-3.4875
X8.3737Y-0.9389
X8.4742Y-4.2119
X8.5678Y-1.6633
X8.7619Y-2.3878
X8.956Y-3.1122
X9.1466Y-0.9259
X9.1501Y-3.8367
X9.3407Y-1.6503
X9.5349Y-2.3748
X9.729Y-3.0992
X9.9196Y-0.9129
X9.9231Y-3.8237
X10.1137Y-1.6373
X10.3078Y-2.3618
X10.5019Y-3.0862
X10.6364Y-1.0573
X10.6961Y-3.8107
X11.0063Y-0.6217
X11.0193Y-1.3947
X11.1152Y-2.4819
X11.4851Y-2.0463
X11.4981Y-2.8193
X11.5444Y-0.814
X12.0232Y-2.2386
X12.4942Y-2.5524
T0
M30
