M48
INCH,TZ
T1C0.016
T2C0.028
T3C0.035
T4C0.043
T5C0.059
T6C0.098
%
G90
G05
T1
X5.8Y-1.7
X5.8Y-3.
X5.825Y-1.675
X5.825Y-2.5
X5.85Y-1.65
X5.85Y-2.3
X5.875Y-1.625
X5.875Y-2.25
X5.9Y-1.6
X5.9Y-2.2
X6.125Y-1.6
X6.125Y-4.85
X6.15Y-1.625
X6.15Y-4.425
X6.175Y-1.65
X6.175Y-3.85
X6.2Y-1.675
X6.2Y-3.225
T2
X0.0808Y-2.3463
X0.3775Y-2.4258
X0.4561Y-1.6704
X0.5726Y-0.1487
X0.7527Y-1.7498
X0.8692Y-0.2282
X0.9218Y-1.0187
X1.2185Y-1.0982
X1.245Y-3.4347
X1.2971Y-0.3428
X1.4392Y-2.7102
X1.5417Y-3.5142
X1.5937Y-0.4223
X1.6333Y-1.9858
X1.7358Y-2.7897
X1.8274Y-1.2613
X1.9299Y-2.0653
X2.018Y-3.4477
X2.0215Y-0.5369
X2.124Y-1.3408
X2.2121Y-2.7232
X2.3146Y-3.5272
X2.3181Y-0.6164
X2.4062Y-1.9988
X2.5088Y-2.8027
X2.6004Y-1.2744
X2.7029Y-2.0783
X2.791Y-3.4607
X2.7945Y-0.5499
X2.897Y-1.3538
X2.9851Y-2.7362
X3.0876Y-3.5402
X3.0911Y-0.6294
X3.1792Y-2.0118
X3.2817Y-2.8157
X3.3733Y-1.2874
X3.4669Y-3.8359
X3.4758Y-2.0913
X3.5675Y-0.5629
X3.661Y-3.1115
X3.67Y-1.3668
X3.7635Y-3.9154
X3.8551Y-2.387
X3.8641Y-0.6424
X3.9576Y-3.1909
X4.0493Y-1.6626
X4.1428Y-4.2111
X4.1518Y-2.4665
X4.2434Y-0.9381
X4.3369Y-3.4867
X4.3459Y-1.7421
X4.4394Y-4.2906
X4.5311Y-2.7622
X4.54Y-1.0176
X4.6336Y-3.5662
X4.7252Y-2.0378
X4.8277Y-2.8417
X4.9193Y-1.3134
X5.0218Y-2.1173
X5.207Y-3.1375
X5.2159Y-1.3928
X5.2984Y-4.8493
X5.3779Y-4.5527
X5.4011Y-2.413
X5.5036Y-3.217
X5.6977Y-2.4925
X6.3028Y-2.4934
X6.4969Y-3.2178
X6.5994Y-2.4139
X6.6233Y-4.5489
X6.7028Y-4.8455
X6.7846Y-1.3937
X6.7935Y-3.1383
X6.9787Y-2.1181
X7.0812Y-1.3142
X7.1728Y-2.8426
X7.2753Y-2.0387
X7.3669Y-3.567
X7.4605Y-1.0185
X7.4695Y-2.7631
X7.5611Y-4.2915
X7.6546Y-1.7429
X7.6636Y-3.4875
X7.7571Y-0.939
X7.8487Y-2.4674
X7.8577Y-4.212
X7.9513Y-1.6634
X8.0429Y-3.1918
X8.1364Y-0.6432
X8.1454Y-2.3879
X8.237Y-3.9162
X8.3305Y-1.3677
X8.3395Y-3.1123
X8.4331Y-0.5638
X8.5247Y-2.0921
X8.5336Y-3.8368
X8.6272Y-1.2882
X8.7188Y-2.8166
X8.8213Y-2.0126
X8.9094Y-0.6302
X8.9129Y-3.541
X9.0154Y-2.7371
X9.1035Y-1.3547
X9.206Y-0.5508
X9.2095Y-3.4615
X9.2976Y-2.0791
X9.4001Y-1.2752
X9.4917Y-2.8036
X9.5943Y-1.9996
X9.6824Y-0.6172
X9.6859Y-3.528
X9.7884Y-2.7241
X9.8765Y-1.3417
X9.979Y-0.5378
X9.9825Y-3.4485
X10.0706Y-2.0661
X10.1731Y-1.2622
X10.2647Y-2.7906
X10.3672Y-1.9866
X10.4588Y-3.515
X10.5613Y-2.7111
X10.7555Y-3.4355
X10.769Y-0.3261
X10.782Y-1.099
X11.0657Y-0.2466
X11.0787Y-1.0196
X11.2478Y-1.7507
X11.2608Y-2.5237
X11.5445Y-1.6712
X11.5575Y-2.4442
X12.2569Y-2.2568
X12.5536Y-2.1773
T3
X5.3438Y-1.0312
X5.35Y-0.775
X6.65Y-1.05
T4
X5.7Y-0.7625
X5.7Y-0.8625
X5.7Y-0.9625
X5.7Y-1.0625
X5.7Y-1.1625
X5.7Y-1.2625
X5.7Y-1.3625
X5.7Y-1.4625
X5.7Y-1.5625
X5.7Y-1.6625
X5.7Y-1.7625
X5.7Y-1.8625
X6.3Y-0.7625
X6.3Y-0.8625
X6.3Y-0.9625
X6.3Y-1.0625
X6.3Y-1.1625
X6.3Y-1.2625
X6.3Y-1.3625
X6.3Y-1.4625
X6.3Y-1.5625
X6.3Y-1.6625
X6.3Y-1.7625
X6.3Y-1.8625
T5
X0.0677Y-2.5434G85X0.0219Y-2.5907
G05
X0.2893Y-2.5588G85X0.2819Y-2.5804
G05
X0.4429Y-1.8675G85X0.3972Y-1.9147
G05
X0.5594Y-0.3458G85X0.5137Y-0.3931
G05
X0.6645Y-1.8829G85X0.6571Y-1.9045
G05
X0.7811Y-0.3612G85X0.7737Y-0.3828
G05
X0.9087Y-1.2158G85X0.863Y-1.2631
G05
X1.1303Y-1.2312G85X1.1229Y-1.2528
G05
X1.2319Y-3.6318G85X1.1862Y-3.6791
G05
X1.2839Y-0.5399G85X1.2382Y-0.5872
G05
X1.426Y-2.9074G85X1.3803Y-2.9546
G05
X1.4535Y-3.6472G85X1.4461Y-3.6688
G05
X1.5055Y-0.5553G85X1.4981Y-0.5769
G05
X1.6201Y-2.1829G85X1.5744Y-2.2302
G05
X1.6476Y-2.9228G85X1.6402Y-2.9444
G05
X1.8142Y-1.4585G85X1.7685Y-1.5057
G05
X1.8418Y-2.1983G85X1.8344Y-2.2199
G05
X2.0049Y-3.6448G85X1.9591Y-3.6921
G05
X2.0083Y-0.734G85X1.9626Y-0.7813
G05
X2.0359Y-1.4739G85X2.0285Y-1.4955
G05
X2.199Y-2.9204G85X2.1533Y-2.9676
G05
X2.2265Y-3.6602G85X2.2191Y-3.6818
G05
X2.23Y-0.7494G85X2.2226Y-0.771
G05
X2.3931Y-2.1959G85X2.3474Y-2.2432
G05
X2.4206Y-2.9358G85X2.4132Y-2.9574
G05
X2.5872Y-1.4715G85X2.5415Y-1.5187
G05
X2.6147Y-2.2113G85X2.6073Y-2.2329
G05
X2.7778Y-3.6578G85X2.7321Y-3.7051
G05
X2.7813Y-0.747G85X2.7356Y-0.7943
G05
X2.8088Y-1.4869G85X2.8014Y-1.5085
G05
X2.9719Y-2.9334G85X2.9262Y-2.9806
G05
X2.9995Y-3.6732G85X2.9921Y-3.6948
G05
X3.003Y-0.7624G85X2.9956Y-0.784
G05
X3.1661Y-2.2089G85X3.1203Y-2.2562
G05
X3.1936Y-2.9488G85X3.1862Y-2.9704
G05
X3.3602Y-1.4845G85X3.3145Y-1.5317
G05
X3.3877Y-2.2243G85X3.3803Y-2.2459
G05
X3.4537Y-4.033G85X3.408Y-4.0803
G05
X3.5543Y-0.76G85X3.5086Y-0.8073
G05
X3.5818Y-1.4999G85X3.5744Y-1.5215
G05
X3.6479Y-3.3086G85X3.6021Y-3.3559
G05
X3.6754Y-4.0484G85X3.668Y-4.07
G05
X3.7759Y-0.7754G85X3.7685Y-0.797
G05
X3.842Y-2.5842G85X3.7963Y-2.6314
G05
X3.8695Y-3.324G85X3.8621Y-3.3456
G05
X4.0361Y-1.8597G85X3.9904Y-1.907
G05
X4.0636Y-2.5996G85X4.0562Y-2.6212
G05
X4.1297Y-4.4083G85X4.0839Y-4.4555
G05
X4.2302Y-1.1353G85X4.1845Y-1.1825
G05
X4.2577Y-1.8751G85X4.2503Y-1.8967
G05
X4.3238Y-3.6838G85X4.2781Y-3.7311
G05
X4.3513Y-4.4237G85X4.3439Y-4.4453
G05
X4.4518Y-1.1507G85X4.4444Y-1.1723
G05
X4.5179Y-2.9594G85X4.4722Y-3.0066
G05
X4.5454Y-3.6992G85X4.538Y-3.7208
G05
X4.712Y-2.2349G85X4.6663Y-2.2822
G05
X4.7395Y-2.9748G85X4.7321Y-2.9964
G05
X4.7933Y-4.6773G85X4.8405Y-4.723
G05
X4.8087Y-4.4556G85X4.8303Y-4.463
G05
X4.9061Y-1.5105G85X4.8604Y-1.5578
G05
X4.9336Y-2.2503G85X4.9263Y-2.2719
G05
X5.1278Y-1.5259G85X5.1204Y-1.5475
G05
X5.1938Y-3.3346G85X5.1481Y-3.3819
G05
X5.3867Y-2.6123G85X5.341Y-2.6596
G05
X5.4154Y-3.35G85X5.4081Y-3.3716
G05
X5.6083Y-2.6277G85X5.6009Y-2.6493
G05
X6.3852Y-2.6675G85X6.3692Y-2.7313
G05
X6.5793Y-3.3919G85X6.5634Y-3.4557
G05
X6.5848Y-2.57G85X6.5892Y-2.5924
G05
X6.779Y-3.2944G85X6.7834Y-3.3168
G05
X6.867Y-1.5678G85X6.851Y-1.6316
G05
X7.0611Y-2.2922G85X7.0452Y-2.356
G05
X7.0667Y-1.4703G85X7.071Y-1.4927
G05
X7.1469Y-4.4453G85X7.0831Y-4.4293
G05
X7.2443Y-4.645G85X7.2219Y-4.6494
G05
X7.2552Y-3.0167G85X7.2393Y-3.0805
G05
X7.2608Y-2.1948G85X7.2652Y-2.2172
G05
X7.4493Y-3.7411G85X7.4334Y-3.8049
G05
X7.4549Y-2.9192G85X7.4593Y-2.9416
G05
X7.5429Y-1.1926G85X7.527Y-1.2564
G05
X7.6435Y-4.4656G85X7.6275Y-4.5294
G05
X7.649Y-3.6436G85X7.6534Y-3.6661
G05
X7.737Y-1.917G85X7.7211Y-1.9808
G05
X7.7426Y-1.0951G85X7.747Y-1.1175
G05
X7.8431Y-4.3681G85X7.8475Y-4.3905
G05
X7.9311Y-2.6415G85X7.9152Y-2.7052
G05
X7.9367Y-1.8195G85X7.9411Y-1.8419
G05
X8.1253Y-3.3659G85X8.1093Y-3.4297
G05
X8.1308Y-2.544G85X8.1352Y-2.5664
G05
X8.2188Y-0.8174G85X8.2029Y-0.8811
G05
X8.3194Y-4.0904G85X8.3034Y-4.1541
G05
X8.3249Y-3.2684G85X8.3293Y-3.2908
G05
X8.4129Y-1.5418G85X8.397Y-1.6056
G05
X8.4185Y-0.7199G85X8.4229Y-0.7423
G05
X8.519Y-3.9929G85X8.5234Y-4.0153
G05
X8.6071Y-2.2662G85X8.5911Y-2.33
G05
X8.6126Y-1.4443G85X8.617Y-1.4667
G05
X8.8012Y-2.9907G85X8.7852Y-3.0545
G05
X8.8067Y-2.1687G85X8.8111Y-2.1912
G05
X8.9918Y-0.8043G85X8.9758Y-0.8681
G05
X8.9953Y-3.7151G85X8.9793Y-3.7789
G05
X9.0008Y-2.8932G85X9.0052Y-2.9156
G05
X9.1859Y-1.5288G85X9.17Y-1.5926
G05
X9.1915Y-0.7069G85X9.1959Y-0.7293
G05
X9.1949Y-3.6176G85X9.1993Y-3.64
G05
X9.38Y-2.2532G85X9.3641Y-2.317
G05
X9.3856Y-1.4313G85X9.39Y-1.4537
G05
X9.5741Y-2.9777G85X9.5582Y-3.0415
G05
X9.5797Y-2.1557G85X9.5841Y-2.1782
G05
X9.7648Y-0.7913G85X9.7488Y-0.8551
G05
X9.7683Y-3.7021G85X9.7523Y-3.7659
G05
X9.7738Y-2.8802G85X9.7782Y-2.9026
G05
X9.9589Y-1.5158G85X9.9429Y-1.5796
G05
X9.9644Y-0.6939G85X9.9688Y-0.7163
G05
X9.9679Y-3.6046G85X9.9723Y-3.627
G05
X10.153Y-2.2402G85X10.137Y-2.304
G05
X10.1585Y-1.4183G85X10.1629Y-1.4407
G05
X10.3471Y-2.9647G85X10.3312Y-3.0285
G05
X10.3527Y-2.1427G85X10.3571Y-2.1651
G05
X10.5412Y-3.6891G85X10.5253Y-3.7529
G05
X10.5468Y-2.8672G85X10.5512Y-2.8896
G05
X10.7409Y-3.5916G85X10.7453Y-3.614
G05
X10.8514Y-0.5002G85X10.8355Y-0.564
G05
X10.8644Y-1.2731G85X10.8485Y-1.3369
G05
X11.0511Y-0.4027G85X11.0555Y-0.4251
G05
X11.0641Y-1.1757G85X11.0685Y-1.1981
G05
X11.3302Y-1.9248G85X11.3143Y-1.9886
G05
X11.3432Y-2.6978G85X11.3273Y-2.7616
G05
X11.5299Y-1.8273G85X11.5343Y-1.8497
G05
X11.5429Y-2.6003G85X11.5473Y-2.6227
G05
X12.3393Y-2.4309G85X12.3234Y-2.4946
G05
X12.539Y-2.3334G85X12.5434Y-2.3558
G05
T6
X0.2637Y-1.1075G85X0.3463Y-1.1075
G05
X0.7337Y-3.5475G85X0.8163Y-3.5475
G05
X3.5462Y-4.8575G85X3.6288Y-4.8575
G05
X4.1787Y-0.7475G85X4.2613Y-0.7475
G05
X7.7412Y-0.7475G85X7.8238Y-0.7475
G05
X8.3712Y-4.855G85X8.4538Y-4.855
G05
X11.1837Y-3.5425G85X11.2663Y-3.5425
G05
X11.6537Y-1.1075G85X11.7363Y-1.1075
G05
T0
M30
