<?xml version="1.0" standalone="no"?>
 <!DOCTYPE svg PUBLIC "-//W3C//DTD SVG 1.1//EN" 
 "http://www.w3.org/Graphics/SVG/1.1/DTD/svg11.dtd"> 
<svg xmlns="http://www.w3.org/2000/svg" version="1.1" 
    width="29.7002cm" height="21.0007cm" viewBox="0 0 116930 82680 ">
<title>SVG Picture created as orgonaut66-Eco2.User.svg date 2019/05/20 20:03:55 </title>
  <desc>Picture generated by PCBNEW </desc>
<g style="fill:#000000; fill-opacity:1;stroke:#000000; stroke-opacity:1;
stroke-linecap:round; stroke-linejoin:round; "
 transform="translate(0 0) scale(1 1)">
</g>
<g style="fill:#000000; fill-opacity:0.0; 
stroke:#000000; stroke-width:-0.000393701; stroke-opacity:1; 
stroke-linecap:round; stroke-linejoin:round;">
</g>
<g style="fill:#000000; fill-opacity:0.0; 
stroke:#000000; stroke-width:39.3701; stroke-opacity:1; 
stroke-linecap:round; stroke-linejoin:round;">
</g>
<g style="fill:#000000; fill-opacity:0.0; 
stroke:#000000; stroke-width:59.0551; stroke-opacity:1; 
stroke-linecap:round; stroke-linejoin:round;">
<rect x="69685.9" y="65357.2" width="42519.7" height="12598.4" rx="0" />
</g>
<g style="fill:#000000; fill-opacity:0.0; 
stroke:#000000; stroke-width:39.3701; stroke-opacity:1; 
stroke-linecap:round; stroke-linejoin:round;">
</g>
<g style="fill:#000000; fill-opacity:0.0; 
stroke:#000000; stroke-width:59.0551; stroke-opacity:1; 
stroke-linecap:round; stroke-linejoin:round;">
<rect x="3937.01" y="3937.01" width="109056" height="74806" rx="0" />
</g>
<g style="fill:#000000; fill-opacity:0.0; 
stroke:#000000; stroke-width:39.3701; stroke-opacity:1; 
stroke-linecap:round; stroke-linejoin:round;">
</g>
<g style="fill:#000000; fill-opacity:0.0; 
stroke:#000000; stroke-width:59.0551; stroke-opacity:1; 
stroke-linecap:round; stroke-linejoin:round;">
<rect x="4724.41" y="4724.41" width="107481" height="73231.2" rx="0" />
</g>
<g style="fill:#000000; fill-opacity:0.0; 
stroke:#000000; stroke-width:39.3701; stroke-opacity:1; 
stroke-linecap:round; stroke-linejoin:round;">
</g>
<g style="fill:#000000; fill-opacity:0.0; 
stroke:#000000; stroke-width:59.0551; stroke-opacity:1; 
stroke-linecap:round; stroke-linejoin:round;">
<path d="M23622 4724
L23622 3937
" />
</g>
<g style="fill:#000000; fill-opacity:0.0; 
stroke:#000000; stroke-width:39.3701; stroke-opacity:1; 
stroke-linecap:round; stroke-linejoin:round;">
</g>
<g style="fill:#000000; fill-opacity:0.0; 
stroke:#000000; stroke-width:59.0551; stroke-opacity:1; 
stroke-linecap:round; stroke-linejoin:round;">
<path d="M43307 4724
L43307 3937
" />
</g>
<g style="fill:#000000; fill-opacity:0.0; 
stroke:#000000; stroke-width:39.3701; stroke-opacity:1; 
stroke-linecap:round; stroke-linejoin:round;">
</g>
<g style="fill:#000000; fill-opacity:0.0; 
stroke:#000000; stroke-width:59.0551; stroke-opacity:1; 
stroke-linecap:round; stroke-linejoin:round;">
<path d="M62992 4724
L62992 3937
" />
</g>
<g style="fill:#000000; fill-opacity:0.0; 
stroke:#000000; stroke-width:39.3701; stroke-opacity:1; 
stroke-linecap:round; stroke-linejoin:round;">
</g>
<g style="fill:#000000; fill-opacity:0.0; 
stroke:#000000; stroke-width:59.0551; stroke-opacity:1; 
stroke-linecap:round; stroke-linejoin:round;">
<path d="M82677 4724
L82677 3937
" />
</g>
<g style="fill:#000000; fill-opacity:0.0; 
stroke:#000000; stroke-width:39.3701; stroke-opacity:1; 
stroke-linecap:round; stroke-linejoin:round;">
</g>
<g style="fill:#000000; fill-opacity:0.0; 
stroke:#000000; stroke-width:59.0551; stroke-opacity:1; 
stroke-linecap:round; stroke-linejoin:round;">
<path d="M102362 4724
L102362 3937
" />
</g>
<g style="fill:#000000; fill-opacity:0.0; 
stroke:#000000; stroke-width:39.3701; stroke-opacity:1; 
stroke-linecap:round; stroke-linejoin:round;">
</g>
<g style="fill:#000000; fill-opacity:0.0; 
stroke:#000000; stroke-width:59.0551; stroke-opacity:1; 
stroke-linecap:round; stroke-linejoin:round;">
<path d="M14199 4562
L13906 4562
" />
<path d="M14052 4562
L14052 4050
L14004 4123
L13955 4172
L13906 4196
" />
</g>
<g style="fill:#000000; fill-opacity:0.0; 
stroke:#000000; stroke-width:39.3701; stroke-opacity:1; 
stroke-linecap:round; stroke-linejoin:round;">
</g>
<g style="fill:#000000; fill-opacity:0.0; 
stroke:#000000; stroke-width:59.0551; stroke-opacity:1; 
stroke-linecap:round; stroke-linejoin:round;">
<path d="M33591 4099
L33615 4074
L33664 4050
L33786 4050
L33835 4074
L33859 4099
L33884 4147
L33884 4196
L33859 4269
L33567 4562
L33884 4562
" />
</g>
<g style="fill:#000000; fill-opacity:0.0; 
stroke:#000000; stroke-width:39.3701; stroke-opacity:1; 
stroke-linecap:round; stroke-linejoin:round;">
</g>
<g style="fill:#000000; fill-opacity:0.0; 
stroke:#000000; stroke-width:59.0551; stroke-opacity:1; 
stroke-linecap:round; stroke-linejoin:round;">
<path d="M53252 4050
L53569 4050
L53398 4245
L53471 4245
L53520 4269
L53544 4294
L53569 4342
L53569 4464
L53544 4513
L53520 4537
L53471 4562
L53325 4562
L53276 4537
L53252 4513
" />
</g>
<g style="fill:#000000; fill-opacity:0.0; 
stroke:#000000; stroke-width:39.3701; stroke-opacity:1; 
stroke-linecap:round; stroke-linejoin:round;">
</g>
<g style="fill:#000000; fill-opacity:0.0; 
stroke:#000000; stroke-width:59.0551; stroke-opacity:1; 
stroke-linecap:round; stroke-linejoin:round;">
<path d="M73205 4221
L73205 4562
" />
<path d="M73083 4026
L72961 4391
L73278 4391
" />
</g>
<g style="fill:#000000; fill-opacity:0.0; 
stroke:#000000; stroke-width:39.3701; stroke-opacity:1; 
stroke-linecap:round; stroke-linejoin:round;">
</g>
<g style="fill:#000000; fill-opacity:0.0; 
stroke:#000000; stroke-width:59.0551; stroke-opacity:1; 
stroke-linecap:round; stroke-linejoin:round;">
<path d="M92914 4050
L92671 4050
L92646 4294
L92671 4269
L92719 4245
L92841 4245
L92890 4269
L92914 4294
L92939 4342
L92939 4464
L92914 4513
L92890 4537
L92841 4562
L92719 4562
L92671 4537
L92646 4513
" />
</g>
<g style="fill:#000000; fill-opacity:0.0; 
stroke:#000000; stroke-width:39.3701; stroke-opacity:1; 
stroke-linecap:round; stroke-linejoin:round;">
</g>
<g style="fill:#000000; fill-opacity:0.0; 
stroke:#000000; stroke-width:59.0551; stroke-opacity:1; 
stroke-linecap:round; stroke-linejoin:round;">
<path d="M112575 4050
L112477 4050
L112429 4074
L112404 4099
L112356 4172
L112331 4269
L112331 4464
L112356 4513
L112380 4537
L112429 4562
L112526 4562
L112575 4537
L112599 4513
L112624 4464
L112624 4342
L112599 4294
L112575 4269
L112526 4245
L112429 4245
L112380 4269
L112356 4294
L112331 4342
" />
</g>
<g style="fill:#000000; fill-opacity:0.0; 
stroke:#000000; stroke-width:39.3701; stroke-opacity:1; 
stroke-linecap:round; stroke-linejoin:round;">
</g>
<g style="fill:#000000; fill-opacity:0.0; 
stroke:#000000; stroke-width:59.0551; stroke-opacity:1; 
stroke-linecap:round; stroke-linejoin:round;">
<path d="M23622 77955
L23622 78742
" />
</g>
<g style="fill:#000000; fill-opacity:0.0; 
stroke:#000000; stroke-width:39.3701; stroke-opacity:1; 
stroke-linecap:round; stroke-linejoin:round;">
</g>
<g style="fill:#000000; fill-opacity:0.0; 
stroke:#000000; stroke-width:59.0551; stroke-opacity:1; 
stroke-linecap:round; stroke-linejoin:round;">
<path d="M43307 77955
L43307 78742
" />
</g>
<g style="fill:#000000; fill-opacity:0.0; 
stroke:#000000; stroke-width:39.3701; stroke-opacity:1; 
stroke-linecap:round; stroke-linejoin:round;">
</g>
<g style="fill:#000000; fill-opacity:0.0; 
stroke:#000000; stroke-width:59.0551; stroke-opacity:1; 
stroke-linecap:round; stroke-linejoin:round;">
<path d="M62992 77955
L62992 78742
" />
</g>
<g style="fill:#000000; fill-opacity:0.0; 
stroke:#000000; stroke-width:39.3701; stroke-opacity:1; 
stroke-linecap:round; stroke-linejoin:round;">
</g>
<g style="fill:#000000; fill-opacity:0.0; 
stroke:#000000; stroke-width:59.0551; stroke-opacity:1; 
stroke-linecap:round; stroke-linejoin:round;">
<path d="M82677 77955
L82677 78742
" />
</g>
<g style="fill:#000000; fill-opacity:0.0; 
stroke:#000000; stroke-width:39.3701; stroke-opacity:1; 
stroke-linecap:round; stroke-linejoin:round;">
</g>
<g style="fill:#000000; fill-opacity:0.0; 
stroke:#000000; stroke-width:59.0551; stroke-opacity:1; 
stroke-linecap:round; stroke-linejoin:round;">
<path d="M102362 77955
L102362 78742
" />
</g>
<g style="fill:#000000; fill-opacity:0.0; 
stroke:#000000; stroke-width:39.3701; stroke-opacity:1; 
stroke-linecap:round; stroke-linejoin:round;">
</g>
<g style="fill:#000000; fill-opacity:0.0; 
stroke:#000000; stroke-width:59.0551; stroke-opacity:1; 
stroke-linecap:round; stroke-linejoin:round;">
<path d="M14199 78580
L13906 78580
" />
<path d="M14052 78580
L14052 78069
L14004 78142
L13955 78190
L13906 78215
" />
</g>
<g style="fill:#000000; fill-opacity:0.0; 
stroke:#000000; stroke-width:39.3701; stroke-opacity:1; 
stroke-linecap:round; stroke-linejoin:round;">
</g>
<g style="fill:#000000; fill-opacity:0.0; 
stroke:#000000; stroke-width:59.0551; stroke-opacity:1; 
stroke-linecap:round; stroke-linejoin:round;">
<path d="M33591 78117
L33615 78093
L33664 78069
L33786 78069
L33835 78093
L33859 78117
L33884 78166
L33884 78215
L33859 78288
L33567 78580
L33884 78580
" />
</g>
<g style="fill:#000000; fill-opacity:0.0; 
stroke:#000000; stroke-width:39.3701; stroke-opacity:1; 
stroke-linecap:round; stroke-linejoin:round;">
</g>
<g style="fill:#000000; fill-opacity:0.0; 
stroke:#000000; stroke-width:59.0551; stroke-opacity:1; 
stroke-linecap:round; stroke-linejoin:round;">
<path d="M53252 78069
L53569 78069
L53398 78263
L53471 78263
L53520 78288
L53544 78312
L53569 78361
L53569 78483
L53544 78532
L53520 78556
L53471 78580
L53325 78580
L53276 78556
L53252 78532
" />
</g>
<g style="fill:#000000; fill-opacity:0.0; 
stroke:#000000; stroke-width:39.3701; stroke-opacity:1; 
stroke-linecap:round; stroke-linejoin:round;">
</g>
<g style="fill:#000000; fill-opacity:0.0; 
stroke:#000000; stroke-width:59.0551; stroke-opacity:1; 
stroke-linecap:round; stroke-linejoin:round;">
<path d="M73205 78239
L73205 78580
" />
<path d="M73083 78044
L72961 78410
L73278 78410
" />
</g>
<g style="fill:#000000; fill-opacity:0.0; 
stroke:#000000; stroke-width:39.3701; stroke-opacity:1; 
stroke-linecap:round; stroke-linejoin:round;">
</g>
<g style="fill:#000000; fill-opacity:0.0; 
stroke:#000000; stroke-width:59.0551; stroke-opacity:1; 
stroke-linecap:round; stroke-linejoin:round;">
<path d="M92914 78069
L92671 78069
L92646 78312
L92671 78288
L92719 78263
L92841 78263
L92890 78288
L92914 78312
L92939 78361
L92939 78483
L92914 78532
L92890 78556
L92841 78580
L92719 78580
L92671 78556
L92646 78532
" />
</g>
<g style="fill:#000000; fill-opacity:0.0; 
stroke:#000000; stroke-width:39.3701; stroke-opacity:1; 
stroke-linecap:round; stroke-linejoin:round;">
</g>
<g style="fill:#000000; fill-opacity:0.0; 
stroke:#000000; stroke-width:59.0551; stroke-opacity:1; 
stroke-linecap:round; stroke-linejoin:round;">
<path d="M112575 78069
L112477 78069
L112429 78093
L112404 78117
L112356 78190
L112331 78288
L112331 78483
L112356 78532
L112380 78556
L112429 78580
L112526 78580
L112575 78556
L112599 78532
L112624 78483
L112624 78361
L112599 78312
L112575 78288
L112526 78263
L112429 78263
L112380 78288
L112356 78312
L112331 78361
" />
</g>
<g style="fill:#000000; fill-opacity:0.0; 
stroke:#000000; stroke-width:39.3701; stroke-opacity:1; 
stroke-linecap:round; stroke-linejoin:round;">
</g>
<g style="fill:#000000; fill-opacity:0.0; 
stroke:#000000; stroke-width:59.0551; stroke-opacity:1; 
stroke-linecap:round; stroke-linejoin:round;">
<path d="M3937 23622
L4724 23622
" />
</g>
<g style="fill:#000000; fill-opacity:0.0; 
stroke:#000000; stroke-width:39.3701; stroke-opacity:1; 
stroke-linecap:round; stroke-linejoin:round;">
</g>
<g style="fill:#000000; fill-opacity:0.0; 
stroke:#000000; stroke-width:59.0551; stroke-opacity:1; 
stroke-linecap:round; stroke-linejoin:round;">
<path d="M3937 43307
L4724 43307
" />
</g>
<g style="fill:#000000; fill-opacity:0.0; 
stroke:#000000; stroke-width:39.3701; stroke-opacity:1; 
stroke-linecap:round; stroke-linejoin:round;">
</g>
<g style="fill:#000000; fill-opacity:0.0; 
stroke:#000000; stroke-width:59.0551; stroke-opacity:1; 
stroke-linecap:round; stroke-linejoin:round;">
<path d="M3937 62992
L4724 62992
" />
</g>
<g style="fill:#000000; fill-opacity:0.0; 
stroke:#000000; stroke-width:39.3701; stroke-opacity:1; 
stroke-linecap:round; stroke-linejoin:round;">
</g>
<g style="fill:#000000; fill-opacity:0.0; 
stroke:#000000; stroke-width:59.0551; stroke-opacity:1; 
stroke-linecap:round; stroke-linejoin:round;">
<path d="M4208 13864
L4452 13864
" />
<path d="M4160 14011
L4330 13499
L4501 14011
" />
</g>
<g style="fill:#000000; fill-opacity:0.0; 
stroke:#000000; stroke-width:39.3701; stroke-opacity:1; 
stroke-linecap:round; stroke-linejoin:round;">
</g>
<g style="fill:#000000; fill-opacity:0.0; 
stroke:#000000; stroke-width:59.0551; stroke-opacity:1; 
stroke-linecap:round; stroke-linejoin:round;">
<path d="M4367 33428
L4440 33452
L4464 33476
L4489 33525
L4489 33598
L4464 33647
L4440 33671
L4391 33696
L4196 33696
L4196 33184
L4367 33184
L4416 33208
L4440 33233
L4464 33281
L4464 33330
L4440 33379
L4416 33403
L4367 33428
L4196 33428
" />
</g>
<g style="fill:#000000; fill-opacity:0.0; 
stroke:#000000; stroke-width:39.3701; stroke-opacity:1; 
stroke-linecap:round; stroke-linejoin:round;">
</g>
<g style="fill:#000000; fill-opacity:0.0; 
stroke:#000000; stroke-width:59.0551; stroke-opacity:1; 
stroke-linecap:round; stroke-linejoin:round;">
<path d="M4489 53332
L4464 53356
L4391 53381
L4342 53381
L4269 53356
L4221 53308
L4196 53259
L4172 53161
L4172 53088
L4196 52991
L4221 52942
L4269 52893
L4342 52869
L4391 52869
L4464 52893
L4489 52918
" />
</g>
<g style="fill:#000000; fill-opacity:0.0; 
stroke:#000000; stroke-width:39.3701; stroke-opacity:1; 
stroke-linecap:round; stroke-linejoin:round;">
</g>
<g style="fill:#000000; fill-opacity:0.0; 
stroke:#000000; stroke-width:59.0551; stroke-opacity:1; 
stroke-linecap:round; stroke-linejoin:round;">
<path d="M4196 73066
L4196 72554
L4318 72554
L4391 72578
L4440 72627
L4464 72676
L4489 72773
L4489 72846
L4464 72944
L4440 72993
L4391 73041
L4318 73066
L4196 73066
" />
</g>
<g style="fill:#000000; fill-opacity:0.0; 
stroke:#000000; stroke-width:39.3701; stroke-opacity:1; 
stroke-linecap:round; stroke-linejoin:round;">
</g>
<g style="fill:#000000; fill-opacity:0.0; 
stroke:#000000; stroke-width:59.0551; stroke-opacity:1; 
stroke-linecap:round; stroke-linejoin:round;">
<path d="M112992 23622
L112205 23622
" />
</g>
<g style="fill:#000000; fill-opacity:0.0; 
stroke:#000000; stroke-width:39.3701; stroke-opacity:1; 
stroke-linecap:round; stroke-linejoin:round;">
</g>
<g style="fill:#000000; fill-opacity:0.0; 
stroke:#000000; stroke-width:59.0551; stroke-opacity:1; 
stroke-linecap:round; stroke-linejoin:round;">
<path d="M112992 43307
L112205 43307
" />
</g>
<g style="fill:#000000; fill-opacity:0.0; 
stroke:#000000; stroke-width:39.3701; stroke-opacity:1; 
stroke-linecap:round; stroke-linejoin:round;">
</g>
<g style="fill:#000000; fill-opacity:0.0; 
stroke:#000000; stroke-width:59.0551; stroke-opacity:1; 
stroke-linecap:round; stroke-linejoin:round;">
<path d="M112992 62992
L112205 62992
" />
</g>
<g style="fill:#000000; fill-opacity:0.0; 
stroke:#000000; stroke-width:39.3701; stroke-opacity:1; 
stroke-linecap:round; stroke-linejoin:round;">
</g>
<g style="fill:#000000; fill-opacity:0.0; 
stroke:#000000; stroke-width:59.0551; stroke-opacity:1; 
stroke-linecap:round; stroke-linejoin:round;">
<path d="M112477 13864
L112721 13864
" />
<path d="M112428 14011
L112599 13499
L112769 14011
" />
</g>
<g style="fill:#000000; fill-opacity:0.0; 
stroke:#000000; stroke-width:39.3701; stroke-opacity:1; 
stroke-linecap:round; stroke-linejoin:round;">
</g>
<g style="fill:#000000; fill-opacity:0.0; 
stroke:#000000; stroke-width:59.0551; stroke-opacity:1; 
stroke-linecap:round; stroke-linejoin:round;">
<path d="M112635 33428
L112708 33452
L112733 33476
L112757 33525
L112757 33598
L112733 33647
L112708 33671
L112660 33696
L112465 33696
L112465 33184
L112635 33184
L112684 33208
L112708 33233
L112733 33281
L112733 33330
L112708 33379
L112684 33403
L112635 33428
L112465 33428
" />
</g>
<g style="fill:#000000; fill-opacity:0.0; 
stroke:#000000; stroke-width:39.3701; stroke-opacity:1; 
stroke-linecap:round; stroke-linejoin:round;">
</g>
<g style="fill:#000000; fill-opacity:0.0; 
stroke:#000000; stroke-width:59.0551; stroke-opacity:1; 
stroke-linecap:round; stroke-linejoin:round;">
<path d="M112757 53332
L112733 53356
L112660 53381
L112611 53381
L112538 53356
L112489 53308
L112465 53259
L112440 53161
L112440 53088
L112465 52991
L112489 52942
L112538 52893
L112611 52869
L112660 52869
L112733 52893
L112757 52918
" />
</g>
<g style="fill:#000000; fill-opacity:0.0; 
stroke:#000000; stroke-width:39.3701; stroke-opacity:1; 
stroke-linecap:round; stroke-linejoin:round;">
</g>
<g style="fill:#000000; fill-opacity:0.0; 
stroke:#000000; stroke-width:59.0551; stroke-opacity:1; 
stroke-linecap:round; stroke-linejoin:round;">
<path d="M112465 73066
L112465 72554
L112587 72554
L112660 72578
L112708 72627
L112733 72676
L112757 72773
L112757 72846
L112733 72944
L112708 72993
L112660 73041
L112587 73066
L112465 73066
" />
</g>
<g style="fill:#000000; fill-opacity:0.0; 
stroke:#000000; stroke-width:39.3701; stroke-opacity:1; 
stroke-linecap:round; stroke-linejoin:round;">
</g>
<g style="fill:#000000; fill-opacity:0.0; 
stroke:#000000; stroke-width:59.0551; stroke-opacity:1; 
stroke-linecap:round; stroke-linejoin:round;">
<path d="M78911 76293
L78911 75703
L79051 75703
L79136 75731
L79192 75787
L79220 75843
L79248 75956
L79248 76040
L79220 76153
L79192 76209
L79136 76265
L79051 76293
L78911 76293
" />
<path d="M79754 76293
L79754 75984
L79726 75928
L79670 75899
L79557 75899
L79501 75928
" />
<path d="M79754 76265
L79698 76293
L79557 76293
L79501 76265
L79473 76209
L79473 76153
L79501 76096
L79557 76068
L79698 76068
L79754 76040
" />
<path d="M79951 75899
L80176 75899
" />
<path d="M80036 75703
L80036 76209
L80064 76265
L80120 76293
L80176 76293
" />
<path d="M80598 76265
L80542 76293
L80429 76293
L80373 76265
L80345 76209
L80345 75984
L80373 75928
L80429 75899
L80542 75899
L80598 75928
L80626 75984
L80626 76040
L80345 76096
" />
<path d="M80879 76237
L80907 76265
L80879 76293
L80851 76265
L80879 76237
L80879 76293
" />
<path d="M80879 75928
L80907 75956
L80879 75984
L80851 75956
L80879 75928
L80879 75984
" />
</g>
<g style="fill:#000000; fill-opacity:0.0; 
stroke:#000000; stroke-width:39.3701; stroke-opacity:1; 
stroke-linecap:round; stroke-linejoin:round;">
</g>
<g style="fill:#000000; fill-opacity:0.0; 
stroke:#000000; stroke-width:59.0551; stroke-opacity:1; 
stroke-linecap:round; stroke-linejoin:round;">
<path d="M69685 76577
L112205 76577
" />
</g>
<g style="fill:#000000; fill-opacity:0.0; 
stroke:#000000; stroke-width:39.3701; stroke-opacity:1; 
stroke-linecap:round; stroke-linejoin:round;">
</g>
<g style="fill:#000000; fill-opacity:0.0; 
stroke:#000000; stroke-width:59.0551; stroke-opacity:1; 
stroke-linecap:round; stroke-linejoin:round;">
<path d="M70249 77395
L70249 76805
" />
<path d="M70587 77395
L70334 77058
" />
<path d="M70587 76805
L70249 77142
" />
<path d="M70840 77395
L70840 77002
" />
<path d="M70840 76805
L70812 76833
L70840 76861
L70868 76833
L70840 76805
L70840 76861
" />
<path d="M71458 77339
L71430 77367
L71346 77395
L71290 77395
L71205 77367
L71149 77311
L71121 77255
L71093 77142
L71093 77058
L71121 76946
L71149 76889
L71205 76833
L71290 76805
L71346 76805
L71430 76833
L71458 76861
" />
<path d="M71965 77395
L71965 77086
L71937 77030
L71880 77002
L71768 77002
L71712 77030
" />
<path d="M71965 77367
L71908 77395
L71768 77395
L71712 77367
L71683 77311
L71683 77255
L71712 77199
L71768 77171
L71908 77171
L71965 77142
" />
<path d="M72499 77395
L72499 76805
" />
<path d="M72499 77367
L72443 77395
L72330 77395
L72274 77367
L72246 77339
L72218 77283
L72218 77114
L72246 77058
L72274 77030
L72330 77002
L72443 77002
L72499 77030
" />
<path d="M73230 77086
L73427 77086
" />
<path d="M73511 77395
L73230 77395
L73230 76805
L73511 76805
" />
<path d="M73764 77339
L73793 77367
L73764 77395
L73736 77367
L73764 77339
L73764 77395
" />
<path d="M74046 77395
L74046 76805
L74186 76805
L74271 76833
L74327 76889
L74355 76946
L74383 77058
L74383 77142
L74355 77255
L74327 77311
L74271 77367
L74186 77395
L74046 77395
" />
<path d="M74636 77339
L74664 77367
L74636 77395
L74608 77367
L74636 77339
L74636 77395
" />
<path d="M74889 77227
L75171 77227
" />
<path d="M74833 77395
L75030 76805
L75227 77395
" />
<path d="M75424 77339
L75452 77367
L75424 77395
L75395 77367
L75424 77339
L75424 77395
" />
<path d="M76605 77002
L76605 77592
" />
<path d="M76605 77030
L76661 77002
L76773 77002
L76830 77030
L76858 77058
L76886 77114
L76886 77283
L76858 77339
L76830 77367
L76773 77395
L76661 77395
L76605 77367
" />
<path d="M77392 77367
L77336 77395
L77223 77395
L77167 77367
L77139 77339
L77111 77283
L77111 77114
L77139 77058
L77167 77030
L77223 77002
L77336 77002
L77392 77030
" />
<path d="M77645 77395
L77645 76805
" />
<path d="M77645 77030
L77701 77002
L77814 77002
L77870 77030
L77898 77058
L77926 77114
L77926 77283
L77898 77339
L77870 77367
L77814 77395
L77701 77395
L77645 77367
" />
<path d="M78180 77002
L78180 77395
" />
<path d="M78180 77058
L78208 77030
L78264 77002
L78348 77002
L78404 77030
L78433 77086
L78433 77395
" />
<path d="M78939 77367
L78883 77395
L78770 77395
L78714 77367
L78686 77311
L78686 77086
L78714 77030
L78770 77002
L78883 77002
L78939 77030
L78967 77086
L78967 77142
L78686 77199
" />
<path d="M79164 77002
L79276 77395
L79389 77114
L79501 77395
L79614 77002
" />
<path d="M80457 77620
L80429 77592
L80373 77508
L80345 77452
L80317 77367
L80289 77227
L80289 77114
L80317 76974
L80345 76889
L80373 76833
L80429 76749
L80457 76721
" />
<path d="M80935 76805
L80823 76805
L80767 76833
L80739 76861
L80682 76946
L80654 77058
L80654 77283
L80682 77339
L80710 77367
L80767 77395
L80879 77395
L80935 77367
L80964 77339
L80992 77283
L80992 77142
L80964 77086
L80935 77058
L80879 77030
L80767 77030
L80710 77058
L80682 77086
L80654 77142
" />
<path d="M81245 77339
L81273 77367
L81245 77395
L81217 77367
L81245 77339
L81245 77395
" />
<path d="M81638 76805
L81695 76805
L81751 76833
L81779 76861
L81807 76917
L81835 77030
L81835 77171
L81807 77283
L81779 77339
L81751 77367
L81695 77395
L81638 77395
L81582 77367
L81554 77339
L81526 77283
L81498 77171
L81498 77030
L81526 76917
L81554 76861
L81582 76833
L81638 76805
" />
<path d="M82088 77339
L82117 77367
L82088 77395
L82060 77367
L82088 77339
L82088 77395
" />
<path d="M82482 76805
L82538 76805
L82595 76833
L82623 76861
L82651 76917
L82679 77030
L82679 77171
L82651 77283
L82623 77339
L82595 77367
L82538 77395
L82482 77395
L82426 77367
L82398 77339
L82370 77283
L82341 77171
L82341 77030
L82370 76917
L82398 76861
L82426 76833
L82482 76805
" />
<path d="M82932 77171
L83382 77171
" />
<path d="M83663 77395
L83663 77002
" />
<path d="M83663 77114
L83691 77058
L83719 77030
L83776 77002
L83832 77002
" />
<path d="M84282 77367
L84226 77395
L84113 77395
L84057 77367
L84029 77339
L84001 77283
L84001 77114
L84029 77058
L84057 77030
L84113 77002
L84226 77002
L84282 77030
" />
<path d="M84844 77395
L84507 77395
" />
<path d="M84676 77395
L84676 76805
L84619 76889
L84563 76946
L84507 76974
" />
<path d="M85097 77171
L85547 77171
" />
<path d="M86082 77395
L86082 76805
" />
<path d="M86082 77367
L86025 77395
L85913 77395
L85857 77367
L85829 77339
L85800 77283
L85800 77114
L85829 77058
L85857 77030
L85913 77002
L86025 77002
L86082 77030
" />
<path d="M86588 77367
L86532 77395
L86419 77395
L86363 77367
L86335 77311
L86335 77086
L86363 77030
L86419 77002
L86532 77002
L86588 77030
L86616 77086
L86616 77142
L86335 77199
" />
<path d="M86813 77002
L86953 77395
L87094 77002
" />
<path d="M87319 77171
L87769 77171
" />
<path d="M88331 76805
L88050 76805
L88022 77086
L88050 77058
L88106 77030
L88247 77030
L88303 77058
L88331 77086
L88359 77142
L88359 77283
L88331 77339
L88303 77367
L88247 77395
L88106 77395
L88050 77367
L88022 77339
" />
<path d="M88556 76805
L88950 76805
L88697 77395
" />
<path d="M89119 76805
L89512 76805
L89259 77395
" />
<path d="M89737 77171
L90187 77171
" />
<path d="M90722 77002
L90722 77480
L90694 77536
L90665 77564
L90609 77592
L90525 77592
L90469 77564
" />
<path d="M90722 77367
L90665 77395
L90553 77395
L90497 77367
L90469 77339
L90440 77283
L90440 77114
L90469 77058
L90497 77030
L90553 77002
L90665 77002
L90722 77030
" />
<path d="M91228 77367
L91172 77395
L91059 77395
L91003 77367
L90975 77311
L90975 77086
L91003 77030
L91059 77002
L91172 77002
L91228 77030
L91256 77086
L91256 77142
L90975 77199
" />
<path d="M91622 76805
L91678 76805
L91734 76833
L91762 76861
L91790 76917
L91818 77030
L91818 77171
L91790 77283
L91762 77339
L91734 77367
L91678 77395
L91622 77395
L91565 77367
L91537 77339
L91509 77283
L91481 77171
L91481 77030
L91509 76917
L91537 76861
L91565 76833
L91622 76805
" />
<path d="M92015 76805
L92381 76805
L92184 77030
L92268 77030
L92325 77058
L92353 77086
L92381 77142
L92381 77283
L92353 77339
L92325 77367
L92268 77395
L92100 77395
L92043 77367
L92015 77339
" />
<path d="M92943 77395
L92606 77395
" />
<path d="M92775 77395
L92775 76805
L92718 76889
L92662 76946
L92606 76974
" />
<path d="M93449 76805
L93337 76805
L93281 76833
L93253 76861
L93196 76946
L93168 77058
L93168 77283
L93196 77339
L93224 77367
L93281 77395
L93393 77395
L93449 77367
L93478 77339
L93506 77283
L93506 77142
L93478 77086
L93449 77058
L93393 77030
L93281 77030
L93224 77058
L93196 77086
L93168 77142
" />
<path d="M94012 77395
L94012 77086
L93984 77030
L93928 77002
L93815 77002
L93759 77030
" />
<path d="M94012 77367
L93956 77395
L93815 77395
L93759 77367
L93731 77311
L93731 77255
L93759 77199
L93815 77171
L93956 77171
L94012 77142
" />
<path d="M94209 77002
L94434 77002
" />
<path d="M94293 77395
L94293 76889
L94321 76833
L94377 76805
L94434 76805
" />
<path d="M94884 76805
L94771 76805
L94715 76833
L94687 76861
L94631 76946
L94602 77058
L94602 77283
L94631 77339
L94659 77367
L94715 77395
L94827 77395
L94884 77367
L94912 77339
L94940 77283
L94940 77142
L94912 77086
L94884 77058
L94827 77030
L94715 77030
L94659 77058
L94631 77086
L94602 77142
" />
<path d="M95221 77395
L95334 77395
L95390 77367
L95418 77339
L95474 77255
L95502 77142
L95502 76917
L95474 76861
L95446 76833
L95390 76805
L95277 76805
L95221 76833
L95193 76861
L95165 76917
L95165 77058
L95193 77114
L95221 77142
L95277 77171
L95390 77171
L95446 77142
L95474 77114
L95502 77058
" />
<path d="M95699 77620
L95727 77592
L95784 77508
L95812 77452
L95840 77367
L95868 77227
L95868 77114
L95840 76974
L95812 76889
L95784 76833
L95727 76749
L95699 76721
" />
</g>
<g style="fill:#000000; fill-opacity:0.0; 
stroke:#000000; stroke-width:39.3701; stroke-opacity:1; 
stroke-linecap:round; stroke-linejoin:round;">
</g>
<g style="fill:#000000; fill-opacity:0.0; 
stroke:#000000; stroke-width:59.0551; stroke-opacity:1; 
stroke-linecap:round; stroke-linejoin:round;">
<path d="M69685 75396
L112205 75396
" />
</g>
<g style="fill:#000000; fill-opacity:0.0; 
stroke:#000000; stroke-width:39.3701; stroke-opacity:1; 
stroke-linecap:round; stroke-linejoin:round;">
</g>
<g style="fill:#000000; fill-opacity:0.0; 
stroke:#000000; stroke-width:118.11; stroke-opacity:1; 
stroke-linecap:round; stroke-linejoin:round;">
<path d="M104099 76293
L103902 76012
" />
<path d="M103761 76293
L103761 75703
L103986 75703
L104042 75731
L104070 75759
L104099 75815
L104099 75899
L104070 75956
L104042 75984
L103986 76012
L103761 76012
" />
<path d="M104577 76265
L104520 76293
L104408 76293
L104352 76265
L104323 76209
L104323 75984
L104352 75928
L104408 75899
L104520 75899
L104577 75928
L104605 75984
L104605 76040
L104323 76096
" />
<path d="M104802 75899
L104942 76293
L105083 75899
" />
<path d="M105308 76237
L105336 76265
L105308 76293
L105280 76265
L105308 76237
L105308 76293
" />
<path d="M105308 75928
L105336 75956
L105308 75984
L105280 75956
L105308 75928
L105308 75984
" />
</g>
<g style="fill:#000000; fill-opacity:0.0; 
stroke:#000000; stroke-width:39.3701; stroke-opacity:1; 
stroke-linecap:round; stroke-linejoin:round;">
</g>
<g style="fill:#000000; fill-opacity:0.0; 
stroke:#000000; stroke-width:59.0551; stroke-opacity:1; 
stroke-linecap:round; stroke-linejoin:round;">
<path d="M70221 76265
L70305 76293
L70446 76293
L70502 76265
L70530 76237
L70559 76181
L70559 76124
L70530 76068
L70502 76040
L70446 76012
L70334 75984
L70277 75956
L70249 75928
L70221 75871
L70221 75815
L70249 75759
L70277 75731
L70334 75703
L70474 75703
L70559 75731
" />
<path d="M70812 76293
L70812 75899
" />
<path d="M70812 75703
L70784 75731
L70812 75759
L70840 75731
L70812 75703
L70812 75759
" />
<path d="M71037 75899
L71346 75899
L71037 76293
L71346 76293
" />
<path d="M71796 76265
L71740 76293
L71627 76293
L71571 76265
L71543 76209
L71543 75984
L71571 75928
L71627 75899
L71740 75899
L71796 75928
L71824 75984
L71824 76040
L71543 76096
" />
<path d="M72077 76237
L72105 76265
L72077 76293
L72049 76265
L72077 76237
L72077 76293
" />
<path d="M72077 75928
L72105 75956
L72077 75984
L72049 75956
L72077 75928
L72077 75984
" />
<path d="M72780 76124
L73061 76124
" />
<path d="M72724 76293
L72921 75703
L73118 76293
" />
<path d="M73568 75899
L73568 76293
" />
<path d="M73427 75674
L73286 76096
L73652 76096
" />
</g>
<g style="fill:#000000; fill-opacity:0.0; 
stroke:#000000; stroke-width:39.3701; stroke-opacity:1; 
stroke-linecap:round; stroke-linejoin:round;">
</g>
<g style="fill:#000000; fill-opacity:0.0; 
stroke:#000000; stroke-width:59.0551; stroke-opacity:1; 
stroke-linecap:round; stroke-linejoin:round;">
<path d="M103714 77395
L103714 76805
" />
<path d="M104248 77395
L104248 76805
" />
<path d="M104248 77367
L104192 77395
L104079 77395
L104023 77367
L103995 77339
L103967 77283
L103967 77114
L103995 77058
L104023 77030
L104079 77002
L104192 77002
L104248 77030
" />
<path d="M104529 77339
L104557 77367
L104529 77395
L104501 77367
L104529 77339
L104529 77395
" />
<path d="M104529 77030
L104557 77058
L104529 77086
L104501 77058
L104529 77030
L104529 77086
" />
<path d="M105570 77395
L105232 77395
" />
<path d="M105401 77395
L105401 76805
L105345 76889
L105289 76946
L105232 76974
" />
<path d="M106245 76777
L105739 77536
" />
<path d="M106751 77395
L106413 77395
" />
<path d="M106582 77395
L106582 76805
L106526 76889
L106470 76946
L106413 76974
" />
</g>
<g style="fill:#000000; fill-opacity:0.0; 
stroke:#000000; stroke-width:39.3701; stroke-opacity:1; 
stroke-linecap:round; stroke-linejoin:round;">
</g>
<g style="fill:#000000; fill-opacity:0.0; 
stroke:#000000; stroke-width:59.0551; stroke-opacity:1; 
stroke-linecap:round; stroke-linejoin:round;">
<path d="M69685 73821
L112205 73821
" />
</g>
<g style="fill:#000000; fill-opacity:0.0; 
stroke:#000000; stroke-width:39.3701; stroke-opacity:1; 
stroke-linecap:round; stroke-linejoin:round;">
</g>
<g style="fill:#000000; fill-opacity:0.0; 
stroke:#000000; stroke-width:157.48; stroke-opacity:1; 
stroke-linecap:round; stroke-linejoin:round;">
<path d="M70360 74099
L70810 74099
" />
<path d="M70486 74886
L70585 74099
" />
<path d="M70974 74886
L71039 74361
" />
<path d="M71072 74099
L71030 74136
L71063 74174
L71105 74136
L71072 74099
L71063 74174
" />
<path d="M71302 74361
L71602 74361
" />
<path d="M71447 74099
L71363 74774
L71391 74849
L71461 74886
L71536 74886
" />
<path d="M71911 74886
L71841 74849
L71813 74774
L71897 74099
" />
<path d="M72516 74849
L72436 74886
L72286 74886
L72216 74849
L72187 74774
L72225 74474
L72272 74399
L72352 74361
L72501 74361
L72572 74399
L72600 74474
L72591 74549
L72206 74624
" />
<path d="M72895 74811
L72928 74849
L72886 74886
L72853 74849
L72895 74811
L72886 74886
" />
<path d="M72947 74399
L72980 74436
L72937 74474
L72905 74436
L72947 74399
L72937 74474
" />
</g>
<g style="fill:#000000; fill-opacity:0.0; 
stroke:#000000; stroke-width:39.3701; stroke-opacity:1; 
stroke-linecap:round; stroke-linejoin:round;">
</g>
<g style="fill:#000000; fill-opacity:0.0; 
stroke:#000000; stroke-width:59.0551; stroke-opacity:1; 
stroke-linecap:round; stroke-linejoin:round;">
<path d="M70446 73070
L70249 73070
" />
<path d="M70249 73380
L70249 72789
L70530 72789
" />
<path d="M70755 73380
L70755 72986
" />
<path d="M70755 72789
L70727 72817
L70755 72845
L70784 72817
L70755 72789
L70755 72845
" />
<path d="M71121 73380
L71065 73352
L71037 73295
L71037 72789
" />
<path d="M71571 73352
L71515 73380
L71402 73380
L71346 73352
L71318 73295
L71318 73070
L71346 73014
L71402 72986
L71515 72986
L71571 73014
L71599 73070
L71599 73127
L71318 73183
" />
<path d="M71852 73323
L71880 73352
L71852 73380
L71824 73352
L71852 73323
L71852 73380
" />
<path d="M71852 73014
L71880 73042
L71852 73070
L71824 73042
L71852 73014
L71852 73070
" />
<path d="M72668 73380
L72611 73352
L72583 73323
L72555 73267
L72555 73099
L72583 73042
L72611 73014
L72668 72986
L72752 72986
L72808 73014
L72836 73042
L72865 73099
L72865 73267
L72836 73323
L72808 73352
L72752 73380
L72668 73380
" />
<path d="M73118 73380
L73118 72986
" />
<path d="M73118 73099
L73146 73042
L73174 73014
L73230 72986
L73286 72986
" />
<path d="M73736 72986
L73736 73464
L73708 73520
L73680 73548
L73624 73577
L73539 73577
L73483 73548
" />
<path d="M73736 73352
L73680 73380
L73568 73380
L73511 73352
L73483 73323
L73455 73267
L73455 73099
L73483 73042
L73511 73014
L73568 72986
L73680 72986
L73736 73014
" />
<path d="M74102 73380
L74046 73352
L74018 73323
L73989 73267
L73989 73099
L74018 73042
L74046 73014
L74102 72986
L74186 72986
L74242 73014
L74271 73042
L74299 73099
L74299 73267
L74271 73323
L74242 73352
L74186 73380
L74102 73380
" />
<path d="M74552 72986
L74552 73380
" />
<path d="M74552 73042
L74580 73014
L74636 72986
L74721 72986
L74777 73014
L74805 73070
L74805 73380
" />
<path d="M75339 73380
L75339 73070
L75311 73014
L75255 72986
L75142 72986
L75086 73014
" />
<path d="M75339 73352
L75283 73380
L75142 73380
L75086 73352
L75058 73295
L75058 73239
L75086 73183
L75142 73155
L75283 73155
L75339 73127
" />
<path d="M75874 72986
L75874 73380
" />
<path d="M75620 72986
L75620 73295
L75649 73352
L75705 73380
L75789 73380
L75845 73352
L75874 73323
" />
<path d="M76070 72986
L76295 72986
" />
<path d="M76155 72789
L76155 73295
L76183 73352
L76239 73380
L76295 73380
" />
<path d="M76745 72789
L76633 72789
L76577 72817
L76548 72845
L76492 72930
L76464 73042
L76464 73267
L76492 73323
L76520 73352
L76577 73380
L76689 73380
L76745 73352
L76773 73323
L76802 73267
L76802 73127
L76773 73070
L76745 73042
L76689 73014
L76577 73014
L76520 73042
L76492 73070
L76464 73127
" />
<path d="M77308 72789
L77195 72789
L77139 72817
L77111 72845
L77055 72930
L77027 73042
L77027 73267
L77055 73323
L77083 73352
L77139 73380
L77251 73380
L77308 73352
L77336 73323
L77364 73267
L77364 73127
L77336 73070
L77308 73042
L77251 73014
L77139 73014
L77083 73042
L77055 73070
L77027 73127
" />
<path d="M77617 73323
L77645 73352
L77617 73380
L77589 73352
L77617 73323
L77617 73380
" />
<path d="M77898 73380
L77898 72789
" />
<path d="M77955 73155
L78123 73380
" />
<path d="M78123 72986
L77898 73211
" />
<path d="M78376 73380
L78376 72986
" />
<path d="M78376 72789
L78348 72817
L78376 72845
L78404 72817
L78376 72789
L78376 72845
" />
<path d="M78911 73352
L78854 73380
L78742 73380
L78686 73352
L78658 73323
L78629 73267
L78629 73099
L78658 73042
L78686 73014
L78742 72986
L78854 72986
L78911 73014
" />
<path d="M79417 73380
L79417 73070
L79389 73014
L79332 72986
L79220 72986
L79164 73014
" />
<path d="M79417 73352
L79361 73380
L79220 73380
L79164 73352
L79136 73295
L79136 73239
L79164 73183
L79220 73155
L79361 73155
L79417 73127
" />
<path d="M79951 73380
L79951 72789
" />
<path d="M79951 73352
L79895 73380
L79782 73380
L79726 73352
L79698 73323
L79670 73267
L79670 73099
L79698 73042
L79726 73014
L79782 72986
L79895 72986
L79951 73014
" />
<path d="M80092 73436
L80542 73436
" />
<path d="M80682 72986
L80682 73577
" />
<path d="M80682 73014
L80739 72986
L80851 72986
L80907 73014
L80935 73042
L80964 73099
L80964 73267
L80935 73323
L80907 73352
L80851 73380
L80739 73380
L80682 73352
" />
<path d="M81470 73352
L81413 73380
L81301 73380
L81245 73352
L81217 73323
L81188 73267
L81188 73099
L81217 73042
L81245 73014
L81301 72986
L81413 72986
L81470 73014
" />
<path d="M81723 73380
L81723 72789
" />
<path d="M81723 73014
L81779 72986
L81892 72986
L81948 73014
L81976 73042
L82004 73099
L82004 73267
L81976 73323
L81948 73352
L81892 73380
L81779 73380
L81723 73352
" />
</g>
<g style="fill:#000000; fill-opacity:0.0; 
stroke:#000000; stroke-width:39.3701; stroke-opacity:1; 
stroke-linecap:round; stroke-linejoin:round;">
</g>
<g style="fill:#000000; fill-opacity:0.0; 
stroke:#000000; stroke-width:59.0551; stroke-opacity:1; 
stroke-linecap:round; stroke-linejoin:round;">
<path d="M69685 71459
L112205 71459
" />
</g>
<g style="fill:#000000; fill-opacity:0.0; 
stroke:#000000; stroke-width:39.3701; stroke-opacity:1; 
stroke-linecap:round; stroke-linejoin:round;">
</g>
<g style="fill:#000000; fill-opacity:0.0; 
stroke:#000000; stroke-width:59.0551; stroke-opacity:1; 
stroke-linecap:round; stroke-linejoin:round;">
<path d="M70221 72289
L70305 72317
L70446 72317
L70502 72289
L70530 72260
L70559 72204
L70559 72148
L70530 72092
L70502 72064
L70446 72036
L70334 72007
L70277 71979
L70249 71951
L70221 71895
L70221 71839
L70249 71782
L70277 71754
L70334 71726
L70474 71726
L70559 71754
" />
<path d="M70812 72317
L70812 71726
" />
<path d="M71065 72317
L71065 72007
L71037 71951
L70980 71923
L70896 71923
L70840 71951
L70812 71979
" />
<path d="M71571 72289
L71515 72317
L71402 72317
L71346 72289
L71318 72232
L71318 72007
L71346 71951
L71402 71923
L71515 71923
L71571 71951
L71599 72007
L71599 72064
L71318 72120
" />
<path d="M72077 72289
L72021 72317
L71908 72317
L71852 72289
L71824 72232
L71824 72007
L71852 71951
L71908 71923
L72021 71923
L72077 71951
L72105 72007
L72105 72064
L71824 72120
" />
<path d="M72274 71923
L72499 71923
" />
<path d="M72358 71726
L72358 72232
L72386 72289
L72443 72317
L72499 72317
" />
<path d="M72696 72260
L72724 72289
L72696 72317
L72668 72289
L72696 72260
L72696 72317
" />
<path d="M72696 71951
L72724 71979
L72696 72007
L72668 71979
L72696 71951
L72696 72007
" />
</g>
<g style="fill:#000000; fill-opacity:0.0; 
stroke:#000000; stroke-width:39.3701; stroke-opacity:1; 
stroke-linecap:round; stroke-linejoin:round;">
</g>
<g style="fill:#000000; fill-opacity:0.0; 
stroke:#000000; stroke-width:59.0551; stroke-opacity:1; 
stroke-linecap:round; stroke-linejoin:round;">
<path d="M77559 75396
L77559 76577
" />
</g>
<g style="fill:#000000; fill-opacity:0.0; 
stroke:#000000; stroke-width:39.3701; stroke-opacity:1; 
stroke-linecap:round; stroke-linejoin:round;">
</g>
<g style="fill:#000000; fill-opacity:0.0; 
stroke:#000000; stroke-width:59.0551; stroke-opacity:1; 
stroke-linecap:round; stroke-linejoin:round;">
<path d="M102756 75396
L102756 77955
" />
</g>
<g style="fill:#C2C200; fill-opacity:0.0; 
stroke:#C2C200; stroke-width:59.0551; stroke-opacity:1; 
stroke-linecap:round; stroke-linejoin:round;">
</g>
<g style="fill:#C2C200; fill-opacity:0.0; 
stroke:#C2C200; stroke-width:60; stroke-opacity:1; 
stroke-linecap:round; stroke-linejoin:round;">
<path d="M86191 29177
L91504 27754
" />
<path d="M91504 27754
L92928 33066
" />
<path d="M92928 33066
L87615 34490
" />
<path d="M87615 34490
L86191 29177
" />
<path d="M121573 23579
L126886 22156
" />
<path d="M126886 22156
L128309 27468
" />
<path d="M128309 27468
L122997 28892
" />
<path d="M122997 28892
L121573 23579
" />
<path d="M-534 23892
L4777 25316
" />
<path d="M4777 25316
L4562 26118
" />
<path d="M4562 26118
L5181 26283
" />
<path d="M5181 26283
L5263 25974
" />
<path d="M5263 25974
L7794 26652
" />
<path d="M7794 26652
L7447 27947
" />
<path d="M7447 27947
L7776 28035
" />
<path d="M7776 28035
L7491 29097
" />
<path d="M7491 29097
L7163 29009
" />
<path d="M7163 29009
L6541 31327
" />
<path d="M6541 31327
L6145 31221
" />
<path d="M6145 31221
L6026 31665
" />
<path d="M6026 31665
L4288 31200
" />
<path d="M4288 31200
L4407 30755
" />
<path d="M4407 30755
L4011 30649
" />
<path d="M4011 30649
L4091 30350
" />
<path d="M4091 30350
L3473 30184
" />
<path d="M3473 30184
L3354 30628
" />
<path d="M3354 30628
L-1958 29205
" />
<path d="M-1958 29205
L-1839 28761
" />
<path d="M-1839 28761
L-2457 28595
" />
<path d="M-2457 28595
L-2537 28894
" />
<path d="M-2537 28894
L-2933 28788
" />
<path d="M-2933 28788
L-3052 29233
" />
<path d="M-3052 29233
L-4791 28767
" />
<path d="M-4791 28767
L-4672 28322
" />
<path d="M-4672 28322
L-5068 28216
" />
<path d="M-5068 28216
L-4447 25898
" />
<path d="M-4447 25898
L-4775 25810
" />
<path d="M-4775 25810
L-4490 24748
" />
<path d="M-4490 24748
L-4162 24836
" />
<path d="M-4162 24836
L-3815 23541
" />
<path d="M-3815 23541
L-1285 24219
" />
<path d="M-1285 24219
L-1367 24528
" />
<path d="M-1367 24528
L-749 24694
" />
<path d="M-749 24694
L-534 23892
" />
<path d="M95827 7184
L101140 5760
" />
<path d="M101140 5760
L102564 11073
" />
<path d="M102564 11073
L97251 12496
" />
<path d="M97251 12496
L95827 7184
" />
<path d="M18871 5799
L24184 7222
" />
<path d="M24184 7222
L22761 12535
" />
<path d="M22761 12535
L17448 11111
" />
<path d="M17448 11111
L18871 5799
" />
<path d="M26601 5929
L31914 7352
" />
<path d="M31914 7352
L30490 12665
" />
<path d="M30490 12665
L25178 11241
" />
<path d="M25178 11241
L26601 5929
" />
<path d="M34331 6059
L39643 7482
" />
<path d="M39643 7482
L38220 12795
" />
<path d="M38220 12795
L32907 11371
" />
<path d="M32907 11371
L34331 6059
" />
<path d="M41090 9811
L46403 11234
" />
<path d="M46403 11234
L44979 16547
" />
<path d="M44979 16547
L39667 15124
" />
<path d="M39667 15124
L41090 9811
" />
<path d="M47849 13563
L53162 14987
" />
<path d="M53162 14987
L51738 20299
" />
<path d="M51738 20299
L46426 18876
" />
<path d="M46426 18876
L47849 13563
" />
<path d="M66850 14948
L72162 13525
" />
<path d="M72162 13525
L73586 18838
" />
<path d="M73586 18838
L68273 20261
" />
<path d="M68273 20261
L66850 14948
" />
<path d="M73609 11196
L78921 9773
" />
<path d="M78921 9773
L80345 15085
" />
<path d="M80345 15085
L75032 16509
" />
<path d="M75032 16509
L73609 11196
" />
<path d="M80368 7444
L85681 6020
" />
<path d="M85681 6020
L87104 11333
" />
<path d="M87104 11333
L81792 12757
" />
<path d="M81792 12757
L80368 7444
" />
<path d="M88098 7314
L93410 5890
" />
<path d="M93410 5890
L94834 11203
" />
<path d="M94834 11203
L89521 12626
" />
<path d="M89521 12626
L88098 7314
" />
<path d="M14989 20288
L20302 21711
" />
<path d="M20302 21711
L18878 27024
" />
<path d="M18878 27024
L13566 25600
" />
<path d="M13566 25600
L14989 20288
" />
<path d="M33325 38789
L38638 40212
" />
<path d="M38638 40212
L37215 45525
" />
<path d="M37215 45525
L31902 44101
" />
<path d="M31902 44101
L33325 38789
" />
<path d="M42026 35297
L47338 36720
" />
<path d="M47338 36720
L45915 42033
" />
<path d="M45915 42033
L40602 40609
" />
<path d="M40602 40609
L42026 35297
" />
<path d="M106694 4272
L112007 2849
" />
<path d="M112007 2849
L112222 3650
" />
<path d="M112222 3650
L112840 3485
" />
<path d="M112840 3485
L112757 3176
" />
<path d="M112757 3176
L115288 2498
" />
<path d="M115288 2498
L115634 3792
" />
<path d="M115634 3792
L115963 3704
" />
<path d="M115963 3704
L116248 4766
" />
<path d="M116248 4766
L115919 4854
" />
<path d="M115919 4854
L116540 7173
" />
<path d="M116540 7173
L116144 7279
" />
<path d="M116144 7279
L116263 7723
" />
<path d="M116263 7723
L114525 8189
" />
<path d="M114525 8189
L114406 7745
" />
<path d="M114406 7745
L114010 7851
" />
<path d="M114010 7851
L113929 7551
" />
<path d="M113929 7551
L113311 7717
" />
<path d="M113311 7717
L113430 8161
" />
<path d="M113430 8161
L108118 9585
" />
<path d="M108118 9585
L107999 9140
" />
<path d="M107999 9140
L107380 9306
" />
<path d="M107380 9306
L107461 9606
" />
<path d="M107461 9606
L107065 9712
" />
<path d="M107065 9712
L107184 10156
" />
<path d="M107184 10156
L105445 10622
" />
<path d="M105445 10622
L105326 10177
" />
<path d="M105326 10177
L104930 10284
" />
<path d="M104930 10284
L104309 7965
" />
<path d="M104309 7965
L103980 8053
" />
<path d="M103980 8053
L103696 6991
" />
<path d="M103696 6991
L104024 6903
" />
<path d="M104024 6903
L103677 5609
" />
<path d="M103677 5609
L106208 4930
" />
<path d="M106208 4930
L106291 5240
" />
<path d="M106291 5240
L106909 5074
" />
<path d="M106909 5074
L106694 4272
" />
<path d="M28507 27792
L33820 29216
" />
<path d="M33820 29216
L32397 34528
" />
<path d="M32397 34528
L27084 33105
" />
<path d="M27084 33105
L28507 27792
" />
<path d="M99710 21673
L105022 20249
" />
<path d="M105022 20249
L106446 25562
" />
<path d="M106446 25562
L101133 26985
" />
<path d="M101133 26985
L99710 21673
" />
<path d="M18837 34906
L24149 36330
" />
<path d="M24149 36330
L22726 41643
" />
<path d="M22726 41643
L17413 40219
" />
<path d="M17413 40219
L18837 34906
" />
<path d="M30449 20548
L35761 21971
" />
<path d="M35761 21971
L34338 27284
" />
<path d="M34338 27284
L29025 25860
" />
<path d="M29025 25860
L30449 20548
" />
<path d="M4383 1916
L9695 3340
" />
<path d="M9695 3340
L8272 8652
" />
<path d="M8272 8652
L2959 7229
" />
<path d="M2959 7229
L4383 1916
" />
<path d="M88133 36422
L93445 34998
" />
<path d="M93445 34998
L94869 40311
" />
<path d="M94869 40311
L89556 41734
" />
<path d="M89556 41734
L88133 36422
" />
<path d="M32390 13303
L37702 14727
" />
<path d="M37702 14727
L36279 20039
" />
<path d="M36279 20039
L30966 18616
" />
<path d="M30966 18616
L32390 13303
" />
<path d="M72197 42633
L73621 47945
" />
<path d="M73621 47945
L72819 48160
" />
<path d="M72819 48160
L72985 48778
" />
<path d="M72985 48778
L73294 48696
" />
<path d="M73294 48696
L73972 51226
" />
<path d="M73972 51226
L72677 51573
" />
<path d="M72677 51573
L72765 51901
" />
<path d="M72765 51901
L71703 52186
" />
<path d="M71703 52186
L71615 51858
" />
<path d="M71615 51858
L69297 52479
" />
<path d="M69297 52479
L69191 52083
" />
<path d="M69191 52083
L68746 52202
" />
<path d="M68746 52202
L68280 50463
" />
<path d="M68280 50463
L68725 50344
" />
<path d="M68725 50344
L68619 49948
" />
<path d="M68619 49948
L68918 49868
" />
<path d="M68918 49868
L68752 49250
" />
<path d="M68752 49250
L68308 49369
" />
<path d="M68308 49369
L66885 44056
" />
<path d="M66885 44056
L67329 43937
" />
<path d="M67329 43937
L67163 43319
" />
<path d="M67163 43319
L66864 43399
" />
<path d="M66864 43399
L66758 43003
" />
<path d="M66758 43003
L66313 43122
" />
<path d="M66313 43122
L65847 41384
" />
<path d="M65847 41384
L66292 41265
" />
<path d="M66292 41265
L66186 40869
" />
<path d="M66186 40869
L68504 40247
" />
<path d="M68504 40247
L68416 39919
" />
<path d="M68416 39919
L69478 39634
" />
<path d="M69478 39634
L69566 39963
" />
<path d="M69566 39963
L70861 39616
" />
<path d="M70861 39616
L71539 42147
" />
<path d="M71539 42147
L71230 42229
" />
<path d="M71230 42229
L71395 42848
" />
<path d="M71395 42848
L72197 42633
" />
<path d="M111482 18518
L116795 17095
" />
<path d="M116795 17095
L117009 17897
" />
<path d="M117009 17897
L117628 17731
" />
<path d="M117628 17731
L117545 17422
" />
<path d="M117545 17422
L120076 16744
" />
<path d="M120076 16744
L120422 18038
" />
<path d="M120422 18038
L120751 17950
" />
<path d="M120751 17950
L121035 19013
" />
<path d="M121035 19013
L120707 19101
" />
<path d="M120707 19101
L121328 21419
" />
<path d="M121328 21419
L120932 21525
" />
<path d="M120932 21525
L121051 21969
" />
<path d="M121051 21969
L119313 22435
" />
<path d="M119313 22435
L119193 21991
" />
<path d="M119193 21991
L118797 22097
" />
<path d="M118797 22097
L118717 21798
" />
<path d="M118717 21798
L118099 21963
" />
<path d="M118099 21963
L118218 22407
" />
<path d="M118218 22407
L112905 23831
" />
<path d="M112905 23831
L112786 23387
" />
<path d="M112786 23387
L112168 23552
" />
<path d="M112168 23552
L112248 23852
" />
<path d="M112248 23852
L111852 23958
" />
<path d="M111852 23958
L111972 24402
" />
<path d="M111972 24402
L110233 24868
" />
<path d="M110233 24868
L110114 24424
" />
<path d="M110114 24424
L109718 24530
" />
<path d="M109718 24530
L109097 22212
" />
<path d="M109097 22212
L108768 22300
" />
<path d="M108768 22300
L108483 21237
" />
<path d="M108483 21237
L108812 21149
" />
<path d="M108812 21149
L108465 19855
" />
<path d="M108465 19855
L110996 19177
" />
<path d="M110996 19177
L111079 19486
" />
<path d="M111079 19486
L111697 19320
" />
<path d="M111697 19320
L111482 18518
" />
<path d="M11627 3857
L16940 5281
" />
<path d="M16940 5281
L15516 10594
" />
<path d="M15516 10594
L10203 9170
" />
<path d="M10203 9170
L11627 3857
" />
<path d="M37208 24300
L42520 25723
" />
<path d="M42520 25723
L41097 31036
" />
<path d="M41097 31036
L35784 29612
" />
<path d="M35784 29612
L37208 24300
" />
<path d="M43967 28052
L49279 29476
" />
<path d="M49279 29476
L47856 34788
" />
<path d="M47856 34788
L42543 33365
" />
<path d="M42543 33365
L43967 28052
" />
<path d="M70732 29437
L76045 28014
" />
<path d="M76045 28014
L77468 33326
" />
<path d="M77468 33326
L72156 34750
" />
<path d="M72156 34750
L70732 29437
" />
<path d="M82309 14688
L87622 13265
" />
<path d="M87622 13265
L89045 18577
" />
<path d="M89045 18577
L83733 20001
" />
<path d="M83733 20001
L82309 14688
" />
<path d="M77491 25685
L82804 24262
" />
<path d="M82804 24262
L84227 29574
" />
<path d="M84227 29574
L78915 30998
" />
<path d="M78915 30998
L77491 25685
" />
<path d="M84250 21933
L89563 20509
" />
<path d="M89563 20509
L90986 25822
" />
<path d="M90986 25822
L85674 27245
" />
<path d="M85674 27245
L84250 21933
" />
<path d="M91980 21803
L97293 20379
" />
<path d="M97293 20379
L98716 25692
" />
<path d="M98716 25692
L93404 27115
" />
<path d="M93404 27115
L91980 21803
" />
<path d="M52655 24581
L57968 26005
" />
<path d="M57968 26005
L56544 31318
" />
<path d="M56544 31318
L51231 29894
" />
<path d="M51231 29894
L52655 24581
" />
<path d="M81373 40174
L86686 38750
" />
<path d="M86686 38750
L88110 44063
" />
<path d="M88110 44063
L82797 45487
" />
<path d="M82797 45487
L81373 40174
" />
<path d="M11107 34776
L16419 36200
" />
<path d="M16419 36200
L14996 41512
" />
<path d="M14996 41512
L9683 40089
" />
<path d="M9683 40089
L11107 34776
" />
<path d="M40085 42541
L45397 43964
" />
<path d="M45397 43964
L43974 49277
" />
<path d="M43974 49277
L38661 47854
" />
<path d="M38661 47854
L40085 42541
" />
<path d="M79432 32930
L84745 31506
" />
<path d="M84745 31506
L86168 36819
" />
<path d="M86168 36819
L80856 38242
" />
<path d="M80856 38242
L79432 32930
" />
<path d="M72673 36682
L77986 35258
" />
<path d="M77986 35258
L79409 40571
" />
<path d="M79409 40571
L74097 41994
" />
<path d="M74097 41994
L72673 36682
" />
<path d="M3217 17133
L8529 18557
" />
<path d="M8529 18557
L8315 19358
" />
<path d="M8315 19358
L8933 19524
" />
<path d="M8933 19524
L9016 19215
" />
<path d="M9016 19215
L11546 19893
" />
<path d="M11546 19893
L11200 21187
" />
<path d="M11200 21187
L11528 21275
" />
<path d="M11528 21275
L11243 22338
" />
<path d="M11243 22338
L10915 22250
" />
<path d="M10915 22250
L10294 24568
" />
<path d="M10294 24568
L9898 24462
" />
<path d="M9898 24462
L9779 24906
" />
<path d="M9779 24906
L8040 24440
" />
<path d="M8040 24440
L8159 23996
" />
<path d="M8159 23996
L7763 23890
" />
<path d="M7763 23890
L7843 23591
" />
<path d="M7843 23591
L7225 23425
" />
<path d="M7225 23425
L7106 23869
" />
<path d="M7106 23869
L1793 22446
" />
<path d="M1793 22446
L1912 22001
" />
<path d="M1912 22001
L1294 21836
" />
<path d="M1294 21836
L1214 22135
" />
<path d="M1214 22135
L818 22029
" />
<path d="M818 22029
L699 22473
" />
<path d="M699 22473
L-1039 22008
" />
<path d="M-1039 22008
L-920 21563
" />
<path d="M-920 21563
L-1316 21457
" />
<path d="M-1316 21457
L-695 19139
" />
<path d="M-695 19139
L-1023 19051
" />
<path d="M-1023 19051
L-738 17988
" />
<path d="M-738 17988
L-410 18076
" />
<path d="M-410 18076
L-63 16782
" />
<path d="M-63 16782
L2467 17460
" />
<path d="M2467 17460
L2384 17769
" />
<path d="M2384 17769
L3002 17935
" />
<path d="M3002 17935
L3217 17133
" />
<path d="M90039 14558
L95351 13135
" />
<path d="M95351 13135
L96775 18447
" />
<path d="M96775 18447
L91462 19871
" />
<path d="M91462 19871
L90039 14558
" />
<path d="M97769 14428
L103081 13005
" />
<path d="M103081 13005
L104505 18317
" />
<path d="M104505 18317
L99192 19741
" />
<path d="M99192 19741
L97769 14428
" />
<path d="M93921 29047
L99234 27624
" />
<path d="M99234 27624
L100657 32936
" />
<path d="M100657 32936
L95345 34360
" />
<path d="M95345 34360
L93921 29047
" />
<path d="M50726 31804
L56039 33228
" />
<path d="M56039 33228
L54615 38540
" />
<path d="M54615 38540
L49303 37117
" />
<path d="M49303 37117
L50726 31804
" />
<path d="M63973 33190
L69285 31766
" />
<path d="M69285 31766
L70709 37079
" />
<path d="M70709 37079
L65396 38502
" />
<path d="M65396 38502
L63973 33190
" />
<path d="M106824 12002
L112137 10578
" />
<path d="M112137 10578
L113560 15891
" />
<path d="M113560 15891
L108248 17314
" />
<path d="M108248 17314
L106824 12002
" />
<path d="M16930 13043
L22243 14467
" />
<path d="M22243 14467
L20819 19779
" />
<path d="M20819 19779
L15507 18356
" />
<path d="M15507 18356
L16930 13043
" />
<path d="M39149 17055
L44461 18479
" />
<path d="M44461 18479
L43038 23791
" />
<path d="M43038 23791
L37725 22368
" />
<path d="M37725 22368
L39149 17055
" />
<path d="M74614 43926
L79927 42503
" />
<path d="M79927 42503
L81350 47815
" />
<path d="M81350 47815
L76038 49239
" />
<path d="M76038 49239
L74614 43926
" />
<path d="M62032 25945
L67344 24522
" />
<path d="M67344 24522
L68768 29834
" />
<path d="M68768 29834
L63455 31258
" />
<path d="M63455 31258
L62032 25945
" />
<path d="M103592 36162
L108905 34738
" />
<path d="M108905 34738
L110328 40051
" />
<path d="M110328 40051
L105016 41474
" />
<path d="M105016 41474
L103592 36162
" />
<path d="M111612 26248
L116925 24825
" />
<path d="M116925 24825
L118348 30137
" />
<path d="M118348 30137
L113036 31561
" />
<path d="M113036 31561
L111612 26248
" />
<path d="M22719 20418
L28031 21841
" />
<path d="M28031 21841
L26608 27154
" />
<path d="M26608 27154
L21295 25730
" />
<path d="M21295 25730
L22719 20418
" />
<path d="M101651 28917
L106964 27494
" />
<path d="M106964 27494
L108387 32806
" />
<path d="M108387 32806
L103074 34230
" />
<path d="M103074 34230
L101651 28917
" />
<path d="M46391 47984
L47814 42671
" />
<path d="M47814 42671
L48616 42886
" />
<path d="M48616 42886
L48782 42268
" />
<path d="M48782 42268
L48473 42185
" />
<path d="M48473 42185
L49151 39654
" />
<path d="M49151 39654
L50445 40001
" />
<path d="M50445 40001
L50533 39672
" />
<path d="M50533 39672
L51596 39957
" />
<path d="M51596 39957
L51508 40286
" />
<path d="M51508 40286
L53826 40907
" />
<path d="M53826 40907
L53720 41303
" />
<path d="M53720 41303
L54164 41422
" />
<path d="M54164 41422
L53698 43161
" />
<path d="M53698 43161
L53254 43041
" />
<path d="M53254 43041
L53148 43437
" />
<path d="M53148 43437
L52848 43357
" />
<path d="M52848 43357
L52683 43975
" />
<path d="M52683 43975
L53127 44095
" />
<path d="M53127 44095
L51703 49407
" />
<path d="M51703 49407
L51259 49288
" />
<path d="M51259 49288
L51093 49906
" />
<path d="M51093 49906
L51393 49986
" />
<path d="M51393 49986
L51287 50382
" />
<path d="M51287 50382
L51731 50502
" />
<path d="M51731 50502
L51265 52240
" />
<path d="M51265 52240
L50821 52121
" />
<path d="M50821 52121
L50715 52517
" />
<path d="M50715 52517
L48397 51896
" />
<path d="M48397 51896
L48309 52224
" />
<path d="M48309 52224
L47246 51940
" />
<path d="M47246 51940
L47334 51611
" />
<path d="M47334 51611
L46040 51265
" />
<path d="M46040 51265
L46718 48734
" />
<path d="M46718 48734
L47027 48817
" />
<path d="M47027 48817
L47193 48198
" />
<path d="M47193 48198
L46391 47984
" />
<path d="M45908 20808
L51221 22231
" />
<path d="M51221 22231
L49797 27544
" />
<path d="M49797 27544
L44485 26120
" />
<path d="M44485 26120
L45908 20808
" />
<path d="M7875 10617
L13187 12040
" />
<path d="M13187 12040
L11764 17353
" />
<path d="M11764 17353
L6451 15929
" />
<path d="M6451 15929
L7875 10617
" />
<path d="M75550 18441
L80863 17017
" />
<path d="M80863 17017
L82286 22330
" />
<path d="M82286 22330
L76974 23753
" />
<path d="M76974 23753
L75550 18441
" />
<path d="M95862 36292
L101175 34868
" />
<path d="M101175 34868
L102598 40181
" />
<path d="M102598 40181
L97286 41604
" />
<path d="M97286 41604
L95862 36292
" />
<path d="M35267 31544
L40579 32968
" />
<path d="M40579 32968
L39156 38280
" />
<path d="M39156 38280
L33843 36857
" />
<path d="M33843 36857
L35267 31544
" />
<path d="M24660 13173
L29973 14597
" />
<path d="M29973 14597
L28549 19909
" />
<path d="M28549 19909
L23236 18486
" />
<path d="M23236 18486
L24660 13173
" />
<path d="M26566 35036
L31879 36460
" />
<path d="M31879 36460
L30455 41773
" />
<path d="M30455 41773
L25143 40349
" />
<path d="M25143 40349
L26566 35036
" />
<path d="M20778 27662
L26090 29085
" />
<path d="M26090 29085
L24667 34398
" />
<path d="M24667 34398
L19354 32975
" />
<path d="M19354 32975
L20778 27662
" />
<path d="M68791 22193
L74103 20769
" />
<path d="M74103 20769
L75527 26082
" />
<path d="M75527 26082
L70214 27505
" />
<path d="M70214 27505
L68791 22193
" />
<path d="M13048 27532
L18361 28955
" />
<path d="M18361 28955
L16937 34268
" />
<path d="M16937 34268
L11624 32845
" />
<path d="M11624 32845
L13048 27532
" />
</g>
<g style="fill:#000000; fill-opacity:0.0; 
stroke:#000000; stroke-width:60; stroke-opacity:1; 
stroke-linecap:round; stroke-linejoin:round;">
</g>
<g style="fill:#C2C200; fill-opacity:0.0; 
stroke:#C2C200; stroke-width:60; stroke-opacity:1; 
stroke-linecap:round; stroke-linejoin:round;">
</g>
<g style="fill:#C2C200; fill-opacity:0.0; 
stroke:#C2C200; stroke-width:59.0551; stroke-opacity:1; 
stroke-linecap:round; stroke-linejoin:round;">
<path d="M7500 42187
L-11250 30000
" />
<path d="M60000 57187
L7500 42187
" />
<path d="M112500 42187
L60000 57187
" />
<path d="M131250 30000
L112500 42187
" />
<path d="M128437 19687
L131250 30000
" />
<path d="M118125 -937
L128437 19687
" />
<path d="M63750 6562
L118125 -937
" />
<path d="M56250 6562
L63750 6562
" />
<path d="M1875 -937
L56250 6562
" />
<path d="M-8437 19687
L1875 -937
" />
<path d="M-11250 30000
L-8437 19687
" />
</g> 
</svg>
