  0
SECTION
  2
HEADER
  9
$ANGBASE
  50
0.0
  9
$ANGDIR
  70
  1
  9
$MEASUREMENT
  70
0
  0
ENDSEC
  0
SECTION
  2
TABLES
  0
TABLE
  2
LTYPE
  70
4
  0
LTYPE
  5
40F
  2
CONTINUOUS
  70
0
  3
Solid line
  72
65
  73
0
  40
0.0
  0
LTYPE
  5
410
  2
DASHDOT
 70
0
  3
Dash Dot ____ _ ____ _
 72
65
 73
4
 40
2.0
 49
1.25
 49
-0.25
 49
0.25
 49
-0.25
  0
LTYPE
  5
411
  2
DASHED
 70
0
  3
Dashed __ __ __ __ __
 72
65
 73
2
 40
0.75
 49
0.5
 49
-0.25
  0
LTYPE
  5
43B
  2
DOTTED
 70
0
  3
Dotted .  .  .  .
 72
65
 73
2
 40
0.2
 49
0.0
 49
-0.2
  0
ENDTAB
  0
TABLE
  2
STYLE
  70
4
  0
STYLE
  2
KICAD
  70
0
  40
0
  41
1
  42
1
  50
0
  71
0
  3
isocp.shx
  0
STYLE
  2
KICADB
  70
0
  40
0
  41
1
  42
1
  50
0
  71
0
  3
isocp.shx
  0
STYLE
  2
KICADI
  70
0
  40
0
  41
1
  42
1
  50
15
  71
0
  3
isocp.shx
  0
STYLE
  2
KICADBI
  70
0
  40
0
  41
1
  42
1
  50
15
  71
0
  3
isocp.shx
  0
ENDTAB
  0
TABLE
  2
LAYER
  70
30
  0
LAYER
  2
BLACK
  70
0
  62
7
  6
CONTINUOUS
  0
LAYER
  2
GRAY1
  70
0
  62
251
  6
CONTINUOUS
  0
LAYER
  2
GRAY2
  70
0
  62
8
  6
CONTINUOUS
  0
LAYER
  2
GRAY3
  70
0
  62
9
  6
CONTINUOUS
  0
LAYER
  2
WHITE
  70
0
  62
7
  6
CONTINUOUS
  0
LAYER
  2
LYELLOW
  70
0
  62
51
  6
CONTINUOUS
  0
LAYER
  2
BLUE1
  70
0
  62
178
  6
CONTINUOUS
  0
LAYER
  2
GREEN1
  70
0
  62
98
  6
CONTINUOUS
  0
LAYER
  2
CYAN1
  70
0
  62
138
  6
CONTINUOUS
  0
LAYER
  2
RED1
  70
0
  62
18
  6
CONTINUOUS
  0
LAYER
  2
MAGENTA1
  70
0
  62
228
  6
CONTINUOUS
  0
LAYER
  2
BROWN1
  70
0
  62
58
  6
CONTINUOUS
  0
LAYER
  2
BLUE2
  70
0
  62
5
  6
CONTINUOUS
  0
LAYER
  2
GREEN2
  70
0
  62
3
  6
CONTINUOUS
  0
LAYER
  2
CYAN2
  70
0
  62
4
  6
CONTINUOUS
  0
LAYER
  2
RED2
  70
0
  62
1
  6
CONTINUOUS
  0
LAYER
  2
MAGENTA2
  70
0
  62
6
  6
CONTINUOUS
  0
LAYER
  2
BROWN2
  70
0
  62
54
  6
CONTINUOUS
  0
LAYER
  2
BLUE3
  70
0
  62
171
  6
CONTINUOUS
  0
LAYER
  2
GREEN3
  70
0
  62
91
  6
CONTINUOUS
  0
LAYER
  2
CYAN3
  70
0
  62
131
  6
CONTINUOUS
  0
LAYER
  2
RED3
  70
0
  62
11
  6
CONTINUOUS
  0
LAYER
  2
MAGENTA3
  70
0
  62
221
  6
CONTINUOUS
  0
LAYER
  2
YELLOW3
  70
0
  62
2
  6
CONTINUOUS
  0
LAYER
  2
BLUE4
  70
0
  62
5
  6
CONTINUOUS
  0
LAYER
  2
GREEN4
  70
0
  62
3
  6
CONTINUOUS
  0
LAYER
  2
CYAN4
  70
0
  62
4
  6
CONTINUOUS
  0
LAYER
  2
RED4
  70
0
  62
1
  6
CONTINUOUS
  0
LAYER
  2
MAGENTA4
  70
0
  62
6
  6
CONTINUOUS
  0
LAYER
  2
YELLOW4
  70
0
  62
2
  6
CONTINUOUS
  0
ENDTAB
  0
ENDSEC
  0
SECTION
  2
ENTITIES
0
LINE
8
BLACK
6
CONTINUOUS
10
300.048
20
2.45592
11
300.054
21
2.4557
0
LINE
8
BLACK
6
CONTINUOUS
10
300.054
20
2.4557
11
300.06
21
2.45287
0
LINE
8
BLACK
6
CONTINUOUS
10
300.06
20
2.45287
11
300.068
21
2.45112
0
LINE
8
BLACK
6
CONTINUOUS
10
300.068
20
2.45112
11
300.073
21
2.44792
0
LINE
8
BLACK
6
CONTINUOUS
10
300.073
20
2.44792
11
300.078
21
2.44573
0
LINE
8
BLACK
6
CONTINUOUS
10
300.078
20
2.44573
11
300.084
21
2.44069
0
LINE
8
BLACK
6
CONTINUOUS
10
300.084
20
2.44069
11
300.09
21
2.43655
0
LINE
8
BLACK
6
CONTINUOUS
10
300.09
20
2.43655
11
300.093
21
2.43188
0
LINE
8
BLACK
6
CONTINUOUS
10
300.093
20
2.43188
11
300.098
21
2.42798
0
LINE
8
BLACK
6
CONTINUOUS
10
300.098
20
2.42798
11
300.101
21
2.42134
0
LINE
8
BLACK
6
CONTINUOUS
10
300.101
20
2.42134
11
300.102
21
2.42065
0
LINE
8
BLACK
6
CONTINUOUS
10
300.102
20
2.42065
11
300.104
21
2.41549
0
LINE
8
BLACK
6
CONTINUOUS
10
300.104
20
2.41549
11
300.11
21
2.4046
0
LINE
8
BLACK
6
CONTINUOUS
10
300.11
20
2.4046
11
300.11
21
2.40374
0
LINE
8
BLACK
6
CONTINUOUS
10
300.11
20
2.40374
11
326.293
21
-49.9617
0
LINE
8
BLACK
6
CONTINUOUS
10
326.293
20
-49.9617
11
326.293
21
-49.9623
0
LINE
8
BLACK
6
CONTINUOUS
10
326.293
20
-49.9623
11
326.299
21
-49.9734
0
LINE
8
BLACK
6
CONTINUOUS
10
326.299
20
-49.9734
11
326.301
21
-49.9786
0
LINE
8
BLACK
6
CONTINUOUS
10
326.301
20
-49.9786
11
326.302
21
-49.9794
0
LINE
8
BLACK
6
CONTINUOUS
10
326.302
20
-49.9794
11
326.302
21
-49.9802
0
LINE
8
BLACK
6
CONTINUOUS
10
326.302
20
-49.9802
11
326.303
21
-49.9857
0
LINE
8
BLACK
6
CONTINUOUS
10
326.303
20
-49.9857
11
326.307
21
-49.9975
0
LINE
8
BLACK
6
CONTINUOUS
10
326.307
20
-49.9975
11
326.307
21
-49.9984
0
LINE
8
BLACK
6
CONTINUOUS
10
326.307
20
-49.9984
11
333.444
21
-76.169
0
LINE
8
BLACK
6
CONTINUOUS
10
333.444
20
-76.169
11
333.445
21
-76.1702
0
LINE
8
BLACK
6
CONTINUOUS
10
333.445
20
-76.1702
11
333.448
21
-76.1816
0
LINE
8
BLACK
6
CONTINUOUS
10
333.448
20
-76.1816
11
333.449
21
-76.1866
0
LINE
8
BLACK
6
CONTINUOUS
10
333.449
20
-76.1866
11
333.449
21
-76.1881
0
LINE
8
BLACK
6
CONTINUOUS
10
333.449
20
-76.1881
11
333.451
21
-76.196
0
LINE
8
BLACK
6
CONTINUOUS
10
333.451
20
-76.196
11
333.45
21
-76.2011
0
LINE
8
BLACK
6
CONTINUOUS
10
333.45
20
-76.2011
11
333.451
21
-76.2063
0
LINE
8
BLACK
6
CONTINUOUS
10
333.451
20
-76.2063
11
333.449
21
-76.2142
0
LINE
8
BLACK
6
CONTINUOUS
10
333.449
20
-76.2142
11
333.448
21
-76.2222
0
LINE
8
BLACK
6
CONTINUOUS
10
333.448
20
-76.2222
11
333.445
21
-76.2269
0
LINE
8
BLACK
6
CONTINUOUS
10
333.445
20
-76.2269
11
333.444
21
-76.2319
0
LINE
8
BLACK
6
CONTINUOUS
10
333.444
20
-76.2319
11
333.44
21
-76.2386
0
LINE
8
BLACK
6
CONTINUOUS
10
333.44
20
-76.2386
11
333.436
21
-76.2458
0
LINE
8
BLACK
6
CONTINUOUS
10
333.436
20
-76.2458
11
333.432
21
-76.2494
0
LINE
8
BLACK
6
CONTINUOUS
10
333.432
20
-76.2494
11
333.429
21
-76.2536
0
LINE
8
BLACK
6
CONTINUOUS
10
333.429
20
-76.2536
11
333.422
21
-76.2583
0
LINE
8
BLACK
6
CONTINUOUS
10
333.422
20
-76.2583
11
333.421
21
-76.2593
0
LINE
8
BLACK
6
CONTINUOUS
10
333.421
20
-76.2593
11
333.417
21
-76.2621
0
LINE
8
BLACK
6
CONTINUOUS
10
333.417
20
-76.2621
11
333.407
21
-76.2689
0
LINE
8
BLACK
6
CONTINUOUS
10
333.407
20
-76.2689
11
333.406
21
-76.2693
0
LINE
8
BLACK
6
CONTINUOUS
10
333.406
20
-76.2693
11
285.798
21
-107.215
0
LINE
8
BLACK
6
CONTINUOUS
10
285.798
20
-107.215
11
285.795
21
-107.218
0
LINE
8
BLACK
6
CONTINUOUS
10
285.795
20
-107.218
11
285.787
21
-107.222
0
LINE
8
BLACK
6
CONTINUOUS
10
285.787
20
-107.222
11
285.785
21
-107.223
0
LINE
8
BLACK
6
CONTINUOUS
10
285.785
20
-107.223
11
285.781
21
-107.225
0
LINE
8
BLACK
6
CONTINUOUS
10
285.781
20
-107.225
11
285.777
21
-107.227
0
LINE
8
BLACK
6
CONTINUOUS
10
285.777
20
-107.227
11
285.775
21
-107.227
0
LINE
8
BLACK
6
CONTINUOUS
10
285.775
20
-107.227
11
285.767
21
-107.23
0
LINE
8
BLACK
6
CONTINUOUS
10
285.767
20
-107.23
11
285.762
21
-107.231
0
LINE
8
BLACK
6
CONTINUOUS
10
285.762
20
-107.231
11
152.432
21
-145.325
0
LINE
8
BLACK
6
CONTINUOUS
10
152.432
20
-145.325
11
152.431
21
-145.326
0
LINE
8
BLACK
6
CONTINUOUS
10
152.431
20
-145.326
11
152.419
21
-145.329
0
LINE
8
BLACK
6
CONTINUOUS
10
152.419
20
-145.329
11
152.414
21
-145.33
0
LINE
8
BLACK
6
CONTINUOUS
10
152.414
20
-145.33
11
152.413
21
-145.33
0
LINE
8
BLACK
6
CONTINUOUS
10
152.413
20
-145.33
11
152.405
21
-145.332
0
LINE
8
BLACK
6
CONTINUOUS
10
152.405
20
-145.332
11
152.4
21
-145.332
0
LINE
8
BLACK
6
CONTINUOUS
10
152.4
20
-145.332
11
152.395
21
-145.332
0
LINE
8
BLACK
6
CONTINUOUS
10
152.395
20
-145.332
11
152.387
21
-145.33
0
LINE
8
BLACK
6
CONTINUOUS
10
152.387
20
-145.33
11
152.386
21
-145.33
0
LINE
8
BLACK
6
CONTINUOUS
10
152.386
20
-145.33
11
152.381
21
-145.329
0
LINE
8
BLACK
6
CONTINUOUS
10
152.381
20
-145.329
11
152.369
21
-145.326
0
LINE
8
BLACK
6
CONTINUOUS
10
152.369
20
-145.326
11
152.368
21
-145.325
0
LINE
8
BLACK
6
CONTINUOUS
10
152.368
20
-145.325
11
19.0376
21
-107.231
0
LINE
8
BLACK
6
CONTINUOUS
10
19.0376
20
-107.231
11
19.0328
21
-107.23
0
LINE
8
BLACK
6
CONTINUOUS
10
19.0328
20
-107.23
11
19.0249
21
-107.227
0
LINE
8
BLACK
6
CONTINUOUS
10
19.0249
20
-107.227
11
19.0231
21
-107.227
0
LINE
8
BLACK
6
CONTINUOUS
10
19.0231
20
-107.227
11
19.0189
21
-107.225
0
LINE
8
BLACK
6
CONTINUOUS
10
19.0189
20
-107.225
11
19.0146
21
-107.223
0
LINE
8
BLACK
6
CONTINUOUS
10
19.0146
20
-107.223
11
19.013
21
-107.222
0
LINE
8
BLACK
6
CONTINUOUS
10
19.013
20
-107.222
11
19.0053
21
-107.218
0
LINE
8
BLACK
6
CONTINUOUS
10
19.0053
20
-107.218
11
19.002
21
-107.215
0
LINE
8
BLACK
6
CONTINUOUS
10
19.002
20
-107.215
11
-28.606
21
-76.2693
0
LINE
8
BLACK
6
CONTINUOUS
10
-28.606
20
-76.2693
11
-28.6075
21
-76.2689
0
LINE
8
BLACK
6
CONTINUOUS
10
-28.6075
20
-76.2689
11
-28.6171
21
-76.2621
0
LINE
8
BLACK
6
CONTINUOUS
10
-28.6171
20
-76.2621
11
-28.6214
21
-76.2593
0
LINE
8
BLACK
6
CONTINUOUS
10
-28.6214
20
-76.2593
11
-28.6224
21
-76.2583
0
LINE
8
BLACK
6
CONTINUOUS
10
-28.6224
20
-76.2583
11
-28.6291
21
-76.2536
0
LINE
8
BLACK
6
CONTINUOUS
10
-28.6291
20
-76.2536
11
-28.632
21
-76.2493
0
LINE
8
BLACK
6
CONTINUOUS
10
-28.632
20
-76.2493
11
-28.6358
21
-76.2458
0
LINE
8
BLACK
6
CONTINUOUS
10
-28.6358
20
-76.2458
11
-28.6395
21
-76.2386
0
LINE
8
BLACK
6
CONTINUOUS
10
-28.6395
20
-76.2386
11
-28.6442
21
-76.2319
0
LINE
8
BLACK
6
CONTINUOUS
10
-28.6442
20
-76.2319
11
-28.6455
21
-76.2269
0
LINE
8
BLACK
6
CONTINUOUS
10
-28.6455
20
-76.2269
11
-28.6478
21
-76.2222
0
LINE
8
BLACK
6
CONTINUOUS
10
-28.6478
20
-76.2222
11
-28.6488
21
-76.2142
0
LINE
8
BLACK
6
CONTINUOUS
10
-28.6488
20
-76.2142
11
-28.6509
21
-76.2063
0
LINE
8
BLACK
6
CONTINUOUS
10
-28.6509
20
-76.2063
11
-28.6504
21
-76.2011
0
LINE
8
BLACK
6
CONTINUOUS
10
-28.6504
20
-76.2011
11
-28.651
21
-76.196
0
LINE
8
BLACK
6
CONTINUOUS
10
-28.651
20
-76.196
11
-28.6492
21
-76.1881
0
LINE
8
BLACK
6
CONTINUOUS
10
-28.6492
20
-76.1881
11
-28.6491
21
-76.1866
0
LINE
8
BLACK
6
CONTINUOUS
10
-28.6491
20
-76.1866
11
-28.6477
21
-76.1816
0
LINE
8
BLACK
6
CONTINUOUS
10
-28.6477
20
-76.1816
11
-28.6451
21
-76.1702
0
LINE
8
BLACK
6
CONTINUOUS
10
-28.6451
20
-76.1702
11
-28.6443
21
-76.169
0
LINE
8
BLACK
6
CONTINUOUS
10
-28.6443
20
-76.169
11
-21.5069
21
-49.9984
0
LINE
8
BLACK
6
CONTINUOUS
10
-21.5069
20
-49.9984
11
-21.5069
21
-49.9975
0
LINE
8
BLACK
6
CONTINUOUS
10
-21.5069
20
-49.9975
11
-21.5034
21
-49.9858
0
LINE
8
BLACK
6
CONTINUOUS
10
-21.5034
20
-49.9858
11
-21.5019
21
-49.9802
0
LINE
8
BLACK
6
CONTINUOUS
10
-21.5019
20
-49.9802
11
-21.5015
21
-49.9794
0
LINE
8
BLACK
6
CONTINUOUS
10
-21.5015
20
-49.9794
11
-21.5013
21
-49.9786
0
LINE
8
BLACK
6
CONTINUOUS
10
-21.5013
20
-49.9786
11
-21.4987
21
-49.9735
0
LINE
8
BLACK
6
CONTINUOUS
10
-21.4987
20
-49.9735
11
-21.4934
21
-49.9623
0
LINE
8
BLACK
6
CONTINUOUS
10
-21.4934
20
-49.9623
11
-21.4928
21
-49.9617
0
LINE
8
BLACK
6
CONTINUOUS
10
-21.4928
20
-49.9617
11
4.68989
21
2.40374
0
LINE
8
BLACK
6
CONTINUOUS
10
4.68989
20
2.40374
11
4.69001
21
2.4046
0
LINE
8
BLACK
6
CONTINUOUS
10
4.69001
20
2.4046
11
4.69576
21
2.41547
0
LINE
8
BLACK
6
CONTINUOUS
10
4.69576
20
2.41547
11
4.69835
21
2.42066
0
LINE
8
BLACK
6
CONTINUOUS
10
4.69835
20
2.42066
11
4.69886
21
2.42135
0
LINE
8
BLACK
6
CONTINUOUS
10
4.69886
20
2.42135
11
4.70237
21
2.42798
0
LINE
8
BLACK
6
CONTINUOUS
10
4.70237
20
2.42798
11
4.70667
21
2.43188
0
LINE
8
BLACK
6
CONTINUOUS
10
4.70667
20
2.43188
11
4.71014
21
2.43655
0
LINE
8
BLACK
6
CONTINUOUS
10
4.71014
20
2.43655
11
4.71641
21
2.44069
0
LINE
8
BLACK
6
CONTINUOUS
10
4.71641
20
2.44069
11
4.72198
21
2.44573
0
LINE
8
BLACK
6
CONTINUOUS
10
4.72198
20
2.44573
11
4.72736
21
2.44792
0
LINE
8
BLACK
6
CONTINUOUS
10
4.72736
20
2.44792
11
4.73221
21
2.45112
0
LINE
8
BLACK
6
CONTINUOUS
10
4.73221
20
2.45112
11
4.73952
21
2.45287
0
LINE
8
BLACK
6
CONTINUOUS
10
4.73952
20
2.45287
11
4.74648
21
2.4557
0
LINE
8
BLACK
6
CONTINUOUS
10
4.74648
20
2.4557
11
4.75228
21
2.45592
0
LINE
8
BLACK
6
CONTINUOUS
10
4.75228
20
2.45592
11
4.75794
21
2.45727
0
LINE
8
BLACK
6
CONTINUOUS
10
4.75794
20
2.45727
11
4.7654
21
2.45641
0
LINE
8
BLACK
6
CONTINUOUS
10
4.7654
20
2.45641
11
4.76625
21
2.45644
0
LINE
8
BLACK
6
CONTINUOUS
10
4.76625
20
2.45644
11
4.77195
21
2.45566
0
LINE
8
BLACK
6
CONTINUOUS
10
4.77195
20
2.45566
11
4.78421
21
2.45424
0
LINE
8
BLACK
6
CONTINUOUS
10
4.78421
20
2.45424
11
4.78499
21
2.45386
0
LINE
8
BLACK
6
CONTINUOUS
10
4.78499
20
2.45386
11
142.88
21
-16.5938
0
LINE
8
BLACK
6
CONTINUOUS
10
142.88
20
-16.5938
11
161.92
21
-16.5938
0
LINE
8
BLACK
6
CONTINUOUS
10
161.92
20
-16.5938
11
300.015
21
2.45386
0
LINE
8
BLACK
6
CONTINUOUS
10
300.015
20
2.45386
11
300.016
21
2.45424
0
LINE
8
BLACK
6
CONTINUOUS
10
300.016
20
2.45424
11
300.028
21
2.45566
0
LINE
8
BLACK
6
CONTINUOUS
10
300.028
20
2.45566
11
300.034
21
2.45644
0
LINE
8
BLACK
6
CONTINUOUS
10
300.034
20
2.45644
11
300.035
21
2.45641
0
LINE
8
BLACK
6
CONTINUOUS
10
300.035
20
2.45641
11
300.042
21
2.45727
0
LINE
8
BLACK
6
CONTINUOUS
10
300.042
20
2.45727
11
300.048
21
2.45592
0
LINE
8
BLACK
6
CONTINUOUS
10
-21.3608
20
-50.0331
11
-28.4882
21
-76.1669
0
LINE
8
BLACK
6
CONTINUOUS
10
-28.4882
20
-76.1669
11
19.0814
21
-107.087
0
LINE
8
BLACK
6
CONTINUOUS
10
19.0814
20
-107.087
11
152.4
21
-145.178
0
LINE
8
BLACK
6
CONTINUOUS
10
152.4
20
-145.178
11
285.719
21
-107.087
0
LINE
8
BLACK
6
CONTINUOUS
10
285.719
20
-107.087
11
333.288
21
-76.1669
0
LINE
8
BLACK
6
CONTINUOUS
10
333.288
20
-76.1669
11
326.161
21
-50.0332
0
LINE
8
BLACK
6
CONTINUOUS
10
326.161
20
-50.0332
11
299.994
21
2.2996
0
LINE
8
BLACK
6
CONTINUOUS
10
299.994
20
2.2996
11
161.937
21
-16.7429
0
LINE
8
BLACK
6
CONTINUOUS
10
161.937
20
-16.7429
11
161.932
21
-16.7437
0
LINE
8
BLACK
6
CONTINUOUS
10
161.932
20
-16.7437
11
161.93
21
-16.7437
0
LINE
8
BLACK
6
CONTINUOUS
10
161.93
20
-16.7437
11
161.929
21
-16.7439
0
LINE
8
BLACK
6
CONTINUOUS
10
161.929
20
-16.7439
11
161.924
21
-16.7437
0
LINE
8
BLACK
6
CONTINUOUS
10
161.924
20
-16.7437
11
142.876
21
-16.7437
0
LINE
8
BLACK
6
CONTINUOUS
10
142.876
20
-16.7437
11
142.871
21
-16.7439
0
LINE
8
BLACK
6
CONTINUOUS
10
142.871
20
-16.7439
11
142.87
21
-16.7437
0
LINE
8
BLACK
6
CONTINUOUS
10
142.87
20
-16.7437
11
142.868
21
-16.7437
0
LINE
8
BLACK
6
CONTINUOUS
10
142.868
20
-16.7437
11
142.863
21
-16.7429
0
LINE
8
BLACK
6
CONTINUOUS
10
142.863
20
-16.7429
11
4.80553
21
2.29961
0
LINE
8
BLACK
6
CONTINUOUS
10
4.80553
20
2.29961
11
-21.3608
21
-50.0331
  0
ENDSEC
  0
EOF
